<svg width="100" height="100" viewBox="0 0 100 100" fill="none" xmlns="http://www.w3.org/2000/svg">
<path d="M62.4046 8.91631C63.0891 9.76813 63.4382 10.9145 64.1373 13.209L79.3955 63.3272C73.6642 60.3531 67.5129 58.2703 61.1536 57.1509L51.2227 23.5872C50.8555 22.3509 49.1027 22.3563 48.7427 23.5945L38.9264 57.1399C32.539 58.2547 26.3601 60.3413 20.6046 63.3272L35.9364 13.2027C36.6346 10.9109 36.9846 9.7654 37.6727 8.91631C38.2772 8.16671 39.0638 7.58455 39.9573 7.2254C40.97 6.81995 42.1646 6.81995 44.5609 6.81995H55.5127C57.9091 6.81995 59.11 6.81995 60.1236 7.22904C61.014 7.58838 61.7979 8.16916 62.4009 8.91631H62.4046Z" stroke="url(#paint0_linear_6_2314)" stroke-width="6" stroke-linecap="round" stroke-linejoin="round"/>
<path d="M64.0645 68.2391C61.55 70.3909 56.53 71.8546 50.7482 71.8546C43.6491 71.8546 37.7 69.6473 36.1209 66.6746C35.5591 68.3791 35.43 70.3282 35.43 71.5718C35.43 71.5718 35.0591 77.6855 39.3109 81.94C39.3109 79.7327 41.1027 77.94 43.3109 77.94C47.0936 77.94 47.09 81.2418 47.0873 83.9218V84.1618C47.0873 88.2282 49.5709 91.7109 53.1055 93.1818C52.5615 92.0617 52.2799 90.8325 52.2818 89.5873C52.2818 85.71 54.5591 84.2673 57.2073 82.59C59.31 81.2518 61.6509 79.7709 63.2618 76.7909C64.1299 75.1887 64.5836 73.395 64.5818 71.5727C64.5818 70.4409 64.4082 69.3164 64.0645 68.2391Z" stroke="url(#paint1_linear_6_2314)" stroke-width="6" stroke-linecap="round" stroke-linejoin="round"/>
<defs>
<linearGradient id="paint0_linear_6_2314" x1="20.6173" y1="7.01793" x2="87.1714" y2="51.7144" gradientUnits="userSpaceOnUse">
<stop stop-color="white"/>
<stop offset="0.848958" stop-color="#7F787F"/>
<stop offset="0.982609" stop-color="#4B454B"/>
</linearGradient>
<linearGradient id="paint1_linear_6_2314" x1="35.3406" y1="66.6009" x2="61.8733" y2="95.7901" gradientUnits="userSpaceOnUse">
<stop stop-color="#D300DC"/>
<stop offset="0.505208" stop-color="#B12496"/>
<stop offset="1" stop-color="#F47D65"/>
</linearGradient>
</defs>
</svg>
