<svg width="100" height="100" viewBox="0 0 100 100" fill="none" xmlns="http://www.w3.org/2000/svg">
<path d="M50.0681 7.14551L86.4772 18.8428C96.0909 70.7882 61.5272 92.8537 49.8999 92.8537C38.2727 92.8537 3.6063 70.721 13.6581 18.8428L50.0681 7.14551Z" stroke="url(#paint0_linear_10_4)" stroke-width="8" stroke-linecap="round" stroke-linejoin="round"/>
<path d="M58.1027 61.4475V52.1365C59.0621 51.2882 59.886 50.2907 60.5402 49.1777C61.5974 47.3792 62.1756 45.3402 62.2205 43.2556C62.4485 39.2658 61.0699 35.9173 58.5909 33.604C56.1808 31.355 53.0088 30.338 49.9999 30.338C46.991 30.338 43.8191 31.355 41.409 33.604C38.9349 35.9126 37.5569 39.2524 37.778 43.2316C37.8018 45.3331 38.3678 47.3936 39.4223 49.2132L42.8832 47.2075L39.4223 49.2132C40.0823 50.352 40.9192 51.3716 41.8972 52.2364V61.4477C41.7225 63.9834 42.578 66.2576 44.2703 67.8681C45.9112 69.4297 48.0449 70.0928 50.0003 70.0928C51.9557 70.0928 54.0895 69.4297 55.7303 67.8679C57.4225 66.2573 58.2776 63.983 58.1027 61.4475Z" stroke="url(#paint1_linear_10_4)" stroke-width="8"/>
<defs>
<linearGradient id="paint0_linear_10_4" x1="14.2322" y1="16.4591" x2="92.5524" y2="81.6135" gradientUnits="userSpaceOnUse">
<stop stop-color="#FFA424"/>
<stop offset="0.979167" stop-color="#FF4C2E"/>
</linearGradient>
<linearGradient id="paint1_linear_10_4" x1="42.2691" y1="37.7887" x2="65.4525" y2="49.04" gradientUnits="userSpaceOnUse">
<stop stop-color="#FFA424"/>
<stop offset="0.979167" stop-color="#FF4C2E"/>
</linearGradient>
</defs>
</svg>
