<svg width="100" height="100" viewBox="0 0 100 100" fill="none" xmlns="http://www.w3.org/2000/svg">
<path d="M38.9709 54.3728C34.2915 51.2901 28.809 49.6512 23.2054 49.6601C17.1918 49.6601 11.5509 51.2819 6.93817 54.4446C6.93817 43.0239 11.475 32.071 19.5507 23.9953C27.6263 15.9197 38.5793 11.3828 50 11.3828C61.4207 11.3828 72.3736 15.9197 80.4493 23.9953C88.5249 32.071 93.0618 43.0239 93.0618 54.4446C88.44 51.2674 82.8227 49.6601 76.7945 49.6601C72.1393 49.6592 67.5536 50.7905 63.4329 52.9563C59.3121 55.1221 55.7799 58.2576 53.1406 62.0924C50.5014 65.9272 48.8343 70.3463 48.283 74.9688C47.7318 79.5913 48.3129 84.2785 49.9764 88.6264" stroke="url(#paint0_linear_24_127)" stroke-width="8" stroke-linecap="round" stroke-linejoin="round"/>
<defs>
<linearGradient id="paint0_linear_24_127" x1="16.2764" y1="22.1884" x2="85.4533" y2="95.9436" gradientUnits="userSpaceOnUse">
<stop stop-color="#FC4988"/>
<stop offset="0.567175" stop-color="#D20F39"/>
<stop offset="1" stop-color="#FF0000"/>
</linearGradient>
</defs>
</svg>
