<svg width="100" height="100" viewBox="0 0 100 100" fill="none" xmlns="http://www.w3.org/2000/svg">
<path d="M49.9963 37.7509C70.8968 37.7509 87.84 30.8894 87.84 22.4254C87.84 13.9614 70.8968 7.09998 49.9963 7.09998C29.0959 7.09998 12.1527 13.9614 12.1527 22.4254C12.1527 30.8894 29.0959 37.7509 49.9963 37.7509Z" stroke="url(#paint0_linear_6_2050)" stroke-width="8"/>
<path d="M87.8382 49.6527C87.8378 52.3426 86.0892 54.9851 82.7681 57.3146C79.4469 59.6441 74.6703 61.5786 68.9182 62.9237C63.1653 64.2687 56.6396 64.9768 49.9968 64.9768C43.354 64.9768 36.8283 64.2687 31.0754 62.9237C25.3233 61.5789 20.5463 59.6448 17.2246 57.3156C13.9029 54.9865 12.1533 52.3443 12.1518 49.6546M87.8382 77.5637C87.8385 80.2539 86.0901 82.8967 82.7688 85.2266C79.4475 87.5565 74.6702 89.4912 68.9172 90.8364C63.1644 92.1814 56.6387 92.8895 49.9959 92.8895C43.3531 92.8895 36.8274 92.1814 31.0745 90.8364C25.3212 89.4913 20.5436 87.5566 17.222 85.2267C13.9003 82.8969 12.1517 80.254 12.1518 77.5637M12.1609 22.8V77.5637M87.8482 22.77V77.5337" stroke="url(#paint1_linear_6_2050)" stroke-width="8"/>
<path d="M87.8382 49.6527C87.8378 52.3426 86.0892 54.9851 82.7681 57.3146C79.4469 59.6441 74.6703 61.5786 68.9182 62.9237C63.1653 64.2687 56.6396 64.9768 49.9968 64.9768C43.354 64.9768 36.8283 64.2687 31.0754 62.9237C25.3233 61.5789 20.5463 59.6448 17.2246 57.3156C13.9029 54.9865 12.1533 52.3443 12.1518 49.6546M87.8382 77.5637C87.8385 80.2539 86.0901 82.8967 82.7688 85.2266C79.4475 87.5565 74.6702 89.4912 68.9172 90.8364C63.1644 92.1814 56.6387 92.8895 49.9959 92.8895C43.3531 92.8895 36.8274 92.1814 31.0745 90.8364C25.3212 89.4913 20.5436 87.5566 17.222 85.2267C13.9003 82.8969 12.1517 80.254 12.1518 77.5637M12.1609 22.8V77.5637M87.8482 22.77V77.5337" stroke="url(#paint2_linear_6_2050)" stroke-width="8"/>
<defs>
<linearGradient id="paint0_linear_6_2050" x1="9.44649" y1="6.10094" x2="32.4076" y2="62.8228" gradientUnits="userSpaceOnUse">
<stop offset="0.0364583" stop-color="#FEFDCD"/>
<stop offset="0.354167" stop-color="#FFFA2E"/>
<stop offset="0.682292" stop-color="#D5BE1E"/>
<stop offset="1" stop-color="#B58D34"/>
</linearGradient>
<linearGradient id="paint1_linear_6_2050" x1="9.44525" y1="20.4845" x2="84.7346" y2="101.795" gradientUnits="userSpaceOnUse">
<stop offset="0.0364583" stop-color="#FEFDCD"/>
<stop offset="0.354167" stop-color="#FFFA2E"/>
<stop offset="0.682292" stop-color="#D5BE1E"/>
<stop offset="1" stop-color="#B58D34"/>
</linearGradient>
<linearGradient id="paint2_linear_6_2050" x1="9.44525" y1="20.4845" x2="84.7346" y2="101.795" gradientUnits="userSpaceOnUse">
<stop offset="0.0364583" stop-color="#FEFDCD"/>
<stop offset="0.354167" stop-color="#FFFA2E"/>
<stop offset="0.682292" stop-color="#D5BE1E"/>
<stop offset="1" stop-color="#B58D34"/>
</linearGradient>
</defs>
</svg>
