<svg width="100" height="100" viewBox="0 0 100 100" fill="none" xmlns="http://www.w3.org/2000/svg">
<path fill-rule="evenodd" clip-rule="evenodd" d="M41.3046 8.63635C39.0955 8.63635 37.3046 10.4272 37.3046 12.6364C37.3046 14.8455 39.0955 16.6364 41.3046 16.6364H46.821V23.3291H20.6073C14.8836 23.3291 10.2437 27.9691 10.2437 33.6927V52.3727H6.81824C4.6091 52.3727 2.81824 54.1636 2.81824 56.3727C2.81824 58.5819 4.6091 60.3727 6.81824 60.3727H10.2437V81C10.2437 86.7237 14.8836 91.3636 20.6073 91.3636H79.3937C85.1173 91.3636 89.7573 86.7237 89.7573 81V60.3727H93.1819C95.391 60.3727 97.1819 58.5819 97.1819 56.3727C97.1819 54.1636 95.391 52.3727 93.1819 52.3727H89.7573V33.6927C89.7573 27.9691 85.1173 23.3291 79.3937 23.3291H54.821V12.6364C54.821 10.4272 53.0301 8.63635 50.821 8.63635H41.3046ZM41.7955 49.6273C41.7955 47.4181 40.0047 45.6273 37.7955 45.6273C35.5864 45.6273 33.7955 47.4181 33.7955 49.6273V64.5373C33.7955 66.7464 35.5864 68.5373 37.7955 68.5373C40.0047 68.5373 41.7955 66.7464 41.7955 64.5373V49.6273ZM66.3364 49.6273C66.3364 47.4181 64.5456 45.6273 62.3364 45.6273C60.1273 45.6273 58.3364 47.4181 58.3364 49.6273V64.5373C58.3364 66.7464 60.1273 68.5373 62.3364 68.5373C64.5456 68.5373 66.3364 66.7464 66.3364 64.5373V49.6273ZM18.2437 33.6927C18.2437 32.3873 19.3019 31.3291 20.6073 31.3291H79.3937C80.6991 31.3291 81.7573 32.3873 81.7573 33.6927V81C81.7573 82.3054 80.6991 83.3636 79.3937 83.3636H20.6073C19.3019 83.3636 18.2437 82.3054 18.2437 81V33.6927Z" fill="url(#paint0_linear_6_2053)"/>
<defs>
<linearGradient id="paint0_linear_6_2053" x1="2.81824" y1="8.63635" x2="90.9918" y2="97.5053" gradientUnits="userSpaceOnUse">
<stop stop-color="#5FC7FF"/>
<stop offset="1" stop-color="#2731F7"/>
</linearGradient>
</defs>
</svg>
