<svg width="100" height="100" viewBox="0 0 100 100" fill="none" xmlns="http://www.w3.org/2000/svg">
<path d="M85.7055 7.11096H14.2946C10.3272 7.11096 7.11096 10.3272 7.11096 14.2946V85.7055C7.11096 89.6729 10.3272 92.8892 14.2946 92.8892H85.7055C89.6729 92.8892 92.8892 89.6729 92.8892 85.7055V14.2946C92.8892 10.3272 89.6729 7.11096 85.7055 7.11096Z" stroke="url(#paint0_linear_24_250)" stroke-width="8" stroke-linecap="round" stroke-linejoin="round"/>
<path fill-rule="evenodd" clip-rule="evenodd" d="M53.4509 4.45614C51.8998 2.88312 49.3672 2.86534 47.7942 4.41644C46.2212 5.96753 46.2034 8.50013 47.7545 10.0732L60.849 23.3528H29.0933L12.9687 7.28738C11.4037 5.72816 8.87104 5.73283 7.31182 7.2978C5.7526 8.86277 5.75726 11.3954 7.32223 12.9546L44.4232 49.9193L7.06553 87.4604C5.50727 89.0263 5.51347 91.559 7.07939 93.1172C8.64531 94.6755 11.178 94.6693 12.7362 93.1034L50.0904 55.5657L87.4804 92.8183C89.0454 94.3775 91.578 94.3728 93.1373 92.8079C94.6965 91.2429 94.6918 88.7102 93.1268 87.151L76.8774 70.9613L94.8684 52.9703C94.9386 52.9 95.0057 52.8279 95.0696 52.7539C95.139 52.6942 95.2069 52.6317 95.273 52.5665C96.8461 51.0154 96.8638 48.4828 95.3128 46.9098L53.4509 4.45614ZM55.7334 49.895L71.2101 65.3148L86.827 49.698L71.4488 34.1024L55.7334 49.895ZM62.8989 31.3528H37.1228L50.0662 44.2486L62.8989 31.3528Z" fill="url(#paint1_linear_24_250)"/>
<defs>
<linearGradient id="paint0_linear_24_250" x1="7.11096" y1="7.11096" x2="97.8435" y2="87.2822" gradientUnits="userSpaceOnUse">
<stop stop-color="#5FC7FF"/>
<stop offset="1" stop-color="#2731F7"/>
</linearGradient>
<linearGradient id="paint1_linear_24_250" x1="5.90088" y1="3.26465" x2="102.115" y2="87.8555" gradientUnits="userSpaceOnUse">
<stop stop-color="#5FC7FF"/>
<stop offset="1" stop-color="#2731F7"/>
</linearGradient>
</defs>
</svg>
