<svg width="100" height="100" viewBox="0 0 100 100" fill="none" xmlns="http://www.w3.org/2000/svg">
<path d="M6.84003 21.2273C6.84003 13.2809 13.2809 6.84003 21.2264 6.84003H78.7737C86.7191 6.84003 93.16 13.2809 93.16 21.2264V78.7737C93.16 86.7191 86.7191 93.16 78.7737 93.16H21.2264C13.2809 93.16 6.84003 86.7191 6.84003 78.7737V21.2273Z" stroke="url(#paint0_linear_6_2065)" stroke-width="8"/>
<path fill-rule="evenodd" clip-rule="evenodd" d="M35.0546 20.2791C35.0546 18.07 33.2637 16.2791 31.0546 16.2791C28.8454 16.2791 27.0546 18.07 27.0546 20.2791V31.922C20.9582 33.6604 16.4946 39.2721 16.4946 45.9264C16.4946 52.5806 20.9582 58.1924 27.0546 59.9307V79.7637C27.0546 81.9728 28.8454 83.7637 31.0546 83.7637C33.2637 83.7637 35.0546 81.9728 35.0546 79.7637V59.9313C41.1519 58.1935 45.6164 52.5813 45.6164 45.9264C45.6164 39.2715 41.1519 33.6593 35.0546 31.9215V20.2791ZM72.88 20.2791C72.88 18.07 71.0892 16.2791 68.88 16.2791C66.6709 16.2791 64.88 18.07 64.88 20.2791V46.9789C58.7283 48.6814 54.2118 54.3201 54.2118 61.0137C54.2118 67.7072 58.7283 73.3459 64.88 75.0484V79.7637C64.88 81.9728 66.6709 83.7637 68.88 83.7637C71.0892 83.7637 72.88 81.9728 72.88 79.7637V74.9872C78.9219 73.2142 83.3336 67.6291 83.3336 61.0137C83.3336 54.3982 78.9219 48.8131 72.88 47.0401V20.2791ZM31.0555 39.3655C27.432 39.3655 24.4946 42.3029 24.4946 45.9264C24.4946 49.5499 27.432 52.4873 31.0555 52.4873C34.679 52.4873 37.6164 49.5499 37.6164 45.9264C37.6164 42.3029 34.679 39.3655 31.0555 39.3655ZM68.7727 54.4528C65.1492 54.4528 62.2118 57.3902 62.2118 61.0137C62.2118 64.6372 65.1492 67.5746 68.7727 67.5746C72.3962 67.5746 75.3336 64.6372 75.3336 61.0137C75.3336 57.3902 72.3962 54.4528 68.7727 54.4528Z" fill="url(#paint1_linear_6_2065)"/>
<defs>
<linearGradient id="paint0_linear_6_2065" x1="9.53258" y1="16.2201" x2="89.5682" y2="91.018" gradientUnits="userSpaceOnUse">
<stop stop-color="#FFA424"/>
<stop offset="0.979167" stop-color="#FF4C2E"/>
</linearGradient>
<linearGradient id="paint1_linear_6_2065" x1="16.5091" y1="16.5156" x2="94.4455" y2="66.3419" gradientUnits="userSpaceOnUse">
<stop stop-color="white"/>
<stop offset="0.848958" stop-color="#7F787F"/>
<stop offset="0.982609" stop-color="#4B454B"/>
</linearGradient>
</defs>
</svg>
