<svg width="100" height="100" viewBox="0 0 100 100" fill="none" xmlns="http://www.w3.org/2000/svg">
<path fill-rule="evenodd" clip-rule="evenodd" d="M20.8509 19.5272C20.8509 18.0655 21.8266 15.9281 23.897 13.9783C25.9534 12.0417 28.2859 11.0563 29.91 11.0563H46V31.8182C46 35.4573 46.8674 38.9155 49.589 41.3191C52.1938 43.6195 55.683 44.2063 59.0909 44.2063H79.1491V79.8845C79.1491 81.5607 78.1261 83.8675 76.0997 85.894C74.0733 87.9205 71.7665 88.9436 70.09 88.9436H29.91C28.2335 88.9436 25.9267 87.9205 23.9003 85.894C21.8739 83.8675 20.8509 81.5607 20.8509 79.8845V19.5272ZM87.1491 40.2063C87.1491 39.098 86.6983 38.095 85.9702 37.3706L52.8356 4.23506C52.1111 3.507 51.1082 3.05634 50 3.05634H29.91C25.5986 3.05634 21.4016 5.33917 18.4123 8.15438C15.437 10.9564 12.8509 15.0545 12.8509 19.5272V79.8845C12.8509 84.3638 15.2793 88.5866 18.2433 91.5507C21.2074 94.5149 25.4301 96.9436 29.91 96.9436H70.09C74.5698 96.9436 78.7926 94.5149 81.7567 91.5507C84.7207 88.5866 87.1491 84.3638 87.1491 79.8845V40.22M54 16.7134L73.4924 36.2063H59.0909C56.3425 36.2063 55.2862 35.6773 54.8846 35.3227C54.5999 35.0712 54 34.3354 54 31.8182V16.7134Z" fill="url(#paint0_linear_6_2075)"/>
<defs>
<linearGradient id="paint0_linear_6_2075" x1="12.867" y1="3.38529" x2="109.656" y2="52.8265" gradientUnits="userSpaceOnUse">
<stop stop-color="white"/>
<stop offset="0.848958" stop-color="#7F787F"/>
<stop offset="0.982609" stop-color="#4B454B"/>
</linearGradient>
</defs>
</svg>
