<svg width="100" height="100" viewBox="0 0 100 100" fill="none" xmlns="http://www.w3.org/2000/svg">
<g clip-path="url(#clip0_314_47)">
<path d="M48.6879 20.1843L49.071 22.2225H51.1449H87.6149C93.0715 22.2225 97.5 26.647 97.5 32.1076V77.982C97.5 83.4379 93.0708 87.8671 87.6149 87.8671H12.3851C6.92684 87.8671 2.5 83.4382 2.5 77.982V42.2029V32.1076V22.0179C2.5 16.5569 6.92612 12.1328 12.3851 12.1328H38.991C43.815 12.1328 47.8259 15.597 48.6879 20.1843Z" stroke="url(#paint0_linear_314_47)" stroke-width="5"/>
<path d="M63.5938 31.5C65 31.5521 66.1979 32.0729 67.1875 33.0625C68.1771 34 68.6979 35.1719 68.75 36.5781V56.8125H73.2031C74.6615 56.8646 75.8594 57.4115 76.7969 58.4531C77.7865 59.4948 78.2812 60.7448 78.2812 62.2031C78.2292 63.6094 77.7083 64.8073 76.7188 65.7969C75.7812 66.7344 74.6094 67.2292 73.2031 67.2812H68.75V74.8594C68.4375 77.9844 66.7188 79.6771 63.5938 79.9375C62.1354 79.9375 60.8594 79.4688 59.7656 78.5312C58.724 77.5417 58.2031 76.3177 58.2031 74.8594V67.2812H41.6406C37.9948 67.0729 34.974 65.849 32.5781 63.6094C30.2344 61.3177 28.5417 58.5312 27.5 55.25C26.5104 51.9688 25.9896 48.4792 25.9375 44.7812V36.5781C25.9896 35.1719 26.5104 34 27.5 33.0625C28.4896 32.0729 29.6875 31.5521 31.0938 31.5C32.5521 31.5 33.8021 31.9948 34.8438 32.9844C35.8854 33.9219 36.4323 35.1198 36.4844 36.5781V43.8438C36.4323 45.9792 36.5625 47.9583 36.875 49.7812C37.2396 51.5521 38.0729 53.1406 39.375 54.5469C40.6771 55.9531 42.3177 56.7083 44.2969 56.8125H58.2031V36.5781C58.2552 35.1198 58.8021 33.9219 59.8438 32.9844C60.8854 31.9948 62.1354 31.5 63.5938 31.5Z" fill="url(#paint1_linear_314_47)"/>
</g>
<defs>
<linearGradient id="paint0_linear_314_47" x1="-3.57553" y1="7.00135" x2="81.407" y2="112.306" gradientUnits="userSpaceOnUse">
<stop offset="0.0364583" stop-color="#FEFDCD"/>
<stop offset="0.354167" stop-color="#FFFA2E"/>
<stop offset="0.682292" stop-color="#D5BE1E"/>
<stop offset="1" stop-color="#B58D34"/>
</linearGradient>
<linearGradient id="paint1_linear_314_47" x1="20.0137" y1="10.2803" x2="102.25" y2="52.083" gradientUnits="userSpaceOnUse">
<stop stop-color="white"/>
<stop offset="0.848958" stop-color="#7F787F"/>
<stop offset="0.982609" stop-color="#4B454B"/>
</linearGradient>
<clipPath id="clip0_314_47">
<rect width="100" height="100" fill="white"/>
</clipPath>
</defs>
</svg>
