<svg width="100" height="100" viewBox="0 0 100 100" fill="none" xmlns="http://www.w3.org/2000/svg">
<g clip-path="url(#clip0_15_464)">
<path d="M48.6879 20.1843L49.071 22.2226H51.1449H87.6149C93.0715 22.2226 97.5 26.647 97.5 32.1077V77.9821C97.5 83.4379 93.0708 87.8672 87.6149 87.8672H12.3851C6.92684 87.8672 2.5 83.4383 2.5 77.9821V42.2029V32.1077V22.018C2.5 16.557 6.92612 12.1329 12.3851 12.1329H38.991C43.815 12.1329 47.8259 15.5971 48.6879 20.1843Z" stroke="url(#paint0_linear_15_464)" stroke-width="5"/>
<path d="M61.7726 61.4012C61.9879 59.6177 62.1508 57.8372 62.1508 56.0015C62.1508 54.1657 61.9879 52.3823 61.7726 50.6017H70.8991C71.3297 52.3299 71.6003 54.1366 71.6003 56.0015C71.5885 57.8233 71.353 59.6367 70.8991 61.4012M56.9926 76.4133C58.6131 73.4167 59.8553 70.1757 60.7194 66.8009H68.6851C66.069 71.3057 61.9184 74.718 56.9926 76.4133ZM56.3176 61.4012H43.6853C43.4147 59.6177 43.2518 57.8372 43.2518 56.0015C43.2518 54.1657 43.4147 52.3561 43.6853 50.6017H56.3205C56.5649 52.3561 56.754 54.1657 56.754 56.0015C56.754 57.8372 56.5649 59.6177 56.3205 61.4012M50.0044 77.4926C47.7642 74.2546 45.9517 70.6615 44.8461 66.8009H55.1597C54.0541 70.6615 52.2475 74.2546 50.0044 77.4926ZM39.202 45.1991H31.3178C33.9072 40.682 38.0552 37.2643 42.9842 35.5867C41.3637 38.5833 40.1476 41.8243 39.202 45.1991ZM31.3178 66.8009H39.202C40.1476 70.1757 41.3637 73.4167 42.9842 76.4133C38.0656 74.7169 33.9236 71.3041 31.3178 66.8009ZM29.1038 61.4012C28.6489 59.6369 28.4125 57.8234 28.3997 56.0015C28.3997 54.1395 28.6703 52.327 29.1009 50.5988H38.2274C38.0121 52.3823 37.8492 54.1657 37.8492 56.0015C37.8492 57.8372 38.0121 59.6177 38.2274 61.4012M49.9985 34.4812C52.2387 37.7193 54.0512 41.3385 55.1568 45.1991H44.8432C45.9488 41.3385 47.7584 37.7222 50.0015 34.4812M68.6851 45.1991H60.7194C59.8751 41.855 58.6245 38.6268 56.9955 35.5867C61.9254 37.2734 66.0779 40.6879 68.6851 45.1991ZM49.9985 29.0029C35.0679 29.0029 23 41.1523 23 56.0015C22.9992 59.5474 23.697 63.0589 25.0535 66.3351C26.4099 69.6114 28.3985 72.5884 30.9056 75.0961C33.4128 77.6037 36.3893 79.593 39.6653 80.9501C42.9413 82.3073 46.4526 83.0058 49.9985 83.0058C53.5448 83.0062 57.0563 82.308 60.3327 80.951C63.609 79.594 66.5859 77.6048 69.0933 75.0971C71.6008 72.5894 73.5896 69.6123 74.9463 66.3358C76.3029 63.0593 77.0008 59.5477 77 56.0015C77.0004 52.4557 76.3023 48.9446 74.9457 45.6687C73.5891 42.3927 71.6004 39.4161 69.0933 36.9087C66.5863 34.4014 63.6098 32.4124 60.334 31.0554C57.0582 29.6984 53.5472 29 50.0015 29L49.9985 29.0029Z" fill="url(#paint1_linear_15_464)"/>
</g>
<defs>
<linearGradient id="paint0_linear_15_464" x1="10.8428" y1="20.9267" x2="82.2687" y2="105.527" gradientUnits="userSpaceOnUse">
<stop stop-color="#FC4988"/>
<stop offset="0.567175" stop-color="#D20F39"/>
<stop offset="1" stop-color="#FF0000"/>
</linearGradient>
<linearGradient id="paint1_linear_15_464" x1="28.8551" y1="36.5548" x2="77.2717" y2="82.8482" gradientUnits="userSpaceOnUse">
<stop stop-color="#FC4988"/>
<stop offset="0.567175" stop-color="#D20F39"/>
<stop offset="1" stop-color="#FF0000"/>
</linearGradient>
<clipPath id="clip0_15_464">
<rect width="100" height="100" fill="white"/>
</clipPath>
</defs>
</svg>
