<svg width="100" height="100" viewBox="0 0 100 100" fill="none" xmlns="http://www.w3.org/2000/svg">
<path fill-rule="evenodd" clip-rule="evenodd" d="M38.4446 13.6004C43.8026 4.32005 57.1976 4.32006 62.5555 13.6004L95.9815 71.4959C101.34 80.7762 94.642 92.3766 83.9261 92.3766H17.0741C6.35806 92.3766 -0.339418 80.7762 5.01857 71.4959L9.03707 73.816L5.01857 71.4959L38.4446 13.6004ZM54.5186 18.2405C52.7326 15.1471 48.2676 15.1471 46.4816 18.2405L13.0556 76.1361C11.2696 79.2295 13.5021 83.0963 17.0741 83.0963H83.9261C87.4981 83.0963 89.7306 79.2295 87.9446 76.1361L54.5186 18.2405Z" fill="url(#paint0_linear_328_11)"/>
<path fill-rule="evenodd" clip-rule="evenodd" d="M3.5 38C3.5 34.134 6.63401 31 10.5 31H87C90.866 31 94 34.134 94 38C94 41.866 90.866 45 87 45H10.5C6.63401 45 3.5 41.866 3.5 38Z" fill="url(#paint1_linear_328_11)"/>
<path fill-rule="evenodd" clip-rule="evenodd" d="M25 62C25 58.134 28.134 55 32 55L69 55C72.866 55 76 58.134 76 62C76 65.866 72.866 69 69 69L32 69C28.134 69 25 65.866 25 62Z" fill="url(#paint2_linear_328_11)"/>
<defs>
<linearGradient id="paint0_linear_328_11" x1="13.4047" y1="18.6337" x2="90.2288" y2="99.8068" gradientUnits="userSpaceOnUse">
<stop stop-color="#FC4988"/>
<stop offset="0.567175" stop-color="#D20F39"/>
<stop offset="1" stop-color="#FF0000"/>
</linearGradient>
<linearGradient id="paint1_linear_328_11" x1="3.5" y1="31" x2="5.78151" y2="53.82" gradientUnits="userSpaceOnUse">
<stop stop-color="#A6F58E"/>
<stop offset="0.479167" stop-color="#4FB830"/>
<stop offset="1" stop-color="#1D6F01"/>
</linearGradient>
<linearGradient id="paint2_linear_328_11" x1="23.1765" y1="54.5437" x2="30.8712" y2="82.5858" gradientUnits="userSpaceOnUse">
<stop offset="0.0364583" stop-color="#FEFDCD"/>
<stop offset="0.354167" stop-color="#FFFA2E"/>
<stop offset="0.682292" stop-color="#D5BE1E"/>
<stop offset="1" stop-color="#B58D34"/>
</linearGradient>
</defs>
</svg>
