<svg width="100" height="100" viewBox="0 0 100 100" fill="none" xmlns="http://www.w3.org/2000/svg">
<g clip-path="url(#clip0_30_211)">
<path d="M48.6879 20.1843L49.071 22.2226H51.1449H87.6149C93.0715 22.2226 97.5 26.647 97.5 32.1077V77.9821C97.5 83.4379 93.0708 87.8672 87.6149 87.8672H12.3851C6.92684 87.8672 2.5 83.4383 2.5 77.9821V42.2029V32.1077V22.018C2.5 16.5569 6.92612 12.1329 12.3851 12.1329H38.991C43.815 12.1329 47.8259 15.5971 48.6879 20.1843Z" stroke="url(#paint0_linear_30_211)" stroke-width="5"/>
<path fill-rule="evenodd" clip-rule="evenodd" d="M31.8335 28.5C29.6233 28.5 27.5037 29.378 25.9408 30.9408C24.378 32.5037 23.5 34.6233 23.5 36.8335V60.1665C23.5 62.3767 24.378 64.4963 25.9408 66.0592C27.5037 67.622 29.6233 68.5 31.8335 68.5H35.5V72.1665C35.5 76.769 39.231 80.5 43.8335 80.5H67.1665C71.769 80.5 75.5 76.769 75.5 72.1665V48.8335C75.5 44.231 71.769 40.5 67.1665 40.5H63.5V36.8335C63.5 34.6233 62.622 32.5037 61.0592 30.9408C59.4963 29.378 57.3767 28.5 55.1665 28.5H31.8335ZM58.5 40.5V36.8335C58.5 35.9494 58.1488 35.1015 57.5236 34.4764C56.8985 33.8512 56.0506 33.5 55.1665 33.5H31.8335C30.9494 33.5 30.1015 33.8512 29.4764 34.4764C28.8512 35.1015 28.5 35.9494 28.5 36.8335V60.1665C28.5 61.0506 28.8512 61.8985 29.4764 62.5236C30.1015 63.1488 30.9494 63.5 31.8335 63.5H35.5V48.8335C35.5 44.231 39.231 40.5 43.8335 40.5H58.5ZM40.5 48.8335C40.5 46.9925 41.9925 45.5 43.8335 45.5H67.1665C69.0075 45.5 70.5 46.9925 70.5 48.8335V72.1665C70.5 74.0075 69.0075 75.5 67.1665 75.5H43.8335C41.9925 75.5 40.5 74.0075 40.5 72.1665V48.8335Z" fill="url(#paint1_linear_30_211)"/>
</g>
<defs>
<linearGradient id="paint0_linear_30_211" x1="10.8428" y1="20.9267" x2="82.2687" y2="105.527" gradientUnits="userSpaceOnUse">
<stop stop-color="#FC4988"/>
<stop offset="0.567175" stop-color="#D20F39"/>
<stop offset="1" stop-color="#FF0000"/>
</linearGradient>
<linearGradient id="paint1_linear_30_211" x1="23.5113" y1="28.6822" x2="83.8054" y2="67.6017" gradientUnits="userSpaceOnUse">
<stop stop-color="white"/>
<stop offset="0.848958" stop-color="#7F787F"/>
<stop offset="0.982609" stop-color="#4B454B"/>
</linearGradient>
<clipPath id="clip0_30_211">
<rect width="100" height="100" fill="white"/>
</clipPath>
</defs>
</svg>
