<svg width="100" height="100" viewBox="0 0 100 100" fill="none" xmlns="http://www.w3.org/2000/svg">
<g clip-path="url(#clip0_123_1498)">
<mask id="path-1-outside-1_123_1498" maskUnits="userSpaceOnUse" x="3.75" y="3.75" width="92" height="92" fill="black">
<rect fill="white" x="3.75" y="3.75" width="92" height="92"/>
<path fill-rule="evenodd" clip-rule="evenodd" d="M75.375 18.2077C76.2775 18.9417 77.5963 18.9128 78.4191 18.0906C79.3019 17.2085 79.2715 15.7634 78.3075 14.9709C70.5386 8.58433 60.5921 4.75 49.75 4.75C38.9916 4.75 29.115 8.52538 21.3727 14.8235C20.4013 15.6137 20.367 17.0645 21.2524 17.95C22.0721 18.7698 23.3854 18.8022 24.2885 18.0753C31.2554 12.4679 40.1108 9.11187 49.75 9.11187C59.4648 9.11187 68.3834 12.5208 75.375 18.2077ZM18.1459 21.012C18.9699 21.836 18.9976 23.1576 18.2604 24.0601C12.5419 31.0614 9.11187 40.0051 9.11187 49.75C9.11187 59.4545 12.5135 68.3644 18.1895 75.3526C18.9229 76.2556 18.8931 77.5744 18.0702 78.3967C17.1874 79.2787 15.7425 79.2473 14.9507 78.2828C8.5762 70.5175 4.75 60.5806 4.75 49.75C4.75 38.8747 8.60787 28.9004 15.0297 21.1211C15.8228 20.1603 17.265 20.1311 18.1459 21.012ZM46.7964 37.5306C47.8539 37.267 48.7164 36.4197 48.7975 35.3329C48.8969 33.9986 47.8004 32.8664 46.4885 33.1294C43.7749 33.6736 41.1597 34.9029 38.9132 36.8377C36.7012 38.7426 35.1127 41.1023 34.1665 43.6588C33.6996 44.9204 34.658 46.1839 35.9994 46.2844C37.0803 46.3655 38.043 45.6473 38.4659 44.6492C39.1791 42.9659 40.2806 41.4166 41.7596 40.1428C43.2641 38.847 44.9927 37.98 46.7964 37.5306ZM61.6777 46.3883C61.9471 47.4382 62.792 48.2919 63.873 48.3728C65.2143 48.4733 66.3503 47.3666 66.0766 46.0497C65.5212 43.3768 64.2993 40.8034 62.3916 38.5884C60.5424 36.4412 58.2648 34.8814 55.7944 33.9264C54.5264 33.4363 53.2412 34.3985 53.1401 35.7541C53.0604 36.8234 53.7614 37.7787 54.7425 38.2113C56.363 38.9258 57.8538 40.0034 59.0865 41.4348C60.3623 42.9162 61.2225 44.6147 61.6777 46.3883ZM51.0714 63.4976C51.1511 62.4284 51.9861 61.5876 53.0205 61.3053C54.729 60.8391 56.3631 59.9944 57.7945 58.7617C59.2491 57.5089 60.3385 55.9896 61.0526 54.3384C61.4806 53.349 62.4397 52.6395 63.5148 52.72C64.8633 52.8211 65.8234 54.0956 65.3446 55.3603C64.3937 57.8727 62.8197 60.1904 60.6409 62.0667C58.4939 63.9159 56.01 65.1207 53.4253 65.6987C52.0986 65.9955 50.9704 64.8533 51.0714 63.4976ZM45.0614 60.8C46.0681 61.2174 46.7953 62.1833 46.7143 63.2701C46.6148 64.6045 45.3626 65.5616 44.1041 65.1068C41.5012 64.1663 39.0973 62.5626 37.1625 60.3161C35.2833 58.1341 34.0697 55.6045 33.5029 52.9746C33.218 51.6528 34.3573 50.5355 35.7058 50.6366C36.7808 50.7171 37.6236 51.5615 37.8992 52.6037C38.36 54.3456 39.2128 56.0127 40.4676 57.4697C41.7634 58.9742 43.3443 60.088 45.0614 60.8ZM78.4879 81.3543C77.664 80.5302 76.3423 80.5025 75.4398 81.2397C68.4386 86.9582 59.4949 90.3882 49.75 90.3882C40.0703 90.3882 31.1811 87.0039 24.2009 81.3542C23.2983 80.6235 21.9822 80.6539 21.1608 81.4748C20.2766 82.3585 20.3087 83.8064 21.2762 84.5979C29.0328 90.9433 38.9469 94.7501 49.75 94.7501C60.6253 94.7501 70.5996 90.8922 78.3789 84.4704C79.3396 83.6773 79.3689 82.2351 78.4879 81.3543ZM81.55 78.2476C82.4355 79.133 83.8864 79.0986 84.6765 78.1273C90.9747 70.385 94.75 60.5084 94.75 49.75C94.75 38.9583 90.9513 29.0539 84.6181 21.301C83.8272 20.3329 82.3793 20.2997 81.495 21.1833C80.6735 22.0042 80.6423 23.3202 81.3722 24.2234C87.0111 31.2001 90.3881 40.0807 90.3881 49.75C90.3881 59.3892 87.0321 68.2446 81.4247 75.2114C80.6978 76.1146 80.7303 77.4278 81.55 78.2476ZM21.2861 44.6828C22.3991 44.9612 23.0995 46.0501 22.9904 47.1922C22.4618 52.728 23.6345 58.4754 26.7148 63.6098C29.7755 68.7118 34.2568 72.4369 39.3495 74.5827C40.404 75.0271 41.0307 76.1555 40.7527 77.2656C40.4444 78.4969 39.1545 79.2164 37.9792 78.7367C31.9279 76.2668 26.5954 71.8897 22.9744 65.8537C19.3306 59.78 17.9846 52.968 18.6832 46.4291C18.8177 45.1701 20.0577 44.3756 21.2861 44.6828ZM52.2996 22.8741C53.4391 22.9792 54.5237 22.2794 54.8017 21.1693C55.1101 19.9379 54.3117 18.6954 53.049 18.5645C46.5406 17.8901 39.767 19.2409 33.7242 22.8661C27.7533 26.4481 23.4057 31.7048 20.9218 37.6752C20.4317 38.8531 21.1516 40.153 22.3894 40.4624C23.4939 40.7387 24.6174 40.1196 25.0665 39.0735C27.2231 34.0502 30.9222 29.6336 35.968 26.6065C41.076 23.5422 46.7905 22.3657 52.2996 22.8741ZM77.4165 58.7191C76.3035 58.4408 75.173 59.072 74.7317 60.131C72.5925 65.2639 68.8524 69.7828 63.718 72.863C58.6397 75.9096 52.9617 77.0901 47.482 76.604C46.3449 76.5032 45.265 77.2028 44.9877 78.3101C44.6786 79.5447 45.4815 80.7895 46.7478 80.9162C53.2222 81.564 59.9533 80.2081 65.9619 76.6034C72.0357 72.9598 76.4296 67.5831 78.8911 61.4851C79.3651 60.3108 78.645 59.0263 77.4165 58.7191ZM78.4298 54.4765C79.6675 54.7859 80.9145 53.9781 81.0366 52.7081C81.6553 46.2712 80.2938 39.5869 76.7117 33.616C73.1112 27.6143 67.8186 23.2526 61.8099 20.7752C60.6333 20.2901 59.3384 21.0095 59.0292 22.244C58.7519 23.3514 59.3745 24.4774 60.4249 24.9244C65.4811 27.076 69.9282 30.7874 72.9713 35.8599C75.9984 40.9057 77.1832 46.5436 76.7214 51.9907C76.6253 53.1253 77.3252 54.2002 78.4298 54.4765Z"/>
</mask>
<path fill-rule="evenodd" clip-rule="evenodd" d="M75.375 18.2077C76.2775 18.9417 77.5963 18.9128 78.4191 18.0906C79.3019 17.2085 79.2715 15.7634 78.3075 14.9709C70.5386 8.58433 60.5921 4.75 49.75 4.75C38.9916 4.75 29.115 8.52538 21.3727 14.8235C20.4013 15.6137 20.367 17.0645 21.2524 17.95C22.0721 18.7698 23.3854 18.8022 24.2885 18.0753C31.2554 12.4679 40.1108 9.11187 49.75 9.11187C59.4648 9.11187 68.3834 12.5208 75.375 18.2077ZM18.1459 21.012C18.9699 21.836 18.9976 23.1576 18.2604 24.0601C12.5419 31.0614 9.11187 40.0051 9.11187 49.75C9.11187 59.4545 12.5135 68.3644 18.1895 75.3526C18.9229 76.2556 18.8931 77.5744 18.0702 78.3967C17.1874 79.2787 15.7425 79.2473 14.9507 78.2828C8.5762 70.5175 4.75 60.5806 4.75 49.75C4.75 38.8747 8.60787 28.9004 15.0297 21.1211C15.8228 20.1603 17.265 20.1311 18.1459 21.012ZM46.7964 37.5306C47.8539 37.267 48.7164 36.4197 48.7975 35.3329C48.8969 33.9986 47.8004 32.8664 46.4885 33.1294C43.7749 33.6736 41.1597 34.9029 38.9132 36.8377C36.7012 38.7426 35.1127 41.1023 34.1665 43.6588C33.6996 44.9204 34.658 46.1839 35.9994 46.2844C37.0803 46.3655 38.043 45.6473 38.4659 44.6492C39.1791 42.9659 40.2806 41.4166 41.7596 40.1428C43.2641 38.847 44.9927 37.98 46.7964 37.5306ZM61.6777 46.3883C61.9471 47.4382 62.792 48.2919 63.873 48.3728C65.2143 48.4733 66.3503 47.3666 66.0766 46.0497C65.5212 43.3768 64.2993 40.8034 62.3916 38.5884C60.5424 36.4412 58.2648 34.8814 55.7944 33.9264C54.5264 33.4363 53.2412 34.3985 53.1401 35.7541C53.0604 36.8234 53.7614 37.7787 54.7425 38.2113C56.363 38.9258 57.8538 40.0034 59.0865 41.4348C60.3623 42.9162 61.2225 44.6147 61.6777 46.3883ZM51.0714 63.4976C51.1511 62.4284 51.9861 61.5876 53.0205 61.3053C54.729 60.8391 56.3631 59.9944 57.7945 58.7617C59.2491 57.5089 60.3385 55.9896 61.0526 54.3384C61.4806 53.349 62.4397 52.6395 63.5148 52.72C64.8633 52.8211 65.8234 54.0956 65.3446 55.3603C64.3937 57.8727 62.8197 60.1904 60.6409 62.0667C58.4939 63.9159 56.01 65.1207 53.4253 65.6987C52.0986 65.9955 50.9704 64.8533 51.0714 63.4976ZM45.0614 60.8C46.0681 61.2174 46.7953 62.1833 46.7143 63.2701C46.6148 64.6045 45.3626 65.5616 44.1041 65.1068C41.5012 64.1663 39.0973 62.5626 37.1625 60.3161C35.2833 58.1341 34.0697 55.6045 33.5029 52.9746C33.218 51.6528 34.3573 50.5355 35.7058 50.6366C36.7808 50.7171 37.6236 51.5615 37.8992 52.6037C38.36 54.3456 39.2128 56.0127 40.4676 57.4697C41.7634 58.9742 43.3443 60.088 45.0614 60.8ZM78.4879 81.3543C77.664 80.5302 76.3423 80.5025 75.4398 81.2397C68.4386 86.9582 59.4949 90.3882 49.75 90.3882C40.0703 90.3882 31.1811 87.0039 24.2009 81.3542C23.2983 80.6235 21.9822 80.6539 21.1608 81.4748C20.2766 82.3585 20.3087 83.8064 21.2762 84.5979C29.0328 90.9433 38.9469 94.7501 49.75 94.7501C60.6253 94.7501 70.5996 90.8922 78.3789 84.4704C79.3396 83.6773 79.3689 82.2351 78.4879 81.3543ZM81.55 78.2476C82.4355 79.133 83.8864 79.0986 84.6765 78.1273C90.9747 70.385 94.75 60.5084 94.75 49.75C94.75 38.9583 90.9513 29.0539 84.6181 21.301C83.8272 20.3329 82.3793 20.2997 81.495 21.1833C80.6735 22.0042 80.6423 23.3202 81.3722 24.2234C87.0111 31.2001 90.3881 40.0807 90.3881 49.75C90.3881 59.3892 87.0321 68.2446 81.4247 75.2114C80.6978 76.1146 80.7303 77.4278 81.55 78.2476ZM21.2861 44.6828C22.3991 44.9612 23.0995 46.0501 22.9904 47.1922C22.4618 52.728 23.6345 58.4754 26.7148 63.6098C29.7755 68.7118 34.2568 72.4369 39.3495 74.5827C40.404 75.0271 41.0307 76.1555 40.7527 77.2656C40.4444 78.4969 39.1545 79.2164 37.9792 78.7367C31.9279 76.2668 26.5954 71.8897 22.9744 65.8537C19.3306 59.78 17.9846 52.968 18.6832 46.4291C18.8177 45.1701 20.0577 44.3756 21.2861 44.6828ZM52.2996 22.8741C53.4391 22.9792 54.5237 22.2794 54.8017 21.1693C55.1101 19.9379 54.3117 18.6954 53.049 18.5645C46.5406 17.8901 39.767 19.2409 33.7242 22.8661C27.7533 26.4481 23.4057 31.7048 20.9218 37.6752C20.4317 38.8531 21.1516 40.153 22.3894 40.4624C23.4939 40.7387 24.6174 40.1196 25.0665 39.0735C27.2231 34.0502 30.9222 29.6336 35.968 26.6065C41.076 23.5422 46.7905 22.3657 52.2996 22.8741ZM77.4165 58.7191C76.3035 58.4408 75.173 59.072 74.7317 60.131C72.5925 65.2639 68.8524 69.7828 63.718 72.863C58.6397 75.9096 52.9617 77.0901 47.482 76.604C46.3449 76.5032 45.265 77.2028 44.9877 78.3101C44.6786 79.5447 45.4815 80.7895 46.7478 80.9162C53.2222 81.564 59.9533 80.2081 65.9619 76.6034C72.0357 72.9598 76.4296 67.5831 78.8911 61.4851C79.3651 60.3108 78.645 59.0263 77.4165 58.7191ZM78.4298 54.4765C79.6675 54.7859 80.9145 53.9781 81.0366 52.7081C81.6553 46.2712 80.2938 39.5869 76.7117 33.616C73.1112 27.6143 67.8186 23.2526 61.8099 20.7752C60.6333 20.2901 59.3384 21.0095 59.0292 22.244C58.7519 23.3514 59.3745 24.4774 60.4249 24.9244C65.4811 27.076 69.9282 30.7874 72.9713 35.8599C75.9984 40.9057 77.1832 46.5436 76.7214 51.9907C76.6253 53.1253 77.3252 54.2002 78.4298 54.4765Z" fill="url(#paint0_linear_123_1498)"/>
<path d="M78.4191 18.0906L78.8319 18.5037L78.8319 18.5037L78.4191 18.0906ZM75.375 18.2077L75.0065 18.6607L75.0065 18.6607L75.375 18.2077ZM78.3075 14.9709L77.9366 15.422L77.9366 15.422L78.3075 14.9709ZM21.3727 14.8235L21.7412 15.2765L21.7412 15.2765L21.3727 14.8235ZM21.2524 17.95L20.8394 18.3629L20.8394 18.363L21.2524 17.95ZM24.2885 18.0753L23.9224 17.6204L23.9224 17.6204L24.2885 18.0753ZM18.2604 24.0601L17.8081 23.6907L17.8081 23.6907L18.2604 24.0601ZM18.1459 21.012L17.733 21.425L17.733 21.425L18.1459 21.012ZM18.1895 75.3526L17.7362 75.7208L17.7362 75.7208L18.1895 75.3526ZM18.0702 78.3967L18.483 78.8098L18.483 78.8098L18.0702 78.3967ZM14.9507 78.2828L14.4993 78.6533L14.4993 78.6533L14.9507 78.2828ZM15.0297 21.1211L15.4801 21.4929L15.4801 21.4929L15.0297 21.1211ZM48.7975 35.3329L49.3798 35.3764L49.3798 35.3763L48.7975 35.3329ZM46.7964 37.5306L46.9376 38.0972L46.9376 38.0972L46.7964 37.5306ZM46.4885 33.1294L46.3737 32.5569L46.3737 32.5569L46.4885 33.1294ZM38.9132 36.8377L39.2943 37.2803L39.2943 37.2802L38.9132 36.8377ZM34.1665 43.6588L33.6188 43.4561L33.6188 43.4562L34.1665 43.6588ZM35.9994 46.2844L36.043 45.7021L36.043 45.7021L35.9994 46.2844ZM38.4659 44.6492L37.9282 44.4213L37.9282 44.4213L38.4659 44.6492ZM41.7596 40.1428L42.1407 40.5853L42.1407 40.5853L41.7596 40.1428ZM63.873 48.3728L63.9166 47.7904L63.9166 47.7904L63.873 48.3728ZM61.6777 46.3883L61.112 46.5335L61.112 46.5335L61.6777 46.3883ZM66.0766 46.0497L65.5048 46.1685L65.5048 46.1685L66.0766 46.0497ZM62.3916 38.5884L61.9491 38.9695L61.9491 38.9695L62.3916 38.5884ZM55.7944 33.9264L56.005 33.3817L56.0049 33.3817L55.7944 33.9264ZM53.1401 35.7541L52.5577 35.7107L52.5577 35.7107L53.1401 35.7541ZM54.7425 38.2113L54.5068 38.7456L54.5069 38.7457L54.7425 38.2113ZM59.0865 41.4348L59.529 41.0537L59.529 41.0537L59.0865 41.4348ZM53.0205 61.3053L52.8667 60.7419L52.8667 60.7419L53.0205 61.3053ZM51.0714 63.4976L51.6538 63.5411L51.6538 63.541L51.0714 63.4976ZM57.7945 58.7617L58.1756 59.2042L58.1756 59.2042L57.7945 58.7617ZM61.0526 54.3384L61.5887 54.5702L61.5887 54.5702L61.0526 54.3384ZM63.5148 52.72L63.5585 52.1377L63.5584 52.1376L63.5148 52.72ZM65.3446 55.3603L64.7985 55.1536L64.7985 55.1536L65.3446 55.3603ZM60.6409 62.0667L60.2598 61.6242L60.2598 61.6242L60.6409 62.0667ZM53.4253 65.6987L53.2978 65.1288L53.2978 65.1288L53.4253 65.6987ZM46.7143 63.2701L47.2967 63.3136L47.2967 63.3136L46.7143 63.2701ZM45.0614 60.8L45.2851 60.2605L45.285 60.2605L45.0614 60.8ZM44.1041 65.1068L43.9056 65.6561L43.9056 65.6561L44.1041 65.1068ZM37.1625 60.3161L37.605 59.935L37.605 59.935L37.1625 60.3161ZM33.5029 52.9746L34.0738 52.8516L34.0738 52.8516L33.5029 52.9746ZM35.7058 50.6366L35.6621 51.2189L35.6622 51.2189L35.7058 50.6366ZM37.8992 52.6037L37.3347 52.753L37.3347 52.753L37.8992 52.6037ZM40.4676 57.4697L40.0251 57.8508L40.0251 57.8508L40.4676 57.4697ZM75.4398 81.2397L75.8093 81.692L75.8093 81.692L75.4398 81.2397ZM78.4879 81.3543L78.075 81.7672L78.075 81.7673L78.4879 81.3543ZM24.2009 81.3542L23.8335 81.8081L23.8335 81.8081L24.2009 81.3542ZM21.1608 81.4748L20.748 81.0618L20.7479 81.0618L21.1608 81.4748ZM21.2762 84.5979L20.9064 85.0499L20.9064 85.0499L21.2762 84.5979ZM78.3789 84.4704L78.7507 84.9208L78.7507 84.9208L78.3789 84.4704ZM84.6765 78.1273L84.2235 77.7587L84.2235 77.7587L84.6765 78.1273ZM81.55 78.2476L81.1371 78.6605L81.1371 78.6606L81.55 78.2476ZM84.6181 21.301L84.1658 21.6704L84.1658 21.6704L84.6181 21.301ZM81.495 21.1833L81.0823 20.7701L81.0822 20.7702L81.495 21.1833ZM81.3722 24.2234L80.918 24.5905L80.918 24.5905L81.3722 24.2234ZM81.4247 75.2114L81.8797 75.5776L81.8797 75.5776L81.4247 75.2114ZM22.9904 47.1922L22.409 47.1367L22.409 47.1367L22.9904 47.1922ZM21.2861 44.6828L21.4278 44.1163L21.4278 44.1162L21.2861 44.6828ZM26.7148 63.6098L26.214 63.9102L26.214 63.9102L26.7148 63.6098ZM39.3495 74.5827L39.5762 74.0445L39.5762 74.0445L39.3495 74.5827ZM40.7527 77.2656L41.3192 77.4074L41.3192 77.4074L40.7527 77.2656ZM37.9792 78.7367L37.7585 79.2774L37.7585 79.2774L37.9792 78.7367ZM22.9744 65.8537L23.4751 65.5533L23.4751 65.5533L22.9744 65.8537ZM18.6832 46.4291L19.2639 46.4912L19.2639 46.4912L18.6832 46.4291ZM54.8017 21.1693L54.2352 21.0274L54.2352 21.0275L54.8017 21.1693ZM52.2996 22.8741L52.246 23.4556L52.246 23.4556L52.2996 22.8741ZM53.049 18.5645L53.1092 17.9836L53.1092 17.9836L53.049 18.5645ZM33.7242 22.8661L34.0246 23.3669L34.0246 23.3669L33.7242 22.8661ZM20.9218 37.6752L21.461 37.8995L21.461 37.8995L20.9218 37.6752ZM22.3894 40.4624L22.5311 39.8959L22.531 39.8958L22.3894 40.4624ZM25.0665 39.0735L25.6032 39.3039L25.6032 39.3038L25.0665 39.0735ZM35.968 26.6065L35.6676 26.1057L35.6676 26.1057L35.968 26.6065ZM74.7317 60.131L75.2707 60.3557L75.2707 60.3557L74.7317 60.131ZM77.4165 58.7191L77.2749 59.2857L77.2749 59.2857L77.4165 58.7191ZM63.718 72.863L63.4176 72.3622L63.4176 72.3622L63.718 72.863ZM47.482 76.604L47.5336 76.0223L47.5336 76.0223L47.482 76.604ZM44.9877 78.3101L44.4212 78.1682L44.4212 78.1683L44.9877 78.3101ZM46.7478 80.9162L46.6897 81.4973L46.6897 81.4973L46.7478 80.9162ZM65.9619 76.6034L65.6615 76.1026L65.6615 76.1026L65.9619 76.6034ZM78.8911 61.4851L78.3495 61.2665L78.3495 61.2665L78.8911 61.4851ZM81.0366 52.7081L81.6179 52.764L81.6179 52.764L81.0366 52.7081ZM78.4298 54.4765L78.288 55.043L78.2881 55.043L78.4298 54.4765ZM76.7117 33.616L76.2109 33.9164L76.2109 33.9164L76.7117 33.616ZM61.8099 20.7752L62.0325 20.2353L62.0325 20.2353L61.8099 20.7752ZM59.0292 22.244L58.4627 22.1022L58.4627 22.1022L59.0292 22.244ZM60.4249 24.9244L60.1962 25.4617L60.1963 25.4617L60.4249 24.9244ZM72.9713 35.8599L72.4705 36.1603L72.4705 36.1603L72.9713 35.8599ZM76.7214 51.9907L76.1395 51.9414L76.1395 51.9414L76.7214 51.9907ZM78.0064 17.6775C77.4081 18.2752 76.4283 18.3116 75.7435 17.7546L75.0065 18.6607C76.1267 19.5719 77.7844 19.5504 78.8319 18.5037L78.0064 17.6775ZM77.9366 15.422C78.6187 15.9827 78.6594 17.0249 78.0064 17.6775L78.8319 18.5037C79.9444 17.392 79.9243 15.544 78.6783 14.5198L77.9366 15.422ZM49.75 5.33399C60.4519 5.33399 70.2684 9.11819 77.9366 15.422L78.6783 14.5198C70.8088 8.05047 60.7323 4.16601 49.75 4.16601V5.33399ZM21.7412 15.2765C29.3832 9.06002 39.1306 5.33399 49.75 5.33399V4.16601C38.8525 4.16601 28.8468 7.99074 21.0042 14.3705L21.7412 15.2765ZM21.6653 17.5371C21.0102 16.8819 21.054 15.8355 21.7412 15.2765L21.0042 14.3705C19.7486 15.3918 19.7238 17.2472 20.8394 18.3629L21.6653 17.5371ZM23.9224 17.6204C23.2371 18.172 22.2613 18.1331 21.6653 17.5371L20.8394 18.363C21.8829 19.4065 23.5337 19.4325 24.6547 18.5302L23.9224 17.6204ZM49.75 8.52788C39.9728 8.52788 30.9892 11.9325 23.9224 17.6204L24.6547 18.5303C31.5215 13.0034 40.2487 9.69586 49.75 9.69586V8.52788ZM75.7435 17.7546C68.6516 11.9861 59.6038 8.52788 49.75 8.52788V9.69586C59.3257 9.69586 68.1153 13.0554 75.0065 18.6607L75.7435 17.7546ZM18.7127 24.4296C19.6277 23.3094 19.6079 21.6481 18.5589 20.5991L17.733 21.425C18.3319 22.0239 18.3675 23.0059 17.8081 23.6907L18.7127 24.4296ZM9.69586 49.75C9.69586 40.1446 13.0762 31.3303 18.7127 24.4295L17.8081 23.6907C12.0075 30.7924 8.52788 39.8656 8.52788 49.75H9.69586ZM18.6428 74.9844C13.0482 68.0965 9.69586 59.3156 9.69586 49.75H8.52788C8.52788 59.5934 11.9787 68.6323 17.7362 75.7208L18.6428 74.9844ZM18.483 78.8098C19.5306 77.7629 19.5531 76.1052 18.6428 74.9844L17.7362 75.7208C18.2927 76.4059 18.2557 77.3858 17.6574 77.9836L18.483 78.8098ZM14.4993 78.6533C15.5227 79.9 17.3705 79.9213 18.483 78.8098L17.6575 77.9836C17.0044 78.6361 15.9622 78.5946 15.402 77.9122L14.4993 78.6533ZM4.16601 49.75C4.16601 60.7206 8.04224 70.7875 14.4993 78.6533L15.402 77.9122C9.11017 70.2476 5.33399 60.4406 5.33399 49.75H4.16601ZM14.5794 20.7493C8.07432 28.6294 4.16601 38.7341 4.16601 49.75H5.33399C5.33399 39.0153 9.14142 29.1714 15.4801 21.4929L14.5794 20.7493ZM18.5589 20.5991C17.4486 19.4888 15.6044 19.5076 14.5794 20.7493L15.4801 21.4929C16.0412 20.8131 17.0813 20.7733 17.733 21.425L18.5589 20.5991ZM48.2151 35.2895C48.1565 36.075 47.5206 36.7483 46.6552 36.9639L46.9376 38.0972C48.1873 37.7858 49.2763 36.7644 49.3798 35.3764L48.2151 35.2895ZM46.6033 33.702C47.4726 33.5277 48.2908 34.2734 48.2151 35.2895L49.3798 35.3763C49.503 33.7238 48.1282 32.2051 46.3737 32.5569L46.6033 33.702ZM39.2943 37.2802C41.4627 35.4126 43.9856 34.2269 46.6033 33.702L46.3737 32.5569C43.5642 33.1202 40.8567 34.3931 38.5321 36.3953L39.2943 37.2802ZM34.7142 43.8615C35.6269 41.3954 37.1592 39.119 39.2943 37.2803L38.5321 36.3952C36.2433 38.3663 34.5984 40.8092 33.6188 43.4561L34.7142 43.8615ZM36.043 45.7021C35.0208 45.6255 34.4049 44.6974 34.7142 43.8615L33.6188 43.4562C32.9944 45.1435 34.2952 46.7424 35.9557 46.8668L36.043 45.7021ZM37.9282 44.4213C37.5821 45.2381 36.8247 45.7607 36.043 45.7021L35.9557 46.8668C37.3359 46.9703 38.5038 46.0564 39.0036 44.877L37.9282 44.4213ZM41.3785 39.7003C39.83 41.0339 38.6757 42.6573 37.9282 44.4213L39.0036 44.877C39.6826 43.2746 40.7312 41.7992 42.1407 40.5853L41.3785 39.7003ZM46.6552 36.9639C44.765 37.4349 42.9538 38.3436 41.3785 39.7003L42.1407 40.5853C43.5745 39.3504 45.2205 38.5251 46.9376 38.0972L46.6552 36.9639ZM63.9166 47.7904C63.1349 47.7319 62.4638 47.1023 62.2433 46.2431L61.112 46.5335C61.4304 47.7741 62.4491 48.8518 63.8294 48.9551L63.9166 47.7904ZM65.5048 46.1685C65.6862 47.041 64.9388 47.867 63.9166 47.7904L63.8293 48.9551C65.4899 49.0795 67.0145 47.6923 66.6484 45.9308L65.5048 46.1685ZM61.9491 38.9695C63.7905 41.1076 64.969 43.5901 65.5048 46.1685L66.6484 45.9308C66.0733 43.1635 64.8081 40.4993 62.8341 38.2073L61.9491 38.9695ZM55.5838 34.4711C57.9668 35.3923 60.1641 36.8969 61.9491 38.9695L62.8341 38.2073C60.9207 35.9856 58.5627 34.3705 56.005 33.3817L55.5838 34.4711ZM53.7225 35.7975C53.7996 34.7631 54.744 34.1465 55.5839 34.4711L56.0049 33.3817C54.3087 32.7261 52.6827 34.0339 52.5577 35.7107L53.7225 35.7975ZM54.9781 37.677C54.1751 37.3229 53.6648 36.5716 53.7225 35.7975L52.5577 35.7107C52.456 37.0752 53.3477 38.2345 54.5068 38.7456L54.9781 37.677ZM59.529 41.0537C58.2384 39.5551 56.6765 38.4257 54.978 37.6769L54.5069 38.7457C56.0496 39.4258 57.4692 40.4518 58.644 41.8159L59.529 41.0537ZM62.2433 46.2431C61.7663 44.3844 60.8647 42.6047 59.529 41.0537L58.644 41.8159C59.8598 43.2277 60.6787 44.845 61.112 46.5335L62.2433 46.2431ZM52.8667 60.7419C51.6446 61.0755 50.5908 62.0897 50.4891 63.4542L51.6538 63.541C51.7115 62.7671 52.3276 62.0998 53.1742 61.8687L52.8667 60.7419ZM57.4134 58.3192C56.0492 59.494 54.4932 60.2981 52.8667 60.7419L53.1742 61.8687C54.9648 61.3801 56.677 60.4948 58.1756 59.2042L57.4134 58.3192ZM60.5166 54.1066C59.8368 55.6785 58.7997 57.1253 57.4134 58.3192L58.1756 59.2042C59.6985 57.8926 60.8403 56.3007 61.5887 54.5702L60.5166 54.1066ZM63.5584 52.1376C62.1861 52.0349 61.0223 52.9374 60.5166 54.1066L61.5887 54.5702C61.9388 53.7605 62.6933 53.2441 63.4712 53.3024L63.5584 52.1376ZM65.8908 55.567C66.5311 53.8753 65.2271 52.2627 63.5585 52.1377L63.4712 53.3024C64.4995 53.3794 65.1156 54.3158 64.7985 55.1536L65.8908 55.567ZM61.022 62.5093C63.2765 60.5677 64.9063 58.1683 65.8908 55.567L64.7985 55.1536C63.8812 57.5771 62.3629 59.813 60.2598 61.6242L61.022 62.5093ZM53.5527 66.2687C56.2289 65.6702 58.8004 64.4226 61.022 62.5092L60.2598 61.6242C58.1873 63.4092 55.7911 64.5713 53.2978 65.1288L53.5527 66.2687ZM50.4891 63.4542C50.3641 65.131 51.778 66.6656 53.5527 66.2686L53.2978 65.1288C52.4192 65.3253 51.5767 64.5756 51.6538 63.5411L50.4891 63.4542ZM47.2967 63.3136C47.4002 61.9254 46.4747 60.7538 45.2851 60.2605L44.8377 61.3394C45.6615 61.681 46.1905 62.4411 46.132 63.2267L47.2967 63.3136ZM43.9056 65.6561C45.5886 66.2642 47.1735 64.9662 47.2967 63.3136L46.132 63.2267C46.0562 64.2428 45.1365 64.8589 44.3026 64.5576L43.9056 65.6561ZM36.72 60.6972C38.722 63.0218 41.2107 64.6822 43.9056 65.6561L44.3026 64.5576C41.7916 63.6503 39.4726 62.1035 37.605 59.935L36.72 60.6972ZM32.932 53.0977C33.5188 55.8206 34.7755 58.4395 36.72 60.6972L37.605 59.935C35.7911 57.8288 34.6205 55.3885 34.0738 52.8516L32.932 53.0977ZM35.7494 50.0542C34.0807 49.9292 32.5509 51.3295 32.932 53.0977L34.0738 52.8516C33.8851 51.976 34.6338 51.1419 35.6621 51.2189L35.7494 50.0542ZM38.4638 52.4544C38.1381 51.2228 37.1217 50.157 35.7494 50.0542L35.6622 51.2189C36.44 51.2772 37.1091 51.9001 37.3347 52.753L38.4638 52.4544ZM40.9101 57.0886C39.7143 55.7 38.9025 54.1126 38.4638 52.4543L37.3347 52.753C37.8176 54.5786 38.7114 56.3253 40.0251 57.8508L40.9101 57.0886ZM45.285 60.2605C43.6503 59.5827 42.1449 58.5224 40.9101 57.0886L40.0251 57.8508C41.3818 59.426 43.0382 60.5933 44.8377 61.3394L45.285 60.2605ZM75.8093 81.692C76.4941 81.1326 77.476 81.1682 78.075 81.7672L78.9009 80.9414C77.8519 79.8922 76.1906 79.8724 75.0704 80.7874L75.8093 81.692ZM49.75 90.9722C59.6344 90.9722 68.7076 87.4926 75.8093 81.692L75.0704 80.7874C68.1696 86.4239 59.3554 89.8042 49.75 89.8042V90.9722ZM23.8335 81.8081C30.9138 87.5389 39.9317 90.9722 49.75 90.9722V89.8042C40.2088 89.8042 31.4483 86.4689 24.5684 80.9003L23.8335 81.8081ZM21.5736 81.8879C22.1708 81.2911 23.1487 81.2537 23.8335 81.8081L24.5684 80.9003C23.448 79.9933 21.7937 80.0167 20.748 81.0618L21.5736 81.8879ZM21.646 84.1459C20.9615 83.5859 20.9194 82.5417 21.5736 81.8879L20.7479 81.0618C19.6337 82.1753 19.656 84.0269 20.9064 85.0499L21.646 84.1459ZM49.75 94.1661C39.0865 94.1661 29.3021 90.409 21.646 84.1459L20.9064 85.0499C28.7635 91.4775 38.8072 95.3341 49.75 95.3341V94.1661ZM78.0071 84.02C70.3286 90.3587 60.4847 94.1661 49.75 94.1661V95.3341C60.7659 95.3341 70.8706 91.4258 78.7507 84.9208L78.0071 84.02ZM78.075 81.7673C78.7266 82.4188 78.6869 83.4589 78.0071 84.02L78.7507 84.9208C79.9924 83.8957 80.0111 82.0515 78.9008 80.9413L78.075 81.7673ZM84.2235 77.7587C83.6645 78.4459 82.6182 78.4897 81.963 77.8346L81.1371 78.6606C82.2529 79.7762 84.1082 79.7513 85.1296 78.4958L84.2235 77.7587ZM94.1661 49.75C94.1661 60.3693 90.4401 70.1168 84.2235 77.7587L85.1296 78.4958C91.5093 70.6532 95.334 60.6475 95.334 49.75H94.1661ZM84.1658 21.6704C90.417 29.3229 94.1661 39.0978 94.1661 49.75H95.334C95.334 38.8188 91.4856 28.7849 85.0703 20.9315L84.1658 21.6704ZM81.9078 21.5964C82.5621 20.9427 83.6063 20.9855 84.1658 21.6704L85.0703 20.9315C84.0482 19.6802 82.1966 19.6568 81.0823 20.7701L81.9078 21.5964ZM81.8264 23.8564C81.2725 23.171 81.3106 22.1932 81.9078 21.5963L81.0822 20.7702C80.0365 21.8152 80.012 23.4694 80.918 24.5905L81.8264 23.8564ZM90.9721 49.75C90.9721 39.9423 87.5462 30.9332 81.8264 23.8563L80.918 24.5905C86.476 31.4671 89.8041 40.2191 89.8041 49.75H90.9721ZM81.8797 75.5776C87.5676 68.5108 90.9721 59.5271 90.9721 49.75H89.8041C89.8041 59.2512 86.4967 67.9784 80.9698 74.8452L81.8797 75.5776ZM81.963 77.8346C81.367 77.2387 81.3281 76.2629 81.8797 75.5776L80.9698 74.8452C80.0675 75.9662 80.0936 77.617 81.1371 78.6605L81.963 77.8346ZM23.5717 47.2477C23.7057 45.8452 22.8466 44.4712 21.4278 44.1163L21.1444 45.2493C21.9515 45.4512 22.4932 46.2551 22.409 47.1367L23.5717 47.2477ZM27.2155 63.3094C24.2016 58.2855 23.0546 52.6635 23.5717 47.2477L22.409 47.1367C21.869 52.7924 23.0673 58.6652 26.214 63.9102L27.2155 63.3094ZM39.5762 74.0445C34.5939 71.9452 30.2104 68.3015 27.2155 63.3094L26.214 63.9102C29.3407 69.122 33.9196 72.9285 39.1227 75.1208L39.5762 74.0445ZM41.3192 77.4074C41.6736 75.9924 40.8712 74.5902 39.5762 74.0445L39.1227 75.1208C39.9368 75.4639 40.3878 76.3186 40.1862 77.1237L41.3192 77.4074ZM37.7585 79.2774C39.2906 79.9027 40.9319 78.9539 41.3192 77.4074L40.1862 77.1237C39.9568 78.04 39.0183 78.5301 38.1999 78.196L37.7585 79.2774ZM22.4736 66.1541C26.1617 72.3021 31.5943 76.7614 37.7585 79.2774L38.1999 78.196C32.2614 75.7722 27.029 71.4774 23.4751 65.5533L22.4736 66.1541ZM18.1025 46.3671C17.3909 53.0279 18.7622 59.9678 22.4736 66.1541L23.4751 65.5533C19.8989 59.5922 18.5783 52.9081 19.2639 46.4912L18.1025 46.3671ZM21.4278 44.1162C19.8849 43.7304 18.2779 44.7257 18.1025 46.3671L19.2639 46.4912C19.3576 45.6144 20.2304 45.0208 21.1444 45.2493L21.4278 44.1162ZM54.2352 21.0275C54.0336 21.8325 53.233 22.3737 52.3533 22.2926L52.246 23.4556C53.6453 23.5847 55.0138 22.7263 55.3682 21.3112L54.2352 21.0275ZM52.9888 19.1454C53.8681 19.2365 54.4647 20.111 54.2352 21.0274L55.3682 21.3112C55.7555 19.7647 54.7552 18.1542 53.1092 17.9836L52.9888 19.1454ZM34.0246 23.3669C39.9554 19.8089 46.6018 18.4836 52.9888 19.1454L53.1092 17.9836C46.4795 17.2967 39.5786 18.6729 33.4237 22.3653L34.0246 23.3669ZM21.461 37.8995C23.8986 32.0405 28.1644 26.8825 34.0246 23.3669L33.4237 22.3653C27.3422 26.0137 22.9129 31.369 20.3826 37.4509L21.461 37.8995ZM22.531 39.8958C21.6097 39.6655 21.1197 38.7198 21.461 37.8995L20.3826 37.4508C19.7436 38.9865 20.6936 40.6404 22.2477 41.029L22.531 39.8958ZM24.5299 38.8431C24.1831 39.6507 23.3322 40.0962 22.5311 39.8959L22.2477 41.0289C23.6555 41.3811 25.0516 40.5885 25.6032 39.3039L24.5299 38.8431ZM35.6676 26.1057C30.5132 29.1979 26.7333 33.7108 24.5299 38.8431L25.6032 39.3038C27.713 34.3895 31.3313 30.0692 36.2685 27.1073L35.6676 26.1057ZM52.3533 22.2926C46.7247 21.7732 40.8856 22.9754 35.6676 26.1057L36.2685 27.1073C41.2665 24.109 46.8562 22.9583 52.246 23.4556L52.3533 22.2926ZM75.2707 60.3557C75.6115 59.5381 76.4678 59.0839 77.2749 59.2857L77.5582 58.1526C76.1393 57.7978 74.7346 58.6059 74.1926 59.9064L75.2707 60.3557ZM64.0185 73.3638C69.2634 70.2173 73.0851 65.5998 75.2707 60.3557L74.1926 59.9064C72.0998 64.928 68.4414 69.3484 63.4176 72.3622L64.0185 73.3638ZM47.4304 77.1858C53.0289 77.6824 58.8307 76.476 64.0185 73.3638L63.4176 72.3622C58.4486 75.3432 52.8944 76.4979 47.5336 76.0223L47.4304 77.1858ZM45.5541 78.4521C45.7554 77.6488 46.5526 77.1079 47.4304 77.1858L47.5336 76.0223C46.1373 75.8985 44.7747 76.7568 44.4212 78.1682L45.5541 78.4521ZM46.8059 80.3351C45.9241 80.2469 45.3241 79.3709 45.5542 78.452L44.4212 78.1683C44.033 79.7185 45.0388 81.3321 46.6897 81.4973L46.8059 80.3351ZM65.6615 76.1026C59.7643 79.6405 53.1596 80.9709 46.8059 80.3351L46.6897 81.4973C53.2848 82.1572 60.1423 80.7757 66.2624 77.1042L65.6615 76.1026ZM78.3495 61.2665C75.934 67.2508 71.6226 72.5265 65.6615 76.1026L66.2624 77.1042C72.4487 73.393 76.9253 67.9154 79.4326 61.7037L78.3495 61.2665ZM77.2749 59.2857C78.1889 59.5142 78.6796 60.4488 78.3495 61.2665L79.4326 61.7037C80.0505 60.1729 79.101 58.5384 77.5582 58.1526L77.2749 59.2857ZM80.4553 52.6522C80.3703 53.5365 79.4929 54.1403 78.5714 53.9099L78.2881 55.043C79.8422 55.4315 81.4587 54.4197 81.6179 52.764L80.4553 52.6522ZM76.2109 33.9164C79.7266 39.7766 81.0624 46.3354 80.4553 52.6522L81.6179 52.764C82.2481 46.2069 80.861 39.3971 77.2125 33.3155L76.2109 33.9164ZM61.5873 21.3151C67.4839 23.7463 72.6772 28.026 76.2109 33.9164L77.2125 33.3155C73.5453 27.2026 68.1533 22.7589 62.0325 20.2353L61.5873 21.3151ZM59.5957 22.3859C59.8258 21.4671 60.7679 20.9773 61.5873 21.3151L62.0325 20.2353C60.4986 19.6029 58.8509 20.5519 58.4627 22.1022L59.5957 22.3859ZM60.6536 24.387C59.8426 24.0419 59.3945 23.1891 59.5957 22.3859L58.4627 22.1022C58.1092 23.5137 58.9064 24.9128 60.1962 25.4617L60.6536 24.387ZM73.4721 35.5594C70.3635 30.3778 65.8194 26.5853 60.6536 24.387L60.1963 25.4617C65.1428 27.5667 69.493 31.1971 72.4705 36.1603L73.4721 35.5594ZM77.3033 52.04C77.7752 46.4748 76.5644 40.7139 73.4721 35.5594L72.4705 36.1603C75.4325 41.0975 76.5913 46.6124 76.1395 51.9414L77.3033 52.04ZM78.5715 53.9099C77.7701 53.7095 77.2291 52.9159 77.3033 52.04L76.1395 51.9414C76.0215 53.3346 76.8803 54.6908 78.288 55.043L78.5715 53.9099Z" fill="black" mask="url(#path-1-outside-1_123_1498)"/>
</g>
<defs>
<linearGradient id="paint0_linear_123_1498" x1="7.45001" y1="-0.414563" x2="108.973" y2="74.2158" gradientUnits="userSpaceOnUse">
<stop stop-color="#FF0000"/>
<stop offset="0.161458" stop-color="#FF8A00"/>
<stop offset="0.3125" stop-color="#EBFF00"/>
<stop offset="0.453125" stop-color="#05FF00"/>
<stop offset="0.59375" stop-color="#00F0FF"/>
<stop offset="0.734375" stop-color="#0500FF"/>
<stop offset="0.864583" stop-color="#FA00FF"/>
<stop offset="1" stop-color="#FF0000"/>
</linearGradient>
<clipPath id="clip0_123_1498">
<rect width="100" height="100" fill="white"/>
</clipPath>
</defs>
</svg>
