<svg width="100" height="100" viewBox="0 0 100 100" fill="none" xmlns="http://www.w3.org/2000/svg">
<g clip-path="url(#clip0_13_130)">
<path d="M100 32.1077V77.9821C100 84.8186 94.4515 90.3671 87.6149 90.3671H12.3851C5.54577 90.3671 0 84.8186 0 77.9821V42.2029V32.1077V22.0179C0 15.1759 5.54577 9.63285 12.3851 9.63285H38.991C45.046 9.63285 50.0661 13.9814 51.1449 19.7226H87.6149C94.4515 19.7226 100 25.2656 100 32.1077Z" fill="url(#paint0_linear_13_130)"/>
<path fill-rule="evenodd" clip-rule="evenodd" d="M30.4924 38.1023L30.4924 38.1022C30.4923 38.0931 30.4856 37.7489 31.1802 37.0832C31.8902 36.4026 33.1028 35.6285 34.889 34.9043C38.4432 33.4634 43.5944 32.4925 49.4633 32.4925C55.3322 32.4925 60.4833 33.4634 64.0376 34.9043C65.8238 35.6285 67.0364 36.4026 67.7464 37.0832C68.4409 37.7489 68.4343 38.0931 68.4341 38.1022V38.1023V38.1025C68.4343 38.1116 68.4409 38.4558 67.7464 39.1215C67.0364 39.8021 65.8238 40.5762 64.0376 41.3004C60.4833 42.7413 55.3322 43.7121 49.4633 43.7121C43.5944 43.7121 38.4432 42.7413 34.889 41.3004C33.1028 40.5762 31.8902 39.8021 31.1802 39.1215C30.4856 38.4558 30.4923 38.1116 30.4924 38.1025L30.4924 38.1023ZM49.4633 25.4925C42.9219 25.4925 36.8376 26.561 32.259 28.4172C29.9788 29.3416 27.9006 30.5304 26.3364 32.0296C24.7631 33.5377 23.4924 35.5898 23.4924 38.1023C23.4924 38.314 23.5014 38.5223 23.5189 38.7274H23.4978V54.5457L23.4924 54.5457C23.4925 54.6392 23.4943 54.732 23.4978 54.8242V70.981H23.4924C23.4923 74.2149 25.5989 76.6941 28.0036 78.3673C30.4677 80.0819 33.7691 81.3573 37.4363 82.2078C41.141 83.067 45.2833 83.5075 49.4608 83.5075C53.6384 83.5075 57.7807 83.067 61.4854 82.2078L61.4855 82.2077C65.1525 81.3572 68.4537 80.0818 70.9176 78.3672C73.3222 76.6939 75.4286 74.2146 75.4282 70.9807L68.4282 70.9815C68.4282 70.9896 68.4277 71.0158 68.4099 71.07C68.3911 71.1275 68.348 71.2299 68.251 71.3754C68.0492 71.678 67.6481 72.1143 66.9193 72.6214C65.4394 73.6512 63.068 74.6548 59.9039 75.3888C56.7775 76.1139 53.1711 76.5075 49.4608 76.5075C45.7506 76.5075 42.1442 76.1139 39.0178 75.3888C35.8534 74.6549 33.4818 73.6513 32.0017 72.6214C31.2727 72.1142 30.8716 71.6779 30.6697 71.3753C30.5727 71.2297 30.5296 71.1273 30.5107 71.0698C30.4929 71.0155 30.4924 70.9893 30.4924 70.9813L26.9924 70.9811H30.4978V63.3838C32.5307 64.3857 34.8959 65.1789 37.4368 65.7682C41.1415 66.6274 45.2838 67.0679 49.4614 67.0679C53.6389 67.0679 57.7813 66.6274 61.486 65.7682L61.4861 65.7682C64.0308 65.1779 66.3993 64.383 68.4341 63.3787V70.9634H75.4341V38.7097H75.4091C75.4256 38.5104 75.4341 38.3079 75.4341 38.1023C75.4341 35.5898 74.1635 33.5377 72.5901 32.0296C71.026 30.5304 68.9478 29.3416 66.6675 28.4172C62.089 26.561 56.0047 25.4925 49.4633 25.4925ZM68.4341 46.995C67.8634 47.2784 67.2726 47.5423 66.6675 47.7875C62.089 49.6437 56.0047 50.7121 49.4633 50.7121C42.9219 50.7121 36.8376 49.6437 32.259 47.7875C31.6559 47.543 31.0669 47.28 30.4978 46.9977V54.5838C30.5006 54.5963 30.5046 54.6117 30.5108 54.6304C30.5298 54.688 30.5729 54.7906 30.6702 54.9363C30.8723 55.239 31.2737 55.6754 32.0028 56.1825C33.4831 57.2122 35.8546 58.2155 39.0183 58.9492L39.0184 58.9492C42.1447 59.6743 45.7512 60.0679 49.4614 60.0679C53.1716 60.0679 56.778 59.6743 59.9043 58.9492L59.9044 58.9492C63.068 58.2153 65.4392 57.2119 66.919 56.1822C67.6478 55.6751 68.0489 55.2388 68.2508 54.9362C68.3479 54.7907 68.391 54.6882 68.4099 54.6307C68.4259 54.582 68.4279 54.5559 68.4282 54.5452C68.4282 54.544 68.4282 54.5429 68.4282 54.5421H68.4341V46.995ZM59.9039 75.3888L59.9038 75.3888L60.6947 78.7983L59.9039 75.3888Z" fill="white"/>
</g>
<defs>
<linearGradient id="paint0_linear_13_130" x1="0" y1="9.63285" x2="85.7027" y2="103.431" gradientUnits="userSpaceOnUse">
<stop stop-color="#5FC7FF"/>
<stop offset="1" stop-color="#2731F7"/>
</linearGradient>
<clipPath id="clip0_13_130">
<rect width="100" height="100" fill="white"/>
</clipPath>
</defs>
</svg>
