<svg width="100" height="100" viewBox="0 0 100 100" fill="none" xmlns="http://www.w3.org/2000/svg">
<g clip-path="url(#clip0_30_203)">
<path d="M48.6879 20.1843L49.071 22.2226H51.1449H87.6149C93.0715 22.2226 97.5 26.647 97.5 32.1077V77.9821C97.5 83.4379 93.0708 87.8671 87.6149 87.8671H12.3851C6.92684 87.8671 2.5 83.4383 2.5 77.9821V42.2029V32.1077V22.0179C2.5 16.5569 6.92612 12.1329 12.3851 12.1329H38.991C43.815 12.1329 47.8259 15.5971 48.6879 20.1843Z" stroke="url(#paint0_linear_30_203)" stroke-width="5"/>
<path d="M52.7167 63.5578L55.2966 66.1386C57.0376 67.8795 58.3724 69.3468 58.2898 69.4294L49.7226 77.9964C49.6409 78.0782 48.1727 76.7434 46.4326 75.0033L43.8518 72.4225C42.1108 70.6816 40.7769 69.2144 40.8586 69.1317L49.4258 60.5647C49.5076 60.4829 50.9757 61.8178 52.7167 63.5578ZM38.8617 49.7031L41.4416 52.283C43.1817 54.0248 44.5166 55.4911 44.4348 55.5747L35.8676 64.1408C35.785 64.2235 34.3177 62.8878 32.5767 61.1477L29.9968 58.5678C28.2549 56.826 26.921 55.3596 27.0036 55.2761L35.5699 46.71C35.6526 46.6273 37.1207 47.963 38.8608 49.7031H38.8617ZM66.4233 49.8524L69.0032 52.4323C70.7442 54.1732 72.079 55.6404 71.9964 55.7231L63.4292 64.2901C63.3474 64.3719 61.8793 63.0371 60.1392 61.297L57.5584 58.7162C55.8174 56.9753 54.4834 55.508 54.5652 55.4254L63.1324 46.8584C63.2141 46.7766 64.6823 48.1114 66.4233 49.8524ZM52.5683 35.9968L55.1482 38.5775C56.8883 40.3176 58.2231 41.7857 58.1414 41.8684L49.5742 50.4345C49.4916 50.5171 48.0243 49.1814 46.2833 47.4414L43.7034 44.8615C41.9615 43.1196 40.6276 41.6533 40.7102 41.5698L49.2765 33.0036C49.3591 32.921 50.8273 34.2567 52.5683 35.9968Z" stroke="url(#paint1_linear_30_203)" stroke-width="5" stroke-linecap="round" stroke-linejoin="round"/>
</g>
<defs>
<linearGradient id="paint0_linear_30_203" x1="3.11926" y1="18.4059" x2="77.3512" y2="104.335" gradientUnits="userSpaceOnUse">
<stop stop-color="#FFA424"/>
<stop offset="0.979167" stop-color="#FF4C2E"/>
</linearGradient>
<linearGradient id="paint1_linear_30_203" x1="27.0098" y1="33.1577" x2="79.1874" y2="66.838" gradientUnits="userSpaceOnUse">
<stop stop-color="white"/>
<stop offset="0.848958" stop-color="#7F787F"/>
<stop offset="0.982609" stop-color="#4B454B"/>
</linearGradient>
<clipPath id="clip0_30_203">
<rect width="100" height="100" fill="white"/>
</clipPath>
</defs>
</svg>
