<svg width="100" height="100" viewBox="0 0 100 100" fill="none" xmlns="http://www.w3.org/2000/svg">
<g clip-path="url(#clip0_123_1514)">
<mask id="path-1-outside-1_123_1514" maskUnits="userSpaceOnUse" x="3.75" y="3.75" width="92" height="92" fill="black">
<rect fill="white" x="3.75" y="3.75" width="92" height="92"/>
<path fill-rule="evenodd" clip-rule="evenodd" d="M75.375 18.2077C76.2775 18.9417 77.5963 18.9128 78.4191 18.0906C79.3019 17.2085 79.2715 15.7634 78.3075 14.9709C70.5386 8.58433 60.5921 4.75 49.75 4.75C38.9916 4.75 29.115 8.52538 21.3727 14.8235C20.4013 15.6137 20.367 17.0645 21.2524 17.95C22.0721 18.7698 23.3854 18.8022 24.2885 18.0753C31.2554 12.4679 40.1108 9.11187 49.75 9.11187C59.4648 9.11187 68.3834 12.5208 75.375 18.2077ZM18.2604 24.0601C18.9976 23.1576 18.9699 21.836 18.1459 21.012C17.265 20.1311 15.8228 20.1603 15.0297 21.1211C8.60787 28.9004 4.75 38.8747 4.75 49.75C4.75 60.5806 8.5762 70.5175 14.9507 78.2828C15.7425 79.2473 17.1874 79.2787 18.0702 78.3967C18.8931 77.5744 18.9229 76.2556 18.1895 75.3526C12.5135 68.3644 9.11187 59.4545 9.11187 49.75C9.11187 40.0051 12.5419 31.0614 18.2604 24.0601ZM78.4879 81.3543C77.664 80.5302 76.3423 80.5025 75.4398 81.2397C68.4386 86.9582 59.4949 90.3882 49.75 90.3882C40.0703 90.3882 31.1811 87.0039 24.2009 81.3542C23.2983 80.6235 21.9822 80.6539 21.1608 81.4748C20.2766 82.3585 20.3087 83.8064 21.2762 84.5979C29.0328 90.9433 38.9469 94.7501 49.75 94.7501C60.6253 94.7501 70.5996 90.8922 78.3789 84.4704C79.3396 83.6773 79.3689 82.2351 78.4879 81.3543ZM81.55 78.2476C82.4355 79.133 83.8864 79.0986 84.6765 78.1273C90.9747 70.385 94.75 60.5084 94.75 49.75C94.75 38.9583 90.9513 29.0539 84.6181 21.301C83.8272 20.3329 82.3793 20.2997 81.495 21.1833C80.6735 22.0042 80.6423 23.3202 81.3722 24.2234C87.0111 31.2001 90.3881 40.0807 90.3881 49.75C90.3881 59.3892 87.0321 68.2446 81.4247 75.2114C80.6978 76.1146 80.7303 77.4278 81.55 78.2476Z"/>
</mask>
<path fill-rule="evenodd" clip-rule="evenodd" d="M75.375 18.2077C76.2775 18.9417 77.5963 18.9128 78.4191 18.0906C79.3019 17.2085 79.2715 15.7634 78.3075 14.9709C70.5386 8.58433 60.5921 4.75 49.75 4.75C38.9916 4.75 29.115 8.52538 21.3727 14.8235C20.4013 15.6137 20.367 17.0645 21.2524 17.95C22.0721 18.7698 23.3854 18.8022 24.2885 18.0753C31.2554 12.4679 40.1108 9.11187 49.75 9.11187C59.4648 9.11187 68.3834 12.5208 75.375 18.2077ZM18.2604 24.0601C18.9976 23.1576 18.9699 21.836 18.1459 21.012C17.265 20.1311 15.8228 20.1603 15.0297 21.1211C8.60787 28.9004 4.75 38.8747 4.75 49.75C4.75 60.5806 8.5762 70.5175 14.9507 78.2828C15.7425 79.2473 17.1874 79.2787 18.0702 78.3967C18.8931 77.5744 18.9229 76.2556 18.1895 75.3526C12.5135 68.3644 9.11187 59.4545 9.11187 49.75C9.11187 40.0051 12.5419 31.0614 18.2604 24.0601ZM78.4879 81.3543C77.664 80.5302 76.3423 80.5025 75.4398 81.2397C68.4386 86.9582 59.4949 90.3882 49.75 90.3882C40.0703 90.3882 31.1811 87.0039 24.2009 81.3542C23.2983 80.6235 21.9822 80.6539 21.1608 81.4748C20.2766 82.3585 20.3087 83.8064 21.2762 84.5979C29.0328 90.9433 38.9469 94.7501 49.75 94.7501C60.6253 94.7501 70.5996 90.8922 78.3789 84.4704C79.3396 83.6773 79.3689 82.2351 78.4879 81.3543ZM81.55 78.2476C82.4355 79.133 83.8864 79.0986 84.6765 78.1273C90.9747 70.385 94.75 60.5084 94.75 49.75C94.75 38.9583 90.9513 29.0539 84.6181 21.301C83.8272 20.3329 82.3793 20.2997 81.495 21.1833C80.6735 22.0042 80.6423 23.3202 81.3722 24.2234C87.0111 31.2001 90.3881 40.0807 90.3881 49.75C90.3881 59.3892 87.0321 68.2446 81.4247 75.2114C80.6978 76.1146 80.7303 77.4278 81.55 78.2476Z" fill="url(#paint0_linear_123_1514)"/>
<path d="M78.4191 18.0906L78.8319 18.5037L78.8319 18.5037L78.4191 18.0906ZM75.375 18.2077L75.0065 18.6607L75.0065 18.6607L75.375 18.2077ZM78.3075 14.9709L77.9366 15.422L77.9366 15.422L78.3075 14.9709ZM21.3727 14.8235L21.7412 15.2765L21.7412 15.2765L21.3727 14.8235ZM21.2524 17.95L20.8394 18.3629L20.8394 18.363L21.2524 17.95ZM24.2885 18.0753L23.9224 17.6204L23.9224 17.6204L24.2885 18.0753ZM18.1459 21.012L17.733 21.425L17.733 21.425L18.1459 21.012ZM18.2604 24.0601L17.8081 23.6907L17.8081 23.6907L18.2604 24.0601ZM15.0297 21.1211L15.4801 21.4929L15.4801 21.4929L15.0297 21.1211ZM14.9507 78.2828L14.4993 78.6533L14.4993 78.6533L14.9507 78.2828ZM18.0702 78.3967L18.483 78.8098L18.483 78.8098L18.0702 78.3967ZM18.1895 75.3526L17.7362 75.7208L17.7362 75.7208L18.1895 75.3526ZM75.4398 81.2397L75.8093 81.692L75.8093 81.692L75.4398 81.2397ZM78.4879 81.3543L78.075 81.7672L78.075 81.7673L78.4879 81.3543ZM24.2009 81.3542L23.8335 81.8081L23.8335 81.8081L24.2009 81.3542ZM21.1608 81.4748L20.748 81.0618L20.7479 81.0618L21.1608 81.4748ZM21.2762 84.5979L20.9064 85.0499L20.9064 85.0499L21.2762 84.5979ZM78.3789 84.4704L78.7507 84.9208L78.7507 84.9208L78.3789 84.4704ZM84.6765 78.1273L84.2235 77.7587L84.2235 77.7587L84.6765 78.1273ZM81.55 78.2476L81.1371 78.6605L81.1371 78.6606L81.55 78.2476ZM84.6181 21.301L84.1658 21.6704L84.1658 21.6704L84.6181 21.301ZM81.495 21.1833L81.0823 20.7701L81.0822 20.7702L81.495 21.1833ZM81.3722 24.2234L80.918 24.5905L80.918 24.5905L81.3722 24.2234ZM81.4247 75.2114L81.8797 75.5776L81.8797 75.5776L81.4247 75.2114ZM78.0064 17.6775C77.4081 18.2752 76.4283 18.3116 75.7435 17.7546L75.0065 18.6607C76.1267 19.5719 77.7844 19.5504 78.8319 18.5037L78.0064 17.6775ZM77.9366 15.422C78.6187 15.9827 78.6594 17.0249 78.0064 17.6775L78.8319 18.5037C79.9444 17.392 79.9243 15.544 78.6783 14.5198L77.9366 15.422ZM49.75 5.33399C60.4519 5.33399 70.2684 9.11819 77.9366 15.422L78.6783 14.5198C70.8088 8.05047 60.7323 4.16601 49.75 4.16601V5.33399ZM21.7412 15.2765C29.3832 9.06002 39.1306 5.33399 49.75 5.33399V4.16601C38.8525 4.16601 28.8468 7.99074 21.0042 14.3705L21.7412 15.2765ZM21.6653 17.5371C21.0102 16.8819 21.054 15.8355 21.7412 15.2765L21.0042 14.3705C19.7486 15.3918 19.7238 17.2472 20.8394 18.3629L21.6653 17.5371ZM23.9224 17.6204C23.2371 18.172 22.2613 18.1331 21.6653 17.5371L20.8394 18.363C21.8829 19.4065 23.5337 19.4325 24.6547 18.5302L23.9224 17.6204ZM49.75 8.52788C39.9728 8.52788 30.9892 11.9325 23.9224 17.6204L24.6547 18.5303C31.5215 13.0034 40.2487 9.69586 49.75 9.69586V8.52788ZM75.7435 17.7546C68.6516 11.9861 59.6038 8.52788 49.75 8.52788V9.69586C59.3257 9.69586 68.1153 13.0554 75.0065 18.6607L75.7435 17.7546ZM17.733 21.425C18.3319 22.0239 18.3675 23.0059 17.8081 23.6907L18.7127 24.4296C19.6277 23.3094 19.6079 21.6481 18.5589 20.5991L17.733 21.425ZM15.4801 21.4929C16.0412 20.8131 17.0813 20.7733 17.733 21.425L18.5589 20.5991C17.4486 19.4888 15.6044 19.5076 14.5794 20.7493L15.4801 21.4929ZM5.33399 49.75C5.33399 39.0153 9.14142 29.1714 15.4801 21.4929L14.5794 20.7493C8.07432 28.6294 4.16601 38.7341 4.16601 49.75H5.33399ZM15.402 77.9122C9.11017 70.2476 5.33399 60.4406 5.33399 49.75H4.16601C4.16601 60.7206 8.04224 70.7875 14.4993 78.6533L15.402 77.9122ZM17.6575 77.9836C17.0044 78.6361 15.9622 78.5946 15.402 77.9122L14.4993 78.6533C15.5227 79.9 17.3705 79.9213 18.483 78.8098L17.6575 77.9836ZM17.7362 75.7208C18.2927 76.4059 18.2557 77.3858 17.6574 77.9836L18.483 78.8098C19.5306 77.7629 19.5531 76.1052 18.6428 74.9844L17.7362 75.7208ZM8.52788 49.75C8.52788 59.5934 11.9787 68.6323 17.7362 75.7208L18.6428 74.9844C13.0482 68.0965 9.69586 59.3156 9.69586 49.75H8.52788ZM17.8081 23.6907C12.0075 30.7924 8.52788 39.8656 8.52788 49.75H9.69586C9.69586 40.1446 13.0762 31.3303 18.7127 24.4295L17.8081 23.6907ZM75.8093 81.692C76.4941 81.1326 77.476 81.1682 78.075 81.7672L78.9009 80.9414C77.8519 79.8922 76.1906 79.8724 75.0704 80.7874L75.8093 81.692ZM49.75 90.9722C59.6344 90.9722 68.7076 87.4926 75.8093 81.692L75.0704 80.7874C68.1696 86.4239 59.3554 89.8042 49.75 89.8042V90.9722ZM23.8335 81.8081C30.9138 87.5389 39.9317 90.9722 49.75 90.9722V89.8042C40.2088 89.8042 31.4483 86.4689 24.5684 80.9003L23.8335 81.8081ZM21.5736 81.8879C22.1708 81.2911 23.1487 81.2537 23.8335 81.8081L24.5684 80.9003C23.448 79.9933 21.7937 80.0167 20.748 81.0618L21.5736 81.8879ZM21.646 84.1459C20.9615 83.5859 20.9194 82.5417 21.5736 81.8879L20.7479 81.0618C19.6337 82.1753 19.656 84.0269 20.9064 85.0499L21.646 84.1459ZM49.75 94.1661C39.0865 94.1661 29.3021 90.409 21.646 84.1459L20.9064 85.0499C28.7635 91.4775 38.8072 95.3341 49.75 95.3341V94.1661ZM78.0071 84.02C70.3286 90.3587 60.4847 94.1661 49.75 94.1661V95.3341C60.7659 95.3341 70.8706 91.4258 78.7507 84.9208L78.0071 84.02ZM78.075 81.7673C78.7266 82.4188 78.6869 83.4589 78.0071 84.02L78.7507 84.9208C79.9924 83.8957 80.0111 82.0515 78.9008 80.9413L78.075 81.7673ZM84.2235 77.7587C83.6645 78.4459 82.6182 78.4897 81.963 77.8346L81.1371 78.6606C82.2529 79.7762 84.1082 79.7513 85.1296 78.4958L84.2235 77.7587ZM94.1661 49.75C94.1661 60.3693 90.4401 70.1168 84.2235 77.7587L85.1296 78.4958C91.5093 70.6532 95.334 60.6475 95.334 49.75H94.1661ZM84.1658 21.6704C90.417 29.3229 94.1661 39.0978 94.1661 49.75H95.334C95.334 38.8188 91.4856 28.7849 85.0703 20.9315L84.1658 21.6704ZM81.9078 21.5964C82.5621 20.9427 83.6063 20.9855 84.1658 21.6704L85.0703 20.9315C84.0482 19.6802 82.1966 19.6568 81.0823 20.7701L81.9078 21.5964ZM81.8264 23.8564C81.2725 23.171 81.3106 22.1932 81.9078 21.5963L81.0822 20.7702C80.0365 21.8152 80.012 23.4694 80.918 24.5905L81.8264 23.8564ZM90.9721 49.75C90.9721 39.9423 87.5462 30.9332 81.8264 23.8563L80.918 24.5905C86.476 31.4671 89.8041 40.2191 89.8041 49.75H90.9721ZM81.8797 75.5776C87.5676 68.5108 90.9721 59.5271 90.9721 49.75H89.8041C89.8041 59.2512 86.4967 67.9784 80.9698 74.8452L81.8797 75.5776ZM81.963 77.8346C81.367 77.2387 81.3281 76.2629 81.8797 75.5776L80.9698 74.8452C80.0675 75.9662 80.0936 77.617 81.1371 78.6605L81.963 77.8346Z" fill="black" mask="url(#path-1-outside-1_123_1514)"/>
</g>
<defs>
<linearGradient id="paint0_linear_123_1514" x1="7.45001" y1="-0.414563" x2="108.973" y2="74.2158" gradientUnits="userSpaceOnUse">
<stop stop-color="#FF0000"/>
<stop offset="0.161458" stop-color="#FF8A00"/>
<stop offset="0.3125" stop-color="#EBFF00"/>
<stop offset="0.453125" stop-color="#05FF00"/>
<stop offset="0.59375" stop-color="#00F0FF"/>
<stop offset="0.734375" stop-color="#0500FF"/>
<stop offset="0.864583" stop-color="#FA00FF"/>
<stop offset="1" stop-color="#FF0000"/>
</linearGradient>
<clipPath id="clip0_123_1514">
<rect width="100" height="100" fill="white"/>
</clipPath>
</defs>
</svg>
