<svg width="100" height="100" viewBox="0 0 100 100" fill="none" xmlns="http://www.w3.org/2000/svg">
<g clip-path="url(#clip0_70_2)">
<path fill-rule="evenodd" clip-rule="evenodd" d="M4.27177 24.2549C4.27177 19.2923 8.294 15.2719 13.2548 15.2719H37.4329C41.8167 15.2719 45.4616 18.42 46.245 22.5886L46.593 24.4409H48.4778H81.6198C86.5784 24.4409 90.6028 28.4616 90.6028 33.4239V35.2529C90.13 35.181 89.6451 35.1436 89.1506 35.1436L21.4874 35.1436C16.9228 35.1436 12.9974 38.3765 12.1225 42.8566L5.09068 78.8631C4.56498 77.7214 4.27177 76.4508 4.27177 75.1122V42.598V33.4239V24.2549ZM8.91639 82.9792C10.2026 83.6904 11.6816 84.0953 13.2548 84.0953H81.6198C85.6749 84.0953 89.1059 81.4027 90.2211 77.7094C90.2133 77.5758 90.2173 77.4397 90.234 77.3022L94.1124 45.2865C94.473 42.3096 92.1493 39.6874 89.1506 39.6874L21.4874 39.6873C19.0964 39.6874 17.0403 41.3808 16.582 43.7275L8.91639 82.9792ZM95.0763 75.1122H95.1466C95.1466 82.5797 89.0872 88.639 81.6198 88.639H13.2548C5.78456 88.639 -0.271973 82.5793 -0.271973 75.1122V42.598V33.4239V24.2549C-0.271973 16.7822 5.78521 10.7281 13.2548 10.7281H37.4329C43.384 10.7281 48.4126 14.5698 50.2243 19.8971H81.6198C89.0866 19.8971 95.1466 25.9508 95.1466 33.4239V37.2616C97.6006 39.2484 99.0368 42.4185 98.6232 45.833L95.0763 75.1122Z" fill="url(#paint0_linear_70_2)"/>
</g>
<defs>
<linearGradient id="paint0_linear_70_2" x1="10.4587" y1="21.627" x2="79.0749" y2="104.973" gradientUnits="userSpaceOnUse">
<stop stop-color="#FC4988"/>
<stop offset="0.567175" stop-color="#D20F39"/>
<stop offset="1" stop-color="#FF0000"/>
</linearGradient>
<clipPath id="clip0_70_2">
<rect width="100" height="100" fill="white"/>
</clipPath>
</defs>
</svg>
