<svg width="100" height="100" viewBox="0 0 100 100" fill="none" xmlns="http://www.w3.org/2000/svg">
<g clip-path="url(#clip0_30_476)">
<path d="M48.6879 20.1843L49.071 22.2225H51.1449H87.6149C93.0715 22.2225 97.5 26.647 97.5 32.1076V77.982C97.5 83.4379 93.0708 87.8671 87.6149 87.8671H12.3851C6.92684 87.8671 2.5 83.4382 2.5 77.982V42.2029V32.1076V22.0179C2.5 16.5569 6.92612 12.1328 12.3851 12.1328H38.991C43.815 12.1328 47.8259 15.597 48.6879 20.1843Z" stroke="url(#paint0_linear_30_476)" stroke-width="5"/>
<path fill-rule="evenodd" clip-rule="evenodd" d="M59.2319 32.557C55.8466 32.2017 52.4421 33.0209 49.5889 34.8773C46.7359 36.7336 44.6077 39.5142 43.5609 42.7531C42.5142 45.9919 42.6126 49.4921 43.8396 52.6671C44.1856 53.5624 43.7402 54.5687 42.8449 54.9147C42.7554 54.9493 42.6648 54.976 42.5739 54.9951L25.8966 71.7449V78.5075H30.7435V74.1878C30.7435 73.3879 31.392 72.7395 32.1918 72.7395H39.3955V67.8552C39.3955 67.0553 40.044 66.4069 40.8439 66.4069H46.0125L49.9854 62.4335C50.0048 62.3371 50.0327 62.2411 50.0695 62.1463C50.4164 61.2514 51.4232 60.8071 52.3182 61.1541C55.4918 62.3845 58.9919 62.4867 62.2318 61.4435C65.4718 60.4002 68.2547 58.2751 70.1141 55.4241C71.9734 52.573 72.7962 49.1696 72.4446 45.7841C72.093 42.3986 70.5885 39.2368 68.183 36.8286C65.7774 34.4204 62.6171 32.9123 59.2319 32.557ZM40.2534 41.6841C39.0453 45.4224 39.0731 49.4428 40.3203 53.1531L23.422 70.125C23.1517 70.3964 23 70.7638 23 71.1469V79.9558C23 80.7557 23.6484 81.4041 24.4483 81.4041H32.1918C32.9917 81.4041 33.6402 80.7557 33.6402 79.9558V75.6361H40.8439C41.6438 75.6361 42.2922 74.9877 42.2922 74.1878V69.3035H46.6124C46.9966 69.3035 47.365 69.1509 47.6366 68.8793L51.839 64.6764C55.545 65.9241 59.5612 65.9551 63.2972 64.7522C67.296 63.4646 70.7306 60.8417 73.0256 57.323L73.0256 57.3229C75.3204 53.8041 76.3359 49.6035 75.902 45.4251C75.4681 41.2466 73.6111 37.3443 70.6423 34.3721L70.6423 34.3721C67.6733 31.3998 63.7728 29.5385 59.5947 29.1C55.4165 28.6615 51.2146 29.6726 47.6932 31.9637L47.6932 31.9637C44.172 34.2549 41.5453 37.6867 40.2534 41.6841ZM61.6827 39.0806C60.4905 39.0806 59.3472 39.5542 58.5042 40.3972C57.6612 41.2402 57.1876 42.3835 57.1876 43.5757C57.1876 44.7678 57.6612 45.9112 58.5042 46.7542C59.3475 47.5975 60.491 48.0702 61.6827 48.0702C62.8748 48.0702 64.0181 47.5966 64.861 46.7537C65.7039 45.9108 66.1775 44.7675 66.1775 43.5754C66.1775 42.3833 65.7039 41.24 64.861 40.3971C64.0181 39.5541 62.8748 39.0806 61.6827 39.0806ZM60.1428 42.0358C60.5512 41.6273 61.1051 41.3979 61.6827 41.3979C62.2602 41.3979 62.814 41.6273 63.2224 42.0357C63.6308 42.444 63.8602 42.9979 63.8602 43.5754C63.8602 44.1529 63.6308 44.7068 63.2224 45.1151C62.814 45.5235 62.2602 45.7529 61.6827 45.7529C61.1046 45.7529 60.5509 45.5236 60.1428 45.1156C59.7344 44.7072 59.5049 44.1532 59.5049 43.5757C59.5049 42.9981 59.7344 42.4442 60.1428 42.0358Z" fill="url(#paint1_linear_30_476)"/>
</g>
<defs>
<linearGradient id="paint0_linear_30_476" x1="-3.57553" y1="7.00135" x2="81.407" y2="112.306" gradientUnits="userSpaceOnUse">
<stop offset="0.0364583" stop-color="#FEFDCD"/>
<stop offset="0.354167" stop-color="#FFFA2E"/>
<stop offset="0.682292" stop-color="#D5BE1E"/>
<stop offset="1" stop-color="#B58D34"/>
</linearGradient>
<linearGradient id="paint1_linear_30_476" x1="21.105" y1="27.2919" x2="77.5358" y2="84.3876" gradientUnits="userSpaceOnUse">
<stop offset="0.0364583" stop-color="#FEFDCD"/>
<stop offset="0.354167" stop-color="#FFFA2E"/>
<stop offset="0.682292" stop-color="#D5BE1E"/>
<stop offset="1" stop-color="#B58D34"/>
</linearGradient>
<clipPath id="clip0_30_476">
<rect width="100" height="100" fill="white"/>
</clipPath>
</defs>
</svg>
