<svg width="100" height="100" viewBox="0 0 100 100" fill="none" xmlns="http://www.w3.org/2000/svg">
<g clip-path="url(#clip0_30_274)">
<path d="M48.6879 20.1843L49.071 22.2226H51.1449H87.6149C93.0715 22.2226 97.5 26.647 97.5 32.1077V77.982C97.5 83.4379 93.0708 87.8671 87.6149 87.8671H12.3851C6.92684 87.8671 2.5 83.4383 2.5 77.982V42.2029V32.1077V22.0179C2.5 16.5569 6.92612 12.1328 12.3851 12.1328H38.991C43.815 12.1328 47.8259 15.5971 48.6879 20.1843Z" stroke="url(#paint0_linear_30_274)" stroke-width="5"/>
<path fill-rule="evenodd" clip-rule="evenodd" d="M49.2781 27.8366C50.0528 27.3879 51.0084 27.3878 51.7832 27.8362L62.496 34.0361L62.4963 34.0362L73.208 40.2341C73.9804 40.681 74.456 41.5057 74.456 42.398V67.234C74.456 68.1269 73.9798 68.9519 73.2068 69.3986L51.7468 81.7986C50.9734 82.2455 50.0205 82.2458 49.2468 81.7995L27.7508 69.3995C26.9769 68.9531 26.5 68.1275 26.5 67.234V42.47C26.5 41.5781 26.9752 40.7537 27.7471 40.3066L49.2781 27.8366ZM50.5315 32.8888L34.0093 42.4578L40.0706 45.9449L56.2591 36.2035L50.5315 32.8888ZM61.2025 39.0643L45.0286 48.7969L50.4034 51.8884L66.9028 42.3625L61.2025 39.0643ZM37.605 50.2948V57.29C37.605 58.6707 38.7243 59.79 40.105 59.79C41.4857 59.79 42.605 58.6707 42.605 57.29V53.1709L47.999 56.2736V75.3075L31.5 65.79V46.7826L37.605 50.2948ZM69.456 65.7912L52.999 75.3004V56.1634L69.456 46.662V65.7912Z" fill="url(#paint1_linear_30_274)"/>
</g>
<defs>
<linearGradient id="paint0_linear_30_274" x1="3.11926" y1="18.4059" x2="77.3512" y2="104.335" gradientUnits="userSpaceOnUse">
<stop stop-color="#FFA424"/>
<stop offset="0.979167" stop-color="#FF4C2E"/>
</linearGradient>
<linearGradient id="paint1_linear_30_274" x1="26.5104" y1="27.6914" x2="86.141" y2="61.4778" gradientUnits="userSpaceOnUse">
<stop stop-color="white"/>
<stop offset="0.848958" stop-color="#7F787F"/>
<stop offset="0.982609" stop-color="#4B454B"/>
</linearGradient>
<clipPath id="clip0_30_274">
<rect width="100" height="100" fill="white"/>
</clipPath>
</defs>
</svg>
