<svg width="100" height="100" viewBox="0 0 100 100" fill="none" xmlns="http://www.w3.org/2000/svg">
<g clip-path="url(#clip0_80_56)">
<mask id="mask0_80_56" style="mask-type:luminance" maskUnits="userSpaceOnUse" x="0" y="0" width="100" height="100">
<path d="M100 0H0V100H100V0Z" fill="white"/>
</mask>
<g mask="url(#mask0_80_56)">
<path d="M48.6879 20.1843L49.071 22.2226H51.1449H87.6149C93.0715 22.2226 97.5 26.647 97.5 32.1077V77.9821C97.5 83.4379 93.0708 87.8671 87.6149 87.8671H12.3851C6.92684 87.8671 2.5 83.4383 2.5 77.9821V42.2029V32.1077V22.0179C2.5 16.5569 6.92612 12.1329 12.3851 12.1329H38.991C43.815 12.1329 47.8259 15.5971 48.6879 20.1843Z" stroke="url(#paint0_linear_80_56)" stroke-width="5"/>
</g>
<path d="M25 38.3337C25 33.7308 28.7308 30 33.3332 30H66.6669C71.2692 30 75 33.7308 75 38.3332V71.6669C75 76.2692 71.2692 80 66.6669 80H33.3332C28.7308 80 25 76.2692 25 71.6669V38.3337Z" stroke="url(#paint1_linear_80_56)" stroke-width="4.63392"/>
<path fill-rule="evenodd" clip-rule="evenodd" d="M41.343 37.7844C41.343 36.5048 40.3056 35.4674 39.026 35.4674C37.7464 35.4674 36.7091 36.5048 36.7091 37.7844V44.5284C33.1778 45.5354 30.5923 48.7859 30.5923 52.6403C30.5923 56.4947 33.1778 59.7453 36.7091 60.7522V72.2403C36.7091 73.5199 37.7464 74.5572 39.026 74.5572C40.3056 74.5572 41.343 73.5199 41.343 72.2403V60.7525C44.8748 59.7459 47.4608 56.4951 47.4608 52.6403C47.4608 48.7855 44.8748 45.5347 41.343 44.5281V37.7844ZM63.253 37.7844C63.253 36.5048 62.2157 35.4674 60.936 35.4674C59.6564 35.4674 58.6191 36.5048 58.6191 37.7844V53.25C55.0557 54.2361 52.4396 57.5023 52.4396 61.3795C52.4396 65.2566 55.0557 68.5228 58.6191 69.509V72.2403C58.6191 73.5199 59.6564 74.5572 60.936 74.5572C62.2157 74.5572 63.253 73.5199 63.253 72.2403V69.4735C66.7527 68.4465 69.3081 65.2114 69.3081 61.3795C69.3081 57.5475 66.7527 54.3124 63.253 53.2854V37.7844ZM39.0265 48.84C36.9277 48.84 35.2262 50.5414 35.2262 52.6403C35.2262 54.7392 36.9277 56.4407 39.0265 56.4407C41.1254 56.4407 42.8269 54.7392 42.8269 52.6403C42.8269 50.5414 41.1254 48.84 39.0265 48.84ZM60.8739 57.5792C58.775 57.5792 57.0735 59.2806 57.0735 61.3795C57.0735 63.4784 58.775 65.1798 60.8739 65.1798C62.9727 65.1798 64.6742 63.4784 64.6742 61.3795C64.6742 59.2806 62.9727 57.5792 60.8739 57.5792Z" fill="url(#paint2_linear_80_56)"/>
</g>
<defs>
<linearGradient id="paint0_linear_80_56" x1="5.4633" y1="20.3627" x2="74.9647" y2="101.839" gradientUnits="userSpaceOnUse">
<stop stop-color="#FFA424"/>
<stop offset="0.979167" stop-color="#FF4C2E"/>
</linearGradient>
<linearGradient id="paint1_linear_80_56" x1="26.5596" y1="35.4333" x2="72.9195" y2="78.7593" gradientUnits="userSpaceOnUse">
<stop stop-color="#FFA424"/>
<stop offset="0.979167" stop-color="#FF4C2E"/>
</linearGradient>
<linearGradient id="paint2_linear_80_56" x1="31.7999" y1="39.7151" x2="68.0187" y2="73.2399" gradientUnits="userSpaceOnUse">
<stop stop-color="#FFA424"/>
<stop offset="0.979167" stop-color="#FF4C2E"/>
</linearGradient>
<clipPath id="clip0_80_56">
<rect width="100" height="100" fill="white"/>
</clipPath>
</defs>
</svg>
