<svg width="100" height="100" viewBox="0 0 100 100" fill="none" xmlns="http://www.w3.org/2000/svg">
<path fill-rule="evenodd" clip-rule="evenodd" d="M41.2113 14.1456C39.6348 12.598 37.1023 12.6214 35.5547 14.1978C34.0071 15.7743 34.0305 18.3068 35.6069 19.8544L40.4993 24.6572C39.5118 26.3137 38.9445 28.2497 38.9445 30.3182C38.9445 35.0251 41.8819 39.0459 46.0236 40.6476V58.3733C41.8819 59.975 38.9445 63.9958 38.9445 68.7027C38.9445 74.817 43.9011 79.7737 50.0154 79.7737C56.1297 79.7737 61.0863 74.817 61.0863 68.7027C61.0863 64.002 58.1567 59.9856 54.0236 58.3797V40.6412C54.588 40.4219 55.13 40.1577 55.6451 39.8529L59.7918 44.0291C58.7949 45.6911 58.2218 47.6363 58.2218 49.7154C58.2218 55.8297 63.1784 60.7864 69.2927 60.7864C75.407 60.7864 80.3636 55.8297 80.3636 49.7154C80.3636 43.6011 75.407 38.6445 69.2927 38.6445C68.2062 38.6445 67.1563 38.801 66.1642 39.0928L60.6196 33.5088C60.9232 32.4985 61.0863 31.4274 61.0863 30.3182C61.0863 24.2039 56.1297 19.2473 50.0154 19.2473C48.9227 19.2473 47.8669 19.4056 46.8698 19.7005L41.2113 14.1456ZM52.7537 31.7096C52.9664 31.2919 53.0863 30.819 53.0863 30.3182C53.0863 28.6221 51.7114 27.2473 50.0154 27.2473C48.3194 27.2473 46.9445 28.6221 46.9445 30.3182C46.9445 32.0142 48.3194 33.3891 50.0154 33.3891C50.911 33.3891 51.717 33.0057 52.2783 32.3942C52.4103 32.1539 52.5687 31.9242 52.7537 31.7096ZM69.2927 46.6445C67.5967 46.6445 66.2218 48.0194 66.2218 49.7154C66.2218 51.4115 67.5967 52.7864 69.2927 52.7864C70.9887 52.7864 72.3636 51.4115 72.3636 49.7154C72.3636 48.0194 70.9887 46.6445 69.2927 46.6445ZM50.0154 65.6318C48.3194 65.6318 46.9445 67.0067 46.9445 68.7027C46.9445 70.3988 48.3194 71.7737 50.0154 71.7737C51.7114 71.7737 53.0863 70.3988 53.0863 68.7027C53.0863 67.0067 51.7114 65.6318 50.0154 65.6318Z" fill="url(#paint0_linear_6_2092)"/>
<path d="M90.7282 44.4642L55.5362 9.27215C52.4787 6.2147 47.5216 6.2147 44.4642 9.27215L9.27212 44.4642C6.21467 47.5217 6.21467 52.4788 9.27212 55.5362L44.4642 90.7283C47.5216 93.7857 52.4787 93.7857 55.5362 90.7283L90.7282 55.5362C93.7857 52.4788 93.7857 47.5217 90.7282 44.4642Z" stroke="url(#paint1_linear_6_2092)" stroke-width="8" stroke-linecap="round" stroke-linejoin="round"/>
<defs>
<linearGradient id="paint0_linear_6_2092" x1="34.4191" y1="13.234" x2="97.4635" y2="41.2407" gradientUnits="userSpaceOnUse">
<stop stop-color="white"/>
<stop offset="0.848958" stop-color="#7F787F"/>
<stop offset="0.982609" stop-color="#4B454B"/>
</linearGradient>
<linearGradient id="paint1_linear_6_2092" x1="46.4159" y1="10.2066" x2="49.2231" y2="93.1912" gradientUnits="userSpaceOnUse">
<stop stop-color="#FFA424"/>
<stop offset="0.979167" stop-color="#FF4C2E"/>
</linearGradient>
</defs>
</svg>
