<svg width="100" height="100" viewBox="0 0 100 100" fill="none" xmlns="http://www.w3.org/2000/svg">
<path fill-rule="evenodd" clip-rule="evenodd" d="M31.25 58.3333H68.75C69.9 58.3333 70.8334 59.2666 70.8334 60.4166V64.5833C70.8334 65.7333 69.9 66.6666 68.75 66.6666H31.25C30.1 66.6666 29.1667 65.7333 29.1667 64.5833V60.4166C29.1667 59.2666 30.1 58.3333 31.25 58.3333ZM77.0834 58.3333H81.25C82.4 58.3333 83.3334 59.2666 83.3334 60.4166V64.5833C83.3334 65.7333 82.4 66.6666 81.25 66.6666H77.0834C75.9334 66.6666 75 65.7333 75 64.5833V60.4166C75 59.2666 75.9334 58.3333 77.0834 58.3333ZM18.75 58.3333H22.9167C24.0667 58.3333 25 59.2666 25 60.4166V64.5833C25 65.7333 24.0667 66.6666 22.9167 66.6666H18.75C17.6 66.6666 16.6667 65.7333 16.6667 64.5833V60.4166C16.6667 59.2666 17.6 58.3333 18.75 58.3333ZM22.9167 45.8333H27.0834C28.2334 45.8333 29.1667 46.7666 29.1667 47.9166V52.0833C29.1667 53.2333 28.2334 54.1666 27.0834 54.1666H22.9167C21.7667 54.1666 20.8334 53.2333 20.8334 52.0833V47.9166C20.8334 46.7666 21.7667 45.8333 22.9167 45.8333ZM22.9167 33.3333H27.0834C28.2334 33.3333 29.1667 34.2666 29.1667 35.4166V39.5833C29.1667 40.7333 28.2334 41.6666 27.0834 41.6666H22.9167C21.7667 41.6666 20.8334 40.7333 20.8334 39.5833V35.4166C20.8334 34.2666 21.7667 33.3333 22.9167 33.3333ZM35.4167 45.8333H39.5834C40.7334 45.8333 41.6667 46.7666 41.6667 47.9166V52.0833C41.6667 53.2333 40.7334 54.1666 39.5834 54.1666H35.4167C34.2667 54.1666 33.3334 53.2333 33.3334 52.0833V47.9166C33.3334 46.7666 34.2667 45.8333 35.4167 45.8333ZM35.4167 33.3333H39.5834C40.7334 33.3333 41.6667 34.2666 41.6667 35.4166V39.5833C41.6667 40.7333 40.7334 41.6666 39.5834 41.6666H35.4167C34.2667 41.6666 33.3334 40.7333 33.3334 39.5833V35.4166C33.3334 34.2666 34.2667 33.3333 35.4167 33.3333ZM47.9167 45.8333H52.0834C53.2334 45.8333 54.1667 46.7666 54.1667 47.9166V52.0833C54.1667 53.2333 53.2334 54.1666 52.0834 54.1666H47.9167C46.7667 54.1666 45.8334 53.2333 45.8334 52.0833V47.9166C45.8334 46.7666 46.7667 45.8333 47.9167 45.8333ZM47.9167 33.3333H52.0834C53.2334 33.3333 54.1667 34.2666 54.1667 35.4166V39.5833C54.1667 40.7333 53.2334 41.6666 52.0834 41.6666H47.9167C46.7667 41.6666 45.8334 40.7333 45.8334 39.5833V35.4166C45.8334 34.2666 46.7667 33.3333 47.9167 33.3333ZM60.4167 45.8333H64.5834C65.7334 45.8333 66.6667 46.7666 66.6667 47.9166V52.0833C66.6667 53.2333 65.7334 54.1666 64.5834 54.1666H60.4167C59.2667 54.1666 58.3334 53.2333 58.3334 52.0833V47.9166C58.3334 46.7666 59.2667 45.8333 60.4167 45.8333ZM60.4167 33.3333H64.5834C65.7334 33.3333 66.6667 34.2666 66.6667 35.4166V39.5833C66.6667 40.7333 65.7334 41.6666 64.5834 41.6666H60.4167C59.2667 41.6666 58.3334 40.7333 58.3334 39.5833V35.4166C58.3334 34.2666 59.2667 33.3333 60.4167 33.3333ZM72.9167 45.8333H77.0834C78.2334 45.8333 79.1667 46.7666 79.1667 47.9166V52.0833C79.1667 53.2333 78.2334 54.1666 77.0834 54.1666H72.9167C71.7667 54.1666 70.8334 53.2333 70.8334 52.0833V47.9166C70.8334 46.7666 71.7667 45.8333 72.9167 45.8333ZM72.9167 33.3333H77.0834C78.2334 33.3333 79.1667 34.2666 79.1667 35.4166V39.5833C79.1667 40.7333 78.2334 41.6666 77.0834 41.6666H72.9167C71.7667 41.6666 70.8334 40.7333 70.8334 39.5833V35.4166C70.8334 34.2666 71.7667 33.3333 72.9167 33.3333ZM87.5 52.0833C87.5 49.7833 89.3667 47.9166 91.6667 47.9166C93.9667 47.9166 95.8334 49.7833 95.8334 52.0833V72.9167C95.8334 76.3667 93.0334 79.1667 89.5834 79.1667H10.4167C6.96669 79.1667 4.16669 76.3667 4.16669 72.9167V64.5833C4.16669 62.2833 6.03335 60.4166 8.33335 60.4166C10.6334 60.4166 12.5 62.2833 12.5 64.5833V68.75C12.5 69.9 13.4334 70.8333 14.5834 70.8333H85.4167C86.5667 70.8333 87.5 69.9 87.5 68.75V52.0833ZM12.5 47.9166C12.5 50.2166 10.6334 52.0833 8.33335 52.0833C6.03335 52.0833 4.16669 50.2166 4.16669 47.9166V27.0833C4.16669 23.6333 6.96669 20.8333 10.4167 20.8333H89.5834C93.0334 20.8333 95.8334 23.6333 95.8334 27.0833V35.4166C95.8334 37.7166 93.9667 39.5833 91.6667 39.5833C89.3667 39.5833 87.5 37.7166 87.5 35.4166V31.25C87.5 30.1 86.5667 29.1666 85.4167 29.1666H14.5834C13.4334 29.1666 12.5 30.1 12.5 31.25V47.9166Z" fill="url(#paint0_linear_6_2320)"/>
<defs>
<linearGradient id="paint0_linear_6_2320" x1="0.889121" y1="18.932" x2="57.7865" y2="108.379" gradientUnits="userSpaceOnUse">
<stop offset="0.0364583" stop-color="#FEFDCD"/>
<stop offset="0.354167" stop-color="#FFFA2E"/>
<stop offset="0.682292" stop-color="#D5BE1E"/>
<stop offset="1" stop-color="#B58D34"/>
</linearGradient>
</defs>
</svg>
