<svg width="100" height="100" viewBox="0 0 100 100" fill="none" xmlns="http://www.w3.org/2000/svg">
<path fill-rule="evenodd" clip-rule="evenodd" d="M35.6707 14.1393C35.6707 13.5101 36.1807 13 36.8099 13H62.5062C63.1354 13 63.6454 13.5101 63.6454 14.1393V24.4178C63.6454 25.0469 63.1354 25.557 62.5062 25.557H36.8099C36.1807 25.557 35.6707 25.0469 35.6707 24.4178V14.1393ZM27.741 25.557C27.6946 25.1838 27.6707 24.8036 27.6707 24.4178V14.1393C27.6707 9.09178 31.7624 5 36.8099 5H62.5062C67.5536 5 71.6454 9.09178 71.6454 14.1393V24.4178C71.6454 24.8036 71.6215 25.1838 71.5751 25.557H80.7505C88.6364 25.557 95.0291 31.9497 95.0291 39.8355V80.9495C95.0291 88.8353 88.6364 95.228 80.7505 95.228H19.0795C11.1937 95.228 4.80103 88.8353 4.80103 80.9495V39.8355C4.80103 31.9497 11.1937 25.557 19.0795 25.557H27.741ZM36.8099 33.557H19.0795C15.612 33.557 12.801 36.368 12.801 39.8355V80.9495C12.801 84.417 15.612 87.228 19.0795 87.228H80.7505C84.2181 87.228 87.0291 84.417 87.0291 80.9495V39.8355C87.0291 36.368 84.2181 33.557 80.7505 33.557H62.5062H36.8099Z" fill="url(#paint0_linear_15_476)"/>
<defs>
<linearGradient id="paint0_linear_15_476" x1="7.61548" y1="14.8047" x2="91.2746" y2="92.989" gradientUnits="userSpaceOnUse">
<stop stop-color="#FFA424"/>
<stop offset="0.979167" stop-color="#FF4C2E"/>
</linearGradient>
</defs>
</svg>
