<svg width="100" height="100" viewBox="0 0 100 100" fill="none" xmlns="http://www.w3.org/2000/svg">
<path d="M32.3373 7.43817H9.08642C8.00545 7.43817 7.12915 8.41582 7.12915 9.62181V89.7918C7.12915 90.9978 8.00545 91.9754 9.08642 91.9754H32.3373C33.4183 91.9754 34.2946 90.9978 34.2946 89.7918V9.62181C34.2946 8.41582 33.4183 7.43817 32.3373 7.43817Z" stroke="url(#paint0_linear_6_2147)" stroke-width="8" stroke-linecap="round" stroke-linejoin="round"/>
<path d="M52.3009 20.7427H36.2682C35.1872 20.7427 34.3109 21.7204 34.3109 22.9264V89.7982C34.3109 91.0042 35.1872 91.9818 36.2682 91.9818H52.3009C53.3819 91.9818 54.2582 91.0042 54.2582 89.7982V22.9264C54.2582 21.7204 53.3819 20.7427 52.3009 20.7427Z" stroke="url(#paint1_linear_6_2147)" stroke-width="8" stroke-linecap="round" stroke-linejoin="round"/>
<path d="M70.8154 29.3729L56.5537 34.495C55.5364 34.8604 55.0421 36.0767 55.4498 37.2117L74.791 91.0638C75.1987 92.1988 76.3538 92.8227 77.3712 92.4573L91.6329 87.3352C92.6502 86.9698 93.1445 85.7535 92.7368 84.6185L73.3956 30.7664C72.988 29.6314 71.8328 29.0075 70.8154 29.3729Z" stroke="url(#paint2_linear_6_2147)" stroke-width="8" stroke-linecap="round" stroke-linejoin="round"/>
<defs>
<linearGradient id="paint0_linear_6_2147" x1="7.14776" y1="7.73642" x2="106.145" y2="72.1095" gradientUnits="userSpaceOnUse">
<stop stop-color="white"/>
<stop offset="0.848958" stop-color="#7F787F"/>
<stop offset="0.982609" stop-color="#4B454B"/>
</linearGradient>
<linearGradient id="paint1_linear_6_2147" x1="7.14776" y1="7.73642" x2="106.145" y2="72.1095" gradientUnits="userSpaceOnUse">
<stop stop-color="white"/>
<stop offset="0.848958" stop-color="#7F787F"/>
<stop offset="0.982609" stop-color="#4B454B"/>
</linearGradient>
<linearGradient id="paint2_linear_6_2147" x1="7.14776" y1="7.73642" x2="106.145" y2="72.1095" gradientUnits="userSpaceOnUse">
<stop stop-color="white"/>
<stop offset="0.848958" stop-color="#7F787F"/>
<stop offset="0.982609" stop-color="#4B454B"/>
</linearGradient>
</defs>
</svg>
