<svg width="100" height="100" viewBox="0 0 100 100" fill="none" xmlns="http://www.w3.org/2000/svg">
<path fill-rule="evenodd" clip-rule="evenodd" d="M70.1814 16.4149C61.8568 11.4127 51.9711 9.68042 42.4416 11.554C32.912 13.4277 24.4179 18.7737 18.6067 26.5553L18.6066 26.5554C12.7951 34.3368 10.0806 43.9994 10.9898 53.6689C11.8989 63.3384 16.3669 72.3256 23.5271 78.8874C30.6872 85.4491 40.0292 89.1178 49.741 89.1818C58.1776 89.2374 66.3709 86.5694 73.1272 81.6286L38.0346 40.7413V68.6436C38.0346 70.8528 36.2437 72.6436 34.0346 72.6436C31.8254 72.6436 30.0346 70.8528 30.0346 68.6436V29.9391C30.0346 28.2657 31.0763 26.7691 32.6455 26.188C34.2148 25.6069 35.98 26.0641 37.0699 27.3339L81.7135 79.3494C82.139 79.8451 82.4218 80.4151 82.5658 81.0092C83.0263 82.4649 82.6281 84.1201 81.4152 85.2026C72.6897 92.9897 61.3831 97.2587 49.6883 97.1816C37.9935 97.1045 26.7441 92.6868 18.122 84.7854L20.6128 82.0675L18.122 84.7853C9.49989 76.8837 4.11969 66.0615 3.0249 54.4178C1.93012 42.774 5.1988 31.1386 12.197 21.7683C19.1947 12.3979 29.423 5.9605 40.8982 3.70432C52.3735 1.44814 64.2777 3.53416 74.302 9.55778L74.3022 9.55784C84.3263 15.5817 91.756 25.1138 95.1503 36.3053C98.5445 47.4968 97.6614 59.5501 92.6723 70.1274C91.7298 72.1254 89.3461 72.9811 87.3481 72.0387C85.3501 71.0962 84.4943 68.7125 85.4368 66.7145C89.58 57.9307 90.3134 47.9211 87.4946 38.6272C84.6759 29.3333 78.5059 21.4175 70.1814 16.4149ZM67.9337 29.9391C67.9337 27.73 66.1428 25.9391 63.9337 25.9391C61.7245 25.9391 59.9337 27.73 59.9337 29.9391V47.7555C59.9337 49.9646 61.7245 51.7555 63.9337 51.7555C66.1428 51.7555 67.9337 49.9646 67.9337 47.7555V29.9391Z" fill="url(#paint0_linear_24_204)"/>
<defs>
<linearGradient id="paint0_linear_24_204" x1="2.83811" y1="3.1485" x2="112.254" y2="73.7748" gradientUnits="userSpaceOnUse">
<stop stop-color="white"/>
<stop offset="0.848958" stop-color="#7F787F"/>
<stop offset="0.982609" stop-color="#4B454B"/>
</linearGradient>
</defs>
</svg>
