<svg width="100" height="100" viewBox="0 0 100 100" fill="none" xmlns="http://www.w3.org/2000/svg">
<path d="M12.7746 6.36361C11.9321 6.36157 11.0975 6.526 10.3188 6.84746C9.54009 7.16891 8.83255 7.64106 8.23683 8.23677C7.64112 8.83249 7.16897 9.54003 6.84752 10.3188C6.52606 11.0975 6.36163 11.932 6.36367 12.7745V87.2254C6.36163 88.0679 6.52606 88.9025 6.84752 89.6812C7.16897 90.4599 7.64112 91.1675 8.23683 91.7632C8.83255 92.3589 9.54009 92.831 10.3188 93.1525C11.0975 93.4739 11.9321 93.6384 12.7746 93.6363H87.2255C88.068 93.6384 88.9025 93.4739 89.6813 93.1525C90.46 92.831 91.1675 92.3589 91.7632 91.7632C92.3589 91.1675 92.8311 90.4599 93.1525 89.6812C93.474 88.9025 93.6384 88.0679 93.6364 87.2254V12.7745C93.6384 11.932 93.474 11.0975 93.1525 10.3188C92.8311 9.54003 92.3589 8.83249 91.7632 8.23677C91.1675 7.64106 90.46 7.16891 89.6813 6.84746C88.9025 6.526 88.068 6.36157 87.2255 6.36361H12.7746Z" stroke="url(#paint0_linear_6_2161)" stroke-width="8" stroke-linecap="round" stroke-linejoin="round"/>
<path d="M24.8727 24.8109L75.19 24.88L75.1572 75.1927H62.5609L62.5972 37.44H50.03L50 75.1636H24.8118L24.8727 24.8109Z" stroke="url(#paint1_linear_6_2161)" stroke-width="8" stroke-linecap="round" stroke-linejoin="round"/>
<defs>
<linearGradient id="paint0_linear_6_2161" x1="15.8265" y1="18.5721" x2="94.0674" y2="93.3901" gradientUnits="userSpaceOnUse">
<stop stop-color="#FC4988"/>
<stop offset="0.567175" stop-color="#D20F39"/>
<stop offset="1" stop-color="#FF0000"/>
</linearGradient>
<linearGradient id="paint1_linear_6_2161" x1="24.8227" y1="24.9874" x2="83.2388" y2="62.692" gradientUnits="userSpaceOnUse">
<stop stop-color="white"/>
<stop offset="0.848958" stop-color="#7F787F"/>
<stop offset="0.982609" stop-color="#4B454B"/>
</linearGradient>
</defs>
</svg>
