<svg width="100" height="100" viewBox="0 0 100 100" fill="none" xmlns="http://www.w3.org/2000/svg">
<path d="M60.7282 76.6618H93.1546L67.0937 33.6663C67.0937 33.6663 46.8028 66.0881 46.5873 66.4545C46.3719 66.819 45.9173 67.7481 45.2964 68.6454C44.6746 69.5427 43.6273 70.969 42.8637 71.8281C42.1 72.6872 41.5582 73.2372 40.7319 73.78C39.9064 74.3218 38.941 74.719 37.97 75.0409C36.9982 75.3627 35.951 75.5509 34.9373 75.7018C33.9246 75.8518 32.41 75.9018 31.9055 75.9418C31.6528 75.9618 18.5 75.9563 11.0391 75.9563C5.2755 76.129 6.57277 73.3954 8.49823 70.4018L37.9091 23.3381L55.0828 49.52" stroke="url(#paint0_linear_24_220)" stroke-width="8" stroke-linecap="round" stroke-linejoin="round"/>
<defs>
<linearGradient id="paint0_linear_24_220" x1="6.86597" y1="23.3381" x2="37.1034" y2="99.0479" gradientUnits="userSpaceOnUse">
<stop stop-color="#A6F58E"/>
<stop offset="0.479167" stop-color="#4FB830"/>
<stop offset="1" stop-color="#1D6F01"/>
</linearGradient>
</defs>
</svg>
