<svg width="100" height="100" viewBox="0 0 100 100" fill="none" xmlns="http://www.w3.org/2000/svg">
<path d="M15.7845 91.0618C27.6927 82.95 35.6173 70.6 41.5473 55.4845C47.4764 40.3691 53.8027 27.4136 51.0291 12.4918C50.5945 10.1518 47.2609 7.78451 45.56 7.90361C38.7927 8.37906 39.2655 15.8245 39.9127 20.3272C41.4982 31.3545 50.2455 44.1927 58.6273 56.2927C67.0091 68.3918 73.9691 70.2927 83.5964 70.9291C86.8409 71.1436 91.7864 70.0163 92.5873 67.1454C97.66 48.9709 33.1145 63.6809 11.6555 80.6372C8.97182 82.7582 5.95273 87.1391 7.67363 90.0963C9.04182 92.4509 13.4173 92.6754 15.7845 91.0618Z" stroke="url(#paint0_linear_24_222)" stroke-width="8" stroke-linecap="round" stroke-linejoin="round"/>
<defs>
<linearGradient id="paint0_linear_24_222" x1="16.4615" y1="19.6782" x2="91.9969" y2="93.1954" gradientUnits="userSpaceOnUse">
<stop stop-color="#FC4988"/>
<stop offset="0.567175" stop-color="#D20F39"/>
<stop offset="1" stop-color="#FF0000"/>
</linearGradient>
</defs>
</svg>
