<svg width="100" height="100" viewBox="0 0 100 100" fill="none" xmlns="http://www.w3.org/2000/svg">
<path fill-rule="evenodd" clip-rule="evenodd" d="M40.8563 3.56909C33.6847 3.56909 27.68 9.23092 27.68 16.4445V26.4191H17.2691C10.0976 26.4191 4.0918 32.078 4.0918 39.2927V60.3855C4.0918 67.5995 10.0961 73.26 17.2691 73.26H24.1946V83.4954C24.1946 90.7221 30.1781 96.4318 37.3728 96.4318H59.1437C66.3388 96.4318 72.321 90.7216 72.321 83.4954V73.4318H82.7319C89.9249 73.4318 95.9082 67.7228 95.9082 60.4954V39.2663C95.9082 32.039 89.9249 26.33 82.7319 26.33H75.8064V16.4445C75.8064 9.23071 69.8014 3.56909 62.6291 3.56909H40.8563ZM68.8064 29.6034V16.4445C68.8064 13.3038 66.1458 10.5691 62.6291 10.5691H40.8563C37.3407 10.5691 34.68 13.3036 34.68 16.4445V26.4182H51.7427C53.6757 26.4182 55.2427 27.9852 55.2427 29.9182C55.2427 31.8512 53.6757 33.4182 51.7427 33.4182H31.294C31.2561 33.4194 31.2181 33.42 31.18 33.42C31.1658 33.42 31.1517 33.4199 31.1376 33.4198C31.1248 33.4196 31.112 33.4194 31.0992 33.4191H17.2691C13.7514 33.4191 11.0918 36.1529 11.0918 39.2927V60.3855C11.0918 63.5259 13.7512 66.26 17.2691 66.26H24.2068C24.2224 63.0515 24.2862 60.3172 24.5461 58.0708C24.8953 55.0537 25.6625 52.1853 27.8022 50.0563C29.1724 48.6928 31.3885 48.6983 32.7519 50.0686C34.1153 51.4388 34.1098 53.6549 32.7396 55.0183C32.3101 55.4456 31.7928 56.3431 31.4997 58.8756C31.2074 61.4016 31.2018 64.8272 31.2018 69.76C31.2018 69.8361 31.1994 69.9117 31.1946 69.9866V83.4954C31.1946 86.6906 33.8765 89.4318 37.3728 89.4318H59.1437C62.6395 89.4318 65.3209 86.6911 65.3209 83.4954V73.4318H48.2582C46.3252 73.4318 44.7582 71.8648 44.7582 69.9318C44.7582 67.9988 46.3252 66.4318 48.2582 66.4318H68.7069C68.7448 66.4306 68.7828 66.43 68.821 66.43C68.8442 66.43 68.8673 66.4302 68.8904 66.4307C68.9053 66.431 68.9202 66.4313 68.935 66.4318H82.7319C86.2261 66.4318 88.9082 63.6917 88.9082 60.4954V39.2663C88.9082 36.07 86.2261 33.33 82.7319 33.33H75.7942C75.7788 36.5687 75.7154 39.3263 75.4551 41.5903C75.1065 44.6218 74.3416 47.5006 72.2067 49.6386C70.8408 51.0064 68.6247 51.0079 67.2569 49.6421C65.8891 48.2762 65.8876 46.0601 67.2534 44.6923C67.6876 44.2575 68.2072 43.3454 68.5009 40.7908C68.7936 38.2449 68.7991 34.7936 68.7991 29.83C68.7991 29.7539 68.8016 29.6783 68.8064 29.6034ZM50.2164 23.2282C52.7267 23.2282 54.7618 21.1931 54.7618 18.6827C54.7618 16.1723 52.7267 14.1373 50.2164 14.1373C47.706 14.1373 45.6709 16.1723 45.6709 18.6827C45.6709 21.1931 47.706 23.2282 50.2164 23.2282ZM50.2164 85.8109C52.7267 85.8109 54.7618 83.7758 54.7618 81.2654C54.7618 78.755 52.7267 76.72 50.2164 76.72C47.706 76.72 45.6709 78.755 45.6709 81.2654C45.6709 83.7758 47.706 85.8109 50.2164 85.8109Z" fill="url(#paint0_linear_6_2175)"/>
<defs>
<linearGradient id="paint0_linear_6_2175" x1="4" y1="4" x2="96" y2="96" gradientUnits="userSpaceOnUse">
<stop offset="0.244792" stop-color="#0072FF"/>
<stop offset="0.71875" stop-color="#FFC000"/>
</linearGradient>
</defs>
</svg>
