<svg width="100" height="100" viewBox="0 0 100 100" fill="none" xmlns="http://www.w3.org/2000/svg">
<path d="M47.4239 78.0684L49.1818 76.41L47.5838 74.5969C45.4731 72.2021 43.4004 69.6012 41.4489 66.8773L40.7867 65.953L39.6548 65.8446C36.3859 65.5318 33.136 65.0443 29.9191 64.3843L27.5463 63.8974L26.9848 66.2537C25.8828 70.8776 25.4985 74.9247 25.7918 78.1094C26.064 81.0662 27.009 84.1113 29.4551 85.4967C31.8989 86.944 35.0326 86.2458 37.749 85.0022C40.6693 83.6652 43.9869 81.3108 47.4239 78.0684ZM37.0715 60.2741L35.8308 58.1649L34.6315 56.0558L32.0052 51.4371L30.1208 56.405L30.0955 56.4718C29.6547 57.6337 29.1522 58.9581 28.8246 60.2686L28.2021 62.7586L30.7077 63.3154C31.9137 63.5834 33.2316 63.8021 34.5186 64.0097L39.7669 64.8562L37.0715 60.2741ZM63.0923 57.4814L63.1046 57.4597L63.1164 57.4378L66.4914 51.1878L67.1329 49.9999L66.4914 48.8121L63.1164 42.5621L63.1046 42.5401L63.0923 42.5184C62.2363 41.0062 61.3059 39.5487 60.4461 38.2019C60.0257 37.5433 59.6222 36.9112 59.2526 36.3122L58.5671 35.2012L57.2637 35.1288C54.9442 34.9999 52.5112 34.9999 50.0401 34.9999H50H49.9598C47.4888 34.9999 45.0557 34.9999 42.7363 35.1288L41.4329 35.2012L40.7474 36.3122C40.3777 36.9112 39.9742 37.5433 39.5538 38.2019C38.6941 39.5487 37.7636 41.0062 36.9077 42.5184L36.8954 42.5401L36.8836 42.5621L33.5086 48.8121L32.8671 49.9999L33.5085 51.1878L36.8836 57.4378L36.8954 57.4597L36.9077 57.4814C37.7636 58.9936 38.6941 60.4511 39.5538 61.798C39.9742 62.4565 40.3777 63.0886 40.7474 63.6877L41.4329 64.7987L42.7363 64.8711C45.0557 64.9999 47.4888 64.9999 49.9598 64.9999H50H50.0401C52.5112 64.9999 54.9442 64.9999 57.2637 64.8711L58.5671 64.7987L59.2526 63.6877C59.6222 63.0886 60.0257 62.4566 60.4461 61.798C61.3059 60.4512 62.2363 58.9936 63.0923 57.4814ZM51.892 26.6159L50 24.4251L48.1079 26.6159C48.0736 26.6556 48.039 26.6956 48.0043 26.7359C47.2479 27.6113 46.3916 28.6024 45.5328 29.7619L42.5786 33.7499H47.5416H52.4583H57.4213L54.4672 29.7619C53.6083 28.6024 52.7521 27.6113 51.9957 26.7359C51.9609 26.6956 51.9264 26.6556 51.892 26.6159ZM48.1079 73.384L50 75.5748L51.892 73.384L51.9956 73.2641C52.752 72.3886 53.6083 71.3975 54.4672 70.238L57.4213 66.2499H52.4583H47.5416H42.5786L45.5328 70.238C46.3916 71.3975 47.2479 72.3886 48.0043 73.264L48.1079 73.384ZM52.5761 21.9314L50.8182 23.5899L52.4161 25.4029C54.5269 27.7978 56.5996 30.3987 58.551 33.1226L59.2116 34.0446L60.3406 34.1548C63.6769 34.4803 66.9626 34.9676 70.0747 35.6143L72.4523 36.1083L73.0152 33.7462C74.117 29.1229 74.502 25.0737 74.2026 21.8859C73.9246 18.9258 72.966 15.8858 70.5032 14.5029C69.2625 13.7624 67.8427 13.6039 66.5034 13.7391C65.1416 13.8766 63.7003 14.3304 62.244 14.9985C59.3301 16.3352 56.0131 18.689 52.5761 21.9314ZM62.9285 39.7258L64.1692 41.835L65.3684 43.944L67.9948 48.5628L69.8791 43.5949L69.9046 43.5279C70.3453 42.366 70.8477 41.0417 71.1753 39.7313L71.7978 37.2412L69.2923 36.6845C68.0862 36.4164 66.7683 36.1977 65.4814 35.9902L60.2331 35.1437L62.9285 39.7258ZM71.1282 13.3752L71.1346 13.3789C73.3114 14.6227 74.7321 16.9688 75.2721 20.5877C75.816 24.2321 75.4045 28.8725 74.1525 34.0824L73.5976 36.3917L75.8753 37.0643C81.0038 38.5786 85.2201 40.5357 88.1022 42.8228C90.9643 45.094 92.2916 47.4945 92.2916 49.9999C92.2916 52.5054 90.9643 54.9058 88.1022 57.177C85.2201 59.4641 81.0038 61.4213 75.8753 62.9356L73.5976 63.6082L74.1525 65.9174C75.4045 71.1274 75.816 75.7677 75.2721 79.4122C74.7321 83.0311 73.3114 85.3771 71.1346 86.621L71.1282 86.6246C68.9655 87.869 66.224 87.9198 62.8254 86.5761C59.4043 85.2235 55.6 82.5504 51.7248 78.8569L50 77.2129L48.2751 78.8569C44.4 82.5504 40.5961 85.2231 37.1704 86.5757C33.7707 87.918 31.0148 87.8715 28.827 86.6229C26.672 85.3816 25.2589 83.0371 24.7231 79.4153C24.1835 75.7689 24.5955 71.127 25.8474 65.9174L26.4024 63.6082L24.1246 62.9356C18.9961 61.4213 14.7799 59.4641 11.8978 57.177C9.03566 54.9058 7.70831 52.5054 7.70831 49.9999C7.70831 47.4945 9.03566 45.094 11.8978 42.8228C14.7799 40.5357 18.9961 38.5786 24.1246 37.0643L26.4024 36.3917L25.8474 34.0824C24.5955 28.8729 24.1835 24.231 24.7231 20.5846C25.2589 16.9629 26.672 14.6184 28.8268 13.3771C31.0147 12.1283 33.7706 12.0818 37.1704 13.4242C40.5961 14.7768 44.4 17.4495 48.2751 21.1429L50 22.7869L51.7248 21.1429C55.6 17.4494 59.4043 14.7764 62.8254 13.4238C66.224 12.08 68.9655 12.1309 71.1282 13.3752ZM68.8897 48.9677L68.4217 49.9999L68.8897 51.0321C70.2761 54.0905 71.4913 57.131 72.5002 60.1978L73.261 62.5109L75.5934 61.8112C80.1315 60.4497 83.8208 58.7565 86.4349 56.9044C88.8856 55.168 91.0416 52.8172 91.0416 49.9999C91.0416 47.1826 88.8856 44.8319 86.4349 43.0955C83.8208 41.2434 80.1315 39.5501 75.5934 38.1887L73.261 37.489L72.5002 39.8021C71.4913 42.8689 70.2761 45.9094 68.8897 48.9677ZM31.1103 51.0321L31.5782 49.9999L31.1103 48.9677C29.7238 45.9094 28.5086 42.8689 27.4998 39.8021L26.7389 37.489L24.4066 38.1887C19.8685 39.5501 16.1791 41.2434 13.5651 43.0955C11.1143 44.8319 8.95831 47.1826 8.95831 49.9999C8.95831 52.8172 11.1143 55.168 13.5651 56.9044C16.1791 58.7565 19.8685 60.4497 24.4066 61.8112L26.7389 62.5109L27.4998 60.1978C28.5086 57.131 29.7238 54.0905 31.1103 51.0321ZM65.3684 56.0558L64.1691 58.165L62.9285 60.2741L60.2331 64.8562L65.4814 64.0097C66.7683 63.8021 68.0862 63.5834 69.2923 63.3154L71.7978 62.7586L71.1753 60.2686C70.8477 58.9582 70.3453 57.6339 69.9046 56.472L69.8791 56.405L67.9948 51.4371L65.3684 56.0558ZM52.4161 74.5969L50.8182 76.41L52.5761 78.0684C56.0131 81.3108 59.3301 83.6646 62.244 85.0014C63.7003 85.6695 65.1416 86.1232 66.5034 86.2607C67.8426 86.396 69.2624 86.2375 70.5031 85.497C72.966 84.1142 73.9245 81.0741 74.2026 78.1139C74.502 74.9262 74.117 70.877 73.0152 66.2537L72.4523 63.8915L70.0747 64.3856C66.9626 65.0322 63.6769 65.5196 60.3406 65.8451L59.2116 65.9552L58.551 66.8773C56.5996 69.6012 54.5269 72.2021 52.4161 74.5969ZM34.6315 43.944L35.8308 41.835L37.0715 39.7258L39.7669 35.1437L34.5186 35.9902C33.2316 36.1977 31.9137 36.4164 30.7077 36.6845L28.2021 37.2412L28.8246 39.7313C29.1522 41.0417 29.6547 42.3661 30.0955 43.5281L30.1208 43.5949L32.0052 48.5628L34.6315 43.944ZM47.5838 25.4029L49.1818 23.5899L47.4239 21.9314C43.9869 18.6891 40.6693 16.3347 37.749 14.9977C35.0327 13.754 31.899 13.0558 29.4552 14.5031C27.009 15.8885 26.064 18.9336 25.7918 21.8905C25.4985 25.0751 25.8828 29.1222 26.9848 33.7462L27.5463 36.1024L29.9191 35.6156C33.136 34.9555 36.3859 34.4681 39.6548 34.1552L40.7867 34.0469L41.4489 33.1226C43.4004 30.3987 45.4731 27.7978 47.5838 25.4029ZM50 44.6249C52.8936 44.6249 55.2916 46.9883 55.2916 49.9999C55.2916 52.7772 52.9197 55.2083 50 55.2083C47.0803 55.2083 44.7083 52.7772 44.7083 49.9999C44.7083 46.9883 47.1063 44.6249 50 44.6249Z" stroke="url(#paint0_linear_21_31)" stroke-width="5"/>
<defs>
<linearGradient id="paint0_linear_21_31" x1="5.20831" y1="9.92896" x2="90.6224" y2="94.2921" gradientUnits="userSpaceOnUse">
<stop stop-color="#5FC7FF"/>
<stop offset="1" stop-color="#2731F7"/>
</linearGradient>
</defs>
</svg>
