<svg width="100" height="100" viewBox="0 0 100 100" fill="none" xmlns="http://www.w3.org/2000/svg">
<path fill-rule="evenodd" clip-rule="evenodd" d="M20.8509 19.5273C20.8509 18.0655 21.8266 15.9281 23.897 13.9783C25.9534 12.0417 28.2859 11.0564 29.91 11.0564H46V31.8182C46 35.4573 46.8674 38.9156 49.589 41.3191C52.1938 43.6195 55.683 44.2064 59.0909 44.2064H79.1491V79.8846C79.1491 81.5607 78.1261 83.8675 76.0997 85.8941C74.0733 87.9205 71.7665 88.9437 70.09 88.9437H29.91C28.2335 88.9437 25.9267 87.9205 23.9003 85.8941C21.8739 83.8675 20.8509 81.5607 20.8509 79.8846V19.5273ZM87.1491 40.2064C87.1491 39.0981 86.6983 38.0951 85.9702 37.3707L52.8356 4.23512C52.1111 3.50706 51.1082 3.0564 50 3.0564H29.91C25.5986 3.0564 21.4016 5.33923 18.4123 8.15444C15.437 10.9565 12.8509 15.0545 12.8509 19.5273V79.8846C12.8509 84.3639 15.2793 88.5866 18.2433 91.5508C21.2074 94.515 25.4301 96.9437 29.91 96.9437H70.09C74.5698 96.9437 78.7926 94.515 81.7567 91.5508C84.7207 88.5866 87.1491 84.3639 87.1491 79.8846V40.2201M54 16.7135L73.4924 36.2064H59.0909C56.3425 36.2064 55.2862 35.6774 54.8846 35.3227C54.5999 35.0713 54 34.3355 54 31.8182V16.7135Z" fill="url(#paint0_linear_30_418)"/>
<path fill-rule="evenodd" clip-rule="evenodd" d="M37.6149 50.7421C37.2221 50.7415 36.8453 50.8977 36.5682 51.1761L28.0592 59.7243C27.4857 60.3005 27.4872 61.2324 28.0626 61.8068L48.7227 82.4285C49.298 83.0026 50.2294 83.0026 50.8047 82.4285L71.4648 61.8068C71.7416 61.5305 71.8972 61.1556 71.8973 60.7646C71.8975 60.3735 71.7423 59.9985 71.4658 59.722L62.9568 51.2126C62.6811 50.9368 62.3072 50.7816 61.9172 50.781L37.6149 50.7421Z" fill="url(#paint1_linear_30_418)"/>
<defs>
<linearGradient id="paint0_linear_30_418" x1="20.9069" y1="16.1902" x2="101.992" y2="77.5498" gradientUnits="userSpaceOnUse">
<stop stop-color="#FC4988"/>
<stop offset="0.567175" stop-color="#D20F39"/>
<stop offset="1" stop-color="#FF0000"/>
</linearGradient>
<linearGradient id="paint1_linear_30_418" x1="49.0308" y1="43.6499" x2="49.9062" y2="83.5569" gradientUnits="userSpaceOnUse">
<stop stop-color="#FC4988"/>
<stop offset="0.567175" stop-color="#D20F39"/>
<stop offset="1" stop-color="#FF0000"/>
</linearGradient>
</defs>
</svg>
