<svg width="100" height="100" viewBox="0 0 100 100" fill="none" xmlns="http://www.w3.org/2000/svg">
<path d="M34.3846 43.5782C35.4522 43.0867 36.6159 43.0384 37.7066 43.4404C38.7974 43.8424 39.7584 44.6737 40.45 45.8136C41.1415 46.9535 41.5277 48.3425 41.5524 49.7789C41.5771 51.2152 41.239 52.6241 40.5873 53.8009C39.9357 54.9777 39.0045 55.8612 37.9288 56.3231C36.853 56.7849 35.6889 56.801 34.6055 56.3691C33.522 55.9371 32.5757 55.0795 31.904 53.9209C31.2322 52.7623 30.87 51.363 30.87 49.9264M63.18 43.5227C64.2475 43.0315 65.411 42.9833 66.5016 43.3853C67.5922 43.7873 68.553 44.6185 69.2446 45.7582C69.9362 46.8979 70.3225 48.2869 70.3474 49.7232C70.3722 51.1596 70.0343 52.5685 69.3828 53.7455C68.7312 54.9223 67.7999 55.8058 66.7242 56.2676C65.6485 56.7294 64.4844 56.7456 63.4009 56.3136C62.3173 55.8818 61.3708 55.0243 60.6989 53.8657C60.027 52.7071 59.6646 51.3077 59.6646 49.8709M75.6909 67.0536C77.5639 68.0958 79.0314 69.6907 79.8722 71.5982C80.713 73.5056 80.8817 75.6222 80.3528 77.6291C79.8239 79.6359 78.6261 81.4244 76.9398 82.725C75.2536 84.0255 73.1703 84.7678 71.0037 84.84M70.5337 84.8118V75.6673M24.2273 67.0936C22.3543 68.1358 20.8869 69.7308 20.0461 71.6382C19.2052 73.5456 19.0366 75.6622 19.5655 77.6691C20.0944 79.6759 21.2922 81.4644 22.9784 82.765C24.6646 84.0655 26.748 84.8078 28.9146 84.88M29.3846 84.8518V75.7073M92.9355 58.75C51.7264 85.0227 7.06458 58.75 7.06458 58.75L12.6955 51.9773L8.51548 42.6864L18.5782 38.1182V28.2182L28.6409 27.9136L33.13 18.6227L42.4182 22.1273L50.3137 15.1218L58.3637 22.4318L66.9946 18.2818L72.0255 27.9909L82.2046 27.9527L82.2428 38.2327L91.9573 42.3836L87.7773 51.5218L92.9355 58.75Z" stroke="url(#paint0_linear_6_2279)" stroke-width="7" stroke-linecap="round" stroke-linejoin="round"/>
<defs>
<linearGradient id="paint0_linear_6_2279" x1="9.74312" y1="22.7022" x2="73.9395" y2="96.5552" gradientUnits="userSpaceOnUse">
<stop stop-color="#FFA424"/>
<stop offset="0.979167" stop-color="#FF4C2E"/>
</linearGradient>
</defs>
</svg>
