<svg width="100" height="100" viewBox="0 0 100 100" fill="none" xmlns="http://www.w3.org/2000/svg">
<path d="M19.4127 12.4591L80.8427 6.81454C80.9363 6.80545 80.9818 6.83545 81.0018 6.85454C81.0227 6.87272 81.0563 6.91454 81.0563 7.00909V26.9482C81.0563 27.19 80.8282 27.4391 80.5872 27.4618L19.1581 33.1064C19.0636 33.1155 19.0181 33.0855 18.9981 33.0673C18.9772 33.0482 18.9436 33.0064 18.9436 32.9118V12.9727C18.9436 12.7309 19.1718 12.4818 19.4127 12.4591ZM19.4127 42.4991L80.8427 36.8536C80.9363 36.8455 80.9818 36.8745 81.0018 36.8936C81.0227 36.9118 81.0563 36.9545 81.0563 37.0491V56.9882C81.0563 57.2291 80.8282 57.4791 80.5872 57.5009L19.1581 63.1464C19.0636 63.1545 19.0181 63.1254 18.9981 63.1064C18.9772 63.0882 18.9436 63.0455 18.9436 62.9518V43.0118C18.9436 42.77 19.1718 42.5218 19.4127 42.4991ZM19.4127 72.5382L80.8427 66.8936C80.9363 66.8845 80.9818 66.9145 81.0018 66.9327C81.0227 66.9518 81.0563 66.9936 81.0563 67.0891V87.0273C81.0563 87.2691 80.8282 87.5182 80.5872 87.5409L19.1581 93.1855C19.0636 93.1945 19.0181 93.1645 18.9981 93.1455C18.9772 93.1273 18.9436 93.0855 18.9436 92.9909V73.0518C18.9436 72.81 19.1718 72.5609 19.4127 72.5382Z" stroke="url(#paint0_linear_24_185)" stroke-width="7" stroke-linecap="round" stroke-linejoin="round"/>
<defs>
<linearGradient id="paint0_linear_24_185" x1="25.6784" y1="18.8957" x2="98.0569" y2="68.6669" gradientUnits="userSpaceOnUse">
<stop stop-color="#FC4988"/>
<stop offset="0.567175" stop-color="#D20F39"/>
<stop offset="1" stop-color="#FF0000"/>
</linearGradient>
</defs>
</svg>
