<svg width="100" height="100" viewBox="0 0 100 100" fill="none" xmlns="http://www.w3.org/2000/svg">
<path d="M56.278 61.2523L59.0812 58.3988C57.6665 57.0091 55.4472 56.8656 53.8655 58.0617L56.278 61.2523ZM90.1427 94.5204L87.3396 97.3738L87.3396 97.3738L90.1427 94.5204ZM93.3567 94.4918L96.2102 97.295L96.2102 97.295L93.3567 94.4918ZM93.3282 91.2778L96.1314 88.4244L96.1314 88.4244L93.3282 91.2778ZM59.7056 58.2476L56.8585 55.4379C56.1122 56.1941 55.6975 57.2162 55.7057 58.2786C55.7139 59.341 56.1445 60.3565 56.9024 61.101L59.7056 58.2476ZM37.3701 5.3737C20.3411 5.3737 6.53642 19.1784 6.53642 36.2073H14.5364C14.5364 23.5967 24.7594 13.3737 37.3701 13.3737V5.3737ZM68.2037 36.2073C68.2037 19.1784 54.399 5.3737 37.3701 5.3737V13.3737C49.9807 13.3737 60.2037 23.5967 60.2037 36.2073H68.2037ZM37.3701 67.041C54.399 67.041 68.2037 53.2363 68.2037 36.2073H60.2037C60.2037 48.818 49.9807 59.041 37.3701 59.041V67.041ZM6.53642 36.2073C6.53642 53.2363 20.3411 67.041 37.3701 67.041V59.041C24.7594 59.041 14.5364 48.818 14.5364 36.2073H6.53642ZM9.99097 36.2073C9.99097 21.0863 22.249 8.82825 37.3701 8.82825V0.828247C17.8307 0.828247 1.99097 16.668 1.99097 36.2073H9.99097ZM37.3701 63.5864C22.249 63.5864 9.99097 51.3284 9.99097 36.2073H1.99097C1.99097 55.7467 17.8307 71.5864 37.3701 71.5864V63.5864ZM53.8655 58.0617C49.2778 61.5306 43.5698 63.5864 37.3701 63.5864V71.5864C45.3709 71.5864 52.7618 68.9258 58.6905 64.4428L53.8655 58.0617ZM92.9459 91.6669L59.0812 58.3988L53.4748 64.1057L87.3396 97.3738L92.9459 91.6669ZM90.5033 91.6886C91.1718 91.0081 92.2654 90.9984 92.9459 91.6669L87.3396 97.3738C89.8109 99.8016 93.7824 99.7663 96.2102 97.295L90.5033 91.6886ZM90.525 94.1313C89.8445 93.4627 89.8348 92.3691 90.5033 91.6887L96.2102 97.295C98.638 94.8237 98.6027 90.8522 96.1314 88.4244L90.525 94.1313ZM56.9024 61.101L90.525 94.1313L96.1314 88.4244L62.5088 55.3941L56.9024 61.101ZM64.7491 36.2073C64.7491 43.7036 61.7418 50.4896 56.8585 55.4379L62.5527 61.0572C68.8533 54.6727 72.7491 45.891 72.7491 36.2073H64.7491ZM37.3701 8.82825C52.4911 8.82825 64.7491 21.0863 64.7491 36.2073H72.7491C72.7491 16.668 56.9094 0.828247 37.3701 0.828247V8.82825Z" fill="url(#paint0_linear_24_187)"/>
<defs>
<linearGradient id="paint0_linear_24_187" x1="6.01007" y1="5.14479" x2="109.615" y2="70.2994" gradientUnits="userSpaceOnUse">
<stop stop-color="white"/>
<stop offset="0.848958" stop-color="#7F787F"/>
<stop offset="0.982609" stop-color="#4B454B"/>
</linearGradient>
</defs>
</svg>
