<svg width="100" height="100" viewBox="0 0 100 100" fill="none" xmlns="http://www.w3.org/2000/svg">
<path d="M50 7.0564V31.8182C50 37.9746 52.9346 40.2064 59.091 40.2064H83.1491M50 7.0564H29.91C23.9746 7.0564 16.851 13.5928 16.851 19.5273V79.8846C16.851 86.04 23.7537 92.9437 29.91 92.9437H70.09C76.2464 92.9437 83.1491 86.04 83.1491 79.8846V40.2064M50 7.0564L83.1491 40.2064" stroke="url(#paint0_linear_24_193)" stroke-width="8" stroke-linecap="round" stroke-linejoin="round"/>
<path d="M56.8181 54.8228V77.55M43.1818 54.8228V77.55M70.389 54.8228V77.55M70.4545 77.55H29.5454V54.8228H70.4545M29.5454 66.1864H70.4545" stroke="url(#paint1_linear_24_193)" stroke-width="8" stroke-linecap="round" stroke-linejoin="round"/>
<defs>
<linearGradient id="paint0_linear_24_193" x1="16.851" y1="7.0564" x2="86.4477" y2="90.1819" gradientUnits="userSpaceOnUse">
<stop stop-color="#A6F58E"/>
<stop offset="0.479167" stop-color="#4FB830"/>
<stop offset="1" stop-color="#1D6F01"/>
</linearGradient>
<linearGradient id="paint1_linear_24_193" x1="29.5454" y1="54.8228" x2="41.4454" y2="87.9657" gradientUnits="userSpaceOnUse">
<stop stop-color="#A6F58E"/>
<stop offset="0.479167" stop-color="#4FB830"/>
<stop offset="1" stop-color="#1D6F01"/>
</linearGradient>
</defs>
</svg>
