<svg width="100" height="100" viewBox="0 0 100 100" fill="none" xmlns="http://www.w3.org/2000/svg">
<path d="M35.6964 64.3037C38.5573 71.4555 43.511 73.84 51.3491 73.84H50C58.5819 73.84 64.3037 69.1946 64.3037 62.2291C64.3037 56.5364 60.3419 53.6518 54.0673 51.1064L44.651 47.2818C39.1673 45.0546 35.6964 40.5018 35.6964 35.5191C35.6964 30.8946 40.6646 26.9191 46.3291 26.4082L48.57 26.2318C55.8546 25.5737 62.8682 29.8646 64.3037 35.6955" stroke="url(#paint0_linear_24_182)" stroke-width="8" stroke-linecap="round" stroke-linejoin="round"/>
<path d="M69.2046 9.5482V18.1818M16.6255 11.8573L19.0091 90.5273L83.3746 92.9119V7.08911L16.6255 11.8573Z" stroke="url(#paint1_linear_24_182)" stroke-width="8" stroke-linecap="round" stroke-linejoin="round"/>
<defs>
<linearGradient id="paint0_linear_24_182" x1="35.7026" y1="26.3322" x2="76.5635" y2="42.1588" gradientUnits="userSpaceOnUse">
<stop stop-color="white"/>
<stop offset="0.848958" stop-color="#7F787F"/>
<stop offset="0.982609" stop-color="#4B454B"/>
</linearGradient>
<linearGradient id="paint1_linear_24_182" x1="23.863" y1="19.0948" x2="97.6243" y2="73.9532" gradientUnits="userSpaceOnUse">
<stop stop-color="#FC4988"/>
<stop offset="0.567175" stop-color="#D20F39"/>
<stop offset="1" stop-color="#FF0000"/>
</linearGradient>
</defs>
</svg>
