<svg width="100" height="100" viewBox="0 0 100 100" fill="none" xmlns="http://www.w3.org/2000/svg">
<path d="M69.8509 21.6182C71.6645 15.2755 73.0809 10.37 73.5 8.90186H80.8945L93.1818 20.28L85.1118 27.2546L91.2154 33.8546L50 91.1M50 91.1C59.4454 57.3273 59.7591 57.1737 66.5864 33.0937M50 91.1L8.78272 33.8564L14.8864 27.2546L6.81726 20.28L19.1091 8.90186H26.5C26.92 10.37 28.3364 15.2773 30.1482 21.6191M50 91.1C40.5564 57.3264 40.2409 57.1728 33.4136 33.0928M57.4173 28.8546L68.4573 34.1091C69.2082 34.5455 69.8254 34.19 69.8254 33.3219V14.8719C69.8254 14.0019 69.3282 14.0809 68.4591 14.0809L57.53 19.2064M42.4573 19.1673L31.5273 14.0382C30.7764 13.6064 30.1582 13.9609 30.1582 14.8291V33.2782C30.1582 34.1464 30.7764 34.5028 31.53 34.0664L42.5664 28.8119M56.9236 18.9982C57.2909 18.9982 57.5845 19.1991 57.5845 19.4519V28.4846C57.5845 28.7309 57.2891 28.9319 56.9236 28.9319H42.9818C42.6145 28.9319 42.3182 28.7309 42.3182 28.4828V19.4464C42.3182 19.1991 42.6145 18.9937 42.9791 18.9937H56.9227L56.9236 18.9982Z" stroke="url(#paint0_linear_15_266)" stroke-width="8" stroke-linecap="round" stroke-linejoin="round"/>
<path d="M50 55.9837C51.2552 55.9837 52.2727 54.9662 52.2727 53.711C52.2727 52.4558 51.2552 51.4382 50 51.4382C48.7448 51.4382 47.7273 52.4558 47.7273 53.711C47.7273 54.9662 48.7448 55.9837 50 55.9837Z" stroke="url(#paint1_linear_15_266)" stroke-width="4.54545" stroke-linecap="round" stroke-linejoin="round"/>
<path d="M50 41.2372C51.2552 41.2372 52.2727 40.2197 52.2727 38.9645C52.2727 37.7093 51.2552 36.6918 50 36.6918C48.7448 36.6918 47.7273 37.7093 47.7273 38.9645C47.7273 40.2197 48.7448 41.2372 50 41.2372Z" stroke="url(#paint2_linear_15_266)" stroke-width="4.54545" stroke-linecap="round" stroke-linejoin="round"/>
<defs>
<linearGradient id="paint0_linear_15_266" x1="6.836" y1="9.18986" x2="104.005" y2="75.0913" gradientUnits="userSpaceOnUse">
<stop stop-color="white"/>
<stop offset="0.848958" stop-color="#7F787F"/>
<stop offset="0.982609" stop-color="#4B454B"/>
</linearGradient>
<linearGradient id="paint1_linear_15_266" x1="47.7283" y1="51.4542" x2="52.9987" y2="54.8562" gradientUnits="userSpaceOnUse">
<stop stop-color="white"/>
<stop offset="0.848958" stop-color="#7F787F"/>
<stop offset="0.982609" stop-color="#4B454B"/>
</linearGradient>
<linearGradient id="paint2_linear_15_266" x1="47.7283" y1="36.7077" x2="52.9987" y2="40.1098" gradientUnits="userSpaceOnUse">
<stop stop-color="white"/>
<stop offset="0.848958" stop-color="#7F787F"/>
<stop offset="0.982609" stop-color="#4B454B"/>
</linearGradient>
</defs>
</svg>
