<svg width="100" height="100" viewBox="0 0 100 100" fill="none" xmlns="http://www.w3.org/2000/svg">
<path fill-rule="evenodd" clip-rule="evenodd" d="M45.4246 14.6464C45.4246 12.1194 47.4731 10.0709 50 10.0709C52.527 10.0709 54.5755 12.1194 54.5755 14.6464C54.5755 17.1733 52.527 19.2218 50 19.2218C47.4731 19.2218 45.4246 17.1733 45.4246 14.6464ZM50 4.07092C44.1594 4.07092 39.4246 8.80572 39.4246 14.6464C39.4246 19.445 42.6205 23.4971 47 24.7903V42.7574L34.0409 29.7982C34.8583 28.2974 35.3227 26.5766 35.3227 24.7473C35.3227 18.9067 30.5879 14.1719 24.7473 14.1719C18.9066 14.1719 14.1718 18.9067 14.1718 24.7473C14.1718 30.588 18.9066 35.3228 24.7473 35.3228C26.5766 35.3228 28.2974 34.8583 29.7983 34.0409L42.7574 47H24.7903C23.4971 42.6205 19.445 39.4246 14.6464 39.4246C8.80572 39.4246 4.07092 44.1594 4.07092 50C4.07092 55.8407 8.80572 60.5755 14.6464 60.5755C19.445 60.5755 23.4971 57.3795 24.7903 53H42.7573L29.7982 65.9591C28.2974 65.1417 26.5766 64.6772 24.7473 64.6772C18.9066 64.6772 14.1718 69.412 14.1718 75.2527C14.1718 81.0934 18.9066 85.8282 24.7473 85.8282C30.5879 85.8282 35.3227 81.0934 35.3227 75.2527C35.3227 73.4234 34.8583 71.7026 34.0408 70.2018L47 57.2426V75.2098C42.6205 76.5029 39.4246 80.5551 39.4246 85.3537C39.4246 91.1943 44.1594 95.9291 50 95.9291C55.8407 95.9291 60.5755 91.1943 60.5755 85.3537C60.5755 80.5551 57.3795 76.5029 53 75.2097V57.2426L65.9591 70.2018C65.1417 71.7026 64.6772 73.4234 64.6772 75.2527C64.6772 81.0934 69.412 85.8282 75.2527 85.8282C81.0934 85.8282 85.8282 81.0934 85.8282 75.2527C85.8282 69.412 81.0934 64.6772 75.2527 64.6772C73.4234 64.6772 71.7026 65.1417 70.2018 65.9591L57.2426 53H75.2097C76.5029 57.3795 80.5551 60.5755 85.3537 60.5755C91.1943 60.5755 95.9291 55.8407 95.9291 50C95.9291 44.1594 91.1943 39.4246 85.3537 39.4246C80.5551 39.4246 76.5029 42.6205 75.2098 47H57.2426L70.2017 34.0409C71.7026 34.8583 73.4234 35.3228 75.2527 35.3228C81.0934 35.3228 85.8282 30.588 85.8282 24.7473C85.8282 18.9067 81.0934 14.1719 75.2527 14.1719C69.412 14.1719 64.6772 18.9067 64.6772 24.7473C64.6772 26.5766 65.1417 28.2974 65.9591 29.7982L53 42.7573V24.7903C57.3795 23.4971 60.5755 19.445 60.5755 14.6464C60.5755 8.80572 55.8407 4.07092 50 4.07092ZM50 80.7782C47.4731 80.7782 45.4246 82.8267 45.4246 85.3537C45.4246 87.8806 47.4731 89.9291 50 89.9291C52.527 89.9291 54.5755 87.8806 54.5755 85.3537C54.5755 82.8267 52.527 80.7782 50 80.7782ZM85.3537 45.4246C82.8267 45.4246 80.7782 47.4731 80.7782 50C80.7782 52.527 82.8267 54.5755 85.3537 54.5755C87.8806 54.5755 89.9291 52.527 89.9291 50C89.9291 47.4731 87.8806 45.4246 85.3537 45.4246ZM10.0709 50C10.0709 47.4731 12.1194 45.4246 14.6464 45.4246C17.1733 45.4246 19.2218 47.4731 19.2218 50C19.2218 52.527 17.1733 54.5755 14.6464 54.5755C12.1194 54.5755 10.0709 52.527 10.0709 50ZM20.1718 24.7473C20.1718 22.2204 22.2203 20.1719 24.7473 20.1719C27.2742 20.1719 29.3227 22.2204 29.3227 24.7473C29.3227 27.2743 27.2742 29.3228 24.7473 29.3228C22.2203 29.3228 20.1718 27.2743 20.1718 24.7473ZM75.2527 70.6772C72.7257 70.6772 70.6772 72.7257 70.6772 75.2527C70.6772 77.7797 72.7257 79.8282 75.2527 79.8282C77.7797 79.8282 79.8282 77.7797 79.8282 75.2527C79.8282 72.7257 77.7797 70.6772 75.2527 70.6772ZM75.2527 20.1719C72.7257 20.1719 70.6772 22.2204 70.6772 24.7473C70.6772 27.2743 72.7257 29.3228 75.2527 29.3228C77.7797 29.3228 79.8282 27.2743 79.8282 24.7473C79.8282 22.2204 77.7797 20.1719 75.2527 20.1719ZM20.1718 75.2527C20.1718 72.7257 22.2203 70.6772 24.7473 70.6772C27.2742 70.6772 29.3227 72.7257 29.3227 75.2527C29.3227 77.7797 27.2742 79.8282 24.7473 79.8282C22.2203 79.8282 20.1718 77.7797 20.1718 75.2527Z" fill="url(#paint0_linear_6_2192)"/>
<defs>
<linearGradient id="paint0_linear_6_2192" x1="6.93622" y1="14.0528" x2="92.1068" y2="93.6497" gradientUnits="userSpaceOnUse">
<stop stop-color="#FFA424"/>
<stop offset="0.979167" stop-color="#FF4C2E"/>
</linearGradient>
</defs>
</svg>
