<svg width="100" height="100" viewBox="0 0 100 100" fill="none" xmlns="http://www.w3.org/2000/svg">
<path d="M86.4827 63.3291C88.4073 57.1291 92.7427 34.2082 60.8991 13.7591C60.3593 13.4122 59.715 13.2654 59.0782 13.3442C58.4414 13.4231 57.8524 13.7227 57.4136 14.1909C56.9817 14.6481 56.7332 15.2483 56.7158 15.877C56.6984 16.5057 56.9131 17.1187 57.3191 17.5991C57.4482 17.7537 69.1827 32.0518 65.0109 48.3809C57.7927 43.4155 29.1 20.6709 29.1 20.6709L45.6836 47.8418L14.8891 27.9964C14.8891 27.9964 36.6582 54.7228 49.98 64.7746C43.5309 67.0918 29.5182 69.5418 11.01 58.04C10.4975 57.7203 9.894 57.5782 9.29272 57.6359C8.69145 57.6936 8.12593 57.9478 7.68361 58.3591C7.24938 58.7587 6.96665 59.2961 6.88331 59.8803C6.79997 60.4645 6.92116 61.0595 7.22634 61.5646C7.84361 62.5964 22.6809 86.6691 54.0491 86.6691C62.6554 86.6691 67.6818 84.2191 71.7282 82.2509C74.2136 81.0482 76.1763 80.09 78.32 80.09C83.6527 80.09 87.1518 85.3837 87.1818 85.4309C87.4507 85.8442 87.8267 86.1768 88.2696 86.3934C88.7126 86.61 89.2059 86.7024 89.6973 86.6609C90.1853 86.6278 90.6549 86.4614 91.055 86.18C91.455 85.8985 91.7703 85.5127 91.9663 85.0646C95.8191 76.1164 89.1836 66.6464 86.4827 63.3255V63.3291Z" stroke="url(#paint0_linear_6_2293)" stroke-width="7" stroke-linecap="round" stroke-linejoin="round"/>
<defs>
<linearGradient id="paint0_linear_6_2293" x1="9.54905" y1="21.2938" x2="77.4073" y2="95.8955" gradientUnits="userSpaceOnUse">
<stop stop-color="#FFA424"/>
<stop offset="0.979167" stop-color="#FF4C2E"/>
</linearGradient>
</defs>
</svg>
