<svg width="100" height="100" viewBox="0 0 100 100" fill="none" xmlns="http://www.w3.org/2000/svg">
<path d="M46.21 15.5073C47.7616 12.2919 49.8671 9.37466 52.43 6.8891C53.8979 9.53681 54.7435 12.4841 54.9027 15.5073L59.9245 14.3827C59.9245 14.3827 67.4191 29.3718 54.9036 49.9818C58.813 52.8953 61.7448 56.9279 63.3107 61.5453C64.8765 66.1626 65.0025 71.1468 63.6718 75.8373C76.5636 71.4909 80.9091 67.2191 85.1818 67.2191C85.7456 67.209 86.3057 67.3126 86.8286 67.5237C87.3515 67.7348 87.8265 68.049 88.2253 68.4477C88.624 68.8464 88.9384 69.3214 89.1496 69.8442C89.3608 70.3671 89.4645 70.9271 89.4545 71.4909C89.4545 71.4909 90.0536 74.3382 82.5591 78.0855L67.57 85.58C60.842 89.964 53.1 92.5448 45.0872 93.0746C36.3182 93.0746 30.0982 93.6746 30.0982 89.3273C30.2959 86.4613 31.583 83.7797 33.6954 81.8327H29.9482C29.9482 81.8327 23.5782 93.0746 14.9591 93.0746C6.34088 93.0746 14.9591 85.58 14.9591 85.58C7.46452 85.58 10.0882 71.1164 18.7063 66.8437C17.2229 64.4654 16.3364 61.7639 16.1225 58.9691C15.9086 56.1743 16.3735 53.3693 17.4776 50.793C18.5818 48.2167 20.2925 45.9456 22.4638 44.1731C24.6352 42.4007 27.2029 41.1795 29.9482 40.6137C25.6018 36.2664 22.4536 27.0482 26.2009 25.6246C29.5793 24.197 32.2679 21.5084 33.6954 18.13C35.4753 16.8285 37.5123 15.9214 39.6704 15.4692C41.8285 15.0169 44.0573 15.0299 46.21 15.5073Z" stroke="url(#paint0_linear_6_2239)" stroke-width="7" stroke-linecap="round" stroke-linejoin="round"/>
<defs>
<linearGradient id="paint0_linear_6_2239" x1="10.5581" y1="6.8891" x2="77.4347" y2="101.598" gradientUnits="userSpaceOnUse">
<stop stop-color="#A6F58E"/>
<stop offset="0.479167" stop-color="#4FB830"/>
<stop offset="1" stop-color="#1D6F01"/>
</linearGradient>
</defs>
</svg>
