<svg width="100" height="100" viewBox="0 0 100 100" fill="none" xmlns="http://www.w3.org/2000/svg">
<path d="M91.5581 37.8974C94.4735 47.983 93.6149 58.7852 89.1427 68.2835C84.6705 77.7819 76.8912 85.3256 67.2599 89.5038C57.6288 93.6817 46.8054 94.208 36.8144 90.984C26.8233 87.7601 18.3489 81.0068 12.9763 71.9874C7.60349 62.9679 5.70054 52.3 7.62339 41.9792C9.54625 31.6583 15.1632 22.3914 23.4236 15.9119C31.684 9.43251 42.022 6.18434 52.5039 6.77498C62.9857 7.36562 72.8934 11.7546 80.3736 19.121" stroke="#FFE801" stroke-width="8" stroke-linecap="round" stroke-linejoin="round"/>
<path d="M81.5164 22.959C82.7716 22.959 83.7891 21.9415 83.7891 20.6863C83.7891 19.4311 82.7716 18.4136 81.5164 18.4136C80.2612 18.4136 79.2437 19.4311 79.2437 20.6863C79.2437 21.9415 80.2612 22.959 81.5164 22.959Z" stroke="#FFE801" stroke-width="4.54545" stroke-linecap="round" stroke-linejoin="round"/>
<path d="M30.9891 68.6782L50 25.26L69.011 68.6455" stroke="#FFE801" stroke-width="8" stroke-linecap="round" stroke-linejoin="round"/>
<path d="M37.5654 55.9399L51.9391 56.0499" stroke="#FFE801" stroke-width="4.54545" stroke-linecap="round" stroke-linejoin="round"/>
</svg>
