<svg width="100" height="100" viewBox="0 0 100 100" fill="none" xmlns="http://www.w3.org/2000/svg">
<path fill-rule="evenodd" clip-rule="evenodd" d="M70 32.5C70 43.8218 60.8218 53 49.5 53C38.1782 53 29 43.8218 29 32.5C29 21.1782 38.1782 12 49.5 12C60.8218 12 70 21.1782 70 32.5ZM67.2741 54.7799C73.8116 49.5576 78 41.5179 78 32.5C78 16.7599 65.2401 4 49.5 4C33.7599 4 21 16.7599 21 32.5C21 41.6212 25.2849 49.7417 31.9515 54.9582C17.0585 58.5732 6 71.9952 6 88V94C6 96.2091 7.79086 98 10 98C12.2091 98 14 96.2091 14 94V88C14 73.6406 25.6406 62 40 62H60C74.3594 62 86 73.6406 86 88V94C86 96.2091 87.7909 98 90 98C92.2091 98 94 96.2091 94 94V88C94 71.719 82.5565 58.1108 67.2741 54.7799Z" fill="#FFE801"/>
</svg>
