<svg width="100" height="100" viewBox="0 0 100 100" fill="none" xmlns="http://www.w3.org/2000/svg">
<path fill-rule="evenodd" clip-rule="evenodd" d="M35.49 35.4964C35.8328 35.6644 36.05 36.0127 36.05 36.3944V62.0672C36.05 62.8071 35.2744 63.2908 34.61 62.9652L8.71001 50.2744C8.36728 50.1064 8.15002 49.758 8.15002 49.3764V23.7036C8.15002 22.9637 8.92563 22.48 9.59004 22.8056L35.49 35.4964ZM65.6872 49.2489C65.0216 49.5918 64.2292 49.1086 64.2292 48.3599V23.7107C64.2292 22.9691 65.0081 22.4855 65.6728 22.8145L90.0754 34.8924C90.8106 35.2563 90.819 36.3019 90.0897 36.6776L65.6872 49.2489Z" stroke="#EF6BAA" stroke-width="8"/>
<path d="M64.2292 50L37.4865 62.9739C36.8224 63.2961 36.05 62.8124 36.05 62.0742V36.3971C36.05 36.0141 36.2689 35.6646 36.6136 35.4974L62.7927 22.7969C63.4569 22.4747 64.2292 22.9584 64.2292 23.6966V50ZM64.2292 50V76.2599C64.2292 77.0086 65.0216 77.4917 65.6872 77.1489L91.308 63.95C91.6409 63.7786 91.85 63.4355 91.85 63.0611V37.4109C91.85 36.6622 91.0576 36.179 90.3921 36.5219L64.2292 50Z" stroke="#EF6BAA" stroke-width="8"/>
</svg>
