<svg width="100" height="100" viewBox="0 0 100 100" fill="none" xmlns="http://www.w3.org/2000/svg">
<path d="M85.7309 52.741L50.04 88.0892L14.3491 52.741C11.9956 50.45 10.142 47.6966 8.90485 44.6542C7.66769 41.6117 7.07381 38.3461 7.16059 35.0629C7.24737 31.7797 8.01294 28.55 9.4091 25.5771C10.8053 22.6043 12.8018 19.9527 15.2729 17.7892C17.7441 15.6258 20.6364 13.9974 23.7677 13.0066C26.8991 12.0157 30.2016 11.6839 33.4675 12.0319C36.7334 12.38 39.8918 13.4004 42.744 15.029C45.5962 16.6576 48.0803 18.859 50.04 21.4946C52.0081 18.8779 54.495 16.6955 57.3452 15.084C60.1955 13.4726 63.3476 12.4667 66.6044 12.1294C69.8612 11.7921 73.1526 12.1306 76.2726 13.1238C79.3926 14.1169 82.274 15.7433 84.7366 17.9011C87.1992 20.059 89.1899 22.7019 90.5841 25.6644C91.9784 28.6269 92.7462 31.8454 92.8396 35.1183C92.9329 38.3912 92.3497 41.6481 91.1265 44.6853C89.9034 47.7224 88.0665 50.4745 85.7309 52.7692" stroke="#EF6BAA" stroke-width="8" stroke-linecap="round" stroke-linejoin="round"/>
<path d="M50.0391 21.4653L34.3691 37.1362C33.477 38.0287 32.9758 39.2389 32.9758 40.5008C32.9758 41.7627 33.477 42.9729 34.3691 43.8653L36.9527 46.449C40.2364 49.7326 45.5664 49.7326 48.85 46.449L53.6082 41.6908C55.0143 40.2846 56.6837 39.1691 58.5209 38.4081C60.3582 37.6471 62.3273 37.2554 64.3159 37.2554C66.3045 37.2554 68.2737 37.6471 70.1109 38.4081C71.9482 39.1691 73.6175 40.2846 75.0236 41.6908L85.7309 52.3981M52.4182 66.6744L61.9364 76.1926M64.3155 54.7772L73.8327 64.2953" stroke="#EF6BAA" stroke-width="8" stroke-linecap="round" stroke-linejoin="round"/>
</svg>
