<svg width="100" height="100" viewBox="0 0 100 100" fill="none" xmlns="http://www.w3.org/2000/svg">
<path d="M89.6819 60.8349C89.6816 60.835 89.6813 60.8352 89.6811 60.8355L60.8699 89.5886C60.7849 89.6737 60.6681 89.7275 60.5665 89.7264C60.498 89.7256 60.4336 89.6947 60.3674 89.6769L21.1104 79.1586C21.0004 79.122 20.9136 79.0622 20.865 78.9937C20.8141 78.922 20.8103 78.8276 20.7874 78.7427L10.2199 39.5721C10.1624 39.3996 10.2199 39.2841 10.3349 39.1691L39.1469 10.4151C39.2323 10.3297 39.3497 10.2758 39.4517 10.2774C39.5197 10.2784 39.5835 10.309 39.6491 10.3266L78.9069 20.8451C79.0169 20.8814 79.1037 20.9415 79.1522 21.0101C79.2027 21.0816 79.2064 21.1754 79.2291 21.2599L89.6975 60.273C89.7256 60.3777 89.7887 60.4737 89.8011 60.5814C89.8122 60.6778 89.7608 60.7561 89.6828 60.8342C89.6826 60.8345 89.6823 60.8347 89.6819 60.8349ZM51.126 29.5303C51.0956 29.5251 51.0583 29.5493 51.0284 29.5573L12.5356 39.8263C12.4515 39.8488 12.3433 39.8669 12.3292 39.9528C12.3245 39.9814 12.3299 40.0111 12.3514 40.0326L40.6444 68.2676C40.6712 68.2944 40.7106 68.3087 40.7451 68.3047C40.8321 68.2946 40.829 68.1673 40.8517 68.0826L51.1542 29.7337C51.175 29.6563 51.2049 29.5439 51.126 29.5303Z" stroke="white" stroke-width="8"/>
</svg>
