<svg width="100" height="100" viewBox="0 0 100 100" fill="none" xmlns="http://www.w3.org/2000/svg">
<g clip-path="url(#clip0_310_2608)">
<g filter="url(#filter0_dd_310_2608)">
<path fill-rule="evenodd" clip-rule="evenodd" d="M54.3957 10.4331C54.3957 8.0055 52.4278 6.03752 50.0001 6.03752C47.5725 6.03752 45.6045 8.0055 45.6045 10.4331V14.2086C32.6104 15.776 24.8315 24.2897 24.8315 34.1732C24.8315 44.0567 32.6104 52.5704 45.6045 54.1377V76.8238C42.5494 76.2203 39.9152 75.0671 37.8379 73.88C36.3381 73.023 35.1663 72.1694 34.3844 71.5439C33.9949 71.2322 33.7062 70.9805 33.5261 70.8179C33.4362 70.7367 33.3738 70.678 33.3398 70.6457L33.3226 70.6292L33.3117 70.6186C31.594 68.9151 28.8207 68.9194 27.1084 70.6317C25.3919 72.3483 25.3919 75.1314 27.1084 76.848L30.2166 73.7398C27.1084 76.848 27.1096 76.8492 27.1108 76.8504L27.1134 76.8529L27.1191 76.8586L27.1327 76.8721L27.1689 76.9076C27.197 76.9351 27.233 76.9699 27.2769 77.0117C27.3647 77.0953 27.4838 77.2067 27.6335 77.3418C27.9326 77.612 28.3548 77.9785 28.8926 78.4087C29.9655 79.267 31.5139 80.3916 33.4762 81.5129C36.5206 83.2526 40.6537 85.0357 45.6045 85.7378V89.5664C45.6045 91.9941 47.5725 93.962 50.0001 93.962C52.4278 93.962 54.3957 91.9941 54.3957 89.5664V85.7909C67.3894 84.2232 75.1679 75.7097 75.1676 65.8264C75.1674 55.9433 67.3889 47.4301 54.3957 45.8622V23.0629C58.1554 23.6331 60.913 24.8734 62.8077 26.0433C64.1071 26.8456 65.026 27.6311 65.5937 28.181C65.8773 28.4556 66.0716 28.6698 66.1801 28.7952C66.2343 28.8579 66.2668 28.8981 66.2781 28.9123L66.2785 28.9128C67.7293 30.8304 70.4571 31.2277 72.3959 29.7947C74.3482 28.3518 74.7611 25.5995 73.3182 23.6472L69.8364 26.2206C73.3181 23.6472 73.3167 23.6452 73.3152 23.6432L73.3121 23.639L73.3054 23.63L73.2903 23.6098L73.253 23.5609C73.2251 23.5245 73.1909 23.4805 73.1503 23.4297C73.0691 23.3279 72.9623 23.1981 72.8294 23.0444C72.5636 22.7371 72.1921 22.333 71.7096 21.8658C70.7452 20.9319 69.331 19.7391 67.4263 18.563C64.3432 16.6595 60.0365 14.8394 54.3957 14.1959V10.4331ZM45.6045 23.0674C36.8571 24.4478 33.6227 29.9436 33.6227 34.1732C33.6227 38.4027 36.8571 43.8986 45.6045 45.2789V23.0674ZM54.3957 54.721V76.9321C63.1426 75.5514 66.3765 70.0558 66.3764 65.8266C66.3763 61.5974 63.1422 56.1019 54.3957 54.721Z" fill="#FFE801"/>
</g>
</g>
<defs>
<filter id="filter0_dd_310_2608" x="20.4359" y="6.0376" width="59.1273" height="96.7158" filterUnits="userSpaceOnUse" color-interpolation-filters="sRGB">
<feFlood flood-opacity="0" result="BackgroundImageFix"/>
<feColorMatrix in="SourceAlpha" type="matrix" values="0 0 0 0 0 0 0 0 0 0 0 0 0 0 0 0 0 0 127 0" result="hardAlpha"/>
<feOffset dy="4.3956"/>
<feGaussianBlur stdDeviation="2.1978"/>
<feComposite in2="hardAlpha" operator="out"/>
<feColorMatrix type="matrix" values="0 0 0 0 0 0 0 0 0 0 0 0 0 0 0 0 0 0 0.25 0"/>
<feBlend mode="normal" in2="BackgroundImageFix" result="effect1_dropShadow_310_2608"/>
<feColorMatrix in="SourceAlpha" type="matrix" values="0 0 0 0 0 0 0 0 0 0 0 0 0 0 0 0 0 0 127 0" result="hardAlpha"/>
<feOffset dy="4.3956"/>
<feGaussianBlur stdDeviation="2.1978"/>
<feComposite in2="hardAlpha" operator="out"/>
<feColorMatrix type="matrix" values="0 0 0 0 0 0 0 0 0 0 0 0 0 0 0 0 0 0 0.25 0"/>
<feBlend mode="normal" in2="effect1_dropShadow_310_2608" result="effect2_dropShadow_310_2608"/>
<feBlend mode="normal" in="SourceGraphic" in2="effect2_dropShadow_310_2608" result="shape"/>
</filter>
<clipPath id="clip0_310_2608">
<rect width="100" height="100" fill="white"/>
</clipPath>
</defs>
</svg>
