<svg width="100" height="100" viewBox="0 0 100 100" fill="none" xmlns="http://www.w3.org/2000/svg">
<path d="M84.1228 83.0154L84.1528 83.02C87.1991 79.2809 89.9255 74.8818 92.4028 69.8482L78.6682 61.9936C73.8446 70.9654 66.7918 79.2291 57.0418 79.2809C42.8446 79.2291 37.2691 65.3354 37.2991 47.4527H90.3446C90.4164 45.4354 90.4164 44.4963 90.3446 43.5227C90.69 32.8863 88.2246 23.9436 83.7464 16.98L83.72 17.0018M18.7946 83.0154H18.8018C11.7291 74.43 7.59094 62.58 7.5973 48.4363C7.59094 35.9291 11.0237 25.1791 16.9255 16.9982M38.1573 32.1291C38.7428 24.0309 44.3218 18.5882 50.8582 18.5709C57.4446 18.5891 62.2 24.0309 62.3628 32.1291H38.1573Z" stroke="#EF6BAA" stroke-width="8" stroke-linecap="round" stroke-linejoin="round"/>
</svg>
