<svg width="100" height="100" viewBox="0 0 100 100" fill="none" xmlns="http://www.w3.org/2000/svg">
<g clip-path="url(#clip0_316_2773)">
<path d="M100 32.1077V77.9821C100 84.8186 94.4515 90.3671 87.6149 90.3671H12.3851C5.54577 90.3671 0 84.8186 0 77.9821V42.2029V32.1077V22.0179C0 15.1759 5.54577 9.63285 12.3851 9.63285H38.991C45.046 9.63285 50.0661 13.9814 51.1449 19.7226H87.6149C94.4515 19.7226 100 25.2656 100 32.1077Z" fill="url(#paint0_linear_316_2773)"/>
<g filter="url(#filter0_d_316_2773)">
<path d="M60.1915 81.6653L60.173 81.6651L60.1545 81.6652L22.8941 81.8011C20.0318 81.8116 18.2361 78.7143 19.6673 76.2355L46.2756 30.1484C47.7141 27.657 51.3179 27.6794 52.7252 30.1886L71.0149 62.7982L71.046 62.8537L71.079 62.908L79.1022 76.1291C80.6082 78.6108 78.8096 81.7828 75.9067 81.7645L60.1915 81.6653Z" stroke="black" stroke-width="7.42095" shape-rendering="crispEdges"/>
</g>
</g>
<defs>
<filter id="filter0_d_316_2773" x="13.3943" y="22.5285" width="72.0227" height="65.0373" filterUnits="userSpaceOnUse" color-interpolation-filters="sRGB">
<feFlood flood-opacity="0" result="BackgroundImageFix"/>
<feColorMatrix in="SourceAlpha" type="matrix" values="0 0 0 0 0 0 0 0 0 0 0 0 0 0 0 0 0 0 127 0" result="hardAlpha"/>
<feOffset/>
<feGaussianBlur stdDeviation="1.0271"/>
<feComposite in2="hardAlpha" operator="out"/>
<feColorMatrix type="matrix" values="0 0 0 0 0.388235 0 0 0 0 0.945098 0 0 0 0 1 0 0 0 1 0"/>
<feBlend mode="normal" in2="BackgroundImageFix" result="effect1_dropShadow_316_2773"/>
<feBlend mode="normal" in="SourceGraphic" in2="effect1_dropShadow_316_2773" result="shape"/>
</filter>
<linearGradient id="paint0_linear_316_2773" x1="-4.03136e-07" y1="49" x2="99.5" y2="49" gradientUnits="userSpaceOnUse">
<stop stop-color="#15D1D8"/>
<stop offset="0.46875" stop-color="#FFE801"/>
<stop offset="1" stop-color="#EF6BAA"/>
</linearGradient>
<clipPath id="clip0_316_2773">
<rect width="100" height="100" fill="white"/>
</clipPath>
</defs>
</svg>
