<svg width="100" height="100" viewBox="0 0 100 100" fill="none" xmlns="http://www.w3.org/2000/svg">
<g clip-path="url(#clip0_310_2182)">
<path d="M48.6879 20.1843L49.071 22.2226H51.1449H87.6149C93.0715 22.2226 97.5 26.647 97.5 32.1077V77.9821C97.5 83.4379 93.0708 87.8672 87.6149 87.8672H12.3851C6.92684 87.8672 2.5 83.4383 2.5 77.9821V42.2029V32.1077V22.018C2.5 16.557 6.92612 12.1329 12.3851 12.1329H38.991C43.815 12.1329 47.8259 15.5971 48.6879 20.1843Z" stroke="#FFE801" stroke-width="5"/>
<path fill-rule="evenodd" clip-rule="evenodd" d="M27.0279 31.6628C26.8263 31.6628 26.6629 31.8263 26.6629 32.0279V49.5219C26.6629 49.7236 26.8263 49.887 27.0279 49.887H44.3943C44.5959 49.887 44.7594 49.7236 44.7594 49.5219V32.0279C44.7594 31.8263 44.5959 31.6628 44.3943 31.6628H27.0279ZM22.0001 32.0279C22.0001 29.2511 24.2511 27 27.0279 27H44.3943C47.1711 27 49.4222 29.2511 49.4222 32.0279V49.5219C49.4222 52.2988 47.1711 54.5498 44.3943 54.5498H37.9517V62.7818C37.9517 64.3394 38.3496 64.9439 38.6276 65.2018C38.9395 65.4912 39.5914 65.802 40.9719 65.802H49.5779V59.4781C49.5779 56.7012 51.829 54.4502 54.6058 54.4502H71.9721C74.749 54.4502 77 56.7012 77 59.4781V76.9721C77 79.7489 74.749 82 71.9721 82H54.6058C51.829 82 49.5779 79.7489 49.5779 76.9721V70.4648H40.9719C39.0079 70.4648 36.984 70.0375 35.4561 68.62C33.8945 67.1709 33.2888 65.0996 33.2888 62.7818V54.5498H27.0279C24.2511 54.5498 22.0001 52.2988 22.0001 49.5219V32.0279ZM54.6058 59.113C54.4042 59.113 54.2407 59.2764 54.2407 59.4781V76.9721C54.2407 77.1737 54.4042 77.3372 54.6058 77.3372H71.9721C72.1738 77.3372 72.3372 77.1737 72.3372 76.9721V59.4781C72.3372 59.2764 72.1738 59.113 71.9721 59.113H54.6058Z" fill="#FFE801"/>
</g>
<defs>
<clipPath id="clip0_310_2182">
<rect width="100" height="100" fill="white"/>
</clipPath>
</defs>
</svg>
