<svg width="100" height="100" viewBox="0 0 100 100" fill="none" xmlns="http://www.w3.org/2000/svg">
<g clip-path="url(#clip0_310_2432)">
<path d="M48.6879 20.1843L49.071 22.2226H51.1449H87.6149C93.0715 22.2226 97.5 26.647 97.5 32.1077V77.9821C97.5 83.4379 93.0708 87.8672 87.6149 87.8672H12.3851C6.92684 87.8672 2.5 83.4383 2.5 77.9821V42.2029V32.1077V22.018C2.5 16.5569 6.92612 12.1329 12.3851 12.1329H38.991C43.815 12.1329 47.8259 15.5971 48.6879 20.1843Z" stroke="#15D1D8" stroke-width="5"/>
<path d="M25 43.2507L61.1084 78.5401C61.1084 78.5401 62.385 79.5003 63.5524 78.6459L73.7928 73.6825C75.1869 72.7175 74.9905 71.5253 74.9905 71.5253V39.0505C74.9905 37.6249 73.5503 37.1303 73.5503 37.1303L64.1089 32.5194C62.048 31.2275 60.6975 32.7527 60.6975 32.7527L57.6909 35.475L25.0897 66.3735" stroke="#15D1D8" stroke-width="5" stroke-linecap="round" stroke-linejoin="round"/>
</g>
<defs>
<clipPath id="clip0_310_2432">
<rect width="100" height="100" fill="white"/>
</clipPath>
</defs>
</svg>
