<svg width="100" height="100" viewBox="0 0 100 100" fill="none" xmlns="http://www.w3.org/2000/svg">
<g clip-path="url(#clip0_310_2448)">
<path d="M48.6879 20.1843L49.071 22.2226H51.1449H87.6149C93.0715 22.2226 97.5 26.647 97.5 32.1077V77.9821C97.5 83.4379 93.0708 87.8671 87.6149 87.8671H12.3851C6.92684 87.8671 2.5 83.4383 2.5 77.9821V42.2029V32.1077V22.0179C2.5 16.5569 6.92612 12.1329 12.3851 12.1329H38.991C43.815 12.1329 47.8259 15.5971 48.6879 20.1843Z" stroke="#EF6BAA" stroke-width="5"/>
<path d="M58.5928 81L51.0108 67.6639C47.365 68.143 43.6611 67.516 40.3657 65.8619C37.0702 64.2078 34.3307 61.6006 32.4922 58.3687C30.6556 55.136 29.802 51.4239 30.0387 47.6998C30.2754 43.9756 31.5918 40.4057 33.8224 37.4393L41.7034 51.2932L54.1075 44.0201L46.2286 30.1673C62.6408 28.0184 73.4556 47.0412 63.4139 60.3939L71 73.7269" stroke="#EF6BAA" stroke-width="5" stroke-linecap="round" stroke-linejoin="round"/>
</g>
<defs>
<clipPath id="clip0_310_2448">
<rect width="100" height="100" fill="white"/>
</clipPath>
</defs>
</svg>
