<svg width="100" height="100" viewBox="0 0 100 100" fill="none" xmlns="http://www.w3.org/2000/svg">
<g clip-path="url(#clip0_315_315)">
<path d="M48.6879 20.1843L49.071 22.2225H51.1449H87.6149C93.0715 22.2225 97.5 26.647 97.5 32.1076V77.982C97.5 83.4379 93.0708 87.8671 87.6149 87.8671H12.3851C6.92684 87.8671 2.5 83.4382 2.5 77.982V42.2029V32.1076V22.0179C2.5 16.5569 6.92612 12.1328 12.3851 12.1328H38.991C43.815 12.1328 47.8259 15.597 48.6879 20.1843Z" stroke="#FFE801" stroke-width="5"/>
<path d="M63.5938 32.75C66.25 32.8021 68.6198 33.6354 70.7031 35.25C72.7865 36.8646 74.4531 38.7917 75.7031 41.0312C77.0052 43.2708 77.9688 45.6406 78.5938 48.1406C79.2188 50.6406 79.5312 53.1927 79.5312 55.7969C79.5312 59.2344 78.9844 62.6198 77.8906 65.9531C76.849 69.2344 75.1042 72.151 72.6562 74.7031C70.2604 77.2552 67.2396 78.6354 63.5938 78.8438H38.8281C35.1823 78.6875 32.1354 77.3333 29.6875 74.7812C27.2396 72.2292 25.4948 69.2865 24.4531 65.9531C23.4635 62.6198 22.9688 59.2344 22.9688 55.7969C22.9688 52.3594 23.4896 49 24.5312 45.7188C25.5729 42.3854 27.2917 39.4427 29.6875 36.8906C32.1354 34.2865 35.1823 32.9062 38.8281 32.75H40.3125H62.1094H63.5938ZM60.9375 68.375C62.9167 68.2708 64.5573 67.5417 65.8594 66.1875C67.2135 64.7812 68.1771 63.1667 68.75 61.3438C69.3229 59.5208 69.6094 57.6719 69.6094 55.7969C69.6094 53.9219 69.2969 52.099 68.6719 50.3281C68.099 48.5052 67.1615 46.8906 65.8594 45.4844C64.5573 44.0781 62.9167 43.3229 60.9375 43.2188H41.25C39.2708 43.3229 37.6302 44.0781 36.3281 45.4844C35.026 46.8906 34.0625 48.5052 33.4375 50.3281C32.8646 52.099 32.5781 53.9219 32.5781 55.7969C32.5781 57.6719 32.8646 59.5208 33.4375 61.3438C34.0104 63.1667 34.9479 64.7812 36.25 66.1875C37.6042 67.5417 39.2708 68.2708 41.25 68.375H60.9375Z" fill="white"/>
</g>
<defs>
<clipPath id="clip0_315_315">
<rect width="100" height="100" fill="white"/>
</clipPath>
</defs>
</svg>
