<svg width="100" height="100" viewBox="0 0 100 100" fill="none" xmlns="http://www.w3.org/2000/svg">
<g clip-path="url(#clip0_310_2767)">
<mask id="mask0_310_2767" style="mask-type:luminance" maskUnits="userSpaceOnUse" x="0" y="0" width="100" height="100">
<path d="M100 0H0V100H100V0Z" fill="white"/>
</mask>
<g mask="url(#mask0_310_2767)">
<path d="M48.6879 20.1843L49.071 22.2226H51.1449H87.6149C93.0715 22.2226 97.5 26.647 97.5 32.1077V77.9821C97.5 83.4379 93.0708 87.8671 87.6149 87.8671H12.3851C6.92684 87.8671 2.5 83.4383 2.5 77.9821V42.2029V32.1077V22.0179C2.5 16.5569 6.92612 12.1329 12.3851 12.1329H38.991C43.815 12.1329 47.8259 15.5971 48.6879 20.1843Z" stroke="#EF6BAA" stroke-width="5"/>
</g>
<path fill-rule="evenodd" clip-rule="evenodd" d="M23.7139 56.9785C23.2555 57.4355 22.9985 58.0565 23 58.7037L23.0458 78.5777C23.0489 79.9173 24.1364 81.0013 25.476 81L73.5748 80.9553C74.914 80.954 75.9993 79.8687 76.0006 78.5295L76.0453 30.4307C76.0459 29.7864 75.7904 29.1683 75.335 28.7125C74.8796 28.2567 74.2617 28.0005 73.6174 28.0005L53.7888 28C53.1461 28 52.5297 28.2547 52.0746 28.7084L23.7139 56.9785ZM29.1085 76.1407C28.4387 76.1413 27.8949 75.5993 27.8934 74.9295L27.8595 60.2094C27.8587 59.8858 27.9872 59.5753 28.2165 59.3468L54.4367 33.2102C54.6643 32.9834 54.9725 32.856 55.2938 32.856L69.972 32.8564C70.6429 32.8564 71.1866 33.4007 71.1859 34.0715L71.1479 74.8898C71.1473 75.5593 70.6046 76.102 69.9351 76.1027L29.1085 76.1407ZM66.902 40.8158C66.9004 39.7352 65.5937 39.1951 64.8296 39.9592L50.8554 53.9334C50.3813 54.4075 50.3813 55.1762 50.8554 55.6503L64.8717 69.6665C65.6371 70.432 66.9457 69.8887 66.9441 68.8063L66.902 40.8158Z" fill="white"/>
</g>
<defs>
<clipPath id="clip0_310_2767">
<rect width="100" height="100" fill="white"/>
</clipPath>
</defs>
</svg>
