<svg width="100" height="100" viewBox="0 0 100 100" fill="none" xmlns="http://www.w3.org/2000/svg">
<g clip-path="url(#clip0_310_1810)">
<path d="M48.6879 20.1843L49.071 22.2225H51.1449H87.6149C93.0715 22.2225 97.5 26.647 97.5 32.1076V77.982C97.5 83.4379 93.0708 87.8671 87.6149 87.8671H12.3851C6.92684 87.8671 2.5 83.4382 2.5 77.982V42.2029V32.1076V22.0179C2.5 16.5569 6.92612 12.1328 12.3851 12.1328H38.991C43.815 12.1328 47.8259 15.597 48.6879 20.1843Z" stroke="#FFE801" stroke-width="5"/>
<path fill-rule="evenodd" clip-rule="evenodd" d="M52.2222 32.7222C52.2222 31.2188 51.0035 30 49.5 30C47.9965 30 46.7778 31.2188 46.7778 32.7222V57.2222C46.7778 58.7257 47.9965 59.9444 49.5 59.9444C51.0035 59.9444 52.2222 58.7257 52.2222 57.2222V32.7222ZM40.2695 40.547C41.5841 39.8175 42.0584 38.1604 41.329 36.8458C40.5995 35.5312 38.9424 35.0569 37.6278 35.7864C30.1029 39.9619 25 47.9943 25 57.2222C25 70.7533 35.969 81.7222 49.5 81.7222C63.0311 81.7222 74 70.7533 74 57.2222C74 48.1503 69.0679 40.2336 61.7519 36.0015C60.4507 35.2487 58.7852 35.6934 58.0325 36.9948C57.2798 38.2962 57.7244 39.9615 59.0259 40.7143C64.7287 44.0132 68.5556 50.1724 68.5556 57.2222C68.5556 67.7463 60.0241 76.2778 49.5 76.2778C38.9759 76.2778 30.4444 67.7463 30.4444 57.2222C30.4444 50.0513 34.4042 43.8016 40.2695 40.547Z" fill="white"/>
</g>
<defs>
<clipPath id="clip0_310_1810">
<rect width="100" height="100" fill="white"/>
</clipPath>
</defs>
</svg>
