<svg width="100" height="100" viewBox="0 0 100 100" fill="none" xmlns="http://www.w3.org/2000/svg">
<g clip-path="url(#clip0_310_1999)">
<path d="M48.6879 20.1843L49.071 22.2226H51.1449H87.6149C93.0715 22.2226 97.5 26.647 97.5 32.1077V77.9821C97.5 83.4379 93.0708 87.8672 87.6149 87.8672H12.3851C6.92684 87.8672 2.5 83.4383 2.5 77.9821V42.2029V32.1077V22.018C2.5 16.557 6.92612 12.1329 12.3851 12.1329H38.991C43.815 12.1329 47.8259 15.5971 48.6879 20.1843Z" stroke="#FFE801" stroke-width="5"/>
<path fill-rule="evenodd" clip-rule="evenodd" d="M27.3723 30C22.733 30 19 33.733 19 38.3723V72.3139C19 74.5344 19.8821 76.6639 21.4522 78.234C23.0223 79.8041 25.1518 80.6862 27.3723 80.6862H72.6278C74.8483 80.6862 76.9778 79.8041 78.5479 78.234C80.118 76.6639 81.0001 74.5344 81.0001 72.3139V38.3723C81.0001 36.1518 80.118 34.0223 78.5479 32.4522C76.9778 30.8821 74.8483 30 72.6278 30H27.3723ZM24.4307 38.5397V72.3139C24.4307 73.0941 24.7406 73.8423 25.2922 74.3939C25.8439 74.9456 26.5921 75.2555 27.3723 75.2555H72.6278C73.408 75.2555 74.1562 74.9456 74.7078 74.3939C75.2595 73.8423 75.5694 73.0941 75.5694 72.3139V40.2457L56.7731 59.0421C55.0471 60.768 52.6456 61.4497 50.2604 61.1847C47.8951 60.9219 45.6469 59.7558 43.9332 58.0421L24.4307 38.5397ZM72.7034 35.4316C72.6782 35.431 72.653 35.4307 72.6278 35.4307H29.0017L47.7733 54.202C48.7117 55.1405 49.8498 55.675 50.8601 55.7873C51.8504 55.8973 52.5373 55.5978 52.933 55.202L72.7034 35.4316Z" fill="white"/>
</g>
<defs>
<clipPath id="clip0_310_1999">
<rect width="100" height="100" fill="white"/>
</clipPath>
</defs>
</svg>
