<svg width="100" height="100" viewBox="0 0 100 100" fill="none" xmlns="http://www.w3.org/2000/svg">
<g clip-path="url(#clip0_310_2085)">
<path d="M48.6879 20.1843L49.071 22.2226H51.1449H87.6149C93.0715 22.2226 97.5 26.647 97.5 32.1077V77.9821C97.5 83.4379 93.0708 87.8672 87.6149 87.8672H12.3851C6.92684 87.8672 2.5 83.4383 2.5 77.9821V42.2029V32.1077V22.018C2.5 16.557 6.92612 12.1329 12.3851 12.1329H38.991C43.815 12.1329 47.8259 15.5971 48.6879 20.1843Z" stroke="#FFE801" stroke-width="5"/>
<path fill-rule="evenodd" clip-rule="evenodd" d="M48.783 34.4533C48.783 33.6507 49.4337 33 50.2363 33C51.039 33 51.6897 33.6507 51.6897 34.4533C51.6897 35.256 51.039 35.9067 50.2363 35.9067C49.4337 35.9067 48.783 35.256 48.783 34.4533ZM50.2363 27C46.12 27 42.783 30.337 42.783 34.4533C42.783 37.5025 44.614 40.124 47.2365 41.2783V47.9939L42.3386 43.096C42.6653 42.2576 42.8446 41.3454 42.8446 40.3913C42.8446 36.2749 39.5076 32.938 35.3912 32.938C31.2749 32.938 27.9379 36.2749 27.9379 40.3913C27.9379 44.5077 31.2749 47.8446 35.3912 47.8446C36.3453 47.8446 37.2575 47.6654 38.096 47.3387L42.9937 52.2364H36.2783C35.1239 49.614 32.5024 47.7831 29.4533 47.7831C25.337 47.7831 22 51.1201 22 55.2364C22 59.3528 25.337 62.6897 29.4533 62.6897C32.5024 62.6897 35.1239 60.8588 36.2783 58.2364H42.9937L38.0959 63.1341C37.2575 62.8074 36.3453 62.6282 35.3912 62.6282C31.2749 62.6282 27.9379 65.9652 27.9379 70.0815C27.9379 74.1979 31.2749 77.5349 35.3912 77.5349C39.5076 77.5349 42.8446 74.1979 42.8446 70.0815C42.8446 69.1274 42.6653 68.2152 42.3386 67.3767L47.2365 62.4789V69.1945C44.614 70.3488 42.783 72.9703 42.783 76.0195C42.783 80.1359 46.12 83.4728 50.2363 83.4728C54.3527 83.4728 57.6897 80.1359 57.6897 76.0195C57.6897 72.9704 55.8588 70.349 53.2365 69.1946V62.4792L58.1342 67.3769C57.8075 68.2153 57.6283 69.1275 57.6283 70.0815C57.6283 74.1979 60.9652 77.5349 65.0816 77.5349C69.198 77.5349 72.5349 74.1979 72.5349 70.0815C72.5349 65.9652 69.198 62.6282 65.0816 62.6282C64.1275 62.6282 63.2153 62.8075 62.3767 63.1342L57.479 58.2364H64.1945C65.3489 60.8588 67.9704 62.6897 71.0195 62.6897C75.1359 62.6897 78.4728 59.3528 78.4728 55.2364C78.4728 51.1201 75.1359 47.7831 71.0195 47.7831C67.9704 47.7831 65.3489 49.614 64.1945 52.2364H57.4789L62.3767 47.3386C63.2152 47.6653 64.1275 47.8446 65.0816 47.8446C69.198 47.8446 72.5349 44.5077 72.5349 40.3913C72.5349 36.2749 69.198 32.938 65.0816 32.938C60.9652 32.938 57.6283 36.2749 57.6283 40.3913C57.6283 41.3453 57.8075 42.2575 58.1342 43.0959L53.2365 47.9936V41.2782C55.8588 40.1238 57.6897 37.5024 57.6897 34.4533C57.6897 30.337 54.3527 27 50.2363 27ZM50.2363 74.5662C49.4337 74.5662 48.783 75.2168 48.783 76.0195C48.783 76.8221 49.4337 77.4728 50.2363 77.4728C51.039 77.4728 51.6897 76.8221 51.6897 76.0195C51.6897 75.2168 51.039 74.5662 50.2363 74.5662ZM71.0195 53.7831C70.2168 53.7831 69.5662 54.4338 69.5662 55.2364C69.5662 56.0391 70.2168 56.6897 71.0195 56.6897C71.8221 56.6897 72.4728 56.0391 72.4728 55.2364C72.4728 54.4338 71.8221 53.7831 71.0195 53.7831ZM28 55.2364C28 54.4338 28.6507 53.7831 29.4533 53.7831C30.256 53.7831 30.9067 54.4338 30.9067 55.2364C30.9067 56.0391 30.256 56.6897 29.4533 56.6897C28.6507 56.6897 28 56.0391 28 55.2364ZM33.9379 40.3913C33.9379 39.5886 34.5886 38.938 35.3912 38.938C36.1939 38.938 36.8446 39.5886 36.8446 40.3913C36.8446 41.194 36.1939 41.8446 35.3912 41.8446C34.5886 41.8446 33.9379 41.194 33.9379 40.3913ZM65.0816 68.6282C64.2789 68.6282 63.6283 69.2789 63.6283 70.0815C63.6283 70.8842 64.2789 71.5349 65.0816 71.5349C65.8842 71.5349 66.5349 70.8842 66.5349 70.0815C66.5349 69.2789 65.8842 68.6282 65.0816 68.6282ZM65.0816 38.938C64.2789 38.938 63.6283 39.5886 63.6283 40.3913C63.6283 41.194 64.2789 41.8446 65.0816 41.8446C65.8842 41.8446 66.5349 41.194 66.5349 40.3913C66.5349 39.5886 65.8842 38.938 65.0816 38.938ZM33.9379 70.0815C33.9379 69.2789 34.5886 68.6282 35.3912 68.6282C36.1939 68.6282 36.8446 69.2789 36.8446 70.0815C36.8446 70.8842 36.1939 71.5349 35.3912 71.5349C34.5886 71.5349 33.9379 70.8842 33.9379 70.0815Z" fill="white"/>
</g>
<defs>
<clipPath id="clip0_310_2085">
<rect width="100" height="100" fill="white"/>
</clipPath>
</defs>
</svg>
