<svg width="100" height="100" viewBox="0 0 100 100" fill="none" xmlns="http://www.w3.org/2000/svg">
<g clip-path="url(#clip0_310_2106)">
<path d="M48.6879 20.1843L49.071 22.2226H51.1449H87.6149C93.0715 22.2226 97.5 26.647 97.5 32.1077V77.9821C97.5 83.4379 93.0708 87.8672 87.6149 87.8672H12.3851C6.92684 87.8672 2.5 83.4383 2.5 77.9821V42.2029V32.1077V22.018C2.5 16.557 6.92612 12.1329 12.3851 12.1329H38.991C43.815 12.1329 47.8259 15.5971 48.6879 20.1843Z" stroke="#15D1D8" stroke-width="5"/>
<path fill-rule="evenodd" clip-rule="evenodd" d="M55.1792 32.543C55.479 31.154 54.5961 29.7849 53.2072 29.4851C51.8182 29.1852 50.4491 30.0681 50.1492 31.457L40.002 78.4571C39.7022 79.846 40.5851 81.2151 41.974 81.515C43.363 81.8149 44.7321 80.932 45.032 79.543L55.1792 32.543ZM36.2486 43.0011C37.2533 41.9963 37.2533 40.3672 36.2486 39.3625C35.2438 38.3577 33.6147 38.3577 32.6099 39.3625L18.1806 53.7918C17.1758 54.7966 17.1758 56.4256 18.1806 57.4304L32.3473 71.5978C33.3521 72.6026 34.9812 72.6026 35.986 71.5978C36.9908 70.5931 36.9908 68.964 35.986 67.9592L23.6385 55.6112L36.2486 43.0011ZM62.5682 39.3625C61.5634 38.3577 59.9344 38.3577 58.9296 39.3625C57.9248 40.3672 57.9248 41.9963 58.9296 43.0011L71.5396 55.6112L59.1921 67.9592C58.1873 68.964 58.1874 70.5931 59.1922 71.5978C60.197 72.6026 61.8261 72.6026 62.8308 71.5978L76.9976 57.4304C78.0023 56.4256 78.0023 54.7966 76.9976 53.7918L62.5682 39.3625Z" fill="white"/>
</g>
<defs>
<clipPath id="clip0_310_2106">
<rect width="100" height="100" fill="white"/>
</clipPath>
</defs>
</svg>
