<svg width="100" height="100" viewBox="0 0 100 100" fill="none" xmlns="http://www.w3.org/2000/svg">
<path fill-rule="evenodd" clip-rule="evenodd" d="M22.0543 29.2529C22.0543 14.2363 34.2277 2.06291 49.2443 2.06291H51.2235C65.9818 2.06291 77.9457 14.0268 77.9457 28.785V29.1797C77.9457 30.8809 76.5666 32.26 74.8654 32.26H25.0614C23.4007 32.26 22.0543 30.9136 22.0543 29.2529ZM26.8847 25.3895C26.6664 26.6619 27.699 27.7572 28.99 27.7572H71.0812C72.3551 27.7572 73.382 26.6899 73.1913 25.4304C71.574 14.7507 62.3546 6.56568 51.2235 6.56568H49.2443C38.0315 6.56568 28.7186 14.7 26.8847 25.3895ZM12 44.5314C12 38.9692 16.5092 34.4601 22.0714 34.4601H77.9286C83.4908 34.4601 87.9999 38.9692 87.9999 44.5314V54.5857C87.9999 60.148 83.4908 64.6571 77.9286 64.6571H22.0714C16.5092 64.6571 12 60.148 12 54.5857V44.5314ZM22.0714 38.9628C18.996 38.9628 16.5028 41.456 16.5028 44.5314V54.5857C16.5028 57.6612 18.996 60.1543 22.0714 60.1543H77.9286C81.004 60.1543 83.4972 57.6612 83.4972 54.5857V44.5314C83.4972 41.456 81.004 38.9628 77.9286 38.9628H22.0714ZM23.6134 49.7817C23.6134 47.6198 25.4057 45.8272 27.5678 45.8272H72.4102C74.5937 45.8272 76.3646 47.6205 76.3646 49.7817C76.3646 51.942 74.6161 53.7361 72.4323 53.7361H27.5678C25.384 53.7361 23.6134 51.9429 23.6134 49.7817ZM26.5571 82.5143V70.2257C26.5571 68.9918 25.5397 67.9914 24.3057 67.9914V67.9914C23.0717 67.9914 22.0543 68.9918 22.0543 70.2257V82.5143C22.0543 89.9275 28.0639 95.9371 35.4771 95.9371H64.5229C71.9361 95.9371 77.9457 89.9275 77.9457 82.5143V70.2257C77.9457 68.9918 76.9282 67.9914 75.6943 67.9914V67.9914C74.4603 67.9914 73.4429 68.9918 73.4429 70.2257V82.5143C73.4429 87.4407 69.4493 91.4343 64.5229 91.4343H35.4771C30.5507 91.4343 26.5571 87.4407 26.5571 82.5143ZM41.0629 73.5772H40.6001C40.0075 73.5772 39.4392 73.8126 39.0202 74.2316L38.693 74.5588L36.4587 76.7931C35.1499 78.1019 35.1499 80.2239 36.4587 81.5327C37.7676 82.8415 39.8896 82.8415 41.1984 81.5327L41.7967 80.9344C42.2157 80.5154 42.784 80.28 43.3765 80.28H57.0752C57.5587 80.28 58.0291 80.4368 58.4158 80.7269L59.1606 81.2854C60.6413 82.396 62.742 82.0959 63.8526 80.6152C64.9631 79.1344 64.663 77.0337 63.1823 75.9231L60.948 74.2474L60.6501 74.024C60.2633 73.734 59.793 73.5772 59.3095 73.5772H58.9371H41.0629Z" fill="#EF6BAA"/>
</svg>
