<svg width="100" height="100" viewBox="0 0 100 100" fill="none" xmlns="http://www.w3.org/2000/svg">
<path d="M79.9454 53.08C79.9454 53.08 79.9436 53.0118 79.2636 52.3982C78.6396 51.8348 77.9298 51.3744 77.1609 51.0345C76.4481 50.7164 75.7918 50.5818 75.0581 50.4655C74.3254 50.35 73.9745 50.4036 73.1263 50.4518C72.2781 50.4991 71.2572 50.6127 70.5545 50.9627C69.8527 51.3136 69.059 51.7273 68.609 52.1564C68.1581 52.5845 67.8654 53.0009 67.5572 53.5345C67.2393 54.0888 66.991 54.6803 66.8181 55.2955C66.6599 55.88 66.5945 56.2554 66.5909 57.0009C66.5881 57.7454 66.679 58.9236 66.9318 59.7282C67.1863 60.5327 67.5863 61.1845 68.0118 61.7736C68.4381 62.3636 68.9499 62.9091 69.4327 63.2509C69.9145 63.5936 70.1509 63.7673 70.8536 64.1036C71.5563 64.44 72.6718 64.8136 73.6372 65.2973C74.6036 65.78 75.7127 66.2973 76.5918 66.7745C77.4718 67.2509 78.2918 67.6818 78.9227 68.1382C79.5527 68.5955 79.9509 68.9509 80.3999 69.4454C80.8481 69.94 81.289 70.5082 81.5927 71.0927C81.8972 71.6782 82.0963 72.0909 82.2381 72.8918C82.309 73.2918 82.34 73.85 82.3454 74.3982C82.35 74.9473 82.329 75.4855 82.2954 75.8464C82.2281 76.5682 82.1681 76.6373 81.9909 77.23C81.8136 77.8236 81.3909 78.7736 80.9372 79.39C80.4845 80.0055 80.0163 80.41 79.3772 80.81C78.7381 81.21 78.0018 81.5627 77.3318 81.7764C76.6599 81.99 76.1772 82.0409 75.399 82.1173C74.6209 82.1936 73.6163 82.2645 72.6718 82.1736C71.7263 82.0827 70.599 81.8282 69.7736 81.5491C68.9481 81.2691 68.3299 80.9982 67.7281 80.5827C67.1254 80.1673 66.8736 79.98 66.5345 79.5882C66.0836 79.0673 65.4545 77.8273 65.4545 77.8273M46.8509 50.8691V82.2873M36.4854 50.4273H57.1363M19.6972 7.32909L80.3027 7.28454C86.2554 7.28 92.9299 13.9591 92.9299 19.9109V80.5173C92.9299 86.3691 86.1554 92.7154 80.3027 92.7154H19.6972C13.8445 92.7154 7.06995 86.3691 7.06995 80.5173V19.9109C7.06995 13.9691 13.7554 7.33363 19.6972 7.32909Z" stroke="#15D1D8" stroke-width="8" stroke-linecap="round" stroke-linejoin="round"/>
</svg>
