<svg width="100" height="100" viewBox="0 0 100 100" fill="none" xmlns="http://www.w3.org/2000/svg">
<path fill-rule="evenodd" clip-rule="evenodd" d="M9.34288 15.5198C7.94029 16.0068 7 17.3287 7 18.8134V19.2387C7 21.1643 8.56096 22.7252 10.4865 22.7252L16.2973 22.7252V54.1036H10.4865C8.56095 54.1036 7 55.6645 7 57.5901V87.8063C7 89.7318 8.56096 91.2928 10.4865 91.2928H12.8108V93.6171C12.8108 95.5426 14.3718 97.1036 16.2973 97.1036C18.2228 97.1036 19.7838 95.5426 19.7838 93.6171V91.2928H80.2162V93.6171C80.2162 95.5426 81.7772 97.1036 83.7027 97.1036C85.6282 97.1036 87.1892 95.5426 87.1892 93.6171V91.2928H89.5135C91.439 91.2928 93 89.7318 93 87.8063V57.5901C93 55.6645 91.439 54.1036 89.5135 54.1036L83.7027 54.1036V22.7252L89.5135 22.7252C91.439 22.7252 93 21.1643 93 19.2387V18.8567C93 17.351 92.0333 16.0153 90.603 15.5448L49.9575 2.17458C49.2312 1.93569 48.4466 1.94213 47.7244 2.19289L9.34288 15.5198ZM76.7297 22.7252L23.2703 22.7252V54.1036L76.7297 54.1036V22.7252ZM80.2162 66.8875V78.5091C80.2162 80.4346 78.6553 81.9956 76.7297 81.9956H23.2703C21.3447 81.9956 19.7838 80.4346 19.7838 78.5091V66.8875C19.7838 64.9619 21.3447 63.401 23.2703 63.401H76.7297C78.6553 63.401 80.2162 64.9619 80.2162 66.8875Z" fill="#15D1D8"/>
</svg>
