<svg width="100" height="100" viewBox="0 0 100 100" fill="none" xmlns="http://www.w3.org/2000/svg">
<path d="M66.8091 8.45273C66.8091 8.45273 69.2737 5.67636 73.0373 8.02727L90.2664 16.4227C90.2664 16.4227 92.8964 17.3209 92.8964 19.9182V79.0373C92.8964 79.0373 93.2537 81.2118 90.71 82.9646L70.8337 92.8637C70.8337 92.8637 69.0382 93.3646 67.5564 91.8337L67.3919 91.6509C69.7537 92.0091 70.7373 91.1473 71.1919 90.22C71.4176 89.7388 71.5338 89.2134 71.5319 88.6818V10.5136M66.8091 8.45273C66.8091 8.45273 69.9791 6.14546 71.5319 10.5136M66.8091 8.45273C70.441 6.21273 71.5319 10.5136 71.5319 10.5136M66.8091 8.45273L32.8691 39.6736L46.1919 49.8909L71.5191 30.1673L71.5319 10.5136M7.87004 37.0264C7.87004 37.0264 5.78095 35.4991 8.28822 33.4664L14.1382 28.1791C14.1382 28.1791 15.8082 26.4009 17.5791 27.95L71.5319 69.2409V89.0391C71.5319 89.0391 71.5064 92.1518 67.56 91.8082L7.8664 37.0227L7.87004 37.0264ZM21.7791 49.7873L7.87004 62.5664C7.87004 62.5664 6.43913 63.6391 7.87004 65.56L14.3273 71.4991C14.3273 71.4991 15.8619 73.1627 18.1273 71.2664L32.8691 59.9691L21.7791 49.7873Z" stroke="#15D1D8" stroke-width="7" stroke-linecap="round" stroke-linejoin="round"/>
</svg>
