<svg width="100" height="100" viewBox="0 0 100 100" fill="none" xmlns="http://www.w3.org/2000/svg">
<path d="M26.7955 77.0882V80.1364M27.5582 47.5982L27.4819 50.4182M33.5019 52.2464C33.5019 52.2464 29.4628 51.3373 27.1773 51.3327C25.321 51.3291 23.2228 51.69 21.8428 52.9327C20.4728 54.1673 19.3191 56.2354 19.7091 58.0382C20.1855 60.2391 21.1637 61.1673 22.4528 62.2291C23.8928 63.4154 25.8191 63.9209 27.6382 64.34C29.6291 64.7991 31.7855 65.3291 33.2728 66.7245C34.1837 67.5791 34.9273 68.8282 34.9491 70.0773C34.9773 71.7254 34.1073 73.4609 32.8919 74.5736C31.6591 75.7009 29.8119 75.9518 28.1673 76.25C26.7428 76.5082 25.2673 76.4527 23.8246 76.3264C22.6382 76.2218 20.3191 75.64 20.3191 75.64" stroke="black" stroke-width="8" stroke-linecap="round" stroke-linejoin="round"/>
<path d="M15.7634 92.5277C11.6876 92.5277 7.1084 87.967 7.1084 83.8922V32.077C7.1084 28.0053 11.6732 23.4405 15.7439 23.4405H67.5601C71.6298 23.4405 76.1956 28.0053 76.1956 32.077V83.8922C76.1956 87.9629 71.6308 92.5277 67.5601 92.5277H15.7634Z" stroke="black" stroke-width="8"/>
<path d="M9.99609 26.3231L23.9263 12.2565C26.161 10.0013 29.6054 7.47232 32.7812 7.47232H84.256C88.2909 7.47232 92.8916 11.9213 92.8916 15.9561V62.9399C92.8916 66.7575 91.1386 70.7718 88.5266 73.556L73.4473 89.6328" stroke="black" stroke-width="8"/>
</svg>
