<svg width="100" height="100" viewBox="0 0 100 100" fill="none" xmlns="http://www.w3.org/2000/svg">
<path d="M15.7634 92.5277C11.6876 92.5277 7.1084 87.967 7.1084 83.8922V32.077C7.1084 28.0053 11.6732 23.4405 15.7439 23.4405H67.5601C71.6298 23.4405 76.1956 28.0053 76.1956 32.077V83.8922C76.1956 87.9629 71.6308 92.5277 67.5601 92.5277H15.7634Z" stroke="black" stroke-width="8"/>
<path d="M9.99609 26.3231L23.9263 12.2565C26.161 10.0013 29.6054 7.47232 32.7812 7.47232H84.256C88.2909 7.47232 92.8916 11.9213 92.8916 15.9561V62.9399C92.8916 66.7575 91.1386 70.7718 88.5266 73.556L73.4473 89.6328" stroke="black" stroke-width="8"/>
<path d="M19.0909 56.3636L36.0737 66.3636L19.0909 76.3636" stroke="black" stroke-width="8" stroke-linecap="round" stroke-linejoin="round"/>
</svg>
