<svg width="100" height="100" viewBox="0 0 100 100" fill="none" xmlns="http://www.w3.org/2000/svg">
<path d="M66.4873 58.8109C66.4673 54.8364 64.1227 50.4454 63.5118 46.4045C63.1145 43.7736 62.5182 41.1064 62.9573 36.3518C62.9727 32.05 66.9854 22.6073 70.5873 16.7291M82.2527 45.6745C80.6645 49.3645 82.1054 51.8727 83.5045 53.3627M92.2636 46.1291C90.4182 42.4709 85.4909 41.9609 82.8845 44.9C75.8873 39.54 68.9236 28.2773 72.9854 14.8754C65.8127 14.0282 58.0191 16.2182 51.2345 20.2054C49.4791 16.5445 48.5436 12.6318 48.5436 7.23181C42.1309 10.6809 36.9709 17.0773 33.7045 24.3009C30.0609 22.2991 26.9954 19.61 23.8373 15.1027C20.5991 21.5264 20.0164 29.6154 21.4227 37.3264C17.3218 37.7609 13.2891 37.3091 8.15181 35.4391C9.20454 42.6455 13.4545 49.6936 19.1345 55.2427C16.0173 57.9773 12.4418 59.9336 7.12817 61.3582C12.07 66.6036 19.4836 69.9218 27.2236 71.2309C26.2336 75.2073 24.4264 78.8218 20.9309 82.9864C28.0245 84.4509 36.0327 82.9009 43.1436 79.5082C44.6191 83.3409 45.2145 87.3454 44.7454 92.7682C54.8327 88.4227 64.6909 75.5818 66.3727 60.4627C74.7582 59.0627 79.9545 56.2364 84.1754 53.9991C90.0754 56.7991 94.5418 50.7636 92.2636 46.1291Z" stroke="black" stroke-width="8" stroke-linecap="round" stroke-linejoin="round"/>
</svg>
