<svg width="100" height="100" viewBox="0 0 100 100" fill="none" xmlns="http://www.w3.org/2000/svg">
<path fill-rule="evenodd" clip-rule="evenodd" d="M31.99 6.52014C37.6999 4.15505 43.8197 2.93774 50 2.93774C56.1803 2.93774 62.3 4.15505 68.0099 6.52014C73.7197 8.88524 78.9078 12.3518 83.278 16.7219C87.6481 21.0921 91.1147 26.2802 93.4798 31.99C95.8449 37.6999 97.0622 43.8197 97.0622 50C97.0622 56.1803 95.8449 62.3 93.4798 68.0099C91.1147 73.7197 87.6481 78.9078 83.278 83.278C78.9078 87.6481 73.7197 91.1147 68.0099 93.4798C64.7898 94.8136 61.4394 95.7823 58.0213 96.3736L58.0032 96.3781C57.7815 96.4335 57.5595 96.4693 57.339 96.4864C54.917 96.8688 52.4633 97.0622 50 97.0622C43.8197 97.0622 37.6999 95.8449 31.99 93.4798C26.2802 91.1147 21.0921 87.6481 16.7219 83.278C12.3518 78.9078 8.88524 73.7197 6.52014 68.0099C4.15504 62.3 2.93774 56.1803 2.93774 50C2.93774 43.8197 4.15504 37.6999 6.52014 31.99C8.88524 26.2802 12.3518 21.0921 16.7219 16.7219C21.0921 12.3518 26.2802 8.88524 31.99 6.52014ZM64.9484 86.0888C63.3263 86.7606 61.6644 87.3209 59.9742 87.7673L53.8805 63.3841C53.4474 61.6512 51.9179 60.4154 50.1327 60.3561C44.4804 60.1684 39.2539 58.4292 35.5458 55.889C31.7868 53.3137 30.0764 50.3101 30.0764 47.6075C30.0764 44.6469 31.7859 41.5573 35.378 39.043C38.9573 36.5376 44.1148 34.8611 49.9999 34.8611C56.1359 34.8611 60.0859 35.9727 62.9624 37.817C65.7971 39.6344 68.0386 42.4487 70.2287 46.7716C70.2482 46.8317 70.2718 46.9053 70.3 46.9936C70.406 47.3254 70.5611 47.8185 70.7667 48.4785C71.1773 49.7959 71.7805 51.7484 72.5774 54.3392C74.0902 59.2572 76.2965 66.4601 79.1978 75.9488C78.6894 76.5209 78.1636 77.0786 77.6211 77.6211C73.9939 81.2484 69.6877 84.1257 64.9484 86.0888ZM86.0888 64.9484C85.7403 65.7896 85.3631 66.6172 84.9579 67.4297C82.9686 60.9281 81.3906 55.7803 80.2238 51.9871C79.4262 49.3942 78.8195 47.4302 78.4044 46.0982C78.1973 45.4335 78.0355 44.9188 77.9208 44.5595C77.864 44.3816 77.8148 44.2298 77.7757 44.1125C77.7568 44.0557 77.7346 43.9902 77.7121 43.9269C77.7012 43.8962 77.684 43.8484 77.6629 43.7937L77.6618 43.7907L77.6617 43.7906L77.6617 43.7904C77.6509 43.7623 77.5912 43.6066 77.501 43.4263C74.9437 38.3116 71.8579 34.0172 67.2802 31.0822C62.6938 28.1418 57.0744 26.8611 49.9999 26.8611C42.6745 26.8611 35.8702 28.9334 30.7904 32.489C25.7234 36.0357 22.0764 41.3193 22.0764 47.6075C22.0764 53.881 25.9905 59.0401 31.0245 62.4887C35.3687 65.4649 40.9174 67.4648 46.8205 68.1298L52.0385 89.0089C51.3603 89.0444 50.6806 89.0622 50 89.0622C44.8702 89.0622 39.7907 88.0518 35.0515 86.0888C30.3123 84.1257 26.0061 81.2484 22.3788 77.6211C18.7515 73.9939 15.8742 69.6877 13.9112 64.9484C11.9481 60.2092 10.9377 55.1297 10.9377 50C10.9377 44.8702 11.9481 39.7907 13.9112 35.0515C15.8742 30.3123 18.7515 26.0061 22.3788 22.3788C26.0061 18.7515 30.3123 15.8742 35.0515 13.9112C39.7907 11.9481 44.8702 10.9377 50 10.9377C55.1297 10.9377 60.2092 11.9481 64.9484 13.9112C69.6877 15.8742 73.9939 18.7515 77.6211 22.3788C81.2484 26.0061 84.1257 30.3123 86.0888 35.0515C88.0518 39.7907 89.0622 44.8702 89.0622 50C89.0622 55.1297 88.0518 60.2092 86.0888 64.9484ZM56.599 43.1145C56.599 44.3697 55.5815 45.3873 54.3263 45.3873C53.0711 45.3873 52.0536 44.3697 52.0536 43.1145C52.0536 41.8593 53.0711 40.8418 54.3263 40.8418C55.5815 40.8418 56.599 41.8593 56.599 43.1145Z" fill="black"/>
</svg>
