<svg width="100" height="100" viewBox="0 0 100 100" fill="none" xmlns="http://www.w3.org/2000/svg">
<g clip-path="url(#clip0_328_4226)">
<path d="M48.6879 20.1843L49.071 22.2226H51.1449H87.6149C93.0715 22.2226 97.5 26.647 97.5 32.1077V77.9821C97.5 83.4379 93.0708 87.8672 87.6149 87.8672H12.3851C6.92684 87.8672 2.5 83.4383 2.5 77.9821V42.2029V32.1077V22.018C2.5 16.557 6.92612 12.1329 12.3851 12.1329H38.991C43.815 12.1329 47.8259 15.5971 48.6879 20.1843Z" stroke="black" stroke-width="5"/>
<path d="M47.8839 36.0935L30.0217 62.7303M52.1665 36.0935L70.0293 62.7303M31.6967 41.5682L45.5827 33.4428M68.3332 41.5682L54.4465 33.4428M68.3332 68.2324L54.4465 76.3578M31.7702 68.2324L45.6569 76.3578M27.8558 48.4374V61.8069M72.1741 48.4374V61.8069M32.0662 66.0173H67.9637M53.7505 32.7505C53.7505 34.8219 52.0713 36.501 49.9999 36.501C47.9286 36.501 46.2494 34.8219 46.2494 32.7505C46.2494 30.6792 47.9286 29 49.9999 29C52.0713 29 53.7505 30.6792 53.7505 32.7505ZM53.7505 77.0414C53.7505 79.1127 52.0713 80.7919 49.9999 80.7919C47.9286 80.7919 46.2494 79.1127 46.2494 77.0414C46.2494 74.97 47.9286 73.2909 49.9999 73.2909C52.0713 73.2909 53.7505 74.97 53.7505 77.0414ZM31.501 66.0727C31.501 68.1441 29.8219 69.8232 27.7505 69.8232C25.6792 69.8232 24 68.1441 24 66.0727C24 64.0014 25.6792 62.3222 27.7505 62.3222C29.8219 62.3222 31.501 64.0014 31.501 66.0727ZM31.501 43.7185C31.501 45.7899 29.8219 47.469 27.7505 47.469C25.6792 47.469 24 45.7899 24 43.7185C24 41.6472 25.6792 39.968 27.7505 39.968C29.8219 39.968 31.501 41.6472 31.501 43.7185ZM75.9999 43.7185C75.9999 45.7899 74.3207 47.469 72.2494 47.469C70.178 47.469 68.4988 45.7899 68.4988 43.7185C68.4988 41.6472 70.178 39.968 72.2494 39.968C74.3207 39.968 75.9999 41.6472 75.9999 43.7185ZM75.9999 66.0727C75.9999 68.1441 74.3207 69.8232 72.2494 69.8232C70.178 69.8232 68.4988 68.1441 68.4988 66.0727C68.4988 64.0014 70.178 62.3222 72.2494 62.3222C74.3207 62.3222 75.9999 64.0014 75.9999 66.0727Z" stroke="black" stroke-width="3.63762" stroke-linecap="round" stroke-linejoin="round"/>
</g>
<defs>
<clipPath id="clip0_328_4226">
<rect width="100" height="100" fill="white"/>
</clipPath>
</defs>
</svg>
