<svg width="100" height="100" viewBox="0 0 100 100" fill="none" xmlns="http://www.w3.org/2000/svg">
<g clip-path="url(#clip0_328_3971)">
<path d="M48.6879 20.1843L49.071 22.2226H51.1449H87.6149C93.0715 22.2226 97.5 26.647 97.5 32.1077V77.982C97.5 83.4379 93.0708 87.8671 87.6149 87.8671H12.3851C6.92684 87.8671 2.5 83.4383 2.5 77.982V42.2029V32.1077V22.0179C2.5 16.5569 6.92612 12.1328 12.3851 12.1328H38.991C43.815 12.1328 47.8259 15.5971 48.6879 20.1843Z" stroke="black" stroke-width="5"/>
<path d="M62.8906 50.25C63.8802 50.1979 64.6875 49.9896 65.3125 49.625C65.9896 49.2083 66.4844 48.7396 66.7969 48.2188C67.1094 47.6979 67.2656 47.151 67.2656 46.5781C67.2656 46.0573 67.1094 45.5365 66.7969 45.0156C66.4844 44.4948 65.9896 44.0521 65.3125 43.6875C64.6875 43.2708 63.8802 43.0365 62.8906 42.9844H39.4531C38.4635 43.0365 37.6302 43.2708 36.9531 43.6875C36.3281 44.0521 35.8594 44.4948 35.5469 45.0156C35.2344 45.5365 35.0781 46.0573 35.0781 46.5781C35.0781 47.151 35.2344 47.6979 35.5469 48.2188C35.8594 48.7396 36.3281 49.2083 36.9531 49.625C37.6302 49.9896 38.4635 50.1979 39.4531 50.25C39.5052 50.25 39.5573 50.25 39.6094 50.25H62.7344C62.7865 50.25 62.8385 50.25 62.8906 50.25ZM63.2031 68.2188C64.1927 68.1667 65 67.9323 65.625 67.5156C66.3021 67.099 66.7969 66.6302 67.1094 66.1094C67.4219 65.5885 67.5781 65.0417 67.5781 64.4688C67.5781 63.8958 67.4219 63.349 67.1094 62.8281C66.7969 62.3073 66.3021 61.8385 65.625 61.4219C65 61.0052 64.1927 60.7708 63.2031 60.7188H39.1406C38.151 60.7708 37.3177 61.0052 36.6406 61.4219C36.0156 61.8385 35.5469 62.3073 35.2344 62.8281C34.9219 63.349 34.7656 63.8958 34.7656 64.4688C34.7656 65.0417 34.9219 65.5885 35.2344 66.1094C35.5469 66.6302 36.0156 67.099 36.6406 67.5156C37.3177 67.9323 38.151 68.1667 39.1406 68.2188H63.2031ZM76.875 58.1406C77.8646 60.224 78.3594 62.3333 78.3594 64.4688C78.3594 66.5 77.8385 68.5573 76.7969 70.6406C75.7552 72.6719 74.0625 74.4948 71.7188 76.1094C69.375 77.6719 66.3802 78.5052 62.7344 78.6094C62.1094 78.6615 61.6406 78.6875 61.3281 78.6875H41.0156C40.7031 78.6875 40.2344 78.6615 39.6094 78.6094C35.9635 78.5052 32.9688 77.6719 30.625 76.1094C28.2812 74.4948 26.5885 72.6719 25.5469 70.6406C24.5052 68.5573 23.9844 66.5 23.9844 64.4688C23.9844 62.3333 24.5052 60.224 25.5469 58.1406C26.0677 57.099 26.7708 56.1094 27.6562 55.1719C26.9271 54.3906 26.3281 53.5312 25.8594 52.5938C24.8177 50.6146 24.2969 48.6094 24.2969 46.5781C24.2969 44.5469 24.7917 42.5156 25.7812 40.4844C26.8229 38.4531 28.5156 36.6823 30.8594 35.1719C33.2552 33.6094 36.276 32.8021 39.9219 32.75H62.4219C66.0677 32.8021 69.0625 33.6094 71.4062 35.1719C73.8021 36.6823 75.4948 38.4531 76.4844 40.4844C77.526 42.5156 78.0469 44.5469 78.0469 46.5781C78.0469 48.6094 77.526 50.6146 76.4844 52.5938C76.0156 53.5312 75.4167 54.3906 74.6875 55.1719C75.5729 56.1094 76.3021 57.099 76.875 58.1406Z" fill="black"/>
</g>
<defs>
<clipPath id="clip0_328_3971">
<rect width="100" height="100" fill="white"/>
</clipPath>
</defs>
</svg>
