<svg width="100" height="100" viewBox="0 0 100 100" fill="none" xmlns="http://www.w3.org/2000/svg">
<g clip-path="url(#clip0_328_4367)">
<path d="M48.6879 20.1843L49.071 22.2226H51.1449H87.6149C93.0715 22.2226 97.5 26.647 97.5 32.1077V77.9821C97.5 83.4379 93.0708 87.8672 87.6149 87.8672H12.3851C6.92684 87.8672 2.5 83.4383 2.5 77.9821V42.2029V32.1077V22.018C2.5 16.557 6.92612 12.1329 12.3851 12.1329H38.991C43.815 12.1329 47.8259 15.5971 48.6879 20.1843Z" stroke="black" stroke-width="5"/>
<path d="M42.3187 67.5524V64.956C42.3187 63.7694 41.111 62.8069 39.3154 61.207C36.528 58.7242 33 55.3247 33 48.1857C33 38.7084 40.4665 31 50 31C59.5335 31 67 38.7084 67 48.1857C67 54.8891 63.846 57.8786 61.0779 60.2817C59.0333 62.0568 57.6835 63.15 57.6835 64.956V67.5524M42.3187 67.5524C42.2856 69.0726 42.3016 70.647 42.3016 72.1821C42.3016 76.8586 45.3433 80 50.0556 80C54.6032 80 57.708 76.8586 57.708 72.1821C57.7112 70.6587 57.7144 69.0153 57.6835 67.5524M42.3187 67.5524C48 70 52.5856 70.0012 57.6835 67.5524" stroke="black" stroke-width="5" stroke-linecap="round"/>
</g>
<defs>
<clipPath id="clip0_328_4367">
<rect width="100" height="100" fill="white"/>
</clipPath>
</defs>
</svg>
