<svg width="100" height="100" viewBox="0 0 100 100" fill="none" xmlns="http://www.w3.org/2000/svg">
<g clip-path="url(#clip0_328_4182)">
<path d="M48.6879 20.1843L49.071 22.2226H51.1449H87.6149C93.0715 22.2226 97.5 26.647 97.5 32.1077V77.9821C97.5 83.4379 93.0708 87.8672 87.6149 87.8672H12.3851C6.92684 87.8672 2.5 83.4383 2.5 77.9821V42.2029V32.1077V22.018C2.5 16.557 6.92612 12.1329 12.3851 12.1329H38.991C43.815 12.1329 47.8259 15.5971 48.6879 20.1843Z" stroke="black" stroke-width="5"/>
<path d="M34.4293 41.1818L20 55.6111L34.1668 69.7785M60.749 41.1818L75.1783 55.6111L61.0116 69.7785" stroke="black" stroke-width="5.14581" stroke-linecap="round" stroke-linejoin="round"/>
<path d="M52.6643 32L42.5171 79" stroke="black" stroke-width="5.14581" stroke-linecap="round" stroke-linejoin="round"/>
</g>
<defs>
<clipPath id="clip0_328_4182">
<rect width="100" height="100" fill="white"/>
</clipPath>
</defs>
</svg>
