<svg width="100" height="100" viewBox="0 0 100 100" fill="none" xmlns="http://www.w3.org/2000/svg">
<g clip-path="url(#clip0_328_4322)">
<path d="M48.6879 20.1843L49.071 22.2225H51.1449H87.6149C93.0715 22.2225 97.5 26.647 97.5 32.1076V77.982C97.5 83.4379 93.0708 87.8671 87.6149 87.8671H12.3851C6.92684 87.8671 2.5 83.4382 2.5 77.982V42.2029V32.1076V22.0179C2.5 16.5569 6.92612 12.1328 12.3851 12.1328H38.991C43.815 12.1328 47.8259 15.597 48.6879 20.1843Z" stroke="black" stroke-width="5"/>
<path d="M50.334 32L31 40.593V53.483C31 65.406 39.25 76.555 50.334 79.263C61.42 76.555 69.668 65.406 69.668 53.483V40.593L50.334 32Z" stroke="black" stroke-width="5.7041" stroke-linecap="round" stroke-linejoin="round"/>
<path d="M40.3259 57.615L46.0849 63.374L60.1749 49.286" stroke="black" stroke-width="5.7041" stroke-linecap="round" stroke-linejoin="round"/>
</g>
<defs>
<clipPath id="clip0_328_4322">
<rect width="100" height="100" fill="white"/>
</clipPath>
</defs>
</svg>
