<svg width="100" height="100" viewBox="0 0 100 100" fill="none" xmlns="http://www.w3.org/2000/svg">
<g clip-path="url(#clip0_328_4408)">
<path d="M48.6879 20.1843L49.071 22.2225H51.1449H87.6149C93.0715 22.2225 97.5 26.647 97.5 32.1076V77.982C97.5 83.4379 93.0708 87.8671 87.6149 87.8671H12.3851C6.92684 87.8671 2.5 83.4382 2.5 77.982V42.2029V32.1076V22.0179C2.5 16.5569 6.92612 12.1328 12.3851 12.1328H38.991C43.815 12.1328 47.8259 15.597 48.6879 20.1843Z" stroke="black" stroke-width="5"/>
<path d="M63 49C64.6569 49 66 47.6569 66 46C66 44.3431 64.6569 43 63 43C61.3431 43 60 44.3431 60 46C60 47.6569 61.3431 49 63 49Z" stroke="black" stroke-width="5" stroke-miterlimit="10"/>
<path d="M56.231 66.7327L44.4625 55.1948C43.7136 54.4592 42.7069 54.0325 41.6483 54.0018C40.5897 53.9711 39.5591 54.3387 38.7673 55.0296L23 68.7991M45.8458 79L61.8574 63.2737C62.5895 62.553 63.5695 62.1272 64.6048 62.0799C65.6402 62.0326 66.6562 62.3672 67.4532 63.0181L77 70.8391" stroke="black" stroke-width="5" stroke-linecap="round" stroke-linejoin="round"/>
<path d="M70.7696 34H29.2303C25.7894 34 23 36.7471 23 40.1359V72.8641C23 76.2529 25.7894 79 29.2303 79H70.7696C74.2106 79 77 76.2529 77 72.8641V40.1359C77 36.7471 74.2106 34 70.7696 34Z" stroke="black" stroke-width="5" stroke-linejoin="round"/>
</g>
<defs>
<clipPath id="clip0_328_4408">
<rect width="100" height="100" fill="white"/>
</clipPath>
</defs>
</svg>
