<svg width="100" height="100" viewBox="0 0 100 100" fill="none" xmlns="http://www.w3.org/2000/svg">
<g clip-path="url(#clip0_328_4308)">
<path d="M48.6879 20.1843L49.071 22.2225H51.1449H87.6149C93.0715 22.2225 97.5 26.647 97.5 32.1076V77.982C97.5 83.4379 93.0708 87.8671 87.6149 87.8671H12.3851C6.92684 87.8671 2.5 83.4382 2.5 77.982V42.2029V32.1076V22.0179C2.5 16.5569 6.92612 12.1328 12.3851 12.1328H38.991C43.815 12.1328 47.8259 15.597 48.6879 20.1843Z" stroke="black" stroke-width="5"/>
<path d="M55.3679 36.8445L68.1555 49.6309M25 80H37.7864L71.3518 46.4346C73.0474 44.739 74 42.4393 74 40.0414C74 37.6434 73.0474 35.3437 71.3518 33.6482C69.6563 31.9526 67.3566 31 64.9586 31C62.5607 31 60.261 31.9526 58.5654 33.6482L25 67.2136V80Z" stroke="black" stroke-width="5" stroke-linecap="round" stroke-linejoin="round"/>
</g>
<defs>
<clipPath id="clip0_328_4308">
<rect width="100" height="100" fill="white"/>
</clipPath>
</defs>
</svg>
