<svg width="100" height="100" viewBox="0 0 100 100" fill="none" xmlns="http://www.w3.org/2000/svg">
<g clip-path="url(#clip0_328_4545)">
<path d="M100 32.1076V77.982C100 84.8186 94.4515 90.3671 87.6149 90.3671H12.3851C5.54577 90.3671 0 84.8186 0 77.982V42.2029V32.1076V22.0179C0 15.1758 5.54577 9.63281 12.3851 9.63281H38.991C45.046 9.63281 50.0661 13.9814 51.1449 19.7225H87.6149C94.4515 19.7225 100 25.2656 100 32.1076Z" fill="black"/>
<path fill-rule="evenodd" clip-rule="evenodd" d="M29 36.0543C29 34.9197 29.9197 34 31.0543 34H69.9354C71.07 34 71.9897 34.9197 71.9897 36.0543V43.6641H29V36.0543ZM29 50.6641V74.9354C29 76.07 29.9197 76.9897 31.0543 76.9897H38.6628V50.6641H29ZM45.6628 76.9897H69.9354C71.07 76.9897 71.9897 76.07 71.9897 74.9354V50.6641H45.6628V76.9897ZM31.0543 27C26.0537 27 22 31.0537 22 36.0543V74.9354C22 79.936 26.0537 83.9897 31.0543 83.9897H69.9354C74.936 83.9897 78.9897 79.936 78.9897 74.9354V36.0543C78.9897 31.0537 74.936 27 69.9354 27H31.0543Z" fill="white"/>
</g>
<defs>
<clipPath id="clip0_328_4545">
<rect width="100" height="100" fill="white"/>
</clipPath>
</defs>
</svg>
