<svg width="100" height="100" viewBox="0 0 100 100" fill="none" xmlns="http://www.w3.org/2000/svg">
<g clip-path="url(#clip0_328_4293)">
<path d="M48.6879 20.1843L49.071 22.2225H51.1449H87.6149C93.0715 22.2225 97.5 26.647 97.5 32.1076V77.982C97.5 83.4379 93.0708 87.8671 87.6149 87.8671H12.3851C6.92684 87.8671 2.5 83.4382 2.5 77.982V42.2029V32.1076V22.0179C2.5 16.5569 6.92612 12.1328 12.3851 12.1328H38.991C43.815 12.1328 47.8259 15.597 48.6879 20.1843Z" stroke="black" stroke-width="5"/>
<path d="M67.1665 43H43.8335C40.6118 43 38 45.6118 38 48.8335V72.1665C38 75.3882 40.6118 78 43.8335 78H67.1665C70.3882 78 73 75.3882 73 72.1665V48.8335C73 45.6118 70.3882 43 67.1665 43Z" stroke="black" stroke-width="5"/>
<path d="M61 42.667V36.8335C61 35.2864 60.3854 33.8026 59.2914 32.7086C58.1974 31.6146 56.7136 31 55.1665 31H31.8335C30.2864 31 28.8026 31.6146 27.7086 32.7086C26.6146 33.8026 26 35.2864 26 36.8335V60.1665C26 61.7136 26.6146 63.1974 27.7086 64.2914C28.8026 65.3854 30.2864 66 31.8335 66H37.6659" stroke="black" stroke-width="5"/>
</g>
<defs>
<clipPath id="clip0_328_4293">
<rect width="100" height="100" fill="white"/>
</clipPath>
</defs>
</svg>
