<svg width="100" height="100" viewBox="0 0 100 100" fill="none" xmlns="http://www.w3.org/2000/svg">
<g clip-path="url(#clip0_328_3911)">
<path d="M48.6879 20.1843L49.071 22.2226H51.1449H87.6149C93.0715 22.2226 97.5 26.647 97.5 32.1077V77.982C97.5 83.4379 93.0708 87.8671 87.6149 87.8671H12.3851C6.92684 87.8671 2.5 83.4383 2.5 77.982V42.2029V32.1077V22.0179C2.5 16.5569 6.92612 12.1328 12.3851 12.1328H38.991C43.815 12.1328 47.8259 15.5971 48.6879 20.1843Z" stroke="black" stroke-width="5"/>
<path d="M31.0156 52.3594C30.1302 51.2135 29.7656 49.9375 29.9219 48.5312C30.1302 47.125 30.8073 45.9531 31.9531 45.0156L47.3438 33.0625C48.4896 32.0208 49.7917 31.5 51.25 31.5C52.6562 31.5521 53.8542 32.0729 54.8438 33.0625C55.8333 34 56.3542 35.1719 56.4062 36.5781V74.8594C56.0938 77.9844 54.375 79.6771 51.25 79.9375C49.7917 79.9375 48.5156 79.4688 47.4219 78.5312C46.3802 77.5417 45.8594 76.3177 45.8594 74.8594V47.5156L38.3594 53.2969C37.2135 54.1823 35.9375 54.5208 34.5312 54.3125C33.0729 54.1562 31.901 53.5052 31.0156 52.3594Z" fill="black"/>
</g>
<defs>
<clipPath id="clip0_328_3911">
<rect width="100" height="100" fill="white"/>
</clipPath>
</defs>
</svg>
