<svg width="100" height="100" viewBox="0 0 100 100" fill="none" xmlns="http://www.w3.org/2000/svg">
<path d="M100 32.1076V77.982C100 84.8186 94.4515 90.3671 87.6149 90.3671H12.3851C5.54577 90.3671 0 84.8186 0 77.982V42.2029V32.1076V22.0179C0 15.1758 5.54577 9.63281 12.3851 9.63281H38.991C45.046 9.63281 50.0661 13.9814 51.1449 19.7225H87.6149C94.4515 19.7225 100 25.2656 100 32.1076Z" fill="black"/>
<path fill-rule="evenodd" clip-rule="evenodd" d="M52.9287 26.1682C51.5527 24.8106 49.3368 24.8255 47.9792 26.2014L41.0427 33.2312C39.685 34.6072 39.6998 36.8232 41.0758 38.1809C42.4517 39.5386 44.6677 39.5237 46.0254 38.1478L50.5038 33.6092L54.9033 37.9497C56.2793 39.3073 58.4954 39.2924 59.8529 37.9164C61.2105 36.5404 61.1956 34.3243 59.8196 32.9667L52.9287 26.1682ZM70.6644 43.7649C69.2886 42.4071 67.0726 42.4218 65.7148 43.7976C64.357 45.1735 64.3717 47.3895 65.7475 48.7473L70.2855 53.2257L65.9447 57.6254C64.5871 59.0014 64.6021 61.2174 65.9781 62.575C67.3541 63.9326 69.5701 63.9176 70.9277 62.5416L77.7263 55.6507C79.0838 54.2749 79.069 52.0591 77.6933 50.7014L70.6644 43.7649ZM34.9496 48.9001C36.3073 47.5241 36.2925 45.3081 34.9166 43.9504C33.5406 42.5927 31.3246 42.6075 29.9669 43.9834L23.1683 50.8733C22.5164 51.534 22.1535 52.4267 22.1597 53.3549C22.1659 54.2832 22.5406 55.171 23.2014 55.8229L30.2312 62.7595C31.6072 64.1171 33.8232 64.1023 35.1809 62.7264C36.5386 61.3504 36.5237 59.1344 35.1478 57.7767L30.6093 53.2985L34.9496 48.9001ZM59.8524 73.5713C61.2103 72.1955 61.1958 69.9795 59.8201 68.6216C58.4444 67.2638 56.2283 67.2782 54.8704 68.654L50.3902 73.1932L45.9913 68.8526C44.6154 67.4949 42.3994 67.5097 41.0417 68.8856C39.684 70.2615 39.6988 72.4775 41.0747 73.8352L47.9645 80.6338C49.3403 81.9914 51.5561 81.9767 52.9139 80.6011L59.8524 73.5713ZM46.7915 53.3202C46.7915 51.3713 48.3714 49.7914 50.3203 49.7914C52.2692 49.7914 53.8491 51.3713 53.8491 53.3202C53.8491 55.2691 52.2692 56.849 50.3203 56.849C48.3714 56.849 46.7915 55.2691 46.7915 53.3202ZM50.3203 42.7914C44.5054 42.7914 39.7915 47.5053 39.7915 53.3202C39.7915 59.1351 44.5054 63.849 50.3203 63.849C56.1352 63.849 60.8491 59.1351 60.8491 53.3202C60.8491 47.5053 56.1352 42.7914 50.3203 42.7914Z" fill="white"/>
</svg>
