<svg width="100" height="100" viewBox="0 0 100 100" fill="none" xmlns="http://www.w3.org/2000/svg">
<path fill-rule="evenodd" clip-rule="evenodd" d="M41.2114 14.1456C39.6349 12.598 37.1024 12.6214 35.5548 14.1978C34.0071 15.7743 34.0305 18.3068 35.607 19.8544L40.4994 24.6572C39.5119 26.3137 38.9446 28.2497 38.9446 30.3182C38.9446 35.0251 41.882 39.0459 46.0237 40.6476V58.3733C41.882 59.975 38.9446 63.9958 38.9446 68.7027C38.9446 74.817 43.9012 79.7737 50.0155 79.7737C56.1298 79.7737 61.0864 74.817 61.0864 68.7027C61.0864 64.002 58.1567 59.9856 54.0237 58.3797V40.6412C54.5881 40.4219 55.13 40.1577 55.6451 39.8529L59.7919 44.0291C58.795 45.6911 58.2219 47.6363 58.2219 49.7154C58.2219 55.8297 63.1785 60.7864 69.2928 60.7864C75.4071 60.7864 80.3637 55.8297 80.3637 49.7154C80.3637 43.6011 75.4071 38.6445 69.2928 38.6445C68.2063 38.6445 67.1563 38.801 66.1643 39.0928L60.6197 33.5088C60.9233 32.4985 61.0864 31.4274 61.0864 30.3182C61.0864 24.2039 56.1298 19.2473 50.0155 19.2473C48.9227 19.2473 47.867 19.4056 46.8699 19.7005L41.2114 14.1456ZM52.7538 31.7096C52.9665 31.2919 53.0864 30.819 53.0864 30.3182C53.0864 28.6221 51.7115 27.2473 50.0155 27.2473C48.3195 27.2473 46.9446 28.6221 46.9446 30.3182C46.9446 32.0142 48.3195 33.3891 50.0155 33.3891C50.911 33.3891 51.717 33.0057 52.2784 32.3942C52.4103 32.1539 52.5688 31.9242 52.7538 31.7096ZM69.2928 46.6445C67.5968 46.6445 66.2219 48.0194 66.2219 49.7154C66.2219 51.4115 67.5968 52.7864 69.2928 52.7864C70.9888 52.7864 72.3637 51.4115 72.3637 49.7154C72.3637 48.0194 70.9888 46.6445 69.2928 46.6445ZM50.0155 65.6318C48.3195 65.6318 46.9446 67.0067 46.9446 68.7027C46.9446 70.3988 48.3195 71.7737 50.0155 71.7737C51.7115 71.7737 53.0864 70.3988 53.0864 68.7027C53.0864 67.0067 51.7115 65.6318 50.0155 65.6318Z" fill="black"/>
<path d="M90.7283 44.4642L55.5362 9.27215C52.4788 6.2147 47.5217 6.2147 44.4642 9.27215L9.27218 44.4642C6.21473 47.5217 6.21473 52.4788 9.27218 55.5362L44.4642 90.7283C47.5217 93.7857 52.4788 93.7857 55.5362 90.7283L90.7283 55.5362C93.7858 52.4788 93.7858 47.5217 90.7283 44.4642Z" stroke="black" stroke-width="8" stroke-linecap="round" stroke-linejoin="round"/>
</svg>
