<svg width="100" height="100" viewBox="0 0 100 100" fill="none" xmlns="http://www.w3.org/2000/svg">
<path d="M26.8182 15.2273H19.8637C17.6782 15.2273 15.2273 17.6782 15.2273 19.8637V41.8864C15.2273 45.7109 7.11456 46.1755 7.11456 50C7.11456 53.8246 15.2282 54.2891 15.2282 58.1137V80.1364C15.2282 82.3218 17.6782 84.7728 19.8646 84.7728H26.8191M73.1818 15.2273H80.1364C82.3218 15.2273 84.7728 17.6782 84.7728 19.8637V41.8864C84.7728 45.7109 92.8855 46.1755 92.8855 50C92.8855 53.8246 84.7718 54.2891 84.7718 58.1137V80.1364C84.7718 82.3218 82.3218 84.7728 80.1355 84.7728H73.1818" stroke="black" stroke-width="8" stroke-linecap="round" stroke-linejoin="round"/>
<mask id="path-2-inside-1_328_3627" fill="white">
<path d="M50.3864 71C52.5956 71 54.3864 69.2091 54.3864 67C54.3864 64.7909 52.5956 63 50.3864 63C48.1773 63 46.3864 64.7909 46.3864 67C46.3864 69.2091 48.1773 71 50.3864 71Z"/>
<path d="M67.7728 71C69.9819 71 71.7728 69.2091 71.7728 67C71.7728 64.7909 69.9819 63 67.7728 63C65.5636 63 63.7728 64.7909 63.7728 67C63.7728 69.2091 65.5636 71 67.7728 71Z"/>
<path d="M33 71C35.2091 71 37 69.2091 37 67C37 64.7909 35.2091 63 33 63C30.7909 63 29 64.7909 29 67C29 69.2091 30.7909 71 33 71Z"/>
</mask>
<path d="M50.3864 71C52.5956 71 54.3864 69.2091 54.3864 67C54.3864 64.7909 52.5956 63 50.3864 63C48.1773 63 46.3864 64.7909 46.3864 67C46.3864 69.2091 48.1773 71 50.3864 71Z" fill="black"/>
<path d="M67.7728 71C69.9819 71 71.7728 69.2091 71.7728 67C71.7728 64.7909 69.9819 63 67.7728 63C65.5636 63 63.7728 64.7909 63.7728 67C63.7728 69.2091 65.5636 71 67.7728 71Z" fill="black"/>
<path d="M33 71C35.2091 71 37 69.2091 37 67C37 64.7909 35.2091 63 33 63C30.7909 63 29 64.7909 29 67C29 69.2091 30.7909 71 33 71Z" fill="black"/>
<path d="M46.3864 67C46.3864 64.7909 48.1773 63 50.3864 63V79C57.0138 79 62.3864 73.6274 62.3864 67H46.3864ZM50.3864 63C52.5956 63 54.3864 64.7909 54.3864 67H38.3864C38.3864 73.6274 43.759 79 50.3864 79V63ZM54.3864 67C54.3864 69.2091 52.5956 71 50.3864 71V55C43.759 55 38.3864 60.3726 38.3864 67H54.3864ZM50.3864 71C48.1773 71 46.3864 69.2091 46.3864 67H62.3864C62.3864 60.3726 57.0138 55 50.3864 55V71ZM63.7728 67C63.7728 64.7909 65.5636 63 67.7728 63V79C74.4002 79 79.7728 73.6274 79.7728 67H63.7728ZM67.7728 63C69.9819 63 71.7728 64.7909 71.7728 67H55.7728C55.7728 73.6274 61.1453 79 67.7728 79V63ZM71.7728 67C71.7728 69.2091 69.9819 71 67.7728 71V55C61.1453 55 55.7728 60.3726 55.7728 67H71.7728ZM67.7728 71C65.5636 71 63.7728 69.2091 63.7728 67H79.7728C79.7728 60.3726 74.4002 55 67.7728 55V71ZM29 67C29 64.7909 30.7909 63 33 63V79C39.6274 79 45 73.6274 45 67H29ZM33 63C35.2091 63 37 64.7909 37 67H21C21 73.6274 26.3726 79 33 79V63ZM37 67C37 69.2091 35.2091 71 33 71V55C26.3726 55 21 60.3726 21 67H37ZM33 71C30.7909 71 29 69.2091 29 67H45C45 60.3726 39.6274 55 33 55V71Z" fill="black" mask="url(#path-2-inside-1_328_3627)"/>
</svg>
