<svg width="100" height="100" viewBox="0 0 100 100" fill="none" xmlns="http://www.w3.org/2000/svg">
<path fill-rule="evenodd" clip-rule="evenodd" d="M53.4958 62.325L43.3 52.25L43.4208 52.125C50.2206 44.5678 55.3012 35.6263 58.3125 25.9166H70.075V17.8791H41.975V9.85413H33.9458V17.8833H5.84167V25.9166H50.6833C47.9095 33.8501 43.5838 41.1518 37.9583 47.3958C34.2943 43.3353 31.1763 38.8138 28.6833 33.9458H20.6583C23.6685 40.6318 27.7031 46.8074 32.6167 52.25L12.1875 72.4041L17.8875 78.1041L37.9583 58.0333L50.4458 70.5166L53.4958 62.325ZM76.0958 41.975H68.0667L50.0042 90.15H58.0333L62.5292 78.1083H81.5958L86.1333 90.15H94.1625L76.0958 41.975ZM65.5792 70.075L72.0792 52.6916L78.5833 70.075H65.5792Z" fill="black"/>
</svg>
