<svg width="100" height="100" viewBox="0 0 100 100" fill="none" xmlns="http://www.w3.org/2000/svg">
<path d="M29.1667 39.4167H33.1667V35.4167V27.0833C33.1667 22.6189 34.9402 18.3372 38.0971 15.1804C41.2539 12.0235 45.5355 10.25 50 10.25C54.4645 10.25 58.7461 12.0235 61.903 15.1804C65.0598 18.3372 66.8334 22.6189 66.8334 27.0833V35.4167V39.4167H70.8334H75C76.1493 39.4167 77.2515 39.8732 78.0641 40.6859C78.8768 41.4985 79.3334 42.6007 79.3334 43.75V85.4167C79.3334 86.5659 78.8768 87.6681 78.0641 88.4808C77.2515 89.2935 76.1493 89.75 75 89.75H25C23.8508 89.75 22.7486 89.2934 21.9359 88.4808C21.1232 87.6681 20.6667 86.5659 20.6667 85.4167V43.75C20.6667 42.6007 21.1232 41.4985 21.9359 40.6859C22.7485 39.8732 23.8508 39.4167 25 39.4167H29.1667ZM33.5 35.4167V39.4167H37.5H62.5H66.5V35.4167V27.0833C66.5 22.7073 64.7616 18.5104 61.6673 15.4161C58.5729 12.3217 54.3761 10.5833 50 10.5833C45.6239 10.5833 41.4271 12.3217 38.3328 15.4161C35.2384 18.5104 33.5 22.7073 33.5 27.0833V35.4167ZM50 76.9167C53.271 76.9167 56.4081 75.6173 58.721 73.3043C61.0339 70.9914 62.3334 67.8543 62.3334 64.5833C62.3334 61.3123 61.034 58.1753 58.721 55.8624C56.4081 53.5494 53.271 52.25 50 52.25C46.729 52.25 43.592 53.5494 41.279 55.8624C38.9661 58.1753 37.6667 61.3123 37.6667 64.5833C37.6667 67.8543 38.9661 70.9914 41.279 73.3043C43.592 75.6173 46.729 76.9167 50 76.9167Z" stroke="black" stroke-width="8"/>
</svg>
