<svg width="100" height="100" viewBox="0 0 100 100" fill="none" xmlns="http://www.w3.org/2000/svg">
<path d="M29.0624 45.8304L10.845 52.5256C9.33295 53.0813 9.06476 55.1053 10.3799 56.0356L24.1236 65.7579" stroke="black" stroke-width="7"/>
<path d="M66.4324 14.1596C66.3515 14.2938 66.2663 14.4403 66.177 14.5998C65.1867 16.3689 64.092 18.9917 62.8169 22.3035C62.3263 23.5777 61.8142 24.9409 61.2787 26.3664C59.1087 32.1431 56.5544 38.9427 53.4893 44.9843L66.4324 14.1596ZM66.4324 14.1596C67.0312 14.9932 67.742 16.1535 68.55 17.6447C70.5594 21.3529 72.8876 26.575 75.2961 32.4856C79.5845 43.0097 84.0004 55.3991 87.1462 64.543C86.1325 63.8436 85.0722 63.1959 83.9903 62.6558C82.0317 61.6781 79.6802 60.89 77.2512 61.0982L66.4324 14.1596ZM69.5688 7.32584C68.8996 6.82778 67.8201 6.20285 66.4391 6.1941L32.7853 73.5894C33.0255 73.9211 33.4558 74.6003 34.0715 75.6893C34.7587 76.9049 35.5704 78.438 36.4442 80.1503C38.1897 83.5708 40.1335 87.6094 41.7388 91.0469C43.0661 93.8889 46.6238 95.1626 49.4842 93.4007C50.6097 92.7074 52.1341 91.721 53.8322 90.4915L51.7797 87.6565L53.8323 90.4915C57.2936 87.9855 61.6857 84.321 64.8214 79.9249L61.9719 77.8925L64.8214 79.9249C68.4814 74.7935 71.1798 71.8526 73.2823 70.1724C75.2848 68.5722 76.6701 68.1736 77.8487 68.0727L77.8488 68.0726C78.4489 68.0212 79.4421 68.2091 80.8639 68.9189C82.2396 69.6055 83.7254 70.6341 85.2002 71.8363C87.5774 73.7741 90.4961 73.1803 92.2041 72.1391C93.9126 71.0976 95.9307 68.6124 94.8509 65.4383C91.6806 56.1197 86.663 41.8308 81.7785 29.8441C79.3427 23.8663 76.8998 18.3609 74.7045 14.3097C73.6158 12.3006 72.5158 10.5129 71.4368 9.18074C70.8999 8.51783 70.2771 7.85299 69.5688 7.32584ZM65.3894 12.9412C65.3902 12.9418 65.391 12.9424 65.3918 12.9431C65.3681 12.9278 65.3669 12.9245 65.3894 12.9412ZM67.3268 12.9468C67.3399 12.9354 67.3464 12.9307 67.3463 12.9312C67.3463 12.9317 67.3398 12.9374 67.3268 12.9468Z" stroke="black" stroke-width="7"/>
</svg>
