<svg width="100" height="100" viewBox="0 0 100 100" fill="none" xmlns="http://www.w3.org/2000/svg">
<path d="M50 22.4054C38.5518 22.4054 31.4018 28.5381 28.5382 40.8018C32.83 34.6699 37.84 32.3699 43.5609 33.9036C46.83 34.7799 49.16 37.319 51.7418 40.1272C55.9545 44.7018 60.8236 49.9999 71.4618 49.9999C82.9109 49.9999 90.0609 43.8681 92.9245 31.6036C88.6318 37.7354 83.6218 40.0354 77.9009 38.5027C74.6327 37.6254 72.3027 35.0872 69.7209 32.2781C65.5082 27.7036 60.6391 22.4054 50 22.4054ZM28.5382 49.9999C17.0891 49.9999 9.93908 56.1318 7.07544 68.3963C11.3682 62.2645 16.3782 59.9645 22.0991 61.4972C25.3673 62.3745 27.6973 64.9127 30.2791 67.7218C34.4918 72.2963 39.3609 77.5945 50 77.5945C61.4482 77.5945 68.5982 71.4618 71.4618 59.1981C67.17 65.3299 62.16 67.6299 56.4391 66.0963C53.17 65.2199 50.84 62.6809 48.2582 59.8727C44.0454 55.2981 39.1764 49.9999 28.5382 49.9999Z" stroke="black" stroke-width="8" stroke-linecap="round" stroke-linejoin="round"/>
</svg>
