<svg width="100" height="100" viewBox="0 0 100 100" fill="none" xmlns="http://www.w3.org/2000/svg">
<path d="M62.4045 8.91636C63.089 9.76818 63.4381 10.9145 64.1372 13.2091L79.3954 63.3273C73.6641 60.3531 67.5128 58.2704 61.1536 57.1509L51.2227 23.5873C50.8554 22.3509 49.1027 22.3564 48.7427 23.5945L38.9263 57.14C32.5389 58.2548 26.36 60.3414 20.6045 63.3273L35.9363 13.2027C36.6345 10.9109 36.9845 9.76545 37.6727 8.91636C38.2772 8.16677 39.0637 7.58461 39.9572 7.22545C40.9699 6.82 42.1645 6.82 44.5609 6.82H55.5127C57.909 6.82 59.1099 6.82 60.1236 7.22909C61.014 7.58844 61.7978 8.16921 62.4009 8.91636H62.4045Z" stroke="url(#paint0_linear_106_1528)" stroke-width="6" stroke-linecap="round" stroke-linejoin="round"/>
<path d="M64.0646 68.2391C61.5501 70.3909 56.5301 71.8545 50.7482 71.8545C43.6492 71.8545 37.7001 69.6473 36.121 66.6745C35.5592 68.3791 35.4301 70.3282 35.4301 71.5718C35.4301 71.5718 35.0592 77.6855 39.311 81.94C39.311 79.7327 41.1028 77.94 43.311 77.94C47.0937 77.94 47.0901 81.2418 47.0873 83.9218V84.1618C47.0873 88.2282 49.571 91.7109 53.1055 93.1818C52.5616 92.0617 52.2799 90.8324 52.2819 89.5873C52.2819 85.71 54.5592 84.2673 57.2073 82.59C59.3101 81.2518 61.651 79.7709 63.2619 76.7909C64.1299 75.1887 64.5837 73.395 64.5819 71.5727C64.5819 70.4409 64.4082 69.3164 64.0646 68.2391Z" stroke="url(#paint1_linear_106_1528)" stroke-width="6" stroke-linecap="round" stroke-linejoin="round"/>
<defs>
<linearGradient id="paint0_linear_106_1528" x1="20.6173" y1="7.01799" x2="87.1714" y2="51.7145" gradientUnits="userSpaceOnUse">
<stop stop-color="white"/>
<stop offset="0.848958" stop-color="#7F787F"/>
<stop offset="0.982609" stop-color="#4B454B"/>
</linearGradient>
<linearGradient id="paint1_linear_106_1528" x1="35.3407" y1="66.6009" x2="61.8734" y2="95.7901" gradientUnits="userSpaceOnUse">
<stop stop-color="#D300DC"/>
<stop offset="0.505208" stop-color="#B12496"/>
<stop offset="1" stop-color="#F47D65"/>
</linearGradient>
</defs>
</svg>
