<svg width="100" height="100" viewBox="0 0 100 100" fill="none" xmlns="http://www.w3.org/2000/svg">
<path d="M54.5955 9.01818C53.3765 7.79964 51.7236 7.11511 50 7.11511C48.2765 7.11511 46.6235 7.79964 45.4046 9.01818L39.2318 15.1909H30.5018C28.7781 15.1911 27.125 15.8761 25.9062 17.095C24.6874 18.314 24.0027 19.9672 24.0027 21.6909V30.42L17.83 36.5927C16.6115 37.8117 15.9269 39.4646 15.9269 41.1882C15.9269 42.9117 16.6115 44.5647 17.83 45.7836L24.0027 51.9564V60.6855C24.0027 62.4094 24.6876 64.0627 25.9065 65.2816C27.1255 66.5006 28.7788 67.1855 30.5027 67.1855H37.0018V93.1818L50 80.1836L62.9982 93.1818V67.1855H69.4982C71.2219 67.1852 72.875 66.5003 74.0938 65.2813C75.3126 64.0624 75.9973 62.4092 75.9973 60.6855V51.9564L82.17 45.7836C82.7736 45.1802 83.2524 44.4638 83.579 43.6753C83.9057 42.8868 84.0738 42.0417 84.0738 41.1882C84.0738 40.3347 83.9057 39.4896 83.579 38.7011C83.2524 37.9126 82.7736 37.1962 82.17 36.5927L75.9973 30.42V21.69C75.9973 19.9661 75.3125 18.3128 74.0935 17.0938C72.8745 15.8748 71.2212 15.19 69.4973 15.19H60.7682L54.5955 9.01818Z" stroke="url(#paint0_linear_106_1543)" stroke-width="8" stroke-linecap="round" stroke-linejoin="round"/>
<path d="M50 54.0473C57.1791 54.0473 62.9982 48.2273 62.9982 41.0491C62.9982 33.87 57.1791 28.05 50 28.05C42.8209 28.05 37.0018 33.87 37.0018 41.0491C37.0018 48.2273 42.8209 54.0473 50 54.0473Z" stroke="url(#paint1_linear_106_1543)" stroke-width="8" stroke-linecap="round" stroke-linejoin="round"/>
<defs>
<linearGradient id="paint0_linear_106_1543" x1="15.7372" y1="6.87604" x2="99.9738" y2="73.5767" gradientUnits="userSpaceOnUse">
<stop stop-color="#D300DC"/>
<stop offset="0.505208" stop-color="#B12496"/>
<stop offset="1" stop-color="#F47D65"/>
</linearGradient>
<linearGradient id="paint1_linear_106_1543" x1="36.9294" y1="27.9778" x2="63.0702" y2="54.1187" gradientUnits="userSpaceOnUse">
<stop stop-color="#D300DC"/>
<stop offset="0.505208" stop-color="#B12496"/>
<stop offset="1" stop-color="#F47D65"/>
</linearGradient>
</defs>
</svg>
