<svg width="100" height="100" viewBox="0 0 100 100" fill="none" xmlns="http://www.w3.org/2000/svg">
<path fill-rule="evenodd" clip-rule="evenodd" d="M87.88 50.5C87.88 71.1444 71.1444 87.88 50.5 87.88C29.8556 87.88 13.12 71.1444 13.12 50.5C13.12 29.8556 29.8556 13.12 50.5 13.12C71.1444 13.12 87.88 29.8556 87.88 50.5ZM95 50.5C95 75.0767 75.0767 95 50.5 95C25.9233 95 6 75.0767 6 50.5C6 25.9233 25.9233 6 50.5 6C75.0767 6 95 25.9233 95 50.5ZM79.4252 55.8397C81.3913 55.8397 82.9852 54.2458 82.9852 52.2797C82.9852 50.3136 81.3913 48.7197 79.4252 48.7197H54.0602V22.9097C54.0602 20.9436 52.4663 19.3497 50.5002 19.3497C48.534 19.3497 46.9402 20.9436 46.9402 22.9097V52.2797V55.8397H50.5002H79.4252Z" fill="url(#paint0_linear_106_1493)"/>
<defs>
<linearGradient id="paint0_linear_106_1493" x1="5.555" y1="96.2489" x2="111.834" y2="28.684" gradientUnits="userSpaceOnUse">
<stop stop-color="#FDFDFD"/>
<stop offset="0.453125" stop-color="#D556B6"/>
<stop offset="0.973958" stop-color="#C94294"/>
</linearGradient>
</defs>
</svg>
