<svg width="100" height="100" viewBox="0 0 100 100" fill="none" xmlns="http://www.w3.org/2000/svg">
<path d="M85.7309 52.7409L50.04 88.0891L14.3491 52.7409C11.9957 50.45 10.1421 47.6966 8.90491 44.6541C7.66775 41.6117 7.07387 38.346 7.16065 35.0628C7.24744 31.7796 8.013 28.5499 9.40916 25.5771C10.8053 22.6042 12.8018 19.9526 15.273 17.7892C17.7441 15.6257 20.6364 13.9973 23.7678 13.0065C26.8991 12.0156 30.2017 11.6838 33.4676 12.0319C36.7334 12.38 39.8919 13.4004 42.7441 15.0289C45.5962 16.6575 48.0804 18.8589 50.04 21.4946C52.0081 18.8778 54.4951 16.6954 57.3453 15.084C60.1955 13.4725 63.3477 12.4667 66.6045 12.1294C69.8613 11.7921 73.1527 12.1306 76.2727 13.1237C79.3926 14.1168 82.2741 15.7432 84.7367 17.9011C87.1992 20.0589 89.1899 22.7018 90.5842 25.6643C91.9785 28.6269 92.7463 31.8453 92.8396 35.1182C92.933 38.3911 92.3498 41.648 91.1266 44.6852C89.9034 47.7224 88.0666 50.4744 85.7309 52.7691" stroke="url(#paint0_linear_106_2627)" stroke-width="8" stroke-linecap="round" stroke-linejoin="round"/>
<path d="M50.0391 21.4655L34.3691 37.1364C33.477 38.0288 32.9758 39.239 32.9758 40.5009C32.9758 41.7628 33.477 42.973 34.3691 43.8655L36.9527 46.4491C40.2364 49.7327 45.5664 49.7327 48.85 46.4491L53.6082 41.6909C55.0143 40.2847 56.6837 39.1693 58.5209 38.4082C60.3582 37.6472 62.3273 37.2555 64.3159 37.2555C66.3045 37.2555 68.2737 37.6472 70.1109 38.4082C71.9482 39.1693 73.6175 40.2847 75.0236 41.6909L85.7309 52.3982M52.4182 66.6745L61.9364 76.1927M64.3155 54.7773L73.8327 64.2955" stroke="url(#paint1_linear_106_2627)" stroke-width="8" stroke-linecap="round" stroke-linejoin="round"/>
<defs>
<linearGradient id="paint0_linear_106_2627" x1="6.91372" y1="11.6862" x2="82.9987" y2="97.2673" gradientUnits="userSpaceOnUse">
<stop stop-color="#D300DC"/>
<stop offset="0.505208" stop-color="#B12496"/>
<stop offset="1" stop-color="#F47D65"/>
</linearGradient>
<linearGradient id="paint1_linear_106_2627" x1="32.8289" y1="21.3134" x2="87.8213" y2="74.3263" gradientUnits="userSpaceOnUse">
<stop stop-color="#D300DC"/>
<stop offset="0.505208" stop-color="#B12496"/>
<stop offset="1" stop-color="#F47D65"/>
</linearGradient>
</defs>
</svg>
