<svg width="100" height="100" viewBox="0 0 100 100" fill="none" xmlns="http://www.w3.org/2000/svg">
<path d="M6.88 17.2882C6.88 13.6745 10.0755 10.7455 14.0164 10.7455H42.5655L50.2973 17.8827H85.9827C89.9245 17.8827 93.12 20.8118 93.12 24.4255L92.5255 82.7118C92.5255 86.3255 89.33 89.2545 85.3891 89.2545H14.0164C10.0755 89.2545 6.88 86.3255 6.88 82.7118V17.2882Z" stroke="url(#paint0_linear_106_1556)" stroke-width="8"/>
<path d="M59.2382 42.7155V73.5109M40.761 42.7155V73.5109M77.6273 42.7155V73.5109M77.7164 73.5109H22.2837V42.7155H77.7164M22.2837 58.1136H77.7164" stroke="url(#paint1_linear_106_1556)" stroke-width="8" stroke-linecap="round" stroke-linejoin="round"/>
<defs>
<linearGradient id="paint0_linear_106_1556" x1="6.88" y1="11.1025" x2="100.959" y2="77.849" gradientUnits="userSpaceOnUse">
<stop offset="0.0104167" stop-color="white"/>
<stop offset="0.510417" stop-color="#45A8E1"/>
<stop offset="1" stop-color="#298FD4"/>
</linearGradient>
<linearGradient id="paint1_linear_106_1556" x1="22.2837" y1="42.8555" x2="60.942" y2="87.7994" gradientUnits="userSpaceOnUse">
<stop offset="0.0104167" stop-color="white"/>
<stop offset="0.510417" stop-color="#45A8E1"/>
<stop offset="1" stop-color="#298FD4"/>
</linearGradient>
</defs>
</svg>
