<svg width="100" height="100" viewBox="0 0 100 100" fill="none" xmlns="http://www.w3.org/2000/svg">
<path fill-rule="evenodd" clip-rule="evenodd" d="M57.295 3.26924C57.1262 3.21296 56.9567 3.16022 56.7867 3.11111C54.712 2.51197 52.0041 2.30752 49.4632 3.53192L49.4614 3.53282L49.4608 3.53309L19.9762 17.7304C19.495 17.9479 19.0443 18.2544 18.6489 18.6498C18.2527 19.0459 17.9459 19.4975 17.7284 19.9796L3.53319 49.4635L3.5328 49.4643C2.30946 52.0046 2.51279 54.7115 3.11193 56.7871C3.72121 58.8979 4.8919 60.9287 6.41279 62.4503L6.4135 62.451L40.0153 96.0538C40.8592 96.8977 42.0038 97.3718 43.1973 97.3718H75.9773C78.4626 97.3718 80.4773 95.3571 80.4773 92.8718V80.4773H92.871C95.3563 80.4773 97.371 78.4626 97.371 75.9773V43.1982C97.371 42.0047 96.8969 40.8601 96.053 40.0162L62.4493 6.41257C61.0508 5.01408 59.2212 3.91155 57.295 3.26924ZM57.295 3.26924L43.9901 16.1564L57.295 3.26924ZM43.9901 16.1564L41.1275 17.5348L42.5516 17.5497L43.9901 16.1564Z" fill="url(#paint0_linear_106_1559)"/>
<defs>
<linearGradient id="paint0_linear_106_1559" x1="2.63647" y1="3.06613" x2="112.269" y2="73.8736" gradientUnits="userSpaceOnUse">
<stop offset="0.0104167" stop-color="white"/>
<stop offset="0.510417" stop-color="#45A8E1"/>
<stop offset="1" stop-color="#298FD4"/>
</linearGradient>
</defs>
</svg>
