<svg width="100" height="100" viewBox="0 0 100 100" fill="none" xmlns="http://www.w3.org/2000/svg">
<path d="M82.58 32.2755V61.4773C82.58 71.5391 81.8437 76.3655 79.6364 80.5364C77.5909 84.5455 74.891 87.0818 69.3282 89.8618L57.631 84.3C63.1928 81.6818 65.8928 79.3927 67.611 75.8745C69.411 72.2745 69.9837 68.1036 69.9837 57.1418V32.2755H82.58ZM57.1746 10.1382V68.4473C50.7128 69.6745 45.9682 70.1655 40.8146 70.1655C25.4373 70.1655 17.42 63.2127 17.42 49.8791C17.42 37.0355 25.9282 28.6927 39.0973 28.6927C41.1428 28.6927 42.6964 28.8564 44.5773 29.3473V10.1391H57.1755L57.1746 10.1382ZM40.3237 38.8364C33.9437 38.8364 30.2628 42.7627 30.2628 49.6327C30.2628 56.3418 33.78 60.0236 40.2428 60.0236C41.6337 60.0236 42.7791 59.9409 44.5773 59.6964V39.4882C43.1064 38.9991 41.8791 38.8364 40.3237 38.8364ZM82.58 10.2055V23.1309H69.9846V10.2055H82.5819H82.58Z" stroke="url(#paint0_linear_106_2649)" stroke-width="8" stroke-linecap="round" stroke-linejoin="round"/>
<defs>
<linearGradient id="paint0_linear_106_2649" x1="17.42" y1="10.1382" x2="98.0852" y2="68.3952" gradientUnits="userSpaceOnUse">
<stop stop-color="#5FC7FF"/>
<stop offset="1" stop-color="#2731F7"/>
</linearGradient>
</defs>
</svg>
