<svg width="100" height="100" viewBox="0 0 100 100" fill="none" xmlns="http://www.w3.org/2000/svg">
<path d="M38.8036 19.5345V33.1709M31.9854 33.1709V46.8073M45.6218 33.1709V46.8073M7.5436 46.86H66.7172L72.4281 44.7873C70.5809 38.3282 71.2145 31.8691 73.8354 25.4082C79.5736 28.8636 77.3391 37.2773 81.6018 38.0055C85.9609 37.4882 88.3463 37.0691 92.7054 40.0409C92.7054 40.0409 88.3481 48.5645 79.6291 49.8273C68.6363 71.0582 52.0591 84.6091 38.6963 83.5909C2.44269 80.8327 7.5436 46.86 7.5436 46.86ZM25.1672 19.5345H52.44V33.1709H25.1672V19.5345ZM18.3627 33.2109H59.2718V46.8473H18.3627V33.2109Z" stroke="url(#paint0_linear_106_1578)" stroke-width="7" stroke-linecap="round" stroke-linejoin="round"/>
<defs>
<linearGradient id="paint0_linear_106_1578" x1="7.29761" y1="19.5345" x2="74.7316" y2="98.9137" gradientUnits="userSpaceOnUse">
<stop stop-color="#5FC7FF"/>
<stop offset="1" stop-color="#2731F7"/>
</linearGradient>
</defs>
</svg>
