<svg width="100" height="100" viewBox="0 0 100 100" fill="none" xmlns="http://www.w3.org/2000/svg">
<g clip-path="url(#clip0_106_2673)">
<g filter="url(#filter0_dd_106_2673)">
<path fill-rule="evenodd" clip-rule="evenodd" d="M54.3957 10.4331C54.3957 8.00544 52.4278 6.03746 50.0001 6.03746C47.5725 6.03746 45.6045 8.00544 45.6045 10.4331V14.2086C32.6104 15.7759 24.8315 24.2896 24.8315 34.1731C24.8315 44.0566 32.6104 52.5703 45.6045 54.1376V76.8238C42.5494 76.2203 39.9152 75.067 37.8379 73.88C36.3381 73.023 35.1663 72.1693 34.3844 71.5438C33.9949 71.2322 33.7062 70.9804 33.5261 70.8178C33.4362 70.7366 33.3738 70.678 33.3398 70.6456L33.3226 70.6291L33.3117 70.6186C31.594 68.915 28.8207 68.9194 27.1084 70.6316C25.3919 72.3482 25.3919 75.1313 27.1084 76.8479L30.2166 73.7398C27.1084 76.8479 27.1096 76.8491 27.1108 76.8503L27.1134 76.8528L27.1191 76.8585L27.1327 76.872L27.1689 76.9075C27.197 76.935 27.233 76.9699 27.2769 77.0117C27.3647 77.0952 27.4838 77.2066 27.6335 77.3418C27.9326 77.6119 28.3548 77.9784 28.8926 78.4086C29.9655 79.2669 31.5139 80.3916 33.4762 81.5129C36.5206 83.2525 40.6537 85.0356 45.6045 85.7378V89.5664C45.6045 91.994 47.5725 93.962 50.0001 93.962C52.4278 93.962 54.3957 91.994 54.3957 89.5664V85.7908C67.3894 84.2232 75.1679 75.7097 75.1676 65.8263C75.1674 55.9433 67.3889 47.43 54.3957 45.8621V23.0628C58.1554 23.633 60.913 24.8734 62.8077 26.0432C64.1071 26.8455 65.026 27.6311 65.5937 28.1809C65.8773 28.4555 66.0716 28.6697 66.1801 28.7952C66.2343 28.8578 66.2668 28.898 66.2781 28.9122L66.2785 28.9127C67.7293 30.8303 70.4571 31.2276 72.3959 29.7947C74.3482 28.3517 74.7611 25.5994 73.3182 23.6471L69.8364 26.2205C73.3181 23.6471 73.3167 23.6451 73.3152 23.6431L73.3121 23.6389L73.3054 23.6299L73.2903 23.6098L73.253 23.5608C73.2251 23.5244 73.1909 23.4805 73.1503 23.4296C73.0691 23.3278 72.9623 23.198 72.8294 23.0443C72.5636 22.737 72.1921 22.333 71.7096 21.8657C70.7452 20.9318 69.331 19.739 67.4263 18.563C64.3432 16.6594 60.0365 14.8393 54.3957 14.1958V10.4331ZM45.6045 23.0673C36.8571 24.4477 33.6227 29.9436 33.6227 34.1731C33.6227 38.4026 36.8571 43.8985 45.6045 45.2789V23.0673ZM54.3957 54.721V76.932C63.1426 75.5514 66.3765 70.0558 66.3764 65.8265C66.3763 61.5973 63.1422 56.1018 54.3957 54.721Z" fill="url(#paint0_linear_106_2673)"/>
</g>
</g>
<defs>
<filter id="filter0_dd_106_2673" x="20.4359" y="6.03748" width="59.1273" height="96.7157" filterUnits="userSpaceOnUse" color-interpolation-filters="sRGB">
<feFlood flood-opacity="0" result="BackgroundImageFix"/>
<feColorMatrix in="SourceAlpha" type="matrix" values="0 0 0 0 0 0 0 0 0 0 0 0 0 0 0 0 0 0 127 0" result="hardAlpha"/>
<feOffset dy="4.3956"/>
<feGaussianBlur stdDeviation="2.1978"/>
<feComposite in2="hardAlpha" operator="out"/>
<feColorMatrix type="matrix" values="0 0 0 0 0 0 0 0 0 0 0 0 0 0 0 0 0 0 0.25 0"/>
<feBlend mode="normal" in2="BackgroundImageFix" result="effect1_dropShadow_106_2673"/>
<feColorMatrix in="SourceAlpha" type="matrix" values="0 0 0 0 0 0 0 0 0 0 0 0 0 0 0 0 0 0 127 0" result="hardAlpha"/>
<feOffset dy="4.3956"/>
<feGaussianBlur stdDeviation="2.1978"/>
<feComposite in2="hardAlpha" operator="out"/>
<feColorMatrix type="matrix" values="0 0 0 0 0 0 0 0 0 0 0 0 0 0 0 0 0 0 0.25 0"/>
<feBlend mode="normal" in2="effect1_dropShadow_106_2673" result="effect2_dropShadow_106_2673"/>
<feBlend mode="normal" in="SourceGraphic" in2="effect2_dropShadow_106_2673" result="shape"/>
</filter>
<linearGradient id="paint0_linear_106_2673" x1="24.5799" y1="95.1959" x2="99.1093" y2="68.0706" gradientUnits="userSpaceOnUse">
<stop stop-color="#FDFDFD"/>
<stop offset="0.453125" stop-color="#D556B6"/>
<stop offset="0.973958" stop-color="#C94294"/>
</linearGradient>
<clipPath id="clip0_106_2673">
<rect width="100" height="100" fill="white"/>
</clipPath>
</defs>
</svg>
