<svg width="100" height="100" viewBox="0 0 100 100" fill="none" xmlns="http://www.w3.org/2000/svg">
<path d="M77.8864 66.3455C77.8864 79.7709 67.4127 92.9182 50.1791 92.9182C31.3964 92.9182 22.1136 79.6418 22.1136 63.2537C22.1136 44.61 36.0409 16.9064 50.7409 7.26274C50.965 7.11906 51.2249 7.04121 51.4911 7.03806C51.7573 7.03492 52.019 7.1066 52.2464 7.24494C52.4738 7.38328 52.6578 7.58272 52.7773 7.82053C52.8969 8.05834 52.9473 8.32496 52.9227 8.59001C52.0984 16.8387 54.2486 25.1105 58.9855 31.9136C60.8536 34.7591 62.8927 37.2027 65.2946 40.33C68.6582 44.7209 71.1518 47.1509 74.7555 54.0782L74.8091 54.1782C76.8351 57.9129 77.893 62.0957 77.8864 66.3446V66.3455Z" stroke="url(#paint0_linear_106_2651)" stroke-width="8" stroke-linecap="round" stroke-linejoin="round"/>
<defs>
<linearGradient id="paint0_linear_106_2651" x1="21.8348" y1="94.1233" x2="101.733" y2="61.1362" gradientUnits="userSpaceOnUse">
<stop stop-color="#FDFDFD"/>
<stop offset="0.453125" stop-color="#D556B6"/>
<stop offset="0.973958" stop-color="#C94294"/>
</linearGradient>
</defs>
</svg>
