<svg width="100" height="100" viewBox="0 0 100 100" fill="none" xmlns="http://www.w3.org/2000/svg">
<path d="M6.84009 21.2273C6.84009 13.2809 13.281 6.84003 21.2265 6.84003H78.7737C86.7192 6.84003 93.1601 13.2809 93.1601 21.2264V78.7737C93.1601 86.7191 86.7192 93.16 78.7737 93.16H21.2265C13.281 93.16 6.84009 86.7191 6.84009 78.7737V21.2273Z" stroke="url(#paint0_linear_106_1587)" stroke-width="8"/>
<path fill-rule="evenodd" clip-rule="evenodd" d="M35.0546 20.2791C35.0546 18.07 33.2638 16.2791 31.0546 16.2791C28.8455 16.2791 27.0546 18.07 27.0546 20.2791V31.922C20.9582 33.6604 16.4946 39.2721 16.4946 45.9264C16.4946 52.5806 20.9582 58.1924 27.0546 59.9307V79.7637C27.0546 81.9728 28.8455 83.7637 31.0546 83.7637C33.2638 83.7637 35.0546 81.9728 35.0546 79.7637V59.9313C41.152 58.1935 45.6164 52.5813 45.6164 45.9264C45.6164 39.2715 41.152 33.6593 35.0546 31.9215V20.2791ZM72.8801 20.2791C72.8801 18.07 71.0892 16.2791 68.8801 16.2791C66.6709 16.2791 64.8801 18.07 64.8801 20.2791V46.9789C58.7284 48.6814 54.2119 54.3201 54.2119 61.0137C54.2119 67.7072 58.7284 73.3459 64.8801 75.0484V79.7637C64.8801 81.9728 66.6709 83.7637 68.8801 83.7637C71.0892 83.7637 72.8801 81.9728 72.8801 79.7637V74.9872C78.9219 73.2142 83.3337 67.6291 83.3337 61.0137C83.3337 54.3982 78.9219 48.8131 72.8801 47.0401V20.2791ZM31.0555 39.3655C27.432 39.3655 24.4946 42.3029 24.4946 45.9264C24.4946 49.5499 27.432 52.4873 31.0555 52.4873C34.679 52.4873 37.6164 49.5499 37.6164 45.9264C37.6164 42.3029 34.679 39.3655 31.0555 39.3655ZM68.7728 54.4528C65.1493 54.4528 62.2119 57.3902 62.2119 61.0137C62.2119 64.6372 65.1493 67.5746 68.7728 67.5746C72.3963 67.5746 75.3337 64.6372 75.3337 61.0137C75.3337 57.3902 72.3963 54.4528 68.7728 54.4528Z" fill="url(#paint1_linear_106_1587)"/>
<defs>
<linearGradient id="paint0_linear_106_1587" x1="6.40849" y1="94.3713" x2="109.487" y2="28.8409" gradientUnits="userSpaceOnUse">
<stop stop-color="#FDFDFD"/>
<stop offset="0.453125" stop-color="#D556B6"/>
<stop offset="0.973958" stop-color="#C94294"/>
</linearGradient>
<linearGradient id="paint1_linear_106_1587" x1="16.5091" y1="16.5156" x2="94.4456" y2="66.3419" gradientUnits="userSpaceOnUse">
<stop stop-color="white"/>
<stop offset="0.848958" stop-color="#7F787F"/>
<stop offset="0.982609" stop-color="#4B454B"/>
</linearGradient>
</defs>
</svg>
