<svg width="100" height="100" viewBox="0 0 100 100" fill="none" xmlns="http://www.w3.org/2000/svg">
<path d="M87.4999 8.33337H62.4999C61.3949 8.33337 60.3351 8.77236 59.5537 9.55376C58.7723 10.3352 58.3333 11.395 58.3333 12.5C58.3333 13.6051 58.7723 14.6649 59.5537 15.4463C60.3351 16.2277 61.3949 16.6667 62.4999 16.6667H77.4583L42.8749 51.2084C42.4844 51.5957 42.1744 52.0566 41.9629 52.5643C41.7514 53.072 41.6425 53.6167 41.6425 54.1667C41.6425 54.7167 41.7514 55.2614 41.9629 55.7691C42.1744 56.2769 42.4844 56.7377 42.8749 57.125C43.2623 57.5156 43.7231 57.8255 44.2309 58.0371C44.7386 58.2486 45.2832 58.3575 45.8333 58.3575C46.3833 58.3575 46.9279 58.2486 47.4357 58.0371C47.9434 57.8255 48.4043 57.5156 48.7916 57.125L83.3333 22.5417V37.5C83.3333 38.6051 83.7723 39.6649 84.5537 40.4463C85.3351 41.2277 86.3949 41.6667 87.4999 41.6667C88.605 41.6667 89.6648 41.2277 90.4462 40.4463C91.2276 39.6649 91.6666 38.6051 91.6666 37.5V12.5C91.6666 11.395 91.2276 10.3352 90.4462 9.55376C89.6648 8.77236 88.605 8.33337 87.4999 8.33337Z" fill="url(#paint0_linear_106_2598)"/>
<path d="M83.3334 91.6667H16.6667C14.4566 91.6667 12.337 90.7887 10.7742 89.2259C9.21135 87.6631 8.33337 85.5435 8.33337 83.3334V16.6667C8.33337 14.4566 9.21135 12.337 10.7742 10.7742C12.337 9.21135 14.4566 8.33337 16.6667 8.33337H45.8334C46.9384 8.33337 47.9983 8.77236 48.7797 9.55376C49.5611 10.3352 50 11.395 50 12.5C50 13.6051 49.5611 14.6649 48.7797 15.4463C47.9983 16.2277 46.9384 16.6667 45.8334 16.6667H16.6667V83.3334H83.3334V54.1667C83.3334 53.0616 83.7724 52.0018 84.5538 51.2204C85.3352 50.439 86.395 50 87.5 50C88.6051 50 89.6649 50.439 90.4463 51.2204C91.2277 52.0018 91.6667 53.0616 91.6667 54.1667V83.3334C91.6667 85.5435 90.7887 87.6631 89.2259 89.2259C87.6631 90.7887 85.5435 91.6667 83.3334 91.6667Z" fill="url(#paint1_linear_106_2598)"/>
<defs>
<linearGradient id="paint0_linear_106_2598" x1="41.6425" y1="8.33337" x2="94.5559" y2="55.0877" gradientUnits="userSpaceOnUse">
<stop stop-color="#5FC7FF"/>
<stop offset="1" stop-color="#2731F7"/>
</linearGradient>
<linearGradient id="paint1_linear_106_2598" x1="8.35146" y1="8.62535" x2="104.977" y2="70.9964" gradientUnits="userSpaceOnUse">
<stop stop-color="white"/>
<stop offset="0.848958" stop-color="#7F787F"/>
<stop offset="0.982609" stop-color="#4B454B"/>
</linearGradient>
</defs>
</svg>
