<svg width="100" height="100" viewBox="0 0 100 100" fill="none" xmlns="http://www.w3.org/2000/svg">
<path d="M12.9167 11.1423L38.737 36.9657H18.1454L38.527 57.3523H12.8124L43.9664 88.5117V62.7923L43.9697 62.789V36.9657H43.9664V22.3273H59.53L66.328 29.125H51.19V54.6353H58.54L66.698 62.793H61.4294L61.426 62.7897V62.793H50.871L50.8677 62.7897V62.793H50.7634L50.8677 62.8973V88.6133H87.2507L74.184 75.5467V70.278L77.0057 73.1V47.31H71.7784L71.784 34.5797L81.814 44.6083V18.7873H60.1894L52.5427 11.1427H37.9034L12.9167 11.1423Z" stroke="url(#paint0_linear_106_1519)" stroke-width="8"/>
<defs>
<linearGradient id="paint0_linear_106_1519" x1="12.6051" y1="10.9271" x2="90.4418" y2="85.72" gradientUnits="userSpaceOnUse">
<stop stop-color="#D300DC"/>
<stop offset="0.505208" stop-color="#B12496"/>
<stop offset="1" stop-color="#F47D65"/>
</linearGradient>
</defs>
</svg>
