<svg width="100" height="100" viewBox="0 0 100 100" fill="none" xmlns="http://www.w3.org/2000/svg">
<g clip-path="url(#clip0_106_2254)">
<path d="M48.6879 20.1843L49.071 22.2226H51.1449H87.6149C93.0715 22.2226 97.5 26.647 97.5 32.1077V77.9821C97.5 83.4379 93.0708 87.8672 87.6149 87.8672H12.3851C6.92684 87.8672 2.5 83.4383 2.5 77.9821V42.2029V32.1077V22.018C2.5 16.557 6.92612 12.1329 12.3851 12.1329H38.991C43.815 12.1329 47.8259 15.5971 48.6879 20.1843Z" stroke="url(#paint0_linear_106_2254)" stroke-width="5"/>
<path fill-rule="evenodd" clip-rule="evenodd" d="M27.0279 31.6628C26.8263 31.6628 26.6628 31.8263 26.6628 32.0279V49.5219C26.6628 49.7235 26.8263 49.887 27.0279 49.887H44.3942C44.5959 49.887 44.7593 49.7235 44.7593 49.5219V32.0279C44.7593 31.8263 44.5959 31.6628 44.3942 31.6628H27.0279ZM22 32.0279C22 29.2511 24.2511 27 27.0279 27H44.3942C47.1711 27 49.4221 29.2511 49.4221 32.0279V49.5219C49.4221 52.2988 47.1711 54.5498 44.3942 54.5498H37.9516V62.7818C37.9516 64.3394 38.3496 64.9439 38.6276 65.2018C38.9394 65.4912 39.5913 65.802 40.9718 65.802H49.5778V59.4781C49.5778 56.7012 51.8289 54.4502 54.6057 54.4502H71.9721C74.7489 54.4502 77 56.7012 77 59.4781V76.9721C77 79.7489 74.7489 82 71.9721 82H54.6057C51.8289 82 49.5778 79.7489 49.5778 76.9721V70.4648H40.9718C39.0079 70.4648 36.9839 70.0375 35.4561 68.6199C33.8944 67.1709 33.2888 65.0996 33.2888 62.7818V54.5498H27.0279C24.2511 54.5498 22 52.2988 22 49.5219V32.0279ZM54.6057 59.113C54.4041 59.113 54.2407 59.2764 54.2407 59.4781V76.9721C54.2407 77.1737 54.4041 77.3372 54.6057 77.3372H71.9721C72.1737 77.3372 72.3372 77.1737 72.3372 76.9721V59.4781C72.3372 59.2764 72.1737 59.113 71.9721 59.113H54.6057Z" fill="url(#paint1_linear_106_2254)"/>
</g>
<defs>
<linearGradient id="paint0_linear_106_2254" x1="-0.278455" y1="9.40862" x2="79.0766" y2="107.704" gradientUnits="userSpaceOnUse">
<stop stop-color="#D300DC"/>
<stop offset="0.505208" stop-color="#B12496"/>
<stop offset="1" stop-color="#F47D65"/>
</linearGradient>
<linearGradient id="paint1_linear_106_2254" x1="22.0119" y1="27.1927" x2="85.7846" y2="68.3576" gradientUnits="userSpaceOnUse">
<stop stop-color="white"/>
<stop offset="0.848958" stop-color="#7F787F"/>
<stop offset="0.982609" stop-color="#4B454B"/>
</linearGradient>
<clipPath id="clip0_106_2254">
<rect width="100" height="100" fill="white"/>
</clipPath>
</defs>
</svg>
