<svg width="100" height="100" viewBox="0 0 100 100" fill="none" xmlns="http://www.w3.org/2000/svg">
<g clip-path="url(#clip0_106_2288)">
<path d="M48.6879 20.1843L49.071 22.2226H51.1449H87.6149C93.0715 22.2226 97.5 26.647 97.5 32.1077V77.9821C97.5 83.4379 93.0708 87.8672 87.6149 87.8672H12.3851C6.92684 87.8672 2.5 83.4383 2.5 77.9821V42.2029V32.1077V22.018C2.5 16.557 6.92612 12.1329 12.3851 12.1329H38.991C43.815 12.1329 47.8259 15.5971 48.6879 20.1843Z" stroke="url(#paint0_linear_106_2288)" stroke-width="5"/>
<path d="M55.3679 36.8445L68.1555 49.6309M25 80H37.7864L71.3518 46.4346C73.0474 44.739 74 42.4393 74 40.0414C74 37.6434 73.0474 35.3437 71.3518 33.6482C69.6563 31.9526 67.3566 31 64.9586 31C62.5607 31 60.261 31.9526 58.5654 33.6482L25 67.2136V80Z" stroke="url(#paint1_linear_106_2288)" stroke-width="5" stroke-linecap="round" stroke-linejoin="round"/>
</g>
<defs>
<linearGradient id="paint0_linear_106_2288" x1="1.17766e-07" y1="10.0001" x2="100" y2="90.0001" gradientUnits="userSpaceOnUse">
<stop offset="0.0104167" stop-color="white"/>
<stop offset="0.510417" stop-color="#45A8E1"/>
<stop offset="1" stop-color="#298FD4"/>
</linearGradient>
<linearGradient id="paint1_linear_106_2288" x1="25" y1="31.2229" x2="81.7052" y2="67.8473" gradientUnits="userSpaceOnUse">
<stop offset="0.0104167" stop-color="white"/>
<stop offset="0.510417" stop-color="#45A8E1"/>
<stop offset="1" stop-color="#298FD4"/>
</linearGradient>
<clipPath id="clip0_106_2288">
<rect width="100" height="100" fill="white"/>
</clipPath>
</defs>
</svg>
