<svg width="100" height="100" viewBox="0 0 100 100" fill="none" xmlns="http://www.w3.org/2000/svg">
<g clip-path="url(#clip0_106_2078)">
<path d="M48.6879 20.1843L49.071 22.2226H51.1449H87.6149C93.0715 22.2226 97.5 26.647 97.5 32.1077V77.982C97.5 83.4379 93.0708 87.8671 87.6149 87.8671H12.3851C6.92684 87.8671 2.5 83.4383 2.5 77.982V42.2029V32.1077V22.0179C2.5 16.5569 6.92612 12.1328 12.3851 12.1328H38.991C43.815 12.1328 47.8259 15.5971 48.6879 20.1843Z" stroke="url(#paint0_linear_106_2078)" stroke-width="5"/>
<path d="M65.6 32.504H61.5614L63.3675 36.1162L66.7614 42.904H64.5426L60.0325 33.8838L59.3426 32.504H57.8H52.6H48.5614L50.3675 36.1162L53.7614 42.904H51.5426L47.0325 33.8838L46.3426 32.504H44.8H39.6H35.5614L37.3675 36.1162L40.7614 42.904H38.5426L34.0325 33.8838L33.3426 32.504H31.8H29.2C27.1589 32.504 25.2014 33.3148 23.7581 34.7581C22.3148 36.2014 21.504 38.1589 21.504 40.2V71.4C21.504 73.4411 22.3148 75.3986 23.7581 76.8419C25.2014 78.2852 27.1589 79.096 29.2 79.096H70.8C72.8411 79.096 74.7986 78.2852 76.2419 76.8419C77.6852 75.3986 78.496 73.4411 78.496 71.4V35V32.504H76H65.6Z" stroke="url(#paint1_linear_106_2078)" stroke-width="4.992"/>
</g>
<defs>
<linearGradient id="paint0_linear_106_2078" x1="-0.278455" y1="9.40859" x2="79.0766" y2="107.704" gradientUnits="userSpaceOnUse">
<stop stop-color="#D300DC"/>
<stop offset="0.505208" stop-color="#B12496"/>
<stop offset="1" stop-color="#F47D65"/>
</linearGradient>
<linearGradient id="paint1_linear_106_2078" x1="23.8552" y1="34.8844" x2="64.6642" y2="85.8979" gradientUnits="userSpaceOnUse">
<stop stop-color="#D300DC"/>
<stop offset="0.505208" stop-color="#B12496"/>
<stop offset="1" stop-color="#F47D65"/>
</linearGradient>
<clipPath id="clip0_106_2078">
<rect width="100" height="100" fill="white"/>
</clipPath>
</defs>
</svg>
