<svg width="100" height="100" viewBox="0 0 100 100" fill="none" xmlns="http://www.w3.org/2000/svg">
<g clip-path="url(#clip0_106_2547)">
<path d="M100 32.1076V77.982C100 84.8186 94.4515 90.3671 87.6149 90.3671H12.3851C5.54577 90.3671 0 84.8186 0 77.982V42.2029V32.1076V22.0179C0 15.1758 5.54577 9.63281 12.3851 9.63281H38.991C45.046 9.63281 50.0661 13.9814 51.1449 19.7225H87.6149C94.4515 19.7225 100 25.2656 100 32.1076Z" fill="url(#paint0_linear_106_2547)"/>
<g filter="url(#filter0_d_106_2547)">
<path d="M49.3018 44.4277L49.497 44.4423C49.4301 45.3403 48.7216 46.02 47.8817 46.2293C46.588 46.5516 45.3481 47.1735 44.2684 48.1033C43.2071 49.0174 42.4171 50.1287 41.9055 51.3361C41.9055 51.3361 41.9055 51.3361 41.9055 51.3361L41.7253 51.2597L49.3018 44.4277ZM49.3018 44.4277L49.497 44.4423C49.5779 43.3571 48.6805 42.3972 47.5701 42.6199C45.548 43.0254 43.5992 43.9415 41.9256 45.3829L49.3018 44.4277Z" fill="black" stroke="black" stroke-width="0.391528"/>
<path d="M53.582 46.7176L53.582 46.7176C54.7444 47.23 55.8137 48.003 56.6983 49.0301C57.6138 50.0931 58.2308 51.3115 58.5572 52.5836C58.7712 53.4175 59.449 54.1186 60.3421 54.1854C61.4328 54.2672 62.3961 53.3616 62.1644 52.2468C61.7505 50.255 60.8399 48.3374 59.4187 46.6872C58.0411 45.0877 56.3439 43.9252 54.503 43.2136L54.503 43.2135C53.4296 42.7987 52.3729 43.6201 52.2907 44.7219L52.4858 44.7365L52.2907 44.722C52.2249 45.605 52.8029 46.374 53.582 46.7176Z" fill="black" stroke="black" stroke-width="0.391528"/>
<path d="M52.3467 63.2852L52.3467 63.2852C53.5721 62.9508 54.7443 62.345 55.7715 61.4604C56.8153 60.5614 57.5966 59.4716 58.1088 58.2873C58.4487 57.5014 59.2207 56.9164 60.1087 56.9829L60.1087 56.9829C61.2049 57.0651 62.0243 58.1131 61.6191 59.1837C60.9105 61.0559 59.7375 62.7829 58.1143 64.1808C56.5148 65.5584 54.664 66.4563 52.7378 66.887L52.3467 63.2852ZM52.3467 63.2852C51.5252 63.5094 50.8395 64.1841 50.7737 65.0672M52.3467 63.2852L50.7737 65.0672M50.7737 65.0672C50.6916 66.169 51.6147 67.1382 52.7378 66.887L50.7737 65.0672Z" fill="black" stroke="black" stroke-width="0.391528"/>
<path d="M43.3414 60.5336C42.441 59.4881 41.8293 58.2922 41.4988 57.0429C41.2799 56.2151 40.6037 55.5216 39.7156 55.4552C38.6194 55.373 37.653 56.2872 37.8942 57.4062C38.3166 59.366 39.221 61.2509 40.621 62.8764C42.0624 64.5501 43.8536 65.7451 45.7933 66.446C46.8585 66.8309 47.8883 66.0148 47.9692 64.9296L47.774 64.915L47.9692 64.9296C48.0362 64.0315 47.4364 63.2543 46.6368 62.9227L46.6368 62.9227C45.4052 62.4121 44.2712 61.6132 43.3414 60.5336ZM43.3414 60.5336L43.193 60.6613M43.3414 60.5336C43.3414 60.5336 43.3414 60.5336 43.3414 60.5336L43.193 60.6613M43.193 60.6613C44.1433 61.7646 45.3026 62.5815 46.5618 63.1035L38.0856 57.3649C37.8767 56.3956 38.7121 55.5762 39.701 55.6504C40.4894 55.7094 41.1074 56.3286 41.3096 57.0929C41.6475 58.3703 42.2729 59.5929 43.193 60.6613Z" fill="black" stroke="black" stroke-width="0.391528"/>
<path d="M27.0593 36.2846C27.6595 35.5498 27.6418 34.4667 26.9621 33.787C26.2393 33.0641 25.0469 33.082 24.3875 33.8808C19.6503 39.6194 16.8042 46.9777 16.8042 55C16.8042 62.9895 19.6269 70.3202 24.3292 76.0484C24.9875 76.8503 26.1822 76.87 26.9066 76.1462L26.7682 76.0078L26.9066 76.1462C27.5854 75.4679 27.6048 74.3872 27.0076 73.652C22.8725 68.5609 20.3945 62.0702 20.3945 55C20.3945 47.9005 22.8932 41.3852 27.0593 36.2846ZM27.0593 36.2846L26.9077 36.1607L27.0593 36.2846Z" fill="black" stroke="black" stroke-width="0.391528"/>
<path d="M28.9633 31.8185L28.9633 31.8185C29.6394 32.4946 30.7157 32.5163 31.451 31.9244C36.5265 27.8393 42.9775 25.3945 50.0001 25.3945C57.0777 25.3945 63.5748 27.8778 68.6683 32.0209C69.4031 32.6186 70.4838 32.5998 71.1626 31.9216C71.887 31.1978 71.8681 30.003 71.0667 29.3441C65.3357 24.6329 57.998 21.8042 50.0001 21.8042C42.0639 21.8042 34.7777 24.5894 29.0664 29.2354C28.2588 29.8924 28.2368 31.0919 28.9633 31.8185Z" fill="black" stroke="black" stroke-width="0.391528"/>
<path d="M28.8963 78.1265L28.8963 78.1265C28.1708 78.8516 28.191 80.0487 28.9954 80.7068L28.9954 80.7068C34.7173 85.3876 42.0311 88.196 50.0002 88.196C58.0226 88.196 65.3808 85.35 71.1195 80.6127C71.9182 79.9534 71.9361 78.761 71.2132 78.0382C70.5336 77.3584 69.4505 77.3407 68.7157 77.941C63.6151 82.1071 57.0998 84.6057 50.0002 84.6057C42.9482 84.6057 36.4725 82.1404 31.3873 78.0244C30.6524 77.4294 29.5739 77.4494 28.8963 78.1265Z" fill="black" stroke="black" stroke-width="0.391528"/>
<path d="M73.1817 76.037L73.1817 76.0371C73.9083 76.7635 75.1078 76.7415 75.7648 75.9339C80.4108 70.2226 83.196 62.9364 83.196 55.0003C83.196 47.0396 80.3936 39.7329 75.7217 34.0137C75.0642 33.2088 73.867 33.1878 73.1415 33.9128L73.1414 33.9128C72.4638 34.5899 72.4432 35.6684 73.0375 36.4038L73.0375 36.4038C77.1456 41.4865 79.6057 47.9558 79.6057 55.0003C79.6057 62.0228 77.1609 68.4738 73.0758 73.5493C72.4839 74.2847 72.5056 75.3609 73.1817 76.037Z" fill="black" stroke="black" stroke-width="0.391528"/>
<path d="M29.174 51.0943L29.174 51.0943C28.1678 50.8426 27.1354 51.4926 27.0231 52.544C26.5064 57.3801 27.5019 62.4185 30.1967 66.9103C32.8746 71.3743 36.8187 74.6117 41.2942 76.4384C42.2757 76.839 43.3394 76.2345 43.592 75.2259C43.8215 74.3096 43.303 73.3903 42.4491 73.0305L42.3732 73.2106L42.4491 73.0305C38.7514 71.4725 35.4979 68.768 33.2754 65.0634C31.0388 61.3351 30.1874 57.1624 30.5712 53.143C30.6596 52.2182 30.0927 51.3241 29.174 51.0943Z" fill="black" stroke="black" stroke-width="0.391528"/>
<path d="M32.0788 47.248L32.0788 47.248C31.715 48.0951 30.7998 48.6072 29.8881 48.3792M32.0788 47.248L29.8881 48.3792M32.0788 47.248C33.6446 43.6007 36.3302 40.3941 39.9941 38.1961C43.7031 35.9711 47.8519 35.117 51.8519 35.4861C52.7746 35.5712 53.6652 35.0049 53.8947 34.0885C54.1473 33.0799 53.4941 32.0453 52.4396 31.9361L52.4194 32.1308M32.0788 47.248L52.4194 32.1308M29.8881 48.3792C28.8744 48.1258 28.2693 47.0539 28.6786 46.0701C30.5158 41.6544 33.7314 37.7665 38.1471 35.1174C42.6161 32.4364 47.6261 31.4373 52.4396 31.9361L52.4194 32.1308M29.8881 48.3792L52.4194 32.1308" fill="black" stroke="black" stroke-width="0.391528"/>
<path d="M46.318 75.8966L46.318 75.8967C46.0648 76.9078 46.7216 77.9443 47.7791 78.0501L47.7985 77.8562L47.7791 78.0501C52.5675 78.5292 57.5461 77.5263 61.9898 74.8604C66.4816 72.1658 69.7316 68.189 71.552 63.679C71.9478 62.6984 71.3429 61.6391 70.3366 61.3875C69.4179 61.1577 68.4969 61.6799 68.1395 62.5375C66.5863 66.2643 63.871 69.5451 60.1428 71.7817C56.4553 73.9939 52.3329 74.851 48.3543 74.4981C47.4336 74.4164 46.5469 74.9827 46.318 75.8966Z" fill="black" stroke="black" stroke-width="0.391528"/>
<path d="M70.9842 58.656L70.9842 58.656C71.9979 58.9095 73.0363 58.2487 73.1382 57.1881C73.5958 52.4274 72.5888 47.4834 69.9396 43.0677C67.2769 38.6291 63.3623 35.403 58.9183 33.5708L58.8464 33.7453L58.9183 33.5708C57.9357 33.1657 56.8679 33.7702 56.6146 34.7814L56.6146 34.7814C56.3858 35.6954 56.9009 36.6127 57.7514 36.9746C61.4226 38.5368 64.6513 41.2314 66.8609 44.9146C69.059 48.5785 69.9191 52.6717 69.5839 56.6267C69.506 57.5454 70.0725 58.428 70.9842 58.656Z" fill="black" stroke="black" stroke-width="0.391528"/>
</g>
</g>
<defs>
<filter id="filter0_d_106_2547" x="13.9081" y="18.9081" width="72.184" height="72.184" filterUnits="userSpaceOnUse" color-interpolation-filters="sRGB">
<feFlood flood-opacity="0" result="BackgroundImageFix"/>
<feColorMatrix in="SourceAlpha" type="matrix" values="0 0 0 0 0 0 0 0 0 0 0 0 0 0 0 0 0 0 127 0" result="hardAlpha"/>
<feOffset/>
<feGaussianBlur stdDeviation="1.35019"/>
<feComposite in2="hardAlpha" operator="out"/>
<feColorMatrix type="matrix" values="0 0 0 0 0 0 0 0 0 0 0 0 0 0 0 0 0 0 1 0"/>
<feBlend mode="normal" in2="BackgroundImageFix" result="effect1_dropShadow_106_2547"/>
<feBlend mode="normal" in="SourceGraphic" in2="effect1_dropShadow_106_2547" result="shape"/>
</filter>
<linearGradient id="paint0_linear_106_2547" x1="3" y1="4.99996" x2="98" y2="91.5" gradientUnits="userSpaceOnUse">
<stop stop-color="#FF0000"/>
<stop offset="0.161458" stop-color="#FF8A00"/>
<stop offset="0.3125" stop-color="#EBFF00"/>
<stop offset="0.453125" stop-color="#05FF00"/>
<stop offset="0.59375" stop-color="#00F0FF"/>
<stop offset="0.734375" stop-color="#0500FF"/>
<stop offset="0.864583" stop-color="#FA00FF"/>
<stop offset="1" stop-color="#FF0000"/>
</linearGradient>
<clipPath id="clip0_106_2547">
<rect width="100" height="100" fill="white"/>
</clipPath>
</defs>
</svg>
