<svg width="100" height="100" viewBox="0 0 100 100" fill="none" xmlns="http://www.w3.org/2000/svg">
<g clip-path="url(#clip0_106_2696)">
<mask id="mask0_106_2696" style="mask-type:luminance" maskUnits="userSpaceOnUse" x="0" y="0" width="100" height="100">
<path d="M100 0H0V100H100V0Z" fill="white"/>
</mask>
<g mask="url(#mask0_106_2696)">
<path d="M48.6879 20.1843L49.071 22.2226H51.1449H87.6149C93.0715 22.2226 97.5 26.647 97.5 32.1077V77.9821C97.5 83.4379 93.0708 87.8671 87.6149 87.8671H12.3851C6.92684 87.8671 2.5 83.4383 2.5 77.9821V42.2029V32.1077V22.0179C2.5 16.5569 6.92612 12.1329 12.3851 12.1329H38.991C43.815 12.1329 47.8259 15.5971 48.6879 20.1843Z" stroke="url(#paint0_linear_106_2696)" stroke-width="5"/>
</g>
<path d="M69.6129 45.2051H70.6129V44.2051V37.2616C70.6129 35.674 69.326 34.3871 67.7384 34.3871H32.2616C30.674 34.3871 29.3871 35.674 29.3871 37.2616V44.2051V45.2051H30.3871H69.6129ZM30.3871 49.5922H29.3871V50.5922V72.7384C29.3871 74.326 30.674 75.6129 32.2616 75.6129H39.2039H40.2039V74.6129V50.5922V49.5922H39.2039H30.3871ZM44.591 74.6129V75.6129H45.591H67.7384C69.326 75.6129 70.6129 74.326 70.6129 72.7384V50.5922V49.5922H69.6129H45.591H44.591V50.5922V74.6129ZM25 37.2616C25 33.2511 28.2511 30 32.2616 30H67.7384C71.7489 30 75 33.2511 75 37.2616V72.7384C75 76.7489 71.7489 80 67.7384 80H32.2616C28.2511 80 25 76.7489 25 72.7384V37.2616Z" fill="url(#paint1_linear_106_2696)" stroke="url(#paint2_linear_106_2696)" stroke-width="2"/>
</g>
<defs>
<linearGradient id="paint0_linear_106_2696" x1="2.5" y1="12.1329" x2="82.7971" y2="101.132" gradientUnits="userSpaceOnUse">
<stop stop-color="#5FC7FF"/>
<stop offset="1" stop-color="#2731F7"/>
</linearGradient>
<linearGradient id="paint1_linear_106_2696" x1="24" y1="29" x2="79.0034" y2="77.601" gradientUnits="userSpaceOnUse">
<stop stop-color="#5FC7FF"/>
<stop offset="1" stop-color="#2731F7"/>
</linearGradient>
<linearGradient id="paint2_linear_106_2696" x1="24" y1="29" x2="79.0034" y2="77.601" gradientUnits="userSpaceOnUse">
<stop stop-color="#5FC7FF"/>
<stop offset="1" stop-color="#2731F7"/>
</linearGradient>
<clipPath id="clip0_106_2696">
<rect width="100" height="100" fill="white"/>
</clipPath>
</defs>
</svg>
