<svg width="100" height="100" viewBox="0 0 100 100" fill="none" xmlns="http://www.w3.org/2000/svg">
<path fill-rule="evenodd" clip-rule="evenodd" d="M100 77.982V32.1076C100 25.2656 94.4515 19.7225 87.6149 19.7225H51.1449C50.0661 13.9814 45.046 9.63281 38.991 9.63281H12.3851C5.54577 9.63281 0 15.1758 0 22.0179V32.1076V42.2029V77.982C0 84.8186 5.54577 90.3671 12.3851 90.3671H87.6149C94.4515 90.3671 100 84.8186 100 77.982ZM30.4924 38.1023L30.4924 38.1021C30.4923 38.0931 30.4856 37.7488 31.1802 37.0831C31.8902 36.4026 33.1028 35.6284 34.889 34.9043C38.4432 33.4633 43.5944 32.4925 49.4633 32.4925C55.3322 32.4925 60.4833 33.4633 64.0376 34.9043C65.8238 35.6284 67.0364 36.4026 67.7464 37.0831C68.4409 37.7488 68.4343 38.0931 68.4341 38.1021V38.1023V38.1025C68.4343 38.1115 68.4409 38.4558 67.7464 39.1215C67.0364 39.802 65.8238 40.5762 64.0376 41.3003C60.4833 42.7412 55.3322 43.7121 49.4633 43.7121C43.5944 43.7121 38.4432 42.7412 34.889 41.3003C33.1028 40.5762 31.8902 39.802 31.1802 39.1215C30.4856 38.4558 30.4923 38.1115 30.4924 38.1025L30.4924 38.1023ZM49.4633 25.4925C42.9219 25.4925 36.8376 26.5609 32.259 28.4171C29.9788 29.3415 27.9006 30.5304 26.3364 32.0296C24.7631 33.5376 23.4924 35.5897 23.4924 38.1023C23.4924 38.3139 23.5014 38.5223 23.5189 38.7273H23.4978V54.5457H23.4924C23.4925 54.6391 23.4943 54.732 23.4978 54.8242V70.9809H23.4924C23.4923 74.2148 25.5989 76.6941 28.0036 78.3673C30.4677 80.0818 33.7691 81.3572 37.4363 82.2077C41.141 83.067 45.2833 83.5074 49.4608 83.5074C53.6384 83.5074 57.7807 83.067 61.4854 82.2077L61.4855 82.2077C65.1525 81.3571 68.4537 80.0817 70.9176 78.3671C73.3222 76.6939 75.4286 74.2146 75.4282 70.9807L68.4282 70.9815C68.4282 70.9895 68.4277 71.0157 68.4099 71.07C68.3911 71.1274 68.348 71.2298 68.251 71.3754C68.0492 71.6779 67.6481 72.1142 66.9193 72.6214C65.4394 73.6512 63.068 74.6548 59.9039 75.3887C56.7775 76.1138 53.1711 76.5074 49.4608 76.5074C45.7506 76.5074 42.1442 76.1138 39.0178 75.3887C35.8534 74.6548 33.4818 73.6512 32.0017 72.6214C31.2727 72.1142 30.8716 71.6779 30.6697 71.3753C30.5727 71.2297 30.5296 71.1272 30.5107 71.0698C30.4929 71.0155 30.4924 70.9893 30.4924 70.9812L26.9924 70.9811H30.4978V63.3838C32.5307 64.3857 34.8959 65.1789 37.4368 65.7682C41.1415 66.6274 45.2839 67.0679 49.4614 67.0679C53.6389 67.0679 57.7813 66.6274 61.486 65.7682L61.4861 65.7681C64.0308 65.1778 66.3993 64.3829 68.4341 63.3787V70.9634H75.4341V38.7096H75.4091C75.4256 38.5103 75.4341 38.3078 75.4341 38.1023C75.4341 35.5897 74.1635 33.5376 72.5901 32.0296C71.026 30.5304 68.9478 29.3415 66.6675 28.4171C62.089 26.5609 56.0047 25.4925 49.4633 25.4925ZM59.9039 75.3887L59.9038 75.3887L60.6947 78.7982L59.9039 75.3887ZM30.4978 54.5838V46.9976C31.0669 47.28 31.6559 47.543 32.259 47.7875C32.8609 48.0315 33.4888 48.2619 34.1404 48.478L59.9043 58.9492C56.778 59.6743 53.1716 60.0679 49.4614 60.0679C45.7512 60.0679 42.1447 59.6743 39.0184 58.9492L39.0183 58.9491C35.8546 58.2155 33.4831 57.2122 32.0028 56.1825C31.2737 55.6753 30.8723 55.239 30.6702 54.9362C30.5729 54.7906 30.5298 54.688 30.5108 54.6304C30.5046 54.6117 30.5006 54.5963 30.4978 54.5838ZM34.1405 48.4781L30.4978 46.9976L34.1404 48.478C34.1404 48.478 34.1405 48.4781 34.1405 48.4781ZM34.1405 48.4781L59.9044 58.9492C63.068 58.2153 65.4392 57.2119 66.919 56.1822C67.6478 55.675 68.0489 55.2388 68.2508 54.9362C68.3479 54.7906 68.391 54.6881 68.4099 54.6307C68.4277 54.5763 68.4282 54.5501 68.4282 54.5421H68.4341V46.9949C67.8634 47.2783 67.2726 47.5422 66.6675 47.7875C62.089 49.6437 56.0047 50.7121 49.4633 50.7121C43.7819 50.7121 38.4453 49.9061 34.1405 48.4781Z" fill="url(#paint0_linear_106_2540)"/>
<defs>
<linearGradient id="paint0_linear_106_2540" x1="1.17766e-07" y1="10" x2="100" y2="90" gradientUnits="userSpaceOnUse">
<stop offset="0.0104167" stop-color="white"/>
<stop offset="0.510417" stop-color="#45A8E1"/>
<stop offset="1" stop-color="#298FD4"/>
</linearGradient>
</defs>
</svg>
