<svg width="100" height="100" viewBox="0 0 100 100" fill="none" xmlns="http://www.w3.org/2000/svg">
<g clip-path="url(#clip0_328_85)">
<path d="M100 32.1076V77.982C100 84.8186 94.4515 90.3671 87.6149 90.3671H12.3851C5.54577 90.3671 0 84.8186 0 77.982V42.2029V32.1076V22.0179C0 15.1758 5.54577 9.63281 12.3851 9.63281H38.991C45.046 9.63281 50.0661 13.9814 51.1449 19.7225H87.6149C94.4515 19.7225 100 25.2656 100 32.1076Z" fill="url(#paint0_linear_328_85)"/>
<path d="M44.5121 29.5053C46.9512 25.2807 53.0488 25.2807 55.4879 29.5053L81.7512 74.9947C84.1903 79.2193 81.1415 84.5 76.2634 84.5H23.7366C18.8585 84.5 15.8097 79.2193 18.2488 74.9947L44.5121 29.5053Z" fill="#030303"/>
</g>
<defs>
<linearGradient id="paint0_linear_328_85" x1="-0.500003" y1="91.5" x2="103" y2="10" gradientUnits="userSpaceOnUse">
<stop offset="0.21875" stop-color="#298FD4"/>
<stop offset="0.515625" stop-color="#E7E7E7"/>
<stop offset="0.786458" stop-color="#C94294"/>
</linearGradient>
<clipPath id="clip0_328_85">
<rect width="100" height="100" fill="white"/>
</clipPath>
</defs>
</svg>
