<svg width="100" height="100" viewBox="0 0 100 100" fill="none" xmlns="http://www.w3.org/2000/svg">
<g clip-path="url(#clip0_106_2166)">
<path d="M48.6879 20.1843L49.071 22.2226H51.1449H87.6149C93.0715 22.2226 97.5 26.647 97.5 32.1077V77.9821C97.5 83.4379 93.0708 87.8672 87.6149 87.8672H12.3851C6.92684 87.8672 2.5 83.4383 2.5 77.9821V42.2029V32.1077V22.018C2.5 16.557 6.92612 12.1329 12.3851 12.1329H38.991C43.815 12.1329 47.8259 15.5971 48.6879 20.1843Z" stroke="url(#paint0_linear_106_2166)" stroke-width="5"/>
<path d="M34.4293 41.1818L20 55.6111L34.1668 69.7785M60.749 41.1818L75.1783 55.6111L61.0116 69.7785" stroke="url(#paint1_linear_106_2166)" stroke-width="5.14581" stroke-linecap="round" stroke-linejoin="round"/>
<path d="M52.6643 32L42.5171 79" stroke="url(#paint2_linear_106_2166)" stroke-width="5.14581" stroke-linecap="round" stroke-linejoin="round"/>
</g>
<defs>
<linearGradient id="paint0_linear_106_2166" x1="0" y1="9.63287" x2="85.7027" y2="103.431" gradientUnits="userSpaceOnUse">
<stop stop-color="#5FC7FF"/>
<stop offset="1" stop-color="#2731F7"/>
</linearGradient>
<linearGradient id="paint1_linear_106_2166" x1="20" y1="41.1818" x2="46.6033" y2="86.5387" gradientUnits="userSpaceOnUse">
<stop stop-color="#5FC7FF"/>
<stop offset="1" stop-color="#2731F7"/>
</linearGradient>
<linearGradient id="paint2_linear_106_2166" x1="42.5171" y1="32" x2="60.9592" y2="35.5182" gradientUnits="userSpaceOnUse">
<stop stop-color="#5FC7FF"/>
<stop offset="1" stop-color="#2731F7"/>
</linearGradient>
<clipPath id="clip0_106_2166">
<rect width="100" height="100" fill="white"/>
</clipPath>
</defs>
</svg>
