<svg width="100" height="100" viewBox="0 0 100 100" fill="none" xmlns="http://www.w3.org/2000/svg">
<path fill-rule="evenodd" clip-rule="evenodd" d="M100 77.982V32.1076C100 25.2656 94.4515 19.7225 87.6149 19.7225H51.1449C50.0661 13.9814 45.046 9.63281 38.991 9.63281H12.3851C5.54577 9.63281 0 15.1758 0 22.0179V32.1076V42.2029V77.982C0 84.8186 5.54577 90.3671 12.3851 90.3671H87.6149C94.4515 90.3671 100 84.8186 100 77.982ZM47.9792 26.2014C49.3368 24.8256 51.5527 24.8107 52.9287 26.1682L59.8196 32.9668C61.1956 34.3244 61.2105 36.5404 59.8529 37.9164C58.4954 39.2924 56.2793 39.3074 54.9033 37.9498L50.5038 33.6092L46.0254 38.1479C44.6677 39.5238 42.4517 39.5386 41.0758 38.1809C39.6998 36.8233 39.685 34.6072 41.0427 33.2313L47.9792 26.2014ZM65.7148 43.7977C67.0726 42.4218 69.2886 42.4072 70.6644 43.765L77.6933 50.7015C79.069 52.0591 79.0838 54.2749 77.7263 55.6508L70.9277 62.5417C69.5701 63.9177 67.3541 63.9326 65.9781 62.575C64.6021 61.2175 64.5871 59.0014 65.9447 57.6254L70.2855 53.2257L65.7475 48.7473C64.3717 47.3896 64.357 45.1735 65.7148 43.7977ZM34.9166 43.9505C36.2925 45.3082 36.3073 47.5242 34.9496 48.9001L30.6093 53.2986L35.1478 57.7768C36.5237 59.1345 36.5386 61.3505 35.1809 62.7264C33.8232 64.1024 31.6072 64.1172 30.2312 62.7595L23.2014 55.823C22.5406 55.171 22.1659 54.2832 22.1597 53.355C22.1535 52.4268 22.5164 51.5341 23.1683 50.8733L29.9669 43.9835C31.3246 42.6076 33.5406 42.5928 34.9166 43.9505ZM59.8201 68.6217C61.1958 69.9796 61.2103 72.1956 59.8524 73.5713L52.9138 80.6012C51.5561 81.9768 49.3403 81.9914 47.9645 80.6339L41.0747 73.8353C39.6988 72.4776 39.684 70.2616 41.0417 68.8857C42.3994 67.5097 44.6154 67.495 45.9913 68.8526L50.3902 73.1932L54.8704 68.654C56.2283 67.2783 58.4444 67.2638 59.8201 68.6217ZM50.3203 49.7914C48.3714 49.7914 46.7915 51.3713 46.7915 53.3202C46.7915 55.2691 48.3714 56.849 50.3203 56.849C52.2692 56.849 53.8491 55.2691 53.8491 53.3202C53.8491 51.3713 52.2692 49.7914 50.3203 49.7914ZM39.7915 53.3202C39.7915 47.5053 44.5054 42.7914 50.3203 42.7914C56.1352 42.7914 60.8491 47.5053 60.8491 53.3202C60.8491 59.1351 56.1352 63.849 50.3203 63.849C44.5054 63.849 39.7915 59.1351 39.7915 53.3202Z" fill="url(#paint0_linear_106_2569)"/>
<defs>
<linearGradient id="paint0_linear_106_2569" x1="-0.278455" y1="9.40855" x2="79.0766" y2="107.704" gradientUnits="userSpaceOnUse">
<stop stop-color="#D300DC"/>
<stop offset="0.505208" stop-color="#B12496"/>
<stop offset="1" stop-color="#F47D65"/>
</linearGradient>
</defs>
</svg>
