<svg width="100" height="100" viewBox="0 0 100 100" fill="none" xmlns="http://www.w3.org/2000/svg">
<g clip-path="url(#clip0_106_1933)">
<path d="M48.6879 20.1843L49.071 22.2226H51.1449H87.6149C93.0715 22.2226 97.5 26.647 97.5 32.1077V77.9821C97.5 83.4379 93.0708 87.8671 87.6149 87.8671H12.3851C6.92684 87.8671 2.5 83.4383 2.5 77.9821V42.2029V32.1077V22.0179C2.5 16.5569 6.92612 12.1329 12.3851 12.1329H38.991C43.815 12.1329 47.8259 15.5971 48.6879 20.1843Z" stroke="url(#paint0_linear_106_1933)" stroke-width="5"/>
<path fill-rule="evenodd" clip-rule="evenodd" d="M33.6886 43.3838C33.6886 34.8876 40.5761 28 49.0724 28H50.1922C58.5423 28 65.3113 34.7691 65.3113 43.1191V43.3424C65.3113 44.3049 64.5311 45.0852 63.5686 45.0852H35.3899C34.4503 45.0852 33.6886 44.3235 33.6886 43.3838ZM36.4216 41.1979C36.298 41.9179 36.8822 42.5376 37.6127 42.5376H61.4275C62.1482 42.5376 62.7293 41.9337 62.6214 41.2211C61.7063 35.1786 56.4901 30.5476 50.1922 30.5476H49.0724C42.7283 30.5476 37.4592 35.1499 36.4216 41.1979ZM28 52.0282C28 48.8811 30.5512 46.3299 33.6983 46.3299H65.3017C68.4488 46.3299 71 48.8811 71 52.0282V57.7168C71 60.8638 68.4488 63.4151 65.3017 63.4151H33.6983C30.5512 63.4151 28 60.8639 28 57.7168V52.0282ZM33.6983 48.8775C31.9582 48.8775 30.5476 50.2881 30.5476 52.0282V57.7168C30.5476 59.4568 31.9582 60.8674 33.6983 60.8674H65.3017C67.0418 60.8674 68.4524 59.4568 68.4524 57.7168V52.0282C68.4524 50.2881 67.0418 48.8775 65.3017 48.8775H33.6983ZM34.5706 54.9988C34.5706 53.7756 35.5847 52.7614 36.808 52.7614H62.1794C63.4148 52.7614 64.4168 53.776 64.4168 54.9988C64.4168 56.2211 63.4275 57.2362 62.1919 57.2362H36.808C35.5725 57.2362 34.5706 56.2216 34.5706 54.9988ZM36.2362 73.5185V66.5657C36.2362 65.8676 35.6605 65.3016 34.9624 65.3016V65.3016C34.2642 65.3016 33.6886 65.8676 33.6886 66.5657V73.5185C33.6886 77.7128 37.0887 81.113 41.2831 81.113H57.7168C61.9112 81.113 65.3113 77.7128 65.3113 73.5185V66.5657C65.3113 65.8676 64.7357 65.3016 64.0375 65.3016V65.3016C63.3394 65.3016 62.7637 65.8676 62.7637 66.5657V73.5185C62.7637 76.3058 60.5041 78.5654 57.7168 78.5654H41.2831C38.4957 78.5654 36.2362 76.3058 36.2362 73.5185ZM44.4434 68.462H44.1816C43.8464 68.462 43.5248 68.5952 43.2877 68.8322L43.1026 69.0174L41.8385 70.2815C41.098 71.022 41.098 72.2226 41.8385 72.9632C42.579 73.7037 43.7796 73.7037 44.5201 72.9632L44.8586 72.6247C45.0957 72.3876 45.4172 72.2544 45.7525 72.2544H53.5031C53.7766 72.2544 54.0428 72.3431 54.2616 72.5072L54.6829 72.8233C55.5207 73.4516 56.7093 73.2818 57.3376 72.444C57.966 71.6062 57.7962 70.4177 56.9584 69.7893L55.6943 68.8412L55.5257 68.7148C55.3069 68.5507 55.0407 68.462 54.7672 68.462H54.5565H44.4434Z" fill="url(#paint1_linear_106_1933)"/>
</g>
<defs>
<linearGradient id="paint0_linear_106_1933" x1="-0.278455" y1="9.40859" x2="79.0766" y2="107.704" gradientUnits="userSpaceOnUse">
<stop stop-color="#D300DC"/>
<stop offset="0.505208" stop-color="#B12496"/>
<stop offset="1" stop-color="#F47D65"/>
</linearGradient>
<linearGradient id="paint1_linear_106_1933" x1="28.0093" y1="28.1861" x2="83.4904" y2="57.1798" gradientUnits="userSpaceOnUse">
<stop stop-color="white"/>
<stop offset="0.848958" stop-color="#7F787F"/>
<stop offset="0.982609" stop-color="#4B454B"/>
</linearGradient>
<clipPath id="clip0_106_1933">
<rect width="100" height="100" fill="white"/>
</clipPath>
</defs>
</svg>
