<svg width="100" height="100" viewBox="0 0 100 100" fill="none" xmlns="http://www.w3.org/2000/svg">
<g clip-path="url(#clip0_106_1865)">
<path d="M48.6879 20.1843L49.071 22.2226H51.1449H87.6149C93.0715 22.2226 97.5 26.647 97.5 32.1077V77.9821C97.5 83.4379 93.0708 87.8672 87.6149 87.8672H12.3851C6.92684 87.8672 2.5 83.4383 2.5 77.9821V42.2029V32.1077V22.018C2.5 16.5569 6.92612 12.1329 12.3851 12.1329H38.991C43.815 12.1329 47.8259 15.5971 48.6879 20.1843Z" stroke="url(#paint0_linear_106_1865)" stroke-width="5"/>
<g filter="url(#filter0_dd_106_1865)">
<path fill-rule="evenodd" clip-rule="evenodd" d="M52.4934 30.7496C52.4934 29.231 51.2624 28 49.7438 28C48.2252 28 46.9942 29.231 46.9942 30.7496V33.1114C38.8659 34.0919 34 39.4175 34 45.6C34 51.7824 38.8659 57.108 46.9942 58.0885V72.2795C45.0831 71.902 43.4354 71.1806 42.1359 70.4381C41.1978 69.902 40.4648 69.368 39.9757 68.9767C39.732 68.7818 39.5514 68.6243 39.4388 68.5225C39.3826 68.4718 39.3435 68.4351 39.3223 68.4148L39.3051 68.3984L39.3049 68.3982L39.3043 68.3976C38.2299 67.3323 36.4953 67.3351 35.4243 68.4061C34.3505 69.4799 34.3505 71.2208 35.4243 72.2946L37.3686 70.3503C35.4243 72.2946 35.425 72.2953 35.4258 72.2961L35.4274 72.2977L35.4309 72.3012L35.4395 72.3097L35.4621 72.3319C35.4797 72.3491 35.5022 72.3709 35.5297 72.397C35.5846 72.4493 35.6591 72.519 35.7527 72.6035C35.9398 72.7725 36.204 73.0018 36.5404 73.2709C37.2115 73.8078 38.1801 74.5113 39.4076 75.2127C41.3119 76.3009 43.8973 77.4163 46.9942 77.8555V80.2504C46.9942 81.769 48.2252 83 49.7438 83C51.2624 83 52.4934 81.769 52.4934 80.2504V77.8887C60.6215 76.9081 65.4872 71.5826 65.4871 65.4002C65.4869 59.218 60.6212 53.8926 52.4934 52.9118V38.65C54.8452 39.0067 56.5703 39.7826 57.7555 40.5144C58.5683 41.0163 59.1431 41.5077 59.4983 41.8516C59.6756 42.0234 59.7972 42.1574 59.865 42.2359C59.8989 42.2751 59.9193 42.3002 59.9264 42.3091L59.9266 42.3094C60.8341 43.5089 62.5405 43.7574 63.7533 42.8611C64.9745 41.9585 65.2328 40.2368 64.3302 39.0156L62.1903 40.5972C64.3301 39.0156 64.3292 39.0143 64.3283 39.0131L64.3263 39.0104L64.3222 39.0048L64.3127 38.9922L64.2894 38.9616C64.2719 38.9388 64.2505 38.9113 64.2251 38.8795C64.1744 38.8159 64.1076 38.7347 64.0244 38.6385C63.8582 38.4463 63.6258 38.1935 63.3239 37.9012C62.7207 37.317 61.836 36.5709 60.6446 35.8353C58.716 34.6445 56.0219 33.506 52.4934 33.1034V30.7496ZM46.9942 38.6529C41.5224 39.5164 39.4992 42.9542 39.4992 45.6C39.4992 48.2457 41.5224 51.6835 46.9942 52.547V38.6529ZM52.4934 58.4534V72.3472C57.965 71.4836 59.9879 68.0459 59.9879 65.4003C59.9878 62.7548 57.9647 59.3171 52.4934 58.4534ZM39.3128 68.4061L39.3115 68.4047C39.3121 68.4054 39.3128 68.406 37.4876 70.2313L39.3128 68.4061Z" fill="url(#paint1_linear_106_1865)"/>
</g>
</g>
<defs>
<filter id="filter0_dd_106_1865" x="-6" y="-12" width="111.487" height="135" filterUnits="userSpaceOnUse" color-interpolation-filters="sRGB">
<feFlood flood-opacity="0" result="BackgroundImageFix"/>
<feColorMatrix in="SourceAlpha" type="matrix" values="0 0 0 0 0 0 0 0 0 0 0 0 0 0 0 0 0 0 127 0" result="hardAlpha"/>
<feOffset dy="2.74961"/>
<feGaussianBlur stdDeviation="1.37481"/>
<feComposite in2="hardAlpha" operator="out"/>
<feColorMatrix type="matrix" values="0 0 0 0 0 0 0 0 0 0 0 0 0 0 0 0 0 0 0.25 0"/>
<feBlend mode="normal" in2="BackgroundImageFix" result="effect1_dropShadow_106_1865"/>
<feColorMatrix in="SourceAlpha" type="matrix" values="0 0 0 0 0 0 0 0 0 0 0 0 0 0 0 0 0 0 127 0" result="hardAlpha"/>
<feOffset/>
<feGaussianBlur stdDeviation="20"/>
<feComposite in2="hardAlpha" operator="out"/>
<feColorMatrix type="matrix" values="0 0 0 0 0.968627 0 0 0 0 0.945098 0 0 0 0 0.027451 0 0 0 1 0"/>
<feBlend mode="normal" in2="effect1_dropShadow_106_1865" result="effect2_dropShadow_106_1865"/>
<feBlend mode="normal" in="SourceGraphic" in2="effect2_dropShadow_106_1865" result="shape"/>
</filter>
<linearGradient id="paint0_linear_106_1865" x1="-0.278455" y1="9.4086" x2="79.0766" y2="107.704" gradientUnits="userSpaceOnUse">
<stop stop-color="#D300DC"/>
<stop offset="0.505208" stop-color="#B12496"/>
<stop offset="1" stop-color="#F47D65"/>
</linearGradient>
<linearGradient id="paint1_linear_106_1865" x1="33.9123" y1="27.8472" x2="81.6045" y2="55.1518" gradientUnits="userSpaceOnUse">
<stop stop-color="#D300DC"/>
<stop offset="0.505208" stop-color="#B12496"/>
<stop offset="1" stop-color="#F47D65"/>
</linearGradient>
<clipPath id="clip0_106_1865">
<rect width="100" height="100" fill="white"/>
</clipPath>
</defs>
</svg>
