<svg width="100" height="100" viewBox="0 0 100 100" fill="none" xmlns="http://www.w3.org/2000/svg">
<path fill-rule="evenodd" clip-rule="evenodd" d="M100 77.982V32.1076C100 25.2656 94.4515 19.7225 87.6149 19.7225H51.1449C50.0661 13.9814 45.046 9.63281 38.991 9.63281H12.3851C5.54577 9.63281 0 15.1758 0 22.0179V32.1076V42.2029V77.982C0 84.8186 5.54577 90.3671 12.3851 90.3671H87.6149C94.4515 90.3671 100 84.8186 100 77.982ZM31.0543 34C29.9197 34 29 34.9197 29 36.0542V43.664H71.9897V36.0542C71.9897 34.9197 71.07 34 69.9354 34H31.0543ZM29 74.9354V50.664H38.6628V76.9897H31.0543C29.9197 76.9897 29 76.0699 29 74.9354ZM69.9354 76.9897H45.6628V50.664H71.9897V74.9354C71.9897 76.0699 71.07 76.9897 69.9354 76.9897ZM22 36.0542C22 31.0537 26.0537 27 31.0543 27H69.9354C74.936 27 78.9897 31.0537 78.9897 36.0542V74.9354C78.9897 79.9359 74.936 83.9897 69.9354 83.9897H31.0543C26.0537 83.9897 22 79.9359 22 74.9354V36.0542Z" fill="url(#paint0_linear_106_2527)"/>
<defs>
<linearGradient id="paint0_linear_106_2527" x1="-0.278455" y1="9.40855" x2="79.0766" y2="107.704" gradientUnits="userSpaceOnUse">
<stop stop-color="#D300DC"/>
<stop offset="0.505208" stop-color="#B12496"/>
<stop offset="1" stop-color="#F47D65"/>
</linearGradient>
</defs>
</svg>
