<svg width="100" height="100" viewBox="0 0 100 100" fill="none" xmlns="http://www.w3.org/2000/svg">
<g clip-path="url(#clip0_106_1972)">
<path d="M48.6879 20.1843L49.071 22.2226H51.1449H87.6149C93.0715 22.2226 97.5 26.647 97.5 32.1077V77.9821C97.5 83.4379 93.0708 87.8672 87.6149 87.8672H12.3851C6.92684 87.8672 2.5 83.4383 2.5 77.9821V42.2029V32.1077V22.018C2.5 16.5569 6.92612 12.1329 12.3851 12.1329H38.991C43.815 12.1329 47.8259 15.5971 48.6879 20.1843Z" stroke="url(#paint0_linear_106_1972)" stroke-width="5"/>
<path fill-rule="evenodd" clip-rule="evenodd" d="M35.7709 29C35.1855 29 34.6445 29.3124 34.3519 29.8195L20.2193 54.3097C19.9269 54.8164 19.9269 55.4406 20.2193 55.9474L34.3519 80.4384C34.6445 80.9455 35.1855 81.2579 35.7709 81.2579H64.0336C64.6191 81.2579 65.16 80.9455 65.4526 80.4384L79.5852 55.9474C79.8776 55.4406 79.8776 54.8164 79.5852 54.3097L65.4535 29.8195C65.1609 29.3124 64.6199 29 64.0344 29H35.7709ZM23.5299 55.1285L36.717 32.2767H63.0883L76.2746 55.1285L63.0875 77.9812H36.7171L23.5299 55.1285ZM36.2068 46.161C35.7001 46.4576 35.3876 47.0045 35.3877 47.5946L35.3907 62.6773C35.3909 63.2619 35.6978 63.8008 36.1972 64.0932L49.0828 71.6377C49.5869 71.9329 50.2105 71.932 50.7172 71.6355L63.5984 64.0975C64.1052 63.801 64.4177 63.2541 64.4175 62.664L64.4143 47.5809C64.4142 46.9963 64.1072 46.4574 63.6078 46.165L50.7229 38.6207C50.2187 38.3255 49.5952 38.3263 49.0884 38.6229L36.2068 46.161ZM38.6506 61.7136L38.6479 48.5287L49.8908 41.9496L61.1544 48.5446L61.1573 61.7298L49.9148 68.3088L38.6506 61.7136Z" fill="url(#paint1_linear_106_1972)"/>
</g>
<defs>
<linearGradient id="paint0_linear_106_1972" x1="-0.500003" y1="91.5" x2="103" y2="10.0001" gradientUnits="userSpaceOnUse">
<stop stop-color="#FDFDFD"/>
<stop offset="0.453125" stop-color="#D556B6"/>
<stop offset="0.973958" stop-color="#C94294"/>
</linearGradient>
<linearGradient id="paint1_linear_106_1972" x1="20.013" y1="29.1831" x2="83.5679" y2="76.1318" gradientUnits="userSpaceOnUse">
<stop stop-color="white"/>
<stop offset="0.848958" stop-color="#7F787F"/>
<stop offset="0.982609" stop-color="#4B454B"/>
</linearGradient>
<clipPath id="clip0_106_1972">
<rect width="100" height="100" fill="white"/>
</clipPath>
</defs>
</svg>
