<svg width="100" height="100" viewBox="0 0 100 100" fill="none" xmlns="http://www.w3.org/2000/svg">
<g clip-path="url(#clip0_106_2783)">
<mask id="mask0_106_2783" style="mask-type:luminance" maskUnits="userSpaceOnUse" x="0" y="0" width="100" height="100">
<path d="M100 0H0V100H100V0Z" fill="white"/>
</mask>
<g mask="url(#mask0_106_2783)">
<path d="M48.6879 20.1843L49.071 22.2226H51.1449H87.6149C93.0715 22.2226 97.5 26.647 97.5 32.1077V77.9821C97.5 83.4379 93.0708 87.8671 87.6149 87.8671H12.3851C6.92684 87.8671 2.5 83.4383 2.5 77.9821V42.2029V32.1077V22.0179C2.5 16.5569 6.92612 12.1329 12.3851 12.1329H38.991C43.815 12.1329 47.8259 15.5971 48.6879 20.1843Z" stroke="url(#paint0_linear_106_2783)" stroke-width="5"/>
</g>
<path fill-rule="evenodd" clip-rule="evenodd" d="M63.4392 43.9803C63.4392 50.8981 57.8312 56.5061 50.9134 56.5061C43.9956 56.5061 38.3876 50.8981 38.3876 43.9803C38.3876 37.0625 43.9956 31.4545 50.9134 31.4545C57.8312 31.4545 63.4392 37.0625 63.4392 43.9803ZM61.5499 57.2173C65.4182 54.1049 67.8938 49.3317 67.8938 43.9803C67.8938 34.6024 60.2914 27 50.9134 27C41.5355 27 33.9331 34.6024 33.9331 43.9803C33.9331 49.3831 36.4564 54.1965 40.3888 57.3065C31.7019 59.0251 25.152 66.6866 25.152 75.8779V80.6222C25.152 81.8523 26.1492 82.8495 27.3793 82.8495C28.6093 82.8495 29.6065 81.8523 29.6065 80.6222V75.8779C29.6065 67.8823 36.0882 61.4006 44.0838 61.4006H58.3388C66.3344 61.4006 72.8161 67.8823 72.8161 75.8779V80.6222C72.8161 81.8523 73.8132 82.8495 75.0433 82.8495C76.2734 82.8495 77.2706 81.8523 77.2706 80.6222V75.8779C77.2706 66.5167 70.4763 58.7424 61.5499 57.2173Z" fill="url(#paint1_linear_106_2783)"/>
</g>
<defs>
<linearGradient id="paint0_linear_106_2783" x1="2.23547" y1="11.9225" x2="76.4721" y2="105.048" gradientUnits="userSpaceOnUse">
<stop stop-color="#D300DC"/>
<stop offset="0.505208" stop-color="#B12496"/>
<stop offset="1" stop-color="#F47D65"/>
</linearGradient>
<linearGradient id="paint1_linear_106_2783" x1="25.1633" y1="27.1957" x2="87.9809" y2="65.0354" gradientUnits="userSpaceOnUse">
<stop stop-color="white"/>
<stop offset="0.848958" stop-color="#7F787F"/>
<stop offset="0.982609" stop-color="#4B454B"/>
</linearGradient>
<clipPath id="clip0_106_2783">
<rect width="100" height="100" fill="white"/>
</clipPath>
</defs>
</svg>
