<svg width="100" height="100" viewBox="0 0 100 100" fill="none" xmlns="http://www.w3.org/2000/svg">
<path fill-rule="evenodd" clip-rule="evenodd" d="M38.4445 13.6004C43.8025 4.32005 57.1975 4.32006 62.5555 13.6004L95.9815 71.4959C101.339 80.7762 94.642 92.3766 83.926 92.3766H17.074C6.35798 92.3766 -0.339494 80.7762 5.01849 71.4959L9.03699 73.816L5.01849 71.4959L38.4445 13.6004ZM54.5185 18.2405C52.7325 15.1471 48.2675 15.1471 46.4815 18.2405L13.0555 76.1361C11.2695 79.2295 13.502 83.0963 17.074 83.0963H83.926C87.498 83.0963 89.7305 79.2295 87.9445 76.1361L54.5185 18.2405Z" fill="url(#paint0_linear_328_117)"/>
<path fill-rule="evenodd" clip-rule="evenodd" d="M3.5 38C3.5 34.134 6.63401 31 10.5 31H87C90.866 31 94 34.134 94 38C94 41.866 90.866 45 87 45H10.5C6.63401 45 3.5 41.866 3.5 38Z" fill="url(#paint1_linear_328_117)"/>
<path fill-rule="evenodd" clip-rule="evenodd" d="M69 69L32 69C28.134 69 25 65.866 25 62C25 58.134 28.134 55 32 55L69 55C72.866 55 76 58.134 76 62C76 65.866 72.866 69 69 69Z" fill="url(#paint2_linear_328_117)"/>
<defs>
<linearGradient id="paint0_linear_328_117" x1="2.65906" y1="93.5797" x2="109.022" y2="18.8644" gradientUnits="userSpaceOnUse">
<stop stop-color="#FDFDFD"/>
<stop offset="0.453125" stop-color="#D556B6"/>
<stop offset="0.973958" stop-color="#C94294"/>
</linearGradient>
<linearGradient id="paint1_linear_328_117" x1="3.5" y1="31.0637" x2="11.5525" y2="64.6837" gradientUnits="userSpaceOnUse">
<stop offset="0.0104167" stop-color="white"/>
<stop offset="0.510417" stop-color="#45A8E1"/>
<stop offset="1" stop-color="#298FD4"/>
</linearGradient>
<linearGradient id="paint2_linear_328_117" x1="25" y1="55.0637" x2="37.7972" y2="85.1733" gradientUnits="userSpaceOnUse">
<stop offset="0.0104167" stop-color="white"/>
<stop offset="0.510417" stop-color="#45A8E1"/>
<stop offset="1" stop-color="#298FD4"/>
</linearGradient>
</defs>
</svg>
