<svg width="100" height="100" viewBox="0 0 100 100" fill="none" xmlns="http://www.w3.org/2000/svg">
<g clip-path="url(#clip0_106_2171)">
<path d="M48.6879 20.1843L49.071 22.2226H51.1449H87.6149C93.0715 22.2226 97.5 26.647 97.5 32.1077V77.9821C97.5 83.4379 93.0708 87.8672 87.6149 87.8672H12.3851C6.92684 87.8672 2.5 83.4383 2.5 77.9821V42.2029V32.1077V22.018C2.5 16.557 6.92612 12.1329 12.3851 12.1329H38.991C43.815 12.1329 47.8259 15.5971 48.6879 20.1843Z" stroke="url(#paint0_linear_106_2171)" stroke-width="5"/>
<path fill-rule="evenodd" clip-rule="evenodd" d="M55.1792 32.543C55.4791 31.154 54.5962 29.7849 53.2072 29.4851C51.8183 29.1852 50.4492 30.0681 50.1493 31.457L40.0021 78.4571C39.7022 79.846 40.5851 81.2151 41.9741 81.515C43.3631 81.8149 44.7321 80.932 45.032 79.543L55.1792 32.543ZM36.2486 43.0011C37.2534 41.9963 37.2534 40.3672 36.2486 39.3625C35.2438 38.3577 33.6148 38.3577 32.61 39.3625L18.1806 53.7918C17.1759 54.7966 17.1759 56.4256 18.1806 57.4304L32.3474 71.5978C33.3522 72.6026 34.9812 72.6026 35.986 71.5978C36.9908 70.5931 36.9909 68.964 35.9861 67.9592L23.6386 55.6112L36.2486 43.0011ZM62.5683 39.3625C61.5635 38.3577 59.9344 38.3577 58.9297 39.3625C57.9249 40.3672 57.9249 41.9963 58.9297 43.0011L71.5397 55.6112L59.1922 67.9592C58.1874 68.964 58.1874 70.5931 59.1922 71.5978C60.197 72.6026 61.8261 72.6026 62.8309 71.5978L76.9977 57.4304C78.0024 56.4256 78.0024 54.7966 76.9976 53.7918L62.5683 39.3625Z" fill="url(#paint1_linear_106_2171)"/>
</g>
<defs>
<linearGradient id="paint0_linear_106_2171" x1="1.17766e-07" y1="10.0001" x2="100" y2="90.0001" gradientUnits="userSpaceOnUse">
<stop offset="0.0104167" stop-color="white"/>
<stop offset="0.510417" stop-color="#45A8E1"/>
<stop offset="1" stop-color="#298FD4"/>
</linearGradient>
<linearGradient id="paint1_linear_106_2171" x1="17.4402" y1="29.6093" x2="81.0579" y2="77.1136" gradientUnits="userSpaceOnUse">
<stop stop-color="white"/>
<stop offset="0.848958" stop-color="#7F787F"/>
<stop offset="0.982609" stop-color="#4B454B"/>
</linearGradient>
<clipPath id="clip0_106_2171">
<rect width="100" height="100" fill="white"/>
</clipPath>
</defs>
</svg>
