<svg width="100" height="100" viewBox="0 0 100 100" fill="none" xmlns="http://www.w3.org/2000/svg">
<path d="M65.8028 40.9382H34.1973M34.1973 40.85L24.6673 11.5555C24.1855 10.0436 22.0464 10.0436 21.5637 11.5555L12.0555 40.85L7.2364 55.6182C7.02358 56.2781 7.02391 56.9882 7.23734 57.648C7.45077 58.3077 7.86647 58.8834 8.42549 59.2936L50 89.5791L91.5746 59.2936C92.1336 58.8834 92.5493 58.3077 92.7627 57.648C92.9762 56.9882 92.9765 56.2781 92.7637 55.6182L87.9664 40.85M87.9664 40.9382V40.85M87.9664 40.85L78.4364 11.5555C77.9537 10.0436 75.8146 10.0436 75.3328 11.5555L65.8028 40.85" stroke="url(#paint0_linear_106_1624)" stroke-width="8" stroke-linecap="round" stroke-linejoin="round"/>
<defs>
<linearGradient id="paint0_linear_106_1624" x1="6.64779" y1="90.6899" x2="104.214" y2="23.4228" gradientUnits="userSpaceOnUse">
<stop stop-color="#FDFDFD"/>
<stop offset="0.453125" stop-color="#D556B6"/>
<stop offset="0.973958" stop-color="#C94294"/>
</linearGradient>
</defs>
</svg>
