<svg width="100" height="100" viewBox="0 0 100 100" fill="none" xmlns="http://www.w3.org/2000/svg">
<path d="M25.2553 11.3233C21.2057 11.222 16.2043 13.3397 16.2043 13.3397L32.742 46.8863L23.9727 84.3764C31.9767 91.1447 40.8047 87.9073 40.8047 87.9073L44.867 58.8974C45.3803 59.3834 45.9243 59.8287 46.473 60.24C48.236 61.4887 50.1457 62.443 52.055 63.1777C53.965 63.912 55.9483 64.4997 57.9317 64.9403C59.254 65.2343 60.502 65.4547 61.824 65.6017C61.2363 66.9237 60.8693 68.319 60.943 69.8617C60.943 70.0084 61.0163 70.155 61.1633 70.2283H61.2367C62.632 70.963 64.101 71.5517 65.7167 71.9187C67.2593 72.2123 68.949 72.3597 70.565 72.1394C72.2543 71.919 73.9437 71.2577 75.266 70.156C76.5883 69.054 77.543 67.5847 78.1307 66.0427L78.204 65.969V65.896L78.425 63.913V63.839C79.1593 63.3983 79.8937 62.9577 80.6283 62.3703C81.5097 61.6357 82.3177 60.8274 82.905 59.799C83.493 58.7707 83.86 57.522 83.7863 56.2734C83.713 55.0984 83.2717 53.9237 82.7577 52.8954C82.2433 51.867 81.5827 50.9117 80.8483 50.03C79.379 48.3407 77.6163 46.9457 75.7067 45.8437C73.87 44.6687 71.8133 43.713 69.7567 43.052L68.9487 42.8314L68.2887 42.6113C67.848 42.4647 67.48 42.2443 67.113 42.0973C66.3783 41.6567 65.8637 41.2157 65.4963 40.628C64.762 39.5264 64.6887 37.8377 65.056 36.0747C65.1293 35.634 65.2767 35.193 65.4237 34.7524C65.5703 34.3117 65.717 33.8707 65.864 33.3563C65.9719 32.8694 66.0391 32.3744 66.065 31.8763L75.882 23.2863C75.117 20.4617 66.6413 17.5187 66.6413 17.5187L41.4513 38.9417L26.9147 11.516C26.3927 11.3983 25.833 11.3387 25.2547 11.3243L25.2553 11.3233ZM61.4553 35.911C61.3047 36.696 61.238 37.523 61.238 38.351C61.3113 39.5997 61.679 40.9963 62.4867 42.1717C63.2947 43.3467 64.396 44.228 65.498 44.742C66.0401 45.0134 66.6057 45.2347 67.188 45.4034L68.0697 45.6233L68.8037 45.77C70.7137 46.2843 72.5493 47.0187 74.2387 47.9737C75.928 48.9287 77.544 50.1037 78.8663 51.426C80.1887 52.748 81.217 54.4377 81.364 56.127C81.4373 57.3023 81.29 58.1837 80.9227 58.918C80.5557 59.726 79.968 60.4603 79.307 61.1213C79.0133 61.4153 78.646 61.7087 78.3523 61.929C78.3523 61.268 78.279 60.6074 78.1323 59.9464C78.059 59.579 77.985 59.2853 77.8383 58.918C77.6917 58.6243 77.545 58.2573 77.1777 58.037C77.1043 58.037 77.03 58.0367 77.03 58.11C76.5893 59.2117 75.855 60.167 75.0473 60.828C74.2393 61.489 73.2107 61.7827 72.1827 61.8564C71.1543 61.9297 70.052 61.7097 68.9503 61.4157C67.8483 61.122 66.7473 60.754 65.6457 60.387L65.498 60.3134C65.2777 60.24 64.985 60.314 64.838 60.461C64.2507 61.1957 63.8093 61.8557 63.2953 62.5903C62.9495 63.1376 62.6309 63.7016 62.3407 64.2804C61.0183 63.766 59.769 63.325 58.4473 62.811C56.6107 62.0763 54.774 61.3423 53.085 60.461C51.322 59.653 49.6337 58.6977 48.1647 57.5957C47.1053 56.8014 46.1267 55.967 45.413 55.0133L46.221 49.2407L61.4553 35.911Z" stroke="url(#paint0_linear_106_1506)" stroke-width="8"/>
<defs>
<linearGradient id="paint0_linear_106_1506" x1="16.0161" y1="11.1049" x2="93.1014" y2="78.4579" gradientUnits="userSpaceOnUse">
<stop stop-color="#D300DC"/>
<stop offset="0.505208" stop-color="#B12496"/>
<stop offset="1" stop-color="#F47D65"/>
</linearGradient>
</defs>
</svg>
