<svg width="100" height="100" viewBox="0 0 100 100" fill="none" xmlns="http://www.w3.org/2000/svg">
<path d="M59.5364 24.5045L62.3073 19.7064C67.8482 10.1091 53.4527 1.79726 47.9109 11.3945L45.1409 16.1936C39.6 25.7909 53.9955 34.1027 59.5364 24.5045ZM83.5291 38.3573L86.3 33.5582C91.8409 23.9618 77.4455 15.65 71.9036 25.2473L69.1336 30.0454C63.5927 39.6427 77.9882 47.9545 83.5291 38.3573ZM85.4582 68.2618L86.8427 65.8618C92.3836 56.2654 77.9882 47.9545 72.4473 57.5509L71.0618 59.9509C65.5209 69.5473 79.9164 77.8591 85.4582 68.2618ZM32.6727 37.7873L34.0582 35.3873C39.5991 25.7909 25.2036 17.4791 19.6627 27.0764L18.2773 29.4764C12.7364 39.0727 27.1327 47.3836 32.6727 37.7863V37.7873ZM18.1091 55.8664L41.9273 46.9482C49.2318 44.2118 57.2182 48.8236 58.5009 56.5182L62.6873 81.6036C64.0355 89.6754 55.3782 95.6818 48.2864 91.5873C47.3549 91.05 46.5615 90.3029 45.9691 89.4054L44.7409 87.5436C42.2218 83.7293 38.8494 80.5538 34.8907 78.2684C30.932 75.983 26.4956 74.6505 21.9327 74.3764L19.7073 74.2427C18.6356 74.1788 17.5936 73.8664 16.6636 73.33C9.57182 69.2354 10.4455 58.7345 18.1091 55.8664Z" stroke="url(#paint0_linear_106_1649)" stroke-width="8"/>
<defs>
<linearGradient id="paint0_linear_106_1649" x1="11.8355" y1="7.43706" x2="106.072" y2="61.5279" gradientUnits="userSpaceOnUse">
<stop stop-color="white"/>
<stop offset="0.848958" stop-color="#7F787F"/>
<stop offset="0.982609" stop-color="#4B454B"/>
</linearGradient>
</defs>
</svg>
