<svg width="100" height="100" viewBox="0 0 100 100" fill="none" xmlns="http://www.w3.org/2000/svg">
<path d="M69.6064 40.2127C73.255 40.2127 76.2127 37.255 76.2127 33.6064C76.2127 29.9578 73.255 27 69.6064 27C65.9578 27 63 29.9578 63 33.6064C63 37.255 65.9578 40.2127 69.6064 40.2127Z" stroke="url(#paint0_linear_106_1651)" stroke-width="8" stroke-miterlimit="10"/>
<path d="M59.851 66.4728L41.1356 47.7909C39.9445 46.6001 38.3436 45.9092 36.6602 45.8593C34.9767 45.8095 33.3377 46.4045 32.0783 47.5228L7.00012 69.8182M43.3356 86.3364L68.7992 60.8728C69.9637 59.7059 71.5224 59.0167 73.1692 58.9403C74.8159 58.8639 76.4317 59.406 77.6992 60.46L92.8838 73.1237" stroke="url(#paint1_linear_106_1651)" stroke-width="8" stroke-linecap="round" stroke-linejoin="round"/>
<path d="M82.9747 13.6646H16.9101C11.437 13.6646 7.00012 18.1014 7.00012 23.5746V76.4264C7.00012 81.8995 11.437 86.3364 16.9101 86.3364H82.9747C88.4478 86.3364 92.8847 81.8995 92.8847 76.4264V23.5746C92.8847 18.1014 88.4478 13.6646 82.9747 13.6646Z" stroke="url(#paint2_linear_106_1651)" stroke-width="8" stroke-linejoin="round"/>
<defs>
<linearGradient id="paint0_linear_106_1651" x1="62.9632" y1="26.9633" x2="76.2489" y2="40.2495" gradientUnits="userSpaceOnUse">
<stop stop-color="#D300DC"/>
<stop offset="0.505208" stop-color="#B12496"/>
<stop offset="1" stop-color="#F47D65"/>
</linearGradient>
<linearGradient id="paint1_linear_106_1651" x1="7.00012" y1="45.8564" x2="42.8344" y2="113.034" gradientUnits="userSpaceOnUse">
<stop stop-color="#5FC7FF"/>
<stop offset="1" stop-color="#2731F7"/>
</linearGradient>
<linearGradient id="paint2_linear_106_1651" x1="7.00012" y1="13.6646" x2="84.3861" y2="94.4749" gradientUnits="userSpaceOnUse">
<stop stop-color="#5FC7FF"/>
<stop offset="1" stop-color="#2731F7"/>
</linearGradient>
</defs>
</svg>
