<svg width="100" height="100" viewBox="0 0 100 100" fill="none" xmlns="http://www.w3.org/2000/svg">
<path fill-rule="evenodd" clip-rule="evenodd" d="M54.1667 12.4999C54.1667 10.1988 52.3012 8.33325 50 8.33325C47.6987 8.33325 45.8333 10.1988 45.8333 12.4999V49.9999C45.8333 52.3012 47.6987 54.1666 50 54.1666C52.3012 54.1666 54.1667 52.3012 54.1667 49.9999V12.4999ZM35.8717 24.4766C37.8838 23.36 38.6098 20.8237 37.4933 18.8116C36.3767 16.7994 33.8405 16.0734 31.8283 17.1899C20.3105 23.5811 12.5 35.8755 12.5 49.9999C12.5 70.7108 29.2893 87.4999 50 87.4999C70.7108 87.4999 87.5 70.7108 87.5 49.9999C87.5 36.1144 79.9508 23.9969 68.7529 17.5193C66.7612 16.367 64.2121 17.0477 63.06 19.0396C61.9079 21.0315 62.5883 23.5804 64.5804 24.7327C73.3092 29.782 79.1667 39.2094 79.1667 49.9999C79.1667 66.1082 66.1083 79.1666 50 79.1666C33.8917 79.1666 20.8333 66.1082 20.8333 49.9999C20.8333 39.0241 26.8942 29.4581 35.8717 24.4766Z" fill="url(#paint0_linear_106_2681)"/>
<defs>
<linearGradient id="paint0_linear_106_2681" x1="12.125" y1="88.6108" x2="104.408" y2="33.0311" gradientUnits="userSpaceOnUse">
<stop stop-color="#FDFDFD"/>
<stop offset="0.453125" stop-color="#D556B6"/>
<stop offset="0.973958" stop-color="#C94294"/>
</linearGradient>
</defs>
</svg>
