<svg width="100" height="100" viewBox="0 0 100 100" fill="none" xmlns="http://www.w3.org/2000/svg">
<path d="M19.6972 7.32909L80.3027 7.28455C86.2554 7.28 92.9299 13.9591 92.9299 19.9109V80.5173C92.9299 86.3691 86.1554 92.7155 80.3027 92.7155H19.6972C13.8445 92.7155 7.06995 86.3691 7.06995 80.5173V19.9109C7.06995 13.9691 13.7554 7.33364 19.6972 7.32909Z" stroke="url(#paint0_linear_106_1662)" stroke-width="8" stroke-linecap="round" stroke-linejoin="round"/>
<path d="M79.9428 52.7273C79.9428 52.7273 79.941 52.6592 79.261 52.0455C78.6373 51.4822 77.9278 51.0218 77.1591 50.6819C76.4464 50.3637 75.79 50.2301 75.0564 50.1137C74.3237 49.9973 73.9728 50.0519 73.1246 50.0992C72.2773 50.1473 71.2564 50.2601 70.5537 50.611C69.8519 50.961 69.0582 51.3755 68.6082 51.8037C68.1582 52.2328 67.8646 52.6492 67.5564 53.1819C67.2387 53.7362 66.9908 54.3277 66.8182 54.9428C66.66 55.5273 66.5937 55.9028 66.591 56.6473C66.5882 57.3928 66.6782 58.5701 66.9319 59.3746C67.1855 60.1801 67.5864 60.831 68.011 61.4201C68.4373 62.0101 68.9491 62.5555 69.4319 62.8973C69.9137 63.2401 70.15 63.4137 70.8519 63.7501C71.5555 64.0864 72.67 64.4601 73.6364 64.9428C74.6019 65.4264 75.711 65.9437 76.591 66.4201C77.471 66.8973 78.29 67.3273 78.92 67.7837C79.551 68.241 79.9491 68.5964 80.3973 69.091C80.8464 69.5855 81.2873 70.1537 81.591 70.7382C81.8946 71.3237 82.0946 71.7364 82.2364 72.5364C82.3073 72.9364 82.3382 73.4955 82.3428 74.0437C82.3473 74.5919 82.3264 75.131 82.2928 75.491C82.2255 76.2128 82.1655 76.2819 81.9891 76.8746C81.811 77.4682 81.3882 78.4182 80.9355 79.0337C80.4828 79.6501 80.0137 80.0537 79.3755 80.4546C78.7364 80.8546 78 81.2073 77.33 81.4201C76.6591 81.6337 76.1755 81.6855 75.3982 81.761C74.62 81.8373 73.6146 81.9092 72.671 81.8183C71.7255 81.7273 70.5982 81.4728 69.7728 81.1928C68.9482 80.9137 68.33 80.6428 67.7273 80.2273C67.1246 79.8119 66.8728 79.6246 66.5346 79.2328C66.0837 78.7119 65.4546 77.4728 65.4546 77.4728" stroke="url(#paint1_linear_106_1662)" stroke-width="8" stroke-linecap="round" stroke-linejoin="round"/>
<path d="M54.5255 50.3872C54.5255 50.3872 54.5837 66.5554 54.5255 74.8545C54.5209 75.4981 54.5182 76.149 54.4046 76.7827C54.3309 77.1954 54.2046 77.6008 54.0427 77.9881C53.9246 78.2699 53.7682 78.5354 53.6009 78.7918C53.3609 79.159 53.1082 79.5254 52.7973 79.8363C52.5337 80.0999 52.2273 80.3181 51.9137 80.519C51.3537 80.8781 50.7655 81.2008 50.1455 81.4436C49.6141 81.6503 49.0617 81.7985 48.4982 81.8854C47.9006 81.9788 47.2945 82.0056 46.6909 81.9654C46.2478 81.9342 45.8096 81.8534 45.3846 81.7245C44.7991 81.5472 44.2209 81.3199 43.6973 81.0018C43.32 80.7708 42.9882 80.4681 42.6727 80.1572C42.3482 79.8372 42.0709 79.4718 41.7891 79.1127C41.6764 78.9699 41.4673 78.6708 41.4673 78.6708" stroke="url(#paint2_linear_106_1662)" stroke-width="8" stroke-linecap="round" stroke-linejoin="round"/>
<defs>
<linearGradient id="paint0_linear_106_1662" x1="6.83086" y1="7.04724" x2="92.7323" y2="93.3837" gradientUnits="userSpaceOnUse">
<stop stop-color="#D300DC"/>
<stop offset="0.505208" stop-color="#B12496"/>
<stop offset="1" stop-color="#F47D65"/>
</linearGradient>
<linearGradient id="paint1_linear_106_1662" x1="65.4076" y1="49.9558" x2="91.906" y2="64.0222" gradientUnits="userSpaceOnUse">
<stop stop-color="#D300DC"/>
<stop offset="0.505208" stop-color="#B12496"/>
<stop offset="1" stop-color="#F47D65"/>
</linearGradient>
<linearGradient id="paint2_linear_106_1662" x1="41.4309" y1="50.2994" x2="63.8925" y2="59.6012" gradientUnits="userSpaceOnUse">
<stop stop-color="#D300DC"/>
<stop offset="0.505208" stop-color="#B12496"/>
<stop offset="1" stop-color="#F47D65"/>
</linearGradient>
</defs>
</svg>
