<svg width="100" height="100" viewBox="0 0 100 100" fill="none" xmlns="http://www.w3.org/2000/svg">
<path d="M48.9054 36.75L37.4873 8.97546H91.8291L79.8309 36.7618M75.1018 37.4064C71.5109 31.5609 68.4673 26.01 64.53 19.53L53.1054 37.1146M59.7518 45.8509H69.8336M85.6482 54.3409C85.6482 54.3409 87.8063 58.29 87.6827 60.4527C87.5591 62.6155 86.24 64.4873 85.1172 66.2282C83.9945 67.9682 83.1227 69.0855 81.2963 71.0036C79.47 72.9218 76.5618 75.6709 73.9736 77.4782C71.3845 79.2846 68.8945 80.3846 65.9072 81.8291C62.92 83.2746 58.9372 85.0409 56.0372 86.0746C53.1372 87.1073 51.1736 87.5746 48.6082 88.1973C46.0418 88.8191 43.1991 89.3873 40.6482 89.7882C38.0982 90.1909 35.5554 90.45 33.3254 90.6382C31.0945 90.8255 29.1163 90.9273 27.2754 90.9564C25.4345 90.9855 23.9682 91.13 22.2872 90.85C20.6063 90.57 18.7754 89.9682 17.2991 89.2591C15.8236 88.5482 14.5863 87.7346 13.4782 86.7109C12.3699 85.7054 11.4374 84.5219 10.7191 83.2091C9.92816 81.7864 9.33725 79.8927 8.91452 78.2209C8.4927 76.5482 8.1927 74.8027 8.17179 73.2327C8.15088 71.6618 8.3927 70.2309 8.7027 68.8809C8.99463 67.6013 9.42125 66.3562 9.97543 65.1664C10.4991 64.0491 10.8809 63.3064 11.7809 62.1946C12.6809 61.0827 14.5227 59.4355 15.4954 58.6927C16.0908 58.2399 16.7308 57.8487 17.4054 57.5255M17.83 57.3127C17.83 57.3127 17.3482 60.9255 17.5118 62.7255C17.6463 64.2127 17.9418 65.7237 18.5727 67.0773C19.2045 68.43 20.0782 69.73 21.2263 70.6855C22.2236 71.5155 23.4636 72.0927 24.7282 72.3837C26.3491 72.7564 28.0845 72.7027 29.7163 72.3837C31.7409 71.9873 33.5991 70.9637 35.4472 70.0482C36.8836 69.3373 38.2991 68.56 39.5872 67.6073C40.9401 66.6073 42.185 65.469 43.3018 64.2109C44.1091 63.3 44.7618 62.2609 45.4236 61.24C46.0709 60.2418 46.6218 59.1855 47.2282 58.1618C47.4391 57.8073 48.0772 56.4109 48.0772 56.4109M28.2772 46.1709C28.2772 51.1159 24.2686 55.1246 19.3236 55.1246C14.3787 55.1246 10.37 51.1159 10.37 46.1709C10.37 41.226 14.3787 37.2173 19.3236 37.2173C24.2686 37.2173 28.2772 41.226 28.2772 46.1709ZM58.7463 46.1709C58.7463 51.1159 54.7377 55.1246 49.7927 55.1246C44.8477 55.1246 40.8391 51.1159 40.8391 46.1709C40.8391 41.226 44.8477 37.2173 49.7927 37.2173C54.7377 37.2173 58.7463 41.226 58.7463 46.1709ZM88.4645 46.1709C88.4645 51.1159 84.4558 55.1246 79.5109 55.1246C74.5659 55.1246 70.5573 51.1159 70.5573 46.1709C70.5573 41.226 74.5659 37.2173 79.5109 37.2173C84.4558 37.2173 88.4645 41.226 88.4645 46.1709Z" stroke="url(#paint0_linear_106_1666)" stroke-width="8" stroke-linecap="round" stroke-linejoin="round"/>
<defs>
<linearGradient id="paint0_linear_106_1666" x1="7.93758" y1="8.74757" x2="90.4188" y2="92.8554" gradientUnits="userSpaceOnUse">
<stop stop-color="#D300DC"/>
<stop offset="0.505208" stop-color="#B12496"/>
<stop offset="1" stop-color="#F47D65"/>
</linearGradient>
</defs>
</svg>
