<svg width="100" height="100" viewBox="0 0 100 100" fill="none" xmlns="http://www.w3.org/2000/svg">
<path d="M71.2818 35.4363C72.8091 35.4363 74.2738 34.8296 75.3538 33.7497C76.4337 32.6697 77.0404 31.205 77.0404 29.6777C77.0404 28.1504 76.4337 26.6857 75.3538 25.6057C74.2738 24.5258 72.8091 23.9191 71.2818 23.9191C69.7544 23.9191 68.2895 24.5258 67.2095 25.6059C66.1295 26.6859 65.5227 28.1508 65.5227 29.6782C65.5227 31.2056 66.1295 32.6704 67.2095 33.7505C68.2895 34.8305 69.7544 35.4363 71.2818 35.4363Z" stroke="url(#paint0_linear_106_1671)" stroke-width="4"/>
<path fill-rule="evenodd" clip-rule="evenodd" d="M50.9515 15.5019C55.6842 12.4226 61.3314 11.0638 66.9468 11.6531C72.5622 12.2424 77.8043 14.744 81.7946 18.7387C85.7846 22.7332 88.2803 27.9778 88.8635 33.5936C89.4467 39.2093 88.0818 44.8549 84.9977 49.5841C81.9134 54.313 77.2972 57.8382 71.923 59.5686C66.5487 61.299 60.7429 61.1296 55.4787 59.0886C53.8939 58.4742 52.1567 58.9378 51.0761 60.1225L43.6112 67.5882H35.3109C33.1018 67.5882 31.3109 69.379 31.3109 71.5882V78.5191H20.3764C18.1672 78.5191 16.3764 80.3099 16.3764 82.5191V88.4754H11.01V78.9217L40.5518 49.2513C41.8336 47.964 42.0576 46.0227 41.2263 44.5067C39.371 39.3755 39.2716 33.7675 40.9526 28.5659C42.6889 23.1934 46.2191 18.5811 50.9515 15.5019ZM33.1014 45.3958C31.24 39.1086 31.3113 32.3837 33.3403 26.1057C35.6408 18.9874 40.3182 12.8762 46.5885 8.7963L46.5886 8.79626C52.8592 4.71638 60.3416 2.91595 67.7818 3.69675C75.2219 4.47755 82.1676 7.79213 87.4546 13.0849L87.4546 13.085C92.7413 18.3776 96.048 25.3266 96.8207 32.7672C97.5934 40.2079 95.785 47.6881 91.6987 53.9541L91.6986 53.9542C87.6119 60.2201 81.4957 64.8908 74.3749 67.1836C68.1015 69.2035 61.3842 69.2696 55.1049 67.4076L48.0968 74.4164C47.3466 75.1667 46.3291 75.5882 45.2682 75.5882H39.3109V82.5191C39.3109 84.7282 37.5201 86.5191 35.3109 86.5191H24.3764V92.4754C24.3764 94.6846 22.5855 96.4754 20.3764 96.4754H7.01001C4.80087 96.4754 3.01001 94.6846 3.01001 92.4754V77.27C3.01001 76.2121 3.42906 75.1973 4.17545 74.4477L33.1014 45.3958Z" fill="url(#paint1_linear_106_1671)"/>
<defs>
<linearGradient id="paint0_linear_106_1671" x1="65.4651" y1="35.5989" x2="79.2192" y2="26.8553" gradientUnits="userSpaceOnUse">
<stop stop-color="#FDFDFD"/>
<stop offset="0.453125" stop-color="#D556B6"/>
<stop offset="0.973958" stop-color="#C94294"/>
</linearGradient>
<linearGradient id="paint1_linear_106_1671" x1="2.54008" y1="97.7798" x2="114.058" y2="26.1" gradientUnits="userSpaceOnUse">
<stop stop-color="#FDFDFD"/>
<stop offset="0.453125" stop-color="#D556B6"/>
<stop offset="0.973958" stop-color="#C94294"/>
</linearGradient>
</defs>
</svg>
