<svg width="100" height="100" viewBox="0 0 100 100" fill="none" xmlns="http://www.w3.org/2000/svg">
<path fill-rule="evenodd" clip-rule="evenodd" d="M53.4958 62.325L43.3 52.25L43.4208 52.125C50.2206 44.5679 55.3012 35.6264 58.3125 25.9167H70.075V17.8792H41.975V9.85419H33.9458V17.8834H5.84167V25.9167H50.6833C47.9095 33.8501 43.5838 41.1518 37.9583 47.3959C34.2943 43.3354 31.1763 38.8138 28.6833 33.9459H20.6583C23.6685 40.6319 27.7031 46.8075 32.6167 52.25L12.1875 72.4042L17.8875 78.1042L37.9583 58.0334L50.4458 70.5167L53.4958 62.325ZM76.0958 41.975H68.0667L50.0042 90.15H58.0333L62.5292 78.1084H81.5958L86.1333 90.15H94.1625L76.0958 41.975ZM65.5792 70.075L72.0792 52.6917L78.5834 70.075H65.5792Z" fill="url(#paint0_linear_106_1508)"/>
<defs>
<linearGradient id="paint0_linear_106_1508" x1="5.40007" y1="91.2768" x2="104.86" y2="21.7276" gradientUnits="userSpaceOnUse">
<stop stop-color="#FDFDFD"/>
<stop offset="0.453125" stop-color="#D556B6"/>
<stop offset="0.973958" stop-color="#C94294"/>
</linearGradient>
</defs>
</svg>
