<svg width="100" height="100" viewBox="0 0 100 100" fill="none" xmlns="http://www.w3.org/2000/svg">
<path d="M12.7745 6.36361C11.932 6.36157 11.0975 6.526 10.3188 6.84746C9.54003 7.16891 8.83249 7.64106 8.23677 8.23677C7.64106 8.83249 7.16891 9.54003 6.84746 10.3188C6.526 11.0975 6.36157 11.932 6.36361 12.7745V87.2254C6.36157 88.0679 6.526 88.9025 6.84746 89.6812C7.16891 90.4599 7.64106 91.1675 8.23677 91.7632C8.83249 92.3589 9.54003 92.831 10.3188 93.1525C11.0975 93.4739 11.932 93.6384 12.7745 93.6363H87.2254C88.0679 93.6384 88.9025 93.4739 89.6812 93.1525C90.4599 92.831 91.1675 92.3589 91.7632 91.7632C92.3589 91.1675 92.831 90.4599 93.1525 89.6812C93.4739 88.9025 93.6384 88.0679 93.6363 87.2254V12.7745C93.6384 11.932 93.4739 11.0975 93.1525 10.3188C92.831 9.54003 92.3589 8.83249 91.7632 8.23677C91.1675 7.64106 90.4599 7.16891 89.6812 6.84746C88.9025 6.526 88.0679 6.36157 87.2254 6.36361H12.7745Z" stroke="url(#paint0_linear_106_1703)" stroke-width="8" stroke-linecap="round" stroke-linejoin="round"/>
<path d="M24.8727 24.8109L75.19 24.88L75.1573 75.1927H62.5609L62.5973 37.44H50.03L50 75.1636H24.8118L24.8727 24.8109Z" stroke="url(#paint1_linear_106_1703)" stroke-width="8" stroke-linecap="round" stroke-linejoin="round"/>
<defs>
<linearGradient id="paint0_linear_106_1703" x1="6.12057" y1="6.12117" x2="93.8751" y2="93.8794" gradientUnits="userSpaceOnUse">
<stop stop-color="#D300DC"/>
<stop offset="0.505208" stop-color="#B12496"/>
<stop offset="1" stop-color="#F47D65"/>
</linearGradient>
<linearGradient id="paint1_linear_106_1703" x1="24.8228" y1="24.9874" x2="83.2389" y2="62.692" gradientUnits="userSpaceOnUse">
<stop stop-color="white"/>
<stop offset="0.848958" stop-color="#7F787F"/>
<stop offset="0.982609" stop-color="#4B454B"/>
</linearGradient>
</defs>
</svg>
