<svg width="100" height="100" viewBox="0 0 100 100" fill="none" xmlns="http://www.w3.org/2000/svg">
<path d="M78.1136 93.1227V70.9364C71.8209 66.9791 70.1163 60.56 70.1163 51.8918M53.38 63.1046V76.7091L59.0691 93.1227M38.2927 63.1882V93.1227M92.0473 93.1227V58.1591C92.0473 58.1591 90.6454 47.1109 83.0609 47.1109C83.2254 40.9273 82.1536 6.96001 68.4682 6.87729C54.7818 6.79547 54.04 25.1818 54.04 25.1818C45.5482 29.0291 40.1891 35.5973 38.7045 44.1436V20.8937C38.7045 16.7391 34.8045 12.1546 30.6254 12.1546C24.6282 12.1546 21.8982 16.9273 20.8145 20.9755H12.8172C10.0963 21.7046 7.95361 24.9309 7.95361 27.6537C7.95361 30.99 9.96543 34.4146 12.9818 34.4146H23.9472V52.0573C23.9472 58.3937 29.7 62.8573 36.0663 62.8573H59.4" stroke="url(#paint0_linear_106_2666)" stroke-width="8" stroke-linecap="round" stroke-linejoin="round"/>
<defs>
<linearGradient id="paint0_linear_106_2666" x1="7.95361" y1="7.26927" x2="106.703" y2="69.4578" gradientUnits="userSpaceOnUse">
<stop offset="0.0104167" stop-color="white"/>
<stop offset="0.510417" stop-color="#45A8E1"/>
<stop offset="1" stop-color="#298FD4"/>
</linearGradient>
</defs>
</svg>
