<svg width="100" height="100" viewBox="0 0 100 100" fill="none" xmlns="http://www.w3.org/2000/svg">
<path fill-rule="evenodd" clip-rule="evenodd" d="M7.41272 2.90002C5.20358 2.90002 3.41272 4.69089 3.41272 6.90002C3.41272 9.10916 5.20358 10.9 7.41272 10.9H75.3C77.5091 10.9 79.3 9.10916 79.3 6.90002C79.3 4.69089 77.5091 2.90002 75.3 2.90002H7.41272ZM7.41272 37.4745C5.20358 37.4745 3.41272 39.2654 3.41272 41.4745C3.41272 43.6837 5.20358 45.4745 7.41272 45.4745H36.8564C39.0655 45.4745 40.8564 43.6837 40.8564 41.4745C40.8564 39.2654 39.0655 37.4745 36.8564 37.4745H7.41272Z" fill="url(#paint0_linear_106_1717)"/>
<path fill-rule="evenodd" clip-rule="evenodd" d="M62.9054 19.95C60.6963 19.95 58.9054 21.7409 58.9054 23.95C58.9054 26.1592 60.6963 27.95 62.9054 27.95H92.5872C94.7964 27.95 96.5872 26.1592 96.5872 23.95C96.5872 21.7409 94.7964 19.95 92.5872 19.95H62.9054ZM7.41272 20.1091C5.20358 20.1091 3.41272 21.8999 3.41272 24.1091C3.41272 26.3182 5.20358 28.1091 7.41272 28.1091H36.8564C39.0655 28.1091 40.8564 26.3182 40.8564 24.1091C40.8564 21.8999 39.0655 20.1091 36.8564 20.1091H7.41272ZM58.9054 41.3163C58.9054 39.1072 60.6963 37.3163 62.9054 37.3163H92.5872C94.7964 37.3163 96.5872 39.1072 96.5872 41.3163C96.5872 43.5255 94.7964 45.3163 92.5872 45.3163H62.9054C60.6963 45.3163 58.9054 43.5255 58.9054 41.3163ZM7.41272 54.5255C5.20358 54.5255 3.41272 56.3163 3.41272 58.5255C3.41272 60.7346 5.20358 62.5255 7.41272 62.5255H75.3C77.5091 62.5255 79.3 60.7346 79.3 58.5255C79.3 56.3163 77.5091 54.5255 75.3 54.5255H7.41272ZM3.41272 75.5764C3.41272 73.3672 5.20358 71.5764 7.41272 71.5764H36.8564C39.0655 71.5764 40.8564 73.3672 40.8564 75.5764C40.8564 77.7855 39.0655 79.5764 36.8564 79.5764H7.41272C5.20358 79.5764 3.41272 77.7855 3.41272 75.5764ZM7.41272 89.1C5.20358 89.1 3.41272 90.8908 3.41272 93.1C3.41272 95.3091 5.20358 97.1 7.41272 97.1H36.8564C39.0655 97.1 40.8564 95.3091 40.8564 93.1C40.8564 90.8908 39.0655 89.1 36.8564 89.1H7.41272Z" fill="url(#paint1_linear_106_1717)"/>
<defs>
<linearGradient id="paint0_linear_106_1717" x1="3.41272" y1="3.09366" x2="56.9335" y2="64.7091" gradientUnits="userSpaceOnUse">
<stop offset="0.0104167" stop-color="white"/>
<stop offset="0.510417" stop-color="#45A8E1"/>
<stop offset="1" stop-color="#298FD4"/>
</linearGradient>
<linearGradient id="paint1_linear_106_1717" x1="2.94684" y1="98.1826" x2="101.237" y2="22.717" gradientUnits="userSpaceOnUse">
<stop stop-color="#FDFDFD"/>
<stop offset="0.453125" stop-color="#D556B6"/>
<stop offset="0.973958" stop-color="#C94294"/>
</linearGradient>
</defs>
</svg>
