<svg width="100" height="100" viewBox="0 0 100 100" fill="none" xmlns="http://www.w3.org/2000/svg">
<path d="M47.4239 78.0684L49.1819 76.4099L47.5839 74.5969C45.4732 72.202 43.4004 69.6011 41.449 66.8772L40.7868 65.9529L39.6549 65.8446C36.3859 65.5317 33.1361 65.0443 29.9192 64.3842L27.5464 63.8974L26.9848 66.2536C25.8829 70.8776 25.4986 74.9247 25.7918 78.1093C26.0641 81.0661 27.0091 84.1112 29.4552 85.4967C31.8989 86.944 35.0327 86.2458 37.7491 85.0021C40.6694 83.6651 43.987 81.3107 47.4239 78.0684ZM37.0715 60.274L35.8309 58.1649L34.6316 56.0558L32.0052 51.437L30.1209 56.4049L30.0955 56.4718C29.6547 57.6337 29.1523 58.9581 28.8247 60.2685L28.2022 62.7585L30.7077 63.3153C31.9138 63.5833 33.2317 63.8021 34.5186 64.0096L39.7669 64.8561L37.0715 60.274ZM63.0924 57.4814L63.1046 57.4597L63.1165 57.4377L66.4915 51.1877L67.1329 49.9999L66.4915 48.812L63.1165 42.562L63.1046 42.5401L63.0924 42.5184C62.2364 41.0062 61.3059 39.5486 60.4462 38.2018C60.0258 37.5433 59.6223 36.9112 59.2526 36.3121L58.5671 35.2011L57.2637 35.1287C54.9443 34.9999 52.5112 34.9999 50.0402 34.9999H50H49.9599C47.4889 34.9999 45.0558 34.9999 42.7364 35.1287L41.4329 35.2011L40.7474 36.3121C40.3778 36.9112 39.9743 37.5433 39.5539 38.2019C38.6941 39.5487 37.7637 41.0062 36.9077 42.5184L36.8955 42.5401L36.8836 42.562L33.5086 48.812L32.8672 49.9999L33.5086 51.1877L36.8836 57.4377L36.8955 57.4597L36.9077 57.4814C37.7637 58.9936 38.6941 60.4511 39.5539 61.7979C39.9743 62.4565 40.3778 63.0886 40.7474 63.6876L41.4329 64.7986L42.7364 64.871C45.0558 64.9999 47.4889 64.9999 49.9599 64.9999H50H50.0402C52.5112 64.9999 54.9443 64.9999 57.2637 64.871L58.5671 64.7986L59.2526 63.6876C59.6223 63.0886 60.0258 62.4565 60.4462 61.7979C61.3059 60.4511 62.2364 58.9936 63.0924 57.4814ZM51.8921 26.6158L50 24.425L48.108 26.6158C48.0737 26.6556 48.0391 26.6956 48.0043 26.7358C47.248 27.6112 46.3917 28.6023 45.5328 29.7618L42.5787 33.7499H47.5417H52.4584H57.4214L54.4673 29.7618C53.6084 28.6023 52.7521 27.6113 51.9958 26.7358C51.961 26.6956 51.9264 26.6556 51.8921 26.6158ZM48.108 73.3839L50 75.5747L51.8921 73.3839L51.9957 73.264C52.7521 72.3886 53.6084 71.3975 54.4673 70.2379L57.4214 66.2499H52.4584H47.5417H42.5787L45.5328 70.2379C46.3917 71.3974 47.248 72.3885 48.0044 73.264L48.108 73.3839ZM52.5762 21.9314L50.8182 23.5898L52.4162 25.4029C54.5269 27.7977 56.5996 30.3986 58.5511 33.1225L59.2117 34.0446L60.3406 34.1547C63.677 34.4802 66.9627 34.9676 70.0748 35.6143L72.4523 36.1083L73.0153 33.7461C74.1171 29.1228 74.502 25.0736 74.2026 21.8859C73.9246 18.9258 72.9661 15.8857 70.5033 14.5029C69.2626 13.7623 67.8427 13.6038 66.5034 13.7391C65.1416 13.8766 63.7004 14.3303 62.2441 14.9984C59.3301 16.3352 56.0131 18.689 52.5762 21.9314ZM62.9285 39.7257L64.1692 41.8349L65.3685 43.944L67.9948 48.5627L69.8792 43.5948L69.9046 43.5278C70.3454 42.3659 70.8478 41.0416 71.1754 39.7312L71.7979 37.2412L69.2924 36.6844C68.0863 36.4164 66.7684 36.1977 65.4815 35.9901L60.2332 35.1436L62.9285 39.7257ZM71.1283 13.3752L71.1347 13.3788C73.3114 14.6226 74.7321 16.9687 75.2722 20.5876C75.8161 24.2321 75.4046 28.8724 74.1526 34.0824L73.5976 36.3916L75.8754 37.0642C81.0039 38.5785 85.2202 40.5357 88.1023 42.8228C90.9644 45.094 92.2917 47.4944 92.2917 49.9999C92.2917 52.5053 90.9644 54.9058 88.1023 57.177C85.2202 59.4641 81.0039 61.4212 75.8754 62.9355L73.5976 63.6081L74.1526 65.9173C75.4046 71.1273 75.8161 75.7677 75.2722 79.4121C74.7321 83.031 73.3114 85.3771 71.1347 86.6209L71.1283 86.6246C68.9655 87.8689 66.2241 87.9198 62.8255 86.576C59.4044 85.2234 55.6 82.5504 51.7249 78.8569L50 77.2129L48.2752 78.8569C44.4001 82.5503 40.5961 85.223 37.1705 86.5756C33.7708 87.918 31.0148 87.8715 28.827 86.6228C26.6721 85.3815 25.259 83.037 24.7231 79.4152C24.1836 75.7688 24.5956 71.1269 25.8475 65.9173L26.4024 63.6081L24.1247 62.9355C18.9962 61.4212 14.7799 59.4641 11.8978 57.177C9.03572 54.9058 7.70837 52.5053 7.70837 49.9999C7.70837 47.4944 9.03572 45.094 11.8978 42.8228C14.7799 40.5357 18.9962 38.5785 24.1247 37.0642L26.4024 36.3916L25.8475 34.0824C24.5956 28.8728 24.1836 24.2309 24.7231 20.5845C25.259 16.9628 26.672 14.6183 28.8269 13.377C31.0147 12.1283 33.7707 12.0817 37.1705 13.4241C40.5961 14.7767 44.4001 17.4494 48.2752 21.1429L50 22.7869L51.7249 21.1429C55.6 17.4494 59.4044 14.7763 62.8255 13.4237C66.2241 12.08 68.9655 12.1308 71.1283 13.3752ZM68.8898 48.9676L68.4218 49.9999L68.8898 51.0321C70.2762 54.0904 71.4914 57.1309 72.5002 60.1977L73.2611 62.5108L75.5934 61.8111C80.1316 60.4497 83.8209 58.7564 86.4349 56.9043C88.8857 55.1679 91.0417 52.8172 91.0417 49.9999C91.0417 47.1826 88.8857 44.8318 86.4349 43.0954C83.8209 41.2433 80.1316 39.5501 75.5934 38.1886L73.2611 37.4889L72.5002 39.802C71.4914 42.8688 70.2762 45.9093 68.8898 48.9676ZM31.1103 51.0321L31.5783 49.9999L31.1103 48.9676C29.7239 45.9093 28.5087 42.8688 27.4999 39.802L26.739 37.4889L24.4067 38.1886C19.8685 39.5501 16.1792 41.2433 13.5652 43.0954C11.1144 44.8318 8.95837 47.1826 8.95837 49.9999C8.95837 52.8172 11.1144 55.1679 13.5652 56.9043C16.1792 58.7564 19.8685 60.4497 24.4067 61.8111L26.739 62.5108L27.4999 60.1977C28.5087 57.1309 29.7239 54.0904 31.1103 51.0321ZM65.3685 56.0558L64.1691 58.165L62.9285 60.274L60.2332 64.8561L65.4815 64.0096C66.7684 63.8021 68.0863 63.5833 69.2924 63.3153L71.7979 62.7585L71.1754 60.2685C70.8478 58.9581 70.3454 57.6338 69.9046 56.4719L69.8792 56.4049L67.9948 51.437L65.3685 56.0558ZM52.4162 74.5969L50.8182 76.4099L52.5762 78.0684C56.0131 81.3108 59.3301 83.6646 62.2441 85.0013C63.7004 85.6694 65.1416 86.1232 66.5034 86.2607C67.8427 86.3959 69.2625 86.2374 70.5032 85.4969C72.966 84.1141 73.9246 81.074 74.2026 78.1139C74.502 74.9261 74.1171 70.8769 73.0153 66.2536L72.4523 63.8915L70.0748 64.3855C66.9627 65.0322 63.677 65.5195 60.3406 65.845L59.2117 65.9552L58.5511 66.8772C56.5996 69.6011 54.5269 72.202 52.4162 74.5969ZM34.6316 43.944L35.8308 41.8349L37.0715 39.7257L39.7669 35.1436L34.5186 35.9901C33.2317 36.1977 31.9138 36.4164 30.7077 36.6844L28.2022 37.2412L28.8247 39.7312C29.1523 41.0417 29.6547 42.3661 30.0955 43.528L30.1209 43.5948L32.0052 48.5627L34.6316 43.944ZM47.5839 25.4029L49.1819 23.5898L47.4239 21.9314C43.987 18.689 40.6694 16.3346 37.7491 14.9976C35.0327 13.754 31.899 13.0558 29.4553 14.503C27.0091 15.8885 26.0641 18.9335 25.7918 21.8904C25.4986 25.0751 25.8829 29.1222 26.9848 33.7461L27.5464 36.1024L29.9192 35.6155C33.1361 34.9555 36.3859 34.468 39.6549 34.1552L40.7868 34.0468L41.449 33.1225C43.4004 30.3986 45.4732 27.7977 47.5839 25.4029ZM50 44.6249C52.8937 44.6249 55.2917 46.9882 55.2917 49.9999C55.2917 52.7771 52.9197 55.2082 50 55.2082C47.0804 55.2082 44.7084 52.7771 44.7084 49.9999C44.7084 46.9882 47.1064 44.6249 50 44.6249Z" stroke="url(#paint0_linear_106_2610)" stroke-width="5"/>
<defs>
<linearGradient id="paint0_linear_106_2610" x1="4.95892" y1="9.70628" x2="85.0457" y2="99.2317" gradientUnits="userSpaceOnUse">
<stop stop-color="#D300DC"/>
<stop offset="0.505208" stop-color="#B12496"/>
<stop offset="1" stop-color="#F47D65"/>
</linearGradient>
</defs>
</svg>
