<svg width="100" height="100" viewBox="0 0 100 100" fill="none" xmlns="http://www.w3.org/2000/svg">
<path d="M10.2953 45.626L45.4541 11.0514C45.4799 11.026 45.529 11 45.594 11L89.8358 11C89.8754 11 89.9016 11.0072 89.9205 11.0151C89.9419 11.024 89.9608 11.0368 89.9757 11.0514C89.9905 11.066 89.9965 11.0775 89.9982 11.0815L89.9983 11.0818C89.9989 11.0829 89.9999 11.0851 89.9999 11.0949L89.9999 89.1761C89.9999 89.1859 89.9988 89.1881 89.9983 89.1893L89.9982 89.1896C89.9965 89.1935 89.9905 89.2051 89.9757 89.2196C89.9608 89.2342 89.9419 89.2471 89.9205 89.256C89.9016 89.2638 89.8754 89.271 89.8358 89.271L10.4351 89.271C10.3955 89.271 10.3693 89.2638 10.3504 89.256C10.3291 89.2471 10.3101 89.2342 10.2953 89.2196C10.2805 89.2051 10.2744 89.1935 10.2728 89.1896L10.2726 89.1893C10.2721 89.1882 10.271 89.1859 10.271 89.1761L10.271 45.6695C10.271 45.6663 10.2715 45.6619 10.2743 45.6552C10.2772 45.6484 10.283 45.638 10.2953 45.626Z" stroke="url(#paint0_linear_426_50)" stroke-width="8"/>
<path d="M57.9293 73.0893H30.5342L30.5342 46.2823H32.0636L32.0636 64.647C32.0636 68.6152 35.3162 71.7182 39.1867 71.7182H57.9293V73.0893Z" stroke="url(#paint1_linear_426_50)" stroke-width="8"/>
<path d="M46.5808 30.5023L73.9759 30.5023V57.3092H72.4465V38.9446C72.4465 34.9764 69.1939 31.8734 65.3234 31.8734L46.5808 31.8734V30.5023Z" stroke="url(#paint2_linear_426_50)" stroke-width="8"/>
<defs>
<linearGradient id="paint0_linear_426_50" x1="5.83235" y1="94.4816" x2="109.575" y2="27.4141" gradientUnits="userSpaceOnUse">
<stop stop-color="#FDFDFD"/>
<stop offset="0.453125" stop-color="#D556B6"/>
<stop offset="0.973958" stop-color="#C94294"/>
</linearGradient>
<linearGradient id="paint1_linear_426_50" x1="26.3572" y1="77.5777" x2="68.2134" y2="50.5186" gradientUnits="userSpaceOnUse">
<stop stop-color="#FDFDFD"/>
<stop offset="0.453125" stop-color="#D556B6"/>
<stop offset="0.973958" stop-color="#C94294"/>
</linearGradient>
<linearGradient id="paint2_linear_426_50" x1="42.4038" y1="61.7977" x2="84.26" y2="34.7386" gradientUnits="userSpaceOnUse">
<stop stop-color="#FDFDFD"/>
<stop offset="0.453125" stop-color="#D556B6"/>
<stop offset="0.973958" stop-color="#C94294"/>
</linearGradient>
</defs>
</svg>
