<svg width="100" height="100" viewBox="0 0 100 100" fill="none" xmlns="http://www.w3.org/2000/svg">
<path d="M50 7.05634V31.8182C50 37.9745 52.9345 40.2063 59.0909 40.2063H83.1491M50 7.05634H29.91C23.9745 7.05634 16.8509 13.5927 16.8509 19.5272V79.8845C16.8509 86.04 23.7536 92.9436 29.91 92.9436H70.09C76.2463 92.9436 83.1491 86.04 83.1491 79.8845V40.2063M50 7.05634L83.1491 40.2063" stroke="url(#paint0_linear_106_1768)" stroke-width="8" stroke-linecap="round" stroke-linejoin="round"/>
<path d="M56.8182 54.8228V77.55M43.1818 54.8228V77.55M70.3891 54.8228V77.55M70.4546 77.55H29.5455V54.8228H70.4546M29.5455 66.1864H70.4546" stroke="url(#paint1_linear_106_1768)" stroke-width="8" stroke-linecap="round" stroke-linejoin="round"/>
<defs>
<linearGradient id="paint0_linear_106_1768" x1="16.8509" y1="7.05634" x2="102.08" y2="65.1885" gradientUnits="userSpaceOnUse">
<stop stop-color="#5FC7FF"/>
<stop offset="1" stop-color="#2731F7"/>
</linearGradient>
<linearGradient id="paint1_linear_106_1768" x1="29.5455" y1="54.8228" x2="51.3768" y2="89.545" gradientUnits="userSpaceOnUse">
<stop stop-color="#5FC7FF"/>
<stop offset="1" stop-color="#2731F7"/>
</linearGradient>
</defs>
</svg>
