<svg width="100" height="100" viewBox="0 0 100 100" fill="none" xmlns="http://www.w3.org/2000/svg">
<path d="M56.1555 56.7909C56.1555 56.7909 56.1536 56.7327 55.56 56.1964C55.0151 55.7043 54.3952 55.3023 53.7236 55.0055C53.1009 54.7273 52.5273 54.61 51.8873 54.5091C51.2473 54.4073 50.9409 54.4545 50.2 54.4964C49.4591 54.5382 48.5673 54.6364 47.9546 54.9427C47.3409 55.2491 46.6473 55.6109 46.2546 55.9855C45.8609 56.3591 45.6055 56.7227 45.3364 57.1891C45.0587 57.6733 44.8419 58.1899 44.6909 58.7273C44.5527 59.2373 44.4955 59.5655 44.4927 60.2164C44.49 60.8664 44.5691 61.8955 44.79 62.5982C45.0118 63.3009 45.3609 63.8709 45.7336 64.3855C46.1055 64.9 46.5518 65.3764 46.9736 65.6755C47.3955 65.9755 47.6009 66.1255 48.2146 66.42C48.8291 66.7136 49.8027 67.04 50.6464 67.4618C51.49 67.8836 52.4591 68.3364 53.2282 68.7527C53.9955 69.1691 54.7118 69.5446 55.2618 69.9436C55.8127 70.3427 56.1609 70.6527 56.5527 71.0855C56.9436 71.5173 57.3291 72.0127 57.5946 72.5246C57.86 73.0355 58.0346 73.3955 58.1582 74.0945C58.22 74.4445 58.2473 74.9318 58.2518 75.4109C58.2555 75.89 58.2373 76.3609 58.2082 76.6755C58.1491 77.3064 58.0973 77.3664 57.9418 77.8845C57.7873 78.4027 57.4173 79.2327 57.0218 79.77C56.6273 80.3082 56.2173 80.6609 55.6591 81.0109C55.0999 81.3633 54.5001 81.6466 53.8727 81.8546C53.2864 82.0409 52.8646 82.0864 52.1855 82.1527C51.5055 82.2191 50.6282 82.2818 49.8036 82.2018C48.9428 82.1102 48.0941 81.9273 47.2718 81.6564C46.5509 81.4118 46.0118 81.1755 45.4855 80.8127C44.9582 80.4491 44.7391 80.2855 44.4427 79.9436C44.0491 79.4891 43.5 78.4055 43.5 78.4055M27.2518 54.8609V82.3009M18.2 54.4755H36.2364M66.9827 82.2882L82.1418 54.6355M82.1418 82.2882L66.9818 54.6355M19.6973 7.32909L80.3027 7.28455C86.2555 7.28 92.93 13.9591 92.93 19.9109V80.5173C92.93 86.3691 86.1555 92.7155 80.3027 92.7155H19.6973C13.8446 92.7155 7.07001 86.3691 7.07001 80.5173V19.9109C7.07001 13.9691 13.7555 7.33364 19.6973 7.32909Z" stroke="url(#paint0_linear_106_1803)" stroke-width="8" stroke-linecap="round" stroke-linejoin="round"/>
<defs>
<linearGradient id="paint0_linear_106_1803" x1="7.07001" y1="7.28455" x2="97.4898" y2="87.5808" gradientUnits="userSpaceOnUse">
<stop stop-color="#5FC7FF"/>
<stop offset="1" stop-color="#2731F7"/>
</linearGradient>
</defs>
</svg>
