<svg width="100" height="100" viewBox="0 0 100 100" fill="none" xmlns="http://www.w3.org/2000/svg">
<path d="M75 12.6666H68.5279L71.4223 18.4555L76.8612 29.3333H73.3055L66.0778 14.8778L64.9722 12.6666H62.5H54.1667H47.6946L50.589 18.4555L56.0279 29.3333H52.4722L45.2444 14.8778L44.1388 12.6666H41.6667H33.3334H26.8612L29.7557 18.4555L35.1946 29.3333H31.6388L24.4111 14.8778L23.3055 12.6666H20.8334H16.6667C13.3957 12.6666 10.2587 13.966 7.94572 16.279C5.63277 18.5919 4.33337 21.729 4.33337 25V75C4.33337 78.271 5.63278 81.408 7.94573 83.7209C10.2587 86.0339 13.3957 87.3333 16.6667 87.3333H83.3334C86.6044 87.3333 89.7414 86.0339 92.0544 83.7209C94.3673 81.408 95.6667 78.271 95.6667 75V16.6666V12.6666H91.6667H75Z" stroke="url(#paint0_linear_106_2596)" stroke-width="8"/>
<defs>
<linearGradient id="paint0_linear_106_2596" x1="7.91671" y1="84.2688" x2="93.5622" y2="16.2091" gradientUnits="userSpaceOnUse">
<stop stop-color="#FDFDFD"/>
<stop offset="0.453125" stop-color="#D556B6"/>
<stop offset="0.973958" stop-color="#C94294"/>
</linearGradient>
</defs>
</svg>
