<svg width="100" height="100" viewBox="0 0 100 100" fill="none" xmlns="http://www.w3.org/2000/svg">
<path d="M68.0398 20.6136L90.2799 16.5989C90.688 16.5243 91.1089 16.5673 91.4935 16.7228C91.8781 16.8784 92.2106 17.14 92.4522 17.4773C92.6937 17.8146 92.8344 18.2136 92.8579 18.6278C92.8813 19.042 92.7865 19.4544 92.5845 19.8167L52.309 91.8388C52.1199 92.1775 51.8441 92.4598 51.51 92.6569C51.1758 92.8539 50.7952 92.9586 50.4073 92.9602C50.0194 92.9617 49.638 92.8601 49.3022 92.6658C48.9665 92.4714 48.6885 92.1913 48.4966 91.8541L7.42437 19.8259C7.21787 19.4645 7.11874 19.0517 7.1386 18.636C7.15847 18.2202 7.29651 17.8187 7.53652 17.4787C7.77653 17.1386 8.10856 16.874 8.49364 16.716C8.87872 16.558 9.30089 16.5131 9.71058 16.5866L37.5375 21.5483" stroke="url(#paint0_linear_106_1809)" stroke-width="7"/>
<path d="M69.232 7.13528L39.4314 12.9734C39.1929 13.02 38.9766 13.1447 38.8168 13.3278C38.657 13.5109 38.5627 13.7421 38.5488 13.9847L36.7162 44.9498C36.7061 45.1197 36.7357 45.2896 36.8028 45.446C36.8698 45.6024 36.9724 45.741 37.1025 45.8508C37.2325 45.9606 37.3863 46.0385 37.5517 46.0784C37.7172 46.1184 37.8896 46.1191 38.0554 46.0807L46.3514 44.1653C46.5301 44.124 46.7163 44.1283 46.893 44.1778C47.0696 44.2273 47.2309 44.3204 47.3622 44.4486C47.4934 44.5768 47.5903 44.7359 47.6439 44.9113C47.6976 45.0867 47.7063 45.2728 47.6692 45.4524L45.2052 57.524C45.1672 57.7099 45.1781 57.9024 45.237 58.0827C45.2958 58.2631 45.4005 58.425 45.5409 58.5526C45.6812 58.6803 45.8523 58.7693 46.0373 58.8108C46.2224 58.8524 46.4151 58.8451 46.5966 58.7897L51.7206 57.2329C51.9023 57.1773 52.0954 57.17 52.2808 57.2117C52.4662 57.2533 52.6376 57.3426 52.778 57.4707C52.9184 57.5987 53.023 57.7611 53.0816 57.9419C53.1402 58.1227 53.1506 58.3156 53.112 58.5017L49.1923 77.4626C48.9471 78.6486 50.5254 79.2952 51.1843 78.2808L51.6226 77.6005L75.9098 29.1332C76.001 28.9506 76.0392 28.7461 76.0203 28.5429C76.0013 28.3397 75.9259 28.1458 75.8025 27.9832C75.6791 27.8206 75.5127 27.6958 75.3221 27.6228C75.1314 27.5498 74.9242 27.5316 74.7238 27.5703L66.1826 29.216C65.9988 29.2512 65.809 29.2386 65.6314 29.1795C65.4538 29.1203 65.2943 29.0166 65.1683 28.8783C65.0422 28.7399 64.9537 28.5715 64.9113 28.3892C64.8689 28.2068 64.874 28.0167 64.9261 27.8369L70.4977 8.5113C70.5502 8.33093 70.5553 8.14007 70.5127 7.95712C70.47 7.77417 70.381 7.60528 70.2541 7.46672C70.1273 7.32816 69.9669 7.2246 69.7884 7.16601C69.6099 7.10743 69.4193 7.09579 69.235 7.13222L69.232 7.13528Z" stroke="url(#paint1_linear_106_1809)" stroke-width="7"/>
<defs>
<linearGradient id="paint0_linear_106_1809" x1="6.70748" y1="94.0324" x2="101.98" y2="26.0786" gradientUnits="userSpaceOnUse">
<stop stop-color="#FDFDFD"/>
<stop offset="0.453125" stop-color="#D556B6"/>
<stop offset="0.973958" stop-color="#C94294"/>
</linearGradient>
<linearGradient id="paint1_linear_106_1809" x1="36.5177" y1="79.7894" x2="95.2872" y2="59.2972" gradientUnits="userSpaceOnUse">
<stop stop-color="#FDFDFD"/>
<stop offset="0.453125" stop-color="#D556B6"/>
<stop offset="0.973958" stop-color="#C94294"/>
</linearGradient>
</defs>
</svg>
