<svg width="100" height="100" viewBox="0 0 100 100" fill="none" xmlns="http://www.w3.org/2000/svg">
<path fill-rule="evenodd" clip-rule="evenodd" d="M52.0155 3.62429C50.7782 2.90939 49.2534 2.9089 48.0156 3.623L10.8444 25.0672C9.60655 25.7813 8.84371 27.1016 8.84326 28.5307L8.82971 71.4437C8.82926 72.8728 9.59125 74.1936 10.8286 74.9085L47.985 96.3761C49.2224 97.091 50.7471 97.0915 51.985 96.3774L89.1561 74.9332C90.394 74.219 91.1568 72.8987 91.1573 71.4697L91.1708 28.5566C91.1713 27.1276 90.4093 25.8068 89.1719 25.0919L52.0155 3.62429ZM25.8483 59.5849L16.8318 64.7902L16.841 35.7884L26.4098 41.313L26.4041 59.3182C26.2151 59.3917 26.0294 59.4804 25.8483 59.5849ZM31.4307 61.2695C31.3938 61.1954 31.3544 61.1219 31.3124 61.0492C31.2037 60.8609 31.0821 60.6849 30.9492 60.5215L30.9544 43.9369L46.0364 52.6446V69.7081L31.4307 61.2695ZM30.543 66.0062C30.3344 66.196 30.1024 66.3665 29.8481 66.5132L21.0654 71.5836L46 85.9899V75.4782C46 75.3013 46.0115 75.127 46.0338 74.9562L30.543 66.0062ZM54.0364 74.9087V77.8091C54.0364 77.9928 54.024 78.1737 54 78.3509V85.9791L79.0198 71.5451L70.3038 66.5132C70.0274 66.3536 69.7772 66.166 69.5548 65.9561L54.0364 74.9087ZM69.0439 60.7304C68.9716 60.8324 68.9033 60.9387 68.8395 61.0492C68.8192 61.0843 68.7995 61.1197 68.7804 61.1552L54.0364 69.6611V52.603L69.0492 43.9348L69.0439 60.7304ZM73.5899 59.2607C73.8334 59.3436 74.0724 59.4514 74.3036 59.5849L83.1594 64.6975L83.1685 35.7825L73.5955 41.3098L73.5899 59.2607ZM69.8615 34.228L79.4306 28.703L54 14.0101V24.4691C54 24.6631 53.9862 24.8538 53.9595 25.0404L69.8615 34.228ZM49.3086 28.4096C49.5332 28.4487 49.7642 28.4691 50 28.4691C50.2394 28.4691 50.4739 28.4481 50.7017 28.4078L65.317 36.852L50.0003 45.6956L34.6788 36.8495L49.3086 28.4096ZM46.0414 25.0468C46.0141 24.8581 46 24.6653 46 24.4691V14.0216L20.5601 28.698L30.1325 34.2247L46.0414 25.0468Z" fill="url(#paint0_linear_106_1817)"/>
<defs>
<linearGradient id="paint0_linear_106_1817" x1="8.82971" y1="3.08777" x2="105.686" y2="78.1948" gradientUnits="userSpaceOnUse">
<stop stop-color="#5FC7FF"/>
<stop offset="1" stop-color="#2731F7"/>
</linearGradient>
</defs>
</svg>
