<svg width="100" height="100" viewBox="0 0 100 100" fill="none" xmlns="http://www.w3.org/2000/svg">
<path d="M23.3319 23.5445C30.5855 19.0809 38.6264 13.4164 47.241 10.6027C54.8519 8.11636 63.1937 5.76818 71.0391 7.36272C74.9619 8.15999 79.3392 10.0464 81.3619 13.5009C83.2419 16.7118 83.3273 21.3436 81.641 24.66C75.2873 37.1545 47.0546 48.5754 47.0546 48.5754M54.9491 9.25727L17.111 93.1664C17.111 93.1664 57.491 79.0118 71.2337 63.7573C74.091 60.5845 77.4973 55.9773 76.1455 51.9273C74.9764 48.4273 70.2455 46.9236 66.6082 46.3036C56.3219 44.5518 35.9001 52.3827 35.9001 52.3827" stroke="#FFE801" stroke-width="8" stroke-linecap="round" stroke-linejoin="round"/>
</svg>
