<svg width="100" height="100" viewBox="0 0 100 100" fill="none" xmlns="http://www.w3.org/2000/svg">
<path fill-rule="evenodd" clip-rule="evenodd" d="M49.7248 66.6434C46.6745 66.6434 43.7492 65.4317 41.5923 63.2748C39.4354 61.1179 38.2237 58.1926 38.2237 55.1423C38.2237 50.846 40.5626 47.0915 43.9743 45.1341L81.2036 23.5861L59.9984 60.3178C59.0378 62.2186 57.5692 63.816 55.7556 64.9326C53.9421 66.0492 51.8546 66.6414 49.7248 66.6434ZM49.7248 16.8015C56.4045 16.83 62.9651 18.572 68.7791 21.8609L60.7283 26.5001C57.216 25.1544 53.4861 24.4666 49.7248 24.4708C41.5902 24.4708 33.7888 27.7022 28.0368 33.4543C22.2848 39.2063 19.0533 47.0077 19.0533 55.1423C19.0403 59.1672 19.8263 63.1546 21.3659 66.8735C22.9054 70.5923 25.1678 73.9685 28.022 76.8064H28.0607C29.5536 78.2994 29.5536 80.7157 28.0607 82.2087C26.5678 83.7016 24.1127 83.7016 22.6198 82.2474C19.0537 78.6923 16.2254 74.4676 14.2972 69.816C12.369 65.1644 11.379 60.1777 11.3841 55.1423C11.3841 44.9737 15.4235 35.2216 22.6138 28.0313C29.8041 20.841 39.5562 16.8015 49.7248 16.8015ZM88.0656 55.1423C88.0707 60.1777 87.0807 65.1644 85.1525 69.816C83.2243 74.4676 80.3959 78.6923 76.8299 82.2474C76.1041 82.9504 75.1313 83.3402 74.1209 83.333C73.1105 83.3257 72.1433 82.922 71.4277 82.2087C71.0724 81.8543 70.7905 81.4332 70.5982 80.9697C70.4059 80.5062 70.3069 80.0094 70.3069 79.5075C70.3069 79.0057 70.4059 78.5088 70.5982 78.0453C70.7905 77.5818 71.0724 77.1608 71.4277 76.8064C74.2789 73.9663 76.5394 70.5897 78.0787 66.8713C79.618 63.153 80.4057 59.1666 80.3964 55.1423C80.3964 51.3049 79.672 47.473 78.3284 44.0227L82.9675 35.9719C86.1469 41.7225 88.0656 48.1642 88.0656 55.1423Z" fill="white"/>
</svg>
