<svg width="100" height="100" viewBox="0 0 100 100" fill="none" xmlns="http://www.w3.org/2000/svg">
<path fill-rule="evenodd" clip-rule="evenodd" d="M62.4493 6.41257C60.9283 4.89154 58.8972 3.72061 56.7867 3.11111C54.712 2.51197 52.0041 2.30752 49.4632 3.53192L49.4614 3.53282L49.4608 3.53309L19.9762 17.7304C19.495 17.9479 19.0443 18.2544 18.6489 18.6498C18.2527 19.0459 17.9459 19.4975 17.7284 19.9796L6.71767 42.8492M26.5183 24.5693L25.2023 25.203L23.3355 29.0804L26.3708 32.7358L26.5067 69.8167L45.0613 88.3718H71.4773V77.8423L26.3708 32.7358L32.8111 26.4481L77.8403 71.4773H88.371V45.0621L70.1483 26.8395L32.8111 26.4481L26.5183 24.5693ZM61.0525 17.7436L56.0854 12.7765C55.6973 12.3885 55.0193 11.9685 54.2896 11.7578C53.703 11.5884 53.412 11.6399 53.3568 11.6497C53.3504 11.6508 53.3472 11.6514 53.347 11.651L53.3472 11.6507L41.1275 17.5348L61.0525 17.7436ZM17.4736 60.7833L17.4025 41.4034L11.6522 53.3471L11.6525 53.3469C11.6529 53.347 11.6523 53.3502 11.6512 53.3565C11.6413 53.4115 11.5892 53.7032 11.7589 54.2911C11.9694 55.0203 12.3891 55.6986 12.7783 56.0879L17.4736 60.7833ZM6.71767 42.8492L3.53319 49.4635L3.5328 49.4643C2.30946 52.0046 2.51279 54.7115 3.11193 56.7871C3.72121 58.8979 4.8919 60.9287 6.41279 62.4503L6.4135 62.451L40.0153 96.0538C40.8592 96.8977 42.0038 97.3718 43.1973 97.3718H75.9773C78.4626 97.3718 80.4773 95.3571 80.4773 92.8718V80.4773H92.871C95.3563 80.4773 97.371 78.4626 97.371 75.9773V43.1982C97.371 42.0047 96.8969 40.8601 96.053 40.0162L62.4493 6.41257" fill="#5DD8E5"/>
</svg>
