<svg width="100" height="100" viewBox="0 0 100 100" fill="none" xmlns="http://www.w3.org/2000/svg">
<path d="M82.58 32.2755V61.4773C82.58 71.5391 81.8436 76.3655 79.6363 80.5364C77.5909 84.5455 74.8909 87.0818 69.3282 89.8618L57.6309 84.3C63.1927 81.6818 65.8927 79.3927 67.6109 75.8745C69.4109 72.2745 69.9836 68.1036 69.9836 57.1418V32.2755H82.58ZM57.1745 10.1382V68.4473C50.7127 69.6745 45.9682 70.1655 40.8145 70.1655C25.4373 70.1655 17.42 63.2127 17.42 49.8791C17.42 37.0355 25.9282 28.6927 39.0973 28.6927C41.1427 28.6927 42.6963 28.8564 44.5773 29.3473V10.1391H57.1754L57.1745 10.1382ZM40.3236 38.8364C33.9436 38.8364 30.2627 42.7627 30.2627 49.6327C30.2627 56.3418 33.78 60.0236 40.2427 60.0236C41.6336 60.0236 42.7791 59.9409 44.5773 59.6964V39.4882C43.1063 38.9991 41.8791 38.8364 40.3236 38.8364ZM82.58 10.2055V23.1309H69.9845V10.2055H82.5818H82.58Z" stroke="#EF6BAA" stroke-width="8" stroke-linecap="round" stroke-linejoin="round"/>
</svg>
