<svg width="100" height="100" viewBox="0 0 100 100" fill="none" xmlns="http://www.w3.org/2000/svg">
<g clip-path="url(#clip0_323_895)">
<path d="M48.6879 20.1843L49.071 22.2226H51.1449H87.6149C93.0715 22.2226 97.5 26.647 97.5 32.1077V77.9821C97.5 83.4379 93.0708 87.8672 87.6149 87.8672H12.3851C6.92684 87.8672 2.5 83.4383 2.5 77.9821V42.2029V32.1077V22.018C2.5 16.557 6.92612 12.1329 12.3851 12.1329H38.991C43.815 12.1329 47.8259 15.5971 48.6879 20.1843Z" stroke="#EF6BAA" stroke-width="5"/>
<path fill-rule="evenodd" clip-rule="evenodd" d="M50.3021 31.5C50.3021 30.1193 49.1828 29 47.8021 29C46.4214 29 45.3021 30.1193 45.3021 31.5V36.165H27.5C26.1193 36.165 25 37.2843 25 38.665V52.995C25 54.3757 26.1193 55.495 27.5 55.495H45.3021V76.768H41.8301C40.4494 76.768 39.3301 77.8873 39.3301 79.268C39.3301 80.6487 40.4494 81.768 41.8301 81.768H53.7731C55.1538 81.768 56.2731 80.6487 56.2731 79.268C56.2731 77.8873 55.1538 76.768 53.7731 76.768H50.3021V55.495H65.714C66.377 55.495 67.0129 55.2316 67.4818 54.7628L74.6468 47.5978C75.6231 46.6215 75.6231 45.0386 74.6468 44.0622L67.4818 36.8972C67.0129 36.4284 66.377 36.165 65.714 36.165H50.3021V31.5ZM30 50.495V41.165H64.6785L69.3435 45.83L64.6785 50.495H30Z" fill="#FFE801"/>
</g>
<defs>
<clipPath id="clip0_323_895">
<rect width="100" height="100" fill="white"/>
</clipPath>
</defs>
</svg>
