<svg width="100" height="100" viewBox="0 0 100 100" fill="none" xmlns="http://www.w3.org/2000/svg">
<path d="M100 32.1077V77.9821C100 84.8186 94.4515 90.3671 87.6149 90.3671H12.3851C5.54577 90.3671 0 84.8186 0 77.9821V42.2029V32.1077V22.0179C0 15.1759 5.54577 9.63285 12.3851 9.63285H38.991C45.046 9.63285 50.0661 13.9814 51.1449 19.7226H87.6149C94.4515 19.7226 100 25.2656 100 32.1077Z" fill="#FFE801"/>
<path d="M39.8438 74.7031C37.4479 71.1094 35.0521 66.3958 32.6562 60.5625L24.0625 38.375C23.8021 37.8021 23.6458 37.1771 23.5938 36.5C23.4896 35.0417 23.9062 33.7917 24.8438 32.75C25.8333 31.7083 27.0833 31.1875 28.5938 31.1875C30.2083 31.1875 31.4062 31.5521 32.1875 32.2812C33.0208 32.9583 33.6979 33.8438 34.2188 34.9375L41.6406 55.25C42.474 57.3854 43.2812 59.4167 44.0625 61.3438C44.8958 63.2188 45.8073 64.9375 46.7969 66.5C47.7865 68.0625 48.9062 68.8958 50.1562 69C51.3542 68.8958 52.4219 68.0625 53.3594 66.5C54.401 64.9375 55.3125 63.2188 56.0938 61.3438C56.9271 59.4167 57.7604 57.3854 58.5938 55.25L65.8594 34.9375C66.3802 33.8438 67.0312 32.9583 67.8125 32.2812C68.6458 31.5521 69.9219 31.1875 71.6406 31.1875C73.151 31.1875 74.375 31.7083 75.3125 32.75C76.3021 33.7917 76.7448 35.0417 76.6406 36.5C76.5885 37.1771 76.4323 37.8021 76.1719 38.375L67.5781 60.5625C65.1823 66.5 62.7865 71.2396 60.3906 74.7812C58.0469 78.2708 54.6354 80.0417 50.1562 80.0938C45.625 80.0417 42.1875 78.2448 39.8438 74.7031Z" fill="black"/>
</svg>
