<svg width="100" height="100" viewBox="0 0 100 100" fill="none" xmlns="http://www.w3.org/2000/svg">
<path fill-rule="evenodd" clip-rule="evenodd" d="M38.4446 13.6004C43.8026 4.32005 57.1975 4.32006 62.5555 13.6004L95.9815 71.4959C101.34 80.7762 94.642 92.3766 83.9261 92.3766H17.074C6.35806 92.3766 -0.339418 80.7762 5.01857 71.4959L9.03707 73.816L5.01857 71.4959L38.4446 13.6004ZM54.5185 18.2405C52.7325 15.1471 48.2676 15.1471 46.4816 18.2405L13.0556 76.1361C11.2696 79.2295 13.5021 83.0963 17.074 83.0963H83.9261C87.4981 83.0963 89.7305 79.2295 87.9445 76.1361L54.5185 18.2405Z" fill="#EF6BAA"/>
<path d="M10.5 38H87" stroke="#5DD8E5" stroke-width="14" stroke-linecap="round"/>
<path d="M32 62L69 62" stroke="#FFE801" stroke-width="14" stroke-linecap="round"/>
</svg>
