<svg width="100" height="100" viewBox="0 0 100 100" fill="none" xmlns="http://www.w3.org/2000/svg">
<path fill-rule="evenodd" clip-rule="evenodd" d="M100 77.9821V32.1077C100 25.2656 94.4515 19.7226 87.6149 19.7226H51.1449C50.0661 13.9814 45.046 9.63285 38.991 9.63285H12.3851C5.54577 9.63285 0 15.1759 0 22.0179V32.1077V42.2029V77.9821C0 84.8186 5.54577 90.3671 12.3851 90.3671H87.6149C94.4515 90.3671 100 84.8186 100 77.9821ZM30.4924 38.1022L30.4924 38.1023L30.4924 38.1025C30.4923 38.1116 30.4856 38.4558 31.1802 39.1215C31.8902 39.8021 33.1028 40.5762 34.889 41.3004C38.4432 42.7413 43.5944 43.7121 49.4633 43.7121C55.3322 43.7121 60.4833 42.7413 64.0376 41.3004C65.8238 40.5762 67.0364 39.8021 67.7464 39.1215C68.4409 38.4558 68.4343 38.1116 68.4341 38.1025V38.1023V38.1022C68.4343 38.0931 68.4409 37.7489 67.7464 37.0832C67.0364 36.4026 65.8238 35.6285 64.0376 34.9043C60.4833 33.4634 55.3322 32.4925 49.4633 32.4925C43.5944 32.4925 38.4432 33.4634 34.889 34.9043C33.1028 35.6285 31.8902 36.4026 31.1802 37.0832C30.4856 37.7489 30.4923 38.0931 30.4924 38.1022ZM32.259 28.4172C36.8376 26.561 42.9219 25.4925 49.4633 25.4925C56.0047 25.4925 62.089 26.561 66.6675 28.4172C68.9478 29.3416 71.026 30.5304 72.5901 32.0296C74.1635 33.5377 75.4341 35.5898 75.4341 38.1023C75.4341 38.3079 75.4256 38.5104 75.4091 38.7097H75.4341V70.9634H68.4341V63.3787C66.3993 64.383 64.0308 65.1779 61.4861 65.7682L61.486 65.7682C57.7813 66.6274 53.6389 67.0679 49.4614 67.0679C45.2838 67.0679 41.1415 66.6274 37.4368 65.7682C34.8959 65.1789 32.5307 64.3857 30.4978 63.3838V70.9811H26.9924L30.4924 70.9813C30.4924 70.9893 30.4929 71.0155 30.5107 71.0698C30.5296 71.1273 30.5727 71.2297 30.6697 71.3753C30.8716 71.6779 31.2727 72.1142 32.0017 72.6214C33.4818 73.6513 35.8534 74.6549 39.0178 75.3888C42.1442 76.1139 45.7506 76.5075 49.4608 76.5075C53.1711 76.5075 56.7775 76.1139 59.9039 75.3888L59.9038 75.3888L60.6947 78.7983L59.9039 75.3888C63.068 74.6548 65.4394 73.6512 66.9193 72.6214C67.6481 72.1143 68.0492 71.678 68.251 71.3754C68.348 71.2299 68.3911 71.1275 68.4099 71.07C68.4277 71.0158 68.4282 70.9896 68.4282 70.9815L75.4282 70.9807C75.4286 74.2146 73.3222 76.6939 70.9176 78.3672C68.4537 80.0818 65.1525 81.3572 61.4855 82.2077L61.4854 82.2078C57.7807 83.067 53.6384 83.5075 49.4608 83.5075C45.2833 83.5075 41.141 83.067 37.4363 82.2078C33.7691 81.3573 30.4677 80.0819 28.0036 78.3673C25.5989 76.6941 23.4923 74.2149 23.4924 70.981H23.4978V54.8242C23.4943 54.732 23.4925 54.6392 23.4924 54.5457L23.4978 54.5457V38.7274H23.5189C23.5014 38.5223 23.4924 38.314 23.4924 38.1023C23.4924 35.5898 24.7631 33.5377 26.3364 32.0296C27.9006 30.5304 29.9788 29.3416 32.259 28.4172ZM66.6675 47.7875C67.2726 47.5423 67.8634 47.2784 68.4341 46.995V54.5421H68.4282L68.4282 54.5452C68.4279 54.5559 68.4259 54.582 68.4099 54.6307C68.391 54.6882 68.3479 54.7907 68.2508 54.9362C68.0489 55.2388 67.6478 55.6751 66.919 56.1822C65.4392 57.2119 63.068 58.2153 59.9044 58.9492L59.9043 58.9492C56.778 59.6743 53.1716 60.0679 49.4614 60.0679C45.7512 60.0679 42.1447 59.6743 39.0184 58.9492L39.0183 58.9492C35.8546 58.2155 33.4831 57.2122 32.0028 56.1825C31.2737 55.6754 30.8723 55.239 30.6702 54.9363C30.5729 54.7906 30.5298 54.688 30.5108 54.6304C30.5046 54.6117 30.5006 54.5963 30.4978 54.5838V46.9977C31.0669 47.28 31.6559 47.543 32.259 47.7875C36.8376 49.6437 42.9219 50.7121 49.4633 50.7121C56.0047 50.7121 62.089 49.6437 66.6675 47.7875Z" fill="#5DD8E5"/>
</svg>
