<svg width="100" height="100" viewBox="0 0 100 100" fill="none" xmlns="http://www.w3.org/2000/svg">
<g clip-path="url(#clip0_323_869)">
<path d="M48.6879 20.1843L49.071 22.2226H51.1449H87.6149C93.0715 22.2226 97.5 26.647 97.5 32.1077V77.9821C97.5 83.4379 93.0708 87.8672 87.6149 87.8672H12.3851C6.92684 87.8672 2.5 83.4383 2.5 77.9821V42.2029V32.1077V22.018C2.5 16.557 6.92612 12.1329 12.3851 12.1329H38.991C43.815 12.1329 47.8259 15.5971 48.6879 20.1843Z" stroke="#5DD8E5" stroke-width="5"/>
<path d="M72.015 39.2889C72.015 39.2889 72.0127 39.2054 71.1672 38.4532C70.3917 37.7626 69.5095 37.1984 68.5538 36.7817C67.6675 36.3917 66.8514 36.2278 65.9392 36.0852C65.0281 35.9426 64.5917 36.0094 63.5371 36.0674C62.4836 36.1264 61.2141 36.2646 60.3404 36.6948C59.4677 37.1238 58.4809 37.6319 57.9213 38.1568C57.3618 38.6827 56.9967 39.1931 56.6135 39.8461C56.2185 40.5256 55.9102 41.2506 55.6956 42.0046C55.4989 42.7211 55.4164 43.1813 55.413 44.094C55.4096 45.0077 55.5215 46.4508 55.8369 47.437C56.1523 48.4243 56.6508 49.2222 57.1786 49.9443C57.7088 50.6675 58.3452 51.3361 58.9455 51.7551C59.5446 52.1752 59.8385 52.388 60.7111 52.8003C61.586 53.2126 62.9719 53.6706 64.1735 54.2623C65.374 54.8552 66.753 55.4892 67.8473 56.0732C68.9415 56.6582 69.96 57.1853 70.7433 57.7447C71.5278 58.3052 72.0229 58.7409 72.5802 59.3471C73.1386 59.9533 73.6868 60.6498 74.0644 61.3663C74.4419 62.0839 74.6906 62.5898 74.867 63.5704C74.9551 64.0608 74.9936 64.7461 74.9992 65.418C75.0049 66.09 74.9789 66.7508 74.9371 67.1921C74.8534 68.0768 74.7788 68.1615 74.5595 68.8881C74.338 69.6157 73.8123 70.7802 73.2494 71.5346C72.6865 72.2902 72.1032 72.7849 71.3096 73.2764C70.515 73.7667 69.5994 74.199 68.7663 74.4598C67.932 74.7217 67.3307 74.7852 66.3642 74.8777C65.3966 74.9713 64.1464 75.0593 62.973 74.9479C61.7974 74.8364 60.3957 74.5244 59.3693 74.1812C58.3441 73.8391 57.5754 73.507 56.826 72.9978C56.0765 72.4885 55.7634 72.259 55.3429 71.7787C54.7822 71.1402 54 69.6213 54 69.6213" stroke="white" stroke-width="8" stroke-linecap="round" stroke-linejoin="round"/>
<path d="M40.9684 36C40.9684 36 41.0395 55.9567 40.9684 66.2005C40.9628 66.9949 40.9595 67.7984 40.8205 68.5805C40.7305 69.0899 40.5759 69.5904 40.3781 70.0684C40.2335 70.4163 40.0423 70.7439 39.8378 71.0604C39.5443 71.5137 39.2352 71.9659 38.855 72.3497C38.5327 72.6751 38.158 72.9444 37.7745 73.1924C37.0897 73.6356 36.3704 74.0339 35.6122 74.3336C34.9624 74.5887 34.287 74.7716 33.5978 74.8789C32.867 74.9942 32.1258 75.0273 31.3878 74.9777C30.846 74.9391 30.3101 74.8394 29.7903 74.6803C29.0744 74.4615 28.3673 74.1809 27.727 73.7882C27.2656 73.5032 26.8599 73.1295 26.4741 72.7458C26.0772 72.3508 25.7382 71.8997 25.3935 71.4565C25.2557 71.2803 25 70.9111 25 70.9111" stroke="white" stroke-width="8" stroke-linecap="round" stroke-linejoin="round"/>
</g>
<defs>
<clipPath id="clip0_323_869">
<rect width="100" height="100" fill="white"/>
</clipPath>
</defs>
</svg>
