<svg width="100" height="100" viewBox="0 0 100 100" fill="none" xmlns="http://www.w3.org/2000/svg">
<g clip-path="url(#clip0_323_479)">
<path d="M48.6879 20.1843L49.071 22.2225H51.1449H87.6149C93.0715 22.2225 97.5 26.647 97.5 32.1076V77.982C97.5 83.4379 93.0708 87.8671 87.6149 87.8671H12.3851C6.92684 87.8671 2.5 83.4382 2.5 77.982V42.2029V32.1076V22.0179C2.5 16.5569 6.92612 12.1328 12.3851 12.1328H38.991C43.815 12.1328 47.8259 15.597 48.6879 20.1843Z" stroke="#5DD8E5" stroke-width="5"/>
<path fill-rule="evenodd" clip-rule="evenodd" d="M49.5022 32.6045C47.6928 32.6045 45.3677 33.8483 43.3507 37.4857L43.3488 37.4892L35.9414 50.7922L35.94 50.7947L28.0796 64.9535C26.2068 68.3311 26.3383 70.895 27.2672 72.4776C28.1949 74.058 30.3645 75.42 34.2309 75.42H49.5022C49.6184 75.42 49.7325 75.4286 49.844 75.4452H64.7734C68.6249 75.4452 70.7972 74.0846 71.7288 72.5009C72.6606 70.9169 72.7957 68.3537 70.9254 64.9798L70.9248 64.9787L63.0635 50.8183L63.063 50.8174L55.6547 37.4876L55.6536 37.4856C53.6367 33.8483 51.3116 32.6045 49.5022 32.6045ZM49.1604 80.0245H34.2309C29.3529 80.0245 25.3233 78.2618 23.2963 74.8085C21.2706 71.3574 21.6918 66.9787 24.0526 62.7207L24.0532 62.7196L31.9157 48.5572L31.9171 48.5547L39.3239 35.2527L39.3248 35.2511C41.7935 30.8001 45.3901 28 49.5022 28C53.6143 28 57.2108 30.8 59.6794 35.2508L59.6805 35.2527L67.0882 48.5815L67.0887 48.5824L74.9511 62.7448L74.9517 62.7459C77.3143 67.007 77.7266 71.3861 75.6975 74.8355C73.6681 78.2856 69.6412 80.0497 64.7734 80.0497H49.5022C49.3861 80.0497 49.2719 80.0411 49.1604 80.0245ZM49.502 44.1469C50.7735 44.1469 51.8043 45.1776 51.8043 46.4491V59.0491C51.8043 60.3206 50.7735 61.3514 49.502 61.3514C48.2305 61.3514 47.1998 60.3206 47.1998 59.0491V46.4491C47.1998 45.1776 48.2305 44.1469 49.502 44.1469ZM49.4881 64.3069C48.2166 64.3069 47.1858 65.3376 47.1858 66.6091C47.1858 67.8806 48.2166 68.9114 49.4881 68.9114H49.511C50.7825 68.9114 51.8133 67.8806 51.8133 66.6091C51.8133 65.3376 50.7825 64.3069 49.511 64.3069H49.4881Z" fill="white"/>
</g>
<defs>
<clipPath id="clip0_323_479">
<rect width="100" height="100" fill="white"/>
</clipPath>
</defs>
</svg>
