<svg width="100" height="100" viewBox="0 0 100 100" fill="none" xmlns="http://www.w3.org/2000/svg">
<g clip-path="url(#clip0_328_31)">
<path d="M48.1965 20.2766L48.6562 22.7226H51.1449H87.6149C92.7955 22.7226 97 26.9233 97 32.1077V77.9821C97 83.1618 92.7946 87.3671 87.6149 87.3671H12.3851C7.20306 87.3671 3 83.1622 3 77.9821V42.2029V32.1077V22.0179C3 16.8332 7.20219 12.6329 12.3851 12.6329H38.991C43.5689 12.6329 47.3779 15.9202 48.1965 20.2766Z" fill="#EF6BAA" stroke="#FFE801" stroke-width="6"/>
<g filter="url(#filter0_d_328_31)">
<path d="M44.5641 32.4152L22.3806 70.8382C19.9943 74.9714 22.9885 80.1358 27.7612 80.1184L58.8254 80.0051L71.9272 80.0878C76.7675 80.1184 79.7665 74.8294 77.2554 70.6913L70.5665 59.6689L55.3182 32.4821C52.9717 28.2983 46.9626 28.2609 44.5641 32.4152Z" fill="#5DD8E5"/>
</g>
</g>
<defs>
<filter id="filter0_d_328_31" x="19.8299" y="27.6091" width="60.0455" height="54.2219" filterUnits="userSpaceOnUse" color-interpolation-filters="sRGB">
<feFlood flood-opacity="0" result="BackgroundImageFix"/>
<feColorMatrix in="SourceAlpha" type="matrix" values="0 0 0 0 0 0 0 0 0 0 0 0 0 0 0 0 0 0 127 0" result="hardAlpha"/>
<feOffset/>
<feGaussianBlur stdDeviation="0.856295"/>
<feComposite in2="hardAlpha" operator="out"/>
<feColorMatrix type="matrix" values="0 0 0 0 0.388235 0 0 0 0 0.945098 0 0 0 0 1 0 0 0 1 0"/>
<feBlend mode="normal" in2="BackgroundImageFix" result="effect1_dropShadow_328_31"/>
<feBlend mode="normal" in="SourceGraphic" in2="effect1_dropShadow_328_31" result="shape"/>
</filter>
<clipPath id="clip0_328_31">
<rect width="100" height="100" fill="white"/>
</clipPath>
</defs>
</svg>
