<svg width="100" height="100" viewBox="0 0 100 100" fill="none" xmlns="http://www.w3.org/2000/svg">
<g clip-path="url(#clip0_323_767)">
<path d="M48.6879 20.1843L49.071 22.2226H51.1449H87.6149C93.0715 22.2226 97.5 26.647 97.5 32.1077V77.9821C97.5 83.4379 93.0708 87.8672 87.6149 87.8672H12.3851C6.92684 87.8672 2.5 83.4383 2.5 77.9821V42.2029V32.1077V22.018C2.5 16.557 6.92612 12.1329 12.3851 12.1329H38.991C43.815 12.1329 47.8259 15.5971 48.6879 20.1843Z" stroke="#EF6BAA" stroke-width="5"/>
<path d="M50 36.501C52.0714 36.501 53.7505 34.8219 53.7505 32.7505C53.7505 30.6792 52.0714 29 50 29C47.9287 29 46.2495 30.6792 46.2495 32.7505C46.2495 34.8219 47.9287 36.501 50 36.501Z" stroke="#FFE801" stroke-width="3.63762" stroke-linecap="round" stroke-linejoin="round"/>
<path d="M50 80.7919C52.0714 80.7919 53.7505 79.1127 53.7505 77.0414C53.7505 74.97 52.0714 73.2908 50 73.2908C47.9287 73.2908 46.2495 74.97 46.2495 77.0414C46.2495 79.1127 47.9287 80.7919 50 80.7919Z" stroke="#FFE801" stroke-width="3.63762" stroke-linecap="round" stroke-linejoin="round"/>
<path d="M27.7505 69.8232C29.8219 69.8232 31.501 68.1441 31.501 66.0727C31.501 64.0014 29.8219 62.3222 27.7505 62.3222C25.6792 62.3222 24 64.0014 24 66.0727C24 68.1441 25.6792 69.8232 27.7505 69.8232Z" stroke="#FFE801" stroke-width="3.63762" stroke-linecap="round" stroke-linejoin="round"/>
<path d="M27.7505 47.469C29.8219 47.469 31.501 45.7899 31.501 43.7185C31.501 41.6472 29.8219 39.968 27.7505 39.968C25.6792 39.968 24 41.6472 24 43.7185C24 45.7899 25.6792 47.469 27.7505 47.469Z" stroke="#FFE801" stroke-width="3.63762" stroke-linecap="round" stroke-linejoin="round"/>
<path d="M72.2493 47.469C74.3206 47.469 75.9998 45.7899 75.9998 43.7185C75.9998 41.6472 74.3206 39.968 72.2493 39.968C70.1779 39.968 68.4988 41.6472 68.4988 43.7185C68.4988 45.7899 70.1779 47.469 72.2493 47.469Z" stroke="#FFE801" stroke-width="3.63762" stroke-linecap="round" stroke-linejoin="round"/>
<path d="M72.2493 69.8232C74.3206 69.8232 75.9998 68.1441 75.9998 66.0727C75.9998 64.0014 74.3206 62.3222 72.2493 62.3222C70.1779 62.3222 68.4988 64.0014 68.4988 66.0727C68.4988 68.1441 70.1779 69.8232 72.2493 69.8232Z" stroke="#FFE801" stroke-width="3.63762" stroke-linecap="round" stroke-linejoin="round"/>
<path d="M47.8838 36.0935L30.0217 62.7304M52.1665 36.0935L70.0292 62.7304M31.6966 41.5682L45.5826 33.4428M68.3331 41.5682L54.4464 33.4428M68.3331 68.2324L54.4464 76.3578M31.7701 68.2324L45.6568 76.3578M27.8557 48.4374V61.8069M72.174 48.4374V61.8069M32.0661 66.0173H67.9636" stroke="#FFE801" stroke-width="3.63762" stroke-linecap="round" stroke-linejoin="round"/>
</g>
<defs>
<clipPath id="clip0_323_767">
<rect width="100" height="100" fill="white"/>
</clipPath>
</defs>
</svg>
