<svg width="100" height="100" viewBox="0 0 100 100" fill="none" xmlns="http://www.w3.org/2000/svg">
<g clip-path="url(#clip0_323_879)">
<path d="M48.6879 20.1843L49.071 22.2226H51.1449H87.6149C93.0715 22.2226 97.5 26.647 97.5 32.1077V77.9821C97.5 83.4379 93.0708 87.8672 87.6149 87.8672H12.3851C6.92684 87.8672 2.5 83.4383 2.5 77.9821V42.2029V32.1077V22.018C2.5 16.5569 6.92612 12.1329 12.3851 12.1329H38.991C43.815 12.1329 47.8259 15.5971 48.6879 20.1843Z" stroke="#5DD8E5" stroke-width="5"/>
<path fill-rule="evenodd" clip-rule="evenodd" d="M51.4923 29.3938C50.7549 29.066 49.9131 29.066 49.1757 29.3938L29.8417 37.9868C28.8117 38.4445 28.1479 39.4659 28.1479 40.593V53.483C28.1479 66.6024 37.1851 78.9864 49.6571 82.0336C50.1018 82.1422 50.5661 82.1422 51.0108 82.0336C63.4851 78.9865 72.5201 66.6022 72.5201 53.483V40.593C72.5201 39.4659 71.8563 38.4445 70.8263 37.9868L51.4923 29.3938ZM33.852 53.483V42.4465L50.334 35.1211L66.816 42.4465V53.483C66.816 63.9589 59.6999 73.6593 50.3341 76.3139C40.9698 73.6592 33.852 63.9586 33.852 53.483ZM62.1915 51.3028C63.3054 50.1891 63.3055 48.3833 62.1918 47.2694C61.0781 46.1555 59.2722 46.1554 58.1584 47.2691L46.0851 59.3407L42.3426 55.5983C41.2288 54.4845 39.423 54.4845 38.3092 55.5983C37.1954 56.7121 37.1954 58.5179 38.3092 59.6317L44.0682 65.3907C45.182 66.5044 46.9877 66.5045 48.1015 65.3908L62.1915 51.3028Z" fill="white"/>
</g>
<defs>
<clipPath id="clip0_323_879">
<rect width="100" height="100" fill="white"/>
</clipPath>
</defs>
</svg>
