<svg width="100" height="100" viewBox="0 0 100 100" fill="none" xmlns="http://www.w3.org/2000/svg">
<g clip-path="url(#clip0_435_39)">
<path d="M100 32.1077V77.9821C100 84.8186 94.4515 90.3671 87.6149 90.3671H12.3851C5.54577 90.3671 0 84.8186 0 77.9821V42.2029V32.1077V22.0179C0 15.1759 5.54577 9.63285 12.3851 9.63285H38.991C45.046 9.63285 50.0661 13.9814 51.1449 19.7226H87.6149C94.4515 19.7226 100 25.2656 100 32.1077Z" fill="#5DD8E5"/>
<path d="M38.4844 30.6406C40.3073 30.6406 42.0781 30.9531 43.7969 31.5781C45.5677 32.2031 47.2604 33.1146 48.875 34.3125C49.1354 34.5729 49.4219 34.8333 49.7344 35.0938C49.9948 34.8333 50.2812 34.5729 50.5938 34.3125C52.2083 33.1146 53.875 32.2031 55.5938 31.5781C57.3646 30.9531 59.1354 30.6406 60.9062 30.6406C62.7292 30.6406 64.5 30.9531 66.2188 31.5781C67.9896 32.2031 69.6562 33.1406 71.2188 34.3906C72.8333 35.5885 74.2396 37.2031 75.4375 39.2344C76.6875 41.2656 77.3125 43.6875 77.3125 46.5V74.7031C77 77.8281 75.2812 79.5208 72.1562 79.7812C70.6979 79.7812 69.4219 79.3125 68.3281 78.375C67.2865 77.3854 66.7656 76.1615 66.7656 74.7031V47.125C66.7656 45.875 66.5312 44.8333 66.0625 44C65.5938 43.1146 65.0729 42.4375 64.5 41.9688C63.9271 41.4479 63.3281 41.0833 62.7031 40.875C62.0781 40.6146 61.4531 40.4844 60.8281 40.4844C60.2031 40.4844 59.5781 40.6146 58.9531 40.875C58.3802 41.0833 57.8073 41.4479 57.2344 41.9688C56.6615 42.4375 56.1406 43.1146 55.6719 44C55.2031 44.8333 54.9427 45.875 54.8906 47.125V74.7031C54.5781 77.8281 52.8594 79.5208 49.7344 79.7812C48.276 79.7812 47 79.3125 45.9062 78.375C44.8646 77.3854 44.3438 76.1615 44.3438 74.7031V47.125C44.3438 45.875 44.1094 44.8333 43.6406 44C43.1719 43.1146 42.651 42.4375 42.0781 41.9688C41.5052 41.4479 40.9062 41.0833 40.2812 40.875C39.6562 40.6146 39.0312 40.4844 38.4062 40.4844C37.7812 40.4844 37.1562 40.6146 36.5312 40.875C35.9583 41.0833 35.3854 41.4479 34.8125 41.9688C34.2396 42.4375 33.7188 43.1146 33.25 44C32.7812 44.8333 32.5208 45.875 32.4688 47.125V74.7031C32.2083 77.8281 30.5156 79.5208 27.3906 79.7812C25.9323 79.7812 24.6562 79.3125 23.5625 78.375C22.5208 77.3854 22 76.1615 22 74.7031V46.5C22.1042 43.6875 22.7552 41.2656 23.9531 39.2344C25.151 37.2031 26.5573 35.5885 28.1719 34.3906C29.7865 33.1406 31.4531 32.2031 33.1719 31.5781C34.9427 30.9531 36.7135 30.6406 38.4844 30.6406Z" fill="black"/>
</g>
<defs>
<clipPath id="clip0_435_39">
<rect width="100" height="100" fill="white"/>
</clipPath>
</defs>
</svg>
