<svg width="100" height="100" viewBox="0 0 100 100" fill="none" xmlns="http://www.w3.org/2000/svg">
<g clip-path="url(#clip0_328_36)">
<path d="M48.1965 20.2766L48.6562 22.7226H51.1449H87.6149C92.7955 22.7226 97 26.9233 97 32.1077V77.9821C97 83.1618 92.7946 87.3671 87.6149 87.3671H12.3851C7.20306 87.3671 3 83.1622 3 77.9821V42.2029V32.1077V22.0179C3 16.8332 7.20219 12.6329 12.3851 12.6329H38.991C43.5689 12.6329 47.3779 15.9202 48.1965 20.2766Z" fill="#EF6BAA" stroke="#FFE801" stroke-width="6"/>
<g filter="url(#filter0_d_328_36)">
<path d="M58.8449 76.9117L58.8295 76.9116L58.8141 76.9117L27.7499 77.025C25.3636 77.0337 23.8665 74.4515 25.0596 72.3849L47.2431 33.9619C48.4424 31.8848 51.4469 31.9035 52.6202 33.9954L67.8684 61.1821L67.8944 61.2284L67.9219 61.2737L74.6108 72.2962C75.8664 74.3652 74.3668 77.0097 71.9467 76.9944L58.8449 76.9117Z" stroke="#5DD8E5" stroke-width="6.18688" shape-rendering="crispEdges"/>
</g>
</g>
<defs>
<filter id="filter0_d_328_36" x="19.8299" y="27.6091" width="60.0455" height="54.2219" filterUnits="userSpaceOnUse" color-interpolation-filters="sRGB">
<feFlood flood-opacity="0" result="BackgroundImageFix"/>
<feColorMatrix in="SourceAlpha" type="matrix" values="0 0 0 0 0 0 0 0 0 0 0 0 0 0 0 0 0 0 127 0" result="hardAlpha"/>
<feOffset/>
<feGaussianBlur stdDeviation="0.856295"/>
<feComposite in2="hardAlpha" operator="out"/>
<feColorMatrix type="matrix" values="0 0 0 0 0.388235 0 0 0 0 0.945098 0 0 0 0 1 0 0 0 1 0"/>
<feBlend mode="normal" in2="BackgroundImageFix" result="effect1_dropShadow_328_36"/>
<feBlend mode="normal" in="SourceGraphic" in2="effect1_dropShadow_328_36" result="shape"/>
</filter>
<clipPath id="clip0_328_36">
<rect width="100" height="100" fill="white"/>
</clipPath>
</defs>
</svg>
