<svg width="100" height="100" viewBox="0 0 100 100" fill="none" xmlns="http://www.w3.org/2000/svg">
<g clip-path="url(#clip0_323_1512)">
<path d="M48.6879 20.1843L49.071 22.2225H51.1449H87.6149C93.0715 22.2225 97.5 26.647 97.5 32.1076V77.982C97.5 83.4379 93.0708 87.8671 87.6149 87.8671H12.3851C6.92684 87.8671 2.5 83.4382 2.5 77.982V42.2029V32.1076V22.0179C2.5 16.5569 6.92612 12.1328 12.3851 12.1328H38.991C43.815 12.1328 47.8259 15.597 48.6879 20.1843Z" stroke="#5DD8E5" stroke-width="5"/>
<path d="M25.4688 37.9844C25.4688 36.526 25.9635 35.3021 26.9531 34.3125C27.9948 33.2708 29.2448 32.75 30.7031 32.75H60.8594C61.1719 32.75 61.4844 32.776 61.7969 32.8281H62.2656C65.9115 32.9323 68.9062 33.7656 71.25 35.3281C73.5938 36.8906 75.2865 38.6875 76.3281 40.7188C77.3698 42.6979 77.8906 44.7031 77.8906 46.7344C77.8906 48.8177 77.3698 50.875 76.3281 52.9062C75.3385 54.8854 73.6458 56.6562 71.25 58.2188C68.9062 59.7812 65.9115 60.6146 62.2656 60.7188H40.0781C39.0885 60.7708 38.2552 61.0052 37.5781 61.4219C36.9531 61.8385 36.4844 62.3854 36.1719 63.0625C35.8594 63.6875 35.7031 64.1823 35.7031 64.5469V66.1875C35.7031 66.8646 35.8594 67.3854 36.1719 67.75C36.5365 68.1146 37.2135 68.2708 38.2031 68.2188H72.2656C73.724 68.2188 74.9479 68.7396 75.9375 69.7812C76.9792 70.7708 77.5 71.9948 77.5 73.4531C77.5 74.9115 76.9792 76.1615 75.9375 77.2031C74.9479 78.1927 73.724 78.6875 72.2656 78.6875H33.9844C31.0677 78.6875 28.8281 77.9844 27.2656 76.5781C25.7552 75.1198 24.974 73.0625 24.9219 70.4062V64.5469C24.9219 62.4115 25.4167 60.3281 26.4062 58.2969C27.4479 56.2135 29.1406 54.3906 31.4844 52.8281C33.8802 51.2135 36.901 50.3542 40.5469 50.25H62.7344C63.724 50.1979 64.5312 49.9896 65.1562 49.625C65.8333 49.2083 66.3281 48.7656 66.6406 48.2969C66.9531 47.776 67.1094 47.2552 67.1094 46.7344C67.1094 46.2135 66.9531 45.7188 66.6406 45.25C66.3281 44.7292 65.8333 44.2865 65.1562 43.9219C64.5312 43.5052 63.724 43.2708 62.7344 43.2188H30.7031C29.2448 43.2188 28.0208 42.6979 27.0312 41.6562C25.9896 40.6667 25.4688 39.4427 25.4688 37.9844Z" fill="white"/>
</g>
<defs>
<clipPath id="clip0_323_1512">
<rect width="100" height="100" fill="white"/>
</clipPath>
</defs>
</svg>
