<svg width="100" height="100" viewBox="0 0 100 100" fill="none" xmlns="http://www.w3.org/2000/svg">
<g clip-path="url(#clip0_323_516)">
<path d="M48.6879 20.1843L49.071 22.2225H51.1449H87.6149C93.0715 22.2225 97.5 26.647 97.5 32.1076V77.982C97.5 83.4379 93.0708 87.8671 87.6149 87.8671H12.3851C6.92684 87.8671 2.5 83.4382 2.5 77.982V42.2029V32.1076V22.0179C2.5 16.5569 6.92612 12.1328 12.3851 12.1328H38.991C43.815 12.1328 47.8259 15.597 48.6879 20.1843Z" stroke="#EF6BAA" stroke-width="5"/>
<path fill-rule="evenodd" clip-rule="evenodd" d="M35.771 29C35.1855 29 34.6446 29.3124 34.352 29.8195L20.2194 54.3097C19.927 54.8165 19.927 55.4407 20.2194 55.9474L34.352 80.4384C34.6446 80.9455 35.1855 81.2579 35.771 81.2579H64.0337C64.6191 81.2579 65.1601 80.9455 65.4527 80.4384L79.5853 55.9474C79.8777 55.4407 79.8777 54.8165 79.5853 54.3097L65.4535 29.8195C65.1609 29.3125 64.6199 29 64.0345 29H35.771ZM23.53 55.1286L36.7171 32.2767H63.0883L76.2747 55.1286L63.0875 77.9813H36.7171L23.53 55.1286ZM36.2069 46.1611C35.7001 46.4576 35.3876 47.0045 35.3878 47.5946L35.3908 62.6773C35.3909 63.2619 35.6979 63.8008 36.1973 64.0932L49.0828 71.6377C49.587 71.9329 50.2105 71.9321 50.7173 71.6355L63.5985 64.0976C64.1052 63.801 64.4177 63.2541 64.4176 62.664L64.4143 47.5809C64.4142 46.9963 64.1073 46.4575 63.6079 46.1651L50.7229 38.6207C50.2188 38.3255 49.5952 38.3264 49.0885 38.6229L36.2069 46.1611ZM38.6507 61.7136L38.648 48.5288L49.8909 41.9496L61.1545 48.5446L61.1574 61.7299L49.9149 68.3088L38.6507 61.7136Z" fill="#FFE801"/>
</g>
<defs>
<clipPath id="clip0_323_516">
<rect width="100" height="100" fill="white"/>
</clipPath>
</defs>
</svg>
