<svg width="100" height="100" viewBox="0 0 100 100" fill="none" xmlns="http://www.w3.org/2000/svg">
<path d="M100 32.1077V77.9821C100 84.8186 94.4515 90.3671 87.6149 90.3671H12.3851C5.54577 90.3671 0 84.8186 0 77.9821V42.2029V32.1077V22.0179C0 15.1759 5.54577 9.63285 12.3851 9.63285H38.991C45.046 9.63285 50.0661 13.9814 51.1449 19.7226H87.6149C94.4515 19.7226 100 25.2656 100 32.1077Z" fill="#EF6BAA"/>
<path d="M41.7344 43.2188C39.7552 43.3229 38.0885 44.0781 36.7344 45.4844C35.4323 46.8906 34.4948 48.5052 33.9219 50.3281C33.349 52.099 33.0625 53.9219 33.0625 55.7969C33.0625 57.6719 33.3229 59.5208 33.8438 61.3438C34.4167 63.1667 35.3802 64.7812 36.7344 66.1875C38.0885 67.5417 39.7552 68.2708 41.7344 68.375H67.5156C70.7969 68.6875 72.5938 70.4844 72.9062 73.7656C72.8542 75.224 72.3073 76.4479 71.2656 77.4375C70.224 78.375 68.974 78.8438 67.5156 78.8438H42.5938H39C35.3542 78.6354 32.3594 77.2552 30.0156 74.7031C27.6719 72.099 25.9792 69.1562 24.9375 65.875C23.9479 62.5938 23.4531 59.2344 23.4531 55.7969C23.4531 53.2448 23.7396 50.7188 24.3125 48.2188C24.8854 45.7188 25.7708 43.349 26.9688 41.1094C28.2188 38.8177 29.8594 36.8646 31.8906 35.25C33.974 33.6354 36.3438 32.8021 39 32.75H40.4844H67.5156C70.7969 33.0625 72.5938 34.8594 72.9062 38.1406C72.9062 39.599 72.3594 40.8229 71.2656 41.8125C70.224 42.75 68.974 43.2188 67.5156 43.2188H41.7344Z" fill="black"/>
</svg>
