<svg width="100" height="100" viewBox="0 0 100 100" fill="none" xmlns="http://www.w3.org/2000/svg">
<path d="M83.5064 6.81818H16.4946C13.4821 6.81818 11.04 9.26026 11.04 12.2727V87.7273C11.04 90.7397 13.4821 93.1818 16.4946 93.1818H83.5064C86.5189 93.1818 88.961 90.7397 88.961 87.7273V12.2727C88.961 9.26026 86.5189 6.81818 83.5064 6.81818Z" stroke="#FFE801" stroke-width="8" stroke-linecap="round" stroke-linejoin="round"/>
<path d="M33.9781 20.6273V51.5045C33.9781 51.5045 38.1091 48.5927 40.4018 47.5682C42.3772 46.6836 44.5082 46.1763 46.62 45.7018C48.8691 45.1973 51.1536 44.7436 53.4582 44.6654C55.1209 44.6109 56.82 44.6682 58.4309 45.0809C59.7491 45.4173 61.04 45.9682 62.1618 46.7382C63.0481 47.3473 63.8254 48.1382 64.4418 49.0182C64.9318 49.7182 65.3081 50.5164 65.5236 51.3436C65.9381 52.9291 65.8309 54.6073 65.8918 56.2445C66.1809 63.9491 65.8918 79.3736 65.8918 79.3736" stroke="white" stroke-width="8" stroke-linecap="round" stroke-linejoin="round"/>
<path d="M33.9781 68.9027V79.3727" stroke="white" stroke-width="8" stroke-linecap="round" stroke-linejoin="round"/>
<path d="M64.8582 20.6273C64.8582 20.6273 64.5537 22.6845 64.2391 23.67C63.7737 25.1236 63.13 26.5245 62.38 27.8527C61.7591 28.95 60.2109 30.9509 60.2109 30.9509" stroke="white" stroke-width="8" stroke-linecap="round" stroke-linejoin="round"/>
</svg>
