<svg width="100" height="100" viewBox="0 0 100 100" fill="none" xmlns="http://www.w3.org/2000/svg">
<path d="M19.6972 7.32909L80.3027 7.28454C86.2554 7.28 92.9299 13.9591 92.9299 19.9109V80.5173C92.9299 86.3691 86.1554 92.7154 80.3027 92.7154H19.6972C13.8445 92.7154 7.06995 86.3691 7.06995 80.5173V19.9109C7.06995 13.9691 13.7554 7.33363 19.6972 7.32909Z" stroke="#FFE801" stroke-width="8" stroke-linecap="round" stroke-linejoin="round"/>
<path d="M56.5545 56.7545C56.5545 56.7545 56.5527 56.6955 55.96 56.16C55.4158 55.6687 54.7969 55.2673 54.1263 54.9709C53.5045 54.6936 52.9318 54.5764 52.2927 54.4755C51.6536 54.3745 51.3472 54.4209 50.6081 54.4627C49.8681 54.5045 48.9781 54.6036 48.3654 54.9082C47.7527 55.2145 47.0609 55.5764 46.6681 55.95C46.2754 56.3227 46.02 56.6864 45.7509 57.1518C45.4738 57.6355 45.2577 58.1515 45.1072 58.6882C44.9691 59.1973 44.9118 59.5245 44.9091 60.1745C44.9063 60.8236 44.9854 61.8509 45.2063 62.5527C45.4272 63.2545 45.7763 63.8227 46.1481 64.3373C46.5191 64.8509 46.9663 65.3273 47.3863 65.6255C47.8072 65.9246 48.0127 66.0755 48.6254 66.3691C49.2381 66.6627 50.2109 66.9882 51.0536 67.41C51.8963 67.8309 52.8627 68.2827 53.6309 68.6982C54.3981 69.1136 55.1127 69.4891 55.6627 69.8873C56.2127 70.2855 56.56 70.5964 56.9509 71.0273C57.3418 71.4582 57.7263 71.9545 57.9918 72.4636C58.2563 72.9745 58.4309 73.3345 58.5545 74.0327C58.6163 74.3818 58.6436 74.8691 58.6472 75.3473C58.6518 75.8255 58.6336 76.2945 58.6036 76.6091C58.5454 77.2391 58.4936 77.3 58.3381 77.8164C58.1836 78.3336 57.8145 79.1627 57.42 79.7C57.0254 80.2364 56.6163 80.5891 56.0591 80.9382C55.5005 81.2902 54.9012 81.5732 54.2745 81.7809C53.69 81.9673 53.2681 82.0118 52.59 82.0782C51.9118 82.1446 51.0354 82.2073 50.2109 82.1282C49.3515 82.0364 48.5043 81.8535 47.6836 81.5827C46.9645 81.3391 46.4254 81.1027 45.9 80.74C45.3745 80.3782 45.1545 80.2145 44.8591 79.8727C44.4663 79.4182 43.9172 78.3364 43.9172 78.3364" stroke="#FFE801" stroke-width="8" stroke-linecap="round" stroke-linejoin="round"/>
<path d="M34.3854 54.7136C34.3854 54.7136 34.4354 68.8155 34.3854 76.0536C34.3809 76.6155 34.3791 77.1827 34.28 77.7355C34.2137 78.0966 34.1079 78.4493 33.9645 78.7873C33.8618 79.0327 33.7254 79.2645 33.5791 79.4873C33.37 79.8091 33.1491 80.1282 32.8791 80.3991C32.644 80.6248 32.3852 80.8245 32.1072 80.9945C31.6211 81.3135 31.1047 81.5836 30.5654 81.8009C30.1021 81.9812 29.6204 82.1105 29.1291 82.1864C28.6075 82.268 28.0785 82.2915 27.5518 82.2564C27.1654 82.2292 26.7834 82.1587 26.4127 82.0464C25.9018 81.8918 25.3972 81.6927 24.9409 81.4155C24.6118 81.2155 24.3227 80.9509 24.0482 80.6791C23.7645 80.4 23.5227 80.0818 23.2772 79.7682C23.1791 79.6436 22.9963 79.3827 22.9963 79.3827" stroke="#FFE801" stroke-width="8" stroke-linecap="round" stroke-linejoin="round"/>
<path d="M66.6809 82.3973L81.5836 55.2109ZM81.5836 82.3973L66.6818 55.2109Z" fill="#5DD8E5"/>
<path d="M66.6809 82.3973L81.5836 55.2109M81.5836 82.3973L66.6818 55.2109" stroke="#FFE801" stroke-width="8" stroke-linecap="round" stroke-linejoin="round"/>
</svg>
