<svg width="100" height="100" viewBox="0 0 100 100" fill="none" xmlns="http://www.w3.org/2000/svg">
<path d="M50.0027 35.6455C50.0027 30.8601 53.419 26.0755 60.2572 26.0755C63.8823 26.075 67.3587 24.6347 69.9219 22.0713C72.4851 19.508 73.9252 16.0315 73.9254 12.4064V9.33005M30.8636 35.6464V33.2537C30.8636 29.4468 32.3758 25.7958 35.0676 23.1038C37.7594 20.4118 41.4103 18.8994 45.2172 18.8991C46.4739 18.8993 47.7184 18.6518 48.8794 18.171C50.0405 17.6902 51.0955 16.9853 51.9842 16.0967C52.8728 15.2082 53.5778 14.1532 54.0587 12.9922C54.5397 11.8312 54.7872 10.5868 54.7872 9.33005V6.93823M69.1418 45.2155H81.1036C84.276 45.2155 87.3186 46.4758 89.5619 48.719C91.8051 50.9623 93.0654 54.0049 93.0654 57.1773C93.0654 60.3498 91.8051 63.3923 89.5619 65.6356C87.3186 67.8789 84.276 69.1391 81.1036 69.1391H73.9263M73.9263 48.0864V64.3537C73.9265 68.1239 73.1842 71.8571 71.7415 75.3404C70.2989 78.8236 68.1843 81.9886 65.5185 84.6546C62.8527 87.3206 59.6878 89.4354 56.2047 90.8782C52.7215 92.3211 48.9883 93.0637 45.2181 93.0637H35.649C31.8789 93.0638 28.1456 92.3213 24.6624 90.8786C21.1792 89.4359 18.0143 87.3212 15.3484 84.6553C12.6825 81.9893 10.5678 78.8244 9.12505 75.3412C7.68232 71.858 6.93982 68.1248 6.93994 64.3546V48.0864C6.93994 47.7093 7.01423 47.3359 7.15856 46.9876C7.3029 46.6392 7.51445 46.3227 7.78113 46.0561C8.04782 45.7895 8.36441 45.578 8.71283 45.4338C9.06125 45.2896 9.43467 45.2154 9.81176 45.2155H71.0545C71.8159 45.2155 72.5461 45.518 73.0845 46.0564C73.6229 46.5948 73.9263 47.325 73.9263 48.0864Z" stroke="#EF6BAA" stroke-width="8" stroke-linecap="round" stroke-linejoin="round"/>
</svg>
