<svg width="100" height="100" viewBox="0 0 100 100" fill="none" xmlns="http://www.w3.org/2000/svg">
<path d="M29.1666 39.4167H33.1666V35.4167V27.0833C33.1666 22.6189 34.9401 18.3372 38.097 15.1804C41.2539 12.0235 45.5355 10.25 50 10.25C54.4644 10.25 58.7461 12.0235 61.9029 15.1804C65.0598 18.3372 66.8333 22.6189 66.8333 27.0833V35.4167V39.4167H70.8333H75C76.1492 39.4167 77.2514 39.8732 78.0641 40.6859C78.8767 41.4985 79.3333 42.6007 79.3333 43.75V85.4167C79.3333 86.5659 78.8767 87.6681 78.0641 88.4808C77.2514 89.2935 76.1492 89.75 75 89.75H25C23.8507 89.75 22.7485 89.2934 21.9358 88.4808C21.1232 87.6681 20.6666 86.5659 20.6666 85.4167V43.75C20.6666 42.6007 21.1232 41.4985 21.9358 40.6859C22.7485 39.8732 23.8507 39.4167 25 39.4167H29.1666ZM33.5 35.4167V39.4167H37.5H62.5H66.5V35.4167V27.0833C66.5 22.7073 64.7616 18.5104 61.6672 15.4161C58.5729 12.3217 54.376 10.5833 50 10.5833C45.6239 10.5833 41.427 12.3217 38.3327 15.4161C35.2383 18.5104 33.5 22.7073 33.5 27.0833V35.4167ZM50 76.9167C53.271 76.9167 56.408 75.6173 58.7209 73.3043C61.0339 70.9914 62.3333 67.8543 62.3333 64.5833C62.3333 61.3123 61.0339 58.1753 58.7209 55.8624C56.408 53.5494 53.271 52.25 50 52.25C46.729 52.25 43.5919 53.5494 41.279 55.8624C38.966 58.1753 37.6666 61.3123 37.6666 64.5833C37.6666 67.8543 38.966 70.9914 41.279 73.3043C43.5919 75.6173 46.7289 76.9167 50 76.9167Z" stroke="#FFE801" stroke-width="8"/>
</svg>
