<svg width="100" height="100" viewBox="0 0 100 100" fill="none" xmlns="http://www.w3.org/2000/svg">
<path d="M53.2791 57.2481C59.0932 57.2481 63.8064 52.5349 63.8064 46.7209C63.8064 40.9068 59.0932 36.1936 53.2791 36.1936C47.4651 36.1936 42.7518 40.9068 42.7518 46.7209C42.7518 52.5349 47.4651 57.2481 53.2791 57.2481Z" stroke="white" stroke-width="8" stroke-linecap="round" stroke-linejoin="round"/>
<path d="M42.7191 21.6727C23.0545 21.6727 7.11182 37.6164 7.11182 57.2818C7.11182 76.9473 23.0536 92.8891 42.7191 92.8891C62.3845 92.8891 78.3264 76.9473 78.3264 57.2818C78.3264 37.6164 62.3845 21.6745 42.7191 21.6745M82.4155 7.11182C76.6318 7.11182 71.9427 11.8009 71.9427 17.5845C71.9427 23.3682 76.6318 28.0573 82.4155 28.0573C88.1991 28.0573 92.8882 23.3682 92.8882 17.5845C92.8882 11.8009 88.1991 7.11182 82.4155 7.11182Z" stroke="#5DD8E5" stroke-width="8"/>
</svg>
