<svg width="100" height="100" viewBox="0 0 100 100" fill="none" xmlns="http://www.w3.org/2000/svg">
<path fill-rule="evenodd" clip-rule="evenodd" d="M11.0991 25.4855C11.0991 25.2014 11.3414 24.3719 12.2385 23.4748C13.1355 22.5777 13.9651 22.3354 14.2491 22.3354H85.7509C86.035 22.3354 86.8645 22.5777 87.7616 23.4748C88.6587 24.3719 88.9009 25.2014 88.9009 25.4855V74.5145C88.9009 74.7986 88.6587 75.6281 87.7616 76.5252C86.8645 77.4223 86.035 77.6645 85.7509 77.6645H14.2491C13.9651 77.6645 13.1355 77.4223 12.2385 76.5252C11.3414 75.6281 11.0991 74.7986 11.0991 74.5145V25.4855ZM14.2491 14.3354C11.1623 14.3354 8.41679 15.9827 6.5816 17.8179C4.74642 19.6531 3.09912 22.3986 3.09912 25.4855V74.5145C3.09912 77.6014 4.74642 80.3469 6.5816 82.1821C8.41679 84.0173 11.1623 85.6645 14.2491 85.6645H85.7509C88.8378 85.6645 91.5833 84.0173 93.4185 82.1821C95.2536 80.3469 96.9009 77.6014 96.9009 74.5145V25.4855C96.9009 22.3986 95.2536 19.6531 93.4185 17.8179C91.5833 15.9827 88.8378 14.3354 85.7509 14.3354H14.2491ZM24.8863 33.739C23.9947 32.1538 22.1458 31.3697 20.3864 31.8306C18.627 32.2914 17.4 33.8812 17.4 35.7V65.3218C17.4 67.531 19.1909 69.3218 21.4 69.3218C23.6092 69.3218 25.4 67.531 25.4 65.3218V50.9704L31.7028 62.1756C32.4113 63.4351 33.744 64.2146 35.1891 64.2146C36.6342 64.2146 37.967 63.4351 38.6754 62.1756L44.9782 50.9704V65.3218C44.9782 67.531 46.7691 69.3218 48.9782 69.3218C51.1873 69.3218 52.9782 67.531 52.9782 65.3218V35.7C52.9782 33.8812 51.7512 32.2914 49.9918 31.8306C48.2324 31.3697 46.3835 32.1538 45.4919 33.739L35.1891 52.0555L24.8863 33.739ZM70.4291 31.7C72.6382 31.7 74.4291 33.4909 74.4291 35.7V55.6646L79.8579 50.2353C81.4199 48.6732 83.9526 48.6731 85.5147 50.2351C87.0769 51.7972 87.077 54.3298 85.515 55.892L73.2577 68.1502C73.1884 68.2194 73.1169 68.2859 73.0433 68.3494C72.3585 68.9412 71.4708 69.3046 70.4987 69.3212C70.4755 69.3216 70.4523 69.3218 70.4292 69.3218C70.4059 69.3218 70.3827 69.3216 70.3596 69.3212C69.276 69.3028 68.2974 68.8534 67.5877 68.1372L55.3433 55.892C53.7813 54.3298 53.7814 51.7972 55.3436 50.2351C56.9057 48.6731 59.4384 48.6732 61.0004 50.2353L66.4291 55.6644V35.7C66.4291 33.4909 68.2199 31.7 70.4291 31.7Z" fill="#5DD8E5"/>
</svg>
