<svg width="100" height="100" viewBox="0 0 100 100" fill="none" xmlns="http://www.w3.org/2000/svg">
<path d="M74.5955 40.0955V38.9909C74.5955 34.1309 70.6527 30.1891 65.7927 30.1891H58.0864C52.6155 30.1873 48.1791 34.6227 48.1791 40.0946C48.1791 45.5655 52.6155 50.0009 58.0864 49.9991H64.69C70.1591 50.0009 74.5918 54.4355 74.5918 59.9036C74.5918 65.3736 70.1591 69.8073 64.69 69.8091H58.0864C52.6164 69.81 48.1818 65.3755 48.1818 59.9046M36.7936 30.07V61.6482C36.7933 64.1013 36.1098 66.5059 34.8199 68.5924C33.5299 70.679 31.6843 72.3651 29.49 73.4618L23.5864 76.4136M10.38 69.8091V30.19L50 7.07819L89.62 30.1909V69.8109L50 92.9218L10.38 69.8091Z" stroke="#EF6BAA" stroke-width="8" stroke-linecap="round" stroke-linejoin="round"/>
</svg>
