<svg width="100" height="100" viewBox="0 0 100 100" fill="none" xmlns="http://www.w3.org/2000/svg">
<path d="M50 7.14185C44.2828 7.14185 42.2537 15.8764 36.6073 17.8564C30.9609 19.8373 22.2764 13.4373 17.8564 17.8564C13.4373 22.2764 19.8373 30.9609 17.8564 36.6073C15.8764 42.2528 7.14185 44.2818 7.14185 50C7.14185 55.7182 15.8764 57.7464 17.8564 63.3928C19.8373 69.0391 13.4382 77.7218 17.8564 82.1437C22.2746 86.5646 30.9618 80.1782 36.6073 82.1591C42.2518 84.1391 44.2846 92.8591 50 92.8582C55.7155 92.8564 57.7464 84.1237 63.3928 82.1437C69.0391 80.1628 77.7218 86.5618 82.1437 82.1437C86.5646 77.7255 80.1782 69.0382 82.1591 63.3928C84.1391 57.7482 92.8591 55.7155 92.8582 50C92.8564 44.2846 84.1237 42.2537 82.1437 36.6073C80.1628 30.9609 86.5628 22.2764 82.1437 17.8564C77.7237 13.4373 69.0391 19.8373 63.3928 17.8564C57.7473 15.8764 55.7182 7.14185 50 7.14185Z" stroke="#EF6BAA" stroke-width="8" stroke-linecap="round" stroke-linejoin="round"/>
<path d="M50 66.0719C58.8763 66.0719 66.0719 58.8763 66.0719 50C66.0719 41.1238 58.8763 33.9282 50 33.9282C41.1238 33.9282 33.9282 41.1238 33.9282 50C33.9282 58.8763 41.1238 66.0719 50 66.0719Z" stroke="white" stroke-width="8" stroke-linecap="round" stroke-linejoin="round"/>
</svg>
