<svg width="100" height="100" viewBox="0 0 100 100" fill="none" xmlns="http://www.w3.org/2000/svg">
<path d="M50 72.3336C73.7322 72.3336 92.9709 59.7731 92.9709 44.279C92.9709 28.7849 73.7322 16.2245 50 16.2245C26.2678 16.2245 7.02911 28.7849 7.02911 44.279C7.02911 59.7731 26.2678 72.3336 50 72.3336Z" stroke="white" stroke-width="8" stroke-linecap="round" stroke-linejoin="round"/>
<path fill-rule="evenodd" clip-rule="evenodd" d="M44.7136 29.2954C42.5045 29.2954 40.7136 31.0863 40.7136 33.2954V83.7754C40.7136 85.9845 42.5045 87.7754 44.7136 87.7754C46.9228 87.7754 48.7136 85.9845 48.7136 83.7754V59.6336H64.7857C64.7956 59.6336 64.8055 59.6336 64.8154 59.6336H64.9111C65.2568 59.6439 65.872 59.8067 66.5747 60.2728C67.3229 60.7691 67.723 61.3126 67.8284 61.5448L67.8428 61.5763L78.9319 85.4599C79.8622 87.4636 82.2407 88.3338 84.2444 87.4035C86.2481 86.4731 87.1183 84.0947 86.188 82.091L75.105 58.2206C75.0258 58.0471 74.9409 57.8762 74.8506 57.7081C76.1411 56.9671 77.2627 56.022 78.2029 54.8894C80.6285 51.9678 81.4173 48.3146 81.4173 45.1072C81.4173 37.4051 75.2356 29.2954 65.6045 29.2954H44.7136ZM64.9774 51.6336H66.89C69.8882 51.6336 71.2996 50.6804 72.0477 49.7793C72.9047 48.7471 73.4173 47.1372 73.4173 45.1072C73.4173 41.2239 70.2407 37.2954 65.6045 37.2954H48.7136V51.6336H64.7781C64.8447 51.6329 64.9111 51.6329 64.9774 51.6336Z" fill="#5DD8E5"/>
</svg>
