<svg width="100" height="100" viewBox="0 0 100 100" fill="none" xmlns="http://www.w3.org/2000/svg">
<mask id="path-1-inside-1_323_424" fill="white">
<path fill-rule="evenodd" clip-rule="evenodd" d="M18.2174 50C18.2174 41.587 21.5826 33.473 27.5278 27.5278C33.473 21.5826 41.587 18.2174 50 18.2174C58.413 18.2174 66.527 21.5826 72.4722 27.5278C78.4174 33.473 81.7826 41.587 81.7826 50C81.7826 58.413 78.4174 66.527 72.4722 72.4722C66.527 78.4174 58.413 81.7826 50 81.7826C41.587 81.7826 33.473 78.4174 27.5278 72.4722C21.5826 66.527 18.2174 58.413 18.2174 50ZM7 50C7 38.5957 11.5243 27.64 19.6009 19.6009C27.64 11.5243 38.5957 7 50 7C61.4043 7 72.36 11.5243 80.3991 19.6009C88.4757 27.64 93 38.5957 93 50C93 61.4043 88.4757 72.36 80.3991 80.3991C72.36 88.4757 61.4043 93 50 93C38.5957 93 27.64 88.4757 19.6009 80.3991C11.5243 72.36 7 61.4043 7 50Z"/>
</mask>
<path d="M72.4722 27.5278L63.0464 36.9536L63.0464 36.9536L72.4722 27.5278ZM72.4722 72.4722L63.0464 63.0464L63.0464 63.0464L72.4722 72.4722ZM27.5278 72.4722L36.9536 63.0464L36.9536 63.0464L27.5278 72.4722ZM19.6009 19.6009L29.0047 29.0484L29.0266 29.0266L29.0484 29.0047L19.6009 19.6009ZM80.3991 19.6009L70.9516 29.0047L70.9734 29.0266L70.9953 29.0484L80.3991 19.6009ZM80.3991 80.3991L70.9953 70.9516L70.9734 70.9734L70.9516 70.9953L80.3991 80.3991ZM19.6009 80.3991L29.0484 70.9953L29.0266 70.9734L29.0047 70.9516L19.6009 80.3991ZM31.5474 50C31.5474 45.1258 33.5057 40.4014 36.9536 36.9536L18.1021 18.1021C9.65948 26.5447 4.88739 38.0481 4.88739 50H31.5474ZM36.9536 36.9536C40.4014 33.5057 45.1258 31.5474 50 31.5474V4.88739C38.0481 4.88739 26.5447 9.65948 18.1021 18.1021L36.9536 36.9536ZM50 31.5474C54.8742 31.5474 59.5986 33.5057 63.0464 36.9536L81.8979 18.1021C73.4553 9.65948 61.9519 4.88739 50 4.88739V31.5474ZM63.0464 36.9536C66.4943 40.4014 68.4526 45.1258 68.4526 50H95.1126C95.1126 38.0481 90.3405 26.5447 81.8979 18.1021L63.0464 36.9536ZM68.4526 50C68.4526 54.8742 66.4943 59.5986 63.0464 63.0464L81.8979 81.8979C90.3405 73.4553 95.1126 61.9519 95.1126 50H68.4526ZM63.0464 63.0464C59.5986 66.4943 54.8742 68.4526 50 68.4526V95.1126C61.9519 95.1126 73.4553 90.3405 81.8979 81.8979L63.0464 63.0464ZM50 68.4526C45.1258 68.4526 40.4014 66.4943 36.9536 63.0464L18.1021 81.8979C26.5447 90.3405 38.0481 95.1126 50 95.1126V68.4526ZM36.9536 63.0464C33.5057 59.5986 31.5474 54.8742 31.5474 50H4.88739C4.88739 61.9519 9.65948 73.4553 18.1021 81.8979L36.9536 63.0464ZM20.33 50C20.33 42.1176 23.4585 34.569 29.0047 29.0484L10.197 10.1533C-0.409807 20.711 -6.33 35.0738 -6.33 50H20.33ZM29.0484 29.0047C34.569 23.4585 42.1176 20.33 50 20.33V-6.33C35.0738 -6.33 20.711 -0.409807 10.1533 10.197L29.0484 29.0047ZM50 20.33C57.8824 20.33 65.431 23.4585 70.9516 29.0047L89.8467 10.197C79.289 -0.409807 64.9262 -6.33 50 -6.33V20.33ZM70.9953 29.0484C76.5415 34.569 79.67 42.1176 79.67 50H106.33C106.33 35.0738 100.41 20.711 89.803 10.1533L70.9953 29.0484ZM79.67 50C79.67 57.8824 76.5415 65.431 70.9953 70.9516L89.803 89.8467C100.41 79.289 106.33 64.9262 106.33 50H79.67ZM70.9516 70.9953C65.431 76.5415 57.8824 79.67 50 79.67V106.33C64.9262 106.33 79.289 100.41 89.8467 89.803L70.9516 70.9953ZM50 79.67C42.1176 79.67 34.569 76.5415 29.0484 70.9953L10.1533 89.803C20.711 100.41 35.0738 106.33 50 106.33V79.67ZM29.0047 70.9516C23.4585 65.431 20.33 57.8824 20.33 50H-6.33C-6.33 64.9262 -0.409807 79.289 10.197 89.8467L29.0047 70.9516Z" fill="#FFE801" mask="url(#path-1-inside-1_323_424)"/>
<path d="M50 48V69.8916" stroke="white" stroke-width="10" stroke-linecap="round" stroke-linejoin="round"/>
<path d="M50 32H50.0398" stroke="white" stroke-width="13" stroke-linecap="round" stroke-linejoin="round"/>
</svg>
