<svg width="100" height="100" viewBox="0 0 100 100" fill="none" xmlns="http://www.w3.org/2000/svg">
<path fill-rule="evenodd" clip-rule="evenodd" d="M50.3764 10.7404C50.3764 8.44866 48.5185 6.59082 46.2268 6.59082C43.935 6.59082 42.0772 8.44866 42.0772 10.7404V18.4836H12.5286C10.2368 18.4836 8.379 20.3415 8.379 22.6332V46.4187C8.379 48.7105 10.2368 50.5683 12.5286 50.5683H42.0772V85.878H36.3142C34.0225 85.878 32.1646 87.7358 32.1646 90.0276C32.1646 92.3193 34.0225 94.1772 36.3142 94.1772H56.1377C58.4294 94.1772 60.2873 92.3193 60.2873 90.0276C60.2873 87.7358 58.4294 85.878 56.1377 85.878H50.3764V50.5683H75.9577C77.0582 50.5683 78.1137 50.1311 78.8919 49.3529L90.7846 37.4602C92.4051 35.8397 92.4051 33.2123 90.7846 31.5918L78.8919 19.699C78.1137 18.9208 77.0582 18.4836 75.9577 18.4836H50.3764V10.7404ZM16.6782 42.2691V26.7828H74.2389L81.982 34.526L74.2389 42.2691H16.6782Z" fill="#5DD8E5"/>
</svg>
