<svg width="100" height="100" viewBox="0 0 100 100" fill="none" xmlns="http://www.w3.org/2000/svg">
<path fill-rule="evenodd" clip-rule="evenodd" d="M22.0544 29.2528C22.0544 14.2362 34.2278 2.06287 49.2444 2.06287H51.2236C65.9818 2.06287 77.9457 14.0268 77.9457 28.785V29.1797C77.9457 30.8809 76.5667 32.2599 74.8655 32.2599H25.0615C23.4007 32.2599 22.0544 30.9136 22.0544 29.2528ZM26.8848 25.3894C26.6665 26.6619 27.6991 27.7572 28.9901 27.7572H71.0813C72.3551 27.7572 73.3821 26.6898 73.1914 25.4303C71.5741 14.7506 62.3547 6.56564 51.2236 6.56564H49.2444C38.0316 6.56564 28.7187 14.6999 26.8848 25.3894ZM12.0001 44.5314C12.0001 38.9691 16.5092 34.46 22.0715 34.46H77.9286C83.4909 34.46 88 38.9691 88 44.5314V54.5857C88 60.1479 83.4909 64.6571 77.9286 64.6571H22.0715C16.5092 64.6571 12.0001 60.148 12.0001 54.5857V44.5314ZM22.0715 38.9628C18.996 38.9628 16.5029 41.4559 16.5029 44.5314V54.5857C16.5029 57.6611 18.996 60.1543 22.0715 60.1543H77.9286C81.0041 60.1543 83.4973 57.6611 83.4973 54.5857V44.5314C83.4973 41.4559 81.0041 38.9628 77.9286 38.9628H22.0715ZM23.6134 49.7816C23.6134 47.6197 25.4058 45.8272 27.5679 45.8272H72.4102C74.5938 45.8272 76.3647 47.6204 76.3647 49.7816C76.3647 51.942 74.6162 53.7361 72.4324 53.7361H27.5679C25.3841 53.7361 23.6134 51.9429 23.6134 49.7816ZM26.5572 82.5143V70.2257C26.5572 68.9917 25.5398 67.9914 24.3058 67.9914C23.0718 67.9914 22.0544 68.9917 22.0544 70.2257V82.5143C22.0544 89.9275 28.064 95.9371 35.4772 95.9371H64.5229C71.9362 95.9371 77.9457 89.9275 77.9457 82.5143V70.2257C77.9457 68.9917 76.9283 67.9914 75.6944 67.9914C74.4604 67.9914 73.443 68.9917 73.443 70.2257V82.5143C73.443 87.4407 69.4493 91.4343 64.5229 91.4343H35.4772C30.5508 91.4343 26.5572 87.4407 26.5572 82.5143ZM41.0629 73.5771H40.6002C40.0076 73.5771 39.4393 73.8125 39.0203 74.2315L38.6931 74.5587L36.4588 76.793C35.15 78.1018 35.15 80.2238 36.4588 81.5326C37.7676 82.8415 39.8897 82.8415 41.1985 81.5326L41.7967 80.9344C42.2157 80.5154 42.784 80.28 43.3766 80.28H57.0753C57.5588 80.28 58.0291 80.4368 58.4159 80.7268L59.1607 81.2854C60.6414 82.396 62.7421 82.0959 63.8527 80.6151C64.9632 79.1344 64.6631 77.0337 63.1824 75.9231L60.9481 74.2474L60.6502 74.024C60.2634 73.7339 59.793 73.5771 59.3096 73.5771H58.9372H41.0629Z" fill="#EF6BAA"/>
</svg>
