<svg width="100" height="100" viewBox="0 0 100 100" fill="none" xmlns="http://www.w3.org/2000/svg">
<path d="M10.2953 45.626L45.4542 11.0514C45.48 11.026 45.5291 11 45.594 11L89.8359 11C89.8755 11 89.9017 11.0072 89.9206 11.0151C89.9419 11.024 89.9609 11.0368 89.9757 11.0514C89.9905 11.066 89.9966 11.0775 89.9982 11.0815L89.9984 11.0818C89.9989 11.0829 90 11.0851 90 11.0949L90 89.1761C90 89.1859 89.9989 89.1881 89.9984 89.1893L89.9982 89.1896C89.9965 89.1935 89.9905 89.2051 89.9757 89.2196C89.9609 89.2342 89.9419 89.2471 89.9206 89.256C89.9017 89.2638 89.8755 89.271 89.8359 89.271L10.4352 89.271C10.3956 89.271 10.3694 89.2638 10.3505 89.256C10.3291 89.2471 10.3102 89.2342 10.2953 89.2196C10.2805 89.2051 10.2745 89.1935 10.2728 89.1896L10.2727 89.1893C10.2721 89.1882 10.2711 89.1859 10.2711 89.1761L10.2711 45.6695C10.2711 45.6663 10.2715 45.6619 10.2744 45.6552C10.2772 45.6484 10.2831 45.638 10.2953 45.626Z" stroke="#FFE801" stroke-width="8"/>
<path d="M57.9294 73.0893H30.5342L30.5342 46.2824H32.0637L32.0637 64.647C32.0637 68.6152 35.3163 71.7182 39.1868 71.7182H57.9294V73.0893Z" stroke="#EF6BAA" stroke-width="8"/>
<path d="M46.5809 30.5023L73.976 30.5023V57.3092H72.4465V38.9446C72.4465 34.9764 69.194 31.8734 65.3234 31.8734L46.5809 31.8734V30.5023Z" stroke="#EF6BAA" stroke-width="8"/>
</svg>
