<svg width="100" height="100" viewBox="0 0 100 100" fill="none" xmlns="http://www.w3.org/2000/svg">
<path d="M41.9663 39.2691C53.8945 46.3491 63.6118 44.2118 73.2372 37.9318C82.8627 31.6509 90.7045 19.5073 81.6281 10.4373C77.089 5.90182 60.5672 5.14637 45.2645 11.6827C29.9609 18.22 15.5427 31.7164 14.5409 38.9636C12.5363 53.4582 34.9636 58.0746 38.1199 67.0291C41.2754 75.9836 39.9236 80.1245 36.7818 85.7582C33.6399 91.3927 24.1136 96.5391 18.7218 90.2736C13.329 84.0091 29.5054 72.0273 37.9527 68.7009C46.399 65.3755 58.1109 66.0964 61.8663 70.3736C65.6209 74.6509 61.4527 82.2464 61.699 82.2464" stroke="#EF6BAA" stroke-width="8" stroke-linecap="round" stroke-linejoin="round"/>
</svg>
