<svg width="100" height="100" viewBox="0 0 100 100" fill="none" xmlns="http://www.w3.org/2000/svg">
<path d="M56.1554 56.7909C56.1554 56.7909 56.1536 56.7327 55.56 56.1964C55.015 55.7043 54.3951 55.3023 53.7236 55.0055C53.1009 54.7273 52.5272 54.61 51.8872 54.5091C51.2472 54.4073 50.9409 54.4545 50.2 54.4964C49.459 54.5382 48.5672 54.6364 47.9545 54.9427C47.3409 55.2491 46.6472 55.6109 46.2545 55.9854C45.8609 56.3591 45.6054 56.7227 45.3363 57.1891C45.0586 57.6733 44.8418 58.1899 44.6909 58.7273C44.5527 59.2373 44.4954 59.5654 44.4927 60.2164C44.4899 60.8664 44.569 61.8955 44.79 62.5982C45.0118 63.3009 45.3609 63.8709 45.7336 64.3854C46.1054 64.9 46.5518 65.3764 46.9736 65.6754C47.3954 65.9754 47.6009 66.1254 48.2145 66.42C48.829 66.7136 49.8027 67.04 50.6463 67.4618C51.4899 67.8836 52.459 68.3364 53.2281 68.7527C53.9954 69.1691 54.7118 69.5445 55.2618 69.9436C55.8127 70.3427 56.1609 70.6527 56.5527 71.0854C56.9436 71.5173 57.329 72.0127 57.5945 72.5245C57.8599 73.0355 58.0345 73.3954 58.1581 74.0945C58.2199 74.4445 58.2472 74.9318 58.2518 75.4109C58.2554 75.89 58.2372 76.3609 58.2081 76.6755C58.149 77.3064 58.0972 77.3664 57.9418 77.8845C57.7872 78.4027 57.4172 79.2327 57.0218 79.77C56.6272 80.3082 56.2172 80.6609 55.659 81.0109C55.0999 81.3633 54.5 81.6466 53.8727 81.8545C53.2863 82.0409 52.8645 82.0864 52.1854 82.1527C51.5054 82.2191 50.6281 82.2818 49.8036 82.2018C48.9427 82.1102 48.094 81.9273 47.2718 81.6564C46.5509 81.4118 46.0118 81.1754 45.4854 80.8127C44.9581 80.4491 44.739 80.2855 44.4427 79.9436C44.049 79.4891 43.4999 78.4054 43.4999 78.4054M27.2518 54.8609V82.3009M18.1999 54.4755H36.2363M66.9827 82.2882L82.1418 54.6354M82.1418 82.2882L66.9818 54.6354M19.6972 7.32909L80.3027 7.28454C86.2554 7.28 92.9299 13.9591 92.9299 19.9109V80.5173C92.9299 86.3691 86.1554 92.7154 80.3027 92.7154H19.6972C13.8445 92.7154 7.06995 86.3691 7.06995 80.5173V19.9109C7.06995 13.9691 13.7554 7.33363 19.6972 7.32909Z" stroke="#5DD8E5" stroke-width="8" stroke-linecap="round" stroke-linejoin="round"/>
</svg>
