<svg width="100" height="100" viewBox="0 0 100 100" fill="none" xmlns="http://www.w3.org/2000/svg">
<path d="M80.3027 7.28454L19.6972 7.32909C13.7554 7.33363 7.06995 13.9691 7.06995 19.9109V80.5173C7.06995 86.3691 13.8445 92.7154 19.6972 92.7154H80.3027C86.1554 92.7154 92.9299 86.3691 92.9299 80.5173V19.9109C92.9299 13.9591 86.2554 7.28 80.3027 7.28454Z" stroke="#5DD8E5" stroke-width="8" stroke-linecap="round" stroke-linejoin="round"/>
<path d="M80.3027 7.28454L19.6972 7.32909C13.7554 7.33363 7.06995 13.9691 7.06995 19.9109V80.5173C7.06995 86.3691 13.8445 92.7154 19.6972 92.7154H80.3027C86.1554 92.7154 92.9299 86.3691 92.9299 80.5173V19.9109C92.9299 13.9591 86.2554 7.28 80.3027 7.28454Z" stroke="#5DD8E5" stroke-width="8" stroke-linecap="round" stroke-linejoin="round"/>
<path d="M55.6373 57.3397C55.6373 57.3397 55.6355 57.2806 55.0427 56.7451C54.4986 56.2538 53.8796 55.8524 53.2091 55.5561C52.5873 55.2788 52.0145 55.1615 51.3755 55.0606C50.7364 54.9597 50.43 55.0061 49.6909 55.0479C48.9509 55.0897 48.0609 55.1888 47.4482 55.4933C46.8355 55.7997 46.1436 56.1615 45.7509 56.5351C45.3582 56.9079 45.1027 57.2715 44.8336 57.737C44.5566 58.2206 44.3404 58.7366 44.19 59.2733C44.0518 59.7824 43.9945 60.1097 43.9918 60.7597C43.9891 61.4088 44.0682 62.4361 44.2891 63.1379C44.51 63.8397 44.8591 64.4079 45.2309 64.9224C45.6018 65.4361 46.0491 65.9124 46.4691 66.2106C46.89 66.5097 47.0955 66.6606 47.7082 66.9542C48.3209 67.2479 49.2936 67.5733 50.1364 67.9951C50.9791 68.4161 51.9455 68.8679 52.7136 69.2833C53.4809 69.6988 54.1955 70.0742 54.7455 70.4724C55.2955 70.8706 55.6427 71.1815 56.0336 71.6124C56.4245 72.0433 56.8091 72.5397 57.0745 73.0488C57.3391 73.5597 57.5136 73.9197 57.6373 74.6179C57.6991 74.967 57.7264 75.4542 57.73 75.9324C57.7345 76.4106 57.7164 76.8797 57.6864 77.1942C57.6282 77.8242 57.5764 77.8851 57.4209 78.4015C57.2664 78.9188 56.8973 79.7479 56.5027 80.2851C56.1082 80.8215 55.6991 81.1742 55.1418 81.5233C54.5832 81.8754 53.984 82.1583 53.3573 82.3661C52.7727 82.5524 52.3509 82.597 51.6727 82.6633C50.9945 82.7297 50.1182 82.7924 49.2936 82.7133C48.4343 82.6215 47.5871 82.4386 46.7664 82.1679C46.0473 81.9242 45.5082 81.6879 44.9827 81.3252C44.4573 80.9633 44.2373 80.7997 43.9418 80.4579C43.5491 80.0033 43 78.9215 43 78.9215" stroke="white" stroke-width="8" stroke-linecap="round" stroke-linejoin="round"/>
<path d="M66 82.1864L80.9027 55ZM80.9027 82.1864L66.0009 55Z" fill="#5DD8E5"/>
<path d="M66 82.1864L80.9027 55M80.9027 82.1864L66.0009 55" stroke="white" stroke-width="8" stroke-linecap="round" stroke-linejoin="round"/>
<path d="M27.3334 57.5455C27.3334 57.5455 27.3334 74.3662 27.3334 83" stroke="white" stroke-width="6.78788" stroke-linecap="round" stroke-linejoin="round"/>
<path d="M36.1067 55C36.1067 55 24.1415 55.0424 18 55" stroke="white" stroke-width="6.78788" stroke-linecap="round" stroke-linejoin="round"/>
</svg>
