<svg width="100" height="100" viewBox="0 0 100 100" fill="none" xmlns="http://www.w3.org/2000/svg">
<path d="M80.2327 7L19.6273 7.04455C13.6855 7.04909 7 13.6845 7 19.6264V80.2327C7 86.0845 13.7745 92.4309 19.6273 92.4309H80.2327C86.0855 92.4309 92.86 86.0845 92.86 80.2327V19.6264C92.86 13.6745 86.1855 6.99546 80.2327 7Z" stroke="#5DD8E5" stroke-width="8" stroke-linecap="round" stroke-linejoin="round"/>
<path d="M79.5673 57.0551C79.5673 57.0551 79.5655 56.9961 78.9728 56.4606C78.4287 55.9693 77.8097 55.5679 77.1391 55.2715C76.5173 54.9942 75.9446 54.877 75.3055 54.7761C74.6664 54.6751 74.3601 54.7215 73.621 54.7633C72.881 54.8051 71.991 54.9042 71.3782 55.2088C70.7655 55.5151 70.0737 55.877 69.681 56.2506C69.2882 56.6233 69.0328 56.987 68.7637 57.4524C68.4867 57.9361 68.2705 58.4521 68.1201 58.9888C67.9819 59.4979 67.9246 59.8251 67.9219 60.4751C67.9191 61.1242 67.9982 62.1515 68.2191 62.8533C68.4401 63.5551 68.7891 64.1233 69.161 64.6379C69.5319 65.1515 69.9791 65.6279 70.3991 65.9261C70.8201 66.2251 71.0255 66.3761 71.6382 66.6697C72.251 66.9633 73.2237 67.2888 74.0664 67.7106C74.9091 68.1315 75.8755 68.5833 76.6437 68.9988C77.411 69.4142 78.1255 69.7897 78.6755 70.1879C79.2255 70.5861 79.5728 70.897 79.9637 71.3279C80.3546 71.7588 80.7391 72.2551 81.0046 72.7642C81.2691 73.2751 81.4437 73.6351 81.5673 74.3333C81.6291 74.6824 81.6564 75.1697 81.6601 75.6479C81.6646 76.1261 81.6464 76.5951 81.6164 76.9097C81.5582 77.5397 81.5064 77.6006 81.351 78.117C81.1964 78.6342 80.8273 79.4633 80.4328 80.0006C80.0382 80.537 79.6291 80.8897 79.0719 81.2388C78.5133 81.5908 77.9141 81.8738 77.2873 82.0815C76.7028 82.2679 76.281 82.3124 75.6028 82.3788C74.9246 82.4452 74.0482 82.5079 73.2237 82.4288C72.3643 82.337 71.5172 82.1541 70.6964 81.8833C69.9773 81.6397 69.4382 81.4033 68.9128 81.0406C68.3873 80.6788 68.1673 80.5151 67.8719 80.1733C67.4791 79.7188 66.9301 78.637 66.9301 78.637" stroke="white" stroke-width="8" stroke-linecap="round" stroke-linejoin="round"/>
<path d="M51.2634 57.2609C51.2634 57.2609 51.2634 74.0817 51.2634 82.7155" stroke="white" stroke-width="6.78788" stroke-linecap="round" stroke-linejoin="round"/>
<path d="M60.0367 54.7155C60.0367 54.7155 48.0716 54.7579 41.9301 54.7155" stroke="white" stroke-width="6.78788" stroke-linecap="round" stroke-linejoin="round"/>
</svg>
