<svg width="100" height="100" viewBox="0 0 100 100" fill="none" xmlns="http://www.w3.org/2000/svg">
<path fill-rule="evenodd" clip-rule="evenodd" d="M11.4446 10.8182C11.0987 10.8182 10.8182 11.0987 10.8182 11.4446V41.4591C10.8182 41.8051 11.0987 42.0855 11.4446 42.0855H41.2401C41.586 42.0855 41.8664 41.8051 41.8664 41.4591V11.4446C41.8664 11.0987 41.586 10.8182 41.2401 10.8182H11.4446ZM2.81824 11.4446C2.81824 6.68039 6.68039 2.81824 11.4446 2.81824H41.2401C46.0043 2.81824 49.8664 6.68039 49.8664 11.4446V41.4591C49.8664 46.2234 46.0043 50.0855 41.2401 50.0855H30.1864V64.2091C30.1864 66.8815 30.8692 67.9187 31.3462 68.3612C31.8812 68.8577 32.9996 69.391 35.3682 69.391H50.1337V58.5409C50.1337 53.7767 53.9958 49.9146 58.76 49.9146H88.5555C93.3197 49.9146 97.1819 53.7767 97.1819 58.5409V88.5555C97.1819 93.3197 93.3197 97.1818 88.5555 97.1818H58.76C53.9958 97.1818 50.1337 93.3197 50.1337 88.5555V77.391H35.3682C31.9986 77.391 28.5261 76.6579 25.9048 74.2257C23.2254 71.7396 22.1864 68.1859 22.1864 64.2091V50.0855H11.4446C6.68039 50.0855 2.81824 46.2234 2.81824 41.4591V11.4446ZM58.76 57.9146C58.4141 57.9146 58.1337 58.195 58.1337 58.5409V88.5555C58.1337 88.9014 58.4141 89.1818 58.76 89.1818H88.5555C88.9014 89.1818 89.1819 88.9014 89.1819 88.5555V58.5409C89.1819 58.195 88.9014 57.9146 88.5555 57.9146H58.76Z" fill="#FFE801"/>
</svg>
