<svg width="100" height="100" viewBox="0 0 100 100" fill="none" xmlns="http://www.w3.org/2000/svg">
<path d="M91.5582 37.8973C94.4736 47.9828 93.6149 58.7851 89.1428 68.2834C84.6706 77.7817 76.8913 85.3255 67.26 89.5036C57.6288 93.6816 46.8055 94.2078 36.8144 90.9839C26.8234 87.76 18.349 81.0067 12.9764 71.9873C7.60356 62.9678 5.7006 52.2999 7.62345 41.979C9.54631 31.6582 15.1633 22.3913 23.4236 15.9118C31.6841 9.43239 42.0221 6.18421 52.5039 6.77486C62.9858 7.3655 72.8934 11.7545 80.3736 19.1209" stroke="url(#paint0_linear_328_1700)" stroke-width="8" stroke-linecap="round" stroke-linejoin="round"/>
<path d="M81.5164 22.959C82.7716 22.959 83.7891 21.9415 83.7891 20.6863C83.7891 19.4311 82.7716 18.4136 81.5164 18.4136C80.2612 18.4136 79.2437 19.4311 79.2437 20.6863C79.2437 21.9415 80.2612 22.959 81.5164 22.959Z" stroke="url(#paint1_linear_328_1700)" stroke-width="4.54545" stroke-linecap="round" stroke-linejoin="round"/>
<path d="M30.9891 68.6782L50 25.26L69.0109 68.6455" stroke="url(#paint2_linear_328_1700)" stroke-width="8" stroke-linecap="round" stroke-linejoin="round"/>
<path d="M37.5654 55.9399L51.9391 56.0499" stroke="url(#paint3_linear_328_1700)" stroke-width="4.54545" stroke-linecap="round" stroke-linejoin="round"/>
<defs>
<linearGradient id="paint0_linear_328_1700" x1="3.80492" y1="3.89147" x2="96.8111" y2="96.9355" gradientUnits="userSpaceOnUse">
<stop offset="0.0364583" stop-color="#FEFDCD"/>
<stop offset="0.354167" stop-color="#FFFA2E"/>
<stop offset="0.682292" stop-color="#D5BE1E"/>
<stop offset="1" stop-color="#B58D34"/>
</linearGradient>
<linearGradient id="paint1_linear_328_1700" x1="79.0811" y1="18.2654" x2="83.9762" y2="23.1625" gradientUnits="userSpaceOnUse">
<stop offset="0.0364583" stop-color="#FEFDCD"/>
<stop offset="0.354167" stop-color="#FFFA2E"/>
<stop offset="0.682292" stop-color="#D5BE1E"/>
<stop offset="1" stop-color="#B58D34"/>
</linearGradient>
<linearGradient id="paint2_linear_328_1700" x1="29.6296" y1="23.8448" x2="75.9808" y2="64.4517" gradientUnits="userSpaceOnUse">
<stop offset="0.0364583" stop-color="#FEFDCD"/>
<stop offset="0.354167" stop-color="#FFFA2E"/>
<stop offset="0.682292" stop-color="#D5BE1E"/>
<stop offset="1" stop-color="#B58D34"/>
</linearGradient>
<linearGradient id="paint3_linear_328_1700" x1="37.0515" y1="55.9364" x2="37.0533" y2="56.1733" gradientUnits="userSpaceOnUse">
<stop offset="0.0364583" stop-color="#FEFDCD"/>
<stop offset="0.354167" stop-color="#FFFA2E"/>
<stop offset="0.682292" stop-color="#D5BE1E"/>
<stop offset="1" stop-color="#B58D34"/>
</linearGradient>
</defs>
</svg>
