<svg width="100" height="100" viewBox="0 0 100 100" fill="none" xmlns="http://www.w3.org/2000/svg">
<path d="M52.1128 23.75C51.5531 23.7502 51.0162 23.5285 50.6198 23.1335C50.2234 22.7385 49.9999 22.2024 49.9982 21.6427C49.9981 19.7009 50.3805 17.7781 51.1235 15.9841C51.8666 14.1901 52.9557 12.56 54.3288 11.1869C55.7018 9.81386 57.3319 8.72471 59.1259 7.98167C60.92 7.23863 62.8428 6.85625 64.7846 6.85637C65.0619 6.85661 65.3364 6.91152 65.5924 7.01796C65.8484 7.1244 66.081 7.28028 66.2767 7.47668C66.4724 7.67308 66.6275 7.90615 66.733 8.16255C66.8386 8.41894 66.8926 8.69364 66.8918 8.97091C66.8885 12.889 65.3301 16.6455 62.559 19.4153C59.788 22.1852 56.0308 23.742 52.1128 23.7436V23.75ZM82.9482 68.2246C83.3433 68.5213 83.6215 68.9475 83.734 69.4287C83.8465 69.9098 83.7862 70.4152 83.5637 70.8564C76.1373 85.7346 70.2018 93.1436 64.7846 93.1436C62.2637 93.1436 59.7864 92.33 57.37 90.74C55.6441 89.6032 53.6326 88.9765 51.5664 88.9318C49.5003 88.8871 47.4635 89.4262 45.69 90.4873C42.7691 92.2373 39.9773 93.1436 37.3328 93.1436C29.3573 93.1436 16.2109 68.6009 16.2109 55.1282C16.2109 40.7555 23.7491 29.7846 35.2191 29.7846C40.6118 29.7846 45.2709 30.5855 49.1855 32.1882C50.0054 32.5293 50.8882 32.6934 51.7759 32.6699C52.6637 32.6464 53.5365 32.4358 54.3373 32.0518C57.5118 30.5246 61.6964 29.7846 66.8982 29.7846C73.2464 29.7846 78.7691 32.9464 83.3673 39.0782C83.704 39.5262 83.849 40.0896 83.7705 40.6445C83.6919 41.1994 83.3961 41.7004 82.9482 42.0373C77.8137 45.8827 75.3418 50.21 75.3418 55.1282C75.3418 60.0527 77.8146 64.3736 82.9482 68.2246Z" stroke="url(#paint0_linear_328_490)" stroke-width="8" stroke-linecap="round" stroke-linejoin="round"/>
<defs>
<linearGradient id="paint0_linear_328_490" x1="13.7946" y1="4.04391" x2="104.02" y2="74.7377" gradientUnits="userSpaceOnUse">
<stop offset="0.0364583" stop-color="#FEFDCD"/>
<stop offset="0.354167" stop-color="#FFFA2E"/>
<stop offset="0.682292" stop-color="#D5BE1E"/>
<stop offset="1" stop-color="#B58D34"/>
</linearGradient>
</defs>
</svg>
