<svg width="100" height="100" viewBox="0 0 100 100" fill="none" xmlns="http://www.w3.org/2000/svg">
<path d="M15.7634 92.5277C11.6876 92.5277 7.1084 87.967 7.1084 83.8922V32.077C7.1084 28.0053 11.6732 23.4405 15.7439 23.4405H67.5601C71.6298 23.4405 76.1956 28.0053 76.1956 32.077V83.8922C76.1956 87.9629 71.6308 92.5277 67.5601 92.5277H15.7634Z" stroke="url(#paint0_linear_328_501)" stroke-width="8"/>
<path d="M9.99615 26.3231L23.9264 12.2565C26.1611 10.0013 29.6055 7.47232 32.7813 7.47232H84.2561C88.2909 7.47232 92.8916 11.9213 92.8916 15.9561V62.9399C92.8916 66.7575 91.1387 70.7718 88.5267 73.556L73.4473 89.6328" stroke="url(#paint1_linear_328_501)" stroke-width="8"/>
<path d="M19.0909 56.3636L36.0736 66.3636L19.0909 76.3636" stroke="url(#paint2_linear_328_501)" stroke-width="8" stroke-linecap="round" stroke-linejoin="round"/>
<defs>
<linearGradient id="paint0_linear_328_501" x1="4.63817" y1="21.1886" x2="79.0389" y2="95.6198" gradientUnits="userSpaceOnUse">
<stop offset="0.0364583" stop-color="#FEFDCD"/>
<stop offset="0.354167" stop-color="#FFFA2E"/>
<stop offset="0.682292" stop-color="#D5BE1E"/>
<stop offset="1" stop-color="#B58D34"/>
</linearGradient>
<linearGradient id="paint1_linear_328_501" x1="7.03221" y1="4.79438" x2="95.5077" y2="94.098" gradientUnits="userSpaceOnUse">
<stop offset="0.0364583" stop-color="#FEFDCD"/>
<stop offset="0.354167" stop-color="#FFFA2E"/>
<stop offset="0.682292" stop-color="#D5BE1E"/>
<stop offset="1" stop-color="#B58D34"/>
</linearGradient>
<linearGradient id="paint2_linear_328_501" x1="18.4837" y1="55.7118" x2="39.7384" y2="73.7674" gradientUnits="userSpaceOnUse">
<stop offset="0.0364583" stop-color="#FEFDCD"/>
<stop offset="0.354167" stop-color="#FFFA2E"/>
<stop offset="0.682292" stop-color="#D5BE1E"/>
<stop offset="1" stop-color="#B58D34"/>
</linearGradient>
</defs>
</svg>
