<svg width="100" height="100" viewBox="0 0 100 100" fill="none" xmlns="http://www.w3.org/2000/svg">
<path d="M53.4964 8.31182L84.3555 26.1273C85.4189 26.7406 86.302 27.6234 86.9158 28.6866C87.5296 29.7498 87.8525 30.956 87.8518 32.1836V67.8164C87.8522 69.044 87.5292 70.25 86.9155 71.3132C86.3017 72.3764 85.4188 73.2592 84.3555 73.8727L53.4964 91.6891C52.4335 92.3032 51.2276 92.6265 50 92.6265C48.7725 92.6265 47.5666 92.3032 46.5037 91.6891L15.6446 73.8727C14.5811 73.2594 13.698 72.3766 13.0842 71.3134C12.4704 70.2502 12.1476 69.044 12.1482 67.8164V32.1836C12.1482 30.9561 12.4713 29.7502 13.085 28.6871C13.6988 27.624 14.5815 26.7411 15.6446 26.1273L46.5037 8.31182C47.5665 7.69763 48.7724 7.37427 50 7.37427C51.2276 7.37427 52.4335 7.69763 53.4964 8.31182Z" stroke="url(#paint0_linear_328_1649)" stroke-width="8" stroke-linecap="round" stroke-linejoin="round"/>
<path d="M47.1454 49.7436H55.7245M51.4345 54.0336V45.4536M64.96 49.7436H73.54M69.25 54.0336V45.4536" stroke="url(#paint1_linear_328_1649)" stroke-width="8" stroke-linecap="round" stroke-linejoin="round"/>
<path d="M66.4818 65.6482C63.3631 68.9331 59.3339 71.2111 54.9113 72.1899C50.4888 73.1688 45.8746 72.8038 41.6609 71.1418C37.447 69.4799 33.8259 66.5967 31.2622 62.8622C28.6985 59.1277 27.3093 54.7124 27.2727 50.1827C27.2363 45.6531 28.5543 41.2158 31.0576 37.4405C33.5609 33.6652 37.1352 30.7241 41.3218 28.9946C45.5083 27.2651 50.1161 26.826 54.5539 27.7338C58.9917 28.6415 63.0571 30.8546 66.2282 34.0891" stroke="url(#paint2_linear_328_1649)" stroke-width="8" stroke-linecap="round" stroke-linejoin="round"/>
<defs>
<linearGradient id="paint0_linear_328_1649" x1="9.44139" y1="4.59555" x2="100.611" y2="85.5868" gradientUnits="userSpaceOnUse">
<stop offset="0.0364583" stop-color="#FEFDCD"/>
<stop offset="0.354167" stop-color="#FFFA2E"/>
<stop offset="0.682292" stop-color="#D5BE1E"/>
<stop offset="1" stop-color="#B58D34"/>
</linearGradient>
<linearGradient id="paint1_linear_328_1649" x1="47.1512" y1="45.4837" x2="55.9222" y2="62.9006" gradientUnits="userSpaceOnUse">
<stop stop-color="white"/>
<stop offset="0.848958" stop-color="#7F787F"/>
<stop offset="0.982609" stop-color="#4B454B"/>
</linearGradient>
<linearGradient id="paint2_linear_328_1649" x1="27.2805" y1="27.432" x2="76.4445" y2="54.8073" gradientUnits="userSpaceOnUse">
<stop stop-color="white"/>
<stop offset="0.848958" stop-color="#7F787F"/>
<stop offset="0.982609" stop-color="#4B454B"/>
</linearGradient>
</defs>
</svg>
