<svg width="100" height="100" viewBox="0 0 100 100" fill="none" xmlns="http://www.w3.org/2000/svg">
<path d="M89.682 60.8347C89.6817 60.8349 89.6814 60.8351 89.6811 60.8354L60.87 89.5885C60.7849 89.6736 60.6682 89.7274 60.5666 89.7262C60.4981 89.7254 60.4337 89.6946 60.3675 89.6768L21.1105 79.1585C21.0004 79.1219 20.9136 79.062 20.8651 78.9936C20.8142 78.9218 20.8104 78.8275 20.7875 78.7425L10.22 39.572C10.1625 39.3995 10.22 39.284 10.335 39.169L39.147 10.415C39.2324 10.3296 39.3497 10.2756 39.4518 10.2773C39.5197 10.2783 39.5836 10.3089 39.6492 10.3264L78.907 20.845C79.017 20.8813 79.1037 20.9414 79.1522 21.01C79.2028 21.0815 79.2065 21.1753 79.2292 21.2598L89.6976 60.2729C89.7257 60.3776 89.7887 60.4736 89.8012 60.5812C89.8123 60.6777 89.7609 60.756 89.6829 60.8341C89.6826 60.8344 89.6823 60.8346 89.682 60.8347ZM51.1261 29.5302C51.0956 29.525 51.0583 29.5492 51.0285 29.5571L12.5357 39.8262C12.4516 39.8486 12.3434 39.8668 12.3293 39.9527C12.3246 39.9813 12.3299 40.0109 12.3515 40.0325L40.6445 68.2675C40.6713 68.2943 40.7107 68.3086 40.7451 68.3046C40.8322 68.2945 40.829 68.1671 40.8518 68.0825L51.1543 29.7335C51.1751 29.6562 51.2049 29.5438 51.1261 29.5302Z" stroke="url(#paint0_linear_328_455)" stroke-width="8"/>
<defs>
<linearGradient id="paint0_linear_328_455" x1="7.35114" y1="7.68765" x2="92.9103" y2="93.4502" gradientUnits="userSpaceOnUse">
<stop offset="0.0364583" stop-color="#FEFDCD"/>
<stop offset="0.354167" stop-color="#FFFA2E"/>
<stop offset="0.682292" stop-color="#D5BE1E"/>
<stop offset="1" stop-color="#B58D34"/>
</linearGradient>
</defs>
</svg>
