<svg width="100" height="100" viewBox="0 0 100 100" fill="none" xmlns="http://www.w3.org/2000/svg">
<path d="M48.0091 57.0409C46.5398 59.5851 44.2738 61.5842 41.5551 62.7347C38.8364 63.8852 35.8135 64.1242 32.9455 63.4154C30.0773 62.7067 27.5207 61.0888 25.6637 58.8075C23.8067 56.5262 22.7508 53.7062 22.6564 50.7754C22.5619 47.8446 23.4341 44.9633 25.1405 42.569C26.8469 40.1747 29.2942 38.3981 32.1109 37.5091C34.9275 36.6199 37.9596 36.6668 40.7468 37.6425C43.5341 38.6182 45.9243 40.4696 47.5546 42.9154M66.6173 64.3536L54.5473 37.5209M49.9782 93.19C52.4191 92.8727 53.4818 92.7009 54.8391 91.7954C55.6718 91.0909 56.4664 89.9291 56.8409 88.9191L78.1482 37.5209M49.7582 93.1864C39.4792 93.1287 29.5579 89.4068 21.7773 82.6894C13.9968 75.972 8.86735 66.6997 7.31091 56.5391C5.75464 46.3784 7.8735 35.9958 13.2866 27.2575C18.6998 18.5191 27.0522 11.998 36.8427 8.86635C46.6331 5.7348 57.2195 6.19794 66.699 10.1725C76.1786 14.1471 83.9296 21.3725 88.5591 30.55C93.1885 39.7277 94.3925 50.2557 91.9548 60.2417C89.5171 70.2277 83.5975 79.0167 75.26 85.0291" stroke="url(#paint0_linear_328_1660)" stroke-width="8" stroke-linecap="round" stroke-linejoin="round"/>
<defs>
<linearGradient id="paint0_linear_328_1660" x1="3.72465" y1="3.99799" x2="96.7445" y2="97.0529" gradientUnits="userSpaceOnUse">
<stop offset="0.0364583" stop-color="#FEFDCD"/>
<stop offset="0.354167" stop-color="#FFFA2E"/>
<stop offset="0.682292" stop-color="#D5BE1E"/>
<stop offset="1" stop-color="#B58D34"/>
</linearGradient>
</defs>
</svg>
