<svg width="100" height="100" viewBox="0 0 100 100" fill="none" xmlns="http://www.w3.org/2000/svg">
<path fill-rule="evenodd" clip-rule="evenodd" d="M50.0664 13.2837C46.9227 13.2837 42.8831 15.4447 39.3787 21.7643L39.3753 21.7704L26.5055 44.8833L26.503 44.8878L12.8462 69.4876L12.8451 69.4895C9.59247 75.3569 9.82093 79.8108 11.4348 82.5602C13.0466 85.306 16.816 87.6724 23.5336 87.6724H50.0664C50.2682 87.6724 50.4665 87.6874 50.6603 87.7162H76.599C83.2906 87.7162 87.0648 85.3523 88.6833 82.6008C90.3023 79.8485 90.5371 75.3952 87.2875 69.5332L87.2872 69.5326L87.2865 69.5314L73.6281 44.9288L73.6272 44.9271L60.7558 21.7676L60.754 21.7643C57.2497 15.4447 53.2101 13.2837 50.0664 13.2837ZM49.4725 95.6724H23.5336C15.0585 95.6724 8.05733 92.6097 4.53554 86.6099C1.01599 80.6139 1.74783 73.0062 5.84965 65.6083L5.8507 65.6064L19.5111 41.0003L19.5135 40.9959L32.3824 17.8846L32.3841 17.8815C36.6732 10.1485 42.922 5.28369 50.0664 5.28369C57.2112 5.28369 63.4603 10.1491 67.7494 17.883L67.7503 17.8847L80.6207 41.0425L80.6216 41.0441L94.2819 65.6502L94.283 65.6521C98.3878 73.0555 99.1042 80.6638 95.5788 86.6569C92.0528 92.6511 85.0564 95.7162 76.599 95.7162H50.0664C49.8646 95.7162 49.6663 95.7013 49.4725 95.6724ZM50.066 33.3377C52.2751 33.3377 54.066 35.1285 54.066 37.3377V59.2292C54.066 61.4384 52.2751 63.2292 50.066 63.2292C47.8568 63.2292 46.066 61.4384 46.066 59.2292V37.3377C46.066 35.1285 47.8568 33.3377 50.066 33.3377ZM50.0419 68.3641C47.8327 68.3641 46.0419 70.155 46.0419 72.3641C46.0419 74.5732 47.8327 76.3641 50.0419 76.3641H50.0817C52.2909 76.3641 54.0817 74.5732 54.0817 72.3641C54.0817 70.155 52.2909 68.3641 50.0817 68.3641H50.0419Z" fill="url(#paint0_linear_328_461)"/>
<defs>
<linearGradient id="paint0_linear_328_461" x1="-1.13336" y1="2.33613" x2="96.1043" y2="105.127" gradientUnits="userSpaceOnUse">
<stop offset="0.0364583" stop-color="#FEFDCD"/>
<stop offset="0.354167" stop-color="#FFFA2E"/>
<stop offset="0.682292" stop-color="#D5BE1E"/>
<stop offset="1" stop-color="#B58D34"/>
</linearGradient>
</defs>
</svg>
