<svg width="100" height="100" viewBox="0 0 100 100" fill="none" xmlns="http://www.w3.org/2000/svg">
<path d="M48.078 44.1715C49.4752 41.2966 55.0375 28.6533 56.6893 25.7664C57.8101 23.8066 59.1161 22.0244 60.5344 20.4076C69.4205 10.2783 82.7274 6.64868 82.7274 6.64868C82.7274 6.64868 86.3434 19.9589 82.1156 32.7533C81.4409 34.7956 80.5665 36.8244 79.4452 38.784C77.7938 41.6711 69.4609 52.8334 67.6908 55.4949M48.078 44.1715L39.2191 39.0568L15.7957 60.695L40.3224 60.5326M48.078 44.1715C44.4504 51.6364 41.7383 56.685 40.3224 60.5326M67.6908 55.4949L75.4948 60.0006L72.6429 93.5158L57.5667 70.4886M67.6908 55.4949C63.0945 62.4057 60.1654 67.318 57.5667 70.4886M40.3224 60.5326C39.5943 62.5107 38.7023 68.1178 38.7023 68.1178L52.5134 76.0916C52.5134 76.0916 56.2306 72.1187 57.5667 70.4886M35.1727 89.8006C34.936 79.5453 38.2657 74.3971 42.5747 76.8611C46.8837 79.326 44.1328 84.8063 35.1727 89.8006Z" stroke="url(#paint0_linear_328_1696)" stroke-width="8" stroke-linecap="round" stroke-linejoin="round"/>
<defs>
<linearGradient id="paint0_linear_328_1696" x1="13.351" y1="3.81733" x2="104.289" y2="75.4228" gradientUnits="userSpaceOnUse">
<stop offset="0.0364583" stop-color="#FEFDCD"/>
<stop offset="0.354167" stop-color="#FFFA2E"/>
<stop offset="0.682292" stop-color="#D5BE1E"/>
<stop offset="1" stop-color="#B58D34"/>
</linearGradient>
</defs>
</svg>
