<svg width="100" height="100" viewBox="0 0 100 100" fill="none" xmlns="http://www.w3.org/2000/svg">
<g clip-path="url(#clip0_328_1690)">
<g filter="url(#filter0_dd_328_1690)">
<path fill-rule="evenodd" clip-rule="evenodd" d="M54.3957 10.433C54.3957 8.00537 52.4278 6.0374 50.0001 6.0374C47.5725 6.0374 45.6045 8.00537 45.6045 10.433V14.2085C32.6104 15.7758 24.8315 24.2895 24.8315 34.173C24.8315 44.0565 32.6104 52.5702 45.6045 54.1376V76.8237C42.5494 76.2202 39.9152 75.067 37.8379 73.8799C36.3381 73.0229 35.1663 72.1692 34.3844 71.5438C33.9949 71.2321 33.7062 70.9804 33.5261 70.8177C33.4362 70.7365 33.3738 70.6779 33.3398 70.6455L33.3226 70.6291L33.3117 70.6185C31.594 68.915 28.8207 68.9193 27.1084 70.6315C25.3919 72.3481 25.3919 75.1313 27.1084 76.8479L30.2166 73.7397C27.1084 76.8479 27.1096 76.849 27.1108 76.8502L27.1134 76.8528L27.1191 76.8584L27.1327 76.8719L27.1689 76.9075C27.197 76.9349 27.233 76.9698 27.2769 77.0116C27.3647 77.0952 27.4838 77.2065 27.6335 77.3417C27.9326 77.6119 28.3548 77.9783 28.8926 78.4085C29.9655 79.2668 31.5139 80.3915 33.4762 81.5128C36.5206 83.2525 40.6537 85.0355 45.6045 85.7377V89.5663C45.6045 91.9939 47.5725 93.9619 50.0001 93.9619C52.4278 93.9619 54.3957 91.9939 54.3957 89.5663V85.7908C67.3894 84.2231 75.1679 75.7096 75.1676 65.8263C75.1674 55.9432 67.3889 47.43 54.3957 45.8621V23.0627C58.1554 23.6329 60.913 24.8733 62.8077 26.0432C64.1071 26.8455 65.026 27.631 65.5937 28.1809C65.8773 28.4555 66.0716 28.6696 66.1801 28.7951C66.2343 28.8578 66.2668 28.898 66.2781 28.9121L66.2785 28.9126C67.7293 30.8302 70.4571 31.2275 72.3959 29.7946C74.3482 28.3517 74.7611 25.5993 73.3182 23.6471L69.8364 26.2204C73.3181 23.647 73.3167 23.6451 73.3152 23.643L73.3121 23.6388L73.3054 23.6299L73.2903 23.6097L73.253 23.5607C73.2251 23.5243 73.1909 23.4804 73.1503 23.4295C73.0691 23.3278 72.9623 23.198 72.8294 23.0442C72.5636 22.737 72.1921 22.3329 71.7096 21.8656C70.7452 20.9317 69.331 19.739 67.4263 18.5629C64.3432 16.6593 60.0365 14.8393 54.3957 14.1958V10.433ZM45.6045 23.0673C36.8571 24.4476 33.6227 29.9435 33.6227 34.173C33.6227 38.4026 36.8571 43.8984 45.6045 45.2788V23.0673ZM54.3957 54.7209V76.932C63.1426 75.5513 66.3765 70.0557 66.3764 65.8265C66.3763 61.5973 63.1422 56.1018 54.3957 54.7209Z" fill="url(#paint0_linear_328_1690)"/>
</g>
</g>
<defs>
<filter id="filter0_dd_328_1690" x="20.4359" y="6.03735" width="59.1273" height="96.7158" filterUnits="userSpaceOnUse" color-interpolation-filters="sRGB">
<feFlood flood-opacity="0" result="BackgroundImageFix"/>
<feColorMatrix in="SourceAlpha" type="matrix" values="0 0 0 0 0 0 0 0 0 0 0 0 0 0 0 0 0 0 127 0" result="hardAlpha"/>
<feOffset dy="4.3956"/>
<feGaussianBlur stdDeviation="2.1978"/>
<feComposite in2="hardAlpha" operator="out"/>
<feColorMatrix type="matrix" values="0 0 0 0 0 0 0 0 0 0 0 0 0 0 0 0 0 0 0.25 0"/>
<feBlend mode="normal" in2="BackgroundImageFix" result="effect1_dropShadow_328_1690"/>
<feColorMatrix in="SourceAlpha" type="matrix" values="0 0 0 0 0 0 0 0 0 0 0 0 0 0 0 0 0 0 127 0" result="hardAlpha"/>
<feOffset dy="4.3956"/>
<feGaussianBlur stdDeviation="2.1978"/>
<feComposite in2="hardAlpha" operator="out"/>
<feColorMatrix type="matrix" values="0 0 0 0 0 0 0 0 0 0 0 0 0 0 0 0 0 0 0.25 0"/>
<feBlend mode="normal" in2="effect1_dropShadow_328_1690" result="effect2_dropShadow_328_1690"/>
<feBlend mode="normal" in="SourceGraphic" in2="effect2_dropShadow_328_1690" result="shape"/>
</filter>
<linearGradient id="paint0_linear_328_1690" x1="23.0318" y1="3.17166" x2="104.702" y2="49.9464" gradientUnits="userSpaceOnUse">
<stop offset="0.0364583" stop-color="#FEFDCD"/>
<stop offset="0.354167" stop-color="#FFFA2E"/>
<stop offset="0.682292" stop-color="#D5BE1E"/>
<stop offset="1" stop-color="#B58D34"/>
</linearGradient>
<clipPath id="clip0_328_1690">
<rect width="100" height="100" fill="white"/>
</clipPath>
</defs>
</svg>
