<svg width="100" height="100" viewBox="0 0 100 100" fill="none" xmlns="http://www.w3.org/2000/svg">
<g clip-path="url(#clip0_328_1199)">
<path d="M48.6879 20.1843L49.071 22.2226H51.1449H87.6149C93.0715 22.2226 97.5 26.647 97.5 32.1077V77.9821C97.5 83.4379 93.0708 87.8672 87.6149 87.8672H12.3851C6.92684 87.8672 2.5 83.4383 2.5 77.9821V42.2029V32.1077V22.0179C2.5 16.5569 6.92612 12.1329 12.3851 12.1329H38.991C43.815 12.1329 47.8259 15.5971 48.6879 20.1843Z" stroke="url(#paint0_linear_328_1199)" stroke-width="5"/>
<path fill-rule="evenodd" clip-rule="evenodd" d="M50.7758 27.3202C50.0372 26.8935 49.1272 26.8932 48.3884 27.3195L26.2025 40.1186C25.4637 40.5448 25.0084 41.3328 25.0081 42.1858L25 67.7987C24.9997 68.6517 25.4545 69.44 26.1931 69.8667L48.3701 82.6798C49.1087 83.1065 50.0187 83.1068 50.7575 82.6806L72.9434 69.8814C73.6822 69.4552 74.1375 68.6672 74.1378 67.8142L74.1459 42.2013C74.1462 41.3483 73.6914 40.56 72.9528 40.1333L50.7758 27.3202ZM35.1578 60.7207L29.7761 63.8276L29.7816 46.5176L35.4929 49.8151L35.4895 60.5616C35.3767 60.6054 35.2658 60.6583 35.1578 60.7207ZM38.4896 61.7262C38.4676 61.6819 38.4441 61.6381 38.419 61.5947C38.3542 61.4824 38.2816 61.3773 38.2023 61.2798L38.2054 51.3812L47.2071 56.5784V66.7628L38.4896 61.7262ZM37.9598 64.5533C37.8353 64.6666 37.6968 64.7683 37.5451 64.8559L32.303 67.8823L47.1855 76.4808V70.2067C47.1855 70.1012 47.1924 69.9972 47.2056 69.8952L37.9598 64.5533ZM51.982 69.8669V71.5979C51.982 71.7073 51.9746 71.815 51.9604 71.9204V76.4742L66.8934 67.8592L61.6913 64.8559C61.5263 64.7607 61.377 64.6487 61.2443 64.5234L51.982 69.8669ZM60.9394 61.4043C60.8962 61.4652 60.8554 61.5287 60.8173 61.5947C60.8052 61.6157 60.7934 61.6368 60.782 61.658L51.982 66.7348V56.5535L60.9426 51.3797L60.9394 61.4043ZM63.6527 60.5272C63.798 60.5767 63.9406 60.6411 64.0786 60.7207L69.3642 63.7722L69.3697 46.5141L63.6561 49.813L63.6527 60.5272ZM61.4273 45.5862L67.1386 42.2886L51.9604 33.5192V39.7616C51.9604 39.8774 51.9521 39.9913 51.9362 40.1026L61.4273 45.5862ZM49.1602 42.1135C49.2943 42.1369 49.4322 42.149 49.5729 42.149C49.7158 42.149 49.8557 42.1365 49.9917 42.1124L58.7149 47.1524L49.5729 52.4308L40.4282 47.151L49.1602 42.1135ZM47.2102 40.1064C47.1939 39.9938 47.1855 39.8787 47.1855 39.7616V33.5259L32.0013 42.2857L37.7147 45.5844L47.2102 40.1064Z" fill="url(#paint1_linear_328_1199)"/>
</g>
<defs>
<linearGradient id="paint0_linear_328_1199" x1="-3.57553" y1="7.00139" x2="81.407" y2="112.307" gradientUnits="userSpaceOnUse">
<stop offset="0.0364583" stop-color="#FEFDCD"/>
<stop offset="0.354167" stop-color="#FFFA2E"/>
<stop offset="0.682292" stop-color="#D5BE1E"/>
<stop offset="1" stop-color="#B58D34"/>
</linearGradient>
<linearGradient id="paint1_linear_328_1199" x1="23.2428" y1="25.1747" x2="83.0425" y2="77.6768" gradientUnits="userSpaceOnUse">
<stop offset="0.0364583" stop-color="#FEFDCD"/>
<stop offset="0.354167" stop-color="#FFFA2E"/>
<stop offset="0.682292" stop-color="#D5BE1E"/>
<stop offset="1" stop-color="#B58D34"/>
</linearGradient>
<clipPath id="clip0_328_1199">
<rect width="100" height="100" fill="white"/>
</clipPath>
</defs>
</svg>
