<svg width="100" height="100" viewBox="0 0 100 100" fill="none" xmlns="http://www.w3.org/2000/svg">
<g clip-path="url(#clip0_328_1948)">
<path d="M48.6879 20.1843L49.071 22.2225H51.1449H87.6149C93.0715 22.2225 97.5 26.647 97.5 32.1076V77.982C97.5 83.4379 93.0708 87.8671 87.6149 87.8671H12.3851C6.92684 87.8671 2.5 83.4382 2.5 77.982V42.2029V32.1076V22.0179C2.5 16.5569 6.92612 12.1328 12.3851 12.1328H38.991C43.815 12.1328 47.8259 15.597 48.6879 20.1843Z" stroke="url(#paint0_linear_328_1948)" stroke-width="5"/>
<path d="M62.5781 78.6875H31.9531C30.4948 78.6354 29.2708 78.0885 28.2812 77.0469C27.3438 76.0052 26.875 74.7552 26.875 73.2969C27.1354 70.1719 28.8281 68.4792 31.9531 68.2188H59.9219C61.901 68.1146 63.5417 67.3594 64.8438 65.9531C66.1458 64.5469 67.0833 62.9583 67.6562 61.1875C68.2812 59.3646 68.5938 57.5156 68.5938 55.6406C68.5938 53.7656 68.2812 51.9688 67.6562 50.25C67.0833 48.4792 66.1458 46.8906 64.8438 45.4844C63.5417 44.0781 61.901 43.3229 59.9219 43.2188H39.1406C38.151 43.1667 37.3177 43.349 36.6406 43.7656C36.0156 44.1823 35.5469 44.6771 35.2344 45.25C34.9219 45.7708 34.7656 46.3177 34.7656 46.8906C34.7656 47.2552 34.9219 47.776 35.2344 48.4531C35.5469 49.0781 36.0156 49.599 36.6406 50.0156C37.3177 50.4323 38.151 50.6667 39.1406 50.7188H59.1406C60.599 50.7188 61.8229 51.2396 62.8125 52.2812C63.8542 53.2708 64.375 54.4948 64.375 55.9531C64.375 57.4115 63.8802 58.6615 62.8906 59.7031C61.849 60.6927 60.599 61.1875 59.1406 61.1875H39.6094C35.9635 61.0833 32.9427 60.25 30.5469 58.6875C28.2031 57.0729 26.5104 55.25 25.4688 53.2188C24.4792 51.1354 23.9844 49.026 23.9844 46.8906C23.9844 44.8073 24.5052 42.75 25.5469 40.7188C26.5885 38.6354 28.2812 36.8125 30.625 35.25C32.9688 33.6354 35.9635 32.8281 39.6094 32.8281H40.0781C40.3906 32.776 40.7031 32.75 41.0156 32.75H62.5781C66.224 32.9583 69.2188 34.3646 71.5625 36.9688C73.9583 39.5208 75.651 42.4115 76.6406 45.6406C77.6823 48.8698 78.2031 52.2031 78.2031 55.6406C78.2031 59.0781 77.6823 62.4375 76.6406 65.7188C75.599 69 73.9062 71.9427 71.5625 74.5469C69.2188 77.099 66.224 78.4792 62.5781 78.6875Z" fill="url(#paint1_linear_328_1948)"/>
</g>
<defs>
<linearGradient id="paint0_linear_328_1948" x1="-3.57553" y1="7.00135" x2="81.407" y2="112.306" gradientUnits="userSpaceOnUse">
<stop offset="0.0364583" stop-color="#FEFDCD"/>
<stop offset="0.354167" stop-color="#FFFA2E"/>
<stop offset="0.682292" stop-color="#D5BE1E"/>
<stop offset="1" stop-color="#B58D34"/>
</linearGradient>
<linearGradient id="paint1_linear_328_1948" x1="20.0137" y1="10.2803" x2="102.25" y2="52.083" gradientUnits="userSpaceOnUse">
<stop stop-color="white"/>
<stop offset="0.848958" stop-color="#7F787F"/>
<stop offset="0.982609" stop-color="#4B454B"/>
</linearGradient>
<clipPath id="clip0_328_1948">
<rect width="100" height="100" fill="white"/>
</clipPath>
</defs>
</svg>
