<svg width="100" height="100" viewBox="0 0 100 100" fill="none" xmlns="http://www.w3.org/2000/svg">
<g clip-path="url(#clip0_328_1092)">
<path d="M48.6879 20.1843L49.071 22.2226H51.1449H87.6149C93.0715 22.2226 97.5 26.647 97.5 32.1077V77.9821C97.5 83.4379 93.0708 87.8671 87.6149 87.8671H12.3851C6.92684 87.8671 2.5 83.4383 2.5 77.9821V42.2029V32.1077V22.0179C2.5 16.5569 6.92612 12.1329 12.3851 12.1329H38.991C43.815 12.1329 47.8259 15.5971 48.6879 20.1843Z" stroke="url(#paint0_linear_328_1092)" stroke-width="5"/>
<path fill-rule="evenodd" clip-rule="evenodd" d="M47.8362 28.0007C50.2668 27.9648 52.3576 29.2848 54.2029 31.1256L54.2049 31.1277L57.3041 34.2268C57.6511 33.7089 58.0532 33.2173 58.5099 32.7604C62.3006 28.9696 68.4468 28.9696 72.2376 32.7604C76.0284 36.5512 76.0284 42.6972 72.2376 46.488C71.7807 46.9448 71.2891 47.3468 70.7712 47.6939L73.8702 50.7929L73.8722 50.7951C75.7129 52.6402 77.0327 54.731 76.997 57.1616C76.9614 59.5735 75.5985 61.5888 73.8668 63.3083C73.8658 63.3092 73.8646 63.3105 73.8636 63.3115L70.7262 66.4488C69.5537 67.6211 68.0192 67.4974 67.0928 67.1064C66.1758 66.7191 65.197 65.8294 64.9742 64.4687C64.8181 63.5146 64.374 62.6013 63.6352 61.8625C61.765 59.9926 58.7332 59.9926 56.8632 61.8625C54.993 63.7327 54.993 66.7646 56.8632 68.6345C57.6017 69.3733 58.515 69.8176 59.4692 69.9738C60.8298 70.1966 61.7198 71.1751 62.1069 72.0924C62.4979 73.0187 62.6218 74.5532 61.4495 75.7255L58.3033 78.8717C58.3023 78.8727 58.3013 78.8737 58.3001 78.8749C56.5836 80.6037 54.5705 81.9636 52.1613 81.9993C49.7336 82.035 47.6451 80.7181 45.8029 78.8804L45.8007 78.8781L42.6938 75.7712C42.3469 76.2891 41.9449 76.7805 41.4882 77.2374C37.6974 81.0282 31.5513 81.0282 27.7606 77.2374C23.9698 73.4466 23.9698 67.3004 27.7606 63.5097C28.2173 63.053 28.7089 62.6509 29.2267 62.3042L26.1276 59.2049L26.1255 59.203C24.2847 57.3576 22.9648 55.2668 23.0007 52.8362C23.0363 50.4243 24.3992 48.4092 26.1308 46.6897C26.1319 46.6886 26.133 46.6875 26.1341 46.6864L29.2721 43.5484C30.4445 42.376 31.9793 42.4999 32.9056 42.891C33.8227 43.2782 34.8013 44.168 35.024 45.5288C35.1802 46.483 35.6245 47.3964 36.3632 48.1351C38.2332 50.0051 41.2652 50.0051 43.1352 48.1351C45.0053 46.265 45.0053 43.2331 43.1353 41.363C42.3965 40.6243 41.4832 40.1801 40.529 40.0239C39.1682 39.8011 38.2783 38.8225 37.8912 37.9054C37.5001 36.9791 37.3761 35.4444 38.5485 34.272L41.6863 31.1343C41.6874 31.1331 41.6885 31.132 41.6897 31.1308C43.4092 29.3992 45.4242 28.0363 47.8362 28.0007ZM47.9087 32.9185C47.4058 32.9259 46.5567 33.209 45.1771 34.5988L45.1707 34.6054L43.8345 35.9416C44.8414 36.4085 45.7845 37.0567 46.613 37.8853C50.4038 41.676 50.4038 47.8221 46.613 51.6128C42.8223 55.4036 36.6762 55.4036 32.8854 51.6128C32.0569 50.7843 31.4086 49.8412 30.9417 48.8343L29.6054 50.1707L29.5988 50.1771C28.209 51.5567 27.9259 52.4059 27.9185 52.909C27.9113 53.3947 28.1529 54.2709 29.6068 55.7287C29.6066 55.7284 29.607 55.7289 29.6068 55.7287L35.3376 61.4595C35.9964 62.1183 36.2264 63.0928 35.9314 63.9769C35.6365 64.8607 34.8673 65.5018 33.9448 65.6331C32.9542 65.7738 32.0026 66.2233 31.2383 66.9876C29.3683 68.8576 29.3683 71.8895 31.2384 73.7597C33.1084 75.6296 36.1403 75.6296 38.0104 73.7597C38.7746 72.9954 39.2241 72.0437 39.3649 71.0531C39.496 70.1307 40.1373 69.3615 41.0211 69.0666C41.905 68.7715 42.8796 69.0014 43.5384 69.6603L49.2765 75.3984C49.2772 75.3989 49.2777 75.3997 49.2785 75.4002C49.2782 75.4002 49.2785 75.4004 49.2785 75.4002C50.7301 76.8479 51.6043 77.0886 52.0888 77.0815C52.5904 77.0741 53.4381 76.7918 54.8125 75.407L54.8189 75.4004L56.1636 74.056C55.1568 73.589 54.2137 72.9408 53.3855 72.1125C49.5947 68.3217 49.5947 62.1756 53.3855 58.3848C57.176 54.594 63.3222 54.594 67.113 58.3848C67.9414 59.2133 68.5897 60.1564 69.0564 61.1629L70.3922 59.8271L70.3989 59.8207C71.7888 58.4414 72.0718 57.592 72.0792 57.0891C72.0863 56.6034 71.8449 55.7272 70.392 54.2701C70.3925 54.2706 70.3913 54.2696 70.392 54.2701L64.66 48.5383C64.0011 47.8795 63.7712 46.9048 64.0663 46.021C64.3612 45.1371 65.1304 44.4959 66.0531 44.3648C67.0436 44.224 67.9955 43.7745 68.7599 43.0102C70.6298 41.1402 70.6298 38.1082 68.7599 36.2382C66.8897 34.3681 63.8578 34.3681 61.9876 36.2382C61.2233 37.0025 60.774 37.9542 60.6331 38.945C60.502 39.8675 59.8609 40.6367 58.9769 40.9316C58.093 41.2266 57.1185 40.9967 56.4597 40.3379L50.7294 34.6075C50.7296 34.6079 50.7289 34.6072 50.7294 34.6075C49.2718 33.1538 48.3944 32.9113 47.9087 32.9185Z" fill="url(#paint1_linear_328_1092)"/>
</g>
<defs>
<linearGradient id="paint0_linear_328_1092" x1="-3.57553" y1="7.00139" x2="81.407" y2="112.307" gradientUnits="userSpaceOnUse">
<stop offset="0.0364583" stop-color="#FEFDCD"/>
<stop offset="0.354167" stop-color="#FFFA2E"/>
<stop offset="0.682292" stop-color="#D5BE1E"/>
<stop offset="1" stop-color="#B58D34"/>
</linearGradient>
<linearGradient id="paint1_linear_328_1092" x1="21.0693" y1="26.2399" x2="79.2224" y2="84.4144" gradientUnits="userSpaceOnUse">
<stop offset="0.0364583" stop-color="#FEFDCD"/>
<stop offset="0.354167" stop-color="#FFFA2E"/>
<stop offset="0.682292" stop-color="#D5BE1E"/>
<stop offset="1" stop-color="#B58D34"/>
</linearGradient>
<clipPath id="clip0_328_1092">
<rect width="100" height="100" fill="white"/>
</clipPath>
</defs>
</svg>
