<svg width="100" height="100" viewBox="0 0 100 100" fill="none" xmlns="http://www.w3.org/2000/svg">
<g clip-path="url(#clip0_328_949)">
<path d="M48.6879 20.1843L49.071 22.2225H51.1449H87.6149C93.0715 22.2225 97.5 26.647 97.5 32.1076V77.982C97.5 83.4379 93.0708 87.8671 87.6149 87.8671H12.3851C6.92684 87.8671 2.5 83.4382 2.5 77.982V42.2029V32.1076V22.0179C2.5 16.5569 6.92612 12.1328 12.3851 12.1328H38.991C43.815 12.1328 47.8259 15.597 48.6879 20.1843Z" stroke="url(#paint0_linear_328_949)" stroke-width="5"/>
<path d="M25.4688 73.4531C25.4688 71.9948 25.9896 70.7708 27.0312 69.7812C28.0208 68.7396 29.2448 68.2188 30.7031 68.2188H62.7344C63.724 68.1667 64.5312 67.9323 65.1562 67.5156C65.8333 67.099 66.3281 66.6302 66.6406 66.1094C66.9531 65.5885 67.1094 65.0417 67.1094 64.4688C67.1094 63.8958 66.9531 63.349 66.6406 62.8281C66.3281 62.3073 65.8333 61.8385 65.1562 61.4219C64.5312 61.0052 63.724 60.7708 62.7344 60.7188H40.5469C36.901 60.6146 33.8802 59.7812 31.4844 58.2188C29.1406 56.6042 27.4479 54.7812 26.4062 52.75C25.4167 50.6667 24.9219 48.5573 24.9219 46.4219V41.0312C24.974 38.375 25.7552 36.3438 27.2656 34.9375C28.8281 33.4792 31.0677 32.75 33.9844 32.75H72.2656C73.724 32.75 74.9479 33.2708 75.9375 34.3125C76.9792 35.3021 77.5 36.526 77.5 37.9844C77.5 39.4427 76.9792 40.6667 75.9375 41.6562C74.9479 42.6979 73.724 43.2188 72.2656 43.2188H38.2031C37.2135 43.1667 36.5365 43.3229 36.1719 43.6875C35.8594 44.0521 35.7031 44.5729 35.7031 45.25V46.4219C35.7031 46.7865 35.8594 47.3073 36.1719 47.9844C36.4844 48.6094 36.9531 49.1302 37.5781 49.5469C38.2552 49.9635 39.0885 50.1979 40.0781 50.25H62.2656C65.9115 50.3021 68.9062 51.1354 71.25 52.75C73.6458 54.3125 75.3385 56.1354 76.3281 58.2188C77.3698 60.25 77.8906 62.3333 77.8906 64.4688C77.8906 66.5 77.3698 68.5573 76.3281 70.6406C75.2865 72.6719 73.5938 74.4948 71.25 76.1094C68.9062 77.6719 65.9115 78.5052 62.2656 78.6094H61.7969C61.4844 78.6615 61.1719 78.6875 60.8594 78.6875H30.7031C29.2448 78.6875 27.9948 78.1927 26.9531 77.2031C25.9635 76.1615 25.4688 74.9115 25.4688 73.4531Z" fill="url(#paint1_linear_328_949)"/>
</g>
<defs>
<linearGradient id="paint0_linear_328_949" x1="-3.57553" y1="7.00135" x2="81.407" y2="112.306" gradientUnits="userSpaceOnUse">
<stop offset="0.0364583" stop-color="#FEFDCD"/>
<stop offset="0.354167" stop-color="#FFFA2E"/>
<stop offset="0.682292" stop-color="#D5BE1E"/>
<stop offset="1" stop-color="#B58D34"/>
</linearGradient>
<linearGradient id="paint1_linear_328_949" x1="17.7474" y1="7.39247" x2="101.507" y2="73.3802" gradientUnits="userSpaceOnUse">
<stop offset="0.0364583" stop-color="#FEFDCD"/>
<stop offset="0.354167" stop-color="#FFFA2E"/>
<stop offset="0.682292" stop-color="#D5BE1E"/>
<stop offset="1" stop-color="#B58D34"/>
</linearGradient>
<clipPath id="clip0_328_949">
<rect width="100" height="100" fill="white"/>
</clipPath>
</defs>
</svg>
