<svg width="100" height="100" viewBox="0 0 100 100" fill="none" xmlns="http://www.w3.org/2000/svg">
<g clip-path="url(#clip0_328_1720)">
<mask id="mask0_328_1720" style="mask-type:luminance" maskUnits="userSpaceOnUse" x="0" y="0" width="100" height="100">
<path d="M100 0H0V100H100V0Z" fill="white"/>
</mask>
<g mask="url(#mask0_328_1720)">
<path d="M48.6879 20.1843L49.071 22.2226H51.1449H87.6149C93.0715 22.2226 97.5 26.647 97.5 32.1077V77.9821C97.5 83.4379 93.0708 87.8671 87.6149 87.8671H12.3851C6.92684 87.8671 2.5 83.4383 2.5 77.9821V42.2029V32.1077V22.0179C2.5 16.5569 6.92612 12.1329 12.3851 12.1329H38.991C43.815 12.1329 47.8259 15.5971 48.6879 20.1843Z" stroke="url(#paint0_linear_328_1720)" stroke-width="5"/>
</g>
<path fill-rule="evenodd" clip-rule="evenodd" d="M30.3871 37.2616C30.3871 36.2263 31.2263 35.3871 32.2616 35.3871H67.7384C68.7737 35.3871 69.6129 36.2263 69.6129 37.2616V44.2051H30.3871V37.2616ZM30.3871 50.5922V72.7384C30.3871 73.7737 31.2263 74.6129 32.2616 74.6129H39.2039V50.5922H30.3871ZM45.591 74.6129H67.7384C68.7737 74.6129 69.6129 73.7737 69.6129 72.7384V50.5922H45.591V74.6129ZM32.2616 29C27.6988 29 24 32.6988 24 37.2616V72.7384C24 77.3012 27.6988 81 32.2616 81H67.7384C72.3012 81 76 77.3012 76 72.7384V37.2616C76 32.6988 72.3012 29 67.7384 29H32.2616Z" fill="url(#paint1_linear_328_1720)"/>
</g>
<defs>
<linearGradient id="paint0_linear_328_1720" x1="-0.89675" y1="9.66439" x2="78.604" y2="109.43" gradientUnits="userSpaceOnUse">
<stop offset="0.0364583" stop-color="#FEFDCD"/>
<stop offset="0.354167" stop-color="#FFFA2E"/>
<stop offset="0.682292" stop-color="#D5BE1E"/>
<stop offset="1" stop-color="#B58D34"/>
</linearGradient>
<linearGradient id="paint1_linear_328_1720" x1="24.0113" y1="29.1822" x2="84.3054" y2="68.1017" gradientUnits="userSpaceOnUse">
<stop stop-color="white"/>
<stop offset="0.848958" stop-color="#7F787F"/>
<stop offset="0.982609" stop-color="#4B454B"/>
</linearGradient>
<clipPath id="clip0_328_1720">
<rect width="100" height="100" fill="white"/>
</clipPath>
</defs>
</svg>
