<svg width="100" height="100" viewBox="0 0 100 100" fill="none" xmlns="http://www.w3.org/2000/svg">
<g clip-path="url(#clip0_328_1825)">
<mask id="mask0_328_1825" style="mask-type:luminance" maskUnits="userSpaceOnUse" x="0" y="0" width="100" height="100">
<path d="M100 0H0V100H100V0Z" fill="white"/>
</mask>
<g mask="url(#mask0_328_1825)">
<path d="M48.6879 20.1843L49.071 22.2226H51.1449H87.6149C93.0715 22.2226 97.5 26.647 97.5 32.1077V77.9821C97.5 83.4379 93.0708 87.8671 87.6149 87.8671H12.3851C6.92684 87.8671 2.5 83.4383 2.5 77.9821V42.2029V32.1077V22.0179C2.5 16.5569 6.92612 12.1329 12.3851 12.1329H38.991C43.815 12.1329 47.8259 15.5971 48.6879 20.1843Z" stroke="url(#paint0_linear_328_1825)" stroke-width="5"/>
</g>
<path fill-rule="evenodd" clip-rule="evenodd" d="M25.3894 35.0176C24.5576 35.3064 24 36.0903 24 36.9707V37.223C24 38.3648 24.9257 39.2905 26.0676 39.2905H29.5135V57.8985H26.0676C24.9257 57.8985 24 58.8242 24 59.9661V77.885C24 79.0269 24.9257 79.9526 26.0676 79.9526H27.446V81.3311C27.446 82.473 28.3716 83.3987 29.5135 83.3987C30.6554 83.3987 31.5811 82.473 31.5811 81.3311V79.9526H67.4189V81.3311C67.4189 82.473 68.3446 83.3987 69.4865 83.3987C70.6284 83.3987 71.5541 82.473 71.5541 81.3311V79.9526H72.9324C74.0743 79.9526 75 79.0269 75 77.885V59.9661C75 58.8242 74.0743 57.8985 72.9324 57.8985H69.4865V39.2905H72.9324C74.0743 39.2905 75 38.3648 75 37.223V36.9964C75 36.1035 74.4267 35.3114 73.5785 35.0324L49.4748 27.1035C49.0441 26.9619 48.5788 26.9657 48.1505 27.1144L25.3894 35.0176ZM65.3514 39.2905H33.6487V57.8985H65.3514V39.2905ZM67.4189 65.4796V72.3715C67.4189 73.5133 66.4932 74.439 65.3514 74.439H33.6486C32.5086 74.439 31.5841 73.5163 31.5811 72.377V65.4741C31.5841 64.3347 32.5086 63.412 33.6486 63.412H65.3514C66.4932 63.412 67.4189 64.3377 67.4189 65.4796Z" fill="url(#paint1_linear_328_1825)"/>
</g>
<defs>
<linearGradient id="paint0_linear_328_1825" x1="-0.89675" y1="9.66439" x2="78.604" y2="109.43" gradientUnits="userSpaceOnUse">
<stop offset="0.0364583" stop-color="#FEFDCD"/>
<stop offset="0.354167" stop-color="#FFFA2E"/>
<stop offset="0.682292" stop-color="#D5BE1E"/>
<stop offset="1" stop-color="#B58D34"/>
</linearGradient>
<linearGradient id="paint1_linear_328_1825" x1="24.0111" y1="27.1976" x2="86.4957" y2="63.6702" gradientUnits="userSpaceOnUse">
<stop stop-color="white"/>
<stop offset="0.848958" stop-color="#7F787F"/>
<stop offset="0.982609" stop-color="#4B454B"/>
</linearGradient>
<clipPath id="clip0_328_1825">
<rect width="100" height="100" fill="white"/>
</clipPath>
</defs>
</svg>
