<svg width="100" height="100" viewBox="0 0 100 100" fill="none" xmlns="http://www.w3.org/2000/svg">
<g clip-path="url(#clip0_328_1295)">
<path d="M48.6879 20.1843L49.071 22.2226H51.1449H87.6149C93.0715 22.2226 97.5 26.647 97.5 32.1077V77.9821C97.5 83.4379 93.0708 87.8672 87.6149 87.8672H12.3851C6.92684 87.8672 2.5 83.4383 2.5 77.9821V42.2029V32.1077V22.018C2.5 16.557 6.92612 12.1329 12.3851 12.1329H38.991C43.815 12.1329 47.8259 15.5971 48.6879 20.1843Z" stroke="url(#paint0_linear_328_1295)" stroke-width="5"/>
<path d="M39.5328 58.9461L35.9288 52.1061L27.7098 53.6101M42.1998 76.7021C42.1998 76.7021 36.5308 76.9411 33.9818 76.7921C31.7988 76.6651 29.4568 76.0251 28.2348 74.3381C26.8878 72.4781 26.5728 69.5061 27.6388 67.4721C29.6068 63.7171 35.8788 52.1371 35.8788 52.1371M54.8388 70.6371L49.8628 76.7031L54.7708 82.1981M65.5448 57.0211C65.5448 57.0211 69.8968 64.2481 71.0418 66.5301C72.0228 68.4841 72.6398 70.8321 71.7898 72.7341C70.8528 74.8311 68.4368 76.5891 66.1418 76.6831C61.9068 76.8561 49.9148 76.7321 49.9148 76.7321M54.2548 49.1821L61.9598 50.6631L64.4498 43.7291M40.2668 45.4471C40.2668 45.4471 42.3038 40.7271 43.7638 38.6311C45.0138 36.8371 46.7838 35.1751 48.8608 35.0161C51.1508 34.8401 53.8478 36.1251 55.0248 38.0981C57.1968 41.7381 61.9598 50.6041 61.9598 50.6041" stroke="url(#paint1_linear_328_1295)" stroke-width="5" stroke-linecap="round" stroke-linejoin="round"/>
</g>
<defs>
<linearGradient id="paint0_linear_328_1295" x1="-3.57553" y1="7.00141" x2="81.407" y2="112.307" gradientUnits="userSpaceOnUse">
<stop offset="0.0364583" stop-color="#FEFDCD"/>
<stop offset="0.354167" stop-color="#FFFA2E"/>
<stop offset="0.682292" stop-color="#D5BE1E"/>
<stop offset="1" stop-color="#B58D34"/>
</linearGradient>
<linearGradient id="paint1_linear_328_1295" x1="27.0098" y1="35.1654" x2="80.7243" y2="68.3639" gradientUnits="userSpaceOnUse">
<stop stop-color="white"/>
<stop offset="0.848958" stop-color="#7F787F"/>
<stop offset="0.982609" stop-color="#4B454B"/>
</linearGradient>
<clipPath id="clip0_328_1295">
<rect width="100" height="100" fill="white"/>
</clipPath>
</defs>
</svg>
