<svg width="100" height="100" viewBox="0 0 100 100" fill="none" xmlns="http://www.w3.org/2000/svg">
<g clip-path="url(#clip0_328_849)">
<path d="M48.6879 20.1843L49.071 22.2226H51.1449H87.6149C93.0715 22.2226 97.5 26.647 97.5 32.1077V77.982C97.5 83.4379 93.0708 87.8671 87.6149 87.8671H12.3851C6.92684 87.8671 2.5 83.4383 2.5 77.982V42.2029V32.1077V22.0179C2.5 16.5569 6.92612 12.1328 12.3851 12.1328H38.991C43.815 12.1328 47.8259 15.5971 48.6879 20.1843Z" stroke="url(#paint0_linear_328_849)" stroke-width="5"/>
<circle cx="49.5" cy="54.5" r="24.38" stroke="url(#paint1_linear_328_849)" stroke-width="4.24"/>
<path d="M49.5001 38.0699V55.5599H66.7251" stroke="url(#paint2_linear_328_849)" stroke-width="4.24" stroke-linecap="round"/>
</g>
<defs>
<linearGradient id="paint0_linear_328_849" x1="-3.57553" y1="7.00138" x2="81.407" y2="112.307" gradientUnits="userSpaceOnUse">
<stop offset="0.0364583" stop-color="#FEFDCD"/>
<stop offset="0.354167" stop-color="#FFFA2E"/>
<stop offset="0.682292" stop-color="#D5BE1E"/>
<stop offset="1" stop-color="#B58D34"/>
</linearGradient>
<linearGradient id="paint1_linear_328_849" x1="23.0115" y1="28.1857" x2="84.4652" y2="67.8537" gradientUnits="userSpaceOnUse">
<stop stop-color="white"/>
<stop offset="0.848958" stop-color="#7F787F"/>
<stop offset="0.982609" stop-color="#4B454B"/>
</linearGradient>
<linearGradient id="paint2_linear_328_849" x1="66.6647" y1="38.0737" x2="53.493" y2="58.1702" gradientUnits="userSpaceOnUse">
<stop stop-color="white"/>
<stop offset="0.848958" stop-color="#7F787F"/>
<stop offset="0.982609" stop-color="#4B454B"/>
</linearGradient>
<clipPath id="clip0_328_849">
<rect width="100" height="100" fill="white"/>
</clipPath>
</defs>
</svg>
