<svg width="100" height="100" viewBox="0 0 100 100" fill="none" xmlns="http://www.w3.org/2000/svg">
<g clip-path="url(#clip0_328_1426)">
<path d="M48.6879 20.1843L49.071 22.2226H51.1449H87.6149C93.0715 22.2226 97.5 26.647 97.5 32.1077V77.982C97.5 83.4379 93.0708 87.8671 87.6149 87.8671H12.3851C6.92684 87.8671 2.5 83.4383 2.5 77.982V42.2029V32.1077V22.0179C2.5 16.5569 6.92612 12.1328 12.3851 12.1328H38.991C43.815 12.1328 47.8259 15.5971 48.6879 20.1843Z" stroke="url(#paint0_linear_328_1426)" stroke-width="5"/>
<path d="M71.956 42.398V67.234L50.496 79.634L29 67.234V42.47L50.531 30L61.244 36.2L71.956 42.398Z" stroke="url(#paint1_linear_328_1426)" stroke-width="5" stroke-linecap="round" stroke-linejoin="round"/>
<path d="M29.709 42.868L40.093 48.842L50.479 54.816M71.114 42.818L50.499 54.72V78.947" stroke="url(#paint2_linear_328_1426)" stroke-width="5" stroke-linecap="round" stroke-linejoin="round"/>
<path d="M61.117 36.198L40.105 48.842V57.29" stroke="url(#paint3_linear_328_1426)" stroke-width="5" stroke-linecap="round" stroke-linejoin="round"/>
</g>
<defs>
<linearGradient id="paint0_linear_328_1426" x1="-3.57553" y1="7.00138" x2="81.407" y2="112.307" gradientUnits="userSpaceOnUse">
<stop offset="0.0364583" stop-color="#FEFDCD"/>
<stop offset="0.354167" stop-color="#FFFA2E"/>
<stop offset="0.682292" stop-color="#D5BE1E"/>
<stop offset="1" stop-color="#B58D34"/>
</linearGradient>
<linearGradient id="paint1_linear_328_1426" x1="27.4641" y1="28.3822" x2="80.3653" y2="74.1846" gradientUnits="userSpaceOnUse">
<stop offset="0.0364583" stop-color="#FEFDCD"/>
<stop offset="0.354167" stop-color="#FFFA2E"/>
<stop offset="0.682292" stop-color="#D5BE1E"/>
<stop offset="1" stop-color="#B58D34"/>
</linearGradient>
<linearGradient id="paint2_linear_328_1426" x1="28.2285" y1="41.6404" x2="66.7754" y2="85.8345" gradientUnits="userSpaceOnUse">
<stop offset="0.0364583" stop-color="#FEFDCD"/>
<stop offset="0.354167" stop-color="#FFFA2E"/>
<stop offset="0.682292" stop-color="#D5BE1E"/>
<stop offset="1" stop-color="#B58D34"/>
</linearGradient>
<linearGradient id="paint3_linear_328_1426" x1="39.3537" y1="35.5105" x2="62.0677" y2="58.1477" gradientUnits="userSpaceOnUse">
<stop offset="0.0364583" stop-color="#FEFDCD"/>
<stop offset="0.354167" stop-color="#FFFA2E"/>
<stop offset="0.682292" stop-color="#D5BE1E"/>
<stop offset="1" stop-color="#B58D34"/>
</linearGradient>
<clipPath id="clip0_328_1426">
<rect width="100" height="100" fill="white"/>
</clipPath>
</defs>
</svg>
