<svg width="100" height="100" viewBox="0 0 100 100" fill="none" xmlns="http://www.w3.org/2000/svg">
<g clip-path="url(#clip0_328_883)">
<path d="M48.6879 20.1843L49.071 22.2226H51.1449H87.6149C93.0715 22.2226 97.5 26.647 97.5 32.1077V77.9821C97.5 83.4379 93.0708 87.8672 87.6149 87.8672H12.3851C6.92684 87.8672 2.5 83.4383 2.5 77.9821V42.2029V32.1077V22.018C2.5 16.557 6.92612 12.1329 12.3851 12.1329H38.991C43.815 12.1329 47.8259 15.5971 48.6879 20.1843Z" stroke="url(#paint0_linear_328_883)" stroke-width="5"/>
<path fill-rule="evenodd" clip-rule="evenodd" d="M33.6886 43.384C33.6886 34.8878 40.5762 28.0002 49.0724 28.0002H50.1923C58.5423 28.0002 65.3114 34.7692 65.3114 43.1193V43.3426C65.3114 44.3051 64.5311 45.0854 63.5686 45.0854H35.39C34.4503 45.0854 33.6886 44.3236 33.6886 43.384ZM36.4216 41.1981C36.2981 41.9181 36.8823 42.5378 37.6128 42.5378H61.4275C62.1483 42.5378 62.7293 41.9339 62.6214 41.2213C61.7063 35.1788 56.4901 30.5478 50.1923 30.5478H49.0724C42.7283 30.5478 37.4592 35.1501 36.4216 41.1981ZM28 52.0283C28 48.8813 30.5513 46.33 33.6983 46.33H65.3018C68.4488 46.33 71 48.8813 71 52.0283V57.717C71 60.864 68.4488 63.4152 65.3018 63.4152H33.6983C30.5513 63.4152 28 60.864 28 57.717V52.0283ZM33.6983 48.8777C31.9583 48.8777 30.5477 50.2883 30.5477 52.0283V57.717C30.5477 59.457 31.9583 60.8676 33.6983 60.8676H65.3018C67.0418 60.8676 68.4524 59.457 68.4524 57.717V52.0283C68.4524 50.2883 67.0418 48.8777 65.3018 48.8777H33.6983ZM34.5707 54.999C34.5707 53.7758 35.5848 52.7616 36.8081 52.7616H62.1794C63.4149 52.7616 64.4168 53.7762 64.4168 54.999C64.4168 56.2213 63.4275 57.2364 62.1919 57.2364H36.8081C35.5725 57.2364 34.5707 56.2218 34.5707 54.999ZM36.2362 73.5187V66.5659C36.2362 65.8677 35.6606 65.3018 34.9624 65.3018V65.3018C34.2643 65.3018 33.6886 65.8677 33.6886 66.5659V73.5187C33.6886 77.713 37.0888 81.1132 41.2831 81.1132H57.7169C61.9112 81.1132 65.3114 77.713 65.3114 73.5187V66.5659C65.3114 65.8677 64.7357 65.3018 64.0376 65.3018V65.3018C63.3394 65.3018 62.7638 65.8677 62.7638 66.5659V73.5187C62.7638 76.306 60.5042 78.5655 57.7169 78.5655H41.2831C38.4958 78.5655 36.2362 76.306 36.2362 73.5187ZM44.4435 68.4622H44.1817C43.8464 68.4622 43.5249 68.5954 43.2878 68.8324L43.1027 69.0176L41.8385 70.2817C41.098 71.0222 41.098 72.2228 41.8385 72.9633C42.579 73.7038 43.7797 73.7038 44.5202 72.9633L44.8587 72.6248C45.0957 72.3878 45.4173 72.2546 45.7525 72.2546H53.5031C53.7767 72.2546 54.0428 72.3433 54.2616 72.5074L54.683 72.8234C55.5208 73.4518 56.7093 73.282 57.3377 72.4442C57.966 71.6064 57.7962 70.4179 56.9584 69.7895L55.6943 68.8414L55.5258 68.715C55.3069 68.5509 55.0408 68.4622 54.7673 68.4622H54.5566H44.4435Z" fill="url(#paint1_linear_328_883)"/>
</g>
<defs>
<linearGradient id="paint0_linear_328_883" x1="-3.57553" y1="7.00141" x2="81.407" y2="112.307" gradientUnits="userSpaceOnUse">
<stop offset="0.0364583" stop-color="#FEFDCD"/>
<stop offset="0.354167" stop-color="#FFFA2E"/>
<stop offset="0.682292" stop-color="#D5BE1E"/>
<stop offset="1" stop-color="#B58D34"/>
</linearGradient>
<linearGradient id="paint1_linear_328_883" x1="28.0093" y1="28.1861" x2="83.4904" y2="57.1798" gradientUnits="userSpaceOnUse">
<stop stop-color="white"/>
<stop offset="0.848958" stop-color="#7F787F"/>
<stop offset="0.982609" stop-color="#4B454B"/>
</linearGradient>
<clipPath id="clip0_328_883">
<rect width="100" height="100" fill="white"/>
</clipPath>
</defs>
</svg>
