<svg width="100" height="100" viewBox="0 0 100 100" fill="none" xmlns="http://www.w3.org/2000/svg">
<g clip-path="url(#clip0_328_1551)">
<path d="M100 32.1077V77.9821C100 84.8187 94.4515 90.3672 87.6149 90.3672H12.3851C5.54577 90.3672 0 84.8187 0 77.9821V42.2029V32.1077V22.018C0 15.1759 5.54577 9.63287 12.3851 9.63287H38.991C45.046 9.63287 50.0661 13.9814 51.1449 19.7226H87.6149C94.4515 19.7226 100 25.2656 100 32.1077Z" fill="url(#paint0_linear_328_1551)"/>
<path fill-rule="evenodd" clip-rule="evenodd" d="M29 36.0543C29 34.9197 29.9197 34 31.0543 34H69.9354C71.07 34 71.9897 34.9197 71.9897 36.0543V43.6641H29V36.0543ZM29 50.6641V74.9354C29 76.07 29.9197 76.9897 31.0543 76.9897H38.6628V50.6641H29ZM45.6628 76.9897H69.9354C71.07 76.9897 71.9897 76.07 71.9897 74.9354V50.6641H45.6628V76.9897ZM31.0543 27C26.0537 27 22 31.0537 22 36.0543V74.9354C22 79.936 26.0537 83.9897 31.0543 83.9897H69.9354C74.936 83.9897 78.9897 79.936 78.9897 74.9354V36.0543C78.9897 31.0537 74.936 27 69.9354 27H31.0543Z" fill="black"/>
</g>
<defs>
<linearGradient id="paint0_linear_328_1551" x1="-3.57553" y1="7.00141" x2="81.407" y2="112.307" gradientUnits="userSpaceOnUse">
<stop offset="0.0364583" stop-color="#FEFDCD"/>
<stop offset="0.354167" stop-color="#FFFA2E"/>
<stop offset="0.682292" stop-color="#D5BE1E"/>
<stop offset="1" stop-color="#B58D34"/>
</linearGradient>
<clipPath id="clip0_328_1551">
<rect width="100" height="100" fill="white"/>
</clipPath>
</defs>
</svg>
