<svg width="100" height="100" viewBox="0 0 100 100" fill="none" xmlns="http://www.w3.org/2000/svg">
<g clip-path="url(#clip0_328_1577)">
<path d="M100 32.1077V77.9821C100 84.8187 94.4515 90.3672 87.6149 90.3672H12.3851C5.54577 90.3672 0 84.8187 0 77.9821V42.2029V32.1077V22.018C0 15.1759 5.54577 9.63287 12.3851 9.63287H38.991C45.046 9.63287 50.0661 13.9814 51.1449 19.7226H87.6149C94.4515 19.7226 100 25.2656 100 32.1077Z" fill="url(#paint0_linear_328_1577)"/>
<g filter="url(#filter0_d_328_1577)">
<path d="M80.0387 71.1381L55.7716 29.1062C53.1783 24.6146 46.6952 24.6146 44.102 29.1062L19.8348 71.1381C17.2416 75.6298 20.4831 81.2443 25.6696 81.2443H74.2039C79.3904 81.2443 82.632 75.6298 80.0387 71.1381Z" stroke="black" stroke-width="6.73747" shape-rendering="crispEdges"/>
</g>
</g>
<defs>
<filter id="filter0_d_328_1577" x="13.6834" y="20.5037" width="72.5068" height="65.9744" filterUnits="userSpaceOnUse" color-interpolation-filters="sRGB">
<feFlood flood-opacity="0" result="BackgroundImageFix"/>
<feColorMatrix in="SourceAlpha" type="matrix" values="0 0 0 0 0 0 0 0 0 0 0 0 0 0 0 0 0 0 127 0" result="hardAlpha"/>
<feOffset/>
<feGaussianBlur stdDeviation="0.932499"/>
<feComposite in2="hardAlpha" operator="out"/>
<feColorMatrix type="matrix" values="0 0 0 0 0.388235 0 0 0 0 0.945098 0 0 0 0 1 0 0 0 1 0"/>
<feBlend mode="normal" in2="BackgroundImageFix" result="effect1_dropShadow_328_1577"/>
<feBlend mode="normal" in="SourceGraphic" in2="effect1_dropShadow_328_1577" result="shape"/>
</filter>
<linearGradient id="paint0_linear_328_1577" x1="-3.57553" y1="7.00141" x2="81.407" y2="112.307" gradientUnits="userSpaceOnUse">
<stop offset="0.0364583" stop-color="#FEFDCD"/>
<stop offset="0.354167" stop-color="#FFFA2E"/>
<stop offset="0.682292" stop-color="#D5BE1E"/>
<stop offset="1" stop-color="#B58D34"/>
</linearGradient>
<clipPath id="clip0_328_1577">
<rect width="100" height="100" fill="white"/>
</clipPath>
</defs>
</svg>
