<svg width="100" height="100" viewBox="0 0 100 100" fill="none" xmlns="http://www.w3.org/2000/svg">
<g clip-path="url(#clip0_328_1414)">
<path d="M48.6879 20.1843L49.071 22.2226H51.1449H87.6149C93.0715 22.2226 97.5 26.647 97.5 32.1077V77.982C97.5 83.4379 93.0708 87.8671 87.6149 87.8671H12.3851C6.92684 87.8671 2.5 83.4383 2.5 77.982V42.2029V32.1077V22.0179C2.5 16.5569 6.92612 12.1328 12.3851 12.1328H38.991C43.815 12.1328 47.8259 15.5971 48.6879 20.1843Z" stroke="url(#paint0_linear_328_1414)" stroke-width="5"/>
<path d="M63 49C64.6569 49 66 47.6569 66 46C66 44.3431 64.6569 43 63 43C61.3431 43 60 44.3431 60 46C60 47.6569 61.3431 49 63 49Z" stroke="url(#paint1_linear_328_1414)" stroke-width="5" stroke-miterlimit="10"/>
<path d="M56.231 66.7327L44.4625 55.1948C43.7136 54.4592 42.7069 54.0325 41.6483 54.0018C40.5897 53.9711 39.5591 54.3387 38.7673 55.0296L23 68.7991M45.8458 79L61.8574 63.2737C62.5895 62.553 63.5695 62.1272 64.6048 62.0799C65.6402 62.0326 66.6562 62.3672 67.4532 63.0181L77 70.8391" stroke="url(#paint2_linear_328_1414)" stroke-width="5" stroke-linecap="round" stroke-linejoin="round"/>
<path d="M70.7696 34H29.2303C25.7894 34 23 36.7471 23 40.1359V72.8641C23 76.2529 25.7894 79 29.2303 79H70.7696C74.2106 79 77 76.2529 77 72.8641V40.1359C77 36.7471 74.2106 34 70.7696 34Z" stroke="url(#paint3_linear_328_1414)" stroke-width="5" stroke-linejoin="round"/>
</g>
<defs>
<linearGradient id="paint0_linear_328_1414" x1="-3.57553" y1="7.00138" x2="81.407" y2="112.307" gradientUnits="userSpaceOnUse">
<stop offset="0.0364583" stop-color="#FEFDCD"/>
<stop offset="0.354167" stop-color="#FFFA2E"/>
<stop offset="0.682292" stop-color="#D5BE1E"/>
<stop offset="1" stop-color="#B58D34"/>
</linearGradient>
<linearGradient id="paint1_linear_328_1414" x1="59.7855" y1="42.8044" x2="66.2469" y2="49.2685" gradientUnits="userSpaceOnUse">
<stop offset="0.0364583" stop-color="#FEFDCD"/>
<stop offset="0.354167" stop-color="#FFFA2E"/>
<stop offset="0.682292" stop-color="#D5BE1E"/>
<stop offset="1" stop-color="#B58D34"/>
</linearGradient>
<linearGradient id="paint2_linear_328_1414" x1="21.0692" y1="53.1851" x2="41.5923" y2="97.5331" gradientUnits="userSpaceOnUse">
<stop offset="0.0364583" stop-color="#FEFDCD"/>
<stop offset="0.354167" stop-color="#FFFA2E"/>
<stop offset="0.682292" stop-color="#D5BE1E"/>
<stop offset="1" stop-color="#B58D34"/>
</linearGradient>
<linearGradient id="paint3_linear_328_1414" x1="21.0692" y1="32.5333" x2="68.7322" y2="89.7523" gradientUnits="userSpaceOnUse">
<stop offset="0.0364583" stop-color="#FEFDCD"/>
<stop offset="0.354167" stop-color="#FFFA2E"/>
<stop offset="0.682292" stop-color="#D5BE1E"/>
<stop offset="1" stop-color="#B58D34"/>
</linearGradient>
<clipPath id="clip0_328_1414">
<rect width="100" height="100" fill="white"/>
</clipPath>
</defs>
</svg>
