<svg width="100" height="100" viewBox="0 0 100 100" fill="none" xmlns="http://www.w3.org/2000/svg">
<g clip-path="url(#clip0_328_1193)">
<path d="M48.6879 20.1843L49.071 22.2226H51.1449H87.6149C93.0715 22.2226 97.5 26.647 97.5 32.1077V77.9821C97.5 83.4379 93.0708 87.8672 87.6149 87.8672H12.3851C6.92684 87.8672 2.5 83.4383 2.5 77.9821V42.2029V32.1077V22.0179C2.5 16.5569 6.92612 12.1329 12.3851 12.1329H38.991C43.815 12.1329 47.8259 15.5971 48.6879 20.1843Z" stroke="url(#paint0_linear_328_1193)" stroke-width="5"/>
<path fill-rule="evenodd" clip-rule="evenodd" d="M55.1793 32.543C55.4792 31.154 54.5963 29.7849 53.2073 29.485C51.8183 29.1852 50.4492 30.0681 50.1494 31.457L40.0022 78.457C39.7023 79.846 40.5852 81.2151 41.9741 81.515C43.3631 81.8148 44.7322 80.932 45.0321 79.543L55.1793 32.543ZM36.2487 43.0011C37.2535 41.9963 37.2535 40.3672 36.2487 39.3624C35.2439 38.3577 33.6148 38.3577 32.61 39.3624L18.1807 53.7918C17.1759 54.7965 17.1759 56.4256 18.1807 57.4304L32.3475 71.5977C33.3522 72.6025 34.9813 72.6026 35.9861 71.5978C36.9909 70.5931 36.9909 68.964 35.9862 67.9592L23.6386 55.6111L36.2487 43.0011ZM62.5684 39.3624C61.5636 38.3577 59.9345 38.3577 58.9297 39.3624C57.9249 40.3672 57.9249 41.9963 58.9297 43.0011L71.5398 55.6111L59.1922 67.9592C58.1875 68.964 58.1875 70.5931 59.1923 71.5978C60.1971 72.6026 61.8262 72.6025 62.8309 71.5977L76.9977 57.4304C78.0025 56.4256 78.0025 54.7965 76.9977 53.7918L62.5684 39.3624Z" fill="url(#paint1_linear_328_1193)"/>
</g>
<defs>
<linearGradient id="paint0_linear_328_1193" x1="-3.57553" y1="7.00139" x2="81.407" y2="112.307" gradientUnits="userSpaceOnUse">
<stop offset="0.0364583" stop-color="#FEFDCD"/>
<stop offset="0.354167" stop-color="#FFFA2E"/>
<stop offset="0.682292" stop-color="#D5BE1E"/>
<stop offset="1" stop-color="#B58D34"/>
</linearGradient>
<linearGradient id="paint1_linear_328_1193" x1="17.4402" y1="29.6093" x2="81.0579" y2="77.1136" gradientUnits="userSpaceOnUse">
<stop stop-color="white"/>
<stop offset="0.848958" stop-color="#7F787F"/>
<stop offset="0.982609" stop-color="#4B454B"/>
</linearGradient>
<clipPath id="clip0_328_1193">
<rect width="100" height="100" fill="white"/>
</clipPath>
</defs>
</svg>
