<svg width="100" height="100" viewBox="0 0 100 100" fill="none" xmlns="http://www.w3.org/2000/svg">
<g clip-path="url(#clip0_328_933)">
<path d="M48.6879 20.1843L49.071 22.2225H51.1449H87.6149C93.0715 22.2225 97.5 26.647 97.5 32.1076V77.982C97.5 83.4379 93.0708 87.8671 87.6149 87.8671H12.3851C6.92684 87.8671 2.5 83.4382 2.5 77.982V42.2029V32.1076V22.0179C2.5 16.5569 6.92612 12.1328 12.3851 12.1328H38.991C43.815 12.1328 47.8259 15.597 48.6879 20.1843Z" stroke="url(#paint0_linear_328_933)" stroke-width="5"/>
<path d="M25.4688 73.4531C25.4688 71.9948 25.9896 70.7708 27.0312 69.7812C28.0208 68.7396 29.2448 68.2188 30.7031 68.2188H62.2656C63.2552 68.1667 64.0625 67.9323 64.6875 67.5156C65.3646 67.099 65.8594 66.6302 66.1719 66.1094C66.4844 65.5885 66.6406 65.0417 66.6406 64.4688C66.6406 63.8958 66.4844 63.349 66.1719 62.8281C65.8594 62.3073 65.3646 61.8385 64.6875 61.4219C64.0625 61.0052 63.2552 60.7708 62.2656 60.7188H30.8594C29.401 60.7188 28.1771 60.1979 27.1875 59.1562C26.1458 58.1667 25.625 56.9427 25.625 55.4844C25.625 54.026 26.1198 52.8021 27.1094 51.8125C28.151 50.7708 29.401 50.25 30.8594 50.25H61.7969C61.849 50.25 61.901 50.25 61.9531 50.25C62.9427 50.1979 63.75 49.9896 64.375 49.625C65.0521 49.2083 65.5469 48.7396 65.8594 48.2188C66.1719 47.6979 66.3281 47.151 66.3281 46.5781C66.3281 46.0573 66.1719 45.5365 65.8594 45.0156C65.5469 44.4948 65.0521 44.0521 64.375 43.6875C63.75 43.2708 62.9427 43.0365 61.9531 42.9844H30.5469C29.0885 42.9844 27.8646 42.4635 26.875 41.4219C25.8333 40.4844 25.3125 39.2865 25.3125 37.8281C25.3125 36.4219 25.8073 35.224 26.7969 34.2344C27.8385 33.2448 29.0885 32.75 30.5469 32.75H61.4844C65.1302 32.8021 68.125 33.6094 70.4688 35.1719C72.8646 36.6823 74.5573 38.4531 75.5469 40.4844C76.5885 42.5156 77.1094 44.5469 77.1094 46.5781C77.1094 48.6094 76.5885 50.6146 75.5469 52.5938C75.0781 53.5312 74.4792 54.3906 73.75 55.1719C74.6354 56.1094 75.3646 57.099 75.9375 58.1406C76.9271 60.224 77.4219 62.3333 77.4219 64.4688C77.4219 66.5 76.901 68.5573 75.8594 70.6406C74.8177 72.6719 73.125 74.4948 70.7812 76.1094C68.4375 77.6719 65.4427 78.5052 61.7969 78.6094H61.3281C61.0156 78.6615 60.7031 78.6875 60.3906 78.6875H30.7031C29.2448 78.6875 27.9948 78.1927 26.9531 77.2031C25.9635 76.1615 25.4688 74.9115 25.4688 73.4531Z" fill="url(#paint1_linear_328_933)"/>
</g>
<defs>
<linearGradient id="paint0_linear_328_933" x1="-3.57553" y1="7.00135" x2="81.407" y2="112.306" gradientUnits="userSpaceOnUse">
<stop offset="0.0364583" stop-color="#FEFDCD"/>
<stop offset="0.354167" stop-color="#FFFA2E"/>
<stop offset="0.682292" stop-color="#D5BE1E"/>
<stop offset="1" stop-color="#B58D34"/>
</linearGradient>
<linearGradient id="paint1_linear_328_933" x1="17.7474" y1="7.39247" x2="101.507" y2="73.3802" gradientUnits="userSpaceOnUse">
<stop offset="0.0364583" stop-color="#FEFDCD"/>
<stop offset="0.354167" stop-color="#FFFA2E"/>
<stop offset="0.682292" stop-color="#D5BE1E"/>
<stop offset="1" stop-color="#B58D34"/>
</linearGradient>
<clipPath id="clip0_328_933">
<rect width="100" height="100" fill="white"/>
</clipPath>
</defs>
</svg>
