<svg width="100" height="100" viewBox="0 0 100 100" fill="none" xmlns="http://www.w3.org/2000/svg">
<path d="M52.4972 7.67817L85.4036 26.6763C86.163 27.1144 86.7936 27.7447 87.232 28.5038C87.6704 29.263 87.9011 30.1242 87.9009 31.0009V69C87.9013 69.8768 87.6706 70.7382 87.2322 71.4976C86.7938 72.2569 86.1631 72.8874 85.4036 73.3254L52.4972 92.3218C51.7381 92.7605 50.8768 92.9915 50 92.9915C49.1232 92.9915 48.2618 92.7605 47.5027 92.3218L14.5963 73.3236C13.8371 72.8856 13.2067 72.2554 12.7683 71.4965C12.3299 70.7375 12.0991 69.8765 12.0991 69V31.0018C12.099 30.125 12.3297 29.2637 12.7681 28.5044C13.2064 27.7451 13.837 27.1146 14.5963 26.6763L47.5027 7.67817C48.2618 7.23927 49.1231 7.00818 50 7.00818C50.8768 7.00818 51.7382 7.23927 52.4972 7.67817Z" stroke="url(#paint0_linear_328_603)" stroke-width="8"/>
<path d="M35.6709 50.2691H64.06M64.5982 28.4728V71.5273M35.4018 28.4728V71.5273" stroke="url(#paint1_linear_328_603)" stroke-width="8" stroke-linecap="round" stroke-linejoin="round"/>
<defs>
<linearGradient id="paint0_linear_328_603" x1="9.38875" y1="4.20563" x2="101.259" y2="85.2307" gradientUnits="userSpaceOnUse">
<stop offset="0.0364583" stop-color="#FEFDCD"/>
<stop offset="0.354167" stop-color="#FFFA2E"/>
<stop offset="0.682292" stop-color="#D5BE1E"/>
<stop offset="1" stop-color="#B58D34"/>
</linearGradient>
<linearGradient id="paint1_linear_328_603" x1="34.3579" y1="27.0695" x2="77.4397" y2="56.2963" gradientUnits="userSpaceOnUse">
<stop offset="0.0364583" stop-color="#FEFDCD"/>
<stop offset="0.354167" stop-color="#FFFA2E"/>
<stop offset="0.682292" stop-color="#D5BE1E"/>
<stop offset="1" stop-color="#B58D34"/>
</linearGradient>
</defs>
</svg>
