<svg width="100" height="100" viewBox="0 0 100 100" fill="none" xmlns="http://www.w3.org/2000/svg">
<path d="M69.6064 40.2127C73.255 40.2127 76.2127 37.255 76.2127 33.6064C76.2127 29.9578 73.255 27 69.6064 27C65.9578 27 63 29.9578 63 33.6064C63 37.255 65.9578 40.2127 69.6064 40.2127Z" stroke="url(#paint0_linear_328_616)" stroke-width="8" stroke-miterlimit="10"/>
<path d="M59.851 66.4727L41.1356 47.7909C39.9445 46.6001 38.3436 45.9092 36.6602 45.8593C34.9767 45.8095 33.3377 46.4045 32.0783 47.5227L7.00012 69.8182M43.3356 86.3364L68.7992 60.8727C69.9637 59.7059 71.5224 59.0166 73.1692 58.9403C74.8159 58.8639 76.4317 59.406 77.6992 60.46L92.8838 73.1236" stroke="url(#paint1_linear_328_616)" stroke-width="8" stroke-linecap="round" stroke-linejoin="round"/>
<path d="M82.9747 13.6646H16.9101C11.437 13.6646 7.00012 18.1014 7.00012 23.5746V76.4264C7.00012 81.8995 11.437 86.3364 16.9101 86.3364H82.9747C88.4478 86.3364 92.8847 81.8995 92.8847 76.4264V23.5746C92.8847 18.1014 88.4478 13.6646 82.9747 13.6646Z" stroke="url(#paint2_linear_328_616)" stroke-width="8" stroke-linejoin="round"/>
<defs>
<linearGradient id="paint0_linear_328_616" x1="62.5276" y1="26.5693" x2="76.7565" y2="40.8041" gradientUnits="userSpaceOnUse">
<stop offset="0.0364583" stop-color="#FEFDCD"/>
<stop offset="0.354167" stop-color="#FFFA2E"/>
<stop offset="0.682292" stop-color="#D5BE1E"/>
<stop offset="1" stop-color="#B58D34"/>
</linearGradient>
<linearGradient id="paint1_linear_328_616" x1="3.92933" y1="44.537" x2="37.5448" y2="115.886" gradientUnits="userSpaceOnUse">
<stop offset="0.0364583" stop-color="#FEFDCD"/>
<stop offset="0.354167" stop-color="#FFFA2E"/>
<stop offset="0.682292" stop-color="#D5BE1E"/>
<stop offset="1" stop-color="#B58D34"/>
</linearGradient>
<linearGradient id="paint2_linear_328_616" x1="3.9293" y1="11.2959" x2="81.1056" y2="102.541" gradientUnits="userSpaceOnUse">
<stop offset="0.0364583" stop-color="#FEFDCD"/>
<stop offset="0.354167" stop-color="#FFFA2E"/>
<stop offset="0.682292" stop-color="#D5BE1E"/>
<stop offset="1" stop-color="#B58D34"/>
</linearGradient>
</defs>
</svg>
