<svg width="100" height="100" viewBox="0 0 100 100" fill="none" xmlns="http://www.w3.org/2000/svg">
<path fill-rule="evenodd" clip-rule="evenodd" d="M90.4464 15.4463C92.0735 13.8191 92.0735 11.1809 90.4464 9.55376C88.8192 7.92658 86.181 7.92658 84.5538 9.55376L50.0001 44.1075V29.1667C50.0001 26.8655 48.1346 25 45.8334 25C43.5322 25 41.6667 26.8655 41.6667 29.1667V54.1667C41.6667 54.7247 41.7765 55.2572 41.9755 55.7436C42.1789 56.2418 42.4828 56.7086 42.8871 57.113C43.2993 57.5252 43.7764 57.833 44.2855 58.0363C44.7147 58.2082 45.1792 58.3107 45.665 58.33C45.7273 58.3325 45.7896 58.3336 45.852 58.3333H70.8334C73.1346 58.3333 75.0001 56.4678 75.0001 54.1667C75.0001 51.8655 73.1346 50 70.8334 50H55.8927L90.4464 15.4463Z" fill="url(#paint0_linear_328_1618)"/>
<path d="M87.5 54.1667V83.3333C87.5 84.4384 87.061 85.4982 86.2796 86.2796C85.4982 87.061 84.4384 87.5 83.3333 87.5H16.6667C15.5616 87.5 14.5018 87.061 13.7204 86.2796C12.939 85.4982 12.5 84.4384 12.5 83.3333V16.6667C12.5 15.5616 12.939 14.5018 13.7204 13.7204C14.5018 12.939 15.5616 12.5 16.6667 12.5H45.8333" stroke="url(#paint1_linear_328_1618)" stroke-width="8.33333" stroke-linecap="round" stroke-linejoin="round"/>
<defs>
<linearGradient id="paint0_linear_328_1618" x1="39.879" y1="6.70367" x2="93.7244" y2="60.5712" gradientUnits="userSpaceOnUse">
<stop offset="0.0364583" stop-color="#FEFDCD"/>
<stop offset="0.354167" stop-color="#FFFA2E"/>
<stop offset="0.682292" stop-color="#D5BE1E"/>
<stop offset="1" stop-color="#B58D34"/>
</linearGradient>
<linearGradient id="paint1_linear_328_1618" x1="12.5163" y1="12.7628" x2="99.479" y2="68.8967" gradientUnits="userSpaceOnUse">
<stop stop-color="white"/>
<stop offset="0.848958" stop-color="#7F787F"/>
<stop offset="0.982609" stop-color="#4B454B"/>
</linearGradient>
</defs>
</svg>
