<svg width="100" height="100" viewBox="0 0 100 100" fill="none" xmlns="http://www.w3.org/2000/svg">
<path d="M19.6973 7.32909L80.3027 7.28455C86.2555 7.28 92.93 13.9591 92.93 19.9109V80.5173C92.93 86.3691 86.1555 92.7155 80.3027 92.7155H19.6973C13.8446 92.7155 7.07001 86.3691 7.07001 80.5173V19.9109C7.07001 13.9691 13.7555 7.33364 19.6973 7.32909Z" stroke="url(#paint0_linear_328_622)" stroke-width="8" stroke-linecap="round" stroke-linejoin="round"/>
<path d="M56.5546 56.7545C56.5546 56.7545 56.5528 56.6955 55.96 56.16C55.4159 55.6687 54.7969 55.2673 54.1264 54.9709C53.5046 54.6936 52.9318 54.5764 52.2928 54.4755C51.6537 54.3745 51.3473 54.4209 50.6082 54.4627C49.8682 54.5045 48.9782 54.6036 48.3655 54.9082C47.7528 55.2145 47.0609 55.5764 46.6682 55.95C46.2755 56.3227 46.02 56.6864 45.7509 57.1518C45.4739 57.6355 45.2577 58.1515 45.1073 58.6882C44.9691 59.1973 44.9118 59.5245 44.9091 60.1745C44.9064 60.8236 44.9855 61.8509 45.2064 62.5527C45.4273 63.2545 45.7764 63.8227 46.1482 64.3373C46.5191 64.8509 46.9664 65.3273 47.3864 65.6255C47.8073 65.9246 48.0128 66.0755 48.6255 66.3691C49.2382 66.6627 50.2109 66.9882 51.0537 67.41C51.8964 67.8309 52.8628 68.2827 53.6309 68.6982C54.3982 69.1136 55.1128 69.4891 55.6628 69.8873C56.2128 70.2855 56.56 70.5964 56.9509 71.0273C57.3418 71.4582 57.7264 71.9545 57.9918 72.4636C58.2564 72.9745 58.4309 73.3345 58.5546 74.0327C58.6164 74.3818 58.6437 74.8691 58.6473 75.3473C58.6518 75.8255 58.6337 76.2945 58.6037 76.6091C58.5455 77.2391 58.4937 77.3 58.3382 77.8164C58.1837 78.3336 57.8146 79.1627 57.42 79.7C57.0255 80.2364 56.6164 80.5891 56.0591 80.9382C55.5005 81.2902 54.9013 81.5732 54.2746 81.7809C53.69 81.9673 53.2682 82.0118 52.59 82.0782C51.9118 82.1446 51.0355 82.2073 50.2109 82.1282C49.3516 82.0364 48.5044 81.8535 47.6837 81.5827C46.9646 81.3391 46.4255 81.1027 45.9 80.74C45.3746 80.3782 45.1546 80.2145 44.8591 79.8727C44.4664 79.4182 43.9173 78.3364 43.9173 78.3364" stroke="url(#paint1_linear_328_622)" stroke-width="8" stroke-linecap="round" stroke-linejoin="round"/>
<path d="M34.3854 54.7136C34.3854 54.7136 34.4354 68.8154 34.3854 76.0536C34.3809 76.6154 34.3791 77.1827 34.28 77.7354C34.2137 78.0966 34.1079 78.4493 33.9645 78.7873C33.8618 79.0327 33.7254 79.2645 33.5791 79.4873C33.37 79.8091 33.1491 80.1282 32.8791 80.3991C32.644 80.6248 32.3852 80.8245 32.1072 80.9945C31.6211 81.3134 31.1047 81.5835 30.5654 81.8009C30.1021 81.9812 29.6204 82.1105 29.1291 82.1863C28.6075 82.268 28.0785 82.2914 27.5518 82.2564C27.1654 82.2291 26.7834 82.1587 26.4127 82.0463C25.9018 81.8918 25.3972 81.6927 24.9409 81.4154C24.6118 81.2154 24.3227 80.9509 24.0482 80.6791C23.7645 80.4 23.5227 80.0818 23.2772 79.7682C23.1791 79.6436 22.9963 79.3827 22.9963 79.3827" stroke="url(#paint2_linear_328_622)" stroke-width="8" stroke-linecap="round" stroke-linejoin="round"/>
<path d="M66.6809 82.3973L81.5836 55.2109ZM81.5836 82.3973L66.6818 55.2109Z" fill="url(#paint3_linear_328_622)"/>
<path d="M66.6809 82.3973L81.5836 55.2109M81.5836 82.3973L66.6818 55.2109" stroke="url(#paint4_linear_328_622)" stroke-width="8" stroke-linecap="round" stroke-linejoin="round"/>
<defs>
<linearGradient id="paint0_linear_328_622" x1="4.00006" y1="4.5" x2="96.0001" y2="97" gradientUnits="userSpaceOnUse">
<stop offset="0.0364583" stop-color="#FEFDCD"/>
<stop offset="0.354167" stop-color="#FFFA2E"/>
<stop offset="0.682292" stop-color="#D5BE1E"/>
<stop offset="1" stop-color="#B58D34"/>
</linearGradient>
<linearGradient id="paint1_linear_328_622" x1="43.3906" y1="53.5104" x2="68.1488" y2="66.6581" gradientUnits="userSpaceOnUse">
<stop offset="0.0364583" stop-color="#FEFDCD"/>
<stop offset="0.354167" stop-color="#FFFA2E"/>
<stop offset="0.682292" stop-color="#D5BE1E"/>
<stop offset="1" stop-color="#B58D34"/>
</linearGradient>
<linearGradient id="paint2_linear_328_622" x1="22.5883" y1="53.8154" x2="43.575" y2="62.509" gradientUnits="userSpaceOnUse">
<stop offset="0.0364583" stop-color="#FEFDCD"/>
<stop offset="0.354167" stop-color="#FFFA2E"/>
<stop offset="0.682292" stop-color="#D5BE1E"/>
<stop offset="1" stop-color="#B58D34"/>
</linearGradient>
<linearGradient id="paint3_linear_328_622" x1="66.1481" y1="54.3248" x2="90.8348" y2="67.8629" gradientUnits="userSpaceOnUse">
<stop offset="0.0364583" stop-color="#FEFDCD"/>
<stop offset="0.354167" stop-color="#FFFA2E"/>
<stop offset="0.682292" stop-color="#D5BE1E"/>
<stop offset="1" stop-color="#B58D34"/>
</linearGradient>
<linearGradient id="paint4_linear_328_622" x1="66.1481" y1="54.3248" x2="90.8348" y2="67.8629" gradientUnits="userSpaceOnUse">
<stop offset="0.0364583" stop-color="#FEFDCD"/>
<stop offset="0.354167" stop-color="#FFFA2E"/>
<stop offset="0.682292" stop-color="#D5BE1E"/>
<stop offset="1" stop-color="#B58D34"/>
</linearGradient>
</defs>
</svg>
