<svg width="100" height="100" viewBox="0 0 100 100" fill="none" xmlns="http://www.w3.org/2000/svg">
<path d="M50.0027 35.6455C50.0027 30.8601 53.4191 26.0755 60.2573 26.0755C63.8823 26.075 67.3587 24.6347 69.9219 22.0713C72.4851 19.508 73.9252 16.0315 73.9255 12.4064V9.33005M30.8636 35.6464V33.2537C30.8636 29.4468 32.3759 25.7958 35.0677 23.1038C37.7595 20.4118 41.4104 18.8994 45.2173 18.8991C46.474 18.8993 47.7184 18.6518 48.8795 18.171C50.0406 17.6902 51.0956 16.9853 51.9842 16.0967C52.8729 15.2082 53.5778 14.1532 54.0588 12.9922C54.5397 11.8312 54.7873 10.5868 54.7873 9.33005V6.93823M69.1418 45.2155H81.1036C84.2761 45.2155 87.3186 46.4758 89.5619 48.719C91.8052 50.9623 93.0655 54.0049 93.0655 57.1773C93.0655 60.3498 91.8052 63.3923 89.5619 65.6356C87.3186 67.8789 84.2761 69.1391 81.1036 69.1391H73.9264M73.9264 48.0864V64.3537C73.9266 68.1239 73.1842 71.8571 71.7416 75.3404C70.299 78.8236 68.1844 81.9886 65.5186 84.6546C62.8528 87.3206 59.6879 89.4354 56.2048 90.8782C52.7216 92.3211 48.9884 93.0637 45.2182 93.0637H35.6491C31.8789 93.0638 28.1457 92.3213 24.6625 90.8786C21.1793 89.4359 18.0143 87.3212 15.3484 84.6553C12.6825 81.9893 10.5678 78.8244 9.12511 75.3412C7.68238 71.858 6.93988 68.1248 6.94 64.3546V48.0864C6.94 47.7093 7.01429 47.3359 7.15862 46.9876C7.30296 46.6392 7.51451 46.3227 7.78119 46.0561C8.04788 45.7895 8.36447 45.578 8.71289 45.4338C9.06131 45.2896 9.43473 45.2154 9.81182 45.2155H71.0546C71.816 45.2155 72.5462 45.518 73.0846 46.0564C73.623 46.5948 73.9264 47.325 73.9264 48.0864Z" stroke="url(#paint0_linear_328_620)" stroke-width="8" stroke-linecap="round" stroke-linejoin="round"/>
<defs>
<linearGradient id="paint0_linear_328_620" x1="3.86056" y1="4.13105" x2="96.6099" y2="96.9184" gradientUnits="userSpaceOnUse">
<stop offset="0.0364583" stop-color="#FEFDCD"/>
<stop offset="0.354167" stop-color="#FFFA2E"/>
<stop offset="0.682292" stop-color="#D5BE1E"/>
<stop offset="1" stop-color="#B58D34"/>
</linearGradient>
</defs>
</svg>
