<svg width="100" height="100" viewBox="0 0 100 100" fill="none" xmlns="http://www.w3.org/2000/svg">
<path d="M19.6973 7.32909L80.3027 7.28455C86.2555 7.28 92.93 13.9591 92.93 19.9109V80.5173C92.93 86.3691 86.1555 92.7155 80.3027 92.7155H19.6973C13.8446 92.7155 7.07001 86.3691 7.07001 80.5173V19.9109C7.07001 13.9691 13.7555 7.33364 19.6973 7.32909Z" stroke="url(#paint0_linear_328_627)" stroke-width="8" stroke-linecap="round" stroke-linejoin="round"/>
<path d="M79.9428 52.7273C79.9428 52.7273 79.941 52.6591 79.261 52.0455C78.6373 51.4821 77.9278 51.0218 77.1591 50.6818C76.4464 50.3636 75.79 50.23 75.0564 50.1136C74.3237 49.9973 73.9728 50.0518 73.1246 50.0991C72.2773 50.1473 71.2564 50.26 70.5537 50.6109C69.8519 50.9609 69.0582 51.3755 68.6082 51.8036C68.1582 52.2327 67.8646 52.6491 67.5564 53.1818C67.2387 53.7361 66.9908 54.3276 66.8182 54.9427C66.66 55.5273 66.5937 55.9027 66.591 56.6473C66.5882 57.3927 66.6782 58.57 66.9319 59.3746C67.1855 60.18 67.5864 60.8309 68.011 61.42C68.4373 62.01 68.9491 62.5555 69.4319 62.8973C69.9137 63.24 70.15 63.4136 70.8519 63.75C71.5555 64.0864 72.67 64.46 73.6364 64.9427C74.6019 65.4264 75.711 65.9436 76.591 66.42C77.471 66.8973 78.29 67.3273 78.92 67.7836C79.551 68.2409 79.9491 68.5964 80.3973 69.0909C80.8464 69.5855 81.2873 70.1536 81.591 70.7382C81.8946 71.3236 82.0946 71.7364 82.2364 72.5364C82.3073 72.9364 82.3382 73.4955 82.3428 74.0436C82.3473 74.5918 82.3264 75.1309 82.2928 75.4909C82.2255 76.2127 82.1655 76.2818 81.9891 76.8746C81.811 77.4682 81.3882 78.4182 80.9355 79.0336C80.4828 79.65 80.0137 80.0536 79.3755 80.4546C78.7364 80.8546 78 81.2073 77.33 81.42C76.6591 81.6336 76.1755 81.6855 75.3982 81.7609C74.62 81.8373 73.6146 81.9091 72.671 81.8182C71.7255 81.7273 70.5982 81.4727 69.7728 81.1927C68.9482 80.9136 68.33 80.6427 67.7273 80.2273C67.1246 79.8118 66.8728 79.6246 66.5346 79.2327C66.0837 78.7118 65.4546 77.4727 65.4546 77.4727" stroke="url(#paint1_linear_328_627)" stroke-width="8" stroke-linecap="round" stroke-linejoin="round"/>
<path d="M54.5255 50.3873C54.5255 50.3873 54.5837 66.5554 54.5255 74.8545C54.5209 75.4982 54.5182 76.1491 54.4046 76.7827C54.3309 77.1955 54.2046 77.6009 54.0427 77.9882C53.9246 78.27 53.7682 78.5354 53.6009 78.7918C53.3609 79.1591 53.1082 79.5255 52.7973 79.8364C52.5337 80.1 52.2273 80.3182 51.9137 80.5191C51.3537 80.8782 50.7655 81.2009 50.1455 81.4436C49.6141 81.6504 49.0617 81.7985 48.4982 81.8854C47.9006 81.9788 47.2945 82.0057 46.6909 81.9655C46.2478 81.9342 45.8096 81.8534 45.3846 81.7245C44.7991 81.5473 44.2209 81.32 43.6973 81.0018C43.32 80.7709 42.9882 80.4682 42.6727 80.1573C42.3482 79.8373 42.0709 79.4718 41.7891 79.1127C41.6764 78.97 41.4673 78.6709 41.4673 78.6709" stroke="url(#paint2_linear_328_627)" stroke-width="8" stroke-linecap="round" stroke-linejoin="round"/>
<defs>
<linearGradient id="paint0_linear_328_627" x1="4.00006" y1="4.5" x2="96.0001" y2="97" gradientUnits="userSpaceOnUse">
<stop offset="0.0364583" stop-color="#FEFDCD"/>
<stop offset="0.354167" stop-color="#FFFA2E"/>
<stop offset="0.682292" stop-color="#D5BE1E"/>
<stop offset="1" stop-color="#B58D34"/>
</linearGradient>
<linearGradient id="paint1_linear_328_627" x1="64.8507" y1="49.0071" x2="93.2364" y2="64.0809" gradientUnits="userSpaceOnUse">
<stop offset="0.0364583" stop-color="#FEFDCD"/>
<stop offset="0.354167" stop-color="#FFFA2E"/>
<stop offset="0.682292" stop-color="#D5BE1E"/>
<stop offset="1" stop-color="#B58D34"/>
</linearGradient>
<linearGradient id="paint2_linear_328_627" x1="40.9995" y1="49.3574" x2="65.0621" y2="59.3258" gradientUnits="userSpaceOnUse">
<stop offset="0.0364583" stop-color="#FEFDCD"/>
<stop offset="0.354167" stop-color="#FFFA2E"/>
<stop offset="0.682292" stop-color="#D5BE1E"/>
<stop offset="1" stop-color="#B58D34"/>
</linearGradient>
</defs>
</svg>
