<svg width="100" height="100" viewBox="0 0 100 100" fill="none" xmlns="http://www.w3.org/2000/svg">
<path d="M48.9055 36.75L37.4873 8.97545H91.8291L79.8309 36.7618M75.1018 37.4064C71.5109 31.5609 68.4673 26.01 64.53 19.53L53.1055 37.1145M59.7518 45.8509H69.8336M85.6482 54.3409C85.6482 54.3409 87.8064 58.29 87.6827 60.4527C87.5591 62.6155 86.24 64.4873 85.1173 66.2282C83.9946 67.9682 83.1227 69.0854 81.2964 71.0036C79.47 72.9218 76.5618 75.6709 73.9736 77.4782C71.3846 79.2845 68.8945 80.3845 65.9073 81.8291C62.92 83.2745 58.9373 85.0409 56.0373 86.0745C53.1373 87.1073 51.1736 87.5745 48.6082 88.1973C46.0418 88.8191 43.1991 89.3873 40.6482 89.7882C38.0982 90.1909 35.5555 90.45 33.3255 90.6382C31.0945 90.8255 29.1164 90.9273 27.2755 90.9564C25.4346 90.9855 23.9682 91.13 22.2873 90.85C20.6064 90.57 18.7755 89.9682 17.2991 89.2591C15.8236 88.5482 14.5864 87.7346 13.4782 86.7109C12.3699 85.7054 11.4374 84.5218 10.7191 83.2091C9.92819 81.7864 9.33728 79.8927 8.91455 78.2209C8.49273 76.5482 8.19273 74.8027 8.17182 73.2327C8.15091 71.6618 8.39273 70.2309 8.70273 68.8809C8.99466 67.6013 9.42128 66.3561 9.97546 65.1664C10.4991 64.0491 10.8809 63.3064 11.7809 62.1945C12.6809 61.0827 14.5227 59.4355 15.4955 58.6927C16.0909 58.2398 16.7308 57.8487 17.4055 57.5255M17.83 57.3127C17.83 57.3127 17.3482 60.9255 17.5118 62.7255C17.6464 64.2127 17.9418 65.7236 18.5727 67.0773C19.2046 68.43 20.0782 69.73 21.2264 70.6855C22.2236 71.5155 23.4636 72.0927 24.7282 72.3836C26.3491 72.7564 28.0845 72.7027 29.7164 72.3836C31.7409 71.9873 33.5991 70.9636 35.4473 70.0482C36.8836 69.3373 38.2991 68.56 39.5873 67.6073C40.9401 66.6073 42.185 65.469 43.3018 64.2109C44.1091 63.3 44.7618 62.2609 45.4236 61.24C46.0709 60.2418 46.6218 59.1855 47.2282 58.1618C47.4391 57.8073 48.0773 56.4109 48.0773 56.4109M28.2773 46.1709C28.2773 51.1159 24.2686 55.1245 19.3236 55.1245C14.3787 55.1245 10.37 51.1159 10.37 46.1709C10.37 41.2259 14.3787 37.2173 19.3236 37.2173C24.2686 37.2173 28.2773 41.2259 28.2773 46.1709ZM58.7464 46.1709C58.7464 51.1159 54.7377 55.1245 49.7927 55.1245C44.8478 55.1245 40.8391 51.1159 40.8391 46.1709C40.8391 41.2259 44.8478 37.2173 49.7927 37.2173C54.7377 37.2173 58.7464 41.2259 58.7464 46.1709ZM88.4646 46.1709C88.4646 51.1159 84.4559 55.1245 79.5109 55.1245C74.566 55.1245 70.5573 51.1159 70.5573 46.1709C70.5573 41.2259 74.566 37.2173 79.5109 37.2173C84.4559 37.2173 88.4646 41.2259 88.4646 46.1709Z" stroke="url(#paint0_linear_328_631)" stroke-width="8" stroke-linecap="round" stroke-linejoin="round"/>
<defs>
<linearGradient id="paint0_linear_328_631" x1="5.17933" y1="6.3013" x2="93.5159" y2="96.4131" gradientUnits="userSpaceOnUse">
<stop offset="0.0364583" stop-color="#FEFDCD"/>
<stop offset="0.354167" stop-color="#FFFA2E"/>
<stop offset="0.682292" stop-color="#D5BE1E"/>
<stop offset="1" stop-color="#B58D34"/>
</linearGradient>
</defs>
</svg>
