<svg width="100" height="100" viewBox="0 0 100 100" fill="none" xmlns="http://www.w3.org/2000/svg">
<path d="M78.1136 93.1227V70.9363C71.8209 66.979 70.1163 60.56 70.1163 51.8918M53.38 63.1045V76.709L59.0691 93.1227M38.2927 63.1881V93.1227M92.0473 93.1227V58.159C92.0473 58.159 90.6454 47.1109 83.0609 47.1109C83.2254 40.9272 82.1536 6.95995 68.4682 6.87723C54.7818 6.79541 54.04 25.1818 54.04 25.1818C45.5482 29.029 40.1891 35.5972 38.7045 44.1436V20.8936C38.7045 16.739 34.8045 12.1545 30.6254 12.1545C24.6282 12.1545 21.8982 16.9272 20.8145 20.9754H12.8172C10.0963 21.7045 7.95361 24.9309 7.95361 27.6536C7.95361 30.99 9.96543 34.4145 12.9818 34.4145H23.9472V52.0572C23.9472 58.3936 29.7 62.8572 36.0663 62.8572H59.4" stroke="url(#paint0_linear_328_1683)" stroke-width="8" stroke-linecap="round" stroke-linejoin="round"/>
<defs>
<linearGradient id="paint0_linear_328_1683" x1="4.94682" y1="4.06585" x2="97.797" y2="94.6362" gradientUnits="userSpaceOnUse">
<stop offset="0.0364583" stop-color="#FEFDCD"/>
<stop offset="0.354167" stop-color="#FFFA2E"/>
<stop offset="0.682292" stop-color="#D5BE1E"/>
<stop offset="1" stop-color="#B58D34"/>
</linearGradient>
</defs>
</svg>
