<svg width="100" height="100" viewBox="0 0 100 100" fill="none" xmlns="http://www.w3.org/2000/svg">
<path fill-rule="evenodd" clip-rule="evenodd" d="M45.1146 11.3792L45.0726 11.3794C30.6841 11.5305 19.2237 23.2613 19.2237 35.4855V77.0873C19.2237 78.5676 18.0182 80.621 14.8964 80.621C13.9448 80.621 12.8821 80.1923 12.0371 79.424C11.1566 78.6233 10.9246 77.8511 10.9246 77.5146V74.4737C10.9246 72.2646 9.1337 70.4737 6.92456 70.4737C4.71542 70.4737 2.92456 72.2646 2.92456 74.4737V77.5146C2.92456 80.6863 4.59248 83.4673 6.65495 85.3428C8.7529 87.2505 11.6761 88.621 14.8964 88.621C22.5436 88.621 27.2237 82.878 27.2237 77.0873V35.4855C27.2237 28.0112 34.7749 19.4993 45.1356 19.3792C50.7306 19.3849 55.4454 21.6635 58.7766 24.8154C62.2002 28.0548 63.8391 31.8846 63.8391 34.6519C63.8391 34.7257 63.8412 34.7995 63.8452 34.8733C64.2648 42.4423 62.1504 46.3427 59.1307 49.037C56.03 51.8034 51.7643 53.5592 46.3178 55.801L46.3177 55.801C45.7368 56.0402 45.1423 56.2848 44.5345 56.5368C43.0404 57.1563 42.0664 58.6145 42.0664 60.2319V83.6692C42.0664 85.8783 43.8572 87.6692 46.0664 87.6692H93.0609C95.2701 87.6692 97.0609 85.8783 97.0609 83.6692V54.3947C97.2049 51.4632 95.9804 48.1984 94.4545 45.4732C92.8293 42.5707 90.495 39.622 87.7304 37.3774C87.683 37.3389 87.6346 37.3015 87.5855 37.2652C82.394 33.4311 77.0962 31.6206 71.4536 31.1427C70.5078 26.7555 67.8838 22.4189 64.2748 19.0043C59.6138 14.5942 52.974 11.3792 45.1146 11.3792ZM64.4567 55.0064C68.6696 51.2475 71.3075 46.2358 71.8097 39.2209C75.6762 39.7012 79.2077 41.0411 82.757 43.6447C84.6053 45.1632 86.2887 47.2644 87.4742 49.3817C88.7479 51.6564 89.1137 53.3435 89.0694 54.0222C89.0638 54.1089 89.0609 54.1959 89.0609 54.2828V79.6692H71.76V68.0444C71.76 66.7892 70.7425 65.7717 69.4873 65.7717C68.2321 65.7717 67.2146 66.7892 67.2146 68.0444V79.6692H50.0664V62.9146C55.0719 60.8663 60.4255 58.603 64.4567 55.0064Z" fill="url(#paint0_linear_328_1685)"/>
<path d="M36.3636 41.06C38.874 41.06 40.9091 39.025 40.9091 36.5146C40.9091 34.0042 38.874 31.9691 36.3636 31.9691C33.8532 31.9691 31.8182 34.0042 31.8182 36.5146C31.8182 39.025 33.8532 41.06 36.3636 41.06Z" fill="url(#paint1_linear_328_1685)"/>
<defs>
<linearGradient id="paint0_linear_328_1685" x1="-0.441722" y1="8.86152" x2="81.131" y2="108.329" gradientUnits="userSpaceOnUse">
<stop offset="0.0364583" stop-color="#FEFDCD"/>
<stop offset="0.354167" stop-color="#FFFA2E"/>
<stop offset="0.682292" stop-color="#D5BE1E"/>
<stop offset="1" stop-color="#B58D34"/>
</linearGradient>
<linearGradient id="paint1_linear_328_1685" x1="31.4931" y1="31.6728" x2="41.2832" y2="41.4669" gradientUnits="userSpaceOnUse">
<stop offset="0.0364583" stop-color="#FEFDCD"/>
<stop offset="0.354167" stop-color="#FFFA2E"/>
<stop offset="0.682292" stop-color="#D5BE1E"/>
<stop offset="1" stop-color="#B58D34"/>
</linearGradient>
</defs>
</svg>
