<svg width="100" height="100" viewBox="0 0 100 100" fill="none" xmlns="http://www.w3.org/2000/svg">
<g clip-path="url(#clip0_328_714)">
<path fill-rule="evenodd" clip-rule="evenodd" d="M7.45871 54.0979C6.70353 54.8507 6.28017 55.8738 6.28262 56.9401L6.35806 89.6814C6.36315 91.8884 8.15478 93.6742 10.3618 93.6721L89.602 93.5984C91.8083 93.5963 93.5963 91.8083 93.5983 89.6021L93.6721 10.3618C93.6731 9.30035 93.2521 8.28199 92.5019 7.53105C91.7516 6.7801 90.7337 6.35815 89.6722 6.35812L57.0055 6.35728C55.9468 6.35726 54.9313 6.77693 54.1815 7.52433L7.45871 54.0979ZM16.3461 85.6666C15.2426 85.6676 14.3468 84.7747 14.3442 83.6712L14.2884 59.4207C14.2871 58.8875 14.4988 58.376 14.8764 57.9996L58.0731 14.9409C58.448 14.5672 58.9557 14.3573 59.4851 14.3573L83.6665 14.358C84.7718 14.358 85.6675 15.2546 85.6665 16.3598L85.6039 83.6058C85.6029 84.7089 84.7089 85.6029 83.6058 85.604L16.3461 85.6666ZM78.609 27.4707C78.6063 25.6904 76.4537 24.8006 75.1948 26.0595L52.173 49.0813C51.392 49.8623 51.392 51.1287 52.173 51.9097L75.2641 75.0008C76.525 76.2618 78.681 75.3668 78.6783 73.5836L78.609 27.4707Z" fill="url(#paint0_linear_328_714)"/>
</g>
<defs>
<linearGradient id="paint0_linear_328_714" x1="-16.7547" y1="74.2926" x2="133.364" y2="98.2017" gradientUnits="userSpaceOnUse">
<stop offset="0.0364583" stop-color="#FEFDCD"/>
<stop offset="0.354167" stop-color="#FFFA2E"/>
<stop offset="0.682292" stop-color="#D5BE1E"/>
<stop offset="1" stop-color="#B58D34"/>
</linearGradient>
<clipPath id="clip0_328_714">
<rect width="100" height="100" fill="white"/>
</clipPath>
</defs>
</svg>
