<svg width="100" height="100" viewBox="0 0 100 100" fill="none" xmlns="http://www.w3.org/2000/svg">
<path fill-rule="evenodd" clip-rule="evenodd" d="M20.8508 19.5273C20.8508 18.0655 21.8266 15.9281 23.8969 13.9783C25.9533 12.0417 28.2858 11.0564 29.9099 11.0564H45.9999V31.8182C45.9999 35.4573 46.8673 38.9156 49.589 41.3191C52.1938 43.6195 55.6829 44.2064 59.0908 44.2064H79.149V79.8846C79.149 81.5607 78.126 83.8675 76.0996 85.8941C74.0732 87.9205 71.7664 88.9437 70.0899 88.9437H29.9099C28.2334 88.9437 25.9266 87.9205 23.9002 85.8941C21.8738 83.8675 20.8508 81.5607 20.8508 79.8846V19.5273ZM87.149 40.2064C87.149 39.0981 86.6983 38.0951 85.9701 37.3707L52.8355 4.23512C52.1111 3.50706 51.1081 3.0564 49.9999 3.0564H29.9099C25.5985 3.0564 21.4015 5.33923 18.4122 8.15444C15.4369 10.9565 12.8508 15.0545 12.8508 19.5273V79.8846C12.8508 84.3639 15.2792 88.5866 18.2432 91.5508C21.2073 94.515 25.4301 96.9437 29.9099 96.9437H70.0899C74.5698 96.9437 78.7925 94.515 81.7566 91.5508C84.7206 88.5866 87.149 84.3639 87.149 79.8846V40.2201M53.9999 16.7135L73.4923 36.2064H59.0908C56.3424 36.2064 55.2861 35.6774 54.8845 35.3227C54.5998 35.0713 53.9999 34.3355 53.9999 31.8182V16.7135Z" fill="url(#paint0_linear_328_567)"/>
<path fill-rule="evenodd" clip-rule="evenodd" d="M37.6149 50.7421C37.2221 50.7415 36.8453 50.8977 36.5682 51.1761L28.0592 59.7243C27.4857 60.3005 27.4872 61.2324 28.0626 61.8068L48.7227 82.4285C49.298 83.0026 50.2294 83.0026 50.8047 82.4285L71.4648 61.8068C71.7416 61.5305 71.8972 61.1556 71.8973 60.7646C71.8975 60.3735 71.7423 59.9985 71.4658 59.722L62.9568 51.2126C62.6811 50.9368 62.3072 50.7816 61.9172 50.781L37.6149 50.7421Z" fill="url(#paint1_linear_328_567)"/>
<defs>
<linearGradient id="paint0_linear_328_567" x1="10.1943" y1="-0.00377283" x2="108.605" y2="77.9061" gradientUnits="userSpaceOnUse">
<stop offset="0.0364583" stop-color="#FEFDCD"/>
<stop offset="0.354167" stop-color="#FFFA2E"/>
<stop offset="0.682292" stop-color="#D5BE1E"/>
<stop offset="1" stop-color="#B58D34"/>
</linearGradient>
<linearGradient id="paint1_linear_328_567" x1="49.6717" y1="36.4448" x2="49.6407" y2="85.4626" gradientUnits="userSpaceOnUse">
<stop offset="0.0364583" stop-color="#FEFDCD"/>
<stop offset="0.354167" stop-color="#FFFA2E"/>
<stop offset="0.682292" stop-color="#D5BE1E"/>
<stop offset="1" stop-color="#B58D34"/>
</linearGradient>
</defs>
</svg>
