<svg width="100" height="100" viewBox="0 0 100 100" fill="none" xmlns="http://www.w3.org/2000/svg">
<path d="M34.3845 43.5782C35.4521 43.0867 36.6158 43.0384 37.7066 43.4404C38.7974 43.8424 39.7584 44.6737 40.45 45.8136C41.1415 46.9535 41.5277 48.3425 41.5523 49.7789C41.577 51.2152 41.239 52.6241 40.5873 53.8009C39.9357 54.9777 39.0044 55.8612 37.9287 56.3231C36.853 56.7849 35.6889 56.801 34.6055 56.3691C33.522 55.9371 32.5757 55.0795 31.9039 53.9209C31.2322 52.7623 30.87 51.363 30.87 49.9264M63.18 43.5227C64.2475 43.0315 65.411 42.9833 66.5016 43.3853C67.5921 43.7873 68.553 44.6185 69.2445 45.7582C69.9362 46.8979 70.3225 48.2869 70.3473 49.7232C70.3722 51.1596 70.0343 52.5685 69.3827 53.7455C68.7312 54.9223 67.7999 55.8058 66.7242 56.2676C65.6485 56.7294 64.4844 56.7456 63.4009 56.3136C62.3173 55.8818 61.3708 55.0243 60.6988 53.8657C60.0269 52.7071 59.6646 51.3077 59.6645 49.8709M75.6909 67.0536C77.5639 68.0958 79.0313 69.6907 79.8722 71.5982C80.713 73.5056 80.8817 75.6222 80.3527 77.6291C79.8238 79.6359 78.6261 81.4244 76.9398 82.725C75.2536 84.0255 73.1702 84.7678 71.0036 84.84M70.5336 84.8118V75.6673M24.2273 67.0936C22.3543 68.1358 20.8869 69.7308 20.046 71.6382C19.2052 73.5456 19.0365 75.6622 19.5655 77.6691C20.0943 79.6759 21.2921 81.4644 22.9784 82.765C24.6646 84.0655 26.748 84.8078 28.9145 84.88M29.3845 84.8518V75.7073M92.9354 58.75C51.7264 85.0227 7.06454 58.75 7.06454 58.75L12.6955 51.9773L8.51545 42.6864L18.5782 38.1182V28.2182L28.6409 27.9136L33.13 18.6227L42.4182 22.1273L50.3136 15.1218L58.3636 22.4318L66.9945 18.2818L72.0255 27.9909L82.2046 27.9527L82.2427 38.2327L91.9573 42.3836L87.7773 51.5218L92.9354 58.75Z" stroke="url(#paint0_linear_328_721)" stroke-width="7" stroke-linecap="round" stroke-linejoin="round"/>
<defs>
<linearGradient id="paint0_linear_328_721" x1="3.99421" y1="12.8481" x2="77.5179" y2="103.391" gradientUnits="userSpaceOnUse">
<stop offset="0.0364583" stop-color="#FEFDCD"/>
<stop offset="0.354167" stop-color="#FFFA2E"/>
<stop offset="0.682292" stop-color="#D5BE1E"/>
<stop offset="1" stop-color="#B58D34"/>
</linearGradient>
</defs>
</svg>
