<svg width="100" height="100" viewBox="0 0 100 100" fill="none" xmlns="http://www.w3.org/2000/svg">
<path d="M19.4127 12.4591L80.8427 6.81454C80.9364 6.80545 80.9818 6.83545 81.0018 6.85454C81.0227 6.87272 81.0564 6.91454 81.0564 7.00909V26.9482C81.0564 27.19 80.8282 27.4391 80.5873 27.4618L19.1582 33.1064C19.0636 33.1155 19.0182 33.0855 18.9982 33.0673C18.9773 33.0482 18.9436 33.0064 18.9436 32.9118V12.9727C18.9436 12.7309 19.1718 12.4818 19.4127 12.4591ZM19.4127 42.4991L80.8427 36.8536C80.9364 36.8455 80.9818 36.8745 81.0018 36.8936C81.0227 36.9118 81.0564 36.9545 81.0564 37.0491V56.9882C81.0564 57.2291 80.8282 57.4791 80.5873 57.5009L19.1582 63.1464C19.0636 63.1545 19.0182 63.1254 18.9982 63.1064C18.9773 63.0882 18.9436 63.0455 18.9436 62.9518V43.0118C18.9436 42.77 19.1718 42.5218 19.4127 42.4991ZM19.4127 72.5382L80.8427 66.8936C80.9364 66.8845 80.9818 66.9145 81.0018 66.9327C81.0227 66.9518 81.0564 66.9936 81.0564 67.0891V87.0273C81.0564 87.2691 80.8282 87.5182 80.5873 87.5409L19.1582 93.1855C19.0636 93.1945 19.0182 93.1645 18.9982 93.1455C18.9773 93.1273 18.9436 93.0855 18.9436 92.9909V73.0518C18.9436 72.81 19.1718 72.5609 19.4127 72.5382Z" stroke="url(#paint0_linear_328_725)" stroke-width="7" stroke-linecap="round" stroke-linejoin="round"/>
<defs>
<linearGradient id="paint0_linear_328_725" x1="16.7228" y1="3.99758" x2="104.914" y2="67.443" gradientUnits="userSpaceOnUse">
<stop offset="0.0364583" stop-color="#FEFDCD"/>
<stop offset="0.354167" stop-color="#FFFA2E"/>
<stop offset="0.682292" stop-color="#D5BE1E"/>
<stop offset="1" stop-color="#B58D34"/>
</linearGradient>
</defs>
</svg>
