<svg width="100" height="100" viewBox="0 0 100 100" fill="none" xmlns="http://www.w3.org/2000/svg">
<path d="M50 22.4055C38.5518 22.4055 31.4018 28.5382 28.5382 40.8018C32.83 34.67 37.84 32.37 43.5609 33.9036C46.83 34.78 49.16 37.3191 51.7418 40.1273C55.9545 44.7018 60.8236 50 71.4618 50C82.9109 50 90.0609 43.8682 92.9245 31.6036C88.6318 37.7355 83.6218 40.0355 77.9009 38.5027C74.6327 37.6255 72.3027 35.0873 69.7209 32.2782C65.5082 27.7036 60.6391 22.4055 50 22.4055ZM28.5382 50C17.0891 50 9.93908 56.1318 7.07544 68.3964C11.3682 62.2645 16.3782 59.9645 22.0991 61.4973C25.3673 62.3745 27.6973 64.9127 30.2791 67.7218C34.4918 72.2964 39.3609 77.5945 50 77.5945C61.4482 77.5945 68.5982 71.4618 71.4618 59.1982C67.17 65.33 62.16 67.63 56.4391 66.0964C53.17 65.22 50.84 62.6809 48.2582 59.8727C44.0454 55.2982 39.1764 50 28.5382 50Z" stroke="url(#paint0_linear_328_764)" stroke-width="8" stroke-linecap="round" stroke-linejoin="round"/>
<defs>
<linearGradient id="paint0_linear_328_764" x1="4.00588" y1="20.6066" x2="58.0664" y2="104.735" gradientUnits="userSpaceOnUse">
<stop offset="0.0364583" stop-color="#FEFDCD"/>
<stop offset="0.354167" stop-color="#FFFA2E"/>
<stop offset="0.682292" stop-color="#D5BE1E"/>
<stop offset="1" stop-color="#B58D34"/>
</linearGradient>
</defs>
</svg>
