<svg width="100" height="100" viewBox="0 0 100 100" fill="none" xmlns="http://www.w3.org/2000/svg">
<path d="M79.9455 53.08C79.9455 53.08 79.9436 53.0118 79.2636 52.3982C78.6397 51.8348 77.9298 51.3745 77.1609 51.0345C76.4482 50.7164 75.7918 50.5818 75.0582 50.4655C74.3255 50.35 73.9746 50.4036 73.1264 50.4518C72.2782 50.4991 71.2573 50.6127 70.5546 50.9627C69.8527 51.3136 69.0591 51.7273 68.6091 52.1564C68.1582 52.5846 67.8655 53.0009 67.5573 53.5345C67.2393 54.0888 66.9911 54.6803 66.8182 55.2955C66.66 55.88 66.5946 56.2555 66.5909 57.0009C66.5882 57.7455 66.6791 58.9236 66.9318 59.7282C67.1864 60.5327 67.5864 61.1845 68.0118 61.7736C68.4382 62.3636 68.95 62.9091 69.4327 63.2509C69.9146 63.5936 70.1509 63.7673 70.8536 64.1036C71.5564 64.44 72.6718 64.8136 73.6373 65.2973C74.6036 65.78 75.7127 66.2973 76.5918 66.7746C77.4718 67.2509 78.2918 67.6818 78.9227 68.1382C79.5527 68.5955 79.9509 68.9509 80.4 69.4455C80.8482 69.94 81.2891 70.5082 81.5927 71.0927C81.8973 71.6782 82.0964 72.0909 82.2382 72.8918C82.3091 73.2918 82.34 73.85 82.3455 74.3982C82.35 74.9473 82.3291 75.4855 82.2955 75.8464C82.2282 76.5682 82.1682 76.6373 81.9909 77.23C81.8136 77.8236 81.3909 78.7736 80.9373 79.39C80.4846 80.0055 80.0164 80.41 79.3773 80.81C78.7382 81.21 78.0018 81.5627 77.3318 81.7764C76.66 81.99 76.1773 82.0409 75.3991 82.1173C74.6209 82.1936 73.6164 82.2646 72.6718 82.1736C71.7264 82.0827 70.5991 81.8282 69.7736 81.5491C68.9482 81.2691 68.33 80.9982 67.7282 80.5827C67.1255 80.1673 66.8736 79.98 66.5346 79.5882C66.0836 79.0673 65.4546 77.8273 65.4546 77.8273M46.8509 50.8691V82.2873M36.4855 50.4273H57.1364M19.6973 7.32909L80.3027 7.28455C86.2555 7.28 92.93 13.9591 92.93 19.9109V80.5173C92.93 86.3691 86.1555 92.7155 80.3027 92.7155H19.6973C13.8446 92.7155 7.07001 86.3691 7.07001 80.5173V19.9109C7.07001 13.9691 13.7555 7.33364 19.6973 7.32909Z" stroke="url(#paint0_linear_328_771)" stroke-width="8" stroke-linecap="round" stroke-linejoin="round"/>
<defs>
<linearGradient id="paint0_linear_328_771" x1="4.00006" y1="4.5" x2="96.0001" y2="97" gradientUnits="userSpaceOnUse">
<stop offset="0.0364583" stop-color="#FEFDCD"/>
<stop offset="0.354167" stop-color="#FFFA2E"/>
<stop offset="0.682292" stop-color="#D5BE1E"/>
<stop offset="1" stop-color="#B58D34"/>
</linearGradient>
</defs>
</svg>
