<svg width="100" height="100" viewBox="0 0 100 100" fill="none" xmlns="http://www.w3.org/2000/svg">
<path d="M66.8091 8.4527C66.8091 8.4527 69.2736 5.67633 73.0373 8.02724L90.2663 16.4227C90.2663 16.4227 92.8963 17.3209 92.8963 19.9182V79.0373C92.8963 79.0373 93.2536 81.2118 90.71 82.9645L70.8336 92.8636C70.8336 92.8636 69.0382 93.3645 67.5563 91.8336L67.3918 91.6509C69.7536 92.0091 70.7372 91.1473 71.1918 90.22C71.4176 89.7387 71.5337 89.2134 71.5318 88.6818V10.5136M66.8091 8.4527C66.8091 8.4527 69.9791 6.14543 71.5318 10.5136M66.8091 8.4527C70.4409 6.2127 71.5318 10.5136 71.5318 10.5136M66.8091 8.4527L32.8691 39.6736L46.1918 49.8909L71.5191 30.1672L71.5318 10.5136M7.86998 37.0263C7.86998 37.0263 5.78089 35.4991 8.28816 33.4663L14.1382 28.1791C14.1382 28.1791 15.8082 26.4009 17.5791 27.95L71.5318 69.2409V89.0391C71.5318 89.0391 71.5063 92.1518 67.56 91.8082L7.86634 37.0227L7.86998 37.0263ZM21.7791 49.7872L7.86998 62.5663C7.86998 62.5663 6.43907 63.6391 7.86998 65.56L14.3273 71.4991C14.3273 71.4991 15.8618 73.1627 18.1273 71.2663L32.8691 59.9691L21.7791 49.7872Z" stroke="url(#paint0_linear_328_778)" stroke-width="7" stroke-linecap="round" stroke-linejoin="round"/>
<defs>
<linearGradient id="paint0_linear_328_778" x1="3.98409" y1="4.28382" x2="96.4471" y2="96.7846" gradientUnits="userSpaceOnUse">
<stop offset="0.0364583" stop-color="#FEFDCD"/>
<stop offset="0.354167" stop-color="#FFFA2E"/>
<stop offset="0.682292" stop-color="#D5BE1E"/>
<stop offset="1" stop-color="#B58D34"/>
</linearGradient>
</defs>
</svg>
