<svg width="100" height="100" viewBox="0 0 100 100" fill="none" xmlns="http://www.w3.org/2000/svg">
<path fill-rule="evenodd" clip-rule="evenodd" d="M11.4446 10.8182C11.0987 10.8182 10.8183 11.0987 10.8183 11.4446V41.4591C10.8183 41.8051 11.0987 42.0855 11.4446 42.0855H41.2401C41.586 42.0855 41.8665 41.8051 41.8665 41.4591V11.4446C41.8665 11.0987 41.586 10.8182 41.2401 10.8182H11.4446ZM2.81827 11.4446C2.81827 6.68039 6.68042 2.81824 11.4446 2.81824H41.2401C46.0043 2.81824 49.8665 6.68039 49.8665 11.4446V41.4591C49.8665 46.2234 46.0043 50.0855 41.2401 50.0855H30.1864V64.2091C30.1864 66.8815 30.8692 67.9187 31.3462 68.3612C31.8813 68.8577 32.9997 69.391 35.3682 69.391H50.1337V58.5409C50.1337 53.7767 53.9959 49.9146 58.7601 49.9146H88.5555C93.3197 49.9146 97.1819 53.7767 97.1819 58.5409V88.5555C97.1819 93.3197 93.3197 97.1818 88.5555 97.1818H58.7601C53.9959 97.1818 50.1337 93.3197 50.1337 88.5555V77.391H35.3682C31.9986 77.391 28.5261 76.6579 25.9049 74.2257C23.2255 71.7396 22.1864 68.1859 22.1864 64.2091V50.0855H11.4446C6.68042 50.0855 2.81827 46.2234 2.81827 41.4591V11.4446ZM58.7601 57.9146C58.4141 57.9146 58.1337 58.195 58.1337 58.5409V88.5555C58.1337 88.9014 58.4141 89.1818 58.7601 89.1818H88.5555C88.9015 89.1818 89.1819 88.9014 89.1819 88.5555V58.5409C89.1819 58.195 88.9014 57.9146 88.5555 57.9146H58.7601Z" fill="url(#paint0_linear_328_792)"/>
<defs>
<linearGradient id="paint0_linear_328_792" x1="-0.555728" y1="-0.257457" x2="101.065" y2="101.405" gradientUnits="userSpaceOnUse">
<stop offset="0.0364583" stop-color="#FEFDCD"/>
<stop offset="0.354167" stop-color="#FFFA2E"/>
<stop offset="0.682292" stop-color="#D5BE1E"/>
<stop offset="1" stop-color="#B58D34"/>
</linearGradient>
</defs>
</svg>
