<svg width="100" height="100" viewBox="0 0 100 100" fill="none" xmlns="http://www.w3.org/2000/svg">
<path d="M46.21 15.5073C47.7617 12.2919 49.8671 9.37465 52.43 6.88908C53.8979 9.53679 54.7436 12.484 54.9027 15.5073L59.9245 14.3827C59.9245 14.3827 67.4191 29.3718 54.9036 49.9818C58.813 52.8953 61.7449 56.9279 63.3107 61.5453C64.8766 66.1626 65.0025 71.1467 63.6718 75.8373C76.5636 71.4909 80.9091 67.2191 85.1818 67.2191C85.7456 67.209 86.3057 67.3126 86.8286 67.5237C87.3515 67.7348 87.8265 68.049 88.2253 68.4477C88.6241 68.8464 88.9384 69.3214 89.1496 69.8442C89.3608 70.3671 89.4645 70.9271 89.4546 71.4909C89.4546 71.4909 90.0536 74.3382 82.5591 78.0855L67.57 85.58C60.842 89.964 53.1 92.5448 45.0873 93.0745C36.3182 93.0745 30.0982 93.6746 30.0982 89.3273C30.2959 86.4613 31.583 83.7797 33.6955 81.8327H29.9482C29.9482 81.8327 23.5782 93.0745 14.9591 93.0745C6.34091 93.0745 14.9591 85.58 14.9591 85.58C7.46455 85.58 10.0882 71.1164 18.7064 66.8436C17.2229 64.4654 16.3365 61.7638 16.1225 58.9691C15.9086 56.1743 16.3735 53.3693 17.4777 50.793C18.5818 48.2167 20.2925 45.9456 22.4639 44.1731C24.6353 42.4007 27.203 41.1795 29.9482 40.6136C25.6018 36.2664 22.4536 27.0482 26.2009 25.6245C29.5793 24.197 32.2679 21.5084 33.6955 18.13C35.4754 16.8285 37.5123 15.9214 39.6704 15.4692C41.8285 15.0169 44.0573 15.0299 46.21 15.5073Z" stroke="url(#paint0_linear_328_802)" stroke-width="7" stroke-linecap="round" stroke-linejoin="round"/>
<defs>
<linearGradient id="paint0_linear_328_802" x1="7.73677" y1="4.07903" x2="100.221" y2="88.7613" gradientUnits="userSpaceOnUse">
<stop offset="0.0364583" stop-color="#FEFDCD"/>
<stop offset="0.354167" stop-color="#FFFA2E"/>
<stop offset="0.682292" stop-color="#D5BE1E"/>
<stop offset="1" stop-color="#B58D34"/>
</linearGradient>
</defs>
</svg>
