<svg width="100" height="100" viewBox="0 0 100 100" fill="none" xmlns="http://www.w3.org/2000/svg">
<path d="M91.5581 37.8973C94.4735 47.9828 93.6149 58.7851 89.1427 68.2834C84.6705 77.7817 76.8912 85.3255 67.2599 89.5036C57.6288 93.6816 46.8054 94.2078 36.8144 90.9839C26.8233 87.76 18.3489 81.0067 12.9763 71.9873C7.60349 62.9678 5.70054 52.2999 7.62339 41.979C9.54625 31.6582 15.1632 22.3913 23.4236 15.9118C31.684 9.43239 42.022 6.18421 52.5039 6.77486C62.9857 7.3655 72.8934 11.7545 80.3736 19.1209" stroke="url(#paint0_linear_122_1221)" stroke-width="8" stroke-linecap="round" stroke-linejoin="round"/>
<path d="M81.5164 22.959C82.7716 22.959 83.7891 21.9415 83.7891 20.6863C83.7891 19.4311 82.7716 18.4136 81.5164 18.4136C80.2612 18.4136 79.2437 19.4311 79.2437 20.6863C79.2437 21.9415 80.2612 22.959 81.5164 22.959Z" stroke="url(#paint1_linear_122_1221)" stroke-width="4.54545" stroke-linecap="round" stroke-linejoin="round"/>
<path d="M30.9891 68.6782L50 25.26L69.011 68.6455" stroke="url(#paint2_linear_122_1221)" stroke-width="8" stroke-linecap="round" stroke-linejoin="round"/>
<path d="M37.5654 55.9399L51.9391 56.0499" stroke="url(#paint3_linear_122_1221)" stroke-width="4.54545" stroke-linecap="round" stroke-linejoin="round"/>
<defs>
<linearGradient id="paint0_linear_122_1221" x1="50.0747" y1="6.70642" x2="50.0747" y2="93.0704" gradientUnits="userSpaceOnUse">
<stop stop-color="#550D38"/>
<stop offset="0.604167" stop-color="#F80497"/>
</linearGradient>
<linearGradient id="paint1_linear_122_1221" x1="81.5164" y1="18.4136" x2="81.5164" y2="22.959" gradientUnits="userSpaceOnUse">
<stop stop-color="#550D38"/>
<stop offset="0.604167" stop-color="#F80497"/>
</linearGradient>
<linearGradient id="paint2_linear_122_1221" x1="50" y1="25.26" x2="50" y2="68.6782" gradientUnits="userSpaceOnUse">
<stop stop-color="#550D38"/>
<stop offset="0.604167" stop-color="#F80497"/>
</linearGradient>
<linearGradient id="paint3_linear_122_1221" x1="44.7522" y1="55.9399" x2="44.7522" y2="56.0499" gradientUnits="userSpaceOnUse">
<stop stop-color="#550D38"/>
<stop offset="0.604167" stop-color="#F80497"/>
</linearGradient>
</defs>
</svg>
