<svg width="100" height="100" viewBox="0 0 100 100" fill="none" xmlns="http://www.w3.org/2000/svg">
<path d="M89.6819 60.8347C89.6816 60.8349 89.6813 60.8351 89.6811 60.8354L60.8699 89.5885C60.7849 89.6736 60.6681 89.7274 60.5665 89.7262C60.498 89.7254 60.4336 89.6946 60.3674 89.6768L21.1104 79.1585C21.0004 79.1219 20.9136 79.062 20.865 78.9936C20.8141 78.9218 20.8103 78.8275 20.7874 78.7425L10.2199 39.572C10.1624 39.3995 10.2199 39.284 10.3349 39.169L39.1469 10.415C39.2323 10.3296 39.3497 10.2756 39.4517 10.2773C39.5197 10.2783 39.5835 10.3089 39.6491 10.3264L78.9069 20.845C79.0169 20.8813 79.1037 20.9414 79.1522 21.01C79.2027 21.0815 79.2064 21.1753 79.2291 21.2598L89.6975 60.2729C89.7256 60.3776 89.7887 60.4736 89.8011 60.5812C89.8122 60.6777 89.7608 60.756 89.6828 60.8341C89.6826 60.8344 89.6823 60.8346 89.6819 60.8347ZM51.126 29.5302C51.0956 29.525 51.0583 29.5492 51.0284 29.5571L12.5356 39.8262C12.4515 39.8486 12.3433 39.8668 12.3292 39.9527C12.3245 39.9813 12.3299 40.0109 12.3514 40.0325L40.6444 68.2675C40.6712 68.2943 40.7106 68.3086 40.7451 68.3046C40.8321 68.2945 40.829 68.1671 40.8517 68.0825L51.1542 29.7335C51.175 29.6562 51.2049 29.5438 51.126 29.5302Z" stroke="url(#paint0_linear_122_27)" stroke-width="8"/>
<defs>
<linearGradient id="paint0_linear_122_27" x1="10.2147" y1="10.5556" x2="102.41" y2="70.1844" gradientUnits="userSpaceOnUse">
<stop stop-color="white"/>
<stop offset="0.848958" stop-color="#7F787F"/>
<stop offset="0.982609" stop-color="#4B454B"/>
</linearGradient>
</defs>
</svg>
