<svg width="100" height="100" viewBox="0 0 100 100" fill="none" xmlns="http://www.w3.org/2000/svg">
<path fill-rule="evenodd" clip-rule="evenodd" d="M20.8508 19.5272C20.8508 18.0655 21.8266 15.9281 23.8969 13.9783C25.9533 12.0417 28.2858 11.0563 29.9099 11.0563H45.9999V31.8182C45.9999 35.4573 46.8673 38.9155 49.589 41.3191C52.1938 43.6195 55.6829 44.2063 59.0908 44.2063H79.149V79.8845C79.149 81.5607 78.126 83.8675 76.0996 85.894C74.0732 87.9205 71.7664 88.9436 70.0899 88.9436H29.9099C28.2334 88.9436 25.9266 87.9205 23.9002 85.894C21.8738 83.8675 20.8508 81.5607 20.8508 79.8845V19.5272ZM87.149 40.2063C87.149 39.098 86.6983 38.095 85.9701 37.3706L52.8355 4.23506C52.1111 3.507 51.1081 3.05634 49.9999 3.05634H29.9099C25.5985 3.05634 21.4015 5.33917 18.4122 8.15438C15.4369 10.9564 12.8508 15.0545 12.8508 19.5272V79.8845C12.8508 84.3638 15.2792 88.5866 18.2432 91.5507C21.2073 94.5149 25.4301 96.9436 29.9099 96.9436H70.0899C74.5698 96.9436 78.7925 94.5149 81.7566 91.5507C84.7206 88.5866 87.149 84.3638 87.149 79.8845V40.22M53.9999 16.7134L73.4923 36.2063H59.0908C56.3424 36.2063 55.2861 35.6773 54.8845 35.3227C54.5998 35.0712 53.9999 34.3354 53.9999 31.8182V16.7134Z" fill="url(#paint0_linear_122_134)"/>
<defs>
<linearGradient id="paint0_linear_122_134" x1="12.867" y1="3.38529" x2="109.656" y2="52.8265" gradientUnits="userSpaceOnUse">
<stop stop-color="white"/>
<stop offset="0.848958" stop-color="#7F787F"/>
<stop offset="0.982609" stop-color="#4B454B"/>
</linearGradient>
</defs>
</svg>
