<svg width="100" height="100" viewBox="0 0 100 100" fill="none" xmlns="http://www.w3.org/2000/svg">
<g clip-path="url(#clip0_122_668)">
<path d="M48.6879 20.1843L49.071 22.2226H51.1449H87.6149C93.0715 22.2226 97.5 26.647 97.5 32.1077V77.982C97.5 83.4379 93.0708 87.8671 87.6149 87.8671H12.3851C6.92684 87.8671 2.5 83.4383 2.5 77.982V42.2029V32.1077V22.0179C2.5 16.5569 6.92612 12.1328 12.3851 12.1328H38.991C43.815 12.1328 47.8259 15.5971 48.6879 20.1843Z" stroke="url(#paint0_linear_122_668)" stroke-width="5"/>
<path d="M60.7462 66.3164C62.7565 66.1071 64.2817 64.3646 64.2123 62.2734C64.1431 60.1823 62.4099 58.5093 60.3302 58.5093H60.1917C58.0424 58.5791 56.3788 60.3914 56.4482 62.5522C56.5175 63.5978 56.9333 64.5039 57.5573 65.1313C55.2003 69.8016 51.5955 73.2171 46.1883 76.075C42.5142 78.0267 38.7015 78.7238 34.8888 78.236C31.7692 77.8177 29.3429 76.4237 27.8175 74.1232C25.5993 70.7077 25.3914 67.0133 27.2632 63.319C28.5804 60.6701 30.6599 58.7184 31.9771 57.7425C31.6998 56.8364 31.2838 55.3029 31.0759 54.1877C21.024 61.5067 22.0639 71.4048 25.1141 76.075C27.4017 79.5604 32.0464 81.7212 37.1764 81.7212C38.5627 81.7212 39.9491 81.5817 41.3357 81.2334C50.2091 79.4907 56.9336 74.193 60.7462 66.3164ZM72.9472 57.673C67.6786 51.4691 59.9144 48.0537 51.041 48.0537H49.9319C49.308 46.799 47.9907 45.9624 46.535 45.9624H46.3962C44.2474 46.0322 42.5838 47.8444 42.6529 50.0054C42.7223 52.0965 44.4553 53.7694 46.535 53.7694H46.6735C48.1986 53.6997 49.5159 52.7238 50.0704 51.3994H51.3182C56.5869 51.3994 61.5781 52.9329 66.0843 55.9303C69.5503 58.2306 72.046 61.2279 73.4324 64.8525C74.6109 67.7801 74.5415 70.638 73.2936 73.0778C71.3527 76.7721 68.0946 78.7936 63.7965 78.7936C61.0235 78.7936 58.3893 77.957 57.0027 77.3296C56.2403 78.0267 54.8537 79.1419 53.8831 79.8392C56.8642 81.2332 59.9144 82 62.8259 82C69.4809 82 74.403 78.3055 76.2747 74.6113C78.285 70.5682 78.1463 63.5978 72.9472 57.673ZM37.7309 67.5011C37.8003 69.5924 39.5333 71.2651 41.613 71.2651H41.7517C43.9008 71.1956 45.5644 69.3831 45.495 67.2223C45.4259 65.131 43.6926 63.4583 41.613 63.4583H41.4744C41.3357 63.4583 41.1276 63.4583 40.9893 63.5278C38.1469 58.7879 36.9685 53.6299 37.3845 48.0535C37.6615 43.8711 39.0481 40.2464 41.4744 37.249C43.4847 34.6699 47.3668 33.4153 50.0012 33.3457C57.3494 33.2062 60.4688 42.4072 60.6769 46.1017C61.5781 46.3107 63.1032 46.7988 64.1431 47.1473C63.3111 35.8553 56.3788 30 49.724 30C43.4847 30 37.7309 34.5309 35.4431 41.2225C32.2544 50.1447 34.334 58.7184 38.2161 65.4798C37.8697 65.9676 37.6615 66.7343 37.7309 67.5011Z" stroke="url(#paint1_linear_122_668)" stroke-width="2.47619"/>
</g>
<defs>
<linearGradient id="paint0_linear_122_668" x1="50" y1="9.63284" x2="50" y2="90.3671" gradientUnits="userSpaceOnUse">
<stop stop-color="#146870"/>
<stop offset="1" stop-color="#63F1FF"/>
</linearGradient>
<linearGradient id="paint1_linear_122_668" x1="23.0118" y1="30.1822" x2="84.4162" y2="71.7058" gradientUnits="userSpaceOnUse">
<stop stop-color="white"/>
<stop offset="0.848958" stop-color="#7F787F"/>
<stop offset="0.982609" stop-color="#4B454B"/>
</linearGradient>
<clipPath id="clip0_122_668">
<rect width="100" height="100" fill="white"/>
</clipPath>
</defs>
</svg>
