<svg width="100" height="100" viewBox="0 0 100 100" fill="none" xmlns="http://www.w3.org/2000/svg">
<g clip-path="url(#clip0_122_636)">
<path d="M48.6879 20.1843L49.071 22.2226H51.1449H87.6149C93.0715 22.2226 97.5 26.647 97.5 32.1077V77.982C97.5 83.4379 93.0708 87.8671 87.6149 87.8671H12.3851C6.92684 87.8671 2.5 83.4383 2.5 77.982V42.2029V32.1077V22.0179C2.5 16.5569 6.92612 12.1328 12.3851 12.1328H38.991C43.815 12.1328 47.8259 15.5971 48.6879 20.1843Z" stroke="url(#paint0_linear_122_636)" stroke-width="5"/>
<path fill-rule="evenodd" clip-rule="evenodd" d="M49.8139 68.4573C47.5216 68.4573 45.3231 67.5466 43.7022 65.9257C42.0812 64.3047 41.1706 62.1063 41.1706 59.8139C41.1706 56.5851 42.9283 53.7636 45.4923 52.2925L73.4709 36.0987L57.5348 63.7034C56.8128 65.1319 55.7091 66.3324 54.3462 67.1715C52.9833 68.0107 51.4145 68.4557 49.8139 68.4573ZM49.8139 31C54.8338 31.0214 59.7643 32.3306 64.1336 34.8022L58.0833 38.2887C55.4437 37.2774 52.6406 36.7604 49.8139 36.7636C43.7006 36.7636 37.8377 39.1921 33.5149 43.5149C29.1921 47.8377 26.7636 53.7006 26.7636 59.8139C26.7538 62.8387 27.3445 65.8354 28.5015 68.6301C29.6585 71.4249 31.3588 73.9622 33.5038 76.095H33.5329C34.6548 77.2169 34.6548 79.0329 33.5329 80.1549C32.4109 81.2768 30.5659 81.2768 29.4439 80.1839C26.7639 77.5122 24.6384 74.3373 23.1893 70.8415C21.7402 67.3458 20.9962 63.5981 21 59.8139C21 52.172 24.0358 44.8431 29.4394 39.4394C34.8431 34.0357 42.172 31 49.8139 31ZM78.6278 59.8139C78.6316 63.5981 77.8876 67.3458 76.4386 70.8415C74.9895 74.3373 72.8639 77.5122 70.184 80.1839C69.6385 80.7123 68.9074 81.0052 68.1481 80.9998C67.3887 80.9944 66.6619 80.6909 66.1241 80.1549C65.8571 79.8885 65.6452 79.5721 65.5007 79.2238C65.3562 78.8755 65.2818 78.502 65.2818 78.1249C65.2818 77.7478 65.3562 77.3744 65.5007 77.026C65.6452 76.6777 65.8571 76.3613 66.1241 76.095C68.2668 73.9606 69.9656 71.4229 71.1224 68.6285C72.2793 65.8341 72.8713 62.8383 72.8642 59.8139C72.8642 56.93 72.3199 54.0503 71.3101 51.4573L74.7965 45.407C77.1859 49.7286 78.6278 54.5697 78.6278 59.8139Z" fill="url(#paint1_linear_122_636)"/>
</g>
<defs>
<linearGradient id="paint0_linear_122_636" x1="50" y1="9.63284" x2="50" y2="90.3671" gradientUnits="userSpaceOnUse">
<stop stop-color="#146870"/>
<stop offset="1" stop-color="#63F1FF"/>
</linearGradient>
<linearGradient id="paint1_linear_122_636" x1="21.0125" y1="31.1752" x2="81.9469" y2="76.5085" gradientUnits="userSpaceOnUse">
<stop stop-color="white"/>
<stop offset="0.848958" stop-color="#7F787F"/>
<stop offset="0.982609" stop-color="#4B454B"/>
</linearGradient>
<clipPath id="clip0_122_636">
<rect width="100" height="100" fill="white"/>
</clipPath>
</defs>
</svg>
