<svg width="100" height="100" viewBox="0 0 100 100" fill="none" xmlns="http://www.w3.org/2000/svg">
<g clip-path="url(#clip0_122_423)">
<path d="M48.6879 20.1843L49.071 22.2226H51.1449H87.6149C93.0715 22.2226 97.5 26.647 97.5 32.1077V77.9821C97.5 83.4379 93.0708 87.8672 87.6149 87.8672H12.3851C6.92684 87.8672 2.5 83.4383 2.5 77.9821V42.2029V32.1077V22.018C2.5 16.5569 6.92612 12.1329 12.3851 12.1329H38.991C43.815 12.1329 47.8259 15.5971 48.6879 20.1843Z" stroke="url(#paint0_linear_122_423)" stroke-width="5"/>
<path d="M47.3097 77.1949L47.3061 77.1916C39.5378 70.1474 33.2929 64.4785 28.96 59.1812C24.6558 53.9189 22.5 49.3287 22.5 44.485C22.5 36.6341 28.6341 30.5 36.485 30.5C40.9433 30.5 45.2613 32.5876 48.0694 35.8852L49.9728 38.1203L51.8761 35.8852C54.6842 32.5876 59.0022 30.5 63.4605 30.5C71.3114 30.5 77.4455 36.6341 77.4455 44.485C77.4455 49.3287 75.2897 53.919 70.985 59.1856C66.6521 64.4866 60.408 70.1621 52.6405 77.2206C52.6395 77.2215 52.6385 77.2225 52.6375 77.2234L49.9791 79.625L47.3097 77.1949Z" stroke="url(#paint1_linear_122_423)" stroke-width="5"/>
</g>
<defs>
<linearGradient id="paint0_linear_122_423" x1="50" y1="9.63286" x2="50" y2="90.3672" gradientUnits="userSpaceOnUse">
<stop stop-color="#550D38"/>
<stop offset="0.604167" stop-color="#F80497"/>
</linearGradient>
<linearGradient id="paint1_linear_122_423" x1="49.9728" y1="28" x2="49.9728" y2="83" gradientUnits="userSpaceOnUse">
<stop stop-color="#550D38"/>
<stop offset="0.604167" stop-color="#F80497"/>
</linearGradient>
<clipPath id="clip0_122_423">
<rect width="100" height="100" fill="white"/>
</clipPath>
</defs>
</svg>
