<svg width="100" height="100" viewBox="0 0 100 100" fill="none" xmlns="http://www.w3.org/2000/svg">
<g clip-path="url(#clip0_122_1003)">
<path d="M48.6879 20.1843L49.071 22.2226H51.1449H87.6149C93.0715 22.2226 97.5 26.647 97.5 32.1077V77.9821C97.5 83.4379 93.0708 87.8672 87.6149 87.8672H12.3851C6.92684 87.8672 2.5 83.4383 2.5 77.9821V42.2029V32.1077V22.018C2.5 16.557 6.92612 12.1329 12.3851 12.1329H38.991C43.815 12.1329 47.8259 15.5971 48.6879 20.1843Z" stroke="url(#paint0_linear_122_1003)" stroke-width="5"/>
<path d="M36.4373 48.8334H28.2843C29.6413 44.4343 32.3115 40.5514 35.9435 37.7193C39.873 34.6552 44.7046 32.9954 49.6751 33C53.8591 33.0094 57.9574 34.1983 61.5041 36.4327C65.0513 38.6674 67.9049 41.8586 69.7393 45.6444C71.5738 49.4304 72.3149 53.6584 71.8779 57.8477C71.4408 62.0368 69.8433 66.0177 67.268 69.3379C64.6929 72.658 61.2437 75.184 57.3134 76.63C53.3833 78.0761 49.1288 78.3847 45.0332 77.521C40.9376 76.6573 37.164 74.6557 34.1418 71.7423C31.3908 69.0904 29.3629 65.7797 28.2435 62.1278H36.4373C37.8647 64.9883 40.1783 67.3144 43.0388 68.7499C46.0547 70.2634 49.4958 70.695 52.7902 69.9723C56.0846 69.2496 59.0319 67.4166 61.1441 64.7802C63.2562 62.1439 64.4068 58.8624 64.4068 55.4806C64.4068 52.0987 63.2562 48.8173 61.1441 46.181C59.0319 43.5445 56.0846 41.7116 52.7902 40.9889C49.4958 40.2661 46.0547 40.6977 43.0388 42.2112C40.1783 43.6467 37.8647 45.9729 36.4373 48.8334ZM45.8747 55.5C45.8747 54.4801 46.2779 53.5039 46.9924 52.7858C47.7064 52.0681 48.6728 51.6667 49.6782 51.6667C50.6836 51.6667 51.65 52.0681 52.364 52.7858C53.0785 53.5039 53.4817 54.4801 53.4817 55.5C53.4817 56.52 53.0785 57.4961 52.364 58.2142C51.65 58.932 50.6836 59.3334 49.6782 59.3334C48.6728 59.3334 47.7064 58.932 46.9924 58.2142C46.2779 57.4961 45.8747 56.52 45.8747 55.5Z" stroke="url(#paint1_linear_122_1003)" stroke-width="4"/>
</g>
<defs>
<linearGradient id="paint0_linear_122_1003" x1="0.0217031" y1="9.91575" x2="100.228" y2="90.0334" gradientUnits="userSpaceOnUse">
<stop stop-color="white"/>
<stop offset="0.848958" stop-color="#7F787F"/>
<stop offset="0.982609" stop-color="#4B454B"/>
</linearGradient>
<linearGradient id="paint1_linear_122_1003" x1="26.0104" y1="31.1717" x2="82.3358" y2="66.7874" gradientUnits="userSpaceOnUse">
<stop stop-color="white"/>
<stop offset="0.848958" stop-color="#7F787F"/>
<stop offset="0.982609" stop-color="#4B454B"/>
</linearGradient>
<clipPath id="clip0_122_1003">
<rect width="100" height="100" fill="white"/>
</clipPath>
</defs>
</svg>
