<svg width="100" height="100" viewBox="0 0 100 100" fill="none" xmlns="http://www.w3.org/2000/svg">
<g clip-path="url(#clip0_312_3013)">
<path d="M100 32.1076V77.982C100 84.8186 94.4515 90.3671 87.6149 90.3671H12.3851C5.54577 90.3671 0 84.8186 0 77.982V42.2029V32.1076V22.0179C0 15.1758 5.54577 9.63281 12.3851 9.63281H38.991C45.046 9.63281 50.0661 13.9814 51.1449 19.7225H87.6149C94.4515 19.7225 100 25.2656 100 32.1076Z" fill="url(#paint0_linear_312_3013)"/>
<g filter="url(#filter0_d_312_3013)">
<path d="M81.0737 72.9553L56.4263 30.2646C53.7924 25.7026 47.2076 25.7026 44.5737 30.2646L19.9263 72.9553C17.2924 77.5173 20.5847 83.2199 25.8525 83.2199H75.1475C80.4153 83.2199 83.7076 77.5173 81.0737 72.9553Z" stroke="black" stroke-width="6.84306" shape-rendering="crispEdges"/>
</g>
</g>
<defs>
<filter id="filter0_d_312_3013" x="13.6784" y="21.5273" width="73.6432" height="67.0083" filterUnits="userSpaceOnUse" color-interpolation-filters="sRGB">
<feFlood flood-opacity="0" result="BackgroundImageFix"/>
<feColorMatrix in="SourceAlpha" type="matrix" values="0 0 0 0 0 0 0 0 0 0 0 0 0 0 0 0 0 0 127 0" result="hardAlpha"/>
<feOffset/>
<feGaussianBlur stdDeviation="0.947114"/>
<feComposite in2="hardAlpha" operator="out"/>
<feColorMatrix type="matrix" values="0 0 0 0 0.388235 0 0 0 0 0.945098 0 0 0 0 1 0 0 0 1 0"/>
<feBlend mode="normal" in2="BackgroundImageFix" result="effect1_dropShadow_312_3013"/>
<feBlend mode="normal" in="SourceGraphic" in2="effect1_dropShadow_312_3013" result="shape"/>
</filter>
<linearGradient id="paint0_linear_312_3013" x1="50" y1="9.63281" x2="50" y2="90.3671" gradientUnits="userSpaceOnUse">
<stop stop-color="#550D38"/>
<stop offset="0.604167" stop-color="#F80497"/>
</linearGradient>
<clipPath id="clip0_312_3013">
<rect width="100" height="100" fill="white"/>
</clipPath>
</defs>
</svg>
