<svg width="100" height="100" viewBox="0 0 100 100" fill="none" xmlns="http://www.w3.org/2000/svg">
<g clip-path="url(#clip0_312_3020)">
<path d="M48.6879 20.1843L49.071 22.2226H51.1449H87.6149C93.0715 22.2226 97.5 26.647 97.5 32.1077V77.9821C97.5 83.4379 93.0708 87.8671 87.6149 87.8671H12.3851C6.92684 87.8671 2.5 83.4383 2.5 77.9821V42.2029V32.1077V22.0179C2.5 16.5569 6.92612 12.1329 12.3851 12.1329H38.991C43.815 12.1329 47.8259 15.5971 48.6879 20.1843Z" stroke="url(#paint0_linear_312_3020)" stroke-width="5"/>
<path d="M69 39.5455C69 44.265 59.8218 48.0909 48.5 48.0909C37.1782 48.0909 28 44.265 28 39.5455C28 34.8259 37.1782 31 48.5 31C59.8218 31 69 34.8259 69 39.5455ZM69 39.5455V69.5786M68.9946 54.2883C68.9944 55.7635 68.0473 57.2127 66.2484 58.4902C64.4496 59.7677 61.8624 60.8286 58.7468 61.5663C55.6308 62.3039 52.0962 62.6923 48.4983 62.6923C44.9003 62.6923 41.3657 62.3039 38.2498 61.5663C35.1342 60.8288 32.5468 59.7681 30.7476 58.4908C28.9485 57.2134 28.0008 55.7644 28 54.2893M68.9946 69.5951C68.9948 71.0704 68.0478 72.5198 66.2488 73.7976C64.4499 75.0753 61.8623 76.1363 58.7463 76.874C55.6303 77.6117 52.0958 78 48.4978 78C44.8998 78 41.3652 77.6117 38.2493 76.874C35.1331 76.1364 32.5453 75.0754 30.7462 73.7976C28.9471 72.5199 27.9999 71.0705 28 69.5951M28.0049 39.5619V69.5951" stroke="url(#paint1_linear_312_3020)" stroke-width="5"/>
</g>
<defs>
<linearGradient id="paint0_linear_312_3020" x1="50" y1="9.63285" x2="50" y2="90.3671" gradientUnits="userSpaceOnUse">
<stop stop-color="#146870"/>
<stop offset="1" stop-color="#63F1FF"/>
</linearGradient>
<linearGradient id="paint1_linear_312_3020" x1="48.5" y1="31" x2="48.5" y2="78" gradientUnits="userSpaceOnUse">
<stop stop-color="#146870"/>
<stop offset="1" stop-color="#63F1FF"/>
</linearGradient>
<clipPath id="clip0_312_3020">
<rect width="100" height="100" fill="white"/>
</clipPath>
</defs>
</svg>
