<svg width="100" height="100" viewBox="0 0 100 100" fill="none" xmlns="http://www.w3.org/2000/svg">
<g clip-path="url(#clip0_122_826)">
<path d="M48.6879 20.1843L49.071 22.2226H51.1449H87.6149C93.0715 22.2226 97.5 26.647 97.5 32.1077V77.9821C97.5 83.4379 93.0708 87.8672 87.6149 87.8672H12.3851C6.92684 87.8672 2.5 83.4383 2.5 77.9821V42.2029V32.1077V22.018C2.5 16.557 6.92612 12.1329 12.3851 12.1329H38.991C43.815 12.1329 47.8259 15.5971 48.6879 20.1843Z" stroke="url(#paint0_linear_122_826)" stroke-width="5"/>
<path d="M55.3679 36.8445L68.1555 49.6309M25 80H37.7864L71.3518 46.4346C73.0474 44.739 74 42.4393 74 40.0414C74 37.6434 73.0474 35.3437 71.3518 33.6482C69.6563 31.9526 67.3566 31 64.9586 31C62.5607 31 60.261 31.9526 58.5654 33.6482L25 67.2136V80Z" stroke="url(#paint1_linear_122_826)" stroke-width="5" stroke-linecap="round" stroke-linejoin="round"/>
</g>
<defs>
<linearGradient id="paint0_linear_122_826" x1="50" y1="9.63287" x2="50" y2="90.3672" gradientUnits="userSpaceOnUse">
<stop stop-color="#146870"/>
<stop offset="1" stop-color="#63F1FF"/>
</linearGradient>
<linearGradient id="paint1_linear_122_826" x1="49.5" y1="31" x2="49.5" y2="80" gradientUnits="userSpaceOnUse">
<stop stop-color="#146870"/>
<stop offset="1" stop-color="#63F1FF"/>
</linearGradient>
<clipPath id="clip0_122_826">
<rect width="100" height="100" fill="white"/>
</clipPath>
</defs>
</svg>
