<svg width="100" height="100" viewBox="0 0 100 100" fill="none" xmlns="http://www.w3.org/2000/svg">
<g clip-path="url(#clip0_122_773)">
<path d="M48.6879 20.1843L49.071 22.2226H51.1449H87.6149C93.0715 22.2226 97.5 26.647 97.5 32.1077V77.9821C97.5 83.4379 93.0708 87.8672 87.6149 87.8672H12.3851C6.92684 87.8672 2.5 83.4383 2.5 77.9821V42.2029V32.1077V22.018C2.5 16.557 6.92612 12.1329 12.3851 12.1329H38.991C43.815 12.1329 47.8259 15.5971 48.6879 20.1843Z" stroke="url(#paint0_linear_122_773)" stroke-width="5"/>
<path fill-rule="evenodd" clip-rule="evenodd" d="M73.7796 37.1129C75.4068 35.4858 75.4068 32.8476 73.7796 31.2204C72.1524 29.5932 69.5142 29.5932 67.8871 31.2204L33.3333 65.7741V50.8333C33.3333 48.5321 31.4679 46.6666 29.1667 46.6666C26.8655 46.6666 25 48.5321 25 50.8333V75.8333C25 76.3914 25.1097 76.9238 25.3087 77.4102C25.5121 77.9084 25.816 78.3752 26.2204 78.7796C26.6326 79.1918 27.1097 79.4996 27.6188 79.703C28.048 79.8748 28.5124 79.9773 28.9982 79.9966C29.0605 79.9991 29.1229 80.0002 29.1852 80H54.1667C56.4679 80 58.3333 78.1345 58.3333 75.8333C58.3333 73.5321 56.4679 71.6666 54.1667 71.6666H39.2259L73.7796 37.1129Z" fill="url(#paint1_linear_122_773)"/>
</g>
<defs>
<linearGradient id="paint0_linear_122_773" x1="50" y1="9.63287" x2="50" y2="90.3672" gradientUnits="userSpaceOnUse">
<stop stop-color="#146870"/>
<stop offset="1" stop-color="#63F1FF"/>
</linearGradient>
<linearGradient id="paint1_linear_122_773" x1="50" y1="30" x2="50" y2="80" gradientUnits="userSpaceOnUse">
<stop stop-color="#146870"/>
<stop offset="1" stop-color="#63F1FF"/>
</linearGradient>
<clipPath id="clip0_122_773">
<rect width="100" height="100" fill="white"/>
</clipPath>
</defs>
</svg>
