<svg width="100" height="100" viewBox="0 0 100 100" fill="none" xmlns="http://www.w3.org/2000/svg">
<g clip-path="url(#clip0_315_107)">
<path d="M48.6879 20.1843L49.071 22.2226H51.1449H87.6149C93.0715 22.2226 97.5 26.647 97.5 32.1077V77.9821C97.5 83.4379 93.0708 87.8672 87.6149 87.8672H12.3851C6.92684 87.8672 2.5 83.4383 2.5 77.9821V42.2029V32.1077V22.018C2.5 16.557 6.92612 12.1329 12.3851 12.1329H38.991C43.815 12.1329 47.8259 15.5971 48.6879 20.1843Z" stroke="url(#paint0_linear_315_107)" stroke-width="5"/>
<path d="M39.9219 32.75H70.5469C72.0052 32.8021 73.2031 33.349 74.1406 34.3906C75.1302 35.4323 75.625 36.6823 75.625 38.1406C75.3646 41.2656 73.6719 42.9583 70.5469 43.2188H42.5781C40.599 43.3229 38.9583 44.0781 37.6562 45.4844C36.3542 46.8906 35.3906 48.5052 34.7656 50.3281C34.1927 52.099 33.9062 53.9219 33.9062 55.7969C33.9062 57.6719 34.1927 59.4948 34.7656 61.2656C35.3906 62.9844 36.3542 64.5469 37.6562 65.9531C38.9583 67.3594 40.599 68.1146 42.5781 68.2188H63.3594C64.349 68.2708 65.1562 68.0885 65.7812 67.6719C66.4583 67.2552 66.9531 66.7865 67.2656 66.2656C67.5781 65.6927 67.7344 65.1198 67.7344 64.5469C67.7344 64.1823 67.5781 63.6875 67.2656 63.0625C66.9531 62.3854 66.4583 61.8385 65.7812 61.4219C65.1562 61.0052 64.349 60.7708 63.3594 60.7188H43.3594C41.901 60.7188 40.651 60.224 39.6094 59.2344C38.6198 58.1927 38.125 56.9427 38.125 55.4844C38.125 54.026 38.6198 52.776 39.6094 51.7344C40.651 50.7448 41.901 50.25 43.3594 50.25H62.8906C66.5365 50.3542 69.5312 51.2135 71.875 52.8281C74.2708 54.3906 75.9635 56.2135 76.9531 58.2969C77.9948 60.3281 78.5156 62.4115 78.5156 64.5469C78.5156 66.6302 77.9948 68.7135 76.9531 70.7969C75.9115 72.8281 74.2188 74.651 71.875 76.2656C69.5312 77.8281 66.5365 78.6094 62.8906 78.6094H62.4219C62.1094 78.6615 61.7969 78.6875 61.4844 78.6875H39.9219C36.276 78.4792 33.2552 77.099 30.8594 74.5469C28.5156 71.9427 26.8229 69.026 25.7812 65.7969C24.7917 62.5677 24.2969 59.2344 24.2969 55.7969C24.2969 52.3594 24.8177 49 25.8594 45.7188C26.901 42.4375 28.5938 39.5208 30.9375 36.9688C33.2812 34.3646 36.276 32.9583 39.9219 32.75Z" fill="url(#paint1_linear_315_107)"/>
</g>
<defs>
<linearGradient id="paint0_linear_315_107" x1="50" y1="9.63287" x2="50" y2="90.3672" gradientUnits="userSpaceOnUse">
<stop stop-color="#146870"/>
<stop offset="1" stop-color="#63F1FF"/>
</linearGradient>
<linearGradient id="paint1_linear_315_107" x1="51.5" y1="10" x2="51.5" y2="90" gradientUnits="userSpaceOnUse">
<stop stop-color="#146870"/>
<stop offset="1" stop-color="#63F1FF"/>
</linearGradient>
<clipPath id="clip0_315_107">
<rect width="100" height="100" fill="white"/>
</clipPath>
</defs>
</svg>
