<svg width="100" height="100" viewBox="0 0 100 100" fill="none" xmlns="http://www.w3.org/2000/svg">
<g clip-path="url(#clip0_122_942)">
<path d="M48.6879 20.1843L49.071 22.2226H51.1449H87.6149C93.0715 22.2226 97.5 26.647 97.5 32.1077V77.9821C97.5 83.4379 93.0708 87.8672 87.6149 87.8672H12.3851C6.92684 87.8672 2.5 83.4383 2.5 77.9821V42.2029V32.1077V22.018C2.5 16.557 6.92612 12.1329 12.3851 12.1329H38.991C43.815 12.1329 47.8259 15.5971 48.6879 20.1843Z" stroke="url(#paint0_linear_122_942)" stroke-width="5"/>
<path d="M71.956 42.398V67.234L50.496 79.634L29 67.234V42.47L50.531 30L61.244 36.2L71.956 42.398Z" stroke="url(#paint1_linear_122_942)" stroke-width="5" stroke-linecap="round" stroke-linejoin="round"/>
<path d="M29.709 42.868L40.093 48.842L50.479 54.816M71.114 42.818L50.499 54.72V78.947" stroke="url(#paint2_linear_122_942)" stroke-width="5" stroke-linecap="round" stroke-linejoin="round"/>
<path d="M61.117 36.198L40.105 48.842V57.29" stroke="url(#paint3_linear_122_942)" stroke-width="5" stroke-linecap="round" stroke-linejoin="round"/>
</g>
<defs>
<linearGradient id="paint0_linear_122_942" x1="50" y1="9.63287" x2="50" y2="90.3672" gradientUnits="userSpaceOnUse">
<stop stop-color="#550D38"/>
<stop offset="0.604167" stop-color="#F80497"/>
</linearGradient>
<linearGradient id="paint1_linear_122_942" x1="50.478" y1="30" x2="50.478" y2="79.634" gradientUnits="userSpaceOnUse">
<stop stop-color="#550D38"/>
<stop offset="0.604167" stop-color="#F80497"/>
</linearGradient>
<linearGradient id="paint2_linear_122_942" x1="50.4115" y1="42.818" x2="50.4115" y2="78.947" gradientUnits="userSpaceOnUse">
<stop stop-color="#550D38"/>
<stop offset="0.604167" stop-color="#F80497"/>
</linearGradient>
<linearGradient id="paint3_linear_122_942" x1="50.611" y1="36.198" x2="50.611" y2="57.29" gradientUnits="userSpaceOnUse">
<stop stop-color="#550D38"/>
<stop offset="0.604167" stop-color="#F80497"/>
</linearGradient>
<clipPath id="clip0_122_942">
<rect width="100" height="100" fill="white"/>
</clipPath>
</defs>
</svg>
