<svg width="100" height="100" viewBox="0 0 100 100" fill="none" xmlns="http://www.w3.org/2000/svg">
<g clip-path="url(#clip0_122_759)">
<path d="M48.6879 20.1843L49.071 22.2226H51.1449H87.6149C93.0715 22.2226 97.5 26.647 97.5 32.1077V77.9821C97.5 83.4379 93.0708 87.8672 87.6149 87.8672H12.3851C6.92684 87.8672 2.5 83.4383 2.5 77.9821V42.2029V32.1077V22.018C2.5 16.557 6.92612 12.1329 12.3851 12.1329H38.991C43.815 12.1329 47.8259 15.5971 48.6879 20.1843Z" stroke="url(#paint0_linear_122_759)" stroke-width="5"/>
<path fill-rule="evenodd" clip-rule="evenodd" d="M44.2868 28C42.8353 28 41.6587 29.1766 41.6587 30.6281C41.6587 32.0796 42.8353 33.2563 44.2868 33.2563H47.9112V37.6536H30.6878C26.9272 37.6536 23.8786 40.7022 23.8786 44.4629V56.7362H21.6281C20.1766 56.7362 19 57.9129 19 59.3643C19 60.8158 20.1766 61.9925 21.6281 61.9925H23.8786V75.5453C23.8786 79.3059 26.9272 82.3545 30.6878 82.3545H69.3124C73.073 82.3545 76.1216 79.3059 76.1216 75.5453V61.9925H78.3719C79.8233 61.9925 81 60.8158 81 59.3643C81 57.9129 79.8233 56.7362 78.3719 56.7362H76.1216V44.4629C76.1216 40.7022 73.073 37.6536 69.3124 37.6536H53.1675V30.6281C53.1675 29.1766 51.9908 28 50.5394 28H44.2868ZM44.6093 54.9324C44.6093 53.4809 43.4327 52.3042 41.9812 52.3042C40.5297 52.3042 39.3531 53.4809 39.3531 54.9324V64.7287C39.3531 66.1802 40.5297 67.3568 41.9812 67.3568C43.4327 67.3568 44.6093 66.1802 44.6093 64.7287V54.9324ZM60.7335 54.9324C60.7335 53.4809 59.5569 52.3042 58.1054 52.3042C56.6539 52.3042 55.4773 53.4809 55.4773 54.9324V64.7287C55.4773 66.1802 56.6539 67.3568 58.1054 67.3568C59.5569 67.3568 60.7335 66.1802 60.7335 64.7287V54.9324ZM29.1348 44.4629C29.1348 43.6052 29.8301 42.9099 30.6878 42.9099H69.3124C70.1701 42.9099 70.8654 43.6052 70.8654 44.4629V75.5453C70.8654 76.403 70.1701 77.0983 69.3124 77.0983H30.6878C29.8301 77.0983 29.1348 76.403 29.1348 75.5453V44.4629Z" fill="url(#paint1_linear_122_759)"/>
</g>
<defs>
<linearGradient id="paint0_linear_122_759" x1="50" y1="9.63287" x2="50" y2="90.3672" gradientUnits="userSpaceOnUse">
<stop stop-color="#146870"/>
<stop offset="1" stop-color="#63F1FF"/>
</linearGradient>
<linearGradient id="paint1_linear_122_759" x1="19.0135" y1="28.1904" x2="85.0541" y2="76.8155" gradientUnits="userSpaceOnUse">
<stop stop-color="white"/>
<stop offset="0.848958" stop-color="#7F787F"/>
<stop offset="0.982609" stop-color="#4B454B"/>
</linearGradient>
<clipPath id="clip0_122_759">
<rect width="100" height="100" fill="white"/>
</clipPath>
</defs>
</svg>
