<svg width="100" height="100" viewBox="0 0 100 100" fill="none" xmlns="http://www.w3.org/2000/svg">
<g clip-path="url(#clip0_122_528)">
<path d="M48.6879 20.1843L49.071 22.2226H51.1449H87.6149C93.0715 22.2226 97.5 26.647 97.5 32.1077V77.982C97.5 83.4379 93.0708 87.8671 87.6149 87.8671H12.3851C6.92684 87.8671 2.5 83.4383 2.5 77.982V42.2029V32.1077V22.0179C2.5 16.5569 6.92612 12.1328 12.3851 12.1328H38.991C43.815 12.1328 47.8259 15.5971 48.6879 20.1843Z" stroke="url(#paint0_linear_122_528)" stroke-width="5"/>
<path d="M28 34.5112V72.9662C28.0064 73.8622 28.2289 74.743 28.6482 75.5318C29.0676 76.3206 29.6709 76.9934 30.4056 77.4917C31.1404 77.99 31.9843 78.2986 32.8637 78.3905C33.7431 78.4825 34.6313 78.355 35.451 78.0192L68.645 58.5192C69.4925 58.0443 70.1989 57.3479 70.6908 56.5025C71.1827 55.6572 71.4422 54.6936 71.4422 53.7122C71.4422 52.7308 71.1827 51.7673 70.6908 50.9219C70.1989 50.0765 69.4925 49.3801 68.645 48.9052L35.451 29.4032C34.6501 29.0738 33.7831 28.9433 32.9223 29.0225C32.0615 29.1018 31.2318 29.3886 30.5026 29.8589C29.7734 30.3293 29.1658 30.9695 28.7305 31.7263C28.2951 32.4831 28.0447 33.3344 28 34.2092" stroke="url(#paint1_linear_122_528)" stroke-width="5" stroke-linecap="round" stroke-linejoin="round"/>
</g>
<defs>
<linearGradient id="paint0_linear_122_528" x1="50" y1="9.63284" x2="50" y2="90.3671" gradientUnits="userSpaceOnUse">
<stop stop-color="#146870"/>
<stop offset="1" stop-color="#63F1FF"/>
</linearGradient>
<linearGradient id="paint1_linear_122_528" x1="28.0094" y1="29.1732" x2="81.989" y2="59.8023" gradientUnits="userSpaceOnUse">
<stop stop-color="white"/>
<stop offset="0.848958" stop-color="#7F787F"/>
<stop offset="0.982609" stop-color="#4B454B"/>
</linearGradient>
<clipPath id="clip0_122_528">
<rect width="100" height="100" fill="white"/>
</clipPath>
</defs>
</svg>
