<svg width="100" height="100" viewBox="0 0 100 100" fill="none" xmlns="http://www.w3.org/2000/svg">
<g clip-path="url(#clip0_122_860)">
<path d="M48.6879 20.1843L49.071 22.2226H51.1449H87.6149C93.0715 22.2226 97.5 26.647 97.5 32.1077V77.9821C97.5 83.4379 93.0708 87.8672 87.6149 87.8672H12.3851C6.92684 87.8672 2.5 83.4383 2.5 77.9821V42.2029V32.1077V22.018C2.5 16.557 6.92612 12.1329 12.3851 12.1329H38.991C43.815 12.1329 47.8259 15.5971 48.6879 20.1843Z" stroke="url(#paint0_linear_122_860)" stroke-width="5"/>
<path d="M36.4293 41.1818L22 55.6111L36.1668 69.7785M62.749 41.1818L77.1783 55.6111L63.0116 69.7785" stroke="url(#paint1_linear_122_860)" stroke-width="5.14581" stroke-linecap="round" stroke-linejoin="round"/>
<path d="M54.6643 32L44.5171 79" stroke="url(#paint2_linear_122_860)" stroke-width="5.14581" stroke-linecap="round" stroke-linejoin="round"/>
</g>
<defs>
<linearGradient id="paint0_linear_122_860" x1="50" y1="9.63287" x2="50" y2="90.3672" gradientUnits="userSpaceOnUse">
<stop stop-color="#146870"/>
<stop offset="1" stop-color="#63F1FF"/>
</linearGradient>
<linearGradient id="paint1_linear_122_860" x1="22.012" y1="41.282" x2="57.5382" y2="85.53" gradientUnits="userSpaceOnUse">
<stop stop-color="white"/>
<stop offset="0.848958" stop-color="#7F787F"/>
<stop offset="0.982609" stop-color="#4B454B"/>
</linearGradient>
<linearGradient id="paint2_linear_122_860" x1="44.5193" y1="32.1647" x2="60.8698" y2="34.4433" gradientUnits="userSpaceOnUse">
<stop stop-color="white"/>
<stop offset="0.848958" stop-color="#7F787F"/>
<stop offset="0.982609" stop-color="#4B454B"/>
</linearGradient>
<clipPath id="clip0_122_860">
<rect width="100" height="100" fill="white"/>
</clipPath>
</defs>
</svg>
