<svg width="100" height="100" viewBox="0 0 100 100" fill="none" xmlns="http://www.w3.org/2000/svg">
<path d="M36.5533 69.93L36.5526 69.9231C35.7107 61.6196 34.9039 53.3126 34.1322 45.0024C34.0239 43.228 32.8268 42.2426 32.4632 41.9745C31.967 41.6086 31.4915 41.4277 31.2741 41.3509C30.7874 41.1788 30.3058 41.0927 29.9806 41.0443C29.6748 40.9988 29.3443 40.9637 29 40.9385V39.1693H45.1034H49.1034V35.1693V18.5851L56.6354 14.0927C56.6357 14.0925 56.6361 14.0923 56.6364 14.0921C59.4879 12.3924 61.9228 11.0203 63.7198 10.0847C64.4232 9.71854 64.9986 9.43516 65.4447 9.23036C65.4561 9.24213 65.4676 9.25427 65.4793 9.2668C65.6395 9.4393 65.7533 9.61647 65.8159 9.7513C65.8272 9.77579 65.8356 9.79588 65.8416 9.81157C65.8396 9.84115 65.8365 9.87576 65.8319 9.91483C65.5072 10.1462 65.0836 10.4357 64.572 10.7737C63.303 11.6121 61.6104 12.6712 59.8116 13.7374L59.8046 13.7415L53.1086 17.7289L51.2009 18.8648L51.1559 21.0846L51.0141 28.0811L51.014 28.0839L50.8671 35.0854L50.7814 39.1693H54.8662H71V40.8888H70.0324H66.4123L66.0523 44.491L63.5483 69.5458L63.5482 69.5466L61.3998 91H38.6527L36.5533 69.93ZM66.2139 8.90789C66.2696 8.88989 66.2602 8.89669 66.1992 8.91279C66.2049 8.91085 66.2098 8.90922 66.2139 8.90789ZM65.0841 8.94533C65.078 8.94292 65.075 8.94144 65.075 8.9413C65.075 8.94116 65.078 8.94237 65.0841 8.94533ZM65.8555 9.8535C65.8555 9.8535 65.8553 9.85263 65.8549 9.85088C65.8554 9.85263 65.8556 9.8535 65.8555 9.8535ZM66.3715 9.51126C66.3704 9.51223 66.3692 9.51324 66.3679 9.51428C66.4167 9.46915 66.4262 9.46562 66.3715 9.51126Z" stroke="url(#paint0_linear_122_1152)" stroke-width="8"/>
<defs>
<linearGradient id="paint0_linear_122_1152" x1="50" y1="5" x2="50" y2="95" gradientUnits="userSpaceOnUse">
<stop stop-color="#550D38"/>
<stop offset="0.604167" stop-color="#F80497"/>
</linearGradient>
</defs>
</svg>
