<svg width="100" height="100" viewBox="0 0 100 100" fill="none" xmlns="http://www.w3.org/2000/svg">
<path fill-rule="evenodd" clip-rule="evenodd" d="M26.7676 15.072L26.768 15.0716L26.7685 15.0712C27.7109 14.1202 28.8675 13.1571 30.0452 12.4569C31.2699 11.7286 32.2006 11.4724 32.7812 11.4724H84.256C84.9027 11.4724 86.1132 11.911 87.2914 13.0622C88.4742 14.2179 88.8916 15.3716 88.8916 15.9562V62.94C88.8916 65.6327 87.6034 68.6938 85.6094 70.8192L85.6092 70.8195L80.1956 76.5911V32.077C80.1956 28.6395 78.3514 25.5223 76.2324 23.4034C74.1136 21.2845 70.9967 19.4404 67.5601 19.4404H22.4415L26.7676 15.072ZM12.744 29.0443L12.8383 29.1377L13.771 28.1958C14.573 27.657 15.2985 27.4404 15.7439 27.4404H67.5601C68.1932 27.4404 69.3941 27.8787 70.5756 29.0602C71.757 30.2416 72.1956 31.4428 72.1956 32.077V83.8921C72.1956 84.3826 71.933 85.2129 71.2666 86.1108L70.5298 86.8963L70.5596 86.9243C69.3837 88.0932 68.1909 88.5277 67.5601 88.5277H15.7634C15.1232 88.5277 13.9163 88.0865 12.7318 86.9055C11.5468 85.7238 11.1084 84.5241 11.1084 83.8921V32.077C11.1084 31.4425 11.5471 30.2413 12.7282 29.0601L12.744 29.0443ZM8.52226 22.1267L21.0841 9.44191L21.085 9.44105C22.3772 8.13701 24.0598 6.70841 25.9565 5.58059C27.8066 4.48056 30.186 3.47235 32.7812 3.47235H84.256C87.6442 3.47235 90.7515 5.25819 92.8823 7.34016C95.0086 9.41771 96.8916 12.5058 96.8916 15.9562V62.94C96.8916 67.8823 94.6738 72.8499 91.4438 76.2928L77.3372 91.3326C76.9839 91.7728 76.6128 92.1849 76.2328 92.5648C74.1139 94.6837 70.9971 96.5277 67.5601 96.5277H15.7634C12.3277 96.5277 9.20718 94.6884 7.08309 92.5704C4.95961 90.453 3.1084 87.335 3.1084 83.8921V32.077C3.1084 28.6397 4.95211 25.5226 7.07111 23.4035C7.5134 22.9612 7.99917 22.5308 8.52226 22.1267ZM15.6292 54.3595C16.7361 52.4477 19.1832 51.7951 21.0951 52.9019L38.3678 62.9019C39.6031 63.6171 40.3637 64.9363 40.3637 66.3636C40.3637 67.791 39.6031 69.1102 38.3678 69.8254L21.0951 79.8254C19.1832 80.9322 16.7361 80.2796 15.6292 78.3678C14.5224 76.4559 15.175 74.0088 17.0868 72.9019L28.3802 66.3636L17.0868 59.8254C15.175 58.7185 14.5224 56.2714 15.6292 54.3595ZM44.5454 75.4545C42.3363 75.4545 40.5454 77.2454 40.5454 79.4545C40.5454 81.6637 42.3363 83.4545 44.5454 83.4545H60.909C63.1182 83.4545 64.909 81.6637 64.909 79.4545C64.909 77.2454 63.1182 75.4545 60.909 75.4545H44.5454Z" fill="url(#paint0_linear_122_247)"/>
<defs>
<linearGradient id="paint0_linear_122_247" x1="50" y1="3.47235" x2="50" y2="96.5277" gradientUnits="userSpaceOnUse">
<stop stop-color="#146870"/>
<stop offset="1" stop-color="#63F1FF"/>
</linearGradient>
</defs>
</svg>
