<svg width="100" height="100" viewBox="0 0 100 100" fill="none" xmlns="http://www.w3.org/2000/svg">
<path fill-rule="evenodd" clip-rule="evenodd" d="M49.9065 42.5217H50.0935C55.2011 42.5217 59.3478 46.6684 59.3478 51.7761V66.9196C59.3478 72.0272 55.2011 76.1739 50.0935 76.1739H49.9065C44.7989 76.1739 40.6522 72.0272 40.6522 66.9196V51.7761C40.6522 46.6684 44.7989 42.5217 49.9065 42.5217ZM18.2174 50C18.2174 41.587 21.5826 33.473 27.5278 27.5278C33.473 21.5826 41.587 18.2174 50 18.2174C58.413 18.2174 66.527 21.5826 72.4722 27.5278C78.4174 33.473 81.7826 41.587 81.7826 50C81.7826 58.413 78.4174 66.527 72.4722 72.4722C66.527 78.4174 58.413 81.7826 50 81.7826C41.587 81.7826 33.473 78.4174 27.5278 72.4722C21.5826 66.527 18.2174 58.413 18.2174 50ZM7 50C7 38.5957 11.5243 27.64 19.6009 19.6009C27.64 11.5243 38.5957 7 50 7C61.4043 7 72.36 11.5243 80.3991 19.6009C88.4757 27.64 93 38.5957 93 50C93 61.4043 88.4757 72.36 80.3991 80.3991C72.36 88.4757 61.4043 93 50 93C38.5957 93 27.64 88.4757 19.6009 80.3991C11.5243 72.36 7 61.4043 7 50ZM44.3913 33.1739C44.3913 30.0779 46.904 27.5652 50 27.5652C53.096 27.5652 55.6087 30.0779 55.6087 33.1739C55.6087 36.2699 53.096 38.7826 50 38.7826C46.904 38.7826 44.3913 36.2699 44.3913 33.1739Z" fill="url(#paint0_linear_122_378)"/>
<defs>
<linearGradient id="paint0_linear_122_378" x1="50" y1="7" x2="50" y2="93" gradientUnits="userSpaceOnUse">
<stop stop-color="#550D38"/>
<stop offset="0.604167" stop-color="#F80497"/>
</linearGradient>
</defs>
</svg>
