<svg width="100" height="100" viewBox="0 0 100 100" fill="none" xmlns="http://www.w3.org/2000/svg">
<path d="M66.9747 66.6649C70.2221 66.3269 72.6858 63.5121 72.5737 60.1339C72.462 56.756 69.6621 54.0536 66.3027 54.0536H66.0789C62.607 54.1662 59.9196 57.0937 60.0316 60.5842C60.1437 62.2733 60.8154 63.7371 61.8233 64.7505C58.0159 72.2949 52.1928 77.8122 43.4581 82.4288C37.5229 85.5816 31.3639 86.7077 25.205 85.9197C20.1656 85.244 16.2462 82.9922 13.7822 79.276C10.1989 73.7586 9.86306 67.7906 12.8867 61.823C15.0145 57.5441 18.3736 54.3912 20.5014 52.8148C20.0535 51.3511 19.3815 48.8739 19.0457 47.0725C2.80793 58.8955 4.48784 74.8847 9.41515 82.4288C13.1105 88.0591 20.6135 91.5496 28.9003 91.5496C31.1398 91.5496 33.3793 91.3243 35.6192 90.7616C49.9532 87.9464 60.8157 79.3886 66.9747 66.6649ZM86.684 52.7025C78.173 42.6809 65.631 37.1636 51.297 37.1636H49.5053C48.4975 35.1368 46.3696 33.7854 44.0181 33.7854H43.7939C40.3227 33.8981 37.6353 36.8256 37.747 40.3165C37.8591 43.6943 40.6586 46.3968 44.0181 46.3968H44.2418C46.7055 46.2841 48.8333 44.7077 49.7291 42.5682H51.7449C60.2558 42.5682 68.3184 45.0454 75.5977 49.8873C81.1967 53.6032 85.2282 58.4451 87.4677 64.3001C89.3714 69.0294 89.2593 73.646 87.2436 77.5872C84.1082 83.5549 78.8451 86.8204 71.902 86.8204C67.4226 86.8204 63.1673 85.469 60.9275 84.4556C59.6958 85.5816 57.4559 87.3831 55.8881 88.5095C60.7037 90.7613 65.631 92 70.3342 92C81.0846 92 89.0356 86.032 92.0592 80.0643C95.3066 73.5333 95.0825 62.2733 86.684 52.7025ZM29.7961 68.5787C29.9081 71.9569 32.7077 74.659 36.0671 74.659H36.2912C39.7628 74.5467 42.4502 71.6188 42.3381 68.1283C42.2264 64.7501 39.4266 62.048 36.0671 62.048H35.8433C35.6192 62.048 35.283 62.048 35.0596 62.1603C30.4681 54.5036 28.5644 46.1714 29.2365 37.1633C29.684 30.4072 31.9239 24.5519 35.8433 19.71C39.0907 15.5437 45.3618 13.517 49.6174 13.4046C61.4874 13.1793 66.5265 28.0424 66.8626 34.0104C68.3184 34.3481 70.7821 35.1365 72.462 35.6995C71.1179 17.4585 59.9196 8 49.1695 8C39.0907 8 29.7961 15.3191 26.1004 26.1287C20.9493 40.5415 24.3088 54.3912 30.5798 65.3135C30.0202 66.1016 29.684 67.3399 29.7961 68.5787Z" stroke="url(#paint0_linear_122_1150)" stroke-width="4"/>
<defs>
<linearGradient id="paint0_linear_122_1150" x1="50" y1="8" x2="50" y2="92" gradientUnits="userSpaceOnUse">
<stop stop-color="#550D38"/>
<stop offset="0.604167" stop-color="#F80497"/>
</linearGradient>
</defs>
</svg>
