<svg width="100" height="100" viewBox="0 0 100 100" fill="none" xmlns="http://www.w3.org/2000/svg">
<path fill-rule="evenodd" clip-rule="evenodd" d="M22.0543 29.2529C22.0543 14.2363 34.2277 2.06297 49.2443 2.06297H51.2235C65.9818 2.06297 77.9457 14.0269 77.9457 28.7851V29.1798C77.9457 30.881 76.5666 32.26 74.8654 32.26H25.0614C23.4007 32.26 22.0543 30.9137 22.0543 29.2529ZM26.8847 25.3895C26.6664 26.662 27.699 27.7573 28.99 27.7573H71.0812C72.3551 27.7573 73.382 26.6899 73.1913 25.4304C71.574 14.7508 62.3546 6.56574 51.2235 6.56574H49.2443C38.0315 6.56574 28.7186 14.7 26.8847 25.3895ZM12 44.5315C12 38.9692 16.5092 34.4601 22.0714 34.4601H77.9286C83.4908 34.4601 87.9999 38.9692 87.9999 44.5315V54.5858C87.9999 60.1481 83.4908 64.6572 77.9286 64.6572H22.0714C16.5092 64.6572 12 60.1481 12 54.5858V44.5315ZM22.0714 38.9629C18.996 38.9629 16.5028 41.456 16.5028 44.5315V54.5858C16.5028 57.6612 18.996 60.1544 22.0714 60.1544H77.9286C81.004 60.1544 83.4972 57.6612 83.4972 54.5858V44.5315C83.4972 41.456 81.004 38.9629 77.9286 38.9629H22.0714ZM23.6134 49.7817C23.6134 47.6199 25.4057 45.8273 27.5678 45.8273H72.4102C74.5937 45.8273 76.3646 47.6205 76.3646 49.7817C76.3646 51.9421 74.6161 53.7362 72.4323 53.7362H27.5678C25.384 53.7362 23.6134 51.943 23.6134 49.7817ZM26.5571 82.5144V70.2258C26.5571 68.9918 25.5397 67.9915 24.3057 67.9915V67.9915C23.0717 67.9915 22.0543 68.9918 22.0543 70.2258V82.5144C22.0543 89.9276 28.0639 95.9372 35.4771 95.9372H64.5229C71.9361 95.9372 77.9457 89.9276 77.9457 82.5144V70.2258C77.9457 68.9918 76.9282 67.9915 75.6943 67.9915V67.9915C74.4603 67.9915 73.4429 68.9918 73.4429 70.2258V82.5144C73.4429 87.4408 69.4493 91.4344 64.5229 91.4344H35.4771C30.5507 91.4344 26.5571 87.4408 26.5571 82.5144ZM41.0629 73.5772H40.6001C40.0075 73.5772 39.4392 73.8126 39.0202 74.2316L38.693 74.5588L36.4587 76.7931C35.1499 78.1019 35.1499 80.2239 36.4587 81.5327C37.7676 82.8416 39.8896 82.8416 41.1984 81.5327L41.7967 80.9345C42.2157 80.5155 42.784 80.2801 43.3765 80.2801H57.0752C57.5587 80.2801 58.0291 80.4369 58.4158 80.7269L59.1606 81.2855C60.6413 82.3961 62.742 82.096 63.8526 80.6152C64.9631 79.1345 64.663 77.0338 63.1823 75.9232L60.948 74.2475L60.6501 74.0241C60.2633 73.734 59.793 73.5772 59.3095 73.5772H58.9371H41.0629Z" fill="url(#paint0_linear_122_1125)"/>
<defs>
<linearGradient id="paint0_linear_122_1125" x1="50.0001" y1="2.06281" x2="50.0001" y2="95.937" gradientUnits="userSpaceOnUse">
<stop stop-color="#550D38"/>
<stop offset="0.604167" stop-color="#F80497"/>
</linearGradient>
</defs>
</svg>
