<svg width="100" height="100" viewBox="0 0 100 100" fill="none" xmlns="http://www.w3.org/2000/svg">
<path d="M52.1128 23.75C51.5531 23.7502 51.0162 23.5285 50.6198 23.1335C50.2234 22.7384 49.9999 22.2023 49.9982 21.6427C49.9981 19.7009 50.3805 17.7781 51.1235 15.984C51.8666 14.19 52.9557 12.5599 54.3288 11.1869C55.7018 9.81382 57.3319 8.72467 59.1259 7.98162C60.92 7.23858 62.8428 6.8562 64.7846 6.85632C65.0619 6.85656 65.3364 6.91147 65.5924 7.01791C65.8484 7.12435 66.081 7.28023 66.2767 7.47663C66.4724 7.67303 66.6275 7.9061 66.733 8.1625C66.8386 8.4189 66.8926 8.69359 66.8918 8.97087C66.8885 12.8889 65.3301 16.6454 62.559 19.4153C59.788 22.1852 56.0308 23.7419 52.1128 23.7436V23.75ZM82.9482 68.2245C83.3433 68.5212 83.6215 68.9475 83.734 69.4286C83.8465 69.9098 83.7862 70.4152 83.5637 70.8563C76.1373 85.7345 70.2018 93.1436 64.7846 93.1436C62.2637 93.1436 59.7864 92.33 57.37 90.74C55.6441 89.6032 53.6326 88.9764 51.5664 88.9317C49.5003 88.887 47.4635 89.4262 45.69 90.4872C42.7691 92.2372 39.9773 93.1436 37.3328 93.1436C29.3573 93.1436 16.2109 68.6009 16.2109 55.1281C16.2109 40.7554 23.7491 29.7845 35.2191 29.7845C40.6118 29.7845 45.2709 30.5854 49.1855 32.1881C50.0054 32.5292 50.8882 32.6934 51.7759 32.6699C52.6637 32.6464 53.5365 32.4358 54.3373 32.0518C57.5118 30.5245 61.6964 29.7845 66.8982 29.7845C73.2464 29.7845 78.7691 32.9463 83.3673 39.0781C83.704 39.5262 83.849 40.0896 83.7705 40.6445C83.6919 41.1994 83.3961 41.7004 82.9482 42.0372C77.8137 45.8827 75.3418 50.21 75.3418 55.1281C75.3418 60.0527 77.8146 64.3736 82.9482 68.2245Z" stroke="url(#paint0_linear_328_1987)" stroke-width="8" stroke-linecap="round" stroke-linejoin="round"/>
<defs>
<linearGradient id="paint0_linear_328_1987" x1="16.2256" y1="7.15865" x2="104.638" y2="51.8558" gradientUnits="userSpaceOnUse">
<stop stop-color="white"/>
<stop offset="0.848958" stop-color="#7F787F"/>
<stop offset="0.982609" stop-color="#4B454B"/>
</linearGradient>
</defs>
</svg>
