<svg width="100" height="100" viewBox="0 0 100 100" fill="none" xmlns="http://www.w3.org/2000/svg">
<path d="M50.0001 60.0737C55.5636 60.0737 60.0737 55.5635 60.0737 50C60.0737 44.4365 55.5636 39.9263 50.0001 39.9263C44.4365 39.9263 39.9264 44.4365 39.9264 50C39.9264 55.5635 44.4365 60.0737 50.0001 60.0737Z" fill="url(#paint0_linear_328_1971)"/>
<path d="M49.3667 7.69266C29.655 7.69266 13.0934 21.178 8.39336 39.4237C8.34901 39.5878 8.32517 39.7567 8.32235 39.9267C8.32244 40.4609 8.53473 40.9733 8.91253 41.3511C9.29034 41.7289 9.80273 41.9412 10.337 41.9413H27.3944C28.2074 41.9413 28.901 41.4587 29.2194 40.764C29.2194 40.764 29.2454 40.716 29.2534 40.693C32.77 33.1043 40.4504 27.839 49.3627 27.839C61.6017 27.839 71.5237 37.7597 71.5237 50C71.5237 62.2403 61.6044 72.161 49.3654 72.161C40.4527 72.161 32.7737 66.8943 29.256 59.307C29.2467 59.2827 29.222 59.236 29.222 59.236C29.0628 58.8854 28.806 58.588 28.4825 58.3792C28.1589 58.1705 27.7821 58.0592 27.397 58.0587H10.3367C10.0721 58.0586 9.81008 58.1106 9.56561 58.2118C9.32114 58.3131 9.09901 58.4614 8.91191 58.6485C8.72481 58.8356 8.57642 59.0578 8.4752 59.3022C8.37399 59.5467 8.32193 59.8087 8.32202 60.0733C8.32202 60.2473 8.35136 60.416 8.39302 60.5767C13.092 78.8223 29.6537 92.3073 49.3664 92.3073C72.732 92.3073 91.673 73.3643 91.673 50.0007C91.673 26.6363 72.7314 7.69399 49.3664 7.69399L49.3667 7.69266Z" stroke="url(#paint1_linear_328_1971)" stroke-width="8"/>
<defs>
<linearGradient id="paint0_linear_328_1971" x1="39.9308" y1="39.9969" x2="63.2917" y2="55.0762" gradientUnits="userSpaceOnUse">
<stop stop-color="white"/>
<stop offset="0.848958" stop-color="#7F787F"/>
<stop offset="0.982609" stop-color="#4B454B"/>
</linearGradient>
<linearGradient id="paint1_linear_328_1971" x1="8.34011" y1="7.98913" x2="105.836" y2="69.9823" gradientUnits="userSpaceOnUse">
<stop stop-color="white"/>
<stop offset="0.848958" stop-color="#7F787F"/>
<stop offset="0.982609" stop-color="#4B454B"/>
</linearGradient>
</defs>
</svg>
