<svg width="100" height="100" viewBox="0 0 100 100" fill="none" xmlns="http://www.w3.org/2000/svg">
<path d="M6.88 17.2882C6.88 13.6745 10.0755 10.7455 14.0164 10.7455H42.5655L50.2973 17.8827H85.9827C89.9245 17.8827 93.12 20.8118 93.12 24.4255L92.5255 82.7118C92.5255 86.3255 89.33 89.2545 85.3891 89.2545H14.0164C10.0755 89.2545 6.88 86.3255 6.88 82.7118V17.2882Z" stroke="url(#paint0_linear_106_136)" stroke-width="8"/>
<path d="M59.2382 42.7155V73.5109M40.761 42.7155V73.5109M77.6273 42.7155V73.5109M77.7164 73.5109H22.2837V42.7155H77.7164M22.2837 58.1136H77.7164" stroke="url(#paint1_linear_106_136)" stroke-width="8" stroke-linecap="round" stroke-linejoin="round"/>
<defs>
<linearGradient id="paint0_linear_106_136" x1="6.89872" y1="11.0205" x2="101.165" y2="77.8608" gradientUnits="userSpaceOnUse">
<stop stop-color="white"/>
<stop offset="0.848958" stop-color="#7F787F"/>
<stop offset="0.982609" stop-color="#4B454B"/>
</linearGradient>
<linearGradient id="paint1_linear_106_136" x1="22.2957" y1="42.8234" x2="61.0421" y2="87.8431" gradientUnits="userSpaceOnUse">
<stop stop-color="white"/>
<stop offset="0.848958" stop-color="#7F787F"/>
<stop offset="0.982609" stop-color="#4B454B"/>
</linearGradient>
</defs>
</svg>
