<svg width="100" height="100" viewBox="0 0 100 100" fill="none" xmlns="http://www.w3.org/2000/svg">
<path d="M49.9963 37.7509C70.8968 37.7509 87.84 30.8894 87.84 22.4254C87.84 13.9614 70.8968 7.09998 49.9963 7.09998C29.0959 7.09998 12.1527 13.9614 12.1527 22.4254C12.1527 30.8894 29.0959 37.7509 49.9963 37.7509Z" stroke="url(#paint0_linear_106_143)" stroke-width="8"/>
<path d="M87.8382 49.6527C87.8378 52.3426 86.0892 54.9851 82.7681 57.3146C79.447 59.6441 74.6704 61.5786 68.9182 62.9237C63.1654 64.2687 56.6396 64.9768 49.9969 64.9768C43.3541 64.9768 36.8283 64.2687 31.0755 62.9237C25.3233 61.5789 20.5464 59.6448 17.2247 57.3156C13.9029 54.9865 12.1534 52.3443 12.1519 49.6546M87.8382 77.5637C87.8385 80.2539 86.0902 82.8967 82.7688 85.2266C79.4475 87.5565 74.6703 89.4912 68.9173 90.8364C63.1645 92.1814 56.6387 92.8895 49.9959 92.8895C43.3532 92.8895 36.8274 92.1814 31.0746 90.8364C25.3213 89.4913 20.5437 87.5566 17.222 85.2267C13.9004 82.8969 12.1517 80.254 12.1519 77.5637M12.1609 22.8V77.5637M87.8482 22.77V77.5337" stroke="url(#paint1_linear_106_143)" stroke-width="8"/>
<defs>
<linearGradient id="paint0_linear_106_143" x1="12.1691" y1="7.20737" x2="47.283" y2="63.1768" gradientUnits="userSpaceOnUse">
<stop stop-color="white"/>
<stop offset="0.848958" stop-color="#7F787F"/>
<stop offset="0.982609" stop-color="#4B454B"/>
</linearGradient>
<linearGradient id="paint1_linear_106_143" x1="12.1683" y1="23.0157" x2="95.8669" y2="81.3397" gradientUnits="userSpaceOnUse">
<stop stop-color="white"/>
<stop offset="0.848958" stop-color="#7F787F"/>
<stop offset="0.982609" stop-color="#4B454B"/>
</linearGradient>
</defs>
</svg>
