<svg width="100" height="100" viewBox="0 0 100 100" fill="none" xmlns="http://www.w3.org/2000/svg">
<path d="M77.8864 66.3455C77.8864 79.7709 67.4127 92.9182 50.1791 92.9182C31.3964 92.9182 22.1136 79.6418 22.1136 63.2536C22.1136 44.61 36.0409 16.9064 50.7409 7.26272C50.965 7.11904 51.2249 7.0412 51.4911 7.03805C51.7573 7.0349 52.019 7.10658 52.2464 7.24492C52.4738 7.38327 52.6578 7.58271 52.7773 7.82052C52.8969 8.05833 52.9473 8.32495 52.9227 8.59C52.0984 16.8387 54.2486 25.1105 58.9855 31.9136C60.8536 34.7591 62.8927 37.2027 65.2946 40.33C68.6582 44.7209 71.1518 47.1509 74.7555 54.0782L74.8091 54.1782C76.8351 57.9129 77.893 62.0957 77.8864 66.3445V66.3455Z" stroke="url(#paint0_linear_328_3165)" stroke-width="8" stroke-linecap="round" stroke-linejoin="round"/>
<defs>
<linearGradient id="paint0_linear_328_3165" x1="22.1258" y1="7.33885" x2="100.047" y2="40.0033" gradientUnits="userSpaceOnUse">
<stop stop-color="white"/>
<stop offset="0.848958" stop-color="#7F787F"/>
<stop offset="0.982609" stop-color="#4B454B"/>
</linearGradient>
</defs>
</svg>
