<svg width="100" height="100" viewBox="0 0 100 100" fill="none" xmlns="http://www.w3.org/2000/svg">
<path d="M6.84009 21.2274C6.84009 13.281 13.281 6.84009 21.2265 6.84009H78.7737C86.7192 6.84009 93.1601 13.281 93.1601 21.2265V78.7737C93.1601 86.7192 86.7192 93.1601 78.7737 93.1601H21.2265C13.281 93.1601 6.84009 86.7192 6.84009 78.7737V21.2274Z" stroke="url(#paint0_linear_328_2049)" stroke-width="8"/>
<path fill-rule="evenodd" clip-rule="evenodd" d="M35.0546 20.2791C35.0546 18.0699 33.2638 16.2791 31.0546 16.2791C28.8455 16.2791 27.0546 18.0699 27.0546 20.2791V31.922C20.9582 33.6604 16.4946 39.2721 16.4946 45.9263C16.4946 52.5806 20.9582 58.1923 27.0546 59.9307V79.7636C27.0546 81.9727 28.8455 83.7636 31.0546 83.7636C33.2638 83.7636 35.0546 81.9727 35.0546 79.7636V59.9312C41.152 58.1934 45.6164 52.5812 45.6164 45.9263C45.6164 39.2714 41.152 33.6592 35.0546 31.9215V20.2791ZM72.8801 20.2791C72.8801 18.0699 71.0892 16.2791 68.8801 16.2791C66.6709 16.2791 64.8801 18.0699 64.8801 20.2791V46.9788C58.7284 48.6814 54.2119 54.32 54.2119 61.0136C54.2119 67.7072 58.7284 73.3458 64.8801 75.0484V79.7636C64.8801 81.9727 66.6709 83.7636 68.8801 83.7636C71.0892 83.7636 72.8801 81.9727 72.8801 79.7636V74.9872C78.9219 73.2141 83.3337 67.6291 83.3337 61.0136C83.3337 54.3981 78.9219 48.8131 72.8801 47.04V20.2791ZM31.0555 39.3654C27.432 39.3654 24.4946 42.3028 24.4946 45.9263C24.4946 49.5498 27.432 52.4872 31.0555 52.4872C34.679 52.4872 37.6164 49.5498 37.6164 45.9263C37.6164 42.3028 34.679 39.3654 31.0555 39.3654ZM68.7728 54.4527C65.1493 54.4527 62.2119 57.3901 62.2119 61.0136C62.2119 64.6371 65.1493 67.5745 68.7728 67.5745C72.3963 67.5745 75.3337 64.6371 75.3337 61.0136C75.3337 57.3901 72.3963 54.4527 68.7728 54.4527Z" fill="url(#paint1_linear_328_2049)"/>
<defs>
<linearGradient id="paint0_linear_328_2049" x1="6.85882" y1="7.14253" x2="106.947" y2="71.749" gradientUnits="userSpaceOnUse">
<stop stop-color="white"/>
<stop offset="0.848958" stop-color="#7F787F"/>
<stop offset="0.982609" stop-color="#4B454B"/>
</linearGradient>
<linearGradient id="paint1_linear_328_2049" x1="16.5091" y1="16.5155" x2="94.4456" y2="66.3419" gradientUnits="userSpaceOnUse">
<stop stop-color="white"/>
<stop offset="0.848958" stop-color="#7F787F"/>
<stop offset="0.982609" stop-color="#4B454B"/>
</linearGradient>
</defs>
</svg>
