<svg width="100" height="100" viewBox="0 0 100 100" fill="none" xmlns="http://www.w3.org/2000/svg">
<g clip-path="url(#clip0_328_2497)">
<path d="M48.6879 20.1843L49.071 22.2226H51.1449H87.6149C93.0715 22.2226 97.5 26.647 97.5 32.1077V77.9821C97.5 83.4379 93.0708 87.8672 87.6149 87.8672H12.3851C6.92684 87.8672 2.5 83.4383 2.5 77.9821V42.2029V32.1077V22.018C2.5 16.557 6.92612 12.1329 12.3851 12.1329H38.991C43.815 12.1329 47.8259 15.5971 48.6879 20.1843Z" stroke="url(#paint0_linear_328_2497)" stroke-width="5"/>
<path d="M44.7108 51.7481C45.5206 50.0818 48.7445 42.7538 49.7018 41.0806C50.3515 39.9447 51.1084 38.9117 51.9304 37.9746C57.0808 32.1037 64.7934 30 64.7934 30C64.7934 30 66.8893 37.7146 64.4389 45.1301C64.0478 46.3139 63.541 47.4898 62.8911 48.6255C61.934 50.2989 57.1042 56.7685 56.0783 58.3111M44.7108 51.7481L39.5761 48.7836L26 61.3251L40.2156 61.231M44.7108 51.7481C42.6082 56.0748 41.0363 59.0009 40.2156 61.231M56.0783 58.3111L60.6015 60.9226L58.9485 80.3479L50.2104 67.0015M56.0783 58.3111C53.4143 62.3166 51.7166 65.1637 50.2104 67.0015M40.2156 61.231C39.7936 62.3774 39.2766 65.6273 39.2766 65.6273L47.2815 70.2489C47.2815 70.2489 49.436 67.9462 50.2104 67.0015M37.2309 78.1946C37.0937 72.2507 39.0235 69.2668 41.5211 70.6949C44.0186 72.1235 42.4241 75.2999 37.2309 78.1946Z" stroke="url(#paint1_linear_328_2497)" stroke-width="3.08527" stroke-linecap="round" stroke-linejoin="round"/>
</g>
<defs>
<linearGradient id="paint0_linear_328_2497" x1="0.0217031" y1="9.91575" x2="100.228" y2="90.0334" gradientUnits="userSpaceOnUse">
<stop stop-color="white"/>
<stop offset="0.848958" stop-color="#7F787F"/>
<stop offset="0.982609" stop-color="#4B454B"/>
</linearGradient>
<linearGradient id="paint1_linear_328_2497" x1="26.0086" y1="30.1764" x2="77.7476" y2="56.4629" gradientUnits="userSpaceOnUse">
<stop stop-color="white"/>
<stop offset="0.848958" stop-color="#7F787F"/>
<stop offset="0.982609" stop-color="#4B454B"/>
</linearGradient>
<clipPath id="clip0_328_2497">
<rect width="100" height="100" fill="white"/>
</clipPath>
</defs>
</svg>
