<svg width="100" height="100" viewBox="0 0 100 100" fill="none" xmlns="http://www.w3.org/2000/svg">
<g clip-path="url(#clip0_106_811)">
<path d="M48.6879 20.1843L49.071 22.2226H51.1449H87.6149C93.0715 22.2226 97.5 26.647 97.5 32.1077V77.9821C97.5 83.4379 93.0708 87.8672 87.6149 87.8672H12.3851C6.92684 87.8672 2.5 83.4383 2.5 77.9821V42.2029V32.1077V22.018C2.5 16.557 6.92612 12.1329 12.3851 12.1329H38.991C43.815 12.1329 47.8259 15.5971 48.6879 20.1843Z" stroke="url(#paint0_linear_106_811)" stroke-width="5"/>
<path d="M70.8353 31H45.8474C44.7429 31 43.6836 31.4388 42.9026 32.2198C42.1215 33.0008 41.6828 34.0601 41.6828 35.1647C41.6828 36.2692 42.1215 37.3285 42.9026 38.1095C43.6836 38.8905 44.7429 39.3293 45.8474 39.3293H60.7985L26.2319 73.8543C25.8416 74.2415 25.5317 74.7021 25.3203 75.2096C25.1089 75.7171 25 76.2614 25 76.8112C25 77.361 25.1089 77.9053 25.3203 78.4128C25.5317 78.9203 25.8416 79.3809 26.2319 79.7681C26.6191 80.1584 27.0797 80.4683 27.5872 80.6797C28.0947 80.8911 28.639 81 29.1888 81C29.7386 81 30.2829 80.8911 30.7904 80.6797C31.2979 80.4683 31.7585 80.1584 32.1457 79.7681L66.6707 45.2015V60.1526C66.6707 61.2571 67.1095 62.3164 67.8905 63.0974C68.6715 63.8785 69.7308 64.3172 70.8353 64.3172C71.9399 64.3172 72.9992 63.8785 73.7802 63.0974C74.5612 62.3164 75 61.2571 75 60.1526V35.1647C75 34.0601 74.5612 33.0008 73.7802 32.2198C72.9992 31.4388 71.9399 31 70.8353 31Z" fill="url(#paint1_linear_106_811)"/>
</g>
<defs>
<linearGradient id="paint0_linear_106_811" x1="0.0217031" y1="9.91575" x2="100.228" y2="90.0334" gradientUnits="userSpaceOnUse">
<stop stop-color="white"/>
<stop offset="0.848958" stop-color="#7F787F"/>
<stop offset="0.982609" stop-color="#4B454B"/>
</linearGradient>
<linearGradient id="paint1_linear_106_811" x1="25.0109" y1="31.1752" x2="82.986" y2="68.5978" gradientUnits="userSpaceOnUse">
<stop stop-color="white"/>
<stop offset="0.848958" stop-color="#7F787F"/>
<stop offset="0.982609" stop-color="#4B454B"/>
</linearGradient>
<clipPath id="clip0_106_811">
<rect width="100" height="100" fill="white"/>
</clipPath>
</defs>
</svg>
