<svg width="100" height="100" viewBox="0 0 100 100" fill="none" xmlns="http://www.w3.org/2000/svg">
<g clip-path="url(#clip0_106_626)">
<path d="M48.6879 20.1843L49.071 22.2226H51.1449H87.6149C93.0715 22.2226 97.5 26.647 97.5 32.1077V77.982C97.5 83.4379 93.0708 87.8671 87.6149 87.8671H12.3851C6.92684 87.8671 2.5 83.4383 2.5 77.982V42.2029V32.1077V22.0179C2.5 16.5569 6.92612 12.1328 12.3851 12.1328H38.991C43.815 12.1328 47.8259 15.5971 48.6879 20.1843Z" stroke="url(#paint0_linear_106_626)" stroke-width="5"/>
<path fill-rule="evenodd" clip-rule="evenodd" d="M41.4486 35.1658C41.4486 34.8102 41.7369 34.5219 42.0925 34.5219H56.6169C56.9726 34.5219 57.2609 34.8102 57.2609 35.1658V40.9756C57.2609 41.3312 56.9726 41.6195 56.6169 41.6195H42.0925C41.7369 41.6195 41.4486 41.3312 41.4486 40.9756V35.1658ZM42.0925 30C39.2395 30 36.9267 32.3128 36.9267 35.1658V40.9756C36.9267 41.1937 36.9402 41.4086 36.9664 41.6195H32.0707C27.6134 41.6195 24 45.2329 24 49.6902V72.9293C24 77.3866 27.6134 81 32.0707 81H66.9293C71.3866 81 75 77.3866 75 72.9293V49.6902C75 45.2329 71.3866 41.6195 66.9293 41.6195H61.743C61.7692 41.4086 61.7828 41.1937 61.7828 40.9756V35.1658C61.7828 32.3128 59.4699 30 56.6169 30H42.0925ZM42.0925 46.1414H32.0707C30.1107 46.1414 28.5219 47.7303 28.5219 49.6902V72.9293C28.5219 74.8893 30.1107 76.4781 32.0707 76.4781H66.9293C68.8893 76.4781 70.4781 74.8893 70.4781 72.9293V49.6902C70.4781 47.7303 68.8893 46.1414 66.9293 46.1414H56.6169H42.0925Z" fill="url(#paint1_linear_106_626)"/>
</g>
<defs>
<linearGradient id="paint0_linear_106_626" x1="0.0217031" y1="9.91572" x2="100.228" y2="90.0334" gradientUnits="userSpaceOnUse">
<stop stop-color="white"/>
<stop offset="0.848958" stop-color="#7F787F"/>
<stop offset="0.982609" stop-color="#4B454B"/>
</linearGradient>
<linearGradient id="paint1_linear_106_626" x1="24.0111" y1="30.1787" x2="83.1457" y2="68.3498" gradientUnits="userSpaceOnUse">
<stop stop-color="white"/>
<stop offset="0.848958" stop-color="#7F787F"/>
<stop offset="0.982609" stop-color="#4B454B"/>
</linearGradient>
<clipPath id="clip0_106_626">
<rect width="100" height="100" fill="white"/>
</clipPath>
</defs>
</svg>
