<svg width="100" height="100" viewBox="0 0 100 100" fill="none" xmlns="http://www.w3.org/2000/svg">
<g clip-path="url(#clip0_106_574)">
<path d="M48.6879 20.1843L49.071 22.2226H51.1449H87.6149C93.0715 22.2226 97.5 26.647 97.5 32.1077V77.982C97.5 83.4379 93.0708 87.8671 87.6149 87.8671H12.3851C6.92684 87.8671 2.5 83.4383 2.5 77.982V42.2029V32.1077V22.0179C2.5 16.5569 6.92612 12.1328 12.3851 12.1328H38.991C43.815 12.1328 47.8259 15.5971 48.6879 20.1843Z" stroke="url(#paint0_linear_106_574)" stroke-width="5"/>
<path fill-rule="evenodd" clip-rule="evenodd" d="M74.7607 30.2252C75.3156 30.7757 75.5811 31.5541 75.4783 32.329C74.4144 40.3427 71.2696 47.9188 66.3682 54.256C61.8817 60.0568 56.0743 64.6242 49.4658 67.5574C49.6121 69.57 49.2883 71.597 48.5104 73.4749C47.5265 75.8503 45.8603 77.8806 43.7224 79.3091C41.5846 80.7376 39.0712 81.5 36.5 81.5H26C24.6193 81.5 23.5 80.3807 23.5 79V68.5C23.5 65.9288 24.2624 63.4154 25.6909 61.2776C27.1194 59.1397 29.1497 57.4735 31.5251 56.4896C33.7874 55.5525 36.2659 55.2744 38.6751 55.6833C40.0468 52.5393 41.7619 49.5751 43.7823 46.8459C43.9146 46.5912 44.0854 46.3682 44.2843 46.1807C46.337 43.513 48.6869 41.0807 51.2967 38.938C57.4556 33.8815 64.8328 30.6262 72.6511 29.5245C73.4252 29.4154 74.2057 29.6746 74.7607 30.2252ZM46.7968 51.2408C45.4765 53.1968 44.3245 55.2762 43.3577 57.4559C44.2 57.9789 44.984 58.5992 45.6924 59.3076C46.6828 60.2981 47.5012 61.4364 48.1221 62.6753C50.2717 61.6699 52.3231 60.4662 54.2522 59.0815C52.5319 55.8273 49.9493 53.1163 46.7968 51.2408ZM58.1786 55.8547C56.1426 52.3559 53.2886 49.4067 49.8675 47.2581C51.2767 45.6519 52.8148 44.1609 54.4694 42.8025C59.0118 39.0731 64.2923 36.4568 69.9129 35.1237C68.6196 40.9846 66.0603 46.4815 62.4131 51.1971C61.1188 52.8705 59.702 54.4269 58.1786 55.8547ZM39.1397 61.4408C38.6921 61.2768 38.3196 60.9982 38.0434 60.6503C36.4969 60.3462 34.8949 60.5057 33.4385 61.109C31.9767 61.7145 30.7273 62.7398 29.8482 64.0554C28.9692 65.371 28.5 66.9177 28.5 68.5V76.5H36.5C38.0822 76.5 39.629 76.0308 40.9446 75.1517C42.2602 74.2727 43.2855 73.0233 43.891 71.5615C44.4965 70.0997 44.655 68.4911 44.3463 66.9393C44.0376 65.3874 43.2757 63.962 42.1569 62.8431C41.6497 62.336 41.0795 61.9022 40.4631 61.5506C40.0345 61.6319 39.5791 61.6019 39.1397 61.4408Z" fill="url(#paint1_linear_106_574)"/>
</g>
<defs>
<linearGradient id="paint0_linear_106_574" x1="0.0217031" y1="9.91572" x2="100.228" y2="90.0334" gradientUnits="userSpaceOnUse">
<stop stop-color="white"/>
<stop offset="0.848958" stop-color="#7F787F"/>
<stop offset="0.982609" stop-color="#4B454B"/>
</linearGradient>
<linearGradient id="paint1_linear_106_574" x1="23.5113" y1="29.6822" x2="83.8055" y2="68.6017" gradientUnits="userSpaceOnUse">
<stop stop-color="white"/>
<stop offset="0.848958" stop-color="#7F787F"/>
<stop offset="0.982609" stop-color="#4B454B"/>
</linearGradient>
<clipPath id="clip0_106_574">
<rect width="100" height="100" fill="white"/>
</clipPath>
</defs>
</svg>
