<svg width="100" height="100" viewBox="0 0 100 100" fill="none" xmlns="http://www.w3.org/2000/svg">
<g clip-path="url(#clip0_328_2633)">
<path d="M48.6879 20.1843L49.071 22.2226H51.1449H87.6149C93.0715 22.2226 97.5 26.647 97.5 32.1077V77.9821C97.5 83.4379 93.0708 87.8672 87.6149 87.8672H12.3851C6.92684 87.8672 2.5 83.4383 2.5 77.9821V42.2029V32.1077V22.018C2.5 16.557 6.92612 12.1329 12.3851 12.1329H38.991C43.815 12.1329 47.8259 15.5971 48.6879 20.1843Z" stroke="url(#paint0_linear_328_2633)" stroke-width="5"/>
<path d="M60.7462 65.3164C62.7565 65.1071 64.2817 63.3646 64.2123 61.2734C64.1431 59.1823 62.4099 57.5093 60.3302 57.5093H60.1917C58.0424 57.5791 56.3788 59.3914 56.4482 61.5522C56.5175 62.5978 56.9333 63.5039 57.5573 64.1313C55.2003 68.8016 51.5955 72.2171 46.1883 75.075C42.5142 77.0267 38.7015 77.7238 34.8888 77.236C31.7692 76.8177 29.3429 75.4237 27.8175 73.1232C25.5993 69.7077 25.3914 66.0133 27.2632 62.319C28.5804 59.6701 30.6599 57.7184 31.9771 56.7425C31.6998 55.8364 31.2838 54.3029 31.0759 53.1877C21.024 60.5067 22.0639 70.4048 25.1141 75.075C27.4017 78.5604 32.0464 80.7212 37.1764 80.7212C38.5627 80.7212 39.9491 80.5817 41.3357 80.2334C50.2091 78.4907 56.9336 73.193 60.7462 65.3164ZM72.9472 56.673C67.6786 50.4691 59.9144 47.0537 51.041 47.0537H49.9319C49.308 45.799 47.9907 44.9624 46.535 44.9624H46.3962C44.2474 45.0322 42.5838 46.8444 42.6529 49.0054C42.7223 51.0965 44.4553 52.7694 46.535 52.7694H46.6735C48.1986 52.6997 49.5159 51.7238 50.0704 50.3994H51.3182C56.5869 50.3994 61.5781 51.9329 66.0843 54.9303C69.5503 57.2306 72.046 60.2279 73.4324 63.8525C74.6109 66.7801 74.5415 69.638 73.2936 72.0778C71.3527 75.7721 68.0946 77.7936 63.7965 77.7936C61.0235 77.7936 58.3893 76.957 57.0027 76.3296C56.2403 77.0267 54.8537 78.1419 53.8831 78.8392C56.8642 80.2332 59.9144 81 62.8259 81C69.4809 81 74.403 77.3055 76.2747 73.6113C78.285 69.5682 78.1463 62.5978 72.9472 56.673ZM37.7309 66.5011C37.8003 68.5924 39.5333 70.2651 41.613 70.2651H41.7517C43.9008 70.1956 45.5644 68.3831 45.495 66.2223C45.4259 64.131 43.6926 62.4583 41.613 62.4583H41.4744C41.3357 62.4583 41.1276 62.4583 40.9893 62.5278C38.1469 57.7879 36.9685 52.6299 37.3845 47.0535C37.6615 42.8711 39.0481 39.2464 41.4744 36.249C43.4847 33.6699 47.3668 32.4153 50.0012 32.3457C57.3494 32.2062 60.4688 41.4072 60.6769 45.1017C61.5781 45.3107 63.1032 45.7988 64.1431 46.1473C63.3111 34.8553 56.3788 29 49.724 29C43.4847 29 37.7309 33.5309 35.4431 40.2225C32.2544 49.1447 34.334 57.7184 38.2161 64.4798C37.8697 64.9676 37.6615 65.7343 37.7309 66.5011Z" stroke="url(#paint1_linear_328_2633)" stroke-width="2.47619"/>
</g>
<defs>
<linearGradient id="paint0_linear_328_2633" x1="0.0217031" y1="9.91575" x2="100.228" y2="90.0334" gradientUnits="userSpaceOnUse">
<stop stop-color="white"/>
<stop offset="0.848958" stop-color="#7F787F"/>
<stop offset="0.982609" stop-color="#4B454B"/>
</linearGradient>
<linearGradient id="paint1_linear_328_2633" x1="23.0118" y1="29.1822" x2="84.4162" y2="70.7058" gradientUnits="userSpaceOnUse">
<stop stop-color="white"/>
<stop offset="0.848958" stop-color="#7F787F"/>
<stop offset="0.982609" stop-color="#4B454B"/>
</linearGradient>
<clipPath id="clip0_328_2633">
<rect width="100" height="100" fill="white"/>
</clipPath>
</defs>
</svg>
