<svg width="100" height="100" viewBox="0 0 100 100" fill="none" xmlns="http://www.w3.org/2000/svg">
<g clip-path="url(#clip0_328_3266)">
<mask id="mask0_328_3266" style="mask-type:luminance" maskUnits="userSpaceOnUse" x="0" y="0" width="100" height="100">
<path d="M100 0H0V100H100V0Z" fill="white"/>
</mask>
<g mask="url(#mask0_328_3266)">
<path d="M48.6879 20.1843L49.071 22.2226H51.1449H87.6149C93.0715 22.2226 97.5 26.647 97.5 32.1077V77.9821C97.5 83.4379 93.0708 87.8672 87.6149 87.8672H12.3851C6.92684 87.8672 2.5 83.4383 2.5 77.9821V42.2029V32.1077V22.018C2.5 16.557 6.92612 12.1329 12.3851 12.1329H38.991C43.815 12.1329 47.8259 15.5971 48.6879 20.1843Z" stroke="url(#paint0_linear_328_3266)" stroke-width="5"/>
<path d="M28.187 57.42H72.047M52.524 33.593C59.433 49.311 60.236 61.976 52.524 78.401M47.864 33.593C40.956 49.311 40.153 61.976 47.864 78.401M73.469 56.234C73.469 59.2852 72.868 62.3066 71.7003 65.1255C70.5326 67.9444 68.8211 70.5058 66.6636 72.6633C64.506 74.8208 61.9446 76.5321 59.1256 77.6997C56.3066 78.8673 53.2852 79.4681 50.234 79.468C44.072 79.468 38.1623 77.0201 33.8051 72.6629C29.4479 68.3057 27 62.396 27 56.234C27 50.072 29.4479 44.1623 33.8051 39.8051C38.1623 35.4479 44.072 33 50.234 33C53.2851 33 56.3064 33.601 59.1253 34.7686C61.9441 35.9362 64.5054 37.6476 66.6629 39.8051C68.8204 41.9626 70.5318 44.5239 71.6994 47.3427C72.867 50.1616 73.469 53.1829 73.469 56.234Z" stroke="url(#paint1_linear_328_3266)" stroke-width="5" stroke-linecap="round" stroke-linejoin="round"/>
</g>
</g>
<defs>
<linearGradient id="paint0_linear_328_3266" x1="2.52062" y1="12.3983" x2="96.7754" y2="88.7162" gradientUnits="userSpaceOnUse">
<stop stop-color="white"/>
<stop offset="0.848958" stop-color="#7F787F"/>
<stop offset="0.982609" stop-color="#4B454B"/>
</linearGradient>
<linearGradient id="paint1_linear_328_3266" x1="27.0101" y1="33.1628" x2="80.8903" y2="67.943" gradientUnits="userSpaceOnUse">
<stop stop-color="white"/>
<stop offset="0.848958" stop-color="#7F787F"/>
<stop offset="0.982609" stop-color="#4B454B"/>
</linearGradient>
<clipPath id="clip0_328_3266">
<rect width="100" height="100" fill="white"/>
</clipPath>
</defs>
</svg>
