<svg width="100" height="100" viewBox="0 0 100 100" fill="none" xmlns="http://www.w3.org/2000/svg">
<g clip-path="url(#clip0_106_1001)">
<path d="M48.6879 20.1843L49.071 22.2226H51.1449H87.6149C93.0715 22.2226 97.5 26.647 97.5 32.1077V77.9821C97.5 83.4379 93.0708 87.8672 87.6149 87.8672H12.3851C6.92684 87.8672 2.5 83.4383 2.5 77.9821V42.2029V32.1077V22.018C2.5 16.557 6.92612 12.1329 12.3851 12.1329H38.991C43.815 12.1329 47.8259 15.5971 48.6879 20.1843Z" stroke="url(#paint0_linear_106_1001)" stroke-width="5"/>
<path d="M27.2533 36.8999C27.2533 35.6005 27.7672 34.3544 28.6819 33.4355C29.5966 32.5167 30.8373 32.0003 32.131 32H67.9118C69.2055 32.0003 70.4462 32.5167 71.3609 33.4355C72.2756 34.3544 72.7895 35.6005 72.7895 36.8999V59.7668C72.7895 61.0661 72.2756 62.3123 71.3609 63.2311C70.4462 64.15 69.2055 64.6664 67.9118 64.6667H50.022V61.4016H67.9107C68.1243 61.4016 68.3358 61.3593 68.5332 61.2772C68.7305 61.1951 68.9098 61.0748 69.0609 60.9231C69.2119 60.7714 69.3317 60.5913 69.4135 60.3931C69.4952 60.1949 69.5373 59.9824 69.5373 59.7679V36.8999C69.5373 36.4668 69.3661 36.0514 69.0613 35.7451C68.7565 35.4388 68.343 35.2665 67.9118 35.2662H32.1321C31.7007 35.2662 31.287 35.4383 30.9819 35.7447C30.6769 36.0511 30.5055 36.4666 30.5055 36.8999V41.7998H27.2533V36.8999ZM50.022 71.2002H74.4162C74.84 71.189 75.2428 71.012 75.5386 70.707C75.8344 70.402 76 69.993 76 69.5671C76 69.1413 75.8344 68.7323 75.5386 68.4272C75.2428 68.1222 74.84 67.9452 74.4162 67.934H50.022V71.2002ZM33.7588 71.2002C33.3274 71.2002 32.9136 71.3723 32.6086 71.6787C32.3035 71.9851 32.1321 72.4006 32.1321 72.8339C32.1321 73.2672 32.3035 73.6827 32.6086 73.9891C32.9136 74.2955 33.3274 74.4676 33.7588 74.4676H37.011C37.4424 74.4676 37.8561 74.2955 38.1612 73.9891C38.4663 73.6827 38.6376 73.2672 38.6376 72.8339C38.6376 72.4006 38.4663 71.9851 38.1612 71.6787C37.8561 71.3723 37.4424 71.2002 37.011 71.2002H33.7588ZM24 49.967C24 48.6675 24.514 47.4212 25.429 46.5023C26.3439 45.5834 27.5849 45.0671 28.8788 45.0671H41.8898C43.1836 45.0671 44.4244 45.5832 45.3393 46.5019C46.2542 47.4205 46.7684 48.6665 46.7687 49.9659V76.1001C46.7687 77.3994 46.2548 78.6456 45.3401 79.5645C44.4254 80.4833 43.1847 80.9997 41.8909 81H28.88C28.2393 81.0002 27.6048 80.8736 27.0128 80.6275C26.4208 80.3814 25.8829 80.0205 25.4298 79.5657C24.9766 79.1108 24.6171 78.5707 24.3718 77.9763C24.1265 77.3818 24.0001 76.7447 24 76.1012V49.967ZM28.8788 48.3333C28.4476 48.3336 28.0342 48.5059 27.7293 48.8122C27.4245 49.1186 27.2533 49.5339 27.2533 49.967V76.1012C27.2536 76.5341 27.425 76.9492 27.7297 77.2553C28.0345 77.5614 28.4478 77.7335 28.8788 77.7338H41.8898C42.3212 77.7338 42.735 77.5617 43.04 77.2553C43.3451 76.9489 43.5165 76.5334 43.5165 76.1001V49.9659C43.5162 49.5328 43.3447 49.1176 43.0396 48.8114C42.7346 48.5053 42.321 48.3333 41.8898 48.3333H28.8788Z" fill="url(#paint1_linear_106_1001)" stroke="url(#paint2_linear_106_1001)" stroke-width="1.5"/>
</g>
<defs>
<linearGradient id="paint0_linear_106_1001" x1="0.0217031" y1="9.91575" x2="100.228" y2="90.0334" gradientUnits="userSpaceOnUse">
<stop stop-color="white"/>
<stop offset="0.848958" stop-color="#7F787F"/>
<stop offset="0.982609" stop-color="#4B454B"/>
</linearGradient>
<linearGradient id="paint1_linear_106_1001" x1="24.0113" y1="32.1717" x2="82.1476" y2="71.9959" gradientUnits="userSpaceOnUse">
<stop stop-color="white"/>
<stop offset="0.848958" stop-color="#7F787F"/>
<stop offset="0.982609" stop-color="#4B454B"/>
</linearGradient>
<linearGradient id="paint2_linear_106_1001" x1="24.0113" y1="32.1717" x2="82.1476" y2="71.9959" gradientUnits="userSpaceOnUse">
<stop stop-color="white"/>
<stop offset="0.848958" stop-color="#7F787F"/>
<stop offset="0.982609" stop-color="#4B454B"/>
</linearGradient>
<clipPath id="clip0_106_1001">
<rect width="100" height="100" fill="white"/>
</clipPath>
</defs>
</svg>
