<svg width="100" height="100" viewBox="0 0 100 100" fill="none" xmlns="http://www.w3.org/2000/svg">
<g clip-path="url(#clip0_328_3078)">
<path d="M100 32.1076V77.982C100 84.8186 94.4515 90.3671 87.6149 90.3671H12.3851C5.54577 90.3671 0 84.8186 0 77.982V42.2029V32.1076V22.0179C0 15.1758 5.54577 9.63281 12.3851 9.63281H38.991C45.046 9.63281 50.0661 13.9814 51.1449 19.7225H87.6149C94.4515 19.7225 100 25.2656 100 32.1076Z" fill="url(#paint0_linear_328_3078)"/>
<g filter="url(#filter0_d_328_3078)">
<path d="M80.0387 71.1381L55.7716 29.1062C53.1783 24.6146 46.6952 24.6146 44.102 29.1062L19.8348 71.1381C17.2416 75.6298 20.4831 81.2443 25.6696 81.2443H74.2039C79.3904 81.2443 82.632 75.6298 80.0387 71.1381Z" stroke="black" stroke-width="6.73747" shape-rendering="crispEdges"/>
</g>
</g>
<defs>
<filter id="filter0_d_328_3078" x="13.6833" y="20.5038" width="72.5069" height="65.9743" filterUnits="userSpaceOnUse" color-interpolation-filters="sRGB">
<feFlood flood-opacity="0" result="BackgroundImageFix"/>
<feColorMatrix in="SourceAlpha" type="matrix" values="0 0 0 0 0 0 0 0 0 0 0 0 0 0 0 0 0 0 127 0" result="hardAlpha"/>
<feOffset/>
<feGaussianBlur stdDeviation="0.932499"/>
<feComposite in2="hardAlpha" operator="out"/>
<feColorMatrix type="matrix" values="0 0 0 0 0.388235 0 0 0 0 0.945098 0 0 0 0 1 0 0 0 1 0"/>
<feBlend mode="normal" in2="BackgroundImageFix" result="effect1_dropShadow_328_3078"/>
<feBlend mode="normal" in="SourceGraphic" in2="effect1_dropShadow_328_3078" result="shape"/>
</filter>
<linearGradient id="paint0_linear_328_3078" x1="0.0217031" y1="9.91569" x2="100.228" y2="90.0334" gradientUnits="userSpaceOnUse">
<stop stop-color="white"/>
<stop offset="0.848958" stop-color="#7F787F"/>
<stop offset="0.982609" stop-color="#4B454B"/>
</linearGradient>
<clipPath id="clip0_328_3078">
<rect width="100" height="100" fill="white"/>
</clipPath>
</defs>
</svg>
