<svg width="100" height="100" viewBox="0 0 100 100" fill="none" xmlns="http://www.w3.org/2000/svg">
<g clip-path="url(#clip0_106_968)">
<path d="M48.6879 20.1843L49.071 22.2226H51.1449H87.6149C93.0715 22.2226 97.5 26.647 97.5 32.1077V77.9821C97.5 83.4379 93.0708 87.8672 87.6149 87.8672H12.3851C6.92684 87.8672 2.5 83.4383 2.5 77.9821V42.2029V32.1077V22.018C2.5 16.557 6.92612 12.1329 12.3851 12.1329H38.991C43.815 12.1329 47.8259 15.5971 48.6879 20.1843Z" stroke="url(#paint0_linear_106_968)" stroke-width="5"/>
<path d="M64.1886 78.9987H31.7096C29.3863 78.9598 27.1713 78.0143 25.5422 76.3659C23.913 74.7176 23 72.4984 23 70.1867C23 67.875 23.913 65.6558 25.5422 64.0075C27.1713 62.3592 29.3863 61.4136 31.7096 61.3747H64.1899C61.8588 61.4023 59.6327 62.3429 57.9941 63.9926C56.3555 65.6423 55.4366 67.8681 55.4366 70.1873C55.4366 72.5066 56.3555 74.7324 57.9941 76.382C59.6327 78.0317 61.8588 78.9724 64.1899 79H67.1437C69.4925 78.9993 71.745 78.0707 73.4058 76.4182C75.0665 74.7657 75.9997 72.5247 76 70.188V37.8734C75.9997 36.3156 75.3774 34.8217 74.27 33.7202C73.1626 32.6188 71.6609 32 70.095 32H40.5684C39.7929 31.9997 39.0248 32.1513 38.3082 32.4463C37.5916 32.7414 36.9403 33.1739 36.3918 33.7193C35.8432 34.2647 35.408 34.9123 35.111 35.6251C34.814 36.3379 34.661 37.1019 34.6609 37.8734V61.3747" stroke="url(#paint1_linear_106_968)" stroke-width="5" stroke-linecap="round" stroke-linejoin="round"/>
</g>
<defs>
<linearGradient id="paint0_linear_106_968" x1="0.0217031" y1="9.91575" x2="100.228" y2="90.0334" gradientUnits="userSpaceOnUse">
<stop stop-color="white"/>
<stop offset="0.848958" stop-color="#7F787F"/>
<stop offset="0.982609" stop-color="#4B454B"/>
</linearGradient>
<linearGradient id="paint1_linear_106_968" x1="23.0115" y1="32.1647" x2="79.919" y2="73.5875" gradientUnits="userSpaceOnUse">
<stop stop-color="white"/>
<stop offset="0.848958" stop-color="#7F787F"/>
<stop offset="0.982609" stop-color="#4B454B"/>
</linearGradient>
<clipPath id="clip0_106_968">
<rect width="100" height="100" fill="white"/>
</clipPath>
</defs>
</svg>
