<svg width="100" height="100" viewBox="0 0 100 100" fill="none" xmlns="http://www.w3.org/2000/svg">
<g clip-path="url(#clip0_106_1114)">
<path d="M100 32.1076V77.982C100 84.8186 94.4515 90.3671 87.6149 90.3671H12.3851C5.54577 90.3671 0 84.8186 0 77.982V42.2029V32.1076V22.0179C0 15.1758 5.54577 9.63281 12.3851 9.63281H38.991C45.046 9.63281 50.0661 13.9814 51.1449 19.7225H87.6149C94.4515 19.7225 100 25.2656 100 32.1076Z" fill="url(#paint0_linear_106_1114)"/>
<path fill-rule="evenodd" clip-rule="evenodd" d="M30.4925 38.1024L30.4925 38.1022C30.4924 38.0931 30.4857 37.7489 31.1803 37.0832C31.8903 36.4026 33.1029 35.6285 34.8891 34.9043C38.4433 33.4634 43.5945 32.4926 49.4634 32.4926C55.3323 32.4926 60.4834 33.4634 64.0377 34.9043C65.8239 35.6285 67.0365 36.4026 67.7465 37.0832C68.441 37.7489 68.4344 38.0931 68.4342 38.1022V38.1024V38.1025C68.4344 38.1116 68.441 38.4558 67.7465 39.1215C67.0365 39.8021 65.8239 40.5763 64.0377 41.3004C60.4834 42.7413 55.3323 43.7122 49.4634 43.7122C43.5945 43.7122 38.4433 42.7413 34.8891 41.3004C33.1029 40.5763 31.8903 39.8021 31.1803 39.1215C30.4857 38.4558 30.4924 38.1116 30.4925 38.1025L30.4925 38.1024ZM49.4634 25.4926C42.922 25.4926 36.8377 26.561 32.2591 28.4172C29.9789 29.3416 27.9007 30.5304 26.3365 32.0296C24.7632 33.5377 23.4925 35.5898 23.4925 38.1024C23.4925 38.314 23.5016 38.5223 23.519 38.7274H23.4979V54.5457L23.4925 54.5457C23.4926 54.6392 23.4944 54.732 23.4979 54.8242V70.981H23.4925C23.4924 74.2149 25.599 76.6941 28.0037 78.3674C30.4678 80.0819 33.7692 81.3573 37.4364 82.2078C41.1411 83.067 45.2834 83.5075 49.461 83.5075C53.6385 83.5075 57.7809 83.067 61.4855 82.2078L61.4856 82.2078C65.1526 81.3572 68.4538 80.0818 70.9177 78.3672C73.3223 76.6939 75.4287 74.2146 75.4283 70.9807L68.4283 70.9815C68.4283 70.9896 68.4278 71.0158 68.41 71.07C68.3912 71.1275 68.3481 71.2299 68.2511 71.3755C68.0493 71.678 67.6483 72.1143 66.9194 72.6215C65.4395 73.6513 63.0681 74.6548 59.904 75.3888C56.7776 76.1139 53.1712 76.5075 49.461 76.5075C45.7507 76.5075 42.1443 76.1139 39.0179 75.3888C35.8535 74.6549 33.4819 73.6513 32.0018 72.6214C31.2728 72.1142 30.8717 71.6779 30.6699 71.3753C30.5728 71.2297 30.5297 71.1273 30.5108 71.0698C30.493 71.0155 30.4925 70.9893 30.4925 70.9813L26.9925 70.9811H30.4979V63.3838C32.5308 64.3857 34.896 65.1789 37.4369 65.7682C41.1416 66.6274 45.284 67.0679 49.4615 67.0679C53.639 67.0679 57.7814 66.6274 61.4861 65.7682L61.4862 65.7682C64.0309 65.1779 66.3995 64.383 68.4342 63.3787V70.9635H75.4342V38.7097H75.4093C75.4257 38.5104 75.4342 38.3079 75.4342 38.1024C75.4342 35.5898 74.1636 33.5377 72.5902 32.0296C71.0261 30.5304 68.9479 29.3416 66.6676 28.4172C62.0891 26.561 56.0048 25.4926 49.4634 25.4926ZM68.4342 46.995C67.8635 47.2784 67.2727 47.5423 66.6676 47.7875C62.0891 49.6437 56.0048 50.7122 49.4634 50.7122C42.922 50.7122 36.8377 49.6437 32.2591 47.7875C31.656 47.543 31.067 47.28 30.4979 46.9977V54.5839C30.5007 54.5963 30.5048 54.6117 30.5109 54.6304C30.5299 54.688 30.5731 54.7906 30.6703 54.9363C30.8724 55.2391 31.2738 55.6754 32.0029 56.1825C33.4832 57.2122 35.8547 58.2155 39.0184 58.9492L39.0185 58.9492C42.1448 59.6743 45.7513 60.0679 49.4615 60.0679C53.1717 60.0679 56.7781 59.6743 59.9044 58.9492L59.9045 58.9492C63.0681 58.2153 65.4393 57.2119 66.9191 56.1822C67.6479 55.6751 68.049 55.2388 68.2509 54.9362C68.348 54.7907 68.3911 54.6882 68.41 54.6307C68.426 54.582 68.428 54.5559 68.4283 54.5452C68.4283 54.544 68.4283 54.543 68.4283 54.5421H68.4342V46.995ZM59.904 75.3888L59.9039 75.3888L60.6948 78.7983L59.904 75.3888Z" fill="white"/>
</g>
<defs>
<linearGradient id="paint0_linear_106_1114" x1="0.0217031" y1="9.91569" x2="100.228" y2="90.0334" gradientUnits="userSpaceOnUse">
<stop stop-color="white"/>
<stop offset="0.848958" stop-color="#7F787F"/>
<stop offset="0.982609" stop-color="#4B454B"/>
</linearGradient>
<clipPath id="clip0_106_1114">
<rect width="100" height="100" fill="white"/>
</clipPath>
</defs>
</svg>
