<svg width="100" height="100" viewBox="0 0 100 100" fill="none" xmlns="http://www.w3.org/2000/svg">
<g clip-path="url(#clip0_328_2549)">
<path d="M48.6879 20.1843L49.071 22.2226H51.1449H87.6149C93.0715 22.2226 97.5 26.647 97.5 32.1077V77.9821C97.5 83.4379 93.0708 87.8672 87.6149 87.8672H12.3851C6.92684 87.8672 2.5 83.4383 2.5 77.9821V42.2029V32.1077V22.018C2.5 16.557 6.92612 12.1329 12.3851 12.1329H38.991C43.815 12.1329 47.8259 15.5971 48.6879 20.1843Z" stroke="url(#paint0_linear_328_2549)" stroke-width="5"/>
<path d="M47.7414 51.699C45.3914 55.769 40.6034 57.795 36.0154 56.661C31.4284 55.528 28.1574 51.51 28.0054 46.821C27.8554 42.134 30.8594 37.917 35.3654 36.495C39.8704 35.072 44.7794 36.791 47.3864 40.703M62.2264 57.392L52.8304 36.504M54.6164 76.514L71.2014 36.504" stroke="url(#paint1_linear_328_2549)" stroke-width="4.78278" stroke-linecap="round" stroke-linejoin="round"/>
</g>
<defs>
<linearGradient id="paint0_linear_328_2549" x1="0.0217031" y1="9.91575" x2="100.228" y2="90.0334" gradientUnits="userSpaceOnUse">
<stop stop-color="white"/>
<stop offset="0.848958" stop-color="#7F787F"/>
<stop offset="0.982609" stop-color="#4B454B"/>
</linearGradient>
<linearGradient id="paint1_linear_328_2549" x1="28.0094" y1="36.142" x2="76.1604" y2="69.2848" gradientUnits="userSpaceOnUse">
<stop stop-color="white"/>
<stop offset="0.848958" stop-color="#7F787F"/>
<stop offset="0.982609" stop-color="#4B454B"/>
</linearGradient>
<clipPath id="clip0_328_2549">
<rect width="100" height="100" fill="white"/>
</clipPath>
</defs>
</svg>
