<svg width="100" height="100" viewBox="0 0 100 100" fill="none" xmlns="http://www.w3.org/2000/svg">
<g clip-path="url(#clip0_328_2308)">
<path fill-rule="evenodd" clip-rule="evenodd" d="M4.27189 24.2549C4.27189 19.2923 8.29412 15.2719 13.2549 15.2719H37.433C41.8169 15.2719 45.4617 18.42 46.2451 22.5886L46.5932 24.4409H48.4779H81.6199C86.5786 24.4409 90.603 28.4616 90.603 33.424V35.2529C90.1301 35.181 89.6452 35.1436 89.1507 35.1436L21.4876 35.1436C16.9229 35.1436 12.9976 38.3765 12.1226 42.8566L5.0908 78.8631C4.5651 77.7214 4.27189 76.4508 4.27189 75.1122V42.598V33.424V24.2549ZM8.91651 82.9792C10.2027 83.6904 11.6817 84.0953 13.2549 84.0953H81.6199C85.675 84.0953 89.106 81.4027 90.2212 77.7094C90.2135 77.5758 90.2175 77.4397 90.2341 77.3023L94.1125 45.2866C94.4732 42.3096 92.1494 39.6874 89.1507 39.6874L21.4876 39.6874C19.0965 39.6874 17.0404 41.3808 16.5821 43.7275L8.91651 82.9792ZM95.0764 75.1122H95.1467C95.1467 82.5797 89.0873 88.639 81.6199 88.639H13.2549C5.78468 88.639 -0.271851 82.5793 -0.271851 75.1122V42.598V33.424V24.2549C-0.271851 16.7822 5.78534 10.7281 13.2549 10.7281H37.433C43.3841 10.7281 48.4127 14.5699 50.2244 19.8972H81.6199C89.0867 19.8972 95.1467 25.9509 95.1467 33.424V37.2616C97.6008 39.2484 99.0369 42.4185 98.6233 45.833L95.0764 75.1122Z" fill="url(#paint0_linear_328_2308)"/>
</g>
<defs>
<linearGradient id="paint0_linear_328_2308" x1="-0.250372" y1="11.0011" x2="96.9596" y2="90.707" gradientUnits="userSpaceOnUse">
<stop stop-color="white"/>
<stop offset="0.848958" stop-color="#7F787F"/>
<stop offset="0.982609" stop-color="#4B454B"/>
</linearGradient>
<clipPath id="clip0_328_2308">
<rect width="100" height="100" fill="white"/>
</clipPath>
</defs>
</svg>
