<svg width="100" height="100" viewBox="0 0 100 100" fill="none" xmlns="http://www.w3.org/2000/svg">
<g clip-path="url(#clip0_106_984)">
<path d="M48.6879 20.1843L49.071 22.2226H51.1449H87.6149C93.0715 22.2226 97.5 26.647 97.5 32.1077V77.9821C97.5 83.4379 93.0708 87.8672 87.6149 87.8672H12.3851C6.92684 87.8672 2.5 83.4383 2.5 77.9821V42.2029V32.1077V22.018C2.5 16.557 6.92612 12.1329 12.3851 12.1329H38.991C43.815 12.1329 47.8259 15.5971 48.6879 20.1843Z" stroke="url(#paint0_linear_106_984)" stroke-width="5"/>
<path d="M71.956 42.398V67.234L50.496 79.634L29 67.234V42.47L50.531 30L61.244 36.2L71.956 42.398Z" stroke="url(#paint1_linear_106_984)" stroke-width="5" stroke-linecap="round" stroke-linejoin="round"/>
<path d="M29.709 42.868L40.093 48.842L50.479 54.816M71.114 42.818L50.499 54.72V78.947" stroke="url(#paint2_linear_106_984)" stroke-width="5" stroke-linecap="round" stroke-linejoin="round"/>
<path d="M61.117 36.198L40.105 48.842V57.29" stroke="url(#paint3_linear_106_984)" stroke-width="5" stroke-linecap="round" stroke-linejoin="round"/>
</g>
<defs>
<linearGradient id="paint0_linear_106_984" x1="0.0217031" y1="9.91575" x2="100.228" y2="90.0334" gradientUnits="userSpaceOnUse">
<stop stop-color="white"/>
<stop offset="0.848958" stop-color="#7F787F"/>
<stop offset="0.982609" stop-color="#4B454B"/>
</linearGradient>
<linearGradient id="paint1_linear_106_984" x1="29.0093" y1="30.1739" x2="82.7867" y2="60.2165" gradientUnits="userSpaceOnUse">
<stop stop-color="white"/>
<stop offset="0.848958" stop-color="#7F787F"/>
<stop offset="0.982609" stop-color="#4B454B"/>
</linearGradient>
<linearGradient id="paint2_linear_106_984" x1="29.718" y1="42.9446" x2="73.6755" y2="75.4625" gradientUnits="userSpaceOnUse">
<stop stop-color="white"/>
<stop offset="0.848958" stop-color="#7F787F"/>
<stop offset="0.982609" stop-color="#4B454B"/>
</linearGradient>
<linearGradient id="paint3_linear_106_984" x1="40.1095" y1="36.2719" x2="64.5274" y2="51.9737" gradientUnits="userSpaceOnUse">
<stop stop-color="white"/>
<stop offset="0.848958" stop-color="#7F787F"/>
<stop offset="0.982609" stop-color="#4B454B"/>
</linearGradient>
<clipPath id="clip0_106_984">
<rect width="100" height="100" fill="white"/>
</clipPath>
</defs>
</svg>
