<svg width="100" height="100" viewBox="0 0 100 100" fill="none" xmlns="http://www.w3.org/2000/svg">
<g clip-path="url(#clip0_106_1464)">
<mask id="mask0_106_1464" style="mask-type:luminance" maskUnits="userSpaceOnUse" x="0" y="0" width="100" height="100">
<path d="M100 0H0V100H100V0Z" fill="white"/>
</mask>
<g mask="url(#mask0_106_1464)">
<path d="M48.6879 20.1843L49.071 22.2226H51.1449H87.6149C93.0715 22.2226 97.5 26.647 97.5 32.1077V77.9821C97.5 83.4379 93.0708 87.8671 87.6149 87.8671H12.3851C6.92684 87.8671 2.5 83.4383 2.5 77.9821V42.2029V32.1077V22.0179C2.5 16.5569 6.92612 12.1329 12.3851 12.1329H38.991C43.815 12.1329 47.8259 15.5971 48.6879 20.1843Z" stroke="url(#paint0_linear_106_1464)" stroke-width="5"/>
</g>
<path fill-rule="evenodd" clip-rule="evenodd" d="M28.4351 34.2305V76.0573C28.4384 76.0705 28.4486 76.106 28.4769 76.1635C28.5298 76.2713 28.6222 76.4052 28.7523 76.5354C28.8825 76.6656 29.0165 76.7579 29.1243 76.8108C29.1818 76.8391 29.2173 76.8493 29.2305 76.8526H46.8087C48.0334 76.8526 49.0263 77.8454 49.0263 79.0702C49.0263 80.2949 48.0334 81.2877 46.8087 81.2877H29.2083C27.7263 81.2877 26.4476 80.5028 25.6162 79.6715C24.7849 78.8402 24 77.5614 24 76.0795V34.2082C24 32.7263 24.7849 31.4475 25.6162 30.6162C26.4476 29.7849 27.7263 29 29.2083 29H65.0976C66.5795 29 67.8583 29.7849 68.6896 30.6162C69.5209 31.4475 70.3059 32.7263 70.3059 34.2082V59.3293C70.3059 60.554 69.313 61.5469 68.0883 61.5469C66.8636 61.5469 65.8708 60.554 65.8708 59.3293V34.2305C65.8675 34.2173 65.8573 34.1818 65.829 34.1243C65.776 34.0165 65.6837 33.8826 65.5535 33.7524C65.4233 33.6222 65.2894 33.5299 65.1816 33.4769C65.1241 33.4486 65.0886 33.4384 65.0754 33.4351H29.2305C29.2173 33.4384 29.1818 33.4486 29.1243 33.4769C29.0165 33.5299 28.8825 33.6222 28.7523 33.7524C28.6222 33.8825 28.5298 34.0165 28.4769 34.1243C28.4486 34.1817 28.4384 34.2173 28.4351 34.2305ZM33.1601 44.1884C33.1601 42.9637 34.1529 41.9708 35.3776 41.9708H57.3376C58.5623 41.9708 59.5552 42.9637 59.5552 44.1884C59.5552 45.4131 58.5623 46.406 57.3376 46.406H35.3776C34.1529 46.406 33.1601 45.4131 33.1601 44.1884ZM32.9595 54.5167C32.9595 53.292 33.9523 52.2992 35.177 52.2992H47.0093C48.234 52.2992 49.2268 53.292 49.2268 54.5167C49.2268 55.7415 48.234 56.7343 47.0093 56.7343H35.177C33.9523 56.7343 32.9595 55.7415 32.9595 54.5167ZM75.3505 66.1121C76.2165 65.2461 76.2165 63.842 75.3505 62.976C74.4845 62.11 73.0804 62.11 72.2144 62.976L59.5435 75.6468L54.7941 70.8977C53.928 70.0317 52.5239 70.0318 51.6579 70.8978C50.792 71.7639 50.792 73.1679 51.6581 74.0339L57.9756 80.351C58.8416 81.217 60.2456 81.2169 61.1116 80.351L75.3505 66.1121Z" fill="url(#paint1_linear_106_1464)"/>
</g>
<defs>
<linearGradient id="paint0_linear_106_1464" x1="2.52062" y1="12.3982" x2="96.7753" y2="88.7162" gradientUnits="userSpaceOnUse">
<stop stop-color="white"/>
<stop offset="0.848958" stop-color="#7F787F"/>
<stop offset="0.982609" stop-color="#4B454B"/>
</linearGradient>
<linearGradient id="paint1_linear_106_1464" x1="24.0113" y1="29.1832" x2="84.5007" y2="68.0139" gradientUnits="userSpaceOnUse">
<stop stop-color="white"/>
<stop offset="0.848958" stop-color="#7F787F"/>
<stop offset="0.982609" stop-color="#4B454B"/>
</linearGradient>
<clipPath id="clip0_106_1464">
<rect width="100" height="100" fill="white"/>
</clipPath>
</defs>
</svg>
