<svg width="100" height="100" viewBox="0 0 100 100" fill="none" xmlns="http://www.w3.org/2000/svg">
<g clip-path="url(#clip0_106_1143)">
<path d="M100 32.1076V77.982C100 84.8186 94.4515 90.3671 87.6149 90.3671H12.3851C5.54577 90.3671 0 84.8186 0 77.982V42.2029V32.1076V22.0179C0 15.1758 5.54577 9.63281 12.3851 9.63281H38.991C45.046 9.63281 50.0661 13.9814 51.1449 19.7225H87.6149C94.4515 19.7225 100 25.2656 100 32.1076Z" fill="url(#paint0_linear_106_1143)"/>
<path fill-rule="evenodd" clip-rule="evenodd" d="M52.9287 26.1683C51.5527 24.8108 49.3368 24.8256 47.9792 26.2015L41.0427 33.2314C39.685 34.6073 39.6998 36.8233 41.0758 38.181C42.4517 39.5387 44.6677 39.5239 46.0254 38.1479L50.5038 33.6093L54.9033 37.9499C56.2793 39.3075 58.4954 39.2925 59.8529 37.9165C61.2105 36.5405 61.1956 34.3244 59.8196 32.9669L52.9287 26.1683ZM70.6644 43.765C69.2886 42.4073 67.0726 42.4219 65.7148 43.7978C64.357 45.1736 64.3717 47.3896 65.7475 48.7474L70.2855 53.2258L65.9447 57.6255C64.5871 59.0015 64.6021 61.2175 65.9781 62.5751C67.3541 63.9327 69.5701 63.9178 70.9277 62.5417L77.7263 55.6509C79.0838 54.275 79.069 52.0592 77.6933 50.7016L70.6644 43.765ZM34.9496 48.9002C36.3073 47.5243 36.2925 45.3082 34.9166 43.9505C33.5406 42.5929 31.3246 42.6076 29.9669 43.9835L23.1683 50.8734C22.5164 51.5341 22.1535 52.4268 22.1597 53.3551C22.1659 54.2833 22.5406 55.1711 23.2014 55.8231L30.2312 62.7596C31.6072 64.1173 33.8232 64.1024 35.1809 62.7265C36.5386 61.3506 36.5237 59.1345 35.1478 57.7769L30.6093 53.2987L34.9496 48.9002ZM59.8524 73.5714C61.2103 72.1957 61.1958 69.9796 59.8201 68.6218C58.4444 67.2639 56.2283 67.2784 54.8704 68.6541L50.3902 73.1933L45.9913 68.8527C44.6154 67.495 42.3994 67.5098 41.0417 68.8857C39.684 70.2616 39.6988 72.4777 41.0747 73.8354L47.9645 80.6339C49.3403 81.9915 51.5561 81.9769 52.9139 80.6013L59.8524 73.5714ZM46.7915 53.3203C46.7915 51.3714 48.3714 49.7915 50.3203 49.7915C52.2692 49.7915 53.8491 51.3714 53.8491 53.3203C53.8491 55.2692 52.2692 56.8491 50.3203 56.8491C48.3714 56.8491 46.7915 55.2692 46.7915 53.3203ZM50.3203 42.7915C44.5054 42.7915 39.7915 47.5054 39.7915 53.3203C39.7915 59.1352 44.5054 63.8491 50.3203 63.8491C56.1352 63.8491 60.8491 59.1352 60.8491 53.3203C60.8491 47.5054 56.1352 42.7915 50.3203 42.7915Z" fill="white"/>
</g>
<defs>
<linearGradient id="paint0_linear_106_1143" x1="0.0217031" y1="9.91569" x2="100.228" y2="90.0334" gradientUnits="userSpaceOnUse">
<stop stop-color="white"/>
<stop offset="0.848958" stop-color="#7F787F"/>
<stop offset="0.982609" stop-color="#4B454B"/>
</linearGradient>
<clipPath id="clip0_106_1143">
<rect width="100" height="100" fill="white"/>
</clipPath>
</defs>
</svg>
