<svg width="100" height="100" viewBox="0 0 100 100" fill="none" xmlns="http://www.w3.org/2000/svg">
<g clip-path="url(#clip0_328_3008)">
<path d="M48.6879 20.1843L49.071 22.2225H51.1449H87.6149C93.0715 22.2225 97.5 26.647 97.5 32.1076V77.982C97.5 83.4379 93.0708 87.8671 87.6149 87.8671H12.3851C6.92684 87.8671 2.5 83.4382 2.5 77.982V42.2029V32.1076V22.0179C2.5 16.5569 6.92612 12.1328 12.3851 12.1328H38.991C43.815 12.1328 47.8259 15.597 48.6879 20.1843Z" stroke="url(#paint0_linear_328_3008)" stroke-width="5"/>
<path d="M28.8231 55.815L43.2976 50.4759C47.7376 48.8367 52.591 51.5986 53.3706 56.2068L55.9151 71.2293C56.7333 76.064 51.473 79.661 47.1625 77.2083C46.5983 76.8883 46.1162 76.441 45.7543 75.9019L45.0079 74.7877C41.9043 70.1559 36.7693 67.2341 31.147 66.9013L29.7944 66.8219C29.1443 66.7836 28.5115 66.5964 27.945 66.2744C23.6345 63.8227 24.1646 57.5325 28.8231 55.815Z" stroke="url(#paint1_linear_328_3008)" stroke-width="5"/>
<path d="M29.0112 43.6705C31.7788 45.2415 35.577 43.8677 37.4947 40.6021C39.4124 37.3364 38.7234 33.4155 35.9558 31.8445C33.1882 30.2735 29.39 31.6473 27.4723 34.913C25.5546 38.1786 26.2436 42.0995 29.0112 43.6705Z" fill="url(#paint2_linear_328_3008)"/>
<path d="M45.7275 43.6705C48.4951 45.2415 52.2933 43.8677 54.211 40.6021C56.1287 37.3364 55.4397 33.4155 52.6721 31.8445C49.9045 30.2735 46.1063 31.6473 44.1886 34.913C42.2709 38.1786 42.9599 42.0995 45.7275 43.6705Z" fill="url(#paint3_linear_328_3008)"/>
<path d="M63.0544 43.6705C65.822 45.2415 69.6202 43.8677 71.5379 40.6021C73.4556 37.3364 72.7666 33.4155 69.999 31.8445C67.2314 30.2735 63.4332 31.6473 61.5155 34.913C59.5978 38.1786 60.2868 42.0995 63.0544 43.6705Z" fill="url(#paint4_linear_328_3008)"/>
<path d="M63.9787 64.7076C66.7463 66.2786 70.5445 64.9048 72.4622 61.6392C74.3799 58.3735 73.6909 54.4527 70.9233 52.8817C68.1557 51.3107 64.3575 52.6844 62.4398 55.9501C60.5221 59.2157 61.2111 63.1366 63.9787 64.7076Z" fill="url(#paint5_linear_328_3008)"/>
</g>
<defs>
<linearGradient id="paint0_linear_328_3008" x1="0.0217031" y1="9.91569" x2="100.228" y2="90.0334" gradientUnits="userSpaceOnUse">
<stop stop-color="white"/>
<stop offset="0.848958" stop-color="#7F787F"/>
<stop offset="0.982609" stop-color="#4B454B"/>
</linearGradient>
<linearGradient id="paint1_linear_328_3008" x1="25.0067" y1="50.0981" x2="58.7132" y2="74.1866" gradientUnits="userSpaceOnUse">
<stop stop-color="white"/>
<stop offset="0.848958" stop-color="#7F787F"/>
<stop offset="0.982609" stop-color="#4B454B"/>
</linearGradient>
<linearGradient id="paint2_linear_328_3008" x1="30.9224" y1="29.0427" x2="39.5119" y2="43.1737" gradientUnits="userSpaceOnUse">
<stop stop-color="white"/>
<stop offset="0.848958" stop-color="#7F787F"/>
<stop offset="0.982609" stop-color="#4B454B"/>
</linearGradient>
<linearGradient id="paint3_linear_328_3008" x1="47.6387" y1="29.0427" x2="56.2282" y2="43.1737" gradientUnits="userSpaceOnUse">
<stop stop-color="white"/>
<stop offset="0.848958" stop-color="#7F787F"/>
<stop offset="0.982609" stop-color="#4B454B"/>
</linearGradient>
<linearGradient id="paint4_linear_328_3008" x1="64.9656" y1="29.0427" x2="73.5551" y2="43.1737" gradientUnits="userSpaceOnUse">
<stop stop-color="white"/>
<stop offset="0.848958" stop-color="#7F787F"/>
<stop offset="0.982609" stop-color="#4B454B"/>
</linearGradient>
<linearGradient id="paint5_linear_328_3008" x1="65.89" y1="50.0798" x2="74.4794" y2="64.2108" gradientUnits="userSpaceOnUse">
<stop stop-color="white"/>
<stop offset="0.848958" stop-color="#7F787F"/>
<stop offset="0.982609" stop-color="#4B454B"/>
</linearGradient>
<clipPath id="clip0_328_3008">
<rect width="100" height="100" fill="white"/>
</clipPath>
</defs>
</svg>
