<svg width="100" height="100" viewBox="0 0 100 100" fill="none" xmlns="http://www.w3.org/2000/svg">
<g clip-path="url(#clip0_328_2690)">
<path d="M48.6879 20.1843L49.071 22.2225H51.1449H87.6149C93.0715 22.2225 97.5 26.647 97.5 32.1076V77.982C97.5 83.4379 93.0708 87.8671 87.6149 87.8671H12.3851C6.92684 87.8671 2.5 83.4382 2.5 77.982V42.2029V32.1076V22.0179C2.5 16.5569 6.92612 12.1328 12.3851 12.1328H38.991C43.815 12.1328 47.8259 15.597 48.6879 20.1843Z" stroke="url(#paint0_linear_328_2690)" stroke-width="5"/>
<path fill-rule="evenodd" clip-rule="evenodd" d="M55.1792 32.5429C55.4791 31.154 54.5962 29.7849 53.2072 29.485C51.8183 29.1851 50.4492 30.068 50.1493 31.457L40.0021 78.457C39.7022 79.846 40.5851 81.215 41.9741 81.5149C43.3631 81.8148 44.7321 80.9319 45.032 79.5429L55.1792 32.5429ZM36.2486 43.001C37.2534 41.9963 37.2534 40.3672 36.2486 39.3624C35.2438 38.3576 33.6148 38.3576 32.61 39.3624L18.1807 53.7917C17.1759 54.7965 17.1759 56.4255 18.1806 57.4303L32.3474 71.5977C33.3522 72.6025 34.9812 72.6025 35.986 71.5978C36.9908 70.593 36.9909 68.9639 35.9861 67.9591L23.6386 55.6111L36.2486 43.001ZM62.5683 39.3624C61.5635 38.3576 59.9344 38.3576 58.9297 39.3624C57.9249 40.3672 57.9249 41.9963 58.9297 43.001L71.5397 55.6111L59.1922 67.9591C58.1874 68.9639 58.1874 70.593 59.1922 71.5978C60.197 72.6025 61.8261 72.6025 62.8309 71.5977L76.9977 57.4303C78.0024 56.4255 78.0024 54.7965 76.9976 53.7917L62.5683 39.3624Z" fill="url(#paint1_linear_328_2690)"/>
</g>
<defs>
<linearGradient id="paint0_linear_328_2690" x1="0.0217031" y1="9.91569" x2="100.228" y2="90.0334" gradientUnits="userSpaceOnUse">
<stop stop-color="white"/>
<stop offset="0.848958" stop-color="#7F787F"/>
<stop offset="0.982609" stop-color="#4B454B"/>
</linearGradient>
<linearGradient id="paint1_linear_328_2690" x1="17.4402" y1="29.6092" x2="81.0579" y2="77.1136" gradientUnits="userSpaceOnUse">
<stop stop-color="white"/>
<stop offset="0.848958" stop-color="#7F787F"/>
<stop offset="0.982609" stop-color="#4B454B"/>
</linearGradient>
<clipPath id="clip0_328_2690">
<rect width="100" height="100" fill="white"/>
</clipPath>
</defs>
</svg>
