<svg width="100" height="100" viewBox="0 0 100 100" fill="none" xmlns="http://www.w3.org/2000/svg">
<g clip-path="url(#clip0_328_2976)">
<path d="M48.6879 20.1843L49.071 22.2225H51.1449H87.6149C93.0715 22.2225 97.5 26.647 97.5 32.1076V77.982C97.5 83.4379 93.0708 87.8671 87.6149 87.8671H12.3851C6.92684 87.8671 2.5 83.4382 2.5 77.982V42.2029V32.1076V22.0179C2.5 16.5569 6.92612 12.1328 12.3851 12.1328H38.991C43.815 12.1328 47.8259 15.597 48.6879 20.1843Z" stroke="url(#paint0_linear_328_2976)" stroke-width="5"/>
<path d="M68.7119 66.4274C67.4259 66.434 66.1663 66.7932 65.0702 67.466L59.4424 61.8202C60.7521 59.9729 61.4556 57.7644 61.4556 55.5C61.4556 53.2356 60.7521 51.0271 59.4424 49.1798L65.0702 43.534C66.1664 44.2064 67.426 44.5652 68.7119 44.5714C70.153 44.5717 71.5618 44.1445 72.7601 43.3441C73.9584 42.5436 74.8924 41.4057 75.444 40.0744C75.9956 38.7431 76.14 37.278 75.8589 35.8646C75.5778 34.4512 74.8839 33.1529 73.8649 32.1339C72.8459 31.1149 71.5476 30.421 70.1342 30.1399C68.7208 29.8589 67.2558 30.0032 65.9244 30.5548C64.5931 31.1064 63.4552 32.0404 62.6547 33.2387C61.8543 34.4371 61.4271 35.8458 61.4274 37.2869C61.4336 38.5728 61.7924 39.8324 62.4648 40.9286L56.819 46.5576C54.9719 45.2481 52.7636 44.5448 50.4994 44.5448C48.2352 44.5448 46.0269 45.2481 44.1798 46.5576L38.534 40.9298C39.2066 39.8333 39.5654 38.5732 39.5714 37.2869C39.5717 35.8458 39.1445 34.4371 38.3441 33.2387C37.5436 32.0404 36.4057 31.1064 35.0744 30.5548C33.7431 30.0032 32.278 29.8589 30.8646 30.1399C29.4512 30.421 28.1529 31.1149 27.1339 32.1339C26.1149 33.1529 25.421 34.4512 25.1399 35.8646C24.8589 37.278 25.0032 38.7431 25.5548 40.0744C26.1064 41.4057 27.0404 42.5436 28.2387 43.3441C29.4371 44.1445 30.8458 44.5717 32.2869 44.5714C33.5728 44.5652 34.8324 44.2064 35.9286 43.534L41.5564 49.1798C40.2467 51.0271 39.5432 53.2356 39.5432 55.5C39.5432 57.7644 40.2467 59.9729 41.5564 61.8202L35.9286 67.466C34.8325 66.7932 33.5729 66.434 32.2869 66.4274C30.8459 66.4271 29.4372 66.8542 28.2389 67.6547C27.0406 68.4551 26.1066 69.5929 25.5549 70.9241C25.0033 72.2554 24.8589 73.7204 25.1398 75.1337C25.4208 76.5471 26.1146 77.8454 27.1335 78.8644C28.1524 79.8835 29.4506 80.5775 30.8639 80.8587C32.2772 81.1399 33.7422 80.9957 35.0736 80.4443C36.4049 79.8929 37.5429 78.9591 38.3435 77.7609C39.1441 76.5628 39.5714 75.1541 39.5714 73.7131C39.5654 72.4268 39.2066 71.1668 38.534 70.0702L44.1798 64.4424C46.0269 65.7519 48.2352 66.4552 50.4994 66.4552C52.7636 66.4552 54.9719 65.7519 56.819 64.4424L62.4648 70.0702C61.7924 71.1664 61.4336 72.426 61.4274 73.7119C61.4269 75.153 61.8538 76.5619 62.6542 77.7604C63.4545 78.9589 64.5923 79.8931 65.9236 80.4448C67.2549 80.9966 68.72 81.1412 70.1334 80.8602C71.5469 80.5793 72.8453 79.8854 73.8644 78.8665C74.8836 77.8475 75.5776 76.5492 75.8588 75.1358C76.14 73.7224 75.9957 72.2573 75.4441 70.9259C74.8925 69.5945 73.9585 68.4565 72.7602 67.656C71.5619 66.8555 70.153 66.4271 68.7119 66.4274ZM68.7119 33.6441C69.4321 33.6441 70.1361 33.8576 70.735 34.2577C71.3338 34.6578 71.8006 35.2265 72.0762 35.8918C72.3519 36.5572 72.4241 37.2893 72.2837 37.9957C72.1433 38.7021 71.7965 39.351 71.2874 39.8603C70.7782 40.3697 70.1294 40.7166 69.4231 40.8573C68.7167 40.9979 67.9846 40.926 67.3191 40.6505C66.6537 40.3751 66.0848 39.9085 65.6846 39.3098C65.2843 38.7111 65.0705 38.0071 65.0702 37.2869C65.0702 36.3211 65.4539 35.3948 66.1369 34.7119C66.8198 34.0289 67.7461 33.6453 68.7119 33.6453V33.6441ZM28.6441 37.2869C28.6441 36.5667 28.8576 35.8626 29.2578 35.2637C29.6579 34.6649 30.2267 34.1981 30.8921 33.9225C31.5575 33.6468 32.2898 33.5747 32.9962 33.7152C33.7026 33.8557 34.3515 34.2026 34.8608 34.7119C35.3701 35.2212 35.7169 35.87 35.8574 36.5765C35.9979 37.2829 35.9258 38.0151 35.6502 38.6805C35.3745 39.3459 34.9078 39.9147 34.3089 40.3148C33.71 40.715 33.006 40.9286 32.2857 40.9286C31.3199 40.9286 30.3936 40.5449 29.7107 39.862C29.0277 39.179 28.6441 38.2527 28.6441 37.2869ZM32.2857 77.3547C31.5655 77.3545 30.8616 77.1407 30.2628 76.7404C29.6641 76.3401 29.1976 75.7713 28.9221 75.1059C28.6467 74.4404 28.5747 73.7082 28.7154 73.0019C28.856 72.2956 29.203 71.6468 29.7123 71.1376C30.2216 70.6284 30.8705 70.2817 31.5769 70.1413C32.2833 70.0009 33.0154 70.0731 33.6808 70.3487C34.3462 70.6244 34.9148 71.0912 35.3149 71.69C35.715 72.2889 35.9286 72.9929 35.9286 73.7131C35.9286 74.1913 35.8344 74.6649 35.6514 75.1067C35.4684 75.5485 35.2001 75.95 34.862 76.2881C34.5238 76.6263 34.1223 76.8945 33.6805 77.0775C33.2387 77.2606 32.7639 77.3547 32.2857 77.3547ZM50.5 62.7845C49.0589 62.7848 47.6501 62.3576 46.4518 61.5571C45.2535 60.7567 44.3195 59.6188 43.7679 58.2875C43.2163 56.9561 43.0719 55.4911 43.353 54.0777C43.6341 52.6643 44.328 51.366 45.347 50.347C46.366 49.328 47.6643 48.6341 49.0777 48.353C50.4911 48.0719 51.9561 48.2163 53.2875 48.7679C54.6188 49.3195 55.7567 50.2535 56.5572 51.4518C57.3576 52.6501 57.7848 54.0589 57.7845 55.5C57.7842 57.4319 57.0166 59.2845 55.6506 60.6506C54.2845 62.0166 52.4319 62.7842 50.5 62.7845ZM68.7119 77.3559C67.9917 77.3557 67.2877 77.1419 66.689 76.7416C66.0903 76.3413 65.6237 75.7725 65.3483 75.1071C65.0729 74.4416 65.0009 73.7094 65.1416 73.0031C65.2822 72.2968 65.6291 71.648 66.1385 71.1388C66.6478 70.6296 67.2967 70.2829 68.0031 70.1425C68.7095 70.0021 69.4416 70.0743 70.107 70.3499C70.7723 70.6256 71.341 71.0924 71.7411 71.6912C72.1412 72.29 72.3548 72.9941 72.3548 73.7143C72.3548 74.6801 71.9711 75.6064 71.2881 76.2893C70.6052 76.9723 69.6777 77.3559 68.7119 77.3559Z" fill="url(#paint1_linear_328_2976)" stroke="url(#paint2_linear_328_2976)" stroke-width="1.35"/>
</g>
<defs>
<linearGradient id="paint0_linear_328_2976" x1="0.0217031" y1="9.91569" x2="100.228" y2="90.0334" gradientUnits="userSpaceOnUse">
<stop stop-color="white"/>
<stop offset="0.848958" stop-color="#7F787F"/>
<stop offset="0.982609" stop-color="#4B454B"/>
</linearGradient>
<linearGradient id="paint1_linear_328_2976" x1="25.0111" y1="30.1787" x2="84.1451" y2="68.3485" gradientUnits="userSpaceOnUse">
<stop stop-color="white"/>
<stop offset="0.848958" stop-color="#7F787F"/>
<stop offset="0.982609" stop-color="#4B454B"/>
</linearGradient>
<linearGradient id="paint2_linear_328_2976" x1="25.0111" y1="30.1787" x2="84.1451" y2="68.3485" gradientUnits="userSpaceOnUse">
<stop stop-color="white"/>
<stop offset="0.848958" stop-color="#7F787F"/>
<stop offset="0.982609" stop-color="#4B454B"/>
</linearGradient>
<clipPath id="clip0_328_2976">
<rect width="100" height="100" fill="white"/>
</clipPath>
</defs>
</svg>
