<svg width="100" height="100" viewBox="0 0 100 100" fill="none" xmlns="http://www.w3.org/2000/svg">
<g clip-path="url(#clip0_106_425)">
<path d="M48.6879 20.1843L49.071 22.2225H51.1449H87.6149C93.0715 22.2225 97.5 26.647 97.5 32.1076V77.982C97.5 83.4379 93.0708 87.8671 87.6149 87.8671H12.3851C6.92684 87.8671 2.5 83.4382 2.5 77.982V42.2029V32.1076V22.0179C2.5 16.5569 6.92612 12.1328 12.3851 12.1328H38.991C43.815 12.1328 47.8259 15.597 48.6879 20.1843Z" stroke="url(#paint0_linear_106_425)" stroke-width="5"/>
<g filter="url(#filter0_d_106_425)">
<path d="M49.0829 46.7018L48.9179 46.6895L49.083 46.7018C49.1505 45.7962 48.4015 44.9948 47.4744 45.1807C45.7889 45.5187 44.1646 46.2823 42.7696 47.4838C41.3961 48.6666 40.4093 50.1322 39.8217 51.7201L39.9768 51.7776L39.8216 51.7202C39.4917 52.6117 40.1744 53.4789 41.0845 53.5471C41.8299 53.603 42.4763 53.1087 42.7566 52.4473C43.1827 51.4416 43.8409 50.5157 44.725 49.7543C45.6244 48.9797 46.6574 48.4616 47.7351 48.1931C48.4358 48.0185 49.0271 47.4513 49.0829 46.7018Z" fill="url(#paint1_linear_106_425)" stroke="black" stroke-width="0.330927"/>
<path d="M52.4841 48.5999L52.4841 48.5999C51.8341 48.3133 51.3517 47.6717 51.4066 46.9346L51.555 46.9457L51.4066 46.9346C51.4752 46.0152 52.3572 45.3293 53.2534 45.6756L53.2534 45.6756C54.7878 46.2688 56.2025 47.2377 57.3507 48.571M52.4841 48.5999L59.6393 53.205C59.2943 51.5448 58.5353 49.9464 57.3507 48.571M52.4841 48.5999C53.4524 49.0268 54.3433 49.6708 55.0802 50.5264C55.8429 51.412 56.3568 52.427 56.6288 53.4867C56.8073 54.1824 57.3729 54.7675 58.1183 54.8233L52.4841 48.5999ZM57.3507 48.571L57.2253 48.679L57.3507 48.571C57.3507 48.571 57.3507 48.571 57.3507 48.571Z" fill="url(#paint2_linear_106_425)" stroke="black" stroke-width="0.330927"/>
<path d="M51.455 62.402L51.455 62.402C50.7697 62.589 50.1974 63.152 50.1425 63.8891C50.0739 64.8085 50.8444 65.6177 51.782 65.408C53.3875 65.049 54.9303 64.3005 56.2635 63.1523C57.6164 61.9872 58.5941 60.5477 59.1848 58.9871C59.5231 58.0933 58.8389 57.2186 57.9241 57.15L57.9241 57.15C57.1829 57.0946 56.5388 57.5828 56.2552 58.2384C55.8286 59.225 55.1776 60.1329 54.3081 60.8818C53.4524 61.6187 52.4759 62.1234 51.455 62.402Z" fill="url(#paint3_linear_106_425)" stroke="black" stroke-width="0.330927"/>
<path d="M46.6981 62.0999L46.6981 62.0999C45.6721 61.6745 44.7274 61.009 43.9528 60.1096C43.2027 59.2386 42.6932 58.2424 42.4179 57.2016C42.2352 56.5111 41.671 55.9323 40.9298 55.8768C40.015 55.8082 39.2081 56.5712 39.4095 57.5055C39.7615 59.139 40.5154 60.7101 41.6823 62.065C42.8837 63.46 44.3768 64.4561 45.9935 65.0403C46.8829 65.3617 47.7424 64.6802 47.8099 63.7746L47.649 63.7626L47.8099 63.7746C47.8658 63.025 47.3652 62.3765 46.6981 62.0999Z" fill="url(#paint4_linear_106_425)" stroke="black" stroke-width="0.330927"/>
<path d="M30.2571 73.1234L30.1401 73.0063L30.2571 73.1234C30.8236 72.5572 30.8398 71.6552 30.3414 71.0417C26.8959 66.7995 24.831 61.3912 24.831 55.5C24.831 49.5843 26.9131 44.1554 30.3845 39.9053C30.8854 39.2921 30.8707 38.3882 30.3034 37.8209C29.7001 37.2176 28.7048 37.2325 28.1544 37.8992C24.2064 42.6818 21.8345 48.8141 21.8345 55.5C21.8345 62.1584 24.1869 68.2678 28.1058 73.0417C28.6553 73.7111 29.6525 73.7274 30.2571 73.1234Z" fill="url(#paint5_linear_106_425)" stroke="black" stroke-width="0.330927"/>
<path d="M31.9677 36.1837L31.9677 36.1837C32.5321 36.748 33.4303 36.7661 34.0439 36.2721C38.2731 32.8682 43.6484 30.831 49.4999 30.831C55.3974 30.831 60.8111 32.9003 65.0552 36.3525C65.6684 36.8513 66.5704 36.8357 67.1369 36.2696L67.0508 36.1834L67.1369 36.2696C67.7415 35.6655 67.7258 34.6682 67.0568 34.1183C62.2806 30.1919 56.1654 27.8345 49.4999 27.8345C42.8859 27.8345 36.8137 30.1557 32.0538 34.0277C31.3797 34.5761 31.3614 35.5773 31.9677 36.1837Z" fill="url(#paint6_linear_106_425)" stroke="black" stroke-width="0.330927"/>
<path d="M67.179 74.6967C66.6118 74.1294 65.7078 74.1146 65.0946 74.6156M67.179 74.6967L67.0621 74.8137L67.179 74.6967C67.179 74.6967 67.179 74.6967 67.179 74.6967ZM67.179 74.6967C67.7824 75.3 67.7675 76.2952 67.1007 76.8456C62.3182 80.7936 56.1858 83.1655 49.5 83.1655C42.8585 83.1655 36.7632 80.825 31.9946 76.924L31.9946 76.924C31.3231 76.3747 31.3063 75.3755 31.9118 74.7703L31.9118 74.7703C32.4774 74.2052 33.3775 74.1885 33.9908 74.685M65.0946 74.6156L67.062 74.8137C67.6004 75.352 67.5825 76.2333 66.9954 76.718C62.2414 80.6425 56.146 83 49.5 83C42.8981 83 36.8395 80.6736 32.0993 76.7959C31.5081 76.3122 31.4884 75.4274 32.0288 74.8874C32.5308 74.3857 33.3351 74.3671 33.8867 74.8136M65.0946 74.6156C60.8446 78.087 55.4157 80.169 49.5 80.169C43.6239 80.169 38.228 78.1147 33.9908 74.685M65.0946 74.6156L65.1993 74.7437C60.9208 78.2383 55.4552 80.3344 49.5 80.3344C43.5846 80.3344 38.1523 78.2663 33.8867 74.8136M33.9908 74.685L33.8867 74.8136M33.9908 74.685C33.9908 74.685 33.9908 74.685 33.9908 74.685L33.8867 74.8136" fill="url(#paint7_linear_106_425)" stroke="black" stroke-width="0.330927"/>
<path d="M68.6959 40.0044L68.6959 40.0044L70.9363 38.0098C70.3875 37.3379 69.3882 37.3204 68.7827 37.9255L68.7827 37.9255C68.2171 38.4907 68.1999 39.3907 68.6959 40.0044Z" fill="url(#paint8_linear_106_425)" stroke="black" stroke-width="0.330927"/>
<path d="M32.1455 52.2428L32.1455 52.2428C31.3057 52.0328 30.444 52.5752 30.3502 53.453C29.9195 57.4835 30.7493 61.6826 32.9952 65.4262C35.227 69.1466 38.5142 71.8448 42.2442 73.3673C43.0635 73.7017 43.9513 73.197 44.1621 72.3552C44.3537 71.5904 43.9209 70.8233 43.2083 70.523L43.1512 70.6585L43.2083 70.523C40.1274 69.2249 37.4166 66.9715 35.5648 63.8847C33.7011 60.7783 32.9918 57.3016 33.3116 53.9526C33.3853 53.1809 32.9123 52.4346 32.1455 52.2428Z" fill="url(#paint9_linear_106_425)" stroke="black" stroke-width="0.330927"/>
<path d="M34.5678 49.0407L34.5678 49.0407C35.8724 46.0018 38.1101 43.3301 41.1629 41.4987C44.2532 39.6447 47.7101 38.9331 51.0429 39.2406C51.8129 39.3117 52.5562 38.8391 52.7477 38.0743C52.9585 37.2324 52.4134 36.3689 51.5331 36.2777L51.5164 36.4393L51.5331 36.2777C47.5214 35.862 43.3459 36.6946 39.6213 38.9291C35.9411 41.1369 33.2611 44.3773 31.73 48.0574C31.3883 48.8786 31.8935 49.7733 32.7395 49.9848C33.5004 50.1751 34.2642 49.7476 34.5678 49.0407Z" fill="url(#paint10_linear_106_425)" stroke="black" stroke-width="0.330927"/>
<path d="M46.4291 72.9132L46.4291 72.9132C46.2178 73.7571 46.766 74.6223 47.6488 74.7107L47.6488 74.7107C51.6396 75.11 55.7889 74.2741 59.4923 72.0523C63.236 69.8065 65.9446 66.4921 67.4618 62.7334C67.7922 61.9147 67.2872 61.0306 66.4474 60.8206C65.6805 60.6289 64.912 61.0647 64.6138 61.7803C63.3196 64.8855 61.0572 67.6192 57.9508 69.4827C54.8784 71.326 51.4436 72.04 48.1286 71.746C47.3602 71.6778 46.6202 72.1504 46.4291 72.9132Z" fill="url(#paint11_linear_106_425)" stroke="black" stroke-width="0.330927"/>
<path d="M66.9863 58.5489L66.9863 58.5489C67.8324 58.7604 68.6991 58.209 68.7842 57.3236L68.6195 57.3077L68.7842 57.3236C69.1656 53.3558 68.3263 49.2354 66.1184 45.5552C63.8992 41.856 60.6367 39.1673 56.9329 37.6402L56.8699 37.7932L56.9329 37.6402C56.1127 37.302 55.2214 37.8067 55.0101 38.6506L55.1706 38.6908L55.0101 38.6506C54.819 39.4135 55.249 40.179 55.9587 40.481C59.0176 41.7827 61.7078 44.0278 63.5489 47.0967C65.3803 50.1495 66.097 53.56 65.8176 56.8553C65.7527 57.622 66.2254 58.3586 66.9863 58.5489Z" fill="url(#paint12_linear_106_425)" stroke="black" stroke-width="0.330927"/>
</g>
</g>
<defs>
<filter id="filter0_d_106_425" x="19.4188" y="25.4188" width="60.1623" height="60.1625" filterUnits="userSpaceOnUse" color-interpolation-filters="sRGB">
<feFlood flood-opacity="0" result="BackgroundImageFix"/>
<feColorMatrix in="SourceAlpha" type="matrix" values="0 0 0 0 0 0 0 0 0 0 0 0 0 0 0 0 0 0 127 0" result="hardAlpha"/>
<feOffset/>
<feGaussianBlur stdDeviation="1.12515"/>
<feComposite in2="hardAlpha" operator="out"/>
<feColorMatrix type="matrix" values="0 0 0 0 0 0 0 0 0 0 0 0 0 0 0 0 0 0 1 0"/>
<feBlend mode="normal" in2="BackgroundImageFix" result="effect1_dropShadow_106_425"/>
<feBlend mode="normal" in="SourceGraphic" in2="effect1_dropShadow_106_425" result="shape"/>
</filter>
<linearGradient id="paint0_linear_106_425" x1="0.0217031" y1="9.91569" x2="100.228" y2="90.0334" gradientUnits="userSpaceOnUse">
<stop stop-color="white"/>
<stop offset="0.848958" stop-color="#7F787F"/>
<stop offset="0.982609" stop-color="#4B454B"/>
</linearGradient>
<linearGradient id="paint1_linear_106_425" x1="40.302" y1="53.6725" x2="41.3519" y2="44.2409" gradientUnits="userSpaceOnUse">
<stop stop-color="white"/>
<stop offset="0.848958" stop-color="#7F787F"/>
<stop offset="0.982609" stop-color="#4B454B"/>
</linearGradient>
<linearGradient id="paint2_linear_106_425" x1="53.9053" y1="55.8677" x2="59.899" y2="46.2439" gradientUnits="userSpaceOnUse">
<stop stop-color="white"/>
<stop offset="0.848958" stop-color="#7F787F"/>
<stop offset="0.982609" stop-color="#4B454B"/>
</linearGradient>
<linearGradient id="paint3_linear_106_425" x1="50.7017" y1="65.5341" x2="51.7876" y2="56.2064" gradientUnits="userSpaceOnUse">
<stop stop-color="white"/>
<stop offset="0.848958" stop-color="#7F787F"/>
<stop offset="0.982609" stop-color="#4B454B"/>
</linearGradient>
<linearGradient id="paint4_linear_106_425" x1="41.9209" y1="66.2031" x2="47.9089" y2="56.3634" gradientUnits="userSpaceOnUse">
<stop stop-color="white"/>
<stop offset="0.848958" stop-color="#7F787F"/>
<stop offset="0.982609" stop-color="#4B454B"/>
</linearGradient>
<linearGradient id="paint5_linear_106_425" x1="22.0019" y1="37.6742" x2="35.7668" y2="39.8008" gradientUnits="userSpaceOnUse">
<stop stop-color="white"/>
<stop offset="0.848958" stop-color="#7F787F"/>
<stop offset="0.982609" stop-color="#4B454B"/>
</linearGradient>
<linearGradient id="paint6_linear_106_425" x1="31.703" y1="28.0299" x2="38.7905" y2="47.1496" gradientUnits="userSpaceOnUse">
<stop stop-color="white"/>
<stop offset="0.848958" stop-color="#7F787F"/>
<stop offset="0.982609" stop-color="#4B454B"/>
</linearGradient>
<linearGradient id="paint7_linear_106_425" x1="31.6468" y1="74.4502" x2="38.7693" y2="93.6404" gradientUnits="userSpaceOnUse">
<stop stop-color="white"/>
<stop offset="0.848958" stop-color="#7F787F"/>
<stop offset="0.982609" stop-color="#4B454B"/>
</linearGradient>
<linearGradient id="paint8_linear_106_425" x1="68.5075" y1="37.7784" x2="82.138" y2="39.8746" gradientUnits="userSpaceOnUse">
<stop stop-color="white"/>
<stop offset="0.848958" stop-color="#7F787F"/>
<stop offset="0.982609" stop-color="#4B454B"/>
</linearGradient>
<linearGradient id="paint9_linear_106_425" x1="24.7992" y1="63.3076" x2="40.5579" y2="50.8918" gradientUnits="userSpaceOnUse">
<stop stop-color="white"/>
<stop offset="0.848958" stop-color="#7F787F"/>
<stop offset="0.982609" stop-color="#4B454B"/>
</linearGradient>
<linearGradient id="paint10_linear_106_425" x1="31.2467" y1="48.9941" x2="54.5816" y2="43.2365" gradientUnits="userSpaceOnUse">
<stop stop-color="white"/>
<stop offset="0.848958" stop-color="#7F787F"/>
<stop offset="0.982609" stop-color="#4B454B"/>
</linearGradient>
<linearGradient id="paint11_linear_106_425" x1="46.1115" y1="73.7697" x2="69.5125" y2="68.1457" gradientUnits="userSpaceOnUse">
<stop stop-color="white"/>
<stop offset="0.848958" stop-color="#7F787F"/>
<stop offset="0.982609" stop-color="#4B454B"/>
</linearGradient>
<linearGradient id="paint12_linear_106_425" x1="49.5999" y1="48.3837" x2="65.137" y2="36.0852" gradientUnits="userSpaceOnUse">
<stop stop-color="white"/>
<stop offset="0.848958" stop-color="#7F787F"/>
<stop offset="0.982609" stop-color="#4B454B"/>
</linearGradient>
<clipPath id="clip0_106_425">
<rect width="100" height="100" fill="white"/>
</clipPath>
</defs>
</svg>
