<svg width="100" height="100" viewBox="0 0 100 100" fill="none" xmlns="http://www.w3.org/2000/svg">
<g clip-path="url(#clip0_328_2896)">
<path d="M48.6879 20.1843L49.071 22.2225H51.1449H87.6149C93.0715 22.2225 97.5 26.647 97.5 32.1076V77.982C97.5 83.4379 93.0708 87.8671 87.6149 87.8671H12.3851C6.92684 87.8671 2.5 83.4382 2.5 77.982V42.2029V32.1076V22.0179C2.5 16.5569 6.92612 12.1328 12.3851 12.1328H38.991C43.815 12.1328 47.8259 15.597 48.6879 20.1843Z" stroke="url(#paint0_linear_328_2896)" stroke-width="5"/>
<path fill-rule="evenodd" clip-rule="evenodd" d="M25.3394 34.5C24.9213 34.5 24.5 34.8592 24.5 35.4048V52.5952C24.5 53.1408 24.9213 53.5 25.3394 53.5H73.6606C74.0787 53.5 74.5 53.1408 74.5 52.5952V35.4048C74.5 34.8592 74.0787 34.5 73.6606 34.5H25.3394ZM19.5 52.5952C19.5 53.8398 19.885 55.0057 20.5466 55.9673C19.8891 56.8949 19.5 58.0271 19.5 59.263V75.737C19.5 78.9741 22.1693 81.5 25.3394 81.5H73.6606C76.8307 81.5 79.5 78.9741 79.5 75.737V59.263C79.5 58.0271 79.1109 56.8949 78.4534 55.9673C79.115 55.0057 79.5 53.8398 79.5 52.5952V35.4048C79.5 32.1896 76.9311 29.5 73.6606 29.5H25.3394C22.0689 29.5 19.5 32.1896 19.5 35.4048V52.5952ZM24.5 59.263C24.5 58.8958 24.8209 58.5 25.3394 58.5H73.6606C74.1791 58.5 74.5 58.8958 74.5 59.263V75.737C74.5 76.1042 74.1791 76.5 73.6606 76.5H25.3394C24.8209 76.5 24.5 76.1042 24.5 75.737V59.263ZM34 40.5C32.6193 40.5 31.5 41.6193 31.5 43C31.5 44.3807 32.6193 45.5 34 45.5H34.1114C35.4921 45.5 36.6114 44.3807 36.6114 43C36.6114 41.6193 35.4921 40.5 34.1114 40.5H34ZM46.3339 40.5C44.9532 40.5 43.8339 41.6193 43.8339 43C43.8339 44.3807 44.9532 45.5 46.3339 45.5H63C64.3807 45.5 65.5 44.3807 65.5 43C65.5 41.6193 64.3807 40.5 63 40.5H46.3339ZM34 65.5C32.6193 65.5 31.5 66.6193 31.5 68C31.5 69.3807 32.6193 70.5 34 70.5H34.1114C35.4921 70.5 36.6114 69.3807 36.6114 68C36.6114 66.6193 35.4921 65.5 34.1114 65.5H34ZM46.3339 65.5C44.9532 65.5 43.8339 66.6193 43.8339 68C43.8339 69.3807 44.9532 70.5 46.3339 70.5H63C64.3807 70.5 65.5 69.3807 65.5 68C65.5 66.6193 64.3807 65.5 63 65.5H46.3339Z" fill="url(#paint1_linear_328_2896)"/>
</g>
<defs>
<linearGradient id="paint0_linear_328_2896" x1="0.0217031" y1="9.91569" x2="100.228" y2="90.0334" gradientUnits="userSpaceOnUse">
<stop stop-color="white"/>
<stop offset="0.848958" stop-color="#7F787F"/>
<stop offset="0.982609" stop-color="#4B454B"/>
</linearGradient>
<linearGradient id="paint1_linear_328_2896" x1="19.513" y1="29.6822" x2="82.9051" y2="76.8967" gradientUnits="userSpaceOnUse">
<stop stop-color="white"/>
<stop offset="0.848958" stop-color="#7F787F"/>
<stop offset="0.982609" stop-color="#4B454B"/>
</linearGradient>
<clipPath id="clip0_328_2896">
<rect width="100" height="100" fill="white"/>
</clipPath>
</defs>
</svg>
