<svg width="100" height="100" viewBox="0 0 100 100" fill="none" xmlns="http://www.w3.org/2000/svg">
<g clip-path="url(#clip0_328_2401)">
<path d="M48.6879 20.1843L49.071 22.2226H51.1449H87.6149C93.0715 22.2226 97.5 26.647 97.5 32.1077V77.9821C97.5 83.4379 93.0708 87.8672 87.6149 87.8672H12.3851C6.92684 87.8672 2.5 83.4383 2.5 77.9821V42.2029V32.1077V22.018C2.5 16.557 6.92612 12.1329 12.3851 12.1329H38.991C43.815 12.1329 47.8259 15.5971 48.6879 20.1843Z" stroke="url(#paint0_linear_328_2401)" stroke-width="5"/>
<path fill-rule="evenodd" clip-rule="evenodd" d="M59.232 32.557C55.8467 32.2017 52.4422 33.0209 49.589 34.8772C46.736 36.7336 44.6078 39.5142 43.5611 42.7531C42.5143 45.9919 42.6127 49.4921 43.8397 52.6671C44.1857 53.5624 43.7404 54.5687 42.845 54.9147C42.7555 54.9493 42.6649 54.976 42.574 54.9951L25.8968 71.7449V78.5075H30.7436V74.1878C30.7436 73.3879 31.3921 72.7395 32.192 72.7395H39.3957V67.8552C39.3957 67.0553 40.0441 66.4069 40.844 66.4069H46.0126L49.9856 62.4335C50.005 62.3371 50.0328 62.2411 50.0696 62.1463C50.4165 61.2514 51.4233 60.8071 52.3183 61.1541C55.4919 62.3845 58.992 62.4867 62.2319 61.4434C65.4719 60.4002 68.2548 58.275 70.1143 55.4241C71.9735 52.573 72.7963 49.1696 72.4447 45.7841C72.0931 42.3985 70.5886 39.2367 68.1831 36.8286C65.7775 34.4204 62.6173 32.9122 59.232 32.557ZM40.2535 41.6841C39.0454 45.4224 39.0732 49.4427 40.3204 53.1531L23.4221 70.1249C23.1518 70.3964 23.0001 70.7638 23.0001 71.1468V79.9558C23.0001 80.7557 23.6485 81.4041 24.4484 81.4041H32.192C32.9918 81.4041 33.6403 80.7557 33.6403 79.9558V75.6361H40.844C41.6439 75.6361 42.2923 74.9877 42.2923 74.1878V69.3035H46.6125C46.9967 69.3035 47.3651 69.1509 47.6367 68.8793L51.8391 64.6764C55.5451 65.9241 59.5613 65.9551 63.2973 64.7521C67.2961 63.4646 70.7308 60.8417 73.0257 57.3229L73.0258 57.3229C75.3205 53.8041 76.336 49.6035 75.9021 45.425C75.4682 41.2466 73.6112 37.3443 70.6424 34.3721L70.6424 34.3721C67.6734 31.3998 63.7729 29.5384 59.5948 29.1C55.4166 28.6615 51.2147 29.6726 47.6933 31.9637L47.6933 31.9637C44.1721 34.2548 41.5454 37.6867 40.2535 41.6841ZM61.6827 39.0806C60.4905 39.0806 59.3472 39.5542 58.5042 40.3972C57.6612 41.2402 57.1876 42.3835 57.1876 43.5757C57.1876 44.7678 57.6612 45.9112 58.5042 46.7542C59.3475 47.5975 60.491 48.0702 61.6827 48.0702C62.8748 48.0702 64.0181 47.5966 64.861 46.7537C65.7039 45.9108 66.1775 44.7675 66.1775 43.5754C66.1775 42.3833 65.7039 41.24 64.861 40.3971C64.0181 39.5541 62.8748 39.0806 61.6827 39.0806ZM60.1428 42.0358C60.5512 41.6273 61.1051 41.3979 61.6827 41.3979C62.2602 41.3979 62.814 41.6273 63.2224 42.0357C63.6308 42.444 63.8602 42.9979 63.8602 43.5754C63.8602 44.1529 63.6308 44.7068 63.2224 45.1151C62.814 45.5235 62.2602 45.7529 61.6827 45.7529C61.1046 45.7529 60.5509 45.5236 60.1428 45.1156C59.7344 44.7072 59.5049 44.1532 59.5049 43.5757C59.5049 42.9981 59.7344 42.4442 60.1428 42.0358Z" fill="url(#paint1_linear_328_2401)"/>
</g>
<defs>
<linearGradient id="paint0_linear_328_2401" x1="0.0217031" y1="9.91575" x2="100.228" y2="90.0334" gradientUnits="userSpaceOnUse">
<stop stop-color="white"/>
<stop offset="0.848958" stop-color="#7F787F"/>
<stop offset="0.982609" stop-color="#4B454B"/>
</linearGradient>
<linearGradient id="paint1_linear_328_2401" x1="23.0115" y1="29.1836" x2="84.0547" y2="69.0345" gradientUnits="userSpaceOnUse">
<stop stop-color="white"/>
<stop offset="0.848958" stop-color="#7F787F"/>
<stop offset="0.982609" stop-color="#4B454B"/>
</linearGradient>
<clipPath id="clip0_328_2401">
<rect width="100" height="100" fill="white"/>
</clipPath>
</defs>
</svg>
