<svg width="100" height="100" viewBox="0 0 100 100" fill="none" xmlns="http://www.w3.org/2000/svg">
<g clip-path="url(#clip0_328_2533)">
<path d="M48.6879 20.1843L49.071 22.2226H51.1449H87.6149C93.0715 22.2226 97.5 26.647 97.5 32.1077V77.9821C97.5 83.4379 93.0708 87.8672 87.6149 87.8672H12.3851C6.92684 87.8672 2.5 83.4383 2.5 77.9821V42.2029V32.1077V22.018C2.5 16.557 6.92612 12.1329 12.3851 12.1329H38.991C43.815 12.1329 47.8259 15.5971 48.6879 20.1843Z" stroke="url(#paint0_linear_328_2533)" stroke-width="5"/>
<path fill-rule="evenodd" clip-rule="evenodd" d="M32.965 51.849H38.3602C38.5726 50.7564 38.7782 49.6786 38.9794 48.6237L38.9795 48.6232L38.9795 48.6232C39.7592 44.5363 40.4732 40.7933 41.2607 37.8681C41.8175 35.7997 42.4714 33.8907 43.3383 32.4542C44.1874 31.0472 45.6231 29.5 47.865 29.5C49.8658 29.5 51.9951 29.8014 53.5124 31.319C55.0296 32.8364 55.331 34.9658 55.331 36.967C55.331 38.3477 54.2117 39.467 52.831 39.467C51.4503 39.467 50.331 38.3477 50.331 36.967C50.331 35.2432 50.0114 34.8891 49.9766 34.8543C49.9429 34.8206 49.6091 34.5189 48.0165 34.5008C47.9407 34.5725 47.8065 34.7272 47.6192 35.0376C47.1282 35.8513 46.6182 37.2013 46.0888 39.1679C45.3522 41.9042 44.6947 45.3513 43.9351 49.3338C43.7794 50.1502 43.6194 50.9891 43.4536 51.849H47.865C49.2457 51.849 50.365 52.9683 50.365 54.349C50.365 55.7297 49.2457 56.849 47.865 56.849H42.4714C42.2597 57.9378 42.0548 59.012 41.8542 60.0634L41.8539 60.0647L41.8539 60.0647C41.0735 64.155 40.3587 67.9011 39.5704 70.8286C39.0134 72.8971 38.3593 74.8061 37.4924 76.2426C36.6435 77.6493 35.208 79.197 32.966 79.197C30.9648 79.197 28.8356 78.8952 27.3184 77.3775C25.8015 75.86 25.5 73.7309 25.5 71.73C25.5 70.3493 26.6193 69.23 28 69.23C29.3807 69.23 30.5 70.3493 30.5 71.73C30.5 73.4531 30.8195 73.8075 30.8546 73.8425C30.8883 73.8763 31.2222 74.178 32.8142 74.1962C32.89 74.1245 33.0242 73.9697 33.2115 73.6593C33.7027 72.8454 34.2128 71.4951 34.7424 69.5285C35.4798 66.7901 36.138 63.3397 36.8984 59.3535C37.0535 58.5404 37.2129 57.7051 37.378 56.849H32.965C31.5843 56.849 30.465 55.7297 30.465 54.349C30.465 52.9683 31.5843 51.849 32.965 51.849ZM48.089 34.4463C48.0891 34.4482 48.0782 34.4567 48.056 34.4664C48.0777 34.4494 48.0888 34.4445 48.089 34.4463ZM32.7416 74.2507C32.7415 74.2489 32.7523 74.2404 32.7745 74.2307C32.7529 74.2477 32.7418 74.2526 32.7416 74.2507ZM73.419 51.7749C74.7406 51.375 75.4877 49.9795 75.0879 48.658C74.688 47.3364 73.2925 46.5893 71.971 46.9891C70.8792 47.3195 69.9794 47.7333 69.2381 48.2055C69.1485 47.9531 69.0662 47.7176 68.9896 47.4974L68.9003 47.2401C68.645 46.5036 68.3959 45.7849 68.1302 45.2409C67.7845 44.5334 67.211 43.6846 66.1062 43.2253C65.2785 42.8812 64.3778 42.8817 63.8413 42.8819L63.797 42.882H61.314C59.9333 42.882 58.814 44.0012 58.814 45.382C58.814 46.7627 59.9333 47.882 61.314 47.882H63.797L63.8223 47.882C63.9235 48.1528 64.0559 48.533 64.2514 49.095L64.2515 49.0953L64.2674 49.1408C64.5778 50.0326 64.9929 51.2098 65.6014 52.7352C64.2178 54.5173 61.8888 57.1177 59.4117 59.4638C57.8899 60.9052 56.3846 62.181 55.0822 63.079C54.4304 63.5283 53.8781 63.849 53.4372 64.0494C53.0585 64.2215 52.8686 64.2556 52.831 64.2623C52.8263 64.2632 52.8239 64.2636 52.824 64.2638C52.824 64.264 52.8262 64.264 52.8305 64.264H52.831C51.4503 64.264 50.331 65.3833 50.331 66.764C50.331 68.1447 51.4503 69.264 52.831 69.264C53.8081 69.264 54.7402 68.9494 55.5061 68.6013C56.3051 68.2382 57.1224 67.7455 57.9202 67.1955C59.5168 66.0947 61.2305 64.6279 62.85 63.0939C64.5335 61.4994 66.1942 59.7565 67.593 58.1596C67.9124 59.0538 68.2277 59.9063 68.5484 60.6619C68.9816 61.6825 69.515 62.753 70.2469 63.5906C71.0407 64.4993 72.1934 65.264 73.728 65.264H76.211C77.5917 65.264 78.711 64.1447 78.711 62.764C78.711 61.3832 77.5917 60.264 76.211 60.264H73.981C73.7889 60.0295 73.514 59.5636 73.1511 58.7085C72.7797 57.8336 72.4004 56.7612 71.9346 55.4412L71.9311 55.4313C71.6889 54.7449 71.4278 54.0049 71.1416 53.2243C71.1901 53.13 71.2437 53.0433 71.3116 52.9559C71.489 52.7273 71.9832 52.2093 73.419 51.7749Z" fill="url(#paint1_linear_328_2533)"/>
</g>
<defs>
<linearGradient id="paint0_linear_328_2533" x1="0.0217031" y1="9.91575" x2="100.228" y2="90.0334" gradientUnits="userSpaceOnUse">
<stop stop-color="white"/>
<stop offset="0.848958" stop-color="#7F787F"/>
<stop offset="0.982609" stop-color="#4B454B"/>
</linearGradient>
<linearGradient id="paint1_linear_328_2533" x1="25.5115" y1="29.6741" x2="84.6626" y2="70.5555" gradientUnits="userSpaceOnUse">
<stop stop-color="white"/>
<stop offset="0.848958" stop-color="#7F787F"/>
<stop offset="0.982609" stop-color="#4B454B"/>
</linearGradient>
<clipPath id="clip0_328_2533">
<rect width="100" height="100" fill="white"/>
</clipPath>
</defs>
</svg>
