<svg width="100" height="100" viewBox="0 0 100 100" fill="none" xmlns="http://www.w3.org/2000/svg">
<path d="M83.5063 6.81824H16.4945C13.4821 6.81824 11.04 9.26032 11.04 12.2728V87.7273C11.04 90.7398 13.4821 93.1819 16.4945 93.1819H83.5063C86.5188 93.1819 88.9609 90.7398 88.9609 87.7273V12.2728C88.9609 9.26032 86.5188 6.81824 83.5063 6.81824Z" stroke="url(#paint0_linear_328_2103)" stroke-width="8" stroke-linecap="round" stroke-linejoin="round"/>
<path d="M33.9781 20.6273V51.5046C33.9781 51.5046 38.1091 48.5928 40.4018 47.5682C42.3772 46.6837 44.5082 46.1764 46.62 45.7019C48.8691 45.1973 51.1536 44.7437 53.4582 44.6655C55.1209 44.611 56.82 44.6682 58.4309 45.081C59.7491 45.4173 61.04 45.9682 62.1618 46.7382C63.0481 47.3473 63.8254 48.1382 64.4418 49.0182C64.9318 49.7182 65.3081 50.5164 65.5236 51.3437C65.9381 52.9291 65.8309 54.6073 65.8918 56.2446C66.1809 63.9491 65.8918 79.3737 65.8918 79.3737" stroke="url(#paint1_linear_328_2103)" stroke-width="8" stroke-linecap="round" stroke-linejoin="round"/>
<path d="M33.9781 68.9027V79.3727" stroke="url(#paint2_linear_328_2103)" stroke-width="8" stroke-linecap="round" stroke-linejoin="round"/>
<path d="M64.8582 20.6273C64.8582 20.6273 64.5537 22.6846 64.2391 23.67C63.7737 25.1237 63.13 26.5246 62.38 27.8528C61.7591 28.95 60.2109 30.951 60.2109 30.951" stroke="url(#paint3_linear_328_2103)" stroke-width="8" stroke-linecap="round" stroke-linejoin="round"/>
<defs>
<linearGradient id="paint0_linear_328_2103" x1="11.0569" y1="7.12084" x2="106.634" y2="62.7841" gradientUnits="userSpaceOnUse">
<stop stop-color="white"/>
<stop offset="0.848958" stop-color="#7F787F"/>
<stop offset="0.982609" stop-color="#4B454B"/>
</linearGradient>
<linearGradient id="paint1_linear_328_2103" x1="33.9851" y1="20.8332" x2="80.8136" y2="37.3202" gradientUnits="userSpaceOnUse">
<stop stop-color="white"/>
<stop offset="0.848958" stop-color="#7F787F"/>
<stop offset="0.982609" stop-color="#4B454B"/>
</linearGradient>
<linearGradient id="paint2_linear_328_2103" x1="33.9784" y1="68.9394" x2="35.6148" y2="69.0403" gradientUnits="userSpaceOnUse">
<stop stop-color="white"/>
<stop offset="0.848958" stop-color="#7F787F"/>
<stop offset="0.982609" stop-color="#4B454B"/>
</linearGradient>
<linearGradient id="paint3_linear_328_2103" x1="60.2119" y1="20.6635" x2="67.2513" y2="22.709" gradientUnits="userSpaceOnUse">
<stop stop-color="white"/>
<stop offset="0.848958" stop-color="#7F787F"/>
<stop offset="0.982609" stop-color="#4B454B"/>
</linearGradient>
</defs>
</svg>
