<svg width="100" height="100" viewBox="0 0 100 100" fill="none" xmlns="http://www.w3.org/2000/svg">
<path d="M66.8625 57.7333C67.1709 55.1791 67.4042 52.6291 67.4042 49.9999C67.4042 47.3708 67.1709 44.8166 66.8625 42.2666H79.9334C80.55 44.7416 80.9375 47.3291 80.9375 49.9999C80.9206 52.6091 80.5833 55.2063 79.9334 57.7333M60.0167 79.2333C62.3375 74.9416 64.1167 70.2999 65.3542 65.4666H76.7625C73.0158 71.9183 67.0713 76.8053 60.0167 79.2333ZM59.05 57.7333H40.9584C40.5709 55.1791 40.3375 52.6291 40.3375 49.9999C40.3375 47.3708 40.5709 44.7791 40.9584 42.2666H59.0542C59.4042 44.7791 59.675 47.3708 59.675 49.9999C59.675 52.6291 59.4042 55.1791 59.0542 57.7333M50.0084 80.7791C46.8 76.1416 44.2042 70.9958 42.6209 65.4666H57.3917C55.8084 70.9958 53.2209 76.1416 50.0084 80.7791ZM34.5375 34.5291H23.2459C26.9544 28.0598 32.895 23.1651 39.9542 20.7624C37.6334 25.0541 35.8917 29.6958 34.5375 34.5291ZM23.2459 65.4666H34.5375C35.8917 70.2999 37.6334 74.9416 39.9542 79.2333C32.91 76.8038 26.9779 71.916 23.2459 65.4666ZM20.075 57.7333C19.4237 55.2065 19.085 52.6093 19.0667 49.9999C19.0667 47.3333 19.4542 44.7374 20.0709 42.2624H33.1417C32.8334 44.8166 32.6 47.3708 32.6 49.9999C32.6 52.6291 32.8334 55.1791 33.1417 57.7333M50 19.1791C53.2084 23.8166 55.8042 28.9999 57.3875 34.5291H42.6167C44.2 28.9999 46.7917 23.8208 50.0042 19.1791M76.7625 34.5291H65.3542C64.145 29.7397 62.3539 25.1164 60.0209 20.7624C67.0814 23.178 73.0285 28.0683 76.7625 34.5291ZM50 11.3333C28.6167 11.3333 11.3334 28.7333 11.3334 49.9999C11.3323 55.0784 12.3316 60.1074 14.2743 64.7996C16.217 69.4918 19.065 73.7554 22.6556 77.3468C26.2463 80.9382 30.5092 83.7871 35.201 85.7308C39.8928 87.6745 44.9216 88.6749 50 88.6749C55.0789 88.6755 60.1081 87.6755 64.8003 85.732C69.4926 83.7885 73.7561 80.9397 77.3471 77.3483C80.9382 73.7568 83.7866 69.493 85.7295 64.8005C87.6725 60.1081 88.672 55.0788 88.6709 49.9999C88.6714 44.9218 87.6717 39.8933 85.7287 35.2016C83.7858 30.5098 80.9377 26.2468 77.3471 22.6558C73.7565 19.0648 69.4938 16.2163 64.8023 14.2728C60.1107 12.3294 55.0823 11.3291 50.0042 11.3291L50 11.3333Z" fill="url(#paint0_linear_106_1160)"/>
<defs>
<linearGradient id="paint0_linear_106_1160" x1="11.3502" y1="11.6001" x2="101.029" y2="69.481" gradientUnits="userSpaceOnUse">
<stop stop-color="white"/>
<stop offset="0.848958" stop-color="#7F787F"/>
<stop offset="0.982609" stop-color="#4B454B"/>
</linearGradient>
</defs>
</svg>
