<svg width="100" height="100" viewBox="0 0 100 100" fill="none" xmlns="http://www.w3.org/2000/svg">
<path d="M59.5364 24.5046L62.3073 19.7064C67.8482 10.1091 53.4527 1.79732 47.9109 11.3946L45.1409 16.1937C39.6 25.791 53.9955 34.1028 59.5364 24.5046ZM83.5291 38.3573L86.3 33.5582C91.8409 23.9619 77.4455 15.65 71.9036 25.2473L69.1336 30.0455C63.5927 39.6428 77.9882 47.9546 83.5291 38.3573ZM85.4582 68.2619L86.8427 65.8619C92.3836 56.2655 77.9882 47.9546 72.4473 57.551L71.0618 59.951C65.5209 69.5473 79.9164 77.8591 85.4582 68.2619ZM32.6727 37.7873L34.0582 35.3873C39.5991 25.791 25.2036 17.4791 19.6627 27.0764L18.2773 29.4764C12.7364 39.0728 27.1327 47.3837 32.6727 37.7864V37.7873ZM18.1091 55.8664L41.9273 46.9482C49.2318 44.2119 57.2182 48.8237 58.5009 56.5182L62.6873 81.6037C64.0355 89.6755 55.3782 95.6819 48.2864 91.5873C47.3549 91.05 46.5615 90.303 45.9691 89.4055L44.7409 87.5437C42.2218 83.7294 38.8494 80.5539 34.8907 78.2685C30.932 75.9831 26.4956 74.6506 21.9327 74.3764L19.7073 74.2428C18.6356 74.1789 17.5936 73.8664 16.6636 73.3301C9.57182 69.2355 10.4455 58.7346 18.1091 55.8664Z" stroke="url(#paint0_linear_328_2111)" stroke-width="8"/>
<defs>
<linearGradient id="paint0_linear_328_2111" x1="11.8355" y1="7.43712" x2="106.072" y2="61.5279" gradientUnits="userSpaceOnUse">
<stop stop-color="white"/>
<stop offset="0.848958" stop-color="#7F787F"/>
<stop offset="0.982609" stop-color="#4B454B"/>
</linearGradient>
</defs>
</svg>
