<svg width="100" height="100" viewBox="0 0 100 100" fill="none" xmlns="http://www.w3.org/2000/svg">
<path fill-rule="evenodd" clip-rule="evenodd" d="M31.25 58.3333H68.75C69.9 58.3333 70.8333 59.2666 70.8333 60.4166V64.5833C70.8333 65.7333 69.9 66.6666 68.75 66.6666H31.25C30.1 66.6666 29.1666 65.7333 29.1666 64.5833V60.4166C29.1666 59.2666 30.1 58.3333 31.25 58.3333ZM77.0833 58.3333H81.25C82.4 58.3333 83.3333 59.2666 83.3333 60.4166V64.5833C83.3333 65.7333 82.4 66.6666 81.25 66.6666H77.0833C75.9333 66.6666 75 65.7333 75 64.5833V60.4166C75 59.2666 75.9333 58.3333 77.0833 58.3333ZM18.75 58.3333H22.9166C24.0666 58.3333 25 59.2666 25 60.4166V64.5833C25 65.7333 24.0666 66.6666 22.9166 66.6666H18.75C17.6 66.6666 16.6666 65.7333 16.6666 64.5833V60.4166C16.6666 59.2666 17.6 58.3333 18.75 58.3333ZM22.9166 45.8333H27.0833C28.2333 45.8333 29.1666 46.7666 29.1666 47.9166V52.0833C29.1666 53.2333 28.2333 54.1666 27.0833 54.1666H22.9166C21.7666 54.1666 20.8333 53.2333 20.8333 52.0833V47.9166C20.8333 46.7666 21.7666 45.8333 22.9166 45.8333ZM22.9166 33.3333H27.0833C28.2333 33.3333 29.1666 34.2666 29.1666 35.4166V39.5833C29.1666 40.7333 28.2333 41.6666 27.0833 41.6666H22.9166C21.7666 41.6666 20.8333 40.7333 20.8333 39.5833V35.4166C20.8333 34.2666 21.7666 33.3333 22.9166 33.3333ZM35.4166 45.8333H39.5833C40.7333 45.8333 41.6666 46.7666 41.6666 47.9166V52.0833C41.6666 53.2333 40.7333 54.1666 39.5833 54.1666H35.4166C34.2666 54.1666 33.3333 53.2333 33.3333 52.0833V47.9166C33.3333 46.7666 34.2666 45.8333 35.4166 45.8333ZM35.4166 33.3333H39.5833C40.7333 33.3333 41.6666 34.2666 41.6666 35.4166V39.5833C41.6666 40.7333 40.7333 41.6666 39.5833 41.6666H35.4166C34.2666 41.6666 33.3333 40.7333 33.3333 39.5833V35.4166C33.3333 34.2666 34.2666 33.3333 35.4166 33.3333ZM47.9166 45.8333H52.0833C53.2333 45.8333 54.1666 46.7666 54.1666 47.9166V52.0833C54.1666 53.2333 53.2333 54.1666 52.0833 54.1666H47.9166C46.7666 54.1666 45.8333 53.2333 45.8333 52.0833V47.9166C45.8333 46.7666 46.7666 45.8333 47.9166 45.8333ZM47.9166 33.3333H52.0833C53.2333 33.3333 54.1666 34.2666 54.1666 35.4166V39.5833C54.1666 40.7333 53.2333 41.6666 52.0833 41.6666H47.9166C46.7666 41.6666 45.8333 40.7333 45.8333 39.5833V35.4166C45.8333 34.2666 46.7666 33.3333 47.9166 33.3333ZM60.4166 45.8333H64.5833C65.7333 45.8333 66.6666 46.7666 66.6666 47.9166V52.0833C66.6666 53.2333 65.7333 54.1666 64.5833 54.1666H60.4166C59.2666 54.1666 58.3333 53.2333 58.3333 52.0833V47.9166C58.3333 46.7666 59.2666 45.8333 60.4166 45.8333ZM60.4166 33.3333H64.5833C65.7333 33.3333 66.6666 34.2666 66.6666 35.4166V39.5833C66.6666 40.7333 65.7333 41.6666 64.5833 41.6666H60.4166C59.2666 41.6666 58.3333 40.7333 58.3333 39.5833V35.4166C58.3333 34.2666 59.2666 33.3333 60.4166 33.3333ZM72.9166 45.8333H77.0833C78.2333 45.8333 79.1666 46.7666 79.1666 47.9166V52.0833C79.1666 53.2333 78.2333 54.1666 77.0833 54.1666H72.9166C71.7666 54.1666 70.8333 53.2333 70.8333 52.0833V47.9166C70.8333 46.7666 71.7666 45.8333 72.9166 45.8333ZM72.9166 33.3333H77.0833C78.2333 33.3333 79.1666 34.2666 79.1666 35.4166V39.5833C79.1666 40.7333 78.2333 41.6666 77.0833 41.6666H72.9166C71.7666 41.6666 70.8333 40.7333 70.8333 39.5833V35.4166C70.8333 34.2666 71.7666 33.3333 72.9166 33.3333ZM87.5 52.0833C87.5 49.7833 89.3666 47.9166 91.6666 47.9166C93.9666 47.9166 95.8333 49.7833 95.8333 52.0833V72.9167C95.8333 76.3667 93.0333 79.1667 89.5833 79.1667H10.4166C6.96663 79.1667 4.16663 76.3667 4.16663 72.9167V64.5833C4.16663 62.2833 6.03329 60.4166 8.33329 60.4166C10.6333 60.4166 12.5 62.2833 12.5 64.5833V68.75C12.5 69.9 13.4333 70.8333 14.5833 70.8333H85.4166C86.5666 70.8333 87.5 69.9 87.5 68.75V52.0833ZM12.5 47.9166C12.5 50.2166 10.6333 52.0833 8.33329 52.0833C6.03329 52.0833 4.16663 50.2166 4.16663 47.9166V27.0833C4.16663 23.6333 6.96663 20.8333 10.4166 20.8333H89.5833C93.0333 20.8333 95.8333 23.6333 95.8333 27.0833V35.4166C95.8333 37.7166 93.9666 39.5833 91.6666 39.5833C89.3666 39.5833 87.5 37.7166 87.5 35.4166V31.25C87.5 30.1 86.5666 29.1666 85.4166 29.1666H14.5833C13.4333 29.1666 12.5 30.1 12.5 31.25V47.9166Z" fill="url(#paint0_linear_328_2301)"/>
<defs>
<linearGradient id="paint0_linear_328_2301" x1="4.18652" y1="21.0377" x2="78.401" y2="96.317" gradientUnits="userSpaceOnUse">
<stop stop-color="white"/>
<stop offset="0.848958" stop-color="#7F787F"/>
<stop offset="0.982609" stop-color="#4B454B"/>
</linearGradient>
</defs>
</svg>
