<svg width="100" height="100" viewBox="0 0 100 100" fill="none" xmlns="http://www.w3.org/2000/svg">
<path d="M50.0027 35.6454C50.0027 30.86 53.419 26.0754 60.2572 26.0754C63.8823 26.075 67.3587 24.6346 69.9219 22.0713C72.4851 19.5079 73.9252 16.0314 73.9254 12.4064V9.32999M30.8636 35.6464V33.2536C30.8636 29.4467 32.3758 25.7957 35.0676 23.1038C37.7594 20.4118 41.4103 18.8993 45.2172 18.8991C46.4739 18.8992 47.7184 18.6518 48.8794 18.1709C50.0405 17.6901 51.0955 16.9853 51.9842 16.0967C52.8728 15.2081 53.5778 14.1532 54.0587 12.9921C54.5397 11.8311 54.7872 10.5867 54.7872 9.32999V6.93817M69.1418 45.2154H81.1036C84.276 45.2154 87.3186 46.4757 89.5619 48.719C91.8051 50.9623 93.0654 54.0048 93.0654 57.1773C93.0654 60.3497 91.8051 63.3923 89.5619 65.6355C87.3186 67.8788 84.276 69.1391 81.1036 69.1391H73.9263M73.9263 48.0864V64.3536C73.9265 68.1238 73.1842 71.8571 71.7415 75.3403C70.2989 78.8236 68.1843 81.9886 65.5185 84.6546C62.8527 87.3206 59.6878 89.4353 56.2047 90.8782C52.7215 92.321 48.9883 93.0636 45.2181 93.0636H35.649C31.8789 93.0638 28.1456 92.3212 24.6624 90.8785C21.1792 89.4358 18.0143 87.3211 15.3484 84.6552C12.6825 81.9893 10.5678 78.8244 9.12505 75.3412C7.68232 71.858 6.93982 68.1247 6.93994 64.3545V48.0864C6.93994 47.7093 7.01423 47.3359 7.15856 46.9875C7.3029 46.6391 7.51445 46.3226 7.78113 46.056C8.04782 45.7894 8.36441 45.5779 8.71283 45.4337C9.06125 45.2895 9.43467 45.2153 9.81176 45.2154H71.0545C71.8159 45.2154 72.5461 45.5179 73.0845 46.0563C73.6229 46.5947 73.9263 47.3249 73.9263 48.0864Z" stroke="url(#paint0_linear_106_235)" stroke-width="8" stroke-linecap="round" stroke-linejoin="round"/>
<defs>
<linearGradient id="paint0_linear_106_235" x1="6.95863" y1="7.23993" x2="106.821" y2="71.7008" gradientUnits="userSpaceOnUse">
<stop stop-color="white"/>
<stop offset="0.848958" stop-color="#7F787F"/>
<stop offset="0.982609" stop-color="#4B454B"/>
</linearGradient>
</defs>
</svg>
