<svg width="100" height="100" viewBox="0 0 100 100" fill="none" xmlns="http://www.w3.org/2000/svg">
<path d="M19.6972 7.32909L80.3027 7.28455C86.2554 7.28 92.9299 13.9591 92.9299 19.9109V80.5173C92.9299 86.3691 86.1554 92.7155 80.3027 92.7155H19.6972C13.8445 92.7155 7.06995 86.3691 7.06995 80.5173V19.9109C7.06995 13.9691 13.7554 7.33364 19.6972 7.32909Z" stroke="url(#paint0_linear_328_2119)" stroke-width="8" stroke-linecap="round" stroke-linejoin="round"/>
<path d="M56.5545 56.7545C56.5545 56.7545 56.5527 56.6954 55.96 56.1599C55.4158 55.6686 54.7969 55.2672 54.1263 54.9708C53.5045 54.6936 52.9318 54.5763 52.2927 54.4754C51.6536 54.3745 51.3472 54.4209 50.6081 54.4627C49.8681 54.5045 48.9781 54.6036 48.3654 54.9081C47.7527 55.2145 47.0609 55.5763 46.6681 55.9499C46.2754 56.3227 46.02 56.6863 45.7509 57.1518C45.4738 57.6354 45.2577 58.1514 45.1072 58.6881C44.9691 59.1972 44.9118 59.5245 44.9091 60.1745C44.9063 60.8236 44.9854 61.8508 45.2063 62.5527C45.4272 63.2545 45.7763 63.8227 46.1481 64.3372C46.5191 64.8509 46.9663 65.3272 47.3863 65.6254C47.8072 65.9245 48.0127 66.0754 48.6254 66.369C49.2381 66.6627 50.2109 66.9881 51.0536 67.4099C51.8963 67.8309 52.8627 68.2827 53.6309 68.6981C54.3981 69.1136 55.1127 69.489 55.6627 69.8872C56.2127 70.2854 56.56 70.5963 56.9509 71.0272C57.3418 71.4581 57.7263 71.9545 57.9918 72.4636C58.2563 72.9745 58.4309 73.3345 58.5545 74.0327C58.6163 74.3818 58.6436 74.869 58.6472 75.3472C58.6518 75.8254 58.6336 76.2945 58.6036 76.609C58.5454 77.239 58.4936 77.2999 58.3381 77.8163C58.1836 78.3336 57.8145 79.1627 57.42 79.6999C57.0254 80.2363 56.6163 80.589 56.0591 80.9381C55.5005 81.2902 54.9012 81.5731 54.2745 81.7809C53.69 81.9672 53.2681 82.0118 52.59 82.0781C51.9118 82.1445 51.0354 82.2072 50.2109 82.1281C49.3515 82.0363 48.5043 81.8534 47.6836 81.5827C46.9645 81.339 46.4254 81.1027 45.9 80.7399C45.3745 80.3781 45.1545 80.2145 44.8591 79.8727C44.4663 79.4181 43.9172 78.3363 43.9172 78.3363" stroke="url(#paint1_linear_328_2119)" stroke-width="8" stroke-linecap="round" stroke-linejoin="round"/>
<path d="M34.3854 54.7136C34.3854 54.7136 34.4354 68.8154 34.3854 76.0536C34.3809 76.6154 34.3791 77.1827 34.28 77.7354C34.2137 78.0966 34.1079 78.4493 33.9645 78.7873C33.8618 79.0327 33.7254 79.2645 33.5791 79.4873C33.37 79.8091 33.1491 80.1282 32.8791 80.3991C32.644 80.6248 32.3852 80.8245 32.1072 80.9945C31.6211 81.3134 31.1047 81.5835 30.5654 81.8009C30.1021 81.9812 29.6204 82.1105 29.1291 82.1863C28.6075 82.268 28.0785 82.2914 27.5518 82.2564C27.1654 82.2291 26.7834 82.1587 26.4127 82.0463C25.9018 81.8918 25.3972 81.6927 24.9409 81.4154C24.6118 81.2154 24.3227 80.9509 24.0482 80.6791C23.7645 80.4 23.5227 80.0818 23.2772 79.7682C23.1791 79.6436 22.9963 79.3827 22.9963 79.3827" stroke="url(#paint2_linear_328_2119)" stroke-width="8" stroke-linecap="round" stroke-linejoin="round"/>
<path d="M66.6809 82.3973L81.5836 55.2109ZM81.5836 82.3973L66.6818 55.2109Z" fill="url(#paint3_linear_328_2119)"/>
<path d="M66.6809 82.3973L81.5836 55.2109M81.5836 82.3973L66.6818 55.2109" stroke="url(#paint4_linear_328_2119)" stroke-width="8" stroke-linecap="round" stroke-linejoin="round"/>
<defs>
<linearGradient id="paint0_linear_328_2119" x1="7.08858" y1="7.58388" x2="106.349" y2="71.9781" gradientUnits="userSpaceOnUse">
<stop stop-color="white"/>
<stop offset="0.848958" stop-color="#7F787F"/>
<stop offset="0.982609" stop-color="#4B454B"/>
</linearGradient>
<linearGradient id="paint1_linear_328_2119" x1="43.9204" y1="54.512" x2="65.575" y2="61.9319" gradientUnits="userSpaceOnUse">
<stop stop-color="white"/>
<stop offset="0.848958" stop-color="#7F787F"/>
<stop offset="0.982609" stop-color="#4B454B"/>
</linearGradient>
<linearGradient id="paint2_linear_328_2119" x1="22.9988" y1="54.8102" x2="40.4935" y2="59.4862" gradientUnits="userSpaceOnUse">
<stop stop-color="white"/>
<stop offset="0.848958" stop-color="#7F787F"/>
<stop offset="0.982609" stop-color="#4B454B"/>
</linearGradient>
<linearGradient id="paint3_linear_328_2119" x1="66.6841" y1="55.3062" x2="88.4399" y2="63.0042" gradientUnits="userSpaceOnUse">
<stop stop-color="white"/>
<stop offset="0.848958" stop-color="#7F787F"/>
<stop offset="0.982609" stop-color="#4B454B"/>
</linearGradient>
<linearGradient id="paint4_linear_328_2119" x1="66.6841" y1="55.3062" x2="88.4399" y2="63.0042" gradientUnits="userSpaceOnUse">
<stop stop-color="white"/>
<stop offset="0.848958" stop-color="#7F787F"/>
<stop offset="0.982609" stop-color="#4B454B"/>
</linearGradient>
</defs>
</svg>
