<svg width="100" height="100" viewBox="0 0 100 100" fill="none" xmlns="http://www.w3.org/2000/svg">
<path d="M58.6538 14.3682H53.1978L56.4137 18.7756L56.4324 18.8012C60.7139 24.6692 63.7327 28.8064 64.3927 34.3168L64.393 34.3189C64.5801 35.8711 64.2483 38.3551 63.3749 41.5679C62.5239 44.698 61.2418 48.231 59.7794 51.7453C56.8394 58.8101 53.297 65.5017 51.3683 68.3652L48.4571 72.6873H53.6682H62.1316H63.6438L64.4627 71.416C66.0671 68.9254 68.5227 64.0752 70.7769 59.2267C71.812 57.0005 72.8302 54.7193 73.7278 52.6027C74.3628 54.2717 75.0401 56.1375 75.7119 58.0648C77.4555 63.0673 79.03 68.0995 79.5911 70.5365L80.0863 72.6873H82.2934H89.9999H93.5802L92.6848 69.2208C89.7046 57.6829 83.7806 39.6233 69.5392 15.9597L68.7714 14.6838L67.2837 14.6192L67.1633 17.3896C67.2837 14.6192 67.2836 14.6192 67.2835 14.6192L67.2833 14.6192L67.2824 14.6192L67.2791 14.619L67.2662 14.6185L67.2168 14.6164L67.0284 14.6084C66.8651 14.6015 66.6291 14.5918 66.3374 14.58C65.7541 14.5566 64.947 14.5254 64.0517 14.4941C62.2752 14.4321 60.1032 14.3682 58.6538 14.3682Z" stroke="url(#paint0_linear_328_3130)" stroke-width="5.54595"/>
<path d="M42.3338 88.3776L47.7897 88.3776L44.5738 83.9702L44.5552 83.9447C40.2736 78.0766 37.2549 73.9394 36.5948 68.4291L36.5946 68.427C36.4075 66.8748 36.7393 64.3908 37.6127 61.178C38.4636 58.0478 39.7457 54.5149 41.2082 51.0005C44.1481 43.9357 47.6905 37.2442 49.6192 34.3807L52.5305 30.0586L47.3193 30.0586L38.856 30.0586L37.3438 30.0586L36.5249 31.3298C34.9204 33.8204 32.4648 38.6707 30.2106 43.5191C29.1756 45.7454 28.1574 48.0266 27.2597 50.1432C26.6248 48.4741 25.9475 46.6084 25.2757 44.681C23.532 39.6786 21.9576 34.6463 21.3965 32.2093L20.9012 30.0586L18.6942 30.0586L10.9876 30.0586L7.4074 30.0586L8.30277 33.525C11.283 45.063 17.2069 63.1225 31.4483 86.7861L32.2162 88.062L33.7039 88.1266L33.8242 85.3563C33.7039 88.1266 33.7039 88.1266 33.704 88.1266L33.7043 88.1266L33.7052 88.1267L33.7085 88.1268L33.7213 88.1274L33.7707 88.1295L33.9591 88.1375C34.1224 88.1443 34.3584 88.1541 34.6501 88.1658C35.2334 88.1892 36.0405 88.2205 36.9359 88.2518C38.7124 88.3138 40.8843 88.3776 42.3338 88.3776Z" stroke="url(#paint1_linear_328_3130)" stroke-width="5.54595"/>
<defs>
<linearGradient id="paint0_linear_328_3130" x1="53.6761" y1="17.3261" x2="103.513" y2="39.4734" gradientUnits="userSpaceOnUse">
<stop stop-color="white"/>
<stop offset="0.848958" stop-color="#7F787F"/>
<stop offset="0.982609" stop-color="#4B454B"/>
</linearGradient>
<linearGradient id="paint1_linear_328_3130" x1="47.3115" y1="85.4198" x2="-2.52587" y2="63.2725" gradientUnits="userSpaceOnUse">
<stop stop-color="white"/>
<stop offset="0.848958" stop-color="#7F787F"/>
<stop offset="0.982609" stop-color="#4B454B"/>
</linearGradient>
</defs>
</svg>
