<svg width="100" height="100" viewBox="0 0 100 100" fill="none" xmlns="http://www.w3.org/2000/svg">
<path fill-rule="evenodd" clip-rule="evenodd" d="M16.3333 13C9.49919 13 4 18.4992 4 25.3333V75.3333C4 78.6043 5.2994 81.7414 7.61235 84.0543C9.92529 86.3673 13.0623 87.6667 16.3333 87.6667H83C86.271 87.6667 89.408 86.3673 91.721 84.0543C94.0339 81.7414 95.3333 78.6043 95.3333 75.3333V25.3333C95.3333 22.0623 94.0339 18.9253 91.721 16.6123C89.408 14.2994 86.271 13 83 13H16.3333ZM12 25.58V75.3333C12 76.4826 12.4565 77.5848 13.2692 78.3975C14.0819 79.2101 15.1841 79.6667 16.3333 79.6667H83C84.1493 79.6667 85.2515 79.2101 86.0641 78.3975C86.8768 77.5848 87.3333 76.4826 87.3333 75.3333V28.0932L59.6441 55.7824C57.1016 58.3249 53.5639 59.3291 50.0502 58.9387C46.5659 58.5516 43.254 56.8338 40.7296 54.3093L12 25.58ZM83.1114 21.0014C83.0743 21.0005 83.0372 21 83 21H18.7337L46.3864 48.6524C47.7688 50.0348 49.4453 50.8223 50.9336 50.9877C52.3925 51.1497 53.4043 50.7085 53.9873 50.1255L83.1114 21.0014Z" fill="url(#paint0_linear_106_1156)"/>
<defs>
<linearGradient id="paint0_linear_106_1156" x1="4.01982" y1="13.2616" x2="96.4328" y2="86.2288" gradientUnits="userSpaceOnUse">
<stop stop-color="white"/>
<stop offset="0.848958" stop-color="#7F787F"/>
<stop offset="0.982609" stop-color="#4B454B"/>
</linearGradient>
</defs>
</svg>
