<svg width="100" height="100" viewBox="0 0 100 100" fill="none" xmlns="http://www.w3.org/2000/svg">
<path d="M12.7745 6.36367C11.932 6.36163 11.0975 6.52606 10.3188 6.84752C9.54003 7.16897 8.83249 7.64112 8.23677 8.23683C7.64106 8.83255 7.16891 9.54009 6.84746 10.3188C6.526 11.0975 6.36157 11.9321 6.36361 12.7746V87.2255C6.36157 88.068 6.526 88.9025 6.84746 89.6813C7.16891 90.46 7.64106 91.1675 8.23677 91.7632C8.83249 92.3589 9.54003 92.8311 10.3188 93.1525C11.0975 93.474 11.932 93.6384 12.7745 93.6364H87.2254C88.0679 93.6384 88.9025 93.474 89.6812 93.1525C90.4599 92.8311 91.1675 92.3589 91.7632 91.7632C92.3589 91.1675 92.831 90.46 93.1525 89.6813C93.4739 88.9025 93.6384 88.068 93.6363 87.2255V12.7746C93.6384 11.9321 93.4739 11.0975 93.1525 10.3188C92.831 9.54009 92.3589 8.83255 91.7632 8.23683C91.1675 7.64112 90.4599 7.16897 89.6812 6.84752C88.9025 6.52606 88.0679 6.36163 87.2254 6.36367H12.7745Z" stroke="url(#paint0_linear_328_2163)" stroke-width="8" stroke-linecap="round" stroke-linejoin="round"/>
<path d="M24.8727 24.8109L75.19 24.88L75.1573 75.1927H62.5609L62.5973 37.44H50.03L50 75.1636H24.8118L24.8727 24.8109Z" stroke="url(#paint1_linear_328_2163)" stroke-width="8" stroke-linecap="round" stroke-linejoin="round"/>
<defs>
<linearGradient id="paint0_linear_328_2163" x1="6.38253" y1="6.66943" x2="107.576" y2="71.989" gradientUnits="userSpaceOnUse">
<stop stop-color="white"/>
<stop offset="0.848958" stop-color="#7F787F"/>
<stop offset="0.982609" stop-color="#4B454B"/>
</linearGradient>
<linearGradient id="paint1_linear_328_2163" x1="24.8228" y1="24.9874" x2="83.2389" y2="62.692" gradientUnits="userSpaceOnUse">
<stop stop-color="white"/>
<stop offset="0.848958" stop-color="#7F787F"/>
<stop offset="0.982609" stop-color="#4B454B"/>
</linearGradient>
</defs>
</svg>
