<svg width="100" height="100" viewBox="0 0 100 100" fill="none" xmlns="http://www.w3.org/2000/svg">
<path d="M74.5955 40.0954V38.9909C74.5955 34.1309 70.6527 30.189 65.7927 30.189H58.0864C52.6155 30.1872 48.1791 34.6227 48.1791 40.0945C48.1791 45.5654 52.6155 50.0009 58.0864 49.999H64.69C70.1591 50.0009 74.5918 54.4354 74.5918 59.9036C74.5918 65.3736 70.1591 69.8072 64.69 69.809H58.0864C52.6164 69.8099 48.1818 65.3754 48.1818 59.9045M36.7936 30.0699V61.6481C36.7933 64.1012 36.1098 66.5058 34.8199 68.5924C33.5299 70.6789 31.6843 72.365 29.49 73.4618L23.5864 76.4136M10.38 69.809V30.1899L50 7.07812L89.62 30.1909V69.8109L50 92.9218L10.38 69.809Z" stroke="url(#paint0_linear_328_2166)" stroke-width="8" stroke-linecap="round" stroke-linejoin="round"/>
<defs>
<linearGradient id="paint0_linear_328_2166" x1="10.3972" y1="7.3789" x2="106.456" y2="64.6143" gradientUnits="userSpaceOnUse">
<stop stop-color="white"/>
<stop offset="0.848958" stop-color="#7F787F"/>
<stop offset="0.982609" stop-color="#4B454B"/>
</linearGradient>
</defs>
</svg>
