<svg width="100" height="100" viewBox="0 0 100 100" fill="none" xmlns="http://www.w3.org/2000/svg">
<path d="M15.7846 91.0618C27.6928 82.95 35.6173 70.6 41.5473 55.4846C47.4764 40.3691 53.8028 27.4136 51.0292 12.4918C50.5946 10.1518 47.261 7.78454 45.5601 7.90364C38.7928 8.37909 39.2655 15.8245 39.9128 20.3273C41.4982 31.3545 50.2455 44.1927 58.6273 56.2927C67.0092 68.3918 73.9692 70.2927 83.5964 70.9291C86.841 71.1436 91.7864 70.0164 92.5873 67.1455C97.6601 48.9709 33.1146 63.6809 11.6555 80.6373C8.97188 82.7582 5.95279 87.1391 7.6737 90.0964C9.04188 92.4509 13.4173 92.6755 15.7846 91.0618Z" stroke="url(#paint0_linear_328_3178)" stroke-width="8" stroke-linecap="round" stroke-linejoin="round"/>
<defs>
<linearGradient id="paint0_linear_328_3178" x1="7.18779" y1="8.19434" x2="105.519" y2="72.7971" gradientUnits="userSpaceOnUse">
<stop stop-color="white"/>
<stop offset="0.848958" stop-color="#7F787F"/>
<stop offset="0.982609" stop-color="#4B454B"/>
</linearGradient>
</defs>
</svg>
