<svg width="100" height="100" viewBox="0 0 100 100" fill="none" xmlns="http://www.w3.org/2000/svg">
<path d="M78.1136 93.1227V70.9364C71.8209 66.9791 70.1163 60.56 70.1163 51.8918M53.38 63.1045V76.7091L59.0691 93.1227M38.2927 63.1882V93.1227M92.0473 93.1227V58.1591C92.0473 58.1591 90.6454 47.1109 83.0609 47.1109C83.2254 40.9273 82.1536 6.96 68.4682 6.87727C54.7818 6.79545 54.04 25.1818 54.04 25.1818C45.5482 29.0291 40.1891 35.5973 38.7045 44.1436V20.8936C38.7045 16.7391 34.8045 12.1545 30.6254 12.1545C24.6282 12.1545 21.8982 16.9273 20.8145 20.9755H12.8172C10.0963 21.7045 7.95361 24.9309 7.95361 27.6536C7.95361 30.99 9.96543 34.4145 12.9818 34.4145H23.9472V52.0573C23.9472 58.3936 29.7 62.8573 36.0663 62.8573H59.4" stroke="url(#paint0_linear_328_3180)" stroke-width="8" stroke-linecap="round" stroke-linejoin="round"/>
<defs>
<linearGradient id="paint0_linear_328_3180" x1="7.97186" y1="7.17918" x2="106.913" y2="69.4514" gradientUnits="userSpaceOnUse">
<stop stop-color="white"/>
<stop offset="0.848958" stop-color="#7F787F"/>
<stop offset="0.982609" stop-color="#4B454B"/>
</linearGradient>
</defs>
</svg>
