<svg width="100" height="100" viewBox="0 0 100 100" fill="none" xmlns="http://www.w3.org/2000/svg">
<path fill-rule="evenodd" clip-rule="evenodd" d="M38.9924 40L30.9941 40V61.0218H6.99917C4.79049 61.0218 3.00001 62.8145 3.00001 65.0259V92.9958C3.00001 95.2073 4.79049 97 6.99917 97H93.3447C94.4057 97 95.4233 96.5778 96.1734 95.8263C96.9234 95.0749 97.0007 94.0558 97 92.9934V61H38.9924V40ZM38.9924 70.0312V69.0301H60.034L60.0883 88.9917H38.9924V70.0312ZM10.9983 69.0301H31V88.9917H10.9983V69.0301ZM67.9458 69.0301L68 88.9917H88.9943L88.9819 69.0301H67.9458Z" fill="url(#paint0_linear_328_2168)"/>
<path fill-rule="evenodd" clip-rule="evenodd" d="M3 9.00005C3 6.79091 4.79086 5.00005 7 5.00005H93.3618C94.4257 5.00005 95.4458 5.42387 96.1964 6.17779C96.9471 6.93171 97.3664 7.95361 97.3618 9.01749L97 37V61.0591L89 61V40.941H67.9646L68 61H59.9646V40.9244L35.0003 40.821L7.01714 40.9409C5.95332 40.9455 4.9315 40.5261 4.17764 39.7754C3.42378 39.0248 3 38.0048 3 36.941V9.00005ZM39 33H60V13H38.957L39 33ZM30.957 13H11V33H31L30.957 13ZM68 13V33H88.957V13H68Z" fill="url(#paint1_linear_328_2168)"/>
<defs>
<linearGradient id="paint0_linear_328_2168" x1="3.0204" y1="40.1997" x2="75.4045" y2="117.253" gradientUnits="userSpaceOnUse">
<stop stop-color="white"/>
<stop offset="0.848958" stop-color="#7F787F"/>
<stop offset="0.982609" stop-color="#4B454B"/>
</linearGradient>
<linearGradient id="paint1_linear_328_2168" x1="3.02048" y1="5.19646" x2="74.1039" y2="82.4309" gradientUnits="userSpaceOnUse">
<stop stop-color="white"/>
<stop offset="0.848958" stop-color="#7F787F"/>
<stop offset="0.982609" stop-color="#4B454B"/>
</linearGradient>
</defs>
</svg>
