<svg width="100" height="100" viewBox="0 0 100 100" fill="none" xmlns="http://www.w3.org/2000/svg">
<path fill-rule="evenodd" clip-rule="evenodd" d="M46.3359 4.25536C50.4543 4.19457 53.9968 6.43099 57.1234 9.54994L57.1268 9.55353L62.378 14.8046C62.9659 13.927 63.6472 13.094 64.4209 12.3199C70.8438 5.89707 81.2576 5.89707 87.6805 12.32C94.1034 18.7429 94.1034 29.1564 87.6805 35.5793C86.9063 36.3534 86.0734 37.0345 85.1959 37.6224L90.4468 42.8733L90.4501 42.8771C93.5688 46.0033 95.8051 49.5458 95.7447 53.6641C95.6843 57.7508 93.3751 61.1654 90.4409 64.0787C90.4393 64.0804 90.4372 64.0825 90.4355 64.0842L85.1197 69.4C83.133 71.3862 80.533 71.1767 78.9634 70.5142C77.4097 69.8579 75.7513 68.3504 75.3738 66.045C75.1093 64.4283 74.3568 62.8808 73.1051 61.6292C69.9363 58.4608 64.7993 58.4608 61.6309 61.6292C58.4622 64.7979 58.4622 69.935 61.6309 73.1033C62.8822 74.355 64.4297 75.1079 66.0463 75.3725C68.3518 75.75 69.8597 77.4079 70.5155 78.9621C71.178 80.5316 71.388 83.1317 69.4018 85.1179L64.0709 90.4487C64.0693 90.4504 64.0676 90.4521 64.0655 90.4541C61.1572 93.3833 57.7463 95.6875 53.6643 95.7479C49.5509 95.8083 46.0122 93.5771 42.8909 90.4633L42.8872 90.4596L37.623 85.1954C37.0351 86.0729 36.3541 86.9054 35.5802 87.6796C29.1573 94.1025 18.7437 94.1025 12.3208 87.6796C5.89797 81.2566 5.89797 70.8429 12.3208 64.42C13.0948 63.6462 13.9276 62.965 14.805 62.3775L9.55401 57.1262L9.55043 57.1229C6.43147 53.9962 4.19514 50.4537 4.25597 46.3354C4.31631 42.2487 6.62547 38.8345 9.55943 35.9211C9.56131 35.9192 9.56322 35.9174 9.5651 35.9155L14.882 30.5986C16.8684 28.6121 19.4688 28.8221 21.0383 29.4847C22.5922 30.1407 24.2502 31.6484 24.6277 33.9541C24.8923 35.5709 25.6451 37.1184 26.8967 38.3701C30.0652 41.5386 35.2024 41.5386 38.3709 38.3701C41.5395 35.2015 41.5395 30.0644 38.371 26.8958C37.1193 25.6442 35.5717 24.8915 33.955 24.6268C31.6493 24.2493 30.1416 22.5913 29.4856 21.0374C28.823 19.4679 28.613 16.8675 30.5994 14.8811L35.9158 9.56469C35.9178 9.56274 35.9197 9.56078 35.9217 9.55886C38.8351 6.62482 42.2493 4.31565 46.3359 4.25536ZM46.4588 12.5878C45.6068 12.6004 44.168 13.0799 41.8305 15.4349L41.8197 15.4461L39.5557 17.7099C41.2617 18.501 42.8597 19.5994 44.2634 21.0033C50.6863 27.4262 50.6863 37.8397 44.2634 44.2625C37.8406 50.6854 27.4271 50.6854 21.0042 44.2625C19.6003 42.8587 18.5019 41.2608 17.7108 39.5548L15.4466 41.8191L15.4355 41.83C13.0806 44.1675 12.601 45.6062 12.5884 46.4587C12.5762 47.2816 12.9856 48.7662 15.449 51.2362C15.4486 51.2358 15.4493 51.2366 15.449 51.2362L25.159 60.9462C26.2753 62.0625 26.6648 63.7137 26.1651 65.2116C25.6653 66.7091 24.3622 67.7954 22.7991 68.0179C21.1207 68.2562 19.5083 69.0179 18.2134 70.3129C15.0449 73.4812 15.0449 78.6183 18.2134 81.7871C21.3819 84.9554 26.5191 84.9554 29.6876 81.7871C30.9825 80.4921 31.744 78.8796 31.9826 77.2012C32.2048 75.6383 33.2913 74.335 34.7889 73.8354C36.2864 73.3354 37.9378 73.725 39.0541 74.8412L48.7763 84.5637C48.7776 84.5646 48.7784 84.5658 48.7797 84.5666C48.7793 84.5666 48.7797 84.5671 48.7797 84.5666C51.2393 87.0196 52.7205 87.4275 53.5413 87.4154C54.3913 87.4029 55.8276 86.9246 58.1563 84.5783L58.1672 84.5671L60.4455 82.2891C58.7397 81.4979 57.1418 80.3996 55.7384 78.9962C49.3155 72.5733 49.3155 62.1596 55.7384 55.7366C62.1609 49.3137 72.5747 49.3137 78.9976 55.7366C80.4013 57.1404 81.4997 58.7383 82.2905 60.4437L84.5538 58.1804L84.5651 58.1696C86.9201 55.8325 87.3997 54.3933 87.4122 53.5412C87.4243 52.7183 87.0151 51.2337 84.5534 48.765C84.5543 48.7658 84.5522 48.7641 84.5534 48.765L74.8413 39.0533C73.7251 37.9369 73.3355 36.2855 73.8355 34.788C74.3351 33.2904 75.6384 32.2039 77.2018 31.9818C78.8801 31.7433 80.493 30.9817 81.788 29.6867C84.9563 26.5182 84.9563 21.381 81.788 18.2125C78.6193 15.044 73.4822 15.044 70.3134 18.2125C69.0184 19.5075 68.2572 21.1201 68.0184 22.7987C67.7963 24.3618 66.7101 25.6651 65.2122 26.1649C63.7147 26.6647 62.0634 26.2752 60.9472 25.1588L51.238 15.4497C51.2384 15.4502 51.2372 15.4491 51.238 15.4497C48.7684 12.9865 47.2818 12.5756 46.4588 12.5878Z" fill="url(#paint0_linear_106_1186)"/>
<defs>
<linearGradient id="paint0_linear_106_1186" x1="4.27462" y1="4.57473" x2="110.361" y2="73.0503" gradientUnits="userSpaceOnUse">
<stop stop-color="white"/>
<stop offset="0.848958" stop-color="#7F787F"/>
<stop offset="0.982609" stop-color="#4B454B"/>
</linearGradient>
</defs>
</svg>
