<svg width="100" height="100" viewBox="0 0 100 100" fill="none" xmlns="http://www.w3.org/2000/svg">
<path d="M37.1952 76.7803C36.5003 76.1709 35.9115 75.6113 35.8864 75.5366C35.8614 75.4619 36.5118 74.6343 37.3313 73.6974L38.8214 71.994L60.9767 72.0048L63.9943 75.4949L62.9077 76.4476C62.4479 76.8509 61.9878 77.2537 61.5271 77.6561C61.2367 77.9084 61.2219 77.8986 60.3464 76.8528L59.4598 75.7937L40.429 75.7851L38.4587 77.8883L37.1952 76.7803Z" fill="url(#paint0_linear_106_1162)"/>
<path d="M85.8185 43.451V41.6031C85.8185 40.1078 85.7632 39.5908 85.5278 38.892M85.8185 43.451L66.9099 34.8645C74.7614 34.8845 80.5029 34.92 80.8565 34.9711M85.8185 43.451L86.5151 44.0771L85.8185 43.451ZM85.5278 38.892C84.8078 36.7551 83.0626 35.2903 80.8565 34.9711M85.5278 38.892L83.6324 39.5304M85.5278 38.892L83.6325 39.5306M80.8565 34.9711L80.5701 36.9505C80.5895 36.9533 80.6089 36.9562 80.6283 36.9593M80.8565 34.9711L80.5706 36.9506C80.6176 36.9573 80.65 36.96 80.65 36.9603C80.65 36.9604 80.6433 36.96 80.6283 36.9593M80.6283 36.9593C82.0494 37.1854 83.1561 38.1168 83.6324 39.5304M80.6283 36.9593C80.6074 36.9583 80.5706 36.9566 80.5134 36.9547C80.3818 36.9503 80.1936 36.9458 79.9478 36.9413C79.4581 36.9322 78.7673 36.9238 77.9005 36.9159C76.1685 36.9003 73.7529 36.8872 70.8793 36.8767C65.1332 36.8557 57.5668 36.8452 49.9992 36.8452C42.4317 36.8452 34.8655 36.8557 29.1196 36.8767C26.2462 36.8872 23.8308 36.9003 22.099 36.9159C21.2324 36.9238 20.5417 36.9322 20.0521 36.9413C19.8064 36.9458 19.6183 36.9503 19.4868 36.9547C19.4297 36.9566 19.3929 36.9583 19.3721 36.9593C17.9509 37.1854 16.844 38.1171 16.3679 39.5304L16.3678 39.5306C16.2917 39.7565 16.2536 39.9178 16.2274 40.1622C16.1964 40.4508 16.1816 40.8614 16.1816 41.6031V43.451V44.3425L15.5185 44.9385L14.8225 45.564L83.6324 39.5304M83.6324 39.5304L83.6325 39.5306M83.6325 39.5306C83.7086 39.7564 83.7466 39.9177 83.7728 40.162C83.8038 40.4507 83.8185 40.8613 83.8185 41.6031V43.451V44.3425L84.4816 44.9385L85.178 45.5644C85.1781 45.5645 85.1782 45.5645 85.1782 45.5646C85.399 45.7632 85.7016 46.1654 85.8106 46.3875L85.8107 46.3877L86.0001 46.7732V51.3048C86.0001 54.3246 85.9915 55.4858 85.8669 56.1221C85.8294 56.3135 85.7982 56.3552 85.7849 56.3731C85.7838 56.3745 85.7829 56.3757 85.7821 56.3769C85.7155 56.4714 85.6081 56.5843 85.2131 56.9701C85.2129 56.9703 85.2128 56.9704 85.2126 56.9706L84.4477 57.7171L83.8632 58.2875L83.845 59.104L83.7969 61.2691C83.7721 62.3759 83.7554 62.7608 83.7186 62.9931L83.7167 63.0051C83.7039 63.0874 83.6976 63.1282 83.506 63.5269C83.0938 64.3839 82.6748 64.8248 82.0988 65.1695C81.6351 65.4468 81.6237 65.4761 81.6232 65.4759C81.6229 65.4759 81.6252 65.4689 81.5808 65.4796C81.2849 65.5504 80.5791 65.6327 78.6193 65.6845C75.2756 65.7728 68.835 65.7701 55.8647 65.7645C54.0238 65.7638 52.0514 65.7629 49.9376 65.7623C36.8885 65.7583 29.1784 65.7485 24.6521 65.7184C22.3862 65.7034 20.9339 65.6834 20.0138 65.6572C19.552 65.644 19.2444 65.6298 19.0441 65.6156C18.9626 65.6099 18.9114 65.6048 18.8839 65.6019M83.6325 39.5306L18.8839 65.6019M78.6205 71.0401L78.6321 69.6855C77.7138 69.7089 76.5745 69.7259 75.1521 69.738V71.0401M78.6205 71.0401H75.1521M78.6205 71.0401L78.5194 82.7727L78.2092 83.9338L78.2091 83.9339C76.931 88.7187 73.0956 92.074 68.3359 92.6549L80.5171 83.0437L80.6205 71.0401H78.6205ZM75.1521 71.0401H73.1521L69.4784 88.9887C72.0449 88.1874 74.0036 86.2292 74.8047 83.6622L74.8048 83.6619C74.9995 83.0378 75.0725 82.4733 75.1099 81.3914C75.1464 80.335 75.1521 78.6241 75.1521 75.6424V71.0401ZM18.8839 65.6019L18.8799 65.6008C18.0662 65.3684 17.4978 64.9815 16.8785 64.1576C16.4305 63.5614 16.1813 62.9712 16.1813 60.9801V59.1443V58.2914L15.5658 57.701L14.8549 57.019L14.8546 57.0187C14.6095 56.7838 14.2926 56.3391 14.1907 56.1219C14.1906 56.1218 14.1906 56.1217 14.1905 56.1216L14 55.715V46.7732L14.1893 46.3877L14.1894 46.3875C14.2982 46.1659 14.6007 45.7638 14.8219 45.5646L18.8839 65.6019ZM22.0936 71.0398L22.0941 75.2674V75.2676C22.0941 78.9873 22.1618 81.927 22.2341 82.5193L22.2342 82.5196C22.4738 84.4834 23.3089 86.575 24.4173 88.0492L22.8188 89.2511L24.4173 88.0492C25.0312 88.8657 26.4326 90.2213 27.1545 90.7167C28.4849 91.6297 30.6666 92.4591 32.2312 92.6526L32.2318 92.6527C32.2277 92.6522 32.2328 92.6525 32.2491 92.6534C32.2949 92.6559 32.4284 92.6633 32.6917 92.6715C33.0067 92.6814 33.4343 92.6907 33.9628 92.6995C35.0185 92.717 36.4516 92.7317 38.14 92.7435C41.5155 92.7672 45.8934 92.7792 50.2741 92.7795C54.6548 92.7798 59.0341 92.7684 62.4122 92.7452C64.1019 92.7337 65.5367 92.7192 66.5944 92.7018C67.124 92.6932 67.5527 92.6839 67.869 92.6741C68.1439 92.6656 68.2794 92.6579 68.3217 92.6556L22.0936 71.0398ZM22.0936 71.0398H25.4127L25.4146 75.0575C25.4154 76.7232 25.4321 78.3518 25.4586 79.6364C25.4833 80.8381 25.5183 81.9183 25.5795 82.3432L22.0936 71.0398ZM42.336 85.2625C41.6389 86.1506 41.0206 86.9054 40.5289 87.4683C40.2846 87.7481 40.0564 87.998 39.856 88.1993L39.8554 88.1999C39.7201 88.3359 39.4121 88.6454 39.0483 88.8443L39.048 88.8445C38.5155 89.1354 38.0203 89.2508 37.3613 89.2943C36.8078 89.3309 35.999 89.3247 34.7712 89.3067L31.9564 89.2654L31.5094 89.2589L31.1077 89.0626L30.1265 88.5832L30.1264 88.5831C27.6402 87.3681 25.9739 85.0827 25.5796 82.3438L42.336 85.2625ZM42.336 85.2625C42.9265 84.5104 43.5121 83.796 43.9761 83.2547C44.2093 82.9827 44.402 82.7657 44.544 82.6137C44.5549 82.602 44.5653 82.591 44.5752 82.5805H50.2464C53.0477 82.5805 54.6044 82.5877 55.5153 82.6186C55.8236 82.6291 56.0281 82.6428 56.1574 82.6538C56.2369 82.7356 56.3389 82.8456 56.4669 82.9903C56.8719 83.448 57.4451 84.1478 58.2421 85.1608C58.2422 85.1609 58.2422 85.161 58.2423 85.1611L59.8141 83.9244M42.336 85.2625L62.5147 87.0705C62.2763 86.925 61.0607 85.5094 59.8141 83.9244M59.8141 83.9244C58.21 81.8856 57.4045 80.9754 57.06 80.8118L59.8141 83.9244ZM61.585 75.8159C61.585 75.8159 61.5849 75.8159 61.585 75.8159ZM61.585 75.8159C61.6018 75.8186 61.6188 75.8216 61.6357 75.8248L61.585 75.8159ZM50.2085 53.0642L50.206 53.0642L50.2108 55.0642C50.206 53.0642 50.2059 53.0642 50.2058 53.0642H50.2049L50.2015 53.0642L50.1875 53.0642L50.1321 53.0644L49.9148 53.0647C49.7243 53.065 49.4445 53.0653 49.0878 53.0655C48.3744 53.0658 47.3536 53.0655 46.1252 53.063C43.6677 53.058 40.3812 53.0441 37.0613 53.0087C33.7381 52.9732 30.3951 52.9163 27.8195 52.8256C26.5284 52.7802 25.4526 52.7271 24.6764 52.666C24.2848 52.6352 24 52.6046 23.8145 52.577C23.7272 52.564 23.6884 52.5555 23.6844 52.5546C23.684 52.5545 23.6839 52.5545 23.6841 52.5546L23.6842 52.5546C23.6871 52.5553 23.719 52.5631 23.7694 52.581C23.8099 52.5954 23.9325 52.6404 24.0828 52.7333L21.9783 56.1349C22.2979 56.3327 22.6199 56.4121 22.7298 56.439C22.8957 56.4798 23.0679 56.5099 23.2257 56.5334C23.5447 56.5809 23.9345 56.62 24.3625 56.6536C25.2256 56.7216 26.3694 56.7771 27.6788 56.8232C30.3044 56.9155 33.6865 56.9729 37.0186 57.0084C40.354 57.0441 43.6529 57.058 46.117 57.063C47.3493 57.0655 48.3734 57.0658 49.0897 57.0655C49.4478 57.0653 49.729 57.065 49.9207 57.0647L50.1398 57.0643L50.1962 57.0642L50.2105 57.0642L50.2131 57.0642L50.2142 57.0642H50.2151L75.8967 57.0347L75.8922 53.0347L50.2085 53.0642ZM37.0182 10.3095C49.7659 3.95968 65.4603 7.66375 73.9707 19.0179C76.3896 22.2453 78.0648 25.6348 79.0123 29.1648C79.1419 29.6476 79.2813 30.2374 79.4047 30.81C78.9054 30.8188 78.2853 30.8264 77.5159 30.8329C73.4976 30.8668 65.6284 30.8684 50.2142 30.8684C35.7097 30.8684 27.8378 30.8638 23.591 30.833C22.5248 30.8252 21.6955 30.8159 21.052 30.8048C22.3212 24.7755 25.7216 18.9091 30.2874 14.8728L30.2876 14.8727C32.5433 12.878 34.445 11.5911 37.0182 10.3095L37.0182 10.3095ZM82.6538 67.1865L82.6551 67.0401H80.6378H73.1521H71.1521V67.7589C67.462 67.7695 62.5231 67.7674 55.8792 67.7646C54.0333 67.7638 52.0559 67.7629 49.937 67.7623C40.6552 67.7595 34.0708 67.7537 29.4111 67.7397L29.4107 67.0398H27.4117H20.0934H18.5776L82.6538 67.1865ZM85.8445 59.1485L85.7964 61.3138L85.8445 59.1485ZM55.993 82.4949C55.984 82.488 55.9795 82.4842 55.9799 82.4843C55.9802 82.4843 55.9845 82.4876 55.993 82.4949Z" stroke="url(#paint1_linear_106_1162)" stroke-width="4"/>
<defs>
<linearGradient id="paint0_linear_106_1162" x1="12.0165" y1="5.53507" x2="108.043" y2="58.1358" gradientUnits="userSpaceOnUse">
<stop stop-color="white"/>
<stop offset="0.848958" stop-color="#7F787F"/>
<stop offset="0.982609" stop-color="#4B454B"/>
</linearGradient>
<linearGradient id="paint1_linear_106_1162" x1="12.0165" y1="5.53507" x2="108.043" y2="58.1358" gradientUnits="userSpaceOnUse">
<stop stop-color="white"/>
<stop offset="0.848958" stop-color="#7F787F"/>
<stop offset="0.982609" stop-color="#4B454B"/>
</linearGradient>
</defs>
</svg>
