<svg width="100" height="100" viewBox="0 0 100 100" fill="none" xmlns="http://www.w3.org/2000/svg">
<path d="M50 7.05637V31.8182C50 37.9745 52.9345 40.2064 59.0909 40.2064H83.1491M50 7.05637H29.91C23.9745 7.05637 16.8509 13.5927 16.8509 19.5273V79.8846C16.8509 86.04 23.7536 92.9436 29.91 92.9436H70.09C76.2463 92.9436 83.1491 86.04 83.1491 79.8846V40.2064M50 7.05637L83.1491 40.2064" stroke="url(#paint0_linear_328_2231)" stroke-width="8" stroke-linecap="round" stroke-linejoin="round"/>
<path d="M56.8182 54.8227V77.55M43.1818 54.8227V77.55M70.3891 54.8227V77.55M70.4546 77.55H29.5455V54.8227H70.4546M29.5455 66.1864H70.4546" stroke="url(#paint1_linear_328_2231)" stroke-width="8" stroke-linecap="round" stroke-linejoin="round"/>
<defs>
<linearGradient id="paint0_linear_328_2231" x1="16.8653" y1="7.35729" x2="104.108" y2="50.8279" gradientUnits="userSpaceOnUse">
<stop stop-color="white"/>
<stop offset="0.848958" stop-color="#7F787F"/>
<stop offset="0.982609" stop-color="#4B454B"/>
</linearGradient>
<linearGradient id="paint1_linear_328_2231" x1="29.5543" y1="54.9024" x2="58.1495" y2="88.1268" gradientUnits="userSpaceOnUse">
<stop stop-color="white"/>
<stop offset="0.848958" stop-color="#7F787F"/>
<stop offset="0.982609" stop-color="#4B454B"/>
</linearGradient>
</defs>
</svg>
