<svg width="100" height="100" viewBox="0 0 100 100" fill="none" xmlns="http://www.w3.org/2000/svg">
<path d="M82.1118 41.5445C82.1118 41.5445 91.2955 28.4827 82.6346 15.9664C73.9728 3.4509 59.4927 7.78908 59.4927 7.78908C59.4927 7.78908 37.7718 19.2854 25.7382 27.4509C16.43 34.13 10.9346 42.4 18.9509 56.3336C26.9673 70.2673 49.2264 64.3373 49.2264 64.3373" stroke="url(#paint0_linear_328_2241)" stroke-width="8" stroke-linecap="round" stroke-linejoin="round"/>
<path d="M17.8882 58.4554C17.8882 58.4554 8.70454 71.5182 17.3654 84.0336C26.0273 96.5491 40.5073 92.2109 40.5073 92.2109C40.5073 92.2109 62.2282 80.7145 74.2618 72.5491C83.5691 65.87 89.0645 57.6 81.0482 43.6663C73.0318 29.7327 50.7727 35.6627 50.7727 35.6627" stroke="url(#paint1_linear_328_2241)" stroke-width="8" stroke-linecap="round" stroke-linejoin="round"/>
<path d="M38.7964 43.1055L66.1091 26.25M33.6291 74.1091L60.9427 57.2545" stroke="url(#paint2_linear_328_2241)" stroke-width="8" stroke-linecap="round" stroke-linejoin="round"/>
<defs>
<linearGradient id="paint0_linear_328_2241" x1="15.0942" y1="7.26696" x2="87.4584" y2="64.1491" gradientUnits="userSpaceOnUse">
<stop stop-color="white"/>
<stop offset="0.848958" stop-color="#7F787F"/>
<stop offset="0.982609" stop-color="#4B454B"/>
</linearGradient>
<linearGradient id="paint1_linear_328_2241" x1="13.6626" y1="34.6141" x2="86.0266" y2="91.4954" gradientUnits="userSpaceOnUse">
<stop stop-color="white"/>
<stop offset="0.848958" stop-color="#7F787F"/>
<stop offset="0.982609" stop-color="#4B454B"/>
</linearGradient>
<linearGradient id="paint2_linear_328_2241" x1="33.6361" y1="26.4177" x2="78.3984" y2="46.0267" gradientUnits="userSpaceOnUse">
<stop stop-color="white"/>
<stop offset="0.848958" stop-color="#7F787F"/>
<stop offset="0.982609" stop-color="#4B454B"/>
</linearGradient>
</defs>
</svg>
