<svg width="100" height="100" viewBox="0 0 100 100" fill="none" xmlns="http://www.w3.org/2000/svg">
<path d="M46.21 15.5072C47.7616 12.2918 49.8671 9.3746 52.43 6.88904C53.8979 9.53675 54.7435 12.484 54.9027 15.5072L59.9245 14.3827C59.9245 14.3827 67.4191 29.3718 54.9036 49.9818C58.813 52.8953 61.7448 56.9279 63.3107 61.5452C64.8765 66.1626 65.0025 71.1467 63.6718 75.8372C76.5636 71.4909 80.9091 67.219 85.1818 67.219C85.7456 67.2089 86.3057 67.3125 86.8286 67.5236C87.3515 67.7347 87.8265 68.049 88.2253 68.4477C88.624 68.8464 88.9384 69.3213 89.1496 69.8442C89.3608 70.367 89.4645 70.9271 89.4545 71.4909C89.4545 71.4909 90.0536 74.3381 82.5591 78.0854L67.57 85.58C60.842 89.9639 53.1 92.5447 45.0872 93.0745C36.3182 93.0745 30.0982 93.6745 30.0982 89.3272C30.2959 86.4613 31.583 83.7796 33.6954 81.8327H29.9482C29.9482 81.8327 23.5782 93.0745 14.9591 93.0745C6.34088 93.0745 14.9591 85.58 14.9591 85.58C7.46452 85.58 10.0882 71.1163 18.7063 66.8436C17.2229 64.4654 16.3364 61.7638 16.1225 58.969C15.9086 56.1743 16.3735 53.3692 17.4776 50.7929C18.5818 48.2167 20.2925 45.9455 22.4638 44.1731C24.6352 42.4006 27.2029 41.1795 29.9482 40.6136C25.6018 36.2663 22.4536 27.0481 26.2009 25.6245C29.5793 24.1969 32.2679 21.5083 33.6954 18.1299C35.4753 16.8285 37.5123 15.9214 39.6704 15.4691C41.8285 15.0169 44.0573 15.0299 46.21 15.5072Z" stroke="url(#paint0_linear_328_2299)" stroke-width="7" stroke-linecap="round" stroke-linejoin="round"/>
<defs>
<linearGradient id="paint0_linear_328_2299" x1="10.5752" y1="7.19111" x2="106.655" y2="63.9548" gradientUnits="userSpaceOnUse">
<stop stop-color="white"/>
<stop offset="0.848958" stop-color="#7F787F"/>
<stop offset="0.982609" stop-color="#4B454B"/>
</linearGradient>
</defs>
</svg>
